<svg width="226" height="150" viewBox="0 0 226 150" fill="none" xmlns="http://www.w3.org/2000/svg">
<path d="M176.195 60.7891H209.915H218.943L211.979 65.8141V75.7003C211.979 76.8406 211.055 77.7646 209.915 77.7646H176.195C175.055 77.7646 174.13 76.8403 174.13 75.7003V62.8534C174.13 61.7134 175.055 60.7891 176.195 60.7891Z" fill="#F5F5F5"/>
<path d="M177.978 67.7759C177.978 67.8173 184.425 67.8506 192.376 67.8506C200.33 67.8506 206.776 67.8173 206.776 67.7759C206.776 67.7348 200.33 67.7012 192.376 67.7012C184.425 67.7015 177.978 67.7348 177.978 67.7759Z" fill="#E0E0E0"/>
<path d="M177.978 71.5718C177.978 71.6129 184.425 71.6465 192.376 71.6465C200.33 71.6465 206.776 71.6132 206.776 71.5718C206.776 71.5307 200.33 71.4971 192.376 71.4971C184.425 71.4971 177.978 71.5304 177.978 71.5718Z" fill="#E0E0E0"/>
<path d="M111.271 24.3096H109.271V31.0107H111.271V24.3096Z" fill="#E0E0E0"/>
<path d="M94.5619 23.3384H92.5615V31.0103H94.5619V23.3384Z" fill="#E0E0E0"/>
<path d="M98.7392 21.7397H96.7388V31.0106H98.7392V21.7397Z" fill="#E0E0E0"/>
<path d="M102.916 22.248H100.916V31.0104H102.916V22.248Z" fill="#E0E0E0"/>
<path d="M107.094 19.2837H105.093V31.0104H107.094V19.2837Z" fill="#E0E0E0"/>
<path d="M115.448 19.3408H113.448V31.0105H115.448V19.3408Z" fill="#E0E0E0"/>
<path d="M119.626 23.1733H117.625V31.0102H119.626V23.1733Z" fill="#E0E0E0"/>
<path d="M123.803 19.855H121.802V31.0105H123.803V19.855Z" fill="#E0E0E0"/>
<path d="M127.98 17.3418H125.98V31.0104H127.98V17.3418Z" fill="#E0E0E0"/>
<path d="M132.158 19.7979H130.157V31.0107H132.158V19.7979Z" fill="#E0E0E0"/>
<path d="M184.868 30.3891L201.411 27.8613C202.798 36.9369 196.471 45.546 187.396 46.9329C178.32 48.3195 169.711 41.9928 168.324 32.9172C166.938 23.8416 173.264 15.2325 182.34 13.8459C183.785 13.6251 185.253 13.5945 186.705 13.755L184.868 30.3891Z" fill="#EBEBEB"/>
<path d="M190.236 13.8076L188.227 26.6317L200.815 24.2677C200.815 24.2677 198.964 17.0809 190.236 13.8076Z" fill="#E0E0E0"/>
<path d="M15.9439 61.4987C15.8713 56.9552 19.4917 53.1995 24.0142 53.1266C28.5367 53.0537 32.2753 56.6906 32.3479 61.2341C32.4205 65.7776 28.8001 69.5333 24.2776 69.6062C19.7551 69.6791 16.0165 66.0419 15.9439 61.4987ZM28.0675 61.3031C28.0327 59.1308 26.2453 57.3917 24.0829 57.4265C21.9205 57.4613 20.1895 59.2571 20.2243 61.4294C20.2591 63.6017 22.0465 65.3408 24.2089 65.306C26.3713 65.2712 28.1023 63.4754 28.0675 61.3031Z" fill="#F5F5F5"/>
<path d="M15.9439 61.4991C15.8713 56.9556 19.4917 53.1999 24.0139 53.127L24.0826 57.4269C21.9202 57.4617 20.1892 59.2578 20.224 61.4301C20.2588 63.6024 22.0462 65.3415 24.2086 65.3064L24.2773 69.6063C19.7551 69.6795 16.0165 66.0426 15.9439 61.4991Z" fill="#E0E0E0"/>
<path d="M23.2777 52.4652C28.5688 52.3797 32.7895 56.4861 32.8744 61.8015L27.8668 61.8822C27.8263 59.3406 25.8922 57.7404 23.3626 57.7815L23.2777 52.4652Z" fill="#EBEBEB"/>
<path d="M69.2356 90.4312H58.8091V102.827H69.2356V90.4312Z" fill="#F5F5F5"/>
<path d="M59.1685 89.623H12.0487V103.606H59.1685V89.623Z" fill="#E0E0E0"/>
<path d="M69.5515 90.799H57.9052V89.623H69.5515C69.8761 89.623 70.1395 89.8864 70.1395 90.211C70.1395 90.5356 69.8764 90.799 69.5515 90.799Z" fill="#E0E0E0"/>
<path d="M69.5515 103.606H57.9052V102.43H69.5515C69.8761 102.43 70.1395 102.693 70.1395 103.018C70.1395 103.343 69.8764 103.606 69.5515 103.606Z" fill="#E0E0E0"/>
<path d="M55.4635 89.623H49.8967V103.606H55.4635V89.623Z" fill="#EBEBEB"/>
<path d="M22.0969 89.7778H16.5298V103.761H22.0969V89.7778Z" fill="#EBEBEB"/>
<path d="M69.2356 92.4812C69.2356 92.5154 66.979 92.543 64.1959 92.543C61.4119 92.543 59.1559 92.5154 59.1559 92.4812C59.1559 92.447 61.4119 92.4194 64.1959 92.4194C66.979 92.4194 69.2356 92.447 69.2356 92.4812Z" fill="#E0E0E0"/>
<path d="M69.2356 94.3401C69.2356 94.3743 66.979 94.4022 64.1959 94.4022C61.4119 94.4022 59.1559 94.3746 59.1559 94.3401C59.1559 94.3059 61.4119 94.2783 64.1959 94.2783C66.979 94.278 69.2356 94.3059 69.2356 94.3401Z" fill="#E0E0E0"/>
<path d="M69.2356 96.629C69.2356 96.6632 66.979 96.6908 64.1959 96.6908C61.4119 96.6908 59.1559 96.6632 59.1559 96.629C59.1559 96.5948 61.4119 96.5669 64.1959 96.5669C66.979 96.5669 69.2356 96.5948 69.2356 96.629Z" fill="#E0E0E0"/>
<path d="M69.2356 98.9178C69.2356 98.952 66.979 98.9796 64.1959 98.9796C61.4119 98.9796 59.1559 98.952 59.1559 98.9178C59.1559 98.8836 61.4119 98.856 64.1959 98.856C66.979 98.8557 69.2356 98.8836 69.2356 98.9178Z" fill="#E0E0E0"/>
<path d="M69.2356 101.206C69.2356 101.241 66.979 101.268 64.1959 101.268C61.4119 101.268 59.1559 101.241 59.1559 101.206C59.1559 101.172 61.4119 101.145 64.1959 101.145C66.979 101.144 69.2356 101.172 69.2356 101.206Z" fill="#E0E0E0"/>
<path d="M46.9039 95.3696H25.7053V97.8875H46.9039V95.3696Z" fill="#EBEBEB"/>
<path d="M69.1297 103.88H58.5433V111.433H69.1297V103.88Z" fill="#FAFAFA"/>
<path d="M58.6616 103.606H13.6088V111.707H58.6616V103.606Z" fill="#F5F5F5"/>
<path d="M58.3342 104.154H69.7129C69.8644 104.154 69.9868 104.031 69.9868 103.88C69.9868 103.729 69.8641 103.606 69.7129 103.606H58.3342V104.154Z" fill="#F5F5F5"/>
<path d="M58.3342 111.707H69.8611C69.9307 111.707 69.9868 111.65 69.9868 111.581V111.284C69.9868 111.215 69.9304 111.159 69.8611 111.159H58.3342V111.707Z" fill="#F5F5F5"/>
<path d="M69.1298 105.315C69.1298 105.349 66.7862 105.377 63.896 105.377C61.0046 105.377 58.6616 105.349 58.6616 105.315C58.6616 105.281 61.0046 105.253 63.896 105.253C66.7862 105.253 69.1298 105.281 69.1298 105.315Z" fill="#E0E0E0"/>
<path d="M69.1298 106.743C69.1298 106.778 66.7862 106.806 63.896 106.806C61.0046 106.806 58.6616 106.778 58.6616 106.743C58.6616 106.709 61.0046 106.682 63.896 106.682C66.7862 106.682 69.1298 106.709 69.1298 106.743Z" fill="#E0E0E0"/>
<path d="M69.1298 108.173C69.1298 108.207 66.7862 108.235 63.896 108.235C61.0046 108.235 58.6616 108.207 58.6616 108.173C58.6616 108.138 61.0046 108.111 63.896 108.111C66.7862 108.111 69.1298 108.138 69.1298 108.173Z" fill="#E0E0E0"/>
<path d="M69.1298 109.601C69.1298 109.636 66.7862 109.663 63.896 109.663C61.0046 109.663 58.6616 109.636 58.6616 109.601C58.6616 109.567 61.0046 109.54 63.896 109.54C66.7862 109.54 69.1298 109.567 69.1298 109.601Z" fill="#E0E0E0"/>
<path d="M70.7353 112.427H59.9299V132.901H70.7353V112.427Z" fill="#EBEBEB"/>
<path d="M59.93 111.707H9.20898V133.906H59.93V111.707Z" fill="#E0E0E0"/>
<path d="M71.5813 133.907H58.5433V132.467H71.5813C71.9788 132.467 72.3013 132.789 72.3013 133.187C72.301 133.584 71.9788 133.907 71.5813 133.907Z" fill="#E0E0E0"/>
<path d="M71.9707 113.147H58.5433V111.707H71.9707C72.1531 111.707 72.301 111.855 72.301 112.037V112.816C72.301 112.999 72.1531 113.147 71.9707 113.147Z" fill="#E0E0E0"/>
<path d="M70.7357 115.171C70.7357 115.205 68.3165 115.233 65.3333 115.233C62.3489 115.233 59.9303 115.205 59.9303 115.171C59.9303 115.137 62.3489 115.109 65.3333 115.109C68.3165 115.109 70.7357 115.137 70.7357 115.171Z" fill="#E0E0E0"/>
<path d="M70.7357 117.797C70.7357 117.831 68.3165 117.859 65.3333 117.859C62.3489 117.859 59.9303 117.831 59.9303 117.797C59.9303 117.763 62.3489 117.735 65.3333 117.735C68.3165 117.735 70.7357 117.763 70.7357 117.797Z" fill="#E0E0E0"/>
<path d="M70.7357 120.423C70.7357 120.457 68.3165 120.485 65.3333 120.485C62.3489 120.485 59.9303 120.457 59.9303 120.423C59.9303 120.389 62.3489 120.361 65.3333 120.361C68.3165 120.361 70.7357 120.389 70.7357 120.423Z" fill="#E0E0E0"/>
<path d="M70.7357 123.049C70.7357 123.083 68.3165 123.111 65.3333 123.111C62.3489 123.111 59.9303 123.084 59.9303 123.049C59.9303 123.015 62.3489 122.987 65.3333 122.987C68.3165 122.987 70.7357 123.015 70.7357 123.049Z" fill="#E0E0E0"/>
<path d="M70.7357 125.675C70.7357 125.709 68.3165 125.737 65.3333 125.737C62.3489 125.737 59.9303 125.709 59.9303 125.675C59.9303 125.641 62.3489 125.613 65.3333 125.613C68.3165 125.613 70.7357 125.641 70.7357 125.675Z" fill="#E0E0E0"/>
<path d="M70.7357 128.301C70.7357 128.335 68.3165 128.363 65.3333 128.363C62.3489 128.363 59.9303 128.335 59.9303 128.301C59.9303 128.267 62.3489 128.239 65.3333 128.239C68.3165 128.239 70.7357 128.267 70.7357 128.301Z" fill="#E0E0E0"/>
<path d="M70.7357 130.927C70.7357 130.961 68.3165 130.989 65.3333 130.989C62.3489 130.989 59.9303 130.961 59.9303 130.927C59.9303 130.893 62.3489 130.865 65.3333 130.865C68.3165 130.865 70.7357 130.893 70.7357 130.927Z" fill="#E0E0E0"/>
<path d="M26.5652 124.021V125.257C26.5652 126.744 25.8215 127.594 24.3869 127.594C22.9526 127.594 22.2086 126.744 22.2086 125.257V120.422C22.2086 118.935 22.9523 118.084 24.3869 118.084C25.8212 118.084 26.5652 118.934 26.5652 120.422V121.325H25.184V120.329C25.184 119.665 24.8918 119.413 24.4271 119.413C23.9621 119.413 23.6699 119.665 23.6699 120.329V125.35C23.6699 126.014 23.9621 126.253 24.4271 126.253C24.8918 126.253 25.184 126.014 25.184 125.35V124.022H26.5652V124.021Z" fill="#EBEBEB"/>
<path d="M27.3344 120.422C27.3344 118.935 28.118 118.084 29.5523 118.084C30.9866 118.084 31.7705 118.934 31.7705 120.422V125.257C31.7705 126.744 30.9869 127.594 29.5523 127.594C28.1177 127.594 27.3344 126.744 27.3344 125.257V120.422ZM28.7954 125.35C28.7954 126.014 29.0876 126.266 29.5523 126.266C30.0173 126.266 30.3095 126.014 30.3095 125.35V120.329C30.3095 119.665 30.0173 119.413 29.5523 119.413C29.0876 119.413 28.7954 119.665 28.7954 120.329V125.35Z" fill="#EBEBEB"/>
<path d="M32.7125 118.191H34.1735V126.16H36.5774V127.488H32.7125V118.191Z" fill="#EBEBEB"/>
<path d="M37.0944 120.422C37.0944 118.935 37.878 118.084 39.3126 118.084C40.7469 118.084 41.5308 118.934 41.5308 120.422V125.257C41.5308 126.744 40.7472 127.594 39.3126 127.594C37.878 127.594 37.0944 126.744 37.0944 125.257V120.422ZM38.5554 125.35C38.5554 126.014 38.8476 126.266 39.3126 126.266C39.7773 126.266 40.0698 126.014 40.0698 125.35V120.329C40.0698 119.665 39.7776 119.413 39.3126 119.413C38.8476 119.413 38.5554 119.665 38.5554 120.329V125.35Z" fill="#EBEBEB"/>
<path d="M43.8671 118.191V125.363C43.8671 126.027 44.1593 126.266 44.6243 126.266C45.0893 126.266 45.3815 126.027 45.3815 125.363V118.191H46.7627V125.27C46.7627 126.757 46.019 127.608 44.5844 127.608C43.1501 127.608 42.4061 126.758 42.4061 125.27V118.191H43.8671Z" fill="#EBEBEB"/>
<path d="M50.8123 127.488C50.7325 127.249 50.6794 127.103 50.6794 126.346V124.885C50.6794 124.021 50.3872 123.703 49.723 123.703H49.2184V127.488H47.7574V118.191H49.9621C51.4762 118.191 52.1269 118.895 52.1269 120.329V121.06C52.1269 122.016 51.8215 122.64 51.1705 122.946C51.901 123.251 52.1401 123.955 52.1401 124.925V126.359C52.1401 126.811 52.1533 127.143 52.2994 127.488L50.8123 127.488ZM49.2184 119.519V122.375H49.7896C50.3341 122.375 50.6662 122.136 50.6662 121.392V120.475C50.6662 119.811 50.4403 119.519 49.9225 119.519H49.2184Z" fill="#EBEBEB"/>
<path d="M26.2493 106.797H25.184L25.2401 106.521H27.6857L27.6254 106.797H26.564L26.0162 109.539H25.7015L26.2493 106.797Z" fill="#E0E0E0"/>
<path d="M29.7371 107.271L28.0808 109.833C27.8006 110.265 27.5891 110.398 27.2615 110.398C27.0503 110.398 26.8343 110.325 26.7224 110.195L26.8862 109.971C26.9855 110.074 27.1148 110.135 27.2873 110.135C27.4817 110.135 27.6323 110.044 27.8093 109.768L27.9689 109.527L27.4037 107.271H27.7142L28.1843 109.203L29.4221 107.271H29.7371V107.271Z" fill="#E0E0E0"/>
<path d="M32.2592 108.211C32.2592 108.991 31.7159 109.56 30.974 109.56C30.5426 109.56 30.2405 109.384 30.1112 109.065L29.8526 110.376H29.546L30.1631 107.27H30.4562L30.383 107.633C30.5987 107.391 30.9008 107.253 31.2674 107.253C31.8494 107.254 32.2592 107.616 32.2592 108.211ZM31.9487 108.228C31.9487 107.784 31.6769 107.521 31.2023 107.521C30.6374 107.521 30.2234 107.965 30.2234 108.586C30.2234 109.03 30.4952 109.289 30.9695 109.289C31.5347 109.289 31.9487 108.845 31.9487 108.228Z" fill="#E0E0E0"/>
<path d="M32.6156 108.599C32.6156 107.827 33.1634 107.254 33.9266 107.254C34.5563 107.254 34.9574 107.625 34.9574 108.211C34.9574 108.987 34.4096 109.561 33.6464 109.561C33.017 109.561 32.6156 109.181 32.6156 108.599ZM34.6514 108.229C34.6514 107.784 34.3796 107.521 33.9053 107.521C33.3401 107.521 32.9219 107.969 32.9219 108.586C32.9219 109.031 33.1937 109.289 33.668 109.289C34.2332 109.289 34.6514 108.845 34.6514 108.229Z" fill="#E0E0E0"/>
<path d="M37.8935 107.27L37.4969 109.263C37.3373 110.066 36.9146 110.398 36.1772 110.398C35.75 110.398 35.4008 110.277 35.168 110.057L35.3492 109.824C35.5301 110.009 35.8367 110.126 36.1991 110.126C36.7724 110.126 37.0745 109.863 37.1822 109.315L37.2341 109.065C37.0184 109.307 36.7121 109.454 36.3284 109.454C35.7287 109.454 35.3276 109.104 35.3276 108.539C35.3276 107.81 35.8667 107.254 36.6215 107.254C37.0397 107.254 37.3763 107.426 37.5056 107.771L37.6004 107.271H37.8935V107.27ZM37.376 108.18C37.376 107.766 37.0955 107.521 36.6254 107.521C36.0518 107.521 35.6378 107.944 35.6378 108.521C35.6378 108.935 35.9138 109.181 36.3884 109.181C36.9575 109.181 37.376 108.758 37.376 108.18Z" fill="#E0E0E0"/>
<path d="M39.8933 107.254L39.8372 107.551C39.8069 107.551 39.7853 107.547 39.7508 107.547C39.2678 107.547 38.9444 107.823 38.8322 108.388L38.6039 109.539H38.2976L38.7464 107.27H39.0395L38.9618 107.684C39.1643 107.387 39.4619 107.254 39.8933 107.254Z" fill="#E0E0E0"/>
<path d="M42.4931 107.27L42.0404 109.539H41.747L41.8202 109.181C41.6045 109.419 41.3027 109.561 40.9361 109.561C40.3541 109.561 39.9485 109.199 39.9485 108.599C39.9485 107.823 40.4921 107.254 41.2295 107.254C41.6609 107.254 41.9627 107.431 42.092 107.745L42.1871 107.271H42.4931V107.27ZM41.9843 108.228C41.9843 107.784 41.7125 107.521 41.2382 107.521C40.6733 107.521 40.2548 107.969 40.2548 108.586C40.2548 109.03 40.5266 109.289 41.0009 109.289C41.5658 109.289 41.9843 108.845 41.9843 108.228Z" fill="#E0E0E0"/>
<path d="M45.4372 108.211C45.4372 108.991 44.8939 109.56 44.152 109.56C43.7206 109.56 43.4185 109.384 43.2892 109.065L43.0306 110.376H42.7246L43.3414 107.27H43.6345L43.5613 107.633C43.777 107.391 44.0791 107.253 44.4457 107.253C45.0274 107.254 45.4372 107.616 45.4372 108.211ZM45.1267 108.228C45.1267 107.784 44.8549 107.521 44.3806 107.521C43.8157 107.521 43.4014 107.965 43.4014 108.586C43.4014 109.03 43.6732 109.289 44.1475 109.289C44.7127 109.289 45.1267 108.845 45.1267 108.228Z" fill="#E0E0E0"/>
<path d="M48.1835 107.991C48.1835 108.073 48.1748 108.159 48.1574 108.25L47.8988 109.539H47.5925L47.8514 108.245C47.864 108.172 47.8727 108.103 47.8727 108.038C47.8727 107.715 47.6786 107.53 47.2862 107.53C46.8032 107.53 46.4711 107.792 46.3631 108.323L46.1216 109.539H45.8153L46.4537 106.339H46.7597L46.5053 107.611C46.721 107.366 47.0228 107.254 47.3723 107.254C47.8856 107.254 48.1835 107.53 48.1835 107.991Z" fill="#E0E0E0"/>
<path d="M51.05 107.271L49.3937 109.833C49.1132 110.265 48.902 110.398 48.5744 110.398C48.3632 110.398 48.1472 110.325 48.0353 110.195L48.1991 109.971C48.2984 110.074 48.4277 110.135 48.6002 110.135C48.7946 110.135 48.9452 110.044 49.1222 109.768L49.2818 109.527L48.7166 107.271H49.0271L49.4972 109.203L50.735 107.271H51.05V107.271Z" fill="#E0E0E0"/>
<path d="M57.8837 14.0366H21.5855H11.8673L19.3634 19.4459V30.0881C19.3634 31.3154 20.3582 32.3105 21.5855 32.3105H57.8837C59.111 32.3105 60.1061 31.3157 60.1061 30.0881V16.259C60.1061 15.0314 59.1113 14.0366 57.8837 14.0366Z" fill="#F5F5F5"/>
<path d="M55.9646 21.5575C55.9646 21.6019 49.0244 21.6378 40.4651 21.6378C31.9028 21.6378 24.9641 21.6019 24.9641 21.5575C24.9641 21.5131 31.9028 21.4771 40.4651 21.4771C49.0241 21.4771 55.9646 21.5131 55.9646 21.5575Z" fill="#E0E0E0"/>
<path d="M55.9646 25.6434C55.9646 25.6878 49.0244 25.7238 40.4651 25.7238C31.9028 25.7238 24.9641 25.6878 24.9641 25.6434C24.9641 25.599 31.9028 25.563 40.4651 25.563C49.0241 25.563 55.9646 25.599 55.9646 25.6434Z" fill="#E0E0E0"/>
<path d="M217.48 133.906C217.48 133.949 170.43 133.984 112.405 133.984C54.3596 133.984 7.31995 133.949 7.31995 133.906C7.31995 133.863 54.3596 133.828 112.405 133.828C170.431 133.828 217.48 133.863 217.48 133.906Z" fill="#263238"/>
<path d="M197.735 118.594C197.735 118.594 189.782 109.441 186.782 100.289C183.781 91.1362 185.206 92.1865 185.206 92.1865C185.206 92.1865 189.258 101.078 192.334 105.372C195.409 109.667 200.886 115.968 200.886 115.968L197.735 118.594Z" fill="#455A64"/>
<path d="M199.32 93.6125C199.063 93.1658 198.38 93.3977 198.457 93.9071C198.942 97.1219 199.99 104.667 199.949 109.56C199.895 115.916 199.951 118.373 199.951 118.373H203.261C203.261 118.373 202.673 105.233 201.925 101.226C201.401 98.4176 200.288 95.2988 199.32 93.6125Z" fill="#455A64"/>
<path d="M201.124 117.305C201.124 117.305 203.207 112.925 203.848 107.423C204.121 105.083 203.634 101.921 202.911 97.7014C202.561 95.6575 202.482 94.102 202.493 93.0235C202.501 92.2084 203.577 91.9423 203.975 92.6533C204.375 93.3661 205.531 95.8012 205.824 97.3276C206.626 101.494 207.534 103.577 206.839 107.53C206.145 111.483 203.581 117.573 203.581 117.573L201.124 117.305Z" fill="#455A64"/>
<path d="M204.105 117.572C204.105 117.572 212.836 98.8083 213.442 96.0249C214.047 93.2412 216.104 86.8266 216.346 87.1896C216.588 87.5526 216.951 90.9417 215.378 94.8144C213.805 98.6874 207.087 118.144 207.087 118.144H204.105" fill="#455A64"/>
<path d="M200.168 116.732C200.164 116.737 200.08 116.679 199.923 116.564C199.768 116.447 199.533 116.282 199.247 116.048C198.666 115.591 197.85 114.897 196.9 113.976C194.994 112.146 192.622 109.324 190.566 105.846C188.505 102.369 187.119 98.969 186.242 96.4802C185.803 95.234 185.482 94.214 185.274 93.5051C185.167 93.1517 185.094 92.8742 185.042 92.6867C184.992 92.4989 184.969 92.3996 184.975 92.3975C184.981 92.3957 185.016 92.4917 185.078 92.6759C185.144 92.8766 185.233 93.1457 185.343 93.4835C185.572 94.1849 185.911 95.1974 186.365 96.4355C187.273 98.9084 188.673 102.289 190.726 105.751C192.773 109.215 195.117 112.035 196.992 113.883C197.926 114.812 198.726 115.519 199.292 115.992C199.57 116.234 199.798 116.408 199.945 116.535C200.095 116.659 200.172 116.727 200.168 116.732Z" fill="#263238"/>
<path d="M201.123 107.731C201.11 107.732 201.083 107.536 201.045 107.181C201.003 106.792 200.949 106.286 200.884 105.676C200.746 104.407 200.53 102.656 200.222 100.733C199.912 98.8099 199.568 97.0795 199.301 95.8306C199.172 95.2315 199.065 94.7338 198.983 94.3519C198.908 94.0027 198.872 93.8077 198.885 93.8047C198.897 93.8014 198.957 93.9904 199.053 94.3345C199.151 94.6786 199.28 95.1796 199.43 95.8015C199.73 97.045 200.095 98.7754 200.406 100.704C200.715 102.631 200.91 104.389 201.015 105.663C201.068 106.301 201.102 106.817 201.117 107.175C201.133 107.532 201.136 107.73 201.123 107.731Z" fill="#263238"/>
<path d="M203.168 92.5059C203.174 92.5035 203.21 92.5857 203.272 92.7444C203.338 92.9211 203.425 93.1527 203.533 93.4413C203.649 93.7437 203.782 94.1166 203.908 94.5585C204.038 94.9992 204.206 95.4957 204.332 96.0609C204.401 96.3426 204.474 96.6369 204.549 96.9432C204.622 97.2504 204.674 97.5753 204.741 97.9089C204.883 98.5752 204.972 99.2976 205.078 100.056C205.248 101.577 205.342 103.261 205.286 105.028C205.215 106.796 205.001 108.469 204.722 109.974C204.562 110.723 204.422 111.437 204.232 112.092C204.142 112.42 204.067 112.74 203.971 113.041C203.874 113.342 203.782 113.63 203.692 113.906C203.526 114.461 203.323 114.944 203.161 115.374C203.004 115.806 202.845 116.168 202.708 116.462C202.579 116.742 202.476 116.967 202.397 117.138C202.324 117.292 202.283 117.371 202.277 117.368C202.272 117.366 202.301 117.281 202.363 117.122C202.433 116.948 202.526 116.719 202.641 116.433C202.768 116.136 202.916 115.771 203.064 115.337C203.215 114.905 203.41 114.42 203.567 113.865C203.652 113.589 203.741 113.301 203.833 113.001C203.925 112.7 203.996 112.38 204.083 112.053C204.265 111.4 204.399 110.688 204.553 109.942C204.822 108.443 205.029 106.779 205.1 105.021C205.155 103.264 205.067 101.59 204.907 100.075C204.806 99.3204 204.724 98.601 204.589 97.9368C204.526 97.6041 204.478 97.2801 204.408 96.9735C204.337 96.6675 204.269 96.3735 204.204 96.0921C204.087 95.5272 203.928 95.0301 203.808 94.5882C203.692 94.1448 203.569 93.7698 203.464 93.4647C203.37 93.1716 203.294 92.9364 203.236 92.7573C203.186 92.5947 203.162 92.5083 203.168 92.5059Z" fill="#263238"/>
<path d="M216.246 87.5669C216.249 87.5675 216.247 87.596 216.239 87.6512C216.229 87.7172 216.216 87.7973 216.201 87.8951C216.162 88.1087 216.114 88.4255 216.028 88.829C215.86 89.6363 215.579 90.7979 215.142 92.207C214.708 93.6167 214.111 95.2694 213.404 97.085C212.699 98.9015 211.881 100.881 211.105 102.987C210.318 105.091 209.712 107.144 209.142 109.007C208.578 110.871 208.042 112.544 207.524 113.926C207.012 115.309 206.518 116.399 206.146 117.135C205.967 117.507 205.806 117.784 205.702 117.975C205.654 118.061 205.613 118.131 205.58 118.189C205.552 118.237 205.536 118.26 205.533 118.259C205.53 118.257 205.541 118.231 205.564 118.18C205.592 118.12 205.627 118.046 205.669 117.957C205.762 117.761 205.912 117.479 206.081 117.103C206.432 116.359 206.905 115.266 207.401 113.88C207.901 112.497 208.423 110.824 208.978 108.957C209.538 107.092 210.141 105.032 210.931 102.923C211.708 100.811 212.531 98.8337 213.244 97.0223C213.959 95.2121 214.567 93.5681 215.017 92.1671C215.468 90.767 215.768 89.6138 215.958 88.8131C216.054 88.4129 216.113 88.0988 216.164 87.8879C216.187 87.7916 216.205 87.7127 216.22 87.6476C216.235 87.5936 216.243 87.5663 216.246 87.5669Z" fill="#263238"/>
<path d="M189.323 83.4221C188.773 82.8755 187.858 83.447 188.085 84.1886C188.316 84.9404 188.666 85.9127 189.182 87.0098C190.383 89.5604 193.909 98.7131 195.559 103.74C197.21 108.766 199.535 118.144 199.535 118.144L203.06 117.572C203.06 117.572 199.835 102.164 196.684 96.6125C194.153 92.1521 191.621 85.7057 189.323 83.4221Z" fill="#455A64"/>
<path d="M196.524 106.883C196.536 106.879 196.6 107.029 196.705 107.306C196.81 107.582 196.951 107.986 197.112 108.489C197.436 109.494 197.833 110.899 198.234 112.459C198.633 114.02 198.965 115.439 199.197 116.469C199.303 116.956 199.392 117.365 199.462 117.69C199.521 117.979 199.548 118.141 199.535 118.144C199.523 118.147 199.472 117.991 199.392 117.707C199.306 117.386 199.198 116.981 199.069 116.5C198.799 115.44 198.445 114.046 198.053 112.505C197.653 110.947 197.277 109.54 196.985 108.528C196.846 108.05 196.729 107.648 196.636 107.329C196.552 107.046 196.511 106.888 196.524 106.883Z" fill="#263238"/>
<path d="M201.306 117.858C201.302 117.858 201.296 117.826 201.286 117.764C201.275 117.691 201.262 117.599 201.246 117.486C201.209 117.243 201.176 116.881 201.102 116.419C200.972 115.493 200.741 114.159 200.363 112.531C199.987 110.903 199.438 108.988 198.713 106.9C197.99 104.812 197.083 102.556 196.056 100.221C193.982 95.5568 191.911 91.4195 190.55 88.3604C189.862 86.8343 189.329 85.5884 188.979 84.7205C188.8 84.2879 188.672 83.9477 188.582 83.7179C188.542 83.6108 188.51 83.5244 188.485 83.4551C188.464 83.3954 188.454 83.3645 188.457 83.3633C188.46 83.3621 188.476 83.3909 188.502 83.4482C188.533 83.5157 188.57 83.5997 188.617 83.7038C188.721 83.9429 188.864 84.2735 189.046 84.6923C189.417 85.5509 189.967 86.7878 190.67 88.3058C192.061 91.3487 194.15 95.4749 196.227 100.147C197.256 102.485 198.16 104.748 198.876 106.845C199.593 108.941 200.131 110.866 200.491 112.502C200.855 114.138 201.066 115.479 201.174 116.41C201.237 116.874 201.259 117.237 201.283 117.482C201.292 117.596 201.299 117.688 201.305 117.762C201.309 117.825 201.309 117.857 201.306 117.858Z" fill="#263238"/>
<path d="M203.06 117.572C203.047 117.574 203.005 117.363 202.941 116.98C202.871 116.566 202.778 116.02 202.667 115.36C202.424 113.994 202.053 112.113 201.52 110.066C200.992 108.017 200.397 106.194 199.94 104.885C199.715 104.254 199.529 103.732 199.389 103.337C199.257 102.972 199.189 102.768 199.201 102.763C199.213 102.758 199.303 102.953 199.456 103.31C199.608 103.668 199.82 104.189 200.064 104.84C200.554 106.14 201.171 107.963 201.7 110.019C202.235 112.073 202.586 113.964 202.797 115.338C202.897 116.026 202.974 116.583 203.013 116.97C203.055 117.356 203.072 117.57 203.06 117.572Z" fill="#263238"/>
<path d="M210.294 117.066H196.536V133.828H210.294V117.066Z" fill="#FF725E"/>
<g opacity="0.3">
<path d="M210.294 117.066H196.536V133.828H210.294V117.066Z" fill="black"/>
</g>
<path d="M205.905 117.066H193.7V133.828H205.905V117.066Z" fill="#FF725E"/>
<path d="M27.0578 111.238C24.7145 109.737 21.4664 109.709 19.1858 111.303C17.0207 112.816 15.9212 115.571 16.0166 118.211C16.112 120.851 17.3918 124.078 19.7837 125.464L26.8046 125.437C29.0465 123.788 30.5624 121.132 30.668 118.352C30.7739 115.571 29.4011 112.739 27.0578 111.238Z" fill="#455A64"/>
<path d="M23.6009 125.719C23.5853 125.719 23.5706 125.504 23.5568 125.115C23.5445 124.683 23.5289 124.13 23.51 123.468C23.4746 122.078 23.4197 120.158 23.327 118.039C23.2334 115.919 23.1194 114.002 23.0327 112.613C22.9931 111.952 22.9604 111.4 22.9346 110.969C22.9142 110.581 22.9103 110.365 22.9256 110.364C22.9409 110.362 22.9745 110.575 23.0216 110.962C23.0693 111.348 23.1275 111.908 23.1908 112.602C23.318 113.988 23.4572 115.907 23.5511 118.029C23.6441 120.152 23.6738 122.075 23.6687 123.467C23.6663 124.163 23.6576 124.726 23.6441 125.115C23.6309 125.504 23.6165 125.719 23.6009 125.719Z" fill="#263238"/>
<path d="M16.7243 117.614C16.7192 117.675 16.3376 117.694 15.8723 117.656C15.4067 117.618 15.0335 117.537 15.0386 117.475C15.0437 117.414 15.425 117.395 15.8906 117.433C16.3559 117.471 16.7294 117.552 16.7243 117.614Z" fill="#263238"/>
<path d="M16.8548 115.245C16.8296 115.301 16.5005 115.21 16.1198 115.041C15.7391 114.872 15.4505 114.69 15.4757 114.633C15.5006 114.576 15.8297 114.668 16.2107 114.836C16.5917 115.005 16.88 115.188 16.8548 115.245Z" fill="#263238"/>
<path d="M18.0737 113.486C18.0416 113.538 17.6717 113.364 17.2874 113.044C16.9019 112.726 16.6616 112.396 16.7063 112.354C16.7522 112.311 17.0573 112.564 17.4305 112.872C17.8022 113.181 18.1076 113.433 18.0737 113.486Z" fill="#263238"/>
<path d="M19.2999 111.828C19.2432 111.853 19.0659 111.576 18.9039 111.209C18.7419 110.842 18.6564 110.525 18.7131 110.5C18.7698 110.475 18.9468 110.752 19.1091 111.118C19.2711 111.485 19.3566 111.803 19.2999 111.828Z" fill="#263238"/>
<path d="M21.2228 110.65C21.1676 110.676 20.9768 110.381 20.8502 109.972C20.7224 109.564 20.7125 109.213 20.7725 109.203C20.8346 109.192 20.9411 109.513 21.0644 109.906C21.1856 110.299 21.2801 110.624 21.2228 110.65Z" fill="#263238"/>
<path d="M24.4322 109.324C24.4907 109.344 24.455 109.596 24.3527 109.886C24.2504 110.176 24.1202 110.395 24.0617 110.374C24.0035 110.353 24.0389 110.102 24.1415 109.811C24.2435 109.521 24.3737 109.303 24.4322 109.324Z" fill="#263238"/>
<path d="M26.8127 110.345C26.8547 110.39 26.702 110.6 26.4716 110.813C26.2412 111.026 26.0204 111.162 25.9784 111.117C25.9364 111.071 26.0891 110.862 26.3195 110.648C26.5496 110.435 26.7704 110.299 26.8127 110.345Z" fill="#263238"/>
<path d="M28.9083 111.698C28.9431 111.749 28.7568 111.936 28.4925 112.115C28.2282 112.294 27.9855 112.398 27.951 112.347C27.9162 112.295 28.1025 112.109 28.3668 111.929C28.6311 111.751 28.8738 111.647 28.9083 111.698Z" fill="#263238"/>
<path d="M30.3963 113.716C30.4206 113.773 30.1272 113.953 29.7408 114.118C29.3544 114.282 29.0217 114.37 28.9974 114.313C28.9731 114.256 29.2665 114.076 29.6529 113.911C30.0393 113.746 30.372 113.659 30.3963 113.716Z" fill="#263238"/>
<path d="M30.9821 115.917C30.9896 115.978 30.6911 116.066 30.3155 116.112C29.9396 116.159 29.6288 116.147 29.621 116.085C29.6135 116.024 29.912 115.936 30.2879 115.89C30.6635 115.843 30.9743 115.855 30.9821 115.917Z" fill="#263238"/>
<path d="M31.2869 118.625C31.2623 118.682 30.944 118.598 30.5765 118.438C30.2087 118.279 29.9306 118.103 29.9555 118.046C29.9801 117.989 30.2981 118.073 30.6659 118.233C31.0337 118.393 31.3118 118.568 31.2869 118.625Z" fill="#263238"/>
<path d="M31.0187 120.95C30.9992 121.007 30.5969 120.911 30.1766 120.635C29.7548 120.361 29.5058 120.031 29.5496 119.99C29.5952 119.945 29.9006 120.189 30.299 120.447C30.6956 120.708 31.0415 120.891 31.0187 120.95Z" fill="#263238"/>
<path d="M29.8085 123.066C29.7716 123.114 29.4515 122.926 29.1443 122.594C28.8359 122.263 28.6721 121.93 28.7225 121.897C28.7747 121.861 29.0132 122.125 29.3084 122.442C29.6021 122.76 29.8475 123.017 29.8085 123.066Z" fill="#263238"/>
<path d="M18.3161 123.314C18.3446 123.369 18.0086 123.601 17.5652 123.832C17.1218 124.063 16.7393 124.205 16.7108 124.15C16.6823 124.095 17.0183 123.864 17.4617 123.633C17.9048 123.402 18.2873 123.26 18.3161 123.314Z" fill="#263238"/>
<path d="M17.2665 121.401C17.292 121.457 17.0223 121.634 16.6644 121.797C16.3062 121.959 15.9954 122.045 15.9696 121.989C15.9441 121.932 16.2135 121.755 16.5717 121.593C16.9299 121.43 17.2407 121.344 17.2665 121.401Z" fill="#263238"/>
<path d="M16.4945 119.705C16.5032 119.766 16.1714 119.864 15.7535 119.924C15.3353 119.983 14.9894 119.981 14.981 119.92C14.9723 119.859 15.3041 119.761 15.722 119.702C16.1399 119.642 16.4858 119.644 16.4945 119.705Z" fill="#263238"/>
<path d="M19.0257 118.771C19.044 118.828 18.7202 118.98 18.2885 119.028C17.8568 119.077 17.5077 119.002 17.5128 118.942C17.517 118.879 17.8548 118.852 18.2634 118.805C18.6723 118.76 19.0077 118.71 19.0257 118.771Z" fill="#263238"/>
<path d="M21.1283 116.679C21.1466 116.737 20.8889 116.867 20.5415 116.9C20.1941 116.935 19.916 116.857 19.9226 116.797C19.9286 116.734 20.1965 116.71 20.5193 116.677C20.8424 116.647 21.1103 116.618 21.1283 116.679Z" fill="#263238"/>
<path d="M21.53 115.003C21.5099 115.061 21.2309 115.018 20.9072 114.906C20.5835 114.794 20.3372 114.656 20.3576 114.597C20.3777 114.539 20.6567 114.582 20.9804 114.694C21.3041 114.806 21.5504 114.944 21.53 115.003Z" fill="#263238"/>
<path d="M22.301 113.308C22.2581 113.351 22.0664 113.224 21.9299 112.987C21.7925 112.749 21.779 112.521 21.8378 112.505C21.8984 112.487 22.0016 112.664 22.124 112.875C22.2446 113.086 22.3463 113.264 22.301 113.308Z" fill="#263238"/>
<path d="M21.3716 120.247C21.3863 120.307 21.1448 120.417 20.8322 120.494C20.6516 120.538 20.4869 120.561 20.3789 120.56L20.3348 120.43C20.4158 120.415 20.468 120.419 20.4785 120.442C20.489 120.466 20.456 120.507 20.3906 120.557L20.3465 120.426C20.4422 120.376 20.5988 120.32 20.7794 120.276C21.0917 120.2 21.3569 120.187 21.3716 120.247Z" fill="#263238"/>
<path d="M21.8048 123.218C21.8273 123.276 21.5195 123.451 21.1172 123.609C20.7146 123.767 20.3702 123.848 20.3474 123.791C20.3249 123.733 20.6327 123.558 21.035 123.4C21.4376 123.242 21.7823 123.161 21.8048 123.218Z" fill="#263238"/>
<path d="M19.4297 121.898C19.4498 121.957 19.2443 122.08 18.971 122.173C18.6977 122.266 18.4601 122.294 18.44 122.235C18.4202 122.176 18.6254 122.053 18.8987 121.96C19.172 121.868 19.4096 121.84 19.4297 121.898Z" fill="#263238"/>
<path d="M19.6113 115.85C19.5972 115.909 19.2396 115.874 18.8265 115.727C18.4131 115.581 18.1131 115.383 18.1392 115.328C18.1659 115.272 18.4998 115.374 18.9012 115.516C19.3023 115.658 19.6263 115.789 19.6113 115.85Z" fill="#263238"/>
<path d="M25.3592 115.193C25.3934 115.244 25.1918 115.437 24.9095 115.623C24.6269 115.81 24.3704 115.919 24.3365 115.867C24.3023 115.815 24.5037 115.623 24.7863 115.436C25.0685 115.25 25.325 115.141 25.3592 115.193Z" fill="#263238"/>
<path d="M25.6716 118.176C25.6842 118.237 25.4727 118.332 25.1991 118.389C24.9255 118.446 24.6936 118.443 24.681 118.382C24.6684 118.321 24.8799 118.226 25.1535 118.17C25.4271 118.113 25.659 118.116 25.6716 118.176Z" fill="#263238"/>
<path d="M26.0347 121.531C26.0086 121.588 25.7041 121.502 25.3543 121.34C25.0045 121.178 24.742 121.001 24.7681 120.945C24.7942 120.889 25.0987 120.975 25.4485 121.137C25.7983 121.299 26.0608 121.475 26.0347 121.531Z" fill="#263238"/>
<path d="M25.2662 124.798C25.2182 124.837 25.0205 124.676 24.8243 124.437C24.6281 124.198 24.5078 123.972 24.5558 123.933C24.6035 123.894 24.8015 124.056 24.9977 124.294C25.1936 124.533 25.3139 124.759 25.2662 124.798Z" fill="#263238"/>
<path d="M25.1091 112.996C25.1469 113.044 25.0164 113.208 24.7923 113.32C24.5685 113.433 24.3585 113.439 24.3429 113.38C24.3261 113.32 24.4899 113.222 24.6918 113.12C24.8943 113.019 25.0707 112.946 25.1091 112.996Z" fill="#263238"/>
<path d="M27.9258 116.005C27.9462 116.062 27.6858 116.206 27.3291 116.255C26.9727 116.305 26.6829 116.238 26.6871 116.177C26.6904 116.114 26.9661 116.08 27.2982 116.033C27.6306 115.987 27.9054 115.946 27.9258 116.005Z" fill="#263238"/>
<path d="M27.3644 113.304C27.392 113.358 27.1331 113.543 26.7653 113.66C26.3975 113.778 26.0798 113.778 26.0708 113.718C26.0606 113.655 26.3477 113.559 26.6972 113.446C27.0467 113.335 27.3365 113.247 27.3644 113.304Z" fill="#263238"/>
<path d="M28.5404 120.189C28.5395 120.25 28.097 120.289 27.5633 120.191C27.029 120.095 26.6285 119.903 26.6489 119.846C26.6693 119.786 27.0878 119.878 27.6032 119.971C28.118 120.065 28.5425 120.126 28.5404 120.189Z" fill="#263238"/>
<path d="M27.4937 124.114C27.4565 124.162 27.1307 123.97 26.8055 123.643C26.4794 123.316 26.2892 122.99 26.3375 122.953C26.3873 122.914 26.6492 123.169 26.9645 123.485C27.2786 123.801 27.5327 124.064 27.4937 124.114Z" fill="#263238"/>
<path d="M22.8915 110.11C22.9248 110.158 21.9978 110.534 20.9265 111.663C19.8558 112.767 18.7512 114.717 18.4791 117.073C18.3489 118.243 18.4605 119.376 18.6267 120.387C18.8016 121.399 19.0335 122.298 19.2474 123.047C19.4625 123.796 19.6599 124.396 19.7925 124.812C19.9254 125.228 19.9965 125.459 19.9812 125.465C19.9674 125.47 19.8687 125.249 19.7103 124.841C19.5522 124.433 19.3311 123.84 19.0956 123.093C18.861 122.346 18.6111 121.445 18.423 120.423C18.2439 119.401 18.1224 118.251 18.2562 117.046C18.534 114.637 19.6902 112.651 20.8122 111.553C21.3705 110.995 21.8952 110.623 22.278 110.407C22.4637 110.29 22.6242 110.227 22.7265 110.174C22.8318 110.125 22.8882 110.103 22.8915 110.11Z" fill="#263238"/>
<path d="M25.9478 125.608C25.8992 125.584 26.4515 124.734 26.9552 123.201C27.4739 121.688 27.9029 119.446 27.5573 117.012C27.3956 115.798 27.0446 114.673 26.603 113.711C26.1446 112.763 25.5536 111.986 24.9755 111.445C24.3776 110.916 23.7905 110.613 23.381 110.437C22.9664 110.264 22.7183 110.224 22.7216 110.205C22.7228 110.197 22.7858 110.201 22.9049 110.219C23.0228 110.24 23.1968 110.28 23.4125 110.356C23.8406 110.51 24.449 110.796 25.0802 111.325C25.6949 111.874 26.3051 112.649 26.7896 113.622C27.2516 114.6 27.6146 115.744 27.7796 116.981C28.1315 119.461 27.668 121.737 27.1052 123.253C26.9786 123.64 26.8157 123.972 26.6942 124.271C26.5499 124.56 26.4308 124.811 26.3213 125.01C26.093 125.403 25.9613 125.616 25.9478 125.608Z" fill="#263238"/>
<path d="M17.2664 125.078H29.621L29.6969 127.551H17.2664V125.078Z" fill="#FF725E"/>
<path d="M18.3162 126.314L19.0257 133.863H28.0578L28.7832 126.397L18.3162 126.314Z" fill="#FF725E"/>
<path d="M29.6969 127.581C29.6969 127.643 26.9147 127.693 23.4836 127.693C20.0513 127.693 17.2697 127.643 17.2697 127.581C17.2697 127.519 20.0513 127.469 23.4836 127.469C26.9147 127.469 29.6969 127.519 29.6969 127.581Z" fill="#263238"/>
<path d="M28.4414 129.88C28.4534 129.887 28.37 130.061 28.1768 130.352C27.983 130.641 27.6746 131.047 27.2186 131.483L27.1619 131.537L27.1058 131.479C26.5109 130.855 25.6937 130.09 24.6845 129.359L24.821 129.353C24.476 129.656 24.1166 129.971 23.7476 130.295C23.309 130.677 22.8839 131.047 22.4786 131.4L22.4084 131.461L22.3379 131.402C21.5687 130.755 20.8688 130.167 20.2751 129.668L20.3951 129.655C19.9691 130.175 19.6112 130.612 19.328 130.957C19.0712 131.262 18.9224 131.426 18.9089 131.416C18.8957 131.405 19.0193 131.222 19.2536 130.899C19.5212 130.542 19.8593 130.089 20.2622 129.551L20.3135 129.482L20.3822 129.538C20.9849 130.027 21.695 130.602 22.4759 131.235L22.3355 131.237C22.7393 130.883 23.1626 130.511 23.5997 130.127C23.9699 129.805 24.3305 129.49 24.6764 129.189L24.7427 129.131L24.8132 129.183C25.8302 129.93 26.6438 130.721 27.2228 131.371L27.11 131.366C28.0265 130.534 28.406 129.853 28.4414 129.88Z" fill="#263238"/>
<path d="M176.886 131.792H46.1096C43.6961 131.792 41.7395 129.835 41.7395 127.422V43.9014C41.7395 41.4879 43.6961 39.5312 46.1096 39.5312H176.886C179.299 39.5312 181.256 41.4879 181.256 43.9014V127.422C181.256 129.835 179.299 131.792 176.886 131.792Z" fill="#455A64"/>
<path d="M182.988 133.906H42.5112C39.5625 133.906 37.1718 131.516 37.1718 128.567V125.833H188.327V128.567C188.328 131.516 185.937 133.906 182.988 133.906Z" fill="#455A64"/>
<path d="M97.7441 124.968L99.62 127.952H126.014L127.755 124.968H97.7441Z" fill="#263238"/>
<path d="M180.057 124.968C180.057 125.018 149.091 125.059 110.902 125.059C72.6989 125.059 41.7395 125.018 41.7395 124.968C41.7395 124.918 72.6989 124.878 110.902 124.878C149.091 124.878 180.057 124.918 180.057 124.968Z" fill="#263238"/>
<path d="M175.733 122.529H46.7166C46.1742 122.529 45.7347 122.089 45.7347 121.547V45.8183C45.7347 45.2759 46.1742 44.8364 46.7166 44.8364H175.733C176.275 44.8364 176.715 45.2759 176.715 45.818V121.547C176.715 122.089 176.275 122.529 175.733 122.529Z" fill="#EBEBEB"/>
<path d="M176.575 122.643H45.5946L45.7347 50.6426H176.575V122.643Z" fill="white"/>
<path d="M56.4772 47.8368C56.4772 48.4146 56.0089 48.8829 55.4311 48.8829C54.8533 48.8829 54.3853 48.4146 54.3853 47.8368C54.3853 47.259 54.8536 46.791 55.4311 46.791C56.0086 46.791 56.4772 47.259 56.4772 47.8368Z" fill="#263238"/>
<path d="M50.1372 47.8368C50.1372 48.4146 49.6689 48.8829 49.0911 48.8829C48.5136 48.8829 48.045 48.4146 48.045 47.8368C48.045 47.259 48.5136 46.791 49.0911 46.791C49.6689 46.791 50.1372 47.259 50.1372 47.8368Z" fill="#263238"/>
<path d="M53.1805 47.8368C53.1805 48.4146 52.7122 48.8829 52.1344 48.8829C51.5566 48.8829 51.0883 48.4146 51.0883 47.8368C51.0883 47.259 51.5566 46.791 52.1344 46.791C52.7122 46.791 53.1805 47.259 53.1805 47.8368Z" fill="#263238"/>
<path d="M176.715 115.69H45.5946V122.643H176.715V115.69Z" fill="#263238"/>
<path d="M50.5482 119.971V120.194H49.5042V120.018L50.067 119.483C50.2044 119.352 50.2287 119.269 50.2287 119.19C50.2287 119.061 50.1396 118.986 49.9656 118.986C49.8282 118.986 49.7127 119.032 49.6338 119.133L49.4496 118.992C49.5588 118.844 49.7553 118.757 49.9878 118.757C50.2953 118.757 50.4936 118.913 50.4936 119.164C50.4936 119.301 50.4552 119.427 50.2587 119.611L49.8804 119.971H50.5482Z" fill="white"/>
<path d="M50.6904 119.269C50.6904 119.168 50.7651 119.101 50.8563 119.101C50.9472 119.101 51.0222 119.168 51.0222 119.269C51.0222 119.366 50.9472 119.437 50.8563 119.437C50.7651 119.437 50.6904 119.366 50.6904 119.269ZM50.6904 120.04C50.6904 119.939 50.7651 119.872 50.8563 119.872C50.9472 119.872 51.0222 119.939 51.0222 120.04C51.0222 120.137 50.9472 120.208 50.8563 120.208C50.7651 120.208 50.6904 120.137 50.6904 120.04Z" fill="white"/>
<path d="M51.6813 118.777V120.194H51.4185V118.998H51.1188V118.777H51.6813Z" fill="white"/>
<path d="M53.2247 119.872H52.9737V120.194H52.7186V119.872H51.9417V119.69L52.6397 118.777H52.9212L52.2633 119.65H52.7268V119.364H52.9737V119.65H53.2247V119.872Z" fill="white"/>
<path d="M163.01 119.306H55.5387V119.796H163.01V119.306Z" fill="white"/>
<path d="M89.0433 118.778H55.4583V120.085H89.0433V118.778Z" fill="#FF725E"/>
<path d="M90.1275 119.551C90.1275 120.454 89.3955 121.186 88.4922 121.186C87.5892 121.186 86.8569 120.454 86.8569 119.551C86.8569 118.648 87.5889 117.916 88.4922 117.916C89.3955 117.916 90.1275 118.648 90.1275 119.551Z" fill="#FF725E"/>
<path d="M165.717 119.535C165.717 119.817 165.488 119.995 165.199 119.995C164.812 119.995 164.586 119.746 164.586 119.29C164.586 118.805 164.869 118.538 165.28 118.538C165.421 118.538 165.557 118.568 165.652 118.629L165.555 118.827C165.478 118.776 165.385 118.758 165.286 118.758C165.019 118.758 164.851 118.924 164.851 119.246V119.248C164.936 119.149 165.072 119.1 165.229 119.1C165.509 119.1 165.717 119.27 165.717 119.535ZM165.462 119.547C165.462 119.4 165.351 119.307 165.179 119.307C165.009 119.307 164.891 119.41 164.891 119.55C164.891 119.683 164.997 119.788 165.185 119.788C165.349 119.788 165.462 119.695 165.462 119.547Z" fill="white"/>
<path d="M165.845 119.05C165.845 118.949 165.92 118.882 166.011 118.882C166.102 118.882 166.177 118.949 166.177 119.05C166.177 119.147 166.102 119.218 166.011 119.218C165.919 119.218 165.845 119.147 165.845 119.05ZM165.845 119.821C165.845 119.719 165.92 119.653 166.011 119.653C166.102 119.653 166.177 119.719 166.177 119.821C166.177 119.918 166.102 119.989 166.011 119.989C165.919 119.989 165.845 119.918 165.845 119.821Z" fill="white"/>
<path d="M166.346 119.266C166.346 118.801 166.601 118.538 166.937 118.538C167.275 118.538 167.53 118.801 167.53 119.266C167.53 119.731 167.275 119.995 166.937 119.995C166.601 119.995 166.346 119.731 166.346 119.266ZM167.265 119.266C167.265 118.924 167.132 118.766 166.937 118.766C166.745 118.766 166.611 118.924 166.611 119.266C166.611 119.608 166.745 119.766 166.937 119.766C167.131 119.766 167.265 119.608 167.265 119.266Z" fill="white"/>
<path d="M167.706 119.266C167.706 118.801 167.961 118.538 168.297 118.538C168.635 118.538 168.89 118.801 168.89 119.266C168.89 119.731 168.635 119.995 168.297 119.995C167.961 119.995 167.706 119.731 167.706 119.266ZM168.625 119.266C168.625 118.924 168.492 118.766 168.297 118.766C168.105 118.766 167.971 118.924 167.971 119.266C167.971 119.608 168.105 119.766 168.297 119.766C168.492 119.766 168.625 119.608 168.625 119.266Z" fill="white"/>
<path d="M171.179 119.178H170.689V117.766H172.099V118.256H171.179V119.178Z" fill="white"/>
<path d="M172.1 121.022H170.687V119.612H171.177V120.532H172.1V121.022Z" fill="white"/>
<path d="M174.349 121.022H172.939V120.532H173.859V119.609H174.349V121.022Z" fill="white"/>
<path d="M174.351 119.175H173.86V118.256H172.938V117.766H174.351V119.175Z" fill="white"/>
<path d="M63.5561 54.9238H55.8359L51.9758 61.6099L55.8359 68.2957H63.5561L67.4162 61.6099L63.5561 54.9238Z" fill="#EBEBEB"/>
<path d="M56.4659 62.9187C56.1209 62.5368 55.7729 62.1506 55.5215 61.7015C55.2701 61.2524 55.1201 60.7286 55.2032 60.2207C55.2518 59.9237 55.3781 59.6409 55.3982 59.3406C55.4258 58.9275 55.2521 58.4957 55.3985 58.1084C55.6274 57.503 56.4422 57.4098 56.9363 56.9916C57.3209 56.6661 57.5084 56.1371 57.9317 55.8632C58.3013 55.6238 58.7765 55.6293 59.2124 55.6908C59.6486 55.7526 60.0872 55.8624 60.5237 55.8039C60.8348 55.7619 61.1279 55.6362 61.4327 55.5609C61.7375 55.4856 62.0774 55.4654 62.3489 55.6232C62.6204 55.781 62.7728 56.1662 62.5946 56.4248C63.1004 56.1917 63.7427 56.586 63.8813 57.1253C64.0196 57.6647 63.7427 58.2477 63.314 58.6035C62.8856 58.9593 62.3312 59.1248 61.784 59.2277C60.2345 59.5196 58.5539 59.3549 57.2186 58.5164" fill="#263238"/>
<path d="M63.6236 64.5685C63.5714 63.6115 63.3038 61.6498 63.0407 59.8768C62.7578 57.97 61.0586 56.5999 59.1353 56.7286L58.9442 56.7415C56.8919 56.9998 55.9646 58.8868 56.2796 60.9313L56.882 68.2957H61.8905C61.8905 68.2957 61.772 67.0036 61.7714 66.991C61.7714 66.991 63.7316 66.5503 63.6236 64.5685Z" fill="#FFBE9D"/>
<path d="M61.7729 66.9624C61.7729 66.9624 60.5282 67.1478 59.1422 66.4014C59.1422 66.4014 59.8478 67.7856 61.8119 67.4751L61.7729 66.9624Z" fill="#EB996E"/>
<path d="M62.4034 61.5756C62.4187 61.7247 62.305 61.8603 62.1499 61.8792C61.9948 61.8978 61.8565 61.7928 61.8412 61.6437C61.8259 61.4949 61.9393 61.3587 62.0944 61.3401C62.2498 61.3212 62.3884 61.4268 62.4034 61.5756Z" fill="#263238"/>
<path d="M62.68 60.8727C62.6473 60.912 62.4226 60.7677 62.1181 60.789C61.8139 60.8058 61.6009 60.9774 61.5655 60.9423C61.5481 60.927 61.5793 60.858 61.672 60.7806C61.7629 60.7038 61.9216 60.6243 62.1115 60.6123C62.3011 60.6006 62.4652 60.6597 62.5615 60.7251C62.6599 60.7905 62.6962 60.855 62.68 60.8727Z" fill="#263238"/>
<path d="M59.5288 61.7807C59.5441 61.9298 59.4304 62.0654 59.2753 62.0843C59.1202 62.1032 58.9819 61.9979 58.9666 61.8488C58.9513 61.6997 59.065 61.5638 59.2198 61.5452C59.3752 61.5263 59.5135 61.6319 59.5288 61.7807Z" fill="#263238"/>
<path d="M59.6922 61.1296C59.6595 61.1689 59.4345 61.0246 59.1303 61.0459C58.8261 61.0627 58.6131 61.2343 58.5777 61.1992C58.5603 61.1839 58.5912 61.1149 58.6842 61.0375C58.7751 60.9604 58.9338 60.8812 59.1234 60.8692C59.313 60.8575 59.4771 60.9166 59.5737 60.982C59.6721 61.0474 59.7084 61.1122 59.6922 61.1296Z" fill="#263238"/>
<path d="M60.9477 63.3127C60.945 63.2956 61.1322 63.25 61.4361 63.1903C61.5132 63.1771 61.5858 63.1567 61.5954 63.1027C61.6098 63.0454 61.5717 62.9638 61.5282 62.8759C61.4424 62.6926 61.353 62.5006 61.2588 62.2996C60.8832 61.4785 60.606 60.8011 60.639 60.7864C60.6723 60.7717 61.0035 61.4251 61.3791 62.2462C61.47 62.4487 61.5564 62.6419 61.6392 62.8267C61.6746 62.9131 61.7319 63.0097 61.6998 63.1291C61.6827 63.1885 61.6287 63.2344 61.5795 63.2512C61.5306 63.2698 61.4871 63.2734 61.4487 63.2785C61.1412 63.3157 60.9501 63.3298 60.9477 63.3127Z" fill="#263238"/>
<path d="M59.6913 59.9323C59.6667 60.0169 59.3604 59.998 59.0061 60.0652C58.6506 60.1249 58.3695 60.2488 58.3173 60.1777C58.2939 60.1435 58.3389 60.0625 58.4499 59.9746C58.56 59.887 58.7391 59.7985 58.9518 59.7604C59.1645 59.7226 59.3631 59.7436 59.4966 59.7877C59.631 59.8315 59.7015 59.8921 59.6913 59.9323Z" fill="#263238"/>
<path d="M62.5092 59.9995C62.4603 60.0721 62.2458 60.0145 61.9935 60.028C61.7409 60.0325 61.5312 60.1057 61.4772 60.0367C61.4532 60.0031 61.4823 59.9317 61.5711 59.86C61.6587 59.7886 61.8087 59.725 61.9824 59.7187C62.1561 59.7127 62.3103 59.7652 62.4027 59.8303C62.4963 59.8951 62.5305 59.9644 62.5092 59.9995Z" fill="#263238"/>
<path d="M56.5394 62.387C56.5046 62.3747 55.1519 62.0757 55.2857 63.4266C55.4195 64.7775 56.8835 64.337 56.882 64.298C56.8805 64.2593 56.5394 62.387 56.5394 62.387Z" fill="#FFBE9D"/>
<path d="M56.2835 63.8545C56.2772 63.8506 56.2616 63.8734 56.2235 63.8956C56.1866 63.9172 56.1209 63.9361 56.048 63.9166C55.9001 63.8782 55.7573 63.6637 55.7267 63.4207C55.7111 63.298 55.7252 63.1786 55.7591 63.0772C55.7906 62.9743 55.8476 62.899 55.9184 62.8789C55.9883 62.8552 56.0432 62.8933 56.0636 62.9296C56.0855 62.9656 56.0795 62.9935 56.087 62.995C56.0912 62.998 56.1137 62.9695 56.0975 62.9149C56.0894 62.8888 56.0702 62.8582 56.036 62.8354C56.0009 62.8123 55.952 62.8036 55.9025 62.8138C55.799 62.8312 55.7147 62.9365 55.6775 63.0475C55.6346 63.1597 55.6157 63.2944 55.6331 63.4321C55.6688 63.7033 55.8332 63.9445 56.0342 63.9814C56.1317 63.9967 56.2082 63.9604 56.246 63.9244C56.2841 63.8875 56.2883 63.8566 56.2835 63.8545Z" fill="#EB996E"/>
<path d="M62.9408 58.0272C62.8481 58.5651 61.7573 59.0577 60.8531 59.0313C60.0194 59.007 59.6075 58.5933 59.0018 58.2993C58.6184 58.1133 58.6184 58.1133 58.0982 58.1979C57.6776 58.2663 57.4592 58.7625 57.2231 59.1174C57.6731 60.0981 57.4913 61.2387 57.3005 62.301C57.2795 62.4183 57.2534 62.5452 57.1637 62.6238C57.0119 62.7576 56.7656 62.6775 56.6162 62.5407C56.3771 62.3217 56.2682 61.9971 56.1899 61.6824C56.0114 60.9657 55.9427 60.2154 56.0561 59.4855C56.1695 58.7556 56.4713 58.0467 56.9702 57.5019C57.5933 56.8209 58.5044 56.4285 59.426 56.3811C60.3479 56.3337 61.2734 56.619 62.0456 57.1248C62.4035 57.3597 62.7383 57.6498 62.9408 58.0272Z" fill="#263238"/>
<path d="M61.1468 63.9972C60.9173 63.8901 60.6878 63.783 60.4583 63.6762C60.4187 63.6576 60.3764 63.6387 60.3329 63.6447C60.284 63.6513 60.245 63.6876 60.2138 63.7257C60.0542 63.9192 60.0137 64.2111 60.1376 64.4295C60.2612 64.6479 60.5522 64.7631 60.7838 64.6671C61.0277 64.566 61.1465 64.2825 61.1654 64.0191L61.1468 63.9972Z" fill="#EB996E"/>
<path d="M60.805 64.7154C60.8158 64.7289 60.6613 64.8261 60.4015 64.7517C60.2761 64.7139 60.133 64.6176 60.0445 64.4616C59.9542 64.3098 59.9212 64.0923 59.9992 63.897C60.0364 63.8001 60.0946 63.7143 60.1657 63.6468C60.202 63.6126 60.2386 63.585 60.283 63.5589C60.3265 63.5268 60.4201 63.5217 60.4645 63.5484C60.622 63.636 60.7279 63.7107 60.8335 63.7785C61.0354 63.9123 61.1545 64.0044 61.1437 64.023C61.1329 64.0416 60.9937 63.9834 60.7777 63.8739C60.652 63.8082 60.5305 63.7449 60.4102 63.6819C60.3814 63.6741 60.3844 63.6741 60.3568 63.6885C60.3298 63.7059 60.298 63.7305 60.2719 63.7569C60.2182 63.8103 60.1735 63.8778 60.1447 63.9528C60.0847 64.1037 60.1054 64.2666 60.1705 64.3923C60.235 64.5195 60.3394 64.6035 60.4399 64.6479C60.6469 64.7367 60.8011 64.6905 60.805 64.7154Z" fill="#263238"/>
<path d="M60.5879 61.6101C60.5726 61.6107 60.5744 61.4844 60.5144 61.2729C60.455 61.0653 60.3107 60.7632 59.9972 60.5325C59.6942 60.3009 59.1989 60.1731 58.721 60.3525C58.247 60.5172 57.839 61.0215 57.8444 61.6098C57.839 62.1981 58.2473 62.7027 58.721 62.8674C59.1989 63.0468 59.6945 62.919 59.9972 62.6874C60.3104 62.4564 60.4547 62.1543 60.5141 61.947C60.5744 61.7355 60.5726 61.6092 60.5879 61.6101C60.5933 61.6101 60.5969 61.641 60.599 61.701C60.6023 61.7607 60.5966 61.8498 60.5732 61.962C60.5294 62.1828 60.3938 62.5137 60.0641 62.7756C59.7458 63.0375 59.2046 63.1941 58.6718 63.003C58.1438 62.829 57.6815 62.268 57.6878 61.6101C57.6818 60.9522 58.1438 60.3915 58.6718 60.2175C59.2046 60.0264 59.7458 60.183 60.0641 60.4449C60.3938 60.7065 60.5294 61.0374 60.5732 61.2585C60.5966 61.3704 60.6023 61.4598 60.599 61.5195C60.5969 61.5789 60.5933 61.6101 60.5879 61.6101Z" fill="#263238"/>
<path d="M63.9572 61.4777C63.9422 61.4783 63.9437 61.3553 63.8846 61.1495C63.8264 60.9473 63.6857 60.6533 63.3806 60.4289C63.0857 60.2036 62.6033 60.0794 62.1386 60.2543C61.6775 60.4148 61.2806 60.9053 61.2857 61.4777C61.2803 62.0501 61.6775 62.5409 62.1386 62.7014C62.6036 62.8763 63.086 62.7521 63.3809 62.5265C63.686 62.3018 63.8267 62.0078 63.8849 61.8059C63.9437 61.6001 63.9422 61.4771 63.9572 61.4777C63.9626 61.4777 63.9665 61.508 63.9686 61.5662C63.9719 61.6244 63.9665 61.7114 63.9437 61.8206C63.9014 62.036 63.7694 62.3588 63.4478 62.6141C63.1376 62.8697 62.6096 63.0227 62.0897 62.8364C61.5746 62.6669 61.1234 62.1194 61.1297 61.4774C61.1237 60.8354 61.5746 60.2882 62.0897 60.1187C62.6096 59.9324 63.1376 60.0851 63.4478 60.3407C63.7694 60.596 63.9014 60.9188 63.9437 61.1342C63.9665 61.2434 63.9719 61.3304 63.9686 61.3886C63.9665 61.4474 63.9626 61.4777 63.9572 61.4777Z" fill="#263238"/>
<path d="M61.2077 61.1665C61.1771 61.1953 61.0433 61.1089 60.863 61.1146C60.6824 61.1146 60.5528 61.2061 60.5207 61.1791C60.4796 61.1575 60.6053 60.9628 60.8603 60.9586C61.1147 60.9547 61.2476 61.1428 61.2077 61.1665Z" fill="#263238"/>
<path d="M57.8514 61.4094C57.8772 61.4439 57.6152 61.6833 57.266 61.9437C56.9171 62.2044 56.6132 62.3874 56.5874 62.3529C56.5616 62.3184 56.8235 62.079 57.1727 61.8186C57.5216 61.5582 57.8256 61.3749 57.8514 61.4094Z" fill="#263238"/>
<path d="M85.6962 61.5414C85.6962 61.5846 82.2258 61.6194 77.9454 61.6194C73.6638 61.6194 70.194 61.5843 70.194 61.5414C70.194 61.4985 73.6638 61.4634 77.9454 61.4634C82.2255 61.4634 85.6962 61.4985 85.6962 61.5414Z" fill="#263238"/>
<path d="M78.5271 63.1639C78.5271 63.2071 76.6842 63.2419 74.4114 63.2419C72.1377 63.2419 70.2954 63.2068 70.2954 63.1639C70.2954 63.121 72.138 63.0859 74.4114 63.0859C76.6842 63.0859 78.5271 63.1207 78.5271 63.1639Z" fill="#263238"/>
<path d="M132.139 73.5278C132.139 73.5278 136.259 75.5354 137.706 80.7191C139.153 85.9028 143.584 99.4025 143.584 99.4025C143.584 99.4025 146.117 102.382 146.388 104.588C146.659 106.794 146.117 112.13 145.303 113.125C144.489 114.119 143.328 113.955 143.328 113.955L132.67 112.944L128.473 84.8408L132.139 73.5278Z" fill="#FF725E"/>
<path d="M96.8922 73.0368C96.8922 73.0368 89.2712 75.4272 87.3719 77.5071L93.6122 106.538L93.5126 115.697H129.644C129.644 115.245 129.968 85.2849 129.968 85.2849L132.139 73.5282L119.296 71.2674L116.764 69.2778L102.475 70.0014L100.305 72.1719L96.8922 73.0368Z" fill="#FF725E"/>
<g opacity="0.3">
<path d="M99.7869 98.2218C99.6756 97.9755 99.5163 97.7094 99.2517 97.6548C98.8164 97.5651 98.5254 98.0793 98.3775 98.4987C97.2036 101.822 95.6511 104.878 93.6309 107.766L93.5382 112.223C95.6445 110.451 97.7214 108.552 99.0642 106.149C100.407 103.746 100.921 100.73 99.7869 98.2218Z" fill="black"/>
</g>
<path d="M87.372 77.5068C87.372 77.5068 84.861 80.9301 83.8182 83.1645C82.7754 85.3989 74.1354 104.169 73.614 106.106C73.0926 108.042 71.7519 114.15 75.6996 115.565H83.8182L91.9671 99.087L92.3838 79.9617L87.372 77.5068Z" fill="#FF725E"/>
<path d="M84.3381 103.662C84.3273 103.674 84.1572 103.502 83.7834 103.29C83.4102 103.079 82.8306 102.836 82.0794 102.673C81.7044 102.59 81.2874 102.526 80.8374 102.498C80.3871 102.47 79.9038 102.478 79.4133 102.591C78.4284 102.81 77.4498 103.432 76.68 104.306C75.8985 105.179 75.4161 106.211 75.1326 107.184C74.8449 108.159 74.7219 109.073 74.6442 109.84C74.5683 110.608 74.5398 111.233 74.5134 111.665C74.5008 111.866 74.4903 112.031 74.4822 112.162C74.4735 112.275 74.4663 112.335 74.4609 112.335C74.4555 112.334 74.4522 112.275 74.4507 112.161C74.4513 112.03 74.4519 111.865 74.4528 111.662C74.4609 111.23 74.4723 110.603 74.5344 109.83C74.5983 109.058 74.7105 108.135 74.9946 107.143C75.2739 106.156 75.7635 105.096 76.5633 104.203C77.3508 103.308 78.3612 102.67 79.3821 102.45C79.8912 102.338 80.391 102.335 80.8461 102.369C81.3036 102.403 81.7254 102.474 82.1043 102.565C82.8627 102.745 83.445 103.007 83.8146 103.238C83.9991 103.354 84.1326 103.459 84.2172 103.536C84.3003 103.615 84.3417 103.658 84.3381 103.662Z" fill="#263238"/>
<path d="M80.4882 100.381C80.4873 100.37 80.5842 100.355 80.7612 100.337C80.9379 100.316 81.1962 100.311 81.5142 100.327C81.8328 100.341 82.2102 100.396 82.6215 100.491C83.0307 100.594 83.4729 100.742 83.9145 100.949C84.354 101.162 84.7473 101.412 85.0848 101.666C85.4178 101.926 85.6977 102.184 85.9089 102.424C86.1219 102.66 86.2803 102.865 86.3748 103.015C86.472 103.164 86.5212 103.249 86.5125 103.255C86.4885 103.272 86.2683 102.946 85.8288 102.499C85.611 102.274 85.329 102.029 84.9984 101.781C84.6633 101.539 84.2766 101.298 83.847 101.09C83.4153 100.888 82.9848 100.739 82.5861 100.63C82.1853 100.53 81.8172 100.465 81.5052 100.437C80.8815 100.377 80.49 100.411 80.4882 100.381Z" fill="#263238"/>
<path d="M87.8283 99.478C87.8265 99.4885 87.6924 99.478 87.4527 99.4495C87.2133 99.4186 86.8656 99.3838 86.4357 99.352C85.5768 99.2869 84.3825 99.2713 83.0772 99.4258C81.7719 99.5836 80.6148 99.8806 79.7952 100.146C79.3851 100.279 79.0554 100.395 78.8301 100.481C78.6039 100.566 78.4761 100.608 78.4719 100.598C78.4677 100.588 78.5868 100.527 78.807 100.425C79.026 100.321 79.3515 100.188 79.7598 100.042C80.5755 99.7471 81.7404 99.43 83.0586 99.2707C84.3765 99.1147 85.5834 99.148 86.4456 99.2419C86.877 99.2881 87.2244 99.34 87.462 99.3895C87.6999 99.4363 87.8304 99.4675 87.8283 99.478Z" fill="#263238"/>
<path d="M110.953 83.4416C110.95 83.444 110.921 83.4104 110.87 83.3438C110.812 83.2661 110.739 83.1683 110.649 83.0471C110.45 82.7717 110.175 82.391 109.832 81.9164C109.132 80.9276 108.154 79.5485 107.005 77.9264L107.131 77.9087C106.693 79.1936 106.21 80.6108 105.702 82.1024L105.67 82.1969L105.588 82.1441C105.535 82.1099 105.478 82.073 105.42 82.0358C104.748 81.6098 104.156 81.0977 103.652 80.543C103.151 79.9856 102.735 79.391 102.39 78.7976C101.7 77.6078 101.284 76.4339 101.001 75.4397C100.72 74.4425 100.574 73.6169 100.475 73.0481C100.428 72.7757 100.39 72.5579 100.361 72.3938C100.348 72.3191 100.333 72.2642 100.323 72.2264C100.309 72.1919 100.302 72.1727 100.304 72.1709C100.338 72.1568 100.426 72.4712 100.535 73.0367C100.651 73.6016 100.814 74.4215 101.107 75.4088C101.401 76.3934 101.825 77.5535 102.514 78.7247C102.858 79.3088 103.271 79.8929 103.765 80.4398C104.262 80.9837 104.844 81.4853 105.503 81.9035C105.56 81.9398 105.616 81.9764 105.668 82.0097L105.554 82.0514C106.067 80.5613 106.554 79.1453 106.995 77.8619L107.041 77.7281L107.121 77.8439C108.252 79.4789 109.213 80.8694 109.903 81.8663C110.231 82.3508 110.495 82.739 110.686 83.0201C110.768 83.1464 110.836 83.2487 110.889 83.3297C110.934 83.4014 110.956 83.4395 110.953 83.4416Z" fill="#263238"/>
<g opacity="0.3">
<path d="M120.359 97.3003C120.025 100.657 120.766 104.112 122.447 107.036C124.129 109.96 126.592 112.566 129.661 113.965C129.76 110.985 129.617 107.476 129.716 104.496L120.359 97.3003Z" fill="black"/>
</g>
<path d="M120.019 93.3776C120.019 93.3776 118.707 93.7418 119.691 96.4307C120.676 99.1193 121.004 98.957 121.66 101.472C122.316 103.988 123.082 106.283 124.23 107.705C125.378 109.126 129.644 112.025 129.644 112.025L133.472 108.416C133.472 108.416 132.841 105.726 132.992 103.899C133.144 102.072 133.527 97.5884 133.472 96.8228C133.417 96.0572 132.597 94.1981 132.597 94.1981V92.9261L130.628 86.8703C130.628 86.8703 129.534 86.378 129.152 88.1279L128.496 86.2706C128.496 86.2706 127.457 86.1047 127.183 88.2371C126.91 90.3698 127.402 93.3227 127.402 93.3227L126.855 97.0412L126.035 99.5567L125.324 99.6662C125.324 99.6662 124.254 99.374 123.668 97.3601C123.082 95.3462 121.496 92.9402 120.019 93.3776Z" fill="#FFBE9D"/>
<path d="M132.19 102.889C132.186 102.889 132.18 102.842 132.172 102.751C132.165 102.647 132.156 102.514 132.145 102.35C132.125 101.983 132.098 101.476 132.064 100.844C132.005 99.5385 131.923 97.7217 131.827 95.6004L131.844 95.6445C131.669 95.4339 131.355 95.3715 131.07 95.4426C130.78 95.5125 130.521 95.6931 130.36 95.9625C130.026 96.5004 130.008 97.2015 129.903 97.8783C129.695 99.411 129.498 100.87 129.318 102.2C129.227 102.865 129.13 103.497 129.001 104.082C128.875 104.668 128.698 105.201 128.526 105.677C128.357 106.155 128.207 106.587 128.114 106.976C128.021 107.364 127.984 107.708 127.991 107.988C128.002 108.553 128.167 108.84 128.142 108.846C128.137 108.848 128.106 108.776 128.05 108.636C128.005 108.494 127.942 108.278 127.93 107.991C127.913 107.705 127.943 107.352 128.029 106.956C128.116 106.559 128.259 106.121 128.422 105.641C128.587 105.161 128.755 104.636 128.874 104.054C128.997 103.474 129.088 102.845 129.175 102.181C129.351 100.85 129.545 99.3903 129.748 97.8573C129.796 97.5156 129.833 97.1781 129.893 96.8412C129.953 96.5067 130.046 96.1704 130.23 95.88C130.405 95.5851 130.711 95.3685 131.035 95.2956C131.355 95.2152 131.737 95.2854 131.956 95.5497L131.972 95.5695L131.973 95.5941C132.046 97.7163 132.109 99.534 132.154 100.84C132.17 101.473 132.183 101.981 132.193 102.348C132.194 102.513 132.196 102.645 132.197 102.75C132.196 102.841 132.194 102.889 132.19 102.889Z" fill="#EB996E"/>
<path d="M130.097 95.9985C130.088 96.0021 130.027 95.8821 129.936 95.6562C129.846 95.43 129.727 95.0976 129.615 94.6761C129.504 94.2549 129.4 93.744 129.341 93.1695C129.311 92.8827 129.291 92.5758 129.324 92.2563C129.357 91.9395 129.451 91.6029 129.654 91.3188C129.827 91.0722 130.074 90.8754 130.354 90.7935L130.413 90.7764L130.443 90.8292C130.997 91.8072 131.479 92.6706 131.817 93.2916C131.973 93.5823 132.104 93.8271 132.21 94.0257C132.299 94.1991 132.344 94.2963 132.335 94.3011C132.327 94.3059 132.266 94.218 132.162 94.0527C132.045 93.8604 131.901 93.6234 131.73 93.3417C131.367 92.7342 130.869 91.8804 130.309 90.9054L130.398 90.9411C130.157 91.0131 129.939 91.1853 129.782 91.4091C129.598 91.6665 129.51 91.9725 129.476 92.2734C129.442 92.5752 129.458 92.8728 129.483 93.156C129.534 93.7233 129.625 94.2297 129.722 94.65C129.819 95.0706 129.921 95.4054 129.993 95.6364C130.066 95.8665 130.108 95.994 130.097 95.9985Z" fill="#EB996E"/>
<path d="M129.182 96.4904C129.171 96.4907 129.159 96.3664 129.147 96.1417C129.136 95.8837 129.123 95.5657 129.108 95.1898C129.082 94.3861 129.057 93.2755 129.04 92.0488C129.03 90.8233 128.983 89.7089 129.088 88.9013C129.139 88.499 129.22 88.1789 129.294 87.9647C129.366 87.7499 129.426 87.6391 129.434 87.6421C129.461 87.6508 129.267 88.1156 129.198 88.913C129.122 89.7074 129.187 90.8188 129.196 92.0464C129.214 93.2731 129.221 94.3841 129.219 95.1884C129.215 95.5646 129.211 95.8829 129.208 96.1409C129.201 96.3659 129.193 96.4904 129.182 96.4904Z" fill="#EB996E"/>
<path d="M125.946 106.574C125.923 106.556 126.163 106.274 126.459 105.763C126.609 105.508 126.762 105.191 126.905 104.829C127.041 104.464 127.164 104.053 127.246 103.612C127.323 103.169 127.352 102.741 127.352 102.351C127.345 101.962 127.313 101.612 127.261 101.321C127.162 100.739 127.036 100.391 127.064 100.381C127.074 100.377 127.112 100.461 127.173 100.618C127.236 100.773 127.306 101.007 127.369 101.3C127.436 101.594 127.48 101.951 127.496 102.349C127.504 102.747 127.479 103.186 127.399 103.639C127.315 104.092 127.185 104.512 127.038 104.882C126.885 105.249 126.718 105.568 126.553 105.82C126.391 106.072 126.244 106.267 126.13 106.39C126.019 106.516 125.954 106.581 125.946 106.574Z" fill="#EB996E"/>
<path d="M132.665 104.693L135.987 105.846C135.987 105.846 139.159 104.205 141.346 105.846C143.533 107.486 145.433 111.81 144.832 113.56C144.832 113.56 143.322 115.424 142.174 115.697C141.025 115.97 136.561 114.889 134.704 114.498C132.841 114.106 129.643 112.025 129.643 112.025L132.665 104.693Z" fill="#FFBE9D"/>
<path d="M133.073 109.586C133.063 109.586 133.051 109.482 133.038 109.292C133.025 109.067 133.009 108.8 132.991 108.49C132.955 107.812 132.91 106.875 132.896 105.838C132.88 104.801 132.91 103.86 132.972 103.182C133.002 102.843 133.039 102.569 133.073 102.382C133.107 102.194 133.131 102.091 133.142 102.093C133.166 102.097 133.114 102.513 133.083 103.189C133.048 103.866 133.036 104.801 133.052 105.836C133.071 106.85 133.088 107.767 133.101 108.487C133.105 108.826 133.104 109.101 133.099 109.291C133.093 109.481 133.084 109.586 133.073 109.586Z" fill="#EB996E"/>
<path d="M144.027 105.715C144.002 105.739 143.662 105.266 142.922 104.719C142.195 104.174 141.012 103.593 139.612 103.514C138.211 103.438 136.972 103.886 136.189 104.348C135.394 104.81 135.004 105.243 134.981 105.217C134.975 105.211 135.067 105.1 135.255 104.92C135.443 104.74 135.736 104.5 136.132 104.253C136.914 103.759 138.181 103.28 139.621 103.358C141.06 103.439 142.266 104.054 142.989 104.631C143.356 104.92 143.621 105.191 143.788 105.39C143.955 105.59 144.034 105.71 144.027 105.715Z" fill="#263238"/>
<path d="M143.6 102.946C143.579 102.978 143.135 102.53 142.218 102.184C141.316 101.83 139.915 101.667 138.478 102.071C137.761 102.272 137.105 102.558 136.544 102.876C135.984 103.197 135.516 103.548 135.143 103.866C134.77 104.184 134.485 104.462 134.29 104.655C134.095 104.849 133.986 104.956 133.977 104.948C133.97 104.941 134.063 104.82 134.246 104.613C134.428 104.406 134.703 104.115 135.071 103.783C135.437 103.451 135.906 103.085 136.472 102.752C137.04 102.421 137.705 102.125 138.436 101.921C139.909 101.506 141.346 101.692 142.258 102.081C142.719 102.27 143.062 102.487 143.281 102.658C143.393 102.739 143.469 102.817 143.524 102.864C143.578 102.914 143.604 102.942 143.6 102.946Z" fill="#263238"/>
<path d="M143.628 100.545C143.619 100.576 143.039 100.398 142.074 100.268C141.593 100.199 141.014 100.161 140.371 100.16C139.729 100.169 139.024 100.222 138.293 100.347C137.563 100.479 136.881 100.67 136.274 100.881C135.671 101.101 135.14 101.335 134.711 101.564C133.848 102.016 133.363 102.381 133.345 102.355C133.339 102.346 133.457 102.252 133.678 102.089C133.787 102.006 133.923 101.908 134.09 101.807C134.256 101.704 134.44 101.579 134.658 101.466C135.085 101.223 135.617 100.976 136.225 100.745C136.837 100.525 137.526 100.327 138.265 100.193C139.006 100.067 139.721 100.018 140.371 100.016C141.021 100.025 141.605 100.076 142.09 100.159C142.334 100.19 142.549 100.245 142.74 100.285C142.931 100.323 143.093 100.368 143.224 100.409C143.487 100.487 143.631 100.535 143.628 100.545Z" fill="#263238"/>
<path d="M118.177 71.168C118.177 71.168 118.331 71.4554 118.407 72.0512C118.489 72.6434 118.478 73.5296 118.281 74.6282C118.183 75.1772 118.049 75.7805 117.852 76.4243C117.646 77.069 117.333 77.7281 116.98 78.4196C116.264 79.7993 115.364 81.3038 114.321 82.9082L114.199 83.0957L114.199 82.8713C114.197 81.8111 114.196 80.6984 114.194 79.5425L114.311 79.5983C113.417 80.3192 112.477 81.0782 111.509 81.8597L111.533 81.824C110.884 83.8817 110.456 86.1728 110.287 88.5584C110.013 92.2094 110.234 95.7014 110.406 98.8694C110.554 102.042 110.65 104.898 110.749 107.297C110.844 109.696 110.931 111.637 111.003 112.977C111.043 113.641 111.073 114.16 111.095 114.52C111.106 114.691 111.115 114.824 111.121 114.921C111.126 115.012 111.125 115.058 111.125 115.058C111.125 115.058 111.116 115.013 111.105 114.923C111.095 114.826 111.081 114.693 111.063 114.523C111.03 114.171 110.987 113.651 110.943 112.981C110.852 111.641 110.748 109.701 110.639 107.302C110.531 104.902 110.404 102.047 110.262 98.8769C110.082 95.7113 109.856 92.2118 110.131 88.5467C110.301 86.1515 110.733 83.8475 111.389 81.7778L111.396 81.7562L111.414 81.7418C112.384 80.9621 113.326 80.2052 114.221 79.4861L114.338 79.3922L114.337 79.5422C114.335 80.6978 114.334 81.8108 114.332 82.871L114.21 82.8341C116.271 79.6379 117.947 76.8608 118.205 74.6138C118.412 73.5233 118.435 72.6443 118.367 72.0557C118.338 71.7602 118.28 71.5397 118.244 71.3909C118.197 71.2454 118.177 71.168 118.177 71.168Z" fill="#263238"/>
<path d="M112.796 109.866L112.689 109.863C112.255 109.875 111.869 110.272 111.867 110.706C111.866 111.14 112.25 111.539 112.684 111.554C113.118 111.569 113.529 111.198 113.558 110.765C113.587 110.331 113.229 109.909 112.796 109.866Z" fill="white"/>
<path d="M112.796 98.3039L112.689 98.3003C112.255 98.3129 111.869 98.7095 111.867 99.1436C111.866 99.5777 112.25 99.977 112.684 99.992C113.118 100.007 113.529 99.6356 113.558 99.2024C113.587 98.7692 113.229 98.3465 112.796 98.3039Z" fill="white"/>
<path d="M112.684 87.9598C113.118 87.9748 113.529 87.6034 113.558 87.1702C113.587 86.737 113.229 86.3143 112.796 86.2717L112.689 86.2681C112.255 86.2807 111.869 86.6773 111.867 87.1114C111.866 87.5455 112.25 87.9448 112.684 87.9598Z" fill="white"/>
<path d="M99.7323 57.6197C98.6805 56.4554 97.6194 55.2782 96.8526 53.909C96.0861 52.5398 95.6286 50.942 95.8824 49.3934C96.0309 48.488 96.4155 47.6255 96.4767 46.7099C96.561 45.4499 96.0312 44.1335 96.4779 42.9527C97.176 41.1071 99.6606 40.8218 101.167 39.5468C102.34 38.5538 102.911 36.9416 104.202 36.1067C105.329 35.3771 106.778 35.393 108.107 35.5811C109.436 35.7692 110.774 36.1046 112.105 35.9258C113.054 35.7983 113.947 35.4146 114.876 35.1845C115.805 34.9544 116.842 34.8938 117.67 35.3747C118.498 35.8556 118.962 37.0304 118.419 37.8191C119.962 37.1081 121.92 38.3099 122.342 39.9548C122.765 41.5997 121.919 43.3766 120.613 44.4614C119.306 45.5459 117.616 46.0508 115.948 46.3652C111.223 47.2556 106.098 46.7534 102.027 44.1965" fill="#263238"/>
<path d="M116.341 73.5032C116.11 71.7149 115.922 70.2227 115.91 70.0373C115.91 70.0373 121.886 68.6942 121.557 62.6513C121.398 59.7308 120.58 53.7425 119.778 48.3335C118.916 42.5246 113.732 38.3546 107.872 38.7467L107.289 38.7857C101.032 39.5729 98.2044 45.3272 99.1644 51.5606L102.541 72.4619C102.541 72.4619 103.982 77.0855 107.063 77.8859L110.953 83.4419L111.596 81.05L114.495 78.5261C114.495 78.5261 115.16 77.8064 115.924 76.3985C116.549 75.248 116.417 74.0645 116.341 73.5032Z" fill="#FFBE9D"/>
<path d="M115.914 69.9499C115.914 69.9499 112.119 70.5157 107.893 68.2393C107.893 68.2393 110.044 72.4603 116.033 71.5135L115.914 69.9499Z" fill="#EB996E"/>
<path d="M117.836 53.5261C117.883 53.9803 117.536 54.3943 117.063 54.4516C116.59 54.5086 116.169 54.1879 116.122 53.7334C116.076 53.2792 116.422 52.8646 116.894 52.8073C117.368 52.7503 117.79 53.0719 117.836 53.5261Z" fill="#263238"/>
<path d="M118.679 51.3838C118.58 51.5032 117.894 51.0634 116.966 51.1282C116.039 51.1792 115.39 51.7021 115.281 51.5953C115.229 51.5482 115.324 51.3379 115.606 51.1024C115.883 50.8681 116.367 50.6254 116.945 50.5894C117.523 50.554 118.024 50.734 118.318 50.9332C118.618 51.133 118.728 51.3298 118.679 51.3838Z" fill="#263238"/>
<path d="M109.07 54.1528C109.117 54.607 108.771 55.021 108.297 55.0783C107.825 55.1356 107.403 54.8146 107.356 54.3604C107.31 53.9062 107.656 53.4916 108.129 53.4343C108.602 53.377 109.024 53.6986 109.07 54.1528Z" fill="#263238"/>
<path d="M109.57 52.1668C109.47 52.2865 108.784 51.8467 107.857 51.9112C106.929 51.9625 106.28 52.4851 106.172 52.3783C106.119 52.3312 106.213 52.1212 106.497 51.8854C106.774 51.6508 107.258 51.4084 107.836 51.3721C108.414 51.3367 108.914 51.517 109.209 51.7159C109.508 51.9163 109.619 52.1131 109.57 52.1668Z" fill="#263238"/>
<path d="M113.398 58.8234C113.39 58.7709 113.96 58.6326 114.886 58.4508C115.122 58.4106 115.343 58.3485 115.372 58.1841C115.417 58.0092 115.3 57.7605 115.167 57.4923C114.906 56.934 114.633 56.3484 114.346 55.7349C113.201 53.2311 112.355 51.1662 112.456 51.1209C112.558 51.0759 113.568 53.0682 114.712 55.5723C114.989 56.19 115.253 56.7789 115.505 57.3426C115.612 57.606 115.787 57.9009 115.69 58.2642C115.638 58.4454 115.473 58.5858 115.324 58.6368C115.175 58.6932 115.042 58.7049 114.925 58.7196C113.988 58.8327 113.405 58.8759 113.398 58.8234Z" fill="#263238"/>
<path d="M109.566 48.5146C109.491 48.7729 108.557 48.7153 107.477 48.9196C106.393 49.102 105.536 49.4794 105.377 49.2628C105.305 49.1587 105.442 48.9112 105.781 48.6433C106.116 48.3757 106.662 48.1066 107.311 47.9899C107.959 47.875 108.565 47.9386 108.972 48.0733C109.383 48.2074 109.597 48.3922 109.566 48.5146Z" fill="#263238"/>
<path d="M118.158 48.7209C118.009 48.9426 117.355 48.7665 116.586 48.8076C115.815 48.8217 115.176 49.0443 115.011 48.8337C114.939 48.7311 115.027 48.513 115.298 48.2946C115.565 48.0771 116.023 47.8833 116.552 47.8638C117.081 47.8452 117.552 48.0057 117.834 48.2037C118.12 48.4023 118.223 48.6132 118.158 48.7209Z" fill="#263238"/>
<path d="M99.9567 55.9985C99.8508 55.9607 95.7258 55.049 96.1338 59.1683C96.5418 63.2876 101.006 61.9448 101.001 61.826C100.997 61.7069 99.9567 55.9985 99.9567 55.9985Z" fill="#FFBE9D"/>
<path d="M99.1758 60.4731C99.1563 60.4617 99.1089 60.5304 98.9931 60.5982C98.8803 60.6639 98.6805 60.7215 98.4579 60.6624C98.007 60.5457 97.572 59.8911 97.4784 59.1507C97.4307 58.7769 97.4742 58.4121 97.5777 58.1034C97.6737 57.7896 97.8477 57.5598 98.0631 57.4992C98.2761 57.4272 98.4441 57.543 98.5059 57.654C98.5725 57.7638 98.5545 57.8484 98.577 57.8535C98.5896 57.8628 98.6586 57.7758 98.6085 57.609C98.5833 57.5289 98.5254 57.4365 98.421 57.3669C98.3142 57.2961 98.1648 57.2697 98.0136 57.3012C97.6983 57.3546 97.4412 57.6753 97.3272 58.014C97.1961 58.356 97.1385 58.767 97.1922 59.1867C97.3008 60.0141 97.8027 60.7488 98.4153 60.8619C98.7126 60.9087 98.9457 60.7977 99.0609 60.6879C99.1782 60.5733 99.1908 60.4791 99.1758 60.4731Z" fill="#EB996E"/>
<path d="M119.475 42.7053C119.192 44.3451 115.866 45.8475 113.109 45.7671C110.567 45.693 109.311 44.4318 107.464 43.5354C106.295 42.9681 106.295 42.9681 104.708 43.2258C103.426 43.4343 102.76 44.9478 102.04 46.0293C103.412 49.02 102.857 52.4976 102.276 55.7361C102.212 56.094 102.132 56.4804 101.859 56.7207C101.396 57.129 100.645 56.8845 100.19 56.4675C99.4606 55.8 99.1285 54.81 98.8897 53.8509C98.3452 51.6657 98.1361 49.3776 98.4817 47.1522C98.8273 44.9271 99.748 42.7653 101.268 41.1042C103.169 39.0282 105.946 37.8315 108.757 37.6869C111.567 37.5426 114.39 38.4123 116.744 39.9546C117.836 40.6701 118.858 41.5548 119.475 42.7053Z" fill="#263238"/>
<path d="M114.004 60.9098C113.305 60.5834 112.605 60.257 111.905 59.9306C111.784 59.8742 111.655 59.8166 111.523 59.8343C111.374 59.8541 111.255 59.9654 111.16 60.0812C110.673 60.671 110.55 61.5614 110.927 62.2268C111.304 62.8922 112.19 63.2438 112.897 62.9513C113.641 62.6432 114.003 61.7789 114.061 60.9755L114.004 60.9098Z" fill="#EB996E"/>
<path d="M112.963 63.0997C112.969 63.1177 112.866 63.1783 112.656 63.2221C112.448 63.262 112.125 63.2776 111.753 63.1555C111.384 63.037 110.967 62.7499 110.71 62.2891C110.448 61.84 110.353 61.2055 110.582 60.6331C110.691 60.3487 110.862 60.0973 111.069 59.8987C111.174 59.7985 111.284 59.716 111.41 59.6413C111.475 59.6047 111.558 59.569 111.652 59.5642C111.744 59.5591 111.828 59.5828 111.895 59.6113C112.032 59.6725 112.122 59.7385 112.223 59.797C112.32 59.857 112.416 59.9158 112.509 59.9728C112.69 60.0859 112.86 60.1927 113.02 60.2926C113.643 60.688 114.017 60.9511 113.995 60.9883C113.974 61.0255 113.56 60.8299 112.909 60.4837C112.743 60.3943 112.566 60.2983 112.379 60.1969C112.283 60.1441 112.185 60.0901 112.085 60.0346C111.984 59.9809 111.875 59.9125 111.788 59.8783C111.692 59.845 111.651 59.8474 111.558 59.9002C111.467 59.9581 111.367 60.0343 111.282 60.1189C111.109 60.2896 110.966 60.5041 110.874 60.745C110.682 61.2283 110.751 61.7536 110.963 62.1511C111.172 62.5543 111.51 62.8168 111.83 62.9488C112.152 63.0826 112.445 63.1027 112.643 63.1012C112.843 63.0964 112.956 63.0769 112.963 63.0997Z" fill="#263238"/>
<path d="M112.3 53.6292C112.276 53.6313 112.304 53.2455 112.136 52.5861C111.971 51.9396 111.54 50.9889 110.568 50.2536C110.086 49.8945 109.48 49.5894 108.781 49.4673C108.086 49.3494 107.303 49.3722 106.558 49.6566C106.183 49.7874 105.821 49.9845 105.488 50.2335C105.152 50.4777 104.847 50.7807 104.596 51.1317C104.076 51.8235 103.783 52.7124 103.774 53.6286C103.783 54.5451 104.075 55.4343 104.595 56.1264C104.847 56.4777 105.152 56.7807 105.488 57.0249C105.82 57.2739 106.182 57.4713 106.557 57.6021C107.302 57.8865 108.086 57.9093 108.78 57.7914C109.48 57.669 110.086 57.3642 110.568 57.0048C111.54 56.2695 111.971 55.3185 112.136 54.6723C112.304 54.0129 112.276 53.6271 112.3 53.6292C112.303 53.6292 112.305 53.6529 112.305 53.6991C112.304 53.7549 112.303 53.8221 112.302 53.9043C112.303 53.9949 112.298 54.1065 112.276 54.2373C112.258 54.3684 112.242 54.5208 112.195 54.6867C112.125 55.0236 111.973 55.4232 111.73 55.848C111.484 56.271 111.126 56.7144 110.635 57.0924C110.145 57.4668 109.524 57.7866 108.804 57.9186C108.09 58.0458 107.281 58.0272 106.508 57.7374C106.12 57.6039 105.744 57.4014 105.399 57.1449C105.05 56.8932 104.734 56.5803 104.472 56.217C103.932 55.5015 103.626 54.5784 103.618 53.6286C103.627 52.6791 103.932 51.7563 104.472 51.0411C104.734 50.6781 105.051 50.3652 105.4 50.1135C105.745 49.857 106.12 49.6545 106.508 49.521C107.281 49.2312 108.09 49.2123 108.804 49.3398C109.524 49.4715 110.145 49.7913 110.635 50.1657C111.126 50.5434 111.484 50.9868 111.73 51.4098C111.974 51.8346 112.125 52.2342 112.195 52.5711C112.242 52.737 112.259 52.8894 112.276 53.0205C112.298 53.1513 112.303 53.2629 112.303 53.3535C112.304 53.4357 112.304 53.5032 112.305 53.5587C112.305 53.6058 112.303 53.6292 112.3 53.6292Z" fill="#263238"/>
<path d="M122.574 53.2258C122.55 53.2279 122.577 52.852 122.414 52.2097C122.252 51.58 121.832 50.6539 120.885 49.9378C120.416 49.588 119.825 49.291 119.144 49.1719C118.468 49.0573 117.705 49.0795 116.979 49.3564C116.614 49.4836 116.262 49.6759 115.938 49.9183C115.611 50.1559 115.313 50.4514 115.069 50.7931C114.562 51.4669 114.277 52.3327 114.269 53.2249C114.277 54.1174 114.562 54.9835 115.068 55.6576C115.313 55.9996 115.61 56.2948 115.938 56.5327C116.262 56.7754 116.614 56.9674 116.979 57.0949C117.705 57.3718 118.468 57.394 119.145 57.2794C119.826 57.1603 120.417 56.8633 120.886 56.5135C121.833 55.7971 122.253 54.8713 122.414 54.2416C122.577 53.5993 122.55 53.2237 122.574 53.2258C122.58 53.2258 122.58 53.3179 122.576 53.494C122.577 53.5822 122.572 53.6911 122.551 53.8186C122.534 53.9464 122.518 54.0949 122.473 54.2566C122.327 54.8995 121.916 55.8544 120.952 56.6017C120.475 56.9668 119.869 57.2785 119.168 57.4072C118.471 57.5314 117.683 57.5134 116.93 57.2308C116.551 57.1006 116.185 56.9032 115.849 56.6533C115.508 56.4079 115.199 56.1028 114.944 55.7488C114.418 55.0513 114.12 54.1516 114.112 53.2255C114.12 52.2997 114.418 51.4003 114.945 50.7031C115.2 50.3491 115.509 50.0443 115.849 49.7989C116.185 49.549 116.551 49.3516 116.929 49.2214C117.682 48.9388 118.471 48.9208 119.167 49.0447C119.869 49.1731 120.475 49.4851 120.952 49.8499C121.915 50.5969 122.326 51.5518 122.472 52.195C122.518 52.357 122.533 52.5052 122.55 52.6333C122.572 52.7608 122.576 52.8697 122.576 52.9579C122.58 53.1337 122.58 53.2258 122.574 53.2258Z" fill="#263238"/>
<path d="M114.191 52.277C114.174 52.2944 114.074 52.211 113.892 52.1246C113.711 52.0382 113.441 51.9536 113.136 51.959C112.832 51.9632 112.565 52.0577 112.387 52.151C112.208 52.2443 112.113 52.3322 112.095 52.3157C112.081 52.304 112.151 52.184 112.329 52.0568C112.505 51.9308 112.796 51.8075 113.133 51.803C113.471 51.797 113.765 51.9095 113.945 52.0286C114.13 52.1483 114.205 52.2647 114.191 52.277Z" fill="#263238"/>
<path d="M103.956 53.0185C103.982 53.053 103.14 53.7253 102.076 54.5194C101.012 55.3141 100.128 55.93 100.103 55.8952C100.077 55.8607 100.918 55.1887 101.983 54.394C103.047 53.5999 103.931 52.984 103.956 53.0185Z" fill="#263238"/>
<g opacity="0.3">
<path d="M100.406 72.5439C99.9891 76.6155 101.537 80.9127 104.803 83.3802C105.059 83.5737 105.38 83.7657 105.682 83.6565C105.892 83.5809 106.027 83.3796 106.138 83.1864C107.069 81.5748 107.381 79.7967 107.111 77.955C106.594 79.3167 106.15 80.6532 105.628 82.0776C102.783 80.3499 101.01 76.6764 100.406 72.5439Z" fill="black"/>
</g>
<path opacity="0.3" d="M111.461 81.8009L113.857 80.9258L114.254 84.9785C114.254 84.9785 116.84 80.2658 117.91 78.1157C118.98 75.9656 118.43 72.1709 118.43 72.1709C118.43 72.1709 118.812 75.476 116.221 79.6922L114.266 82.8707V79.5419L111.461 81.8009Z" fill="black"/>
<g opacity="0.3">
<path d="M83.5863 102.399C82.5177 101.894 81.2883 101.826 80.1144 101.963C78.8745 102.107 77.6301 102.487 76.6587 103.271C75.6873 104.055 75.0285 105.29 75.1497 106.532L75.2697 106.549C76.1055 104.286 77.7687 102.64 79.9134 102.44C82.0578 102.241 84.1503 103.196 85.6224 104.768C85.4793 103.595 84.6549 102.903 83.5863 102.399Z" fill="black"/>
</g>
<g opacity="0.3">
<path d="M144.182 104.712C143.379 103.845 142.251 103.32 141.087 103.118C139.043 102.761 136.85 103.396 135.313 104.789L135.77 104.418C136.931 103.739 138.27 103.335 139.615 103.373C140.96 103.412 142.306 103.909 143.281 104.838C144.176 105.691 144.715 106.844 145.228 107.969C145.429 106.805 144.985 105.579 144.182 104.712Z" fill="black"/>
</g>
<path d="M128.735 85.8901C128.725 85.8859 128.764 85.7695 128.842 85.5625C128.935 85.3255 129.049 85.0342 129.183 84.6904C129.474 83.9554 129.872 82.9393 130.292 81.8098C130.712 80.6797 131.075 79.6504 131.336 78.9043C131.459 78.5563 131.563 78.2617 131.648 78.0217C131.723 77.8138 131.77 77.7004 131.78 77.7037C131.791 77.707 131.764 77.8264 131.706 78.0403C131.648 78.2542 131.558 78.5614 131.44 78.9391C131.206 79.6951 130.859 80.7322 130.438 81.8644C130.017 82.996 129.602 84.0079 129.285 84.733C129.127 85.0957 128.995 85.3873 128.899 85.5868C128.803 85.786 128.745 85.8943 128.735 85.8901Z" fill="#263238"/>
<path d="M90.9141 86.1847C90.8718 86.1934 90.5457 84.7657 90.186 82.9963C89.826 81.2263 89.5686 79.7851 89.6109 79.7764C89.6532 79.7677 89.9793 81.1951 90.339 82.9651C90.699 84.7345 90.9564 86.1763 90.9141 86.1847Z" fill="#263238"/>
<path d="M90.348 104.03C90.4428 104.078 89.2488 94.6816 89.2488 94.6816C89.2488 94.6816 90.0024 87.5509 90.426 87.2209L90.4368 84.7051C90.4368 84.7051 91.6029 83.9986 91.9161 85.1392C91.9161 85.1392 92.9502 84.2413 93.1308 86.3788C93.3114 88.5163 93.3495 90.7006 93.3495 90.7006L95.6511 96.4558L96.03 96.6475C96.03 96.6475 96.5244 92.1388 96.8121 91.4752C97.0998 90.8116 97.2969 89.1982 98.388 89.4403C99.4791 89.6824 99.57 90.5851 99.3738 92.056C99.1776 93.5272 98.9334 95.0455 99.0243 95.9956C99.1152 96.9457 99.5469 99.0367 99.4143 100.698C99.2817 102.359 98.3721 104.112 97.4169 105.343C96.462 106.573 94.6377 109.118 93.6462 109.885C93.3 110.153 90.348 104.03 90.348 104.03Z" fill="#FFBE9D"/>
<path d="M91.5099 96.3837C91.4991 96.3828 91.5018 96.2397 91.5162 95.9814C91.536 95.6928 91.5612 95.3268 91.5912 94.8897C91.6614 93.9687 91.7691 92.697 91.8978 91.2939C91.9641 90.594 92.0274 89.9274 92.0853 89.3157C92.1153 89.0133 92.1342 88.7274 92.0958 88.4676C92.0595 88.2075 91.9575 87.9819 91.809 87.819C91.5051 87.4896 91.1142 87.4062 90.8694 87.4065C90.6156 87.4047 90.4827 87.4737 90.4776 87.4566C90.4755 87.4515 90.5073 87.435 90.5709 87.4074C90.6357 87.384 90.7347 87.3531 90.8673 87.3456C91.1244 87.327 91.545 87.3933 91.8897 87.7437C92.0595 87.9174 92.1801 88.1694 92.2236 88.4472C92.2707 88.7256 92.2545 89.0241 92.2287 89.3286C92.1747 89.9403 92.1156 90.6075 92.0535 91.308C91.9248 92.7114 91.7997 93.9813 91.7016 94.8999C91.6518 95.3352 91.6101 95.6997 91.5771 95.9868C91.5441 96.2433 91.5207 96.3846 91.5099 96.3837Z" fill="#EB996E"/>
<path d="M92.7471 92.541C92.7696 92.5599 92.5131 92.7855 92.3397 93.2829C92.1543 93.7728 92.0874 94.5087 91.9572 95.3112C91.8333 96.1146 91.7124 96.8403 91.6173 97.3647C91.5222 97.8888 91.4526 98.2116 91.4313 98.2083C91.41 98.205 91.4409 97.8765 91.5081 97.3479C91.5753 96.8193 91.6788 96.0909 91.8027 95.2875C91.9329 94.4892 92.0166 93.747 92.2368 93.243C92.3409 92.9916 92.4681 92.8074 92.5695 92.6949C92.67 92.5806 92.742 92.5353 92.7471 92.541Z" fill="#EB996E"/>
<path d="M91.9014 85.0156C91.9119 85.0138 91.9401 85.1192 91.9815 85.3112C92.0235 85.5032 92.0757 85.7828 92.133 86.1296C92.2476 86.8229 92.3733 87.7864 92.4528 88.8562C92.5314 89.9266 92.5488 90.8984 92.5371 91.601C92.5314 91.9523 92.5212 92.2364 92.5077 92.4326C92.4948 92.6288 92.4828 92.737 92.472 92.7367C92.4489 92.7361 92.4438 92.302 92.4267 91.6015C92.4099 90.901 92.3751 89.9338 92.2968 88.8679C92.2176 87.8023 92.1102 86.8406 92.0235 86.1452C91.9371 85.4498 91.8786 85.0195 91.9014 85.0156Z" fill="#EB996E"/>
<path d="M98.5407 93.8253C98.5635 93.8607 98.2044 94.0278 97.7655 93.891C97.3251 93.7596 97.1202 93.4206 97.1589 93.4038C97.1934 93.3738 97.4241 93.6285 97.8111 93.7416C98.1954 93.864 98.5287 93.7812 98.5407 93.8253Z" fill="#EB996E"/>
<path d="M90.4773 102.862L84.3966 105.417H80.7741C80.7741 105.417 77.1906 106.535 76.6395 109.894C76.0881 113.254 76.0095 114.982 77.5845 115.398C79.1595 115.813 83.6094 115.859 85.8144 115.127C88.0194 114.396 93.7959 109.735 93.7959 109.735L94.3527 106.363L90.4773 102.862Z" fill="#FFBE9D"/>
<path d="M91.9015 106.574C91.8937 106.581 91.8328 106.525 91.7287 106.415C91.6207 106.309 91.4878 106.135 91.3339 105.913C91.0333 105.464 90.7042 104.783 90.4846 103.989C90.2572 103.197 90.1603 102.457 90.1099 101.923C90.0637 101.388 90.0664 101.055 90.0862 101.054C90.1093 101.053 90.1456 101.382 90.2194 101.91C90.2974 102.438 90.4108 103.167 90.6346 103.947C90.8509 104.728 91.156 105.399 91.4269 105.854C91.7005 106.308 91.9231 106.554 91.9015 106.574Z" fill="#EB996E"/>
<path d="M94.5486 107.64C94.5159 107.628 94.7898 107.166 94.8951 106.337C94.9455 105.925 94.941 105.424 94.8234 104.889C94.707 104.353 94.4505 103.801 94.0785 103.285C93.7089 102.768 93.2937 102.317 92.9436 101.881C92.5899 101.447 92.307 101.022 92.1216 100.638C91.935 100.254 91.8489 99.9145 91.8168 99.679C91.7862 99.4423 91.7985 99.3106 91.8063 99.3106C91.8369 99.304 91.8264 99.847 92.22 100.588C92.4132 100.957 92.6985 101.366 93.0546 101.79C93.4074 102.217 93.8274 102.666 94.2054 103.195C94.5861 103.721 94.8519 104.302 94.9638 104.859C95.0778 105.414 95.0703 105.931 95.0043 106.352C94.9383 106.774 94.8222 107.102 94.7256 107.318C94.6791 107.427 94.6344 107.508 94.6029 107.562C94.572 107.616 94.5534 107.643 94.5486 107.64Z" fill="#EB996E"/>
<path d="M85.1749 92.999C85.1365 93.0188 84.4732 91.8116 83.6932 90.3032C82.9129 88.7942 82.3117 87.5552 82.3501 87.5354C82.3885 87.5156 83.0518 88.7225 83.8318 90.2315C84.6121 91.7399 85.2133 92.9792 85.1749 92.999Z" fill="white"/>
<path d="M95.0086 82.0522C94.9693 82.0345 95.3794 81.0284 95.9245 79.8047C96.4699 78.5807 96.9436 77.6027 96.9832 77.6204C97.0225 77.6381 96.6127 78.6442 96.0673 79.8682C95.5222 81.0919 95.0482 82.0696 95.0086 82.0522Z" fill="white"/>
<path d="M104.638 89.1569C104.605 89.1845 103.988 88.4939 103.26 87.6149C102.532 86.7356 101.969 86.0006 102.002 85.973C102.036 85.9454 102.653 86.636 103.381 87.5153C104.108 88.3943 104.672 89.1296 104.638 89.1569Z" fill="white"/>
<path d="M102.423 98.9285C102.388 98.9033 102.853 98.2025 103.461 97.3637C104.07 96.5246 104.591 95.8649 104.626 95.8904C104.661 95.9156 104.196 96.6164 103.588 97.4555C102.979 98.2943 102.458 98.9537 102.423 98.9285Z" fill="white"/>
<path d="M99.4407 112.73C99.4218 112.74 99.2853 112.511 99.0885 112.128C98.8914 111.745 98.6361 111.208 98.379 110.603C98.1222 109.998 97.9125 109.442 97.7739 109.034C97.635 108.627 97.5648 108.369 97.5846 108.362C97.6053 108.355 97.7124 108.599 97.8774 108.995C98.0658 109.446 98.283 109.967 98.523 110.542C98.7702 111.114 98.9943 111.632 99.1884 112.081C99.3591 112.475 99.4605 112.721 99.4407 112.73Z" fill="white"/>
<path d="M107.913 106.863C107.905 106.905 107.09 106.783 106.092 106.59C105.094 106.397 104.292 106.206 104.3 106.164C104.308 106.121 105.124 106.243 106.122 106.437C107.119 106.63 107.921 106.821 107.913 106.863Z" fill="white"/>
<path d="M114.484 93.9663C114.452 93.9369 115.23 93.0468 116.221 91.9785C117.212 90.9096 118.04 90.0675 118.072 90.0969C118.103 90.1263 117.326 91.0161 116.335 92.0847C115.344 93.1533 114.515 93.9957 114.484 93.9663Z" fill="white"/>
<path d="M121.094 111.166C121.061 111.193 120.091 110.071 118.928 108.659C117.764 107.246 116.848 106.079 116.881 106.052C116.915 106.024 117.885 107.147 119.048 108.559C120.212 109.972 121.128 111.139 121.094 111.166Z" fill="white"/>
<path d="M80.0589 103.835C80.0811 103.878 79.1946 104.328 78.2289 105.069C77.2584 105.805 76.5909 106.541 76.5552 106.508C76.5402 106.495 76.6884 106.294 76.9632 105.999C77.2377 105.703 77.6442 105.319 78.1341 104.945C78.6243 104.571 79.1025 104.281 79.4595 104.094C79.8171 103.907 80.0502 103.818 80.0589 103.835Z" fill="white"/>
<path d="M82.5309 97.2064C82.5669 97.2304 82.2513 97.768 81.8262 98.407C81.4011 99.0463 81.0273 99.5452 80.9913 99.5212C80.9553 99.4972 81.2709 98.9599 81.696 98.3203C82.1211 97.6813 82.4949 97.1824 82.5309 97.2064Z" fill="white"/>
<path d="M88.0998 103.716C88.0656 103.736 87.753 103.211 87.5898 102.484C87.4224 101.757 87.4773 101.148 87.5169 101.152C87.5634 101.152 87.579 101.744 87.7419 102.449C87.8997 103.155 88.1418 103.696 88.0998 103.716Z" fill="white"/>
<path d="M88.9255 83.0396C88.9315 83.0822 88.414 83.1911 87.7699 83.2829C87.1255 83.3744 86.5981 83.414 86.5921 83.3714C86.5861 83.3288 87.1033 83.2199 87.748 83.1281C88.3921 83.0366 88.9195 82.997 88.9255 83.0396Z" fill="white"/>
<path d="M93.1083 75.6222C93.1293 75.66 92.6763 75.951 92.0967 76.2723C91.5168 76.5936 91.0302 76.8234 91.0092 76.7856C90.9882 76.7478 91.4413 76.4568 92.0212 76.1355C92.6005 75.8142 93.0873 75.5844 93.1083 75.6222Z" fill="white"/>
<path d="M104.871 78.755C104.837 78.7811 104.318 78.1586 103.714 77.3645C103.109 76.5701 102.646 75.9053 102.681 75.8792C102.715 75.8531 103.233 76.4756 103.838 77.27C104.443 78.0641 104.905 78.7289 104.871 78.755Z" fill="white"/>
<path d="M119.803 86.2144C119.774 86.2417 119.228 85.6804 118.722 84.8635C118.213 84.0484 117.95 83.3113 117.988 83.2972C118.03 83.2789 118.353 83.9785 118.855 84.781C119.353 85.5853 119.838 86.1844 119.803 86.2144Z" fill="white"/>
<path d="M125.501 88.0931C125.541 88.1108 125.264 88.8059 124.883 89.645C124.502 90.4844 124.162 91.1501 124.122 91.1324C124.083 91.1147 124.36 90.4199 124.741 89.5805C125.122 88.7414 125.462 88.0754 125.501 88.0931Z" fill="white"/>
<path d="M126.298 80.3143C126.265 80.3419 125.586 79.5811 124.783 78.6151C123.979 77.6488 123.354 76.8433 123.387 76.8157C123.42 76.7881 124.099 77.5489 124.903 78.5152C125.707 79.4812 126.332 80.2867 126.298 80.3143Z" fill="white"/>
<path d="M117.594 73.9954C117.551 73.9972 117.49 73.3462 117.458 72.5416C117.426 71.7367 117.436 71.0833 117.479 71.0815C117.522 71.0797 117.583 71.7307 117.614 72.5353C117.646 73.3399 117.637 73.9936 117.594 73.9954Z" fill="white"/>
<path d="M124.691 73.6017C124.696 73.6446 123.867 73.7907 122.838 73.9281C121.809 74.0658 120.971 74.1426 120.965 74.0997C120.959 74.0568 121.789 73.9107 122.818 73.7733C123.846 73.6356 124.685 73.5588 124.691 73.6017Z" fill="white"/>
<path d="M135.869 81.8124C135.83 81.8313 135.331 80.88 134.754 79.6881C134.177 78.4959 133.742 77.5143 133.78 77.4954C133.819 77.4765 134.318 78.4275 134.895 79.62C135.471 80.8122 135.908 81.7938 135.869 81.8124Z" fill="white"/>
<path d="M133.987 88.9076C133.944 88.8992 134.061 88.1345 134.248 87.2C134.435 86.2652 134.62 85.5146 134.663 85.523C134.705 85.5314 134.588 86.2958 134.401 87.2306C134.215 88.1651 134.029 88.916 133.987 88.9076Z" fill="white"/>
<path d="M139.172 94.5005C139.131 94.5149 138.732 93.4826 138.282 92.1953C137.831 90.9077 137.499 89.8526 137.54 89.8385C137.581 89.8241 137.979 90.8561 138.43 92.1437C138.88 93.431 139.212 94.4861 139.172 94.5005Z" fill="white"/>
<path d="M138.449 97.7717C138.442 97.8101 137.722 97.6601 136.934 97.2299C136.143 96.8042 135.624 96.2837 135.652 96.2564C135.683 96.2204 136.236 96.6773 137.009 97.0925C137.778 97.5131 138.463 97.7267 138.449 97.7717Z" fill="white"/>
<path d="M145.091 105.232C145.052 105.25 144.811 104.794 144.553 104.215C144.296 103.636 144.119 103.152 144.158 103.134C144.197 103.117 144.438 103.572 144.696 104.151C144.953 104.731 145.13 105.214 145.091 105.232Z" fill="white"/>
<path d="M105.863 115.635C105.821 115.64 105.716 115.045 105.63 114.307C105.545 113.568 105.509 112.965 105.552 112.96C105.595 112.955 105.7 113.55 105.785 114.289C105.872 115.027 105.906 115.63 105.863 115.635Z" fill="white"/>
<path d="M126.242 115.12C126.2 115.111 126.288 114.53 126.438 113.821C126.589 113.113 126.745 112.546 126.788 112.555C126.83 112.564 126.742 113.145 126.591 113.854C126.44 114.562 126.284 115.129 126.242 115.12Z" fill="white"/>
<path d="M130.149 55.633L132.784 50.989C131.619 49.0969 130.945 46.8691 130.945 44.4838C130.945 37.6234 136.506 32.062 143.366 32.062C150.227 32.062 155.788 37.6234 155.788 44.4838C155.788 51.3439 150.226 56.9053 143.366 56.9053C140.502 56.9053 137.866 55.933 135.764 54.304L135.769 54.3094L130.149 55.633Z" fill="#FAFAFA"/>
<path d="M130.15 55.633C130.417 55.5721 132.196 55.1656 135.778 54.3469L135.836 54.3337L135.8 54.2863L135.795 54.2809L135.742 54.3343C136.45 54.8833 137.299 55.4242 138.297 55.8748C139.296 56.3179 140.44 56.6797 141.704 56.8477C142.335 56.9284 142.994 56.9803 143.671 56.9473C144.01 56.9281 144.354 56.92 144.702 56.8909C145.047 56.8387 145.397 56.7859 145.752 56.7322C147.159 56.4544 148.597 55.9204 149.939 55.0879C151.28 54.2584 152.522 53.1316 153.517 51.7474C154.511 50.3656 155.264 48.7273 155.617 46.9468C155.966 45.1687 155.937 43.2634 155.47 41.419C155 39.5812 154.122 37.7857 152.807 36.3085L152.299 35.7502C152.132 35.5624 151.934 35.4076 151.753 35.2354C151.563 35.0725 151.393 34.888 151.189 34.744L150.593 34.2982C150.4 34.1422 150.187 34.0162 149.975 33.8899C149.765 33.7621 149.555 33.6343 149.345 33.5071C149.124 33.4 148.904 33.2932 148.685 33.1867C148.463 33.0847 148.25 32.9638 148.019 32.8906C146.213 32.1742 144.288 31.9012 142.448 32.0347C140.608 32.1673 138.847 32.6953 137.336 33.5458C135.82 34.3894 134.542 35.5159 133.556 36.7741C132.566 38.0329 131.869 39.4213 131.438 40.8037C131.009 42.1927 130.893 43.5703 130.898 44.8453C130.935 46.1236 131.168 47.3011 131.506 48.3346C131.846 49.3696 132.292 50.2597 132.752 51.0085L132.752 50.971C131.09 53.9488 130.277 55.4044 130.15 55.633C130.28 55.4062 131.113 53.962 132.817 51.0073L132.827 50.9887L132.816 50.9698C132.363 50.2222 131.925 49.3354 131.593 48.3064C131.262 47.2789 131.036 46.1098 131.005 44.842C131.005 43.5775 131.124 42.2131 131.553 40.8388C131.984 39.4708 132.678 38.0986 133.66 36.8551C134.639 35.6122 135.905 34.5007 137.405 33.6688C138.9 32.8303 140.641 32.311 142.46 32.1817C144.279 32.0518 146.18 32.3227 147.962 33.0313C148.192 33.1036 148.402 33.2233 148.62 33.3241C148.837 33.4294 149.054 33.535 149.272 33.6409C149.479 33.7666 149.687 33.8929 149.895 34.0192C150.104 34.1443 150.314 34.2685 150.505 34.4227L151.094 34.8631C151.295 35.0053 151.463 35.1877 151.65 35.3485C151.829 35.5189 152.025 35.6716 152.19 35.857L152.691 36.4087C153.99 37.8676 154.858 39.6409 155.323 41.4559C155.785 43.2772 155.815 45.1603 155.472 46.9174C155.125 48.6769 154.382 50.2969 153.402 51.6646C152.42 53.0347 151.194 54.1513 149.87 54.9751C148.544 55.8016 147.122 56.3338 145.729 56.6131C145.378 56.6671 145.031 56.7205 144.69 56.7733C144.346 56.803 144.004 56.8123 143.669 56.8324C142.998 56.8675 142.344 56.818 141.719 56.7406C140.465 56.5786 139.329 56.2246 138.335 55.7896C137.342 55.3471 136.496 54.8146 135.788 54.2734L135.557 54.0964L135.735 54.3268L135.739 54.3322L135.761 54.2719C132.189 55.1386 130.415 55.5685 130.15 55.633Z" fill="#263238"/>
<path d="M146.721 43.9658C146.721 44.6362 147.264 45.1796 147.935 45.1796C148.605 45.1796 149.149 44.6362 149.149 43.9658C149.149 43.2953 148.605 42.752 147.935 42.752C147.264 42.752 146.721 43.2953 146.721 43.9658Z" fill="#263238"/>
<path d="M141.863 43.9658C141.863 44.6362 142.406 45.1796 143.076 45.1796C143.747 45.1796 144.29 44.6362 144.29 43.9658C144.29 43.2953 143.747 42.752 143.076 42.752C142.406 42.752 141.863 43.2953 141.863 43.9658Z" fill="#263238"/>
<path d="M137.017 43.3586C136.682 43.9391 136.881 44.6816 137.462 45.017C138.042 45.3521 138.785 45.1532 139.12 44.5727C139.455 43.9922 139.256 43.2497 138.676 42.9146C138.095 42.5789 137.352 42.7778 137.017 43.3586Z" fill="#263238"/>
</svg>
