<svg width="150" height="150" viewBox="0 0 150 150" fill="none" xmlns="http://www.w3.org/2000/svg">
<path d="M127.063 70.5378L129.46 66.6732L128.277 65.94C127.929 65.7243 127.74 65.3307 127.775 64.9227C127.794 64.6971 127.802 64.4703 127.797 64.2429C127.788 63.8346 128.001 63.4545 128.361 63.2616L129.588 62.6037L127.438 58.5945L126.211 59.2524C125.851 59.4453 125.416 59.4129 125.081 59.1795C124.895 59.0496 124.702 58.9299 124.503 58.8213C124.144 58.6248 123.921 58.2498 123.934 57.8406L123.978 56.4489L119.432 56.3076L119.39 57.7044C119.378 58.1139 119.127 58.4703 118.756 58.6452C118.656 58.6926 118.556 58.743 118.457 58.7958C118.358 58.8486 118.261 58.9041 118.166 58.9614C117.817 59.1723 117.384 59.1846 117.037 58.9698L115.845 58.2312L113.447 62.0958L114.633 62.8317C114.981 63.0477 115.169 63.4416 115.134 63.8496C115.114 64.0743 115.107 64.3002 115.111 64.5267C115.12 64.9344 114.907 65.3142 114.547 65.5068L113.32 66.165L115.47 70.1739L116.697 69.5157C117.057 69.3228 117.491 69.3552 117.826 69.588C118.012 69.7173 118.204 69.8361 118.402 69.9441C118.762 70.1403 118.986 70.5153 118.973 70.9245L118.93 72.3195L123.476 72.4608L123.519 71.0652C123.532 70.6572 123.782 70.302 124.151 70.1277C124.252 70.08 124.353 70.0293 124.453 69.9759C124.551 69.9231 124.648 69.8676 124.744 69.81C125.094 69.5982 125.53 69.5859 125.878 69.8022L127.063 70.5378ZM123.214 67.6677C121.402 68.64 119.146 67.959 118.173 66.1461C117.201 64.3332 117.88 62.0739 119.693 61.1019C121.506 60.1296 123.767 60.8121 124.739 62.625C125.711 64.4379 125.027 66.6954 123.214 67.6677Z" fill="#EBEBEB"/>
<path d="M31.4268 86.3466L34.6401 81.0856L34.6539 81.1441L32.9604 80.107C32.6793 79.9093 32.4708 79.6111 32.379 79.279C32.298 78.9946 32.3268 78.571 32.3367 78.2743L32.3484 77.7813C32.3397 77.2584 32.6166 76.7424 33.0627 76.4655L34.8102 75.519L34.7763 75.6309L31.8489 70.2034L31.9806 70.2432L30.2283 71.1844C29.7435 71.4094 29.1507 71.3539 28.7094 71.0563L28.2909 70.7977L27.8712 70.5399C27.4059 70.2777 27.09 69.7714 27.0735 69.2344L27.1281 67.2456L27.2406 67.3653L21.0786 67.1887L21.2133 67.0618L21.1545 69.0522C21.1086 69.5982 20.7525 70.0899 20.2665 70.3311L19.8276 70.554L19.4004 70.7985C18.93 71.073 18.321 71.0994 17.838 70.8348L16.1409 69.793L16.347 69.7446L13.0854 74.9761L13.0416 74.7895L14.7285 75.8461C15.1731 76.1596 15.4239 76.7091 15.3855 77.2485L15.3672 77.7406L15.3504 78.2317C15.354 78.7705 15.0684 79.3015 14.6073 79.5841L12.8529 80.5236L12.9 80.3649L15.8016 85.8063L15.6639 85.7646L17.4204 84.8322C17.7423 84.6864 18.1137 84.658 18.4533 84.7492C18.7446 84.8257 19.0935 85.0644 19.3488 85.2255L19.7682 85.4851C20.226 85.7467 20.5356 86.2494 20.5479 86.7786L20.4855 88.7656L20.4054 88.6804L26.5662 88.8997L26.5095 88.9531L26.5881 86.9707C26.634 86.245 27.2691 85.81 27.8754 85.5622C28.4181 85.2028 29.1312 84.9295 29.7483 85.2934C29.7477 85.2931 31.4268 86.3466 31.4268 86.3466ZM31.4268 86.3466L29.7348 85.3173C29.1135 84.9666 28.4448 85.2466 27.9009 85.6105C27.3042 85.8682 26.7105 86.2762 26.6697 86.9785L26.619 88.9564L26.6175 89.0113L26.5623 89.0098L20.4 88.846L20.3175 88.8439L20.3196 88.7607L20.3727 86.7847C20.3595 86.3164 20.0832 85.8729 19.6767 85.6431L19.2519 85.383L18.8274 85.1215C18.4419 84.8614 17.9229 84.8128 17.5011 85.0093L15.7605 85.9443L15.6711 85.9923L15.6228 85.9027L12.6954 80.4751L12.6402 80.3727L12.7431 80.3169L14.4792 79.377C14.8677 79.1364 15.1065 78.6865 15.1011 78.2308L15.1158 77.7313L15.132 77.2326C15.1629 76.7799 14.9496 76.3183 14.5773 76.0588L12.8991 75.0192L12.7842 74.9481L12.8553 74.8327L16.0929 69.5866L16.1715 69.4591L16.299 69.5383L17.9763 70.5799C18.3687 70.7986 18.873 70.7773 19.2606 70.5526L19.6953 70.3069L20.1414 70.0831C20.5461 69.8854 20.8452 69.4773 20.8848 69.027L20.952 67.054L20.9565 66.9229L21.087 66.9274L27.2481 67.1335L27.3645 67.1374L27.3606 67.2532L27.2964 69.2268C27.3078 69.6873 27.5793 70.1257 27.9795 70.3534L28.4034 70.6165L28.8267 70.8807C29.2086 71.1414 29.7231 71.1918 30.1443 70.9989L31.8888 70.0723L31.9749 70.0264L32.0205 70.1118L34.9221 75.5532L34.9611 75.6262L34.8882 75.6651L33.1452 76.5981C32.7417 76.8447 32.4942 77.3101 32.4951 77.7817C32.4822 78.0292 32.4699 78.529 32.4567 78.7765C32.4195 79.2517 32.6373 79.7371 33.0264 80.0161L34.6995 81.0724L34.7358 81.0951L34.7133 81.1309L31.4268 86.3466Z" fill="#EBEBEB"/>
<path d="M26.2095 82.4559C22.2318 84.5964 17.6148 80.8551 18.8688 76.5075C19.6203 73.7994 22.6512 72.1755 25.3224 73.0497C29.6424 74.412 30.192 80.3274 26.2095 82.4559ZM26.2095 82.4559C30.12 80.3232 29.5113 74.55 25.248 73.2954C22.7382 72.5028 19.8426 74.0511 19.1139 76.5813C17.7984 80.823 22.2702 84.5352 26.2095 82.4559Z" fill="#EBEBEB"/>
<path d="M38.8062 106.29L41.5659 104.697L41.0778 103.853C40.9344 103.605 40.9482 103.299 41.1048 103.059C41.1915 102.926 41.271 102.788 41.3433 102.646C41.4729 102.391 41.7306 102.227 42.0165 102.227H42.9918V99.0403H42.0165C41.7306 99.0403 41.4729 98.8762 41.3433 98.6212C41.271 98.479 41.1915 98.3413 41.1048 98.2087C40.9482 97.9684 40.9344 97.663 41.0778 97.4146L41.5659 96.5701L38.8062 94.978L38.3178 95.8264C38.1744 96.0751 37.9017 96.2119 37.6149 96.1975C37.5372 96.1936 37.4589 96.1915 37.3803 96.1915C37.3017 96.1915 37.2237 96.1936 37.1457 96.1975C36.8604 96.2122 36.5886 96.0763 36.4458 95.8288L35.9544 94.9783L33.1947 96.5704L33.6831 97.4173C33.8265 97.6657 33.8124 97.9714 33.6552 98.2117C33.5688 98.344 33.4893 98.4811 33.4173 98.6224C33.2874 98.8771 33.0303 99.0406 32.7444 99.0406H31.7688V102.228H32.7444C33.0303 102.228 33.2874 102.391 33.4173 102.646C33.4893 102.787 33.5688 102.924 33.6552 103.056C33.8121 103.297 33.8265 103.602 33.6831 103.851L33.1947 104.698L35.9544 106.29L36.4431 105.443C36.5862 105.195 36.8583 105.059 37.1439 105.073C37.2219 105.077 37.3008 105.079 37.3803 105.079C37.4589 105.079 37.5369 105.077 37.6149 105.073C37.9017 105.058 38.1747 105.195 38.3181 105.444L38.8062 106.29ZM37.3803 103.243C35.9391 103.243 34.7718 102.076 34.7718 100.635C34.7718 99.1936 35.9391 98.0236 37.3803 98.0236C38.8215 98.0236 39.9912 99.1936 39.9912 100.635C39.9912 102.076 38.8215 103.243 37.3803 103.243Z" fill="#EBEBEB"/>
<path d="M58.8534 24.1138L57.2613 21.3544L56.4168 21.8422C56.1684 21.9859 55.863 21.9721 55.6227 21.8152C55.4898 21.7285 55.3521 21.649 55.2102 21.5767C54.9552 21.4471 54.7914 21.1897 54.7914 20.9035V19.9282H51.6045V20.9035C51.6045 21.1897 51.4404 21.4471 51.1857 21.5767C51.0435 21.649 50.9058 21.7285 50.7732 21.8152C50.5329 21.9718 50.2275 21.9856 49.9791 21.8422L49.1346 21.3544L47.5425 24.1138L48.3909 24.6022C48.6396 24.7453 48.7764 25.0183 48.762 25.3051C48.7581 25.3828 48.756 25.4611 48.756 25.5397C48.756 25.618 48.7578 25.6963 48.762 25.774C48.7767 26.0593 48.6405 26.3311 48.3933 26.4739L47.5428 26.9653L49.1349 29.7247L49.9818 29.2363C50.2302 29.0929 50.5359 29.107 50.7762 29.2642C50.9085 29.3506 51.0456 29.4301 51.1869 29.5021C51.4416 29.632 51.6051 29.8894 51.6051 30.175V31.1506H54.792V30.175C54.792 29.8891 54.9558 29.632 55.2102 29.5021C55.3515 29.4301 55.4886 29.3506 55.6209 29.2642C55.8612 29.1073 56.1669 29.0932 56.4153 29.2363L57.2622 29.7247L58.8543 26.9653L58.0071 26.4766C57.7593 26.3335 57.6231 26.0614 57.6375 25.7758C57.6414 25.6978 57.6435 25.6189 57.6435 25.5397C57.6435 25.4611 57.6417 25.3831 57.6375 25.3051C57.6228 25.0183 57.7596 24.7453 58.0083 24.6019L58.8534 24.1138ZM55.8072 25.5397C55.8072 26.9809 54.6399 28.1482 53.1987 28.1482C51.7575 28.1482 50.5875 26.9809 50.5875 25.5397C50.5875 24.0985 51.7575 22.9288 53.1987 22.9288C54.6399 22.9285 55.8072 24.0982 55.8072 25.5397Z" fill="#EBEBEB"/>
<path d="M136.011 79.1614L134.346 76.4938L134.405 76.5097L133.512 77.0152C133.349 77.098 133.157 77.1244 132.976 77.0911C132.79 77.0629 132.634 76.9504 132.491 76.879C132.159 76.7233 131.821 76.5169 131.785 76.1122C131.773 75.7546 131.777 75.4252 131.773 75.0802L131.86 75.1675L128.603 75.1921L128.715 75.0805C128.715 75.4273 128.725 75.7507 128.718 76.1167C128.692 76.417 128.483 76.6813 128.218 76.8073C128.108 76.87 127.886 76.9921 127.776 77.0545C127.516 77.1991 127.188 77.2126 126.92 77.0803L126.016 76.5865L126.192 76.5394L124.572 79.234L124.52 79.0393L125.421 79.5334C125.789 79.7422 125.879 80.1598 125.837 80.5519C125.881 80.9479 125.792 81.3616 125.423 81.5743L124.524 82.0738L124.58 81.865L126.2 84.5596L126.01 84.5086L126.915 84.0154C127.096 83.926 127.305 83.9008 127.501 83.9389C127.666 83.9671 127.861 84.0808 128.006 84.1657C128.354 84.3358 128.697 84.559 128.732 84.9859C128.741 85.3549 128.734 85.6762 128.735 86.0236L128.603 85.8916L131.859 85.9051L131.741 86.0236C131.776 85.4455 131.571 84.6016 132.254 84.3148L132.473 84.1954C132.78 83.992 133.183 83.8684 133.528 84.0553L134.425 84.5566L134.308 84.5881L135.962 81.9133L135.983 81.9922L135.093 81.4867C134.758 81.2998 134.699 80.8879 134.741 80.5525C134.706 80.2201 134.775 79.8157 135.107 79.6411C135.108 79.6405 136.011 79.1614 136.011 79.1614ZM136.011 79.1614L135.126 79.6693C134.809 79.8568 134.768 80.2156 134.805 80.5519C134.777 80.8849 134.825 81.2374 135.14 81.4111L136.038 81.8926L136.089 81.9202L136.059 81.9715L134.459 84.6784L134.416 84.7501L134.342 84.7099L133.444 84.2263C133.134 84.0736 132.859 84.1957 132.575 84.3751C132.458 84.4465 132.257 84.535 132.163 84.6304C132.056 84.7315 131.987 84.8689 131.974 85.0114C131.969 85.3669 131.979 85.7695 131.978 86.1415L131.86 86.1421L128.603 86.1556L128.472 86.1562C128.468 85.7818 128.474 85.369 128.465 85.0141C128.444 84.6898 128.127 84.5362 127.872 84.4048C127.761 84.3343 127.578 84.2344 127.45 84.211C127.31 84.1846 127.163 84.2035 127.038 84.2662L126.148 84.7579L126.029 84.8239L125.957 84.7069L124.324 82.0201L124.243 81.8866L124.38 81.8113L125.271 81.322C125.389 81.2527 125.479 81.1411 125.522 81.0118C125.564 80.8927 125.553 80.6788 125.548 80.5519C125.573 80.2609 125.559 79.9384 125.274 79.7764L124.385 79.2841L124.258 79.2133L124.333 79.0894L125.966 76.4029L126.032 76.2946L126.143 76.3558L127.033 76.8481C127.316 77.0023 127.629 76.8664 127.877 76.708C127.991 76.6405 128.195 76.5523 128.289 76.4617C128.395 76.3651 128.465 76.2319 128.48 76.0918C128.491 75.7399 128.487 75.3376 128.493 74.9683L128.603 74.9692L131.86 74.9938L131.948 74.9944L131.947 75.0811C131.994 75.6115 131.737 76.3483 132.333 76.6297C132.542 76.7395 132.784 76.9195 133 76.9669C133.154 76.9993 133.319 76.981 133.462 76.9129L134.363 76.432L134.401 76.4116L134.422 76.4482L136.011 79.1614Z" fill="#EBEBEB"/>
<path d="M132.899 80.5516C132.912 82.864 129.94 83.998 128.281 82.4635C127.141 81.5098 127.142 79.5898 128.282 78.6364C129.942 77.0998 132.913 78.2398 132.899 80.5516ZM132.899 80.5516C132.908 78.2989 129.98 77.281 128.459 78.8257C127.477 79.7272 127.474 81.3727 128.457 82.2751C129.976 83.8195 132.909 82.8049 132.899 80.5516Z" fill="#EBEBEB"/>
<path d="M101.166 13.7593V34.783H104.117V39.8827L109.217 34.783H137.203V13.7593H101.166Z" fill="white"/>
<path d="M101.166 13.7594C101.242 19.955 101.302 28.691 101.346 34.7831L101.166 34.6037L104.117 34.5878L104.311 34.5866L104.313 34.7831L104.34 39.8825L103.96 39.725L109.036 34.6019L109.11 34.5272C117.39 34.511 129.035 34.4816 137.203 34.4891L136.909 34.7831L136.947 13.7597L137.203 14.0156C128.22 13.9802 110.148 13.8401 101.166 13.7594ZM101.166 13.7594C110.278 13.679 128.345 13.5389 137.458 13.502L137.459 13.7594L137.497 34.7828L137.497 35.0756C129.291 35.1008 117.544 35.0396 109.217 35.0387L109.398 34.9637L104.275 40.0397L103.891 40.4195L103.894 39.8819L103.922 34.7825L104.117 34.9778L101.167 34.9619L100.987 34.961C100.987 28.7678 101.131 20.0279 101.166 13.7594Z" fill="#EBEBEB"/>
<path d="M125.997 24.2713C125.997 25.2142 126.761 25.9786 127.704 25.9786C128.647 25.9786 129.412 25.2142 129.412 24.2713C129.412 23.3284 128.647 22.564 127.704 22.564C126.761 22.564 125.997 23.3284 125.997 24.2713Z" fill="#EBEBEB"/>
<path d="M117.476 24.2713C117.476 25.2142 118.241 25.9786 119.184 25.9786C120.127 25.9786 120.891 25.2142 120.891 24.2713C120.891 23.3284 120.127 22.564 119.184 22.564C118.241 22.564 117.476 23.3284 117.476 24.2713Z" fill="#EBEBEB"/>
<path d="M108.956 24.2713C108.956 25.2142 109.72 25.9786 110.663 25.9786C111.606 25.9786 112.37 25.2142 112.37 24.2713C112.37 23.3284 111.606 22.564 110.663 22.564C109.72 22.564 108.956 23.3284 108.956 24.2713Z" fill="#EBEBEB"/>
<path d="M33.1782 38.0645C32.5971 42.0404 29.1717 45.0914 25.0365 45.0914C20.4906 45.0914 16.8024 41.4062 16.8024 36.8576C16.8024 32.3117 20.4906 28.6265 25.0365 28.6265V36.8576L33.1782 38.0645Z" fill="#EBEBEB"/>
<path d="M34.944 35.1808C34.944 35.5915 34.9131 35.9938 34.8546 36.3877L26.7129 35.1808V26.9497C29.7666 26.9497 32.4351 28.615 33.8571 31.0876C34.5501 32.2945 34.944 33.6943 34.944 35.1808Z" fill="#DBDBDB"/>
<path d="M25.9278 39.895H34.6821" stroke="#C7C7C7" stroke-width="0.3" stroke-miterlimit="10"/>
<path d="M35.2956 40.5082C34.9566 40.5082 34.6821 40.2334 34.6821 39.8947C34.6821 39.5557 34.9569 39.2812 35.2956 39.2812C35.6346 39.2812 35.9091 39.556 35.9091 39.8947C35.9091 40.2337 35.6343 40.5082 35.2956 40.5082Z" stroke="#C7C7C7" stroke-width="0.3" stroke-miterlimit="10"/>
<path d="M44.3196 39.4346H37.5201V39.7415H44.3196V39.4346Z" fill="#C7C7C7"/>
<path d="M41.3694 40.0483H37.5201V40.3552H41.3694V40.0483Z" fill="#C7C7C7"/>
<path d="M106.256 93.0581H103.936V109.57H106.256V93.0581Z" fill="#EBEBEB"/>
<path d="M110.244 97.0547H107.924V109.569H110.244V97.0547Z" fill="#EBEBEB"/>
<path d="M114.232 103.312H111.912V109.57H114.232V103.312Z" fill="#EBEBEB"/>
<path d="M118.221 99.7383H115.901V109.57H118.221V99.7383Z" fill="#EBEBEB"/>
<path d="M122.209 95.9849H119.888V109.57H122.209V95.9849Z" fill="#EBEBEB"/>
<path d="M126.197 93.7773H123.877V109.569H126.197V93.7773Z" fill="#EBEBEB"/>
<path d="M102.591 90.958L102.618 95.6107L102.631 100.263L102.65 109.569L102.591 109.511C104.723 109.505 106.856 109.502 108.988 109.509L115.385 109.522L121.783 109.535L128.18 109.569L121.783 109.604L115.385 109.617L108.988 109.63C106.856 109.637 104.723 109.634 102.591 109.628L102.532 109.628V109.569L102.551 100.264L102.564 95.611L102.591 90.958Z" fill="#EBEBEB"/>
<path d="M102.079 91.8914C102.25 91.8398 102.42 91.8278 102.591 91.8257C102.761 91.8275 102.932 91.8395 103.103 91.8914C102.932 91.9433 102.761 91.9553 102.591 91.9571C102.42 91.955 102.249 91.943 102.079 91.8914Z" fill="#EBEBEB"/>
<path d="M102.079 93.3059C102.25 93.2543 102.42 93.2423 102.591 93.2402C102.761 93.242 102.932 93.254 103.103 93.3059C102.932 93.3581 102.761 93.3698 102.591 93.3716C102.42 93.3695 102.249 93.3575 102.079 93.3059Z" fill="#EBEBEB"/>
<path d="M102.079 94.72C102.25 94.6684 102.42 94.6564 102.591 94.6543C102.761 94.6561 102.932 94.6681 103.103 94.72C102.932 94.7722 102.761 94.7839 102.591 94.7857C102.42 94.7836 102.249 94.7719 102.079 94.72Z" fill="#EBEBEB"/>
<path d="M102.079 96.1345C102.25 96.0826 102.42 96.0709 102.591 96.0688C102.761 96.0706 102.932 96.0826 103.103 96.1345C102.932 96.1864 102.761 96.1985 102.591 96.2003C102.42 96.1982 102.249 96.1864 102.079 96.1345Z" fill="#EBEBEB"/>
<path d="M102.079 97.5491C102.25 97.4975 102.42 97.4855 102.591 97.4834C102.761 97.4852 102.932 97.4972 103.103 97.5491C102.932 97.6013 102.761 97.613 102.591 97.6148C102.42 97.6127 102.249 97.6007 102.079 97.5491Z" fill="#EBEBEB"/>
<path d="M102.079 98.9637C102.25 98.9121 102.42 98.9 102.591 98.8979C102.761 98.8997 102.932 98.9118 103.103 98.9637C102.932 99.0156 102.761 99.0276 102.591 99.0294C102.42 99.0273 102.249 99.0153 102.079 98.9637Z" fill="#EBEBEB"/>
<path d="M102.079 100.378C102.25 100.327 102.42 100.315 102.591 100.312C102.761 100.314 102.932 100.326 103.103 100.378C102.932 100.43 102.761 100.442 102.591 100.444C102.42 100.442 102.249 100.43 102.079 100.378Z" fill="#EBEBEB"/>
<path d="M102.079 101.792C102.25 101.741 102.42 101.729 102.591 101.727C102.761 101.728 102.932 101.74 103.103 101.792C102.932 101.844 102.761 101.856 102.591 101.858C102.42 101.856 102.249 101.844 102.079 101.792Z" fill="#EBEBEB"/>
<path d="M102.079 103.207C102.25 103.155 102.42 103.143 102.591 103.141C102.761 103.143 102.932 103.155 103.103 103.207C102.932 103.259 102.761 103.271 102.591 103.273C102.42 103.27 102.249 103.259 102.079 103.207Z" fill="#EBEBEB"/>
<path d="M102.079 104.621C102.25 104.57 102.42 104.558 102.591 104.556C102.761 104.557 102.932 104.569 103.103 104.621C102.932 104.673 102.761 104.685 102.591 104.687C102.42 104.685 102.249 104.673 102.079 104.621Z" fill="#EBEBEB"/>
<path d="M102.079 106.036C102.25 105.984 102.42 105.972 102.591 105.97C102.761 105.972 102.932 105.984 103.103 106.036C102.932 106.088 102.761 106.1 102.591 106.102C102.42 106.1 102.249 106.088 102.079 106.036Z" fill="#EBEBEB"/>
<path d="M102.079 107.45C102.25 107.398 102.42 107.386 102.591 107.384C102.761 107.386 102.932 107.398 103.103 107.45C102.932 107.502 102.761 107.514 102.591 107.516C102.42 107.514 102.249 107.502 102.079 107.45Z" fill="#EBEBEB"/>
<path d="M113.6 47.1394L116.661 37.3726L118.406 38.6116L113.6 47.1394Z" fill="#455A64"/>
<path d="M116.003 49.5189L124.337 47.4849L124.805 49.7832L116.003 49.5189Z" fill="#455A64"/>
<path d="M115.13 47.6031L125.639 37.4814L127.668 40.2747L115.13 47.6031Z" fill="#455A64"/>
<path d="M115.879 136.053H87.25C86.713 134.46 86.206 132.9 85.729 131.376C85.141 129.492 84.652 127.674 84.271 125.949C84.181 125.541 84.097 125.136 84.019 124.737C83.866 123.954 83.734 123.192 83.629 122.454C83.095 118.749 83.173 115.671 83.932 113.583C84.607 111.717 85.828 110.643 87.646 110.622C87.718 110.619 87.793 110.619 87.865 110.622C88.012 110.625 88.159 110.637 88.312 110.655C91.228 110.991 95.473 113.721 101.224 119.697C102.601 121.131 104.068 122.751 105.622 124.569C106.138 125.172 106.672 125.79 107.224 126.423C109.81 129.399 112.765 132.678 115.879 136.053Z" fill="#AD6359"/>
<path d="M122.098 136.053H84.2049C83.4729 134.178 82.7919 132.375 82.1769 130.668C81.7179 129.393 81.3099 128.166 80.9469 126.984C80.7999 126.504 80.6589 126.03 80.5299 125.565C80.5269 125.565 80.5269 125.565 80.5269 125.565C80.2629 124.638 80.0319 123.741 79.8309 122.877C79.7019 122.331 79.5849 121.8 79.4829 121.278C79.3839 120.789 79.2939 120.309 79.2159 119.841C79.1649 119.529 79.1169 119.223 79.0749 118.92C79.0299 118.617 78.9939 118.32 78.9579 118.029C78.9039 117.567 78.8589 117.12 78.8289 116.682C78.8109 116.448 78.7959 116.217 78.7839 115.992C78.7839 115.953 78.7809 115.914 78.7779 115.875C78.6369 112.773 79.0689 110.349 79.9959 108.645C80.6859 107.367 81.6549 106.491 82.8669 106.038C82.9389 106.005 83.0109 105.981 83.0859 105.957C84.5139 105.486 86.2599 105.567 88.2729 106.227C88.2759 106.227 88.2759 106.227 88.2759 106.227C90.8649 107.076 93.8919 108.879 97.2489 111.681C104.128 117.426 113.332 126.729 122.098 136.053Z" fill="#FFC727"/>
<path d="M112.438 126.027C112.84 128.397 113.77 130.701 114.7 132.276C115.486 133.626 116.986 135.474 118.702 134.346C119.065 134.106 119.347 133.767 119.542 133.377C117.178 130.875 114.784 128.394 112.438 126.027ZM104.149 136.053H107.698C106.498 135.306 105.127 134.988 104.149 136.053ZM107.575 121.176C105.49 119.13 103.453 117.192 101.539 115.452C101.035 116.154 100.918 117.174 101.05 118.272C101.074 118.737 101.134 119.217 101.224 119.697C101.548 121.476 102.25 123.246 102.757 124.158C103.348 125.256 104.413 127.131 105.91 127.107C106.495 127.101 106.921 126.828 107.224 126.423C107.701 125.79 107.878 124.839 107.908 124.098C107.926 123.492 107.812 122.406 107.575 121.176Z" fill="#263238"/>
<path opacity="0.1" d="M96.046 136.053H84.2109C83.4759 134.178 82.7949 132.375 82.1829 130.668C81.7239 129.393 81.313 128.166 80.95 126.984C80.803 126.504 80.662 126.03 80.53 125.565C80.266 124.638 80.035 123.744 79.834 122.88C79.834 122.88 79.8339 122.88 79.8309 122.877C79.7019 122.331 79.5849 121.8 79.4829 121.278C79.3839 120.789 79.294 120.309 79.216 119.841C79.165 119.529 79.117 119.223 79.075 118.92C79.03 118.617 78.9939 118.32 78.9579 118.029C78.4689 113.877 78.8679 110.73 80.0079 108.651C80.2149 108.267 80.4519 107.919 80.7099 107.607L81.5919 109.242L83.932 113.583L87.0129 119.298L88.1289 121.368L88.4169 121.899L92.7969 130.023L95.1039 134.304L96.046 136.053Z" fill="black"/>
<path d="M95.4729 136.053H76.2789C76.2789 132.87 76.2819 129.789 76.2849 126.882C76.2879 126.315 76.2879 125.754 76.2879 125.199C76.2909 124.152 76.2939 123.129 76.2969 122.136C76.3149 114.93 76.3479 109.251 76.3629 106.44V106.437C76.3719 105.192 76.3779 104.508 76.3779 104.508L76.2039 103.854L75.8619 102.573C75.8619 102.573 79.3629 103.332 83.0859 105.957C83.4879 106.239 83.8929 106.545 84.2979 106.875C85.2789 107.673 86.2509 108.609 87.1509 109.701C87.2409 109.809 87.3279 109.914 87.4149 110.025C87.5679 110.22 87.7179 110.418 87.8649 110.622C88.0329 110.847 88.1949 111.078 88.3509 111.318V111.321C89.0769 112.407 89.7249 113.622 90.2619 114.978C91.5189 118.161 93.2319 125.46 95.1039 134.304C95.2239 134.88 95.3469 135.462 95.4729 136.053Z" fill="#FFC727"/>
<path d="M93.9069 136.053H32.5209C39.9099 123.828 46.9329 113.454 50.6739 109.686C51.1689 109.185 51.7029 108.717 52.2699 108.285C53.3889 107.415 54.6339 106.668 55.9719 106.038C57.2409 105.435 58.5909 104.937 59.9919 104.538C60.7479 104.319 61.5189 104.133 62.2989 103.971C65.9529 103.221 69.8229 103.074 73.4259 103.449H73.4289C74.3769 103.548 75.3039 103.683 76.2039 103.854C78.6999 104.325 80.9859 105.063 82.8669 106.038C83.3739 106.299 83.8539 106.578 84.2979 106.875C85.3539 107.58 86.2239 108.375 86.8599 109.257C86.9559 109.392 87.0549 109.539 87.1509 109.701C87.2139 109.806 87.2769 109.914 87.3399 110.028C87.4419 110.214 87.5439 110.412 87.6459 110.622C87.8889 111.126 88.1349 111.702 88.3809 112.35C88.3809 112.35 88.3809 112.35 88.3809 112.353C89.8449 116.211 91.3479 122.523 92.7969 130.023C93.1689 131.961 93.5409 133.977 93.9069 136.053Z" fill="#EBEBEB"/>
<path d="M57.8538 110.231C59.9406 113.013 62.2302 115.598 64.6581 117.995C67.1028 120.365 69.7905 122.495 72.7854 123.929C75.7428 125.383 79.1235 126.029 82.3176 125.297C85.4994 124.597 88.2138 122.112 89.5143 118.888C88.887 122.293 86.2806 125.544 82.6815 126.582C79.1472 127.699 75.273 127.032 72.045 125.47C68.7993 123.875 66.024 121.552 63.6984 118.916C61.359 116.286 59.3793 113.363 57.8538 110.231Z" fill="#C7C7C7"/>
<path d="M61.0389 136.053H28.5879C34.8189 123.993 40.1859 113.988 42.2739 111.399C42.2739 111.399 42.2769 111.399 42.2769 111.396C42.3999 111.24 42.5139 111.111 42.6159 111.009C45.1269 108.516 48.7539 106.734 52.0389 105.519C56.2749 103.953 59.9469 103.326 59.9469 103.326C59.9469 103.326 59.9619 103.749 59.9919 104.538C60.0489 106.137 60.1629 109.23 60.3009 113.304C60.3159 113.718 60.3309 114.141 60.3459 114.573C60.5469 120.423 60.7989 128.025 61.0389 136.053Z" fill="#FFC727"/>
<path d="M58.4439 119.253V119.25C58.4229 119.199 58.3989 119.151 58.3749 119.103C58.3449 119.043 58.3119 118.986 58.2789 118.932C58.2789 118.929 58.2759 118.929 58.2729 118.926C58.2369 118.872 58.1979 118.821 58.1559 118.77V118.767C58.1289 118.734 58.1019 118.704 58.0689 118.674C58.0239 118.629 57.9789 118.59 57.9339 118.551H57.9309C57.8859 118.515 57.8379 118.482 57.7899 118.452C57.7569 118.431 57.7239 118.413 57.6909 118.398C57.5919 118.347 57.4899 118.311 57.3819 118.287C57.3639 118.281 57.3429 118.278 57.3249 118.272C57.3219 118.272 57.3219 118.272 57.3219 118.272C57.0069 118.212 56.6709 118.251 56.3349 118.35C55.5909 118.563 54.8469 119.064 54.3489 119.427C53.6259 119.958 52.9149 120.582 52.2489 121.278C52.0269 121.509 51.8109 121.749 51.6009 121.995C51.4599 122.16 51.3249 122.328 51.1899 122.499C51.0549 122.667 50.9259 122.841 50.7969 123.018C49.7799 124.428 48.9909 126.009 48.6219 127.644C48.5409 127.83 48.4629 128.013 48.3939 128.199C48.3609 128.28 48.3309 128.361 48.3039 128.442C48.2799 128.511 48.2559 128.58 48.2349 128.649C48.2049 128.736 48.1809 128.823 48.1569 128.907C47.8599 129.951 47.8479 130.896 48.3609 131.499C48.3879 131.532 48.4179 131.562 48.4509 131.595C48.5109 131.655 48.5799 131.712 48.6549 131.766H48.6579C48.8439 131.901 49.0749 132.003 49.3479 132.075C49.3809 132.084 49.4139 132.09 49.4499 132.093C49.4829 132.102 49.5159 132.108 49.5489 132.111C49.8429 132.147 50.1459 132.102 50.4519 132.003C50.5359 131.976 50.6229 131.943 50.7099 131.907L50.7129 131.904C50.8149 131.865 50.9169 131.814 51.0189 131.76C51.1149 131.712 51.2109 131.658 51.3039 131.601C51.3879 131.55 51.4689 131.499 51.5529 131.442C51.9069 131.205 52.2519 130.926 52.5699 130.647C52.6149 130.608 52.6569 130.569 52.6989 130.53C52.7379 130.497 52.7739 130.464 52.8129 130.425C52.8939 130.353 52.9719 130.281 53.0499 130.206C53.0859 130.173 53.1219 130.14 53.1579 130.104C53.2869 129.984 53.4069 129.864 53.5209 129.756C53.6169 129.66 53.7069 129.573 53.7879 129.495C53.9439 129.345 54.0999 129.189 54.2529 129.03C54.3699 128.91 54.4839 128.79 54.5979 128.664C54.7299 128.523 54.8589 128.376 54.9879 128.229C55.1169 128.082 55.2429 127.932 55.3659 127.782C55.3659 127.782 55.3659 127.782 55.3659 127.779C56.3289 126.597 57.1479 125.289 57.7269 123.897C58.1949 122.763 58.9929 120.6 58.4439 119.253Z" fill="#263238"/>
<path d="M57.3819 118.284V118.287C56.5809 121.734 54.7119 125.868 51.7359 130.35C51.3999 130.857 51.0579 131.373 50.7129 131.904L50.7099 131.907C49.8549 133.221 48.9669 134.607 48.0579 136.053H21.3429C29.8299 127.614 43.0695 107.316 53.2902 106.803C58.0041 106.566 58.7529 112.371 57.3819 118.284Z" fill="#AD6359"/>
<path d="M59.3979 113.073C59.3889 114.849 59.0769 116.913 58.4439 119.25V119.253C58.3179 119.721 58.1799 120.198 58.0269 120.687C57.9669 120.876 57.9069 121.068 57.8439 121.26C57.7479 121.551 57.6489 121.848 57.5439 122.151C57.4659 122.37 57.3879 122.592 57.3069 122.814C57.2379 123.006 57.1659 123.204 57.0909 123.399C57.0189 123.597 56.9439 123.795 56.8659 123.996C56.5629 124.797 56.2389 125.628 55.8939 126.48C55.8099 126.693 55.7229 126.909 55.6329 127.125C55.5459 127.341 55.4559 127.56 55.3659 127.779C55.3659 127.782 55.3659 127.782 55.3659 127.782C54.3009 130.365 53.0799 133.149 51.7509 136.053H20.5908C20.6448 135.999 29.9745 123.752 37.3092 115.948C44.0598 108.765 51.8745 104.176 55.9716 106.038C58.0356 106.976 59.2146 109.077 59.3796 112.185V112.188C59.3949 112.473 59.4039 112.767 59.3979 113.073Z" fill="#FFC727"/>
<path d="M58.3749 119.103C58.3449 119.043 58.3119 118.986 58.2789 118.932C58.2789 118.929 58.2759 118.929 58.2729 118.926C58.2369 118.872 58.1979 118.821 58.1559 118.77V118.767C58.1289 118.734 58.1019 118.704 58.0689 118.674C58.0269 118.629 57.9819 118.587 57.9339 118.551H57.9309C57.8859 118.515 57.8379 118.482 57.7899 118.452C57.7569 118.431 57.7239 118.413 57.6909 118.398C57.5919 118.347 57.4899 118.311 57.3819 118.287V118.284C57.3609 118.278 57.3429 118.275 57.3249 118.272C57.3219 118.272 57.3219 118.272 57.3219 118.272C57.0069 118.212 56.6709 118.251 56.3349 118.35C55.5909 118.563 54.8469 119.064 54.3489 119.427C53.6259 119.958 52.9149 120.582 52.2489 121.278C52.0269 121.509 51.8109 121.749 51.6009 121.995C51.4599 122.16 51.3249 122.328 51.1899 122.499C51.0549 122.667 50.9259 122.841 50.7969 123.018C49.7799 124.428 48.9909 126.009 48.6219 127.644C48.5409 127.83 48.4629 128.013 48.3939 128.199C48.3609 128.28 48.3309 128.361 48.3039 128.442C48.2799 128.511 48.2559 128.58 48.2349 128.649C48.2049 128.736 48.1809 128.823 48.1569 128.907C47.8599 129.951 47.8479 130.896 48.3609 131.499C48.3879 131.532 48.4179 131.562 48.4509 131.595C48.5109 131.655 48.5799 131.712 48.6549 131.766H48.6579C48.8439 131.898 49.0749 132 49.3509 132.072C49.3839 132.078 49.4169 132.087 49.4499 132.093C49.4829 132.102 49.5159 132.108 49.5489 132.111C49.8429 132.147 50.1459 132.102 50.4519 132.003C50.5359 131.976 50.6229 131.943 50.7099 131.907L50.7129 131.904C50.8149 131.865 50.9169 131.814 51.0189 131.76C51.1149 131.712 51.2109 131.658 51.3039 131.601C51.3879 131.55 51.4689 131.499 51.5529 131.442C51.9069 131.205 52.2519 130.926 52.5699 130.647C52.6149 130.608 52.6569 130.569 52.6989 130.53C52.7379 130.497 52.7739 130.464 52.8129 130.425C52.8939 130.353 52.9719 130.281 53.0499 130.206C53.0859 130.173 53.1219 130.14 53.1579 130.104C53.2869 129.984 53.4069 129.864 53.5209 129.756C53.6169 129.66 53.7069 129.573 53.7879 129.495C53.9439 129.345 54.0999 129.189 54.2529 129.03C54.3699 128.91 54.4839 128.79 54.5979 128.664C54.7299 128.523 54.8589 128.376 54.9879 128.229C55.1169 128.082 55.2429 127.932 55.3659 127.782C55.3659 127.782 55.3659 127.782 55.3659 127.779C55.4559 127.56 55.5459 127.341 55.6329 127.125C55.7229 126.909 55.8099 126.693 55.8939 126.48C56.2389 125.628 56.5629 124.797 56.8659 123.996C56.9439 123.795 57.0189 123.597 57.0909 123.399C57.1659 123.204 57.2379 123.006 57.3069 122.814C57.3879 122.592 57.4659 122.37 57.5439 122.151C57.6489 121.848 57.7479 121.551 57.8439 121.26C57.9069 121.068 57.9669 120.876 58.0269 120.687C58.1799 120.198 58.3179 119.721 58.4439 119.253V119.25C58.4229 119.199 58.3989 119.151 58.3749 119.103Z" fill="#263238"/>
<path d="M52.6959 135.429C52.5879 135.636 52.4799 135.846 52.3689 136.053H52.0899C52.2369 135.816 52.3869 135.582 52.5369 135.345C52.5969 135.249 52.7499 135.324 52.6959 135.429Z" fill="#263238"/>
<path d="M113.491 65.9849C113.464 65.9729 113.437 66.0119 113.461 66.0269C116.338 67.9649 118.06 71.4929 116.725 74.9369C115.582 77.8799 113.083 79.1729 110.314 79.4789C112.693 78.3119 114.745 76.4189 115.567 73.8689C116.467 71.0699 115.639 67.881 113.371 66.09C115.564 63.528 117.025 60.06 116.236 56.742C115.576 53.949 113.317 51.657 110.446 51.246C112.09 48.342 111.961 44.568 109.861 41.985C107.896 39.558 104.587 38.565 101.521 39.234C103.675 34.689 100.336 29.475 95.245 29.589C95.74 27.855 95.026 26.016 93.625 24.882C92.014 23.568 89.8179 23.415 87.7689 23.637C87.1749 21.9 85.771 20.454 83.905 20.046C81.415 19.5 79.015 20.907 78.04 23.151C75.163 21.519 71.803 20.154 68.41 20.892C65.617 21.501 63.022 23.571 62.479 26.415C56.926 24.189 50.581 27.276 48.838 33.063C46.351 32.811 43.888 34.023 42.37 36.045C40.84 38.085 40.399 39.807 40.267 40.641C38.008 40.587 35.929 42.066 35.128 44.181C34.339 46.26 34.843 48.255 35.836 50.055C35.794 50.616 35.656 51.144 35.32 51.759C33.82 54.525 33.703 57.63 35.113 60.372C32.389 62.916 32.617 67.5419 35.56 69.6779C33.685 72.9599 35.005 77.3729 38.329 79.0289C37.141 81.7499 37.12 84.8609 38.422 87.4979C39.415 89.5199 41.416 91.3289 43.768 91.1069C43.192 92.8139 44.572 94.5389 46.201 95.1449C46.819 95.3759 47.476 95.4959 48.13 95.5829C48.907 95.6849 49.936 95.6069 50.632 95.9819C51.361 96.3629 51.673 97.2569 52.135 97.8809C52.468 98.3249 52.8519 98.739 53.2749 99.105C55.8429 101.319 59.644 101.808 62.788 100.53C63.562 100.221 64.297 99.801 64.963 99.273C66.571 101.415 69.394 101.835 71.998 101.406C72.307 101.355 72.613 101.292 72.913 101.22C73.849 100.995 74.704 100.632 75.583 100.251C75.892 100.116 76.189 99.9959 76.486 99.9059C76.972 99.7589 77.464 99.6929 78.022 99.7829C78.568 99.8729 79.084 100.083 79.63 100.176C81.484 100.488 83.077 99.5999 84.547 98.5559C85.834 100.134 87.382 101.043 89.002 101.403H89.005C93.763 102.456 99.1119 98.7599 100.126 93.3089C103.099 93.6149 106.183 92.4599 108.121 90.1469L108.124 90.144C108.331 89.898 108.523 89.64 108.703 89.367C110.416 86.757 110.503 83.4419 109.18 80.7539V80.751C109.183 80.748 109.183 80.7479 109.18 80.7449C109.183 80.7419 109.183 80.742 109.18 80.739C109.093 80.559 109 80.3819 108.898 80.2079C108.988 80.2109 109.081 80.2139 109.174 80.2109C112.624 80.2559 115.999 78.702 117.316 75.171C118.714 71.421 116.857 67.7489 113.491 65.9849ZM40.207 41.181C40.207 41.181 39.502 41.511 39.178 41.709C38.593 42.075 38.062 42.531 37.6 43.05C36.643 44.124 35.995 45.48 35.797 46.89C35.707 47.523 35.731 48.1469 35.8 48.7769C35.809 48.8609 35.809 48.9299 35.815 49.0109C35.416 47.8529 35.206 46.662 35.488 45.357C36.007 42.966 37.846 41.337 40.231 40.893C40.213 41.067 40.207 41.181 40.207 41.181ZM83.809 20.502C85.615 20.931 86.596 22.2 87.106 23.721C87.094 23.721 87.082 23.724 87.07 23.724C86.41 22.878 85.549 22.206 84.475 21.819C82.393 21.06 79.921 21.678 78.475 23.394C78.424 23.364 78.3699 23.337 78.3189 23.307C79.5579 21.351 81.226 19.89 83.809 20.502ZM89.122 100.824H89.1189C87.6999 100.5 86.254 99.711 84.847 98.343C84.868 98.328 84.892 98.313 84.913 98.298C86.275 99.255 87.778 99.801 89.302 99.978V99.9809C92.692 100.38 96.1689 98.9519 98.3259 96.1829C96.0819 99.5129 92.68 101.637 89.122 100.824Z" fill="#263238"/>
<path d="M82.431 122.785C76.0203 123.927 65.4864 117.757 61.6362 109.682C61.3755 109.127 64.8094 87.7649 65.0506 83.4614L91.6758 91.5305C91.6758 91.5305 88.5171 100.403 88.143 107.909C88.1184 108.537 88.1481 109.124 88.2297 109.686C88.2339 109.767 88.2525 109.867 88.2525 109.98C88.611 113.366 88.6266 121.677 82.431 122.785Z" fill="#AD6359"/>
<path d="M88.2252 109.69C88.2261 109.765 88.2462 109.86 88.2471 109.973C87.3978 110.057 86.4714 110.047 85.4694 109.981C69.8679 108.755 67.26 89.4304 66.8478 84.0112L73.5 86.0248L91.6755 91.5346C91.6755 91.5346 88.5123 100.409 88.1511 107.915C88.1196 108.538 88.1439 109.124 88.2252 109.69Z" fill="#263238"/>
<path d="M60.6562 53.8289C58.345 63.7985 65.4334 91.6556 72.8101 97.4702C83.5036 105.899 100.049 105.642 106.967 93.0074C113.674 80.7608 103.793 44.6195 95.6434 39.4349C83.6395 31.7987 64.0705 39.1022 60.6562 53.8289Z" fill="#AD6359"/>
<path d="M88.1928 68.6503C88.1601 68.5828 88.0677 68.7763 88.0899 68.8528C88.6176 70.7164 88.9083 72.94 87.3642 73.9873C87.3165 74.0194 87.3453 74.1127 87.4059 74.0884C89.4072 73.279 88.9917 70.3315 88.1928 68.6503Z" fill="#263238"/>
<path d="M86.0259 67.1066C82.9473 67.6304 84.2214 73.7492 87.0738 73.2644C89.8806 72.7865 88.6068 66.6671 86.0259 67.1066Z" fill="#263238"/>
<path d="M99.5464 66.3056C99.5458 66.23 99.7138 66.3641 99.727 66.4421C100.062 68.3501 100.766 70.4788 102.611 70.7515C102.669 70.7599 102.683 70.8563 102.618 70.8605C100.464 71.0018 99.5575 68.1659 99.5464 66.3056Z" fill="#263238"/>
<path d="M100.827 63.9731C103.827 63.107 105.339 69.1715 102.559 69.9737C99.8236 70.7639 98.3118 64.6991 100.827 63.9731Z" fill="#263238"/>
<path d="M82.6159 62.8586C83.4379 62.5493 84.247 62.4017 85.0912 62.1797C86.0437 61.9298 86.7763 61.6325 87.7477 61.9691C88.2682 62.1497 88.6123 62.8829 88.4845 63.4049C88.1869 64.6211 87.0964 65.2175 85.9621 65.5652C84.7312 65.9423 83.686 65.918 82.4953 65.4341C81.3418 64.9652 81.5329 63.2663 82.6159 62.8586Z" fill="#263238"/>
<path d="M102.39 59.1962C101.513 59.2235 100.699 59.102 99.8287 59.039C98.8462 58.9679 98.0569 59.0123 97.2469 58.3805C96.8119 58.0415 96.7237 57.2372 97.0135 56.7836C97.6876 55.7285 98.9119 55.5173 100.098 55.5542C101.384 55.5947 102.366 55.9547 103.337 56.7974C104.277 57.614 103.547 59.1602 102.39 59.1962Z" fill="#263238"/>
<path d="M93.9388 86.751C94.3579 87.246 94.7599 87.9111 95.4535 88.0362C96.1186 88.1559 96.9343 87.9276 97.5712 87.7473C97.6339 87.7296 97.69 87.7998 97.6456 87.8541C97.0753 88.5462 95.9785 88.9101 95.1001 88.6689C94.2415 88.434 93.8815 87.639 93.7459 86.8203C93.7267 86.7057 93.8776 86.6787 93.9388 86.751Z" fill="#263238"/>
<path d="M90.8617 80.5112C92.1937 81.947 93.8866 82.5611 95.6056 82.5893C96.3733 82.607 97.1587 82.4945 97.9111 82.2893C98.0608 82.2593 98.2084 82.2161 98.3389 82.1621C98.4721 82.1213 98.5921 82.0838 98.7367 82.0268C98.9494 81.9563 99.0373 81.755 99.0376 81.5426L99.0346 81.5291C99.0211 81.461 99.0103 81.4064 98.983 81.341C98.983 81.341 98.983 81.341 98.9809 81.3269L98.9485 81.1637C98.7334 79.7195 98.2066 77.5577 98.2066 77.5577C98.7787 77.7281 101.67 78.4586 101.495 77.7149C100.023 71.5637 98.3869 64.7219 95.6236 58.9118C95.5423 58.715 95.2369 58.8176 95.2909 59.0198C96.4711 64.988 98.6929 70.7084 99.9742 76.6847C99.0616 76.5113 97.5616 76.1564 96.8119 76.3043C96.6184 76.3997 97.9036 80.4641 97.9483 81.1208C97.9483 81.1208 97.954 81.1481 97.9483 81.1916C95.5879 81.9272 93.6379 81.5198 91.0063 80.3132C90.8488 80.2307 90.7231 80.3828 90.8617 80.5112Z" fill="#263238"/>
<path d="M104.554 50.1726C103.36 47.7936 102.121 47.4186 102.121 47.4186C102.121 47.4186 101.752 44.4696 98.602 41.0466C95.305 37.4646 92.218 37.3386 92.218 37.3386C92.218 37.3386 90.481 35.8326 86.971 35.0046C85.936 34.7556 84.748 34.5696 83.401 34.4976C82.045 34.4256 78.025 34.8906 76.849 35.5506C75.496 36.3156 73.879 35.7606 72.391 35.9286C71.014 36.0756 69.67 36.5256 68.461 37.2306C67.462 37.8066 66.541 38.5566 65.752 39.4596C65.296 39.9876 64.912 40.5666 64.516 41.1636C63.862 42.1446 63.169 42.5466 62.164 42.9876C60.016 43.9446 58.372 45.7986 57.553 48.2856C57.079 49.7286 56.983 51.2136 57.124 52.7766C57.298 54.6666 55.438 55.8096 54.916 57.5256C54.802 57.8976 54.721 58.2726 54.676 58.6506C54.364 61.0956 55.399 63.5916 57.253 65.0616C55.024 67.1496 54.625 71.2086 56.347 74.1336C56.728 74.7786 57.184 75.3036 57.691 75.7326C57.745 75.7776 57.799 75.8226 57.853 75.8646C58.165 76.1106 58.498 76.3236 58.843 76.5066C59.881 77.0556 61.039 77.3406 62.185 77.4996C62.605 77.5566 63.019 77.5656 63.43 77.5326C63.562 77.5356 63.691 77.5356 63.82 77.5296C64.093 77.5206 64.36 77.4906 64.624 77.4426C64.993 77.3736 65.353 77.2686 65.701 77.1276C66.67 76.7436 67.543 76.0986 68.245 75.2796C68.707 74.7426 69.097 74.1336 69.394 73.4676C69.559 73.0986 69.697 72.7116 69.802 72.3126C70.222 70.7376 70.144 68.9646 69.358 67.2366V67.1946C69.358 67.1946 74.6167 68.4771 76.8907 64.6131C78.2827 62.2461 78.4417 59.2281 78.0877 56.3511C84.0757 59.1111 91.2967 54.6651 91.3477 47.4291C93.1507 48.9531 97.0702 50.7876 99.0742 49.8606C100.772 55.9716 104.026 55.8486 105.268 55.7676C105.298 55.7676 105.328 55.7646 105.355 55.7586C105.511 55.7346 105.928 52.9026 104.554 50.1726ZM69.1147 72.4095C68.9737 72.8115 68.7967 73.1985 68.5897 73.5645C68.3047 74.0715 67.9597 74.5395 67.5667 74.9595C67.5007 75.0375 67.4287 75.1125 67.3537 75.1845C67.4167 75.1005 67.4767 75.0165 67.5337 74.9295C67.8097 74.5245 68.0587 74.0775 68.2687 73.5645C68.4157 73.2135 68.5477 72.8325 68.6587 72.4095C68.9737 71.2065 69.1447 69.6735 69.1087 67.6185C69.6937 69.3225 69.6277 70.9725 69.1147 72.4095ZM84.3241 55.9077C87.3841 54.6027 89.7721 51.6717 90.6061 47.7717C90.1711 52.2507 87.6391 54.8637 84.3241 55.9077Z" fill="#263238"/>
<path d="M58.1469 65.4116C62.1273 68.855 68.5299 68.6693 73.4508 65.6276C76.6779 63.6329 78.3549 59.1218 81.405 55.2305C86.4273 48.8234 98.3046 47.3222 95.1226 37.3997C92.2936 28.5782 77.5794 27.5321 64.9008 34.9703C53.7 41.5418 49.203 57.6749 58.1469 65.4116Z" fill="white"/>
<path d="M94.696 71.0911C94.633 70.8511 94.555 70.6111 94.465 70.3741V70.3711C94.399 70.1971 94.33 70.0231 94.252 69.8551C93.007 67.0711 90.451 65.2171 87.595 64.7611C86.143 64.5301 84.61 64.6591 83.137 65.2081C82.936 65.2831 82.741 65.3641 82.549 65.4541C79.918 66.6571 78.133 69.0391 77.587 71.7271C77.509 72.1111 77.458 72.5011 77.431 72.8971C77.353 74.0971 77.524 75.3361 77.971 76.5361C79.408 80.3821 83.266 82.6321 87.172 82.2061C87.883 82.1311 88.597 81.9631 89.302 81.7021C89.956 81.4591 90.562 81.1441 91.117 80.7691C91.237 80.6911 91.354 80.6071 91.471 80.5201C94.339 78.3871 95.689 74.6401 94.696 71.0911ZM88.888 80.5981C84.952 82.0741 80.548 80.0611 79.075 76.1251C77.605 72.1861 79.612 67.7821 83.551 66.3121C84.157 66.0841 84.778 65.9401 85.393 65.8711C88.777 65.5051 92.119 67.4551 93.364 70.7851C94.834 74.7241 92.827 79.1251 88.888 80.5981Z" fill="#FFC727"/>
<path d="M111.829 67.4521C111.313 65.1931 110.182 63.2101 108.643 61.8691C107.836 61.1641 106.966 60.6751 106.075 60.4171C105.217 60.1681 104.335 60.1351 103.477 60.3331C101.734 60.7321 100.318 62.0221 99.493 63.9631C99.064 64.9681 98.821 66.0901 98.767 67.2601C98.767 67.2601 98.767 67.2601 98.767 67.2631C98.749 67.6471 98.749 68.0371 98.773 68.4331C98.8 68.8801 98.854 69.3301 98.935 69.7831C98.968 69.9811 99.01 70.1821 99.055 70.3801C99.37 71.7571 99.913 73.0051 100.609 74.0611C102.175 76.4341 104.521 77.8441 106.84 77.5921C107.032 77.5711 107.218 77.5381 107.41 77.4961C107.983 77.3641 108.517 77.1331 109.003 76.8181C111.496 75.2131 112.738 71.4121 111.829 67.4521ZM108.886 75.4471C108.382 75.8881 107.797 76.2001 107.146 76.3501C104.245 77.0161 101.14 74.2141 100.201 70.1161C100.09 69.6211 100.012 69.1291 99.97 68.6401V68.6371C99.955 68.4871 99.946 68.3341 99.94 68.1841V68.1811C99.928 67.9291 99.928 67.6801 99.937 67.4311V67.4281C99.973 66.3541 100.186 65.3371 100.573 64.4251C100.636 64.2751 100.705 64.1311 100.78 63.9901C101.467 62.6491 102.505 61.7641 103.741 61.4821C103.885 61.4491 104.032 61.4251 104.179 61.4071C104.926 61.3261 105.697 61.4671 106.444 61.8151C106.933 62.0401 107.41 62.3551 107.869 62.7541C109.222 63.9361 110.221 65.6971 110.683 67.7161C111.409 70.8901 110.623 73.9321 108.886 75.4471Z" fill="#FFC727"/>
<path d="M94.4047 71.4321L93.4657 70.7217C94.5169 69.3312 97.1899 67.1718 99.7987 68.9343L99.1399 69.909C96.8053 68.3268 94.5022 71.3058 94.4047 71.4321Z" fill="#FFC727"/>
<path d="M56.8999 77.7631L55.8271 77.2786C56.0545 76.7785 58.1116 72.3763 60.7138 71.8123C63.1468 71.2921 77.2258 71.7097 77.8981 71.7382L77.8483 72.9139C73.3099 72.7234 62.8417 72.5554 60.9634 72.9634C59.2456 73.3348 57.4483 76.5541 56.8999 77.7631Z" fill="#FFC727"/>
<path d="M69.1221 76.3545C69.1221 76.3545 61.9452 67.8105 58.014 70.4484C54.0822 73.0863 60.0426 85.8648 65.055 87.2403C70.0668 88.6164 71.4312 84.0015 71.4312 84.0015L69.1221 76.3545Z" fill="#AD6359"/>
<path d="M59.8137 74.0688C59.7354 74.0691 59.7297 74.1795 59.7999 74.2011C63.324 75.2775 65.3949 78.2736 66.9393 81.4329C65.8161 80.2635 64.3767 79.6965 62.7969 81.0498C62.7141 81.1215 62.8116 81.2526 62.9055 81.2235C64.2729 80.8017 65.2995 80.9541 66.3399 81.9867C67.0767 82.7181 67.6206 83.6766 68.1795 84.5469C68.3655 84.837 68.9004 84.6258 68.7534 84.2856C68.7426 84.2607 68.73 84.2349 68.7186 84.2097C68.4195 79.8639 64.5093 74.0925 59.8137 74.0688Z" fill="#263238"/>
<path d="M78.865 34.1795V37.1105C78.865 37.4198 78.6142 37.6709 78.3049 37.6709C78.1318 37.6709 77.9722 37.5878 77.8627 37.4537C77.6485 37.1921 77.3224 37.0256 76.9585 37.0256C76.3117 37.0256 75.7888 37.5488 75.7888 38.1941C75.7888 38.8394 76.312 39.3626 76.9585 39.3626C77.3224 39.3626 77.6482 39.1961 77.8627 38.9345C77.9725 38.8007 78.1318 38.7173 78.3049 38.7173C78.6142 38.7173 78.865 38.9681 78.865 39.2777V42.2087H75.9337C75.6244 42.2087 75.3736 42.4595 75.3736 42.7688C75.3736 42.9419 75.4567 43.1015 75.5908 43.211C75.8524 43.4252 76.0189 43.7513 76.0189 44.1152C76.0189 44.762 75.4957 45.2849 74.8504 45.2849C74.2051 45.2849 73.6819 44.7617 73.6819 44.1152C73.6819 43.7513 73.8484 43.4255 74.11 43.211C74.2438 43.1012 74.3272 42.9419 74.3272 42.7688C74.3272 42.4595 74.0764 42.2087 73.7668 42.2087H70.8358V39.2777C70.8358 38.9684 71.0866 38.7173 71.3962 38.7173C71.5693 38.7173 71.7289 38.8004 71.8384 38.9345C72.0526 39.1961 72.3787 39.3626 72.7426 39.3626C73.3894 39.3626 73.9123 38.8394 73.9123 38.1941C73.9123 37.5488 73.3891 37.0256 72.7426 37.0256C72.3787 37.0256 72.0529 37.1921 71.8384 37.4537C71.7286 37.5875 71.5693 37.6709 71.3962 37.6709C71.0869 37.6709 70.8358 37.4201 70.8358 37.1105V34.1795H73.7671C74.0764 34.1795 74.3272 33.9287 74.3272 33.6191C74.3272 33.446 74.2441 33.2864 74.11 33.1769C73.8484 32.9627 73.6819 32.6366 73.6819 32.2727C73.6819 31.6259 74.2051 31.103 74.8504 31.103C75.4957 31.103 76.0189 31.6262 76.0189 32.2727C76.0189 32.6366 75.8524 32.9624 75.5908 33.1769C75.457 33.2867 75.3736 33.446 75.3736 33.6191C75.3736 33.9284 75.6244 34.1795 75.9337 34.1795H78.865Z" fill="#263238"/>
<path d="M78.865 34.1784H75.9337C75.6244 34.1784 75.3736 33.9276 75.3736 33.618C75.3736 33.4449 75.4567 33.2856 75.5908 33.1758C75.8524 32.9616 76.0189 32.6355 76.0189 32.2716C76.0189 31.6248 75.4957 31.1019 74.8504 31.1019C74.2051 31.1019 73.6819 31.6251 73.6819 32.2716C73.6819 32.6355 73.8484 32.9613 74.11 33.1758C74.2438 33.2856 74.3272 33.4449 74.3272 33.618C74.3272 33.9273 74.0764 34.1784 73.7671 34.1784H70.8358V31.2471C70.8358 30.9378 70.585 30.687 70.2757 30.687C70.1026 30.687 69.943 30.7701 69.8335 30.9042C69.6193 31.1658 69.2932 31.3323 68.9293 31.3323C68.2828 31.3323 67.7596 30.8091 67.7596 30.1638C67.7596 29.5185 68.2828 28.9953 68.9293 28.9953C69.2932 28.9953 69.619 29.1618 69.8335 29.4234C69.9433 29.5572 70.1026 29.6406 70.2757 29.6406C70.585 29.6406 70.8358 29.3898 70.8358 29.0802V26.1489H73.7671C74.0764 26.1489 74.3272 26.3997 74.3272 26.7093C74.3272 26.8824 74.2441 27.042 74.11 27.1515C73.8484 27.3657 73.6819 27.6918 73.6819 28.0557C73.6819 28.7022 74.2051 29.2254 74.8504 29.2254C75.4957 29.2254 76.0189 28.7022 76.0189 28.0557C76.0189 27.6918 75.8524 27.3657 75.5908 27.1515C75.457 27.0417 75.3736 26.8824 75.3736 26.7093C75.3736 26.4 75.6244 26.1489 75.9337 26.1489H78.865V29.0802C78.865 29.3895 79.1158 29.6406 79.4251 29.6406C79.5982 29.6406 79.7578 29.5575 79.8673 29.4234C80.0815 29.1618 80.4076 28.9953 80.7715 28.9953C81.4183 28.9953 81.9412 29.5185 81.9412 30.1638C81.9412 30.8091 81.418 31.3323 80.7715 31.3323C80.4076 31.3323 80.0818 31.1658 79.8673 30.9042C79.7575 30.7704 79.5982 30.687 79.4251 30.687C79.1158 30.687 78.865 30.9378 78.865 31.2474V34.1784Z" fill="white"/>
<path d="M46.8307 48.3374H49.7617C50.071 48.3374 50.3218 48.5882 50.3218 48.8978C50.3218 49.0709 50.2387 49.2305 50.1046 49.34C49.843 49.5542 49.6765 49.8803 49.6765 50.2442C49.6765 50.8907 50.1997 51.4139 50.845 51.4139C51.4903 51.4139 52.0135 50.8907 52.0135 50.2442C52.0135 49.8803 51.847 49.5545 51.5854 49.34C51.4516 49.2302 51.3682 49.0709 51.3682 48.8978C51.3682 48.5885 51.619 48.3374 51.9286 48.3374H54.8596V51.2684C54.8596 51.5777 55.1104 51.8288 55.4197 51.8288C55.5928 51.8288 55.7524 51.7457 55.8619 51.6116C56.0761 51.35 56.4022 51.1835 56.7661 51.1835C57.4129 51.1835 57.9358 51.7067 57.9358 52.352C57.9358 52.9973 57.4126 53.5205 56.7661 53.5205C56.4022 53.5205 56.0764 53.354 55.8619 53.0924C55.7521 52.9586 55.5928 52.8752 55.4197 52.8752C55.1104 52.8752 54.8596 53.126 54.8596 53.4353V56.3663H51.9286C51.6193 56.3663 51.3682 56.1155 51.3682 55.8062C51.3682 55.6331 51.4513 55.4735 51.5854 55.364C51.847 55.1498 52.0135 54.8237 52.0135 54.4598C52.0135 53.813 51.4903 53.2901 50.845 53.2901C50.1997 53.2901 49.6765 53.8133 49.6765 54.4598C49.6765 54.8237 49.843 55.1495 50.1046 55.364C50.2384 55.4738 50.3218 55.6331 50.3218 55.8062C50.3218 56.1155 50.071 56.3663 49.7617 56.3663H46.8307V53.4353C46.8307 53.126 46.5799 52.8752 46.2706 52.8752C46.0975 52.8752 45.9379 52.9583 45.8284 53.0924C45.6142 53.354 45.2881 53.5205 44.9242 53.5205C44.2774 53.5205 43.7545 52.9973 43.7545 52.352C43.7545 51.7067 44.2777 51.1835 44.9242 51.1835C45.2881 51.1835 45.6139 51.35 45.8284 51.6116C45.9382 51.7454 46.0975 51.8288 46.2706 51.8288C46.5799 51.8288 46.8307 51.578 46.8307 51.2684V48.3374Z" fill="white"/>
<path d="M11.0133 136.054L27.0099 135.981L43.0065 135.955L75 135.904L106.994 135.954L122.99 135.98L138.987 136.054L122.99 136.127L106.994 136.154L75 136.204L43.0065 136.154L27.0099 136.127L11.0133 136.054Z" fill="#263238"/>
<path d="M68.4147 35.7701C71.3904 41.3189 68.7522 44.5592 69.1539 46.3124C69.3753 47.2586 70.2966 49.4141 70.2966 49.4141L64.9365 53.1503C64.9365 53.1503 63.2367 51.5378 62.4219 51.005C60.9195 50.0192 56.9628 51.3755 52.7904 46.661C50.0463 43.565 48.8706 36.476 54.543 32.522C60.2151 28.5683 66.4557 32.1266 68.4147 35.7701Z" fill="#FFC727"/>
<path d="M59.0868 45.0522L58.9363 45.2051L66.4704 52.6228L66.6209 52.47L59.0868 45.0522Z" fill="white"/>
<path d="M64.9297 41.0309L64.7341 41.1191L69.0838 50.7563L69.2793 50.6681L64.9297 41.0309Z" fill="white"/>
<path d="M63.8778 45.9156C63.3102 46.311 62.4651 46.0023 62.0118 45.7833C61.9797 45.7677 61.9473 45.7515 61.9152 45.7353C61.8882 46.0158 61.7937 46.2216 61.6386 46.3296C60.855 46.8759 59.3973 45.4614 59.3355 45.4008L59.4105 45.3243C59.4249 45.3384 60.8661 46.737 61.5771 46.2417C61.7142 46.1463 61.7943 45.9516 61.8123 45.681C61.2177 45.3567 60.6594 44.8875 60.3522 44.4465C60.0351 43.9914 60.0219 43.6281 60.3153 43.4238C60.5004 43.2948 60.7035 43.2762 60.903 43.3698C61.4277 43.6158 61.8495 44.5959 61.9143 45.3567C61.9221 45.4494 61.9248 45.5373 61.9224 45.6198C62.6178 45.9849 63.3615 46.1451 63.8163 45.828C64.158 45.5898 64.3143 45.0849 64.2564 44.4066C64.251 44.3433 64.2438 44.2794 64.2351 44.2149C63.6834 44.0973 63.1137 43.6632 62.7426 43.1304C62.3379 42.5499 62.3013 42.0399 62.6466 41.799C62.7801 41.706 62.9367 41.6973 63.1002 41.7738C63.6216 42.0183 64.1727 43.0956 64.3314 44.1288C64.5879 44.1699 64.8414 44.1309 65.0673 43.9734C65.6775 43.548 65.0031 41.6031 64.9962 41.5833L65.0973 41.5479C65.1264 41.631 65.805 43.5897 65.1285 44.0613C64.8954 44.2239 64.6248 44.2719 64.3461 44.2341C64.353 44.2887 64.3587 44.3433 64.3635 44.3973C64.407 44.9052 64.3581 45.5808 63.8778 45.9156ZM62.7081 41.8863C62.3601 42.129 62.5434 42.6561 62.8308 43.0683C63.1332 43.5024 63.6744 43.9704 64.2189 44.1048C64.0575 43.1271 63.5331 42.0942 63.0546 41.8701C62.9244 41.8092 62.811 41.8146 62.7081 41.8863ZM60.3768 43.5114C60.0576 43.734 60.2796 44.1543 60.4404 44.385C60.7335 44.8056 61.2534 45.2475 61.8162 45.5619C61.8162 45.4998 61.8132 45.4341 61.8075 45.3654C61.7466 44.6493 61.3413 43.6932 60.8574 43.4664C60.6924 43.389 60.5307 43.404 60.3768 43.5114Z" fill="white"/>
<path d="M70.7651 48.7498L64.1514 53.3594L65.0523 54.652L71.666 50.0424L70.7651 48.7498Z" fill="#DBDBDB"/>
<path d="M71.8119 50.2522L65.1981 54.8618L66.0989 56.1542L72.7126 51.5446L71.8119 50.2522Z" fill="#DBDBDB"/>
<path d="M72.8585 51.7537L66.2448 56.3633L67.1455 57.6557L73.7592 53.046L72.8585 51.7537Z" fill="#DBDBDB"/>
<path d="M52.9494 44.1117C51.2283 41.4093 51.0834 37.2264 53.6952 35.0322C51.906 37.7517 52.1382 41.0937 52.9494 44.1117Z" fill="white"/>
<path d="M82.6044 50.2271C82.722 49.7369 82.7418 49.2416 82.6698 48.7583L83.5779 48.3722L83.1558 47.1239L82.1829 47.3711C81.9363 46.9475 81.6045 46.568 81.198 46.2596L81.5583 45.3704L80.3775 44.7857L79.8879 45.6143C79.3818 45.4718 78.8622 45.443 78.3576 45.5063L78.0051 44.6792L76.7601 45.0989L76.9821 45.9722C76.5234 46.2278 76.1184 46.5812 75.789 47.0159L75.006 46.7018L74.4243 47.8805L75.1563 48.317C75.015 48.8543 74.991 49.4 75.0765 49.9274L74.3151 50.2526L74.7348 51.4976L75.5733 51.2846C75.8406 51.7421 76.206 52.1405 76.656 52.4606L76.3353 53.2511L77.5161 53.8358L77.979 53.057C78.4965 53.1785 79.0242 53.1917 79.5294 53.1029L79.8858 53.942L81.1335 53.5226L80.8953 52.5848C81.3153 52.3235 81.6912 51.9773 81.9897 51.5609L82.8876 51.9194L83.4687 50.7434L82.6044 50.2271ZM78.5664 51.9725C77.0982 51.7637 76.0758 50.4017 76.2846 48.9338C76.494 47.4629 77.8557 46.4405 79.3239 46.6493C80.7948 46.8587 81.8172 48.2204 81.6081 49.6913C81.399 51.1595 80.0373 52.1819 78.5664 51.9725Z" fill="#DBDBDB"/>
<path d="M80.649 50.8173L80.1528 51.1932L79.2336 49.9797L78.8973 49.5357C78.9645 49.5096 79.0296 49.473 79.0902 49.4265C79.2069 49.3377 79.2921 49.2225 79.3449 49.0962L79.7022 49.5669L80.649 50.8173Z" fill="#DBDBDB"/>
<path d="M79.6725 47.9593C79.2174 47.3659 78.3669 47.2537 77.7735 47.7088C77.1801 48.1639 77.0679 49.0144 77.523 49.6078C77.9319 50.1415 78.6597 50.2855 79.2336 49.9792C79.2987 49.9441 79.3614 49.9045 79.4211 49.858C79.5318 49.7728 79.626 49.6741 79.7022 49.5667C80.037 49.0954 80.0424 48.4429 79.6725 47.9593ZM79.0902 49.4263C79.0296 49.4725 78.9645 49.5091 78.8973 49.5355C78.5685 49.6669 78.1806 49.5715 77.955 49.2769C77.6829 48.922 77.7495 48.4129 78.1044 48.1411C78.4593 47.869 78.9675 47.9362 79.2402 48.2914C79.4226 48.5299 79.4523 48.8377 79.3449 49.0963C79.2921 49.2223 79.2069 49.3375 79.0902 49.4263Z" fill="#DBDBDB"/>
<path d="M60.2274 58.6181C60.4428 58.3409 60.5976 58.0319 60.6906 57.7043L61.3779 57.7199L61.4682 56.8064L60.7797 56.6843C60.7446 56.3447 60.6432 56.0084 60.4734 55.6961L60.9573 55.235L60.3753 54.5249L59.8269 54.9104C59.5464 54.6746 59.2248 54.5072 58.8864 54.4028L58.9002 53.7764L57.9894 53.6855L57.8796 54.3038C57.5151 54.3344 57.1563 54.4427 56.8227 54.6239L56.4159 54.1997L55.7085 54.7811L56.0478 55.2683C55.8039 55.5689 55.632 55.9082 55.5348 56.2676L54.9582 56.2556L54.8673 57.1664L55.4607 57.2717C55.4991 57.6389 55.6167 57.9965 55.8105 58.3289L55.38 58.7387L55.962 59.4488L56.4792 59.0873C56.7729 59.3129 57.1041 59.4728 57.4503 59.5616L57.4359 60.1964L58.3485 60.2882L58.4664 59.6246C58.8081 59.5793 59.1459 59.4674 59.4552 59.2886L59.9223 59.774L60.6288 59.1944L60.2274 58.6181ZM57.1632 58.5671C56.2911 58.013 56.0328 56.8553 56.5869 55.9832C57.1419 55.1096 58.2999 54.8513 59.172 55.4051C60.0456 55.9601 60.3039 57.1181 59.7489 57.9917C59.1948 58.8638 58.0368 59.1221 57.1632 58.5671Z" fill="#DBDBDB"/>
<path d="M73.8909 62.7462C74.2182 62.6193 74.5098 62.4339 74.7582 62.2011L75.3396 62.568L75.8871 61.8312L75.3597 61.3722C75.5046 61.0629 75.5904 60.7224 75.6057 60.3672L76.2579 60.2208L76.1244 59.3124L75.4557 59.3607C75.3366 59.0142 75.147 58.7052 74.9106 58.4412L75.2445 57.9114L74.5104 57.3648L74.0982 57.8385C73.7697 57.6771 73.4067 57.5853 73.0272 57.5691L72.8964 56.9961L71.9907 57.1305L72.0312 57.7227C71.6673 57.855 71.3454 58.0575 71.0772 58.3158L70.5888 58.0086L70.0422 58.7427L70.4967 59.1384C70.3407 59.4729 70.2576 59.8404 70.2525 60.225L69.6726 60.3549L69.8061 61.2633L70.4358 61.2195C70.5714 61.5642 70.7733 61.8714 71.0244 62.1258L70.6851 62.6628L71.4201 63.2112L71.8626 62.703C72.1788 62.8401 72.5262 62.9178 72.8832 62.9238L73.0338 63.5802L73.9377 63.4467L73.8909 62.7462ZM71.2896 61.1256C70.827 60.2019 71.2014 59.076 72.1251 58.6134C73.0506 58.1499 74.1765 58.5243 74.6391 59.448C75.1026 60.3735 74.7282 61.4991 73.8027 61.9626C72.879 62.4255 71.7531 62.0511 71.2896 61.1256Z" fill="#FFC727"/>
<path d="M68.5224 62.0884C68.475 61.5865 68.3331 61.1113 68.1084 60.6775L68.8425 60.0181L68.0388 58.9738L67.1985 59.5228C66.828 59.2018 66.3912 58.9504 65.9067 58.7902L65.9595 57.8323L64.6527 57.6616L64.458 58.6039C63.933 58.633 63.432 58.774 62.9751 58.9975L62.3736 58.3291L61.3317 59.1295L61.8246 59.884C61.4736 60.2746 61.2048 60.7402 61.0341 61.258L60.1914 61.2145L60.0228 62.518L60.8565 62.6938C60.897 63.2479 61.0509 63.772 61.3026 64.2433L60.6876 64.7977L61.488 65.8396L62.2122 65.3665C62.6133 65.7127 63.0882 65.9713 63.6174 66.1285L63.57 66.9805L64.8768 67.1512L65.0622 66.2644C65.5914 66.2116 66.0945 66.0532 66.5439 65.8057L67.1529 66.484L68.1975 65.683L67.6683 64.873C67.9812 64.4899 68.2245 64.0405 68.3721 63.5497L69.3375 63.5983L69.5064 62.2975L68.5224 62.0884ZM65.2674 65.0476C63.8109 65.3254 62.4024 64.3684 62.1243 62.9116C61.8459 61.4521 62.8029 60.0436 64.2597 59.7658C65.7192 59.4874 67.1277 60.4444 67.4061 61.9039C67.6839 63.3607 66.7269 64.7692 65.2674 65.0476Z" fill="#37474F"/>
<g opacity="0.6">
<path d="M66.0456 61.5371C66.0456 61.847 65.7945 62.0981 65.4846 62.0981C65.1747 62.0981 64.9236 61.847 64.9236 61.5371C64.9236 61.2272 65.1747 60.9761 65.4846 60.9761C65.7945 60.9761 66.0456 61.2272 66.0456 61.5371Z" fill="#455A64"/>
<path d="M66.4543 63.0836V63.2888H64.5135V63.0836C64.5135 62.5502 64.9485 62.1152 65.4858 62.1152C66.0192 62.1155 66.4543 62.5502 66.4543 63.0836Z" fill="#455A64"/>
</g>
<path d="M64.6083 61.8755C64.6083 62.1854 64.3569 62.4365 64.0473 62.4365C63.7374 62.4365 63.4863 62.1854 63.4863 61.8755C63.4863 61.5656 63.7374 61.3145 64.0473 61.3145C64.3572 61.3142 64.6083 61.5656 64.6083 61.8755Z" fill="#37474F"/>
<path d="M65.0169 63.422V63.6272H63.0762V63.422C63.0762 62.8886 63.5112 62.4536 64.0485 62.4536C64.5819 62.4536 65.0169 62.8886 65.0169 63.422Z" fill="#37474F"/>
<path d="M94.6761 41.2577L94.8228 40.136L93.5085 39.8303C93.5178 39.2069 93.432 38.5985 93.267 38.024L94.4466 37.3883L94.0125 36.3431L92.7228 36.7373C92.4264 36.2024 92.0505 35.7164 91.6071 35.2946L92.3163 34.1516L91.4178 33.464L90.4947 34.448C89.9814 34.1363 89.4159 33.9041 88.8108 33.7574L88.8504 32.4128L87.7287 32.2661L87.423 33.5804C86.7996 33.5711 86.1912 33.6569 85.6167 33.8249L84.981 32.642L83.9358 33.0761L84.327 34.3658C83.7951 34.6622 83.3094 35.0411 82.8876 35.4815L81.7446 34.7756L81.054 35.6741L82.0413 36.5909C81.7296 37.1105 81.4941 37.6727 81.3507 38.2778L80.0058 38.2412L79.8591 39.3599L81.1734 39.6686C81.1641 40.292 81.2499 40.8971 81.4179 41.4749L80.232 42.1106L80.6691 43.1558L81.9588 42.7646C82.2552 43.2965 82.6341 43.7825 83.0712 44.204L82.3683 45.344L83.2668 46.0346L84.1836 45.0506C84.6969 45.3593 85.2654 45.5945 85.8738 45.7412L85.8342 47.0828L86.9529 47.2295L87.2616 45.9185C87.885 45.9245 88.4901 45.839 89.0679 45.671L89.7036 46.8539L90.7488 46.4198L90.3546 45.1301C90.8895 44.8337 91.3755 44.4578 91.7973 44.0147L92.9403 44.7236L93.6249 43.8251L92.6439 42.9053C92.9496 42.3917 93.1848 41.8235 93.3345 41.2181L94.6761 41.2577ZM87.3411 43.727C85.1436 43.727 83.3619 41.9453 83.3619 39.7478C83.3619 37.5503 85.1436 35.7686 87.3411 35.7686C89.5386 35.7686 91.3203 37.5503 91.3203 39.7478C91.3203 41.9453 89.5383 43.727 87.3411 43.727Z" fill="#FFC727"/>
<path d="M88.1555 37.6236C88.1555 38.0736 87.7907 38.4381 87.341 38.4381C86.891 38.4381 86.5266 38.0733 86.5266 37.6236C86.5266 37.1736 86.8913 36.8091 87.341 36.8091C87.7907 36.8088 88.1555 37.1736 88.1555 37.6236Z" fill="#FFC727"/>
<path d="M88.2042 38.3135H86.4777V38.5625H88.2042V38.3135Z" fill="#FFC727"/>
<path opacity="0.1" d="M88.2042 38.3135H86.4777V38.5625H88.2042V38.3135Z" fill="black"/>
<path d="M89.0897 41.7407H85.5923V41.9897H89.0897V41.7407Z" fill="#FFC727"/>
<path opacity="0.1" d="M89.0897 41.7407H85.5923V41.9897H89.0897V41.7407Z" fill="black"/>
<path d="M89.0897 42.4385H85.5923V42.6875H89.0897V42.4385Z" fill="#FFC727"/>
<path opacity="0.1" d="M89.0897 42.4385H85.5923V42.6875H89.0897V42.4385Z" fill="black"/>
<path d="M88.9595 41.9893H85.7225V42.4384H88.9595V41.9893Z" fill="#FFC727"/>
<path d="M88.0451 38.5625H86.6366V38.8115H88.0451V38.5625Z" fill="#FFC727"/>
<path d="M88.7714 41.7407H85.91C85.91 41.7407 86.5625 41.0882 86.699 40.3067C86.8127 39.6476 86.8685 38.8115 86.8685 38.8115H87.8129C87.8129 38.8115 87.8687 39.6476 87.9833 40.3067C88.1189 41.0882 88.7714 41.7407 88.7714 41.7407Z" fill="#FFC727"/>
</svg>
