<svg id="Capa_1" enable-background="new 0 0 512 512" height="512" viewBox="0 0 512 512" width="512" xmlns="http://www.w3.org/2000/svg"><path d="m512 256c0 57.114-18.704 109.871-50.333 152.461-6.719 9.059-14.033 17.659-21.87 25.736-19.09 19.686-41.305 36.31-65.849 49.068-35.297 18.359-75.41 28.735-117.948 28.735-42.548 0-82.662-10.376-117.969-28.745-36.77-19.122-68.305-46.905-91.92-80.645-29.058-41.525-46.111-92.087-46.111-146.61 0-141.385 114.615-256 256-256s256 114.615 256 256z" fill="#5c5560"/><path d="m461.667 408.461c-6.719 9.059-14.033 17.659-21.87 25.736-19.09 19.686-41.305 36.31-65.849 49.068h-5.695c-18.735 0-35.412-11.818-41.608-29.477l-73.78-210.139-35.777-105.744 111.24-109.171z" fill="#00a159"/><path d="m461.667 408.461c-6.719 9.059-14.033 17.659-21.87 25.736l-186.932-190.548-57.981-131.657 133.444-83.257z" fill="#149459"/><path d="m328.328 28.735-75.463 214.915-73.801 210.129c-6.123 17.492-22.538 29.247-41.033 29.477-36.77-19.122-68.305-46.905-91.92-80.645l131.281-373.876z" fill="#498af1"/></svg>