<svg width="39" height="41" viewBox="0 0 39 41" fill="none" xmlns="http://www.w3.org/2000/svg">
<path d="M19.2164 2.3623C8.62031 2.3623 0 10.9826 0 21.5795C0 32.1741 8.62031 40.7944 19.2164 40.7944C29.8125 40.7944 38.4328 32.1741 38.4328 21.5795C38.4324 10.9826 29.8121 2.3623 19.2164 2.3623Z" fill="#DBDBDB"/>
<path d="M19.2164 2.74902C9.69793 2.74902 1.95422 10.4927 1.95422 20.0112C1.95422 29.5281 9.69793 37.2718 19.2164 37.2718C28.7349 37.2718 36.4786 29.5281 36.4786 20.0112C36.4782 10.4931 28.7345 2.74902 19.2164 2.74902Z" fill="white"/>
<path opacity="0.53" d="M33.907 23.5045C35.835 15.3395 30.7789 7.15749 22.6139 5.22951C14.4489 3.30152 6.26694 8.35761 4.33895 16.5226C2.41096 24.6876 7.46706 32.8696 15.6321 34.7976C23.797 36.7256 31.979 31.6695 33.907 23.5045Z" fill="#DBDBDB"/>
<path d="M19.2167 39.228C8.62056 39.228 0.000244141 30.6076 0.000244141 20.0131C0.000244141 9.4166 8.62056 0.795898 19.2167 0.795898C29.8128 0.795898 38.4331 9.41621 38.4331 20.0131C38.4327 30.6076 29.8124 39.228 19.2167 39.228ZM19.2167 2.75093C9.69819 2.75093 1.95449 10.4946 1.95449 20.0131C1.95449 29.53 9.69819 37.2737 19.2167 37.2737C28.7351 37.2737 36.4788 29.53 36.4788 20.0131C36.4784 10.495 28.7347 2.75093 19.2167 2.75093Z" fill="#0037B3"/>
<path d="M19.2164 35.5617C18.734 35.5617 18.3429 35.1706 18.3429 34.6882V32.433C18.3429 31.9507 18.734 31.5596 19.2164 31.5596C19.6988 31.5596 20.0898 31.9507 20.0898 32.433V34.6882C20.0898 35.1706 19.6988 35.5617 19.2164 35.5617Z" fill="#172835"/>
<path d="M34.2057 20.8831H31.8039C31.3215 20.8831 30.9304 20.492 30.9304 20.0096C30.9304 19.5272 31.3215 19.1357 31.8039 19.1357H34.2057C34.688 19.1357 35.0791 19.5268 35.0791 20.0092C35.0791 20.4916 34.688 20.8831 34.2057 20.8831Z" fill="#172835"/>
<path d="M6.94447 20.8831H4.54193C4.05954 20.8831 3.66846 20.492 3.66846 20.0096C3.66846 19.5272 4.05954 19.1357 4.54193 19.1357H6.94447C7.42686 19.1357 7.81795 19.5268 7.81795 20.0092C7.81795 20.4916 7.42686 20.8831 6.94447 20.8831Z" fill="#172835"/>
<path d="M18.9227 7.94303C18.4399 7.94303 18.0488 7.55156 18.0488 7.06917V5.28695C18.0488 4.80456 18.4399 4.41309 18.9227 4.41309C19.4051 4.41309 19.7966 4.80456 19.7966 5.28695V7.06917C19.7966 7.55156 19.4051 7.94303 18.9227 7.94303Z" fill="#172835"/>
<path d="M25.9999 21.2069C25.9596 21.5255 25.6684 21.7516 25.3494 21.7112L19.8198 21.0121C19.6321 20.9886 19.4448 21.0572 19.3174 21.1967L13.0228 28.0783C12.8057 28.3158 12.4374 28.3318 12.2003 28.1147C11.9636 27.8977 11.9471 27.5297 12.1639 27.293L18.8656 19.9674C18.9933 19.8283 19.1806 19.7593 19.368 19.7829L25.4956 20.5572C25.8146 20.5972 26.0403 20.8883 25.9999 21.2069Z" fill="#172835"/>
<path d="M17.6124 20.4529C17.7292 19.619 18.4996 19.0375 19.3343 19.1547C20.1686 19.2707 20.7505 20.0411 20.6341 20.875C20.5169 21.7104 19.7469 22.2927 18.9122 22.1756C18.0775 22.0592 17.4964 21.288 17.6124 20.4529Z" fill="#172835"/>
</svg>
