<svg width="101" height="72" viewBox="0 0 101 72" fill="none" xmlns="http://www.w3.org/2000/svg">
<rect x="0.382812" y="0.287598" width="100" height="71.4286" rx="5.71429" fill="#003D79"/>
<path fill-rule="evenodd" clip-rule="evenodd" d="M7.61366 38.1178C7.61366 36.8369 7.59111 35.7619 7.52344 34.8033H9.87111L9.98118 36.4501H10.047C10.5792 35.5799 11.5522 34.5508 13.3673 34.5508C14.7841 34.5508 15.8907 35.3758 16.3547 36.6099H16.4003C16.7772 35.9928 17.2184 35.5359 17.727 35.2146C18.3252 34.7807 19.0116 34.5508 19.897 34.5508C21.6893 34.5508 23.5031 35.808 23.5031 39.3751V45.9358H20.8475V39.7872C20.8475 37.9356 20.2288 36.8369 18.9237 36.8369C17.9925 36.8369 17.3057 37.524 17.0199 38.3245C16.9527 38.598 16.8864 38.9412 16.8864 39.259V45.9358H14.2299V39.489C14.2299 37.9356 13.6333 36.8369 12.3715 36.8369C11.3533 36.8369 10.668 37.6612 10.424 38.4368C10.3125 38.7129 10.2679 39.0321 10.2679 39.3515V45.9358H7.61366V38.1178Z" fill="white"/>
<path fill-rule="evenodd" clip-rule="evenodd" d="M33.8532 43.262C33.8532 44.2674 33.8975 45.2487 34.0082 45.9365H31.5507L31.3743 44.7024H31.3071C30.6435 45.5719 29.5148 46.1881 28.1205 46.1881C25.9511 46.1881 24.7344 44.5663 24.7344 42.8736C24.7344 40.0608 27.1459 38.6447 31.13 38.6673V38.4837C31.13 37.7519 30.842 36.541 28.9389 36.541C27.876 36.541 26.769 36.8842 26.039 37.3635L25.5072 35.5361C26.3054 35.0322 27.701 34.5515 29.4038 34.5515C32.8578 34.5515 33.8532 36.8162 33.8532 39.2383V43.262ZM31.197 40.4961C29.2718 40.45 27.4353 40.8843 27.4353 42.5762C27.4353 43.6724 28.1212 44.1764 28.9847 44.1764C30.0678 44.1764 30.8659 43.4446 31.1086 42.6447C31.1744 42.439 31.197 42.2095 31.197 42.0273V40.4961Z" fill="white"/>
<path fill-rule="evenodd" clip-rule="evenodd" d="M35.7334 38.1178C35.7334 36.8369 35.709 35.7619 35.6445 34.8033H38.0328L38.1663 36.472H38.2317C38.6971 35.6044 39.87 34.5508 41.6624 34.5508C43.5442 34.5508 45.4917 35.808 45.4917 39.3294V45.9358H42.7699V39.6502C42.7699 38.0489 42.1945 36.8369 40.7114 36.8369C39.6269 36.8369 38.8746 37.6372 38.5861 38.4834C38.499 38.7355 38.476 39.0792 38.476 39.397V45.9358H35.7334V38.1178Z" fill="white"/>
<path fill-rule="evenodd" clip-rule="evenodd" d="M57.2917 30.3303V42.8034C57.2917 43.9462 57.3353 45.1829 57.3797 45.9364H54.945L54.836 44.1764H54.7909C54.1487 45.4115 52.8409 46.188 51.2712 46.188C48.705 46.188 46.6681 43.9252 46.6681 40.4961C46.6456 36.7694 48.903 34.5514 51.4923 34.5514C52.9747 34.5514 54.038 35.1923 54.5241 36.016H54.569V30.3303H57.2917ZM54.5706 39.443C54.5706 39.2167 54.5478 38.9411 54.5052 38.7132C54.2613 37.6159 53.3976 36.7237 52.1582 36.7237C50.4098 36.7237 49.4358 38.3248 49.4358 40.4052C49.4358 42.4392 50.4098 43.9254 52.1361 43.9254C53.2422 43.9254 54.2167 43.1484 54.4819 41.9371C54.5478 41.6845 54.5706 41.4105 54.5706 41.1123V39.443Z" fill="white"/>
<path fill-rule="evenodd" clip-rule="evenodd" d="M59.2148 45.9357H61.962V34.804H59.2148V45.9357Z" fill="white"/>
<path fill-rule="evenodd" clip-rule="evenodd" d="M63.886 38.3922C63.886 36.8841 63.863 35.8082 63.7969 34.8033H66.1655L66.2521 36.9286H66.3439C66.8742 35.3513 68.136 34.8033 69.2864 34.8033C69.5515 34.8033 69.7062 34.7565 69.9282 34.8033V37.273C69.7062 37.2273 69.4633 37.1816 69.1312 37.1816C67.8257 37.1816 66.9397 38.0495 66.6965 39.306C66.6534 39.5577 66.6088 39.8561 66.6088 40.1776V45.9364H63.886V38.3922Z" fill="white"/>
<path fill-rule="evenodd" clip-rule="evenodd" d="M71.1914 45.9357H73.9345V34.804H71.1914V45.9357Z" fill="white"/>
<path fill-rule="evenodd" clip-rule="evenodd" d="M70.5429 21.3442C68.8951 22.3298 65.0087 24.6322 63.5578 25.4896V25.4896C62.6736 25.9549 60.6257 26.158 59.4674 24.5448V24.5448C59.4467 24.5157 57.9268 22.5541 57.8648 22.4803V22.4803C57.8213 22.4281 56.8387 20.9228 54.6494 20.8757V20.8757C54.3259 20.8678 52.7177 20.8589 51.1484 21.7802V21.7802C49.0626 23.011 44.2117 25.8756 44.2117 25.8756V25.8756C44.2103 25.8756 44.2103 25.8782 44.2078 25.8782V25.8782C42.2138 27.0567 40.6602 27.9742 40.6602 27.9742V27.9742L42.4958 30.3029C43.3545 31.4042 45.291 32.2563 46.9703 31.2605V31.2605C46.9703 31.2605 53.1753 27.549 53.1981 27.5382V27.5382C55.8817 26.018 57.9523 26.018 59.3267 26.5837V26.5837C60.5603 27.1221 61.6335 28.4637 61.6335 28.4637V28.4637C61.6335 28.4637 63.0361 30.2591 63.2835 30.5732V30.5732C64.0816 31.5878 65.4025 31.1892 65.4025 31.1892V31.1892C65.4025 31.1892 65.892 31.1319 66.6298 30.6794V30.6794C66.6298 30.6794 72.6402 27.0797 72.644 27.0786V27.0786C74.5525 25.922 76.3029 25.706 77.1975 25.7911V25.7911C79.9994 26.0541 80.8699 28.076 82.0847 29.4865V29.4865C82.8002 30.3162 83.4458 30.7873 84.4331 30.7635V30.7635C85.0818 30.7493 85.8147 30.343 85.9227 30.2696V30.2696L93.12 25.9793C93.12 25.9793 92.3815 24.8305 90.8691 23.043V23.043C89.5155 21.4481 88.0778 22.1697 86.9314 22.7561V22.7561C86.4499 23.0022 84.7049 24.2011 82.9762 25.0376V25.0376C81.7444 25.6333 79.975 25.4542 79.0053 24.2165V24.2165C78.9474 24.1413 77.3786 22.1795 77.2137 21.9381V21.9381C76.5805 21.1189 75.3451 20.3853 73.7619 20.3853V20.3853C72.7992 20.3853 71.7068 20.6565 70.5429 21.3442" fill="url(#paint0_linear_3232_6558)"/>
<defs>
<linearGradient id="paint0_linear_3232_6558" x1="40.6602" y1="31.7015" x2="93.12" y2="31.7015" gradientUnits="userSpaceOnUse">
<stop stop-color="#FFCA06"/>
<stop offset="0.330844" stop-color="#FBAA18"/>
<stop offset="0.694742" stop-color="#FFC907"/>
<stop offset="1" stop-color="#FAA619"/>
</linearGradient>
</defs>
</svg>
