<svg width="12" height="13" viewBox="0 0 12 13" fill="none" xmlns="http://www.w3.org/2000/svg">
<path d="M12 6.00195C12 9.31566 9.31371 12.002 6 12.002C2.68629 12.002 0 9.31566 0 6.00195C0 2.68824 2.68629 0.00195312 6 0.00195312C9.31371 0.00195312 12 2.68824 12 6.00195ZM9.02274 3.72921C8.80307 3.50954 8.44692 3.50954 8.22725 3.72921C8.22194 3.73451 8.21696 3.74013 8.21233 3.74603L5.60805 7.06451L4.03791 5.49437C3.81824 5.2747 3.46208 5.2747 3.24241 5.49437C3.02274 5.71404 3.02274 6.0702 3.24241 6.28987L5.22725 8.2747C5.44692 8.49437 5.80307 8.49437 6.02274 8.2747C6.02763 8.26981 6.03225 8.26465 6.03657 8.25925L9.03073 4.51656C9.24238 4.29632 9.23972 3.94618 9.02274 3.72921Z" fill="#12B76A"/>
</svg>
