<svg width="61" height="42" viewBox="0 0 61 42" fill="none" xmlns="http://www.w3.org/2000/svg">
<path d="M2 35.6995L11.6516 26.835L21.3033 30.1078L30.9549 23.4843H40.6065L50.2582 12.8175L59.9098 9.54883V40.0004H2V35.6995Z" fill="url(#paint0_linear_651_4071)"/>
<path d="M2 35.6995L11.6516 26.835L21.3033 30.1078L30.9549 23.4843H40.6065L50.2582 12.8175L59.9098 9.54883" stroke="url(#paint1_linear_651_4071)" stroke-width="1.03226" stroke-miterlimit="10" stroke-linecap="round" stroke-linejoin="round"/>
<path d="M2 0V40H59.9098" stroke="url(#paint2_linear_651_4071)" stroke-width="2.06452" stroke-miterlimit="10"/>
<path d="M13.1876 22.4893L11.8916 21.1928C11.7466 21.0477 11.4895 21.0477 11.344 21.1928L10.048 22.4893C9.89676 22.6405 9.89676 22.8857 10.048 23.0369C10.1992 23.1886 10.4444 23.1876 10.5956 23.0369L11.2304 22.4015V24.3881C11.2304 24.6018 11.4039 24.7752 11.6175 24.7752C11.8312 24.7752 12.0046 24.6018 12.0046 24.3881V22.4015L12.6395 23.0369C12.7148 23.1128 12.8139 23.1504 12.913 23.1504C13.0116 23.1504 13.1112 23.1128 13.1866 23.0369C13.3388 22.8857 13.3388 22.6405 13.1876 22.4893Z" fill="url(#paint3_linear_651_4071)"/>
<path d="M56.8409 5.02638L55.5449 3.72987C55.3999 3.58484 55.1429 3.58484 54.9973 3.72987L53.7013 5.02638C53.5501 5.17761 53.5501 5.42277 53.7013 5.574C53.8525 5.72574 54.0977 5.72471 54.2489 5.574L54.8843 4.93863V6.92521C54.8843 7.13889 55.0577 7.31231 55.2714 7.31231C55.4851 7.31231 55.6585 7.13889 55.6585 6.92521V4.93863L56.2933 5.574C56.3687 5.64935 56.4678 5.68754 56.5669 5.68754C56.6654 5.68754 56.7651 5.64987 56.8404 5.574C56.9922 5.42277 56.9922 5.17761 56.8409 5.02638Z" fill="url(#paint4_linear_651_4071)"/>
<path d="M19.4736 26.1917L20.7696 27.4882C20.9147 27.6332 21.1717 27.6332 21.3173 27.4882L22.6133 26.1917C22.7645 26.0404 22.7645 25.7953 22.6133 25.6441C22.462 25.4923 22.2169 25.4933 22.0656 25.6441L21.4308 26.2799V24.2933C21.4308 24.0797 21.2574 23.9062 21.0437 23.9062C20.83 23.9062 20.6566 24.0797 20.6566 24.2933V26.2799L20.0218 25.6441C19.9464 25.5687 19.8473 25.5305 19.7482 25.5305C19.6496 25.5305 19.55 25.5682 19.4747 25.6441C19.3224 25.7953 19.3224 26.0404 19.4736 26.1917Z" fill="url(#paint5_linear_651_4071)"/>
<path d="M37.5701 20.1378L38.8666 18.8418C39.0117 18.6968 39.0117 18.4397 38.8666 18.2942L37.5701 16.9982C37.4189 16.847 37.1737 16.847 37.0225 16.9982C36.8708 17.1494 36.8718 17.3946 37.0225 17.5458L37.6579 18.1806H35.6713C35.4576 18.1806 35.2842 18.3541 35.2842 18.5677C35.2842 18.7814 35.4576 18.9548 35.6713 18.9548H37.6579L37.0225 19.5897C36.9472 19.665 36.909 19.7641 36.909 19.8632C36.909 19.9618 36.9466 20.0614 37.0225 20.1368C37.1737 20.289 37.4189 20.289 37.5701 20.1378Z" fill="url(#paint6_linear_651_4071)"/>
<defs>
<linearGradient id="paint0_linear_651_4071" x1="29.4277" y1="20.0284" x2="35.0189" y2="37.4049" gradientUnits="userSpaceOnUse">
<stop stop-color="#FF4D87" stop-opacity="0.2"/>
<stop offset="1" stop-color="#FF4D87" stop-opacity="0"/>
</linearGradient>
<linearGradient id="paint1_linear_651_4071" x1="31.1506" y1="35.7822" x2="30.7592" y2="9.46604" gradientUnits="userSpaceOnUse">
<stop stop-color="#FF4D87"/>
<stop offset="1" stop-color="#DB2561"/>
</linearGradient>
<linearGradient id="paint2_linear_651_4071" x1="-6.51955" y1="8.89652" x2="48.1993" y2="54.947" gradientUnits="userSpaceOnUse">
<stop offset="0.0054" stop-color="#74859E"/>
<stop offset="1" stop-color="#3F4E63"/>
</linearGradient>
<linearGradient id="paint3_linear_651_4071" x1="11.6179" y1="24.6779" x2="11.6179" y2="21.5482" gradientUnits="userSpaceOnUse">
<stop stop-color="#FFD52E"/>
<stop offset="1" stop-color="#FF9000"/>
</linearGradient>
<linearGradient id="paint4_linear_651_4071" x1="55.2712" y1="7.21497" x2="55.2712" y2="4.08527" gradientUnits="userSpaceOnUse">
<stop stop-color="#FFD52E"/>
<stop offset="1" stop-color="#FF9000"/>
</linearGradient>
<linearGradient id="paint5_linear_651_4071" x1="21.0434" y1="24.0031" x2="21.0434" y2="27.1328" gradientUnits="userSpaceOnUse">
<stop stop-color="#FF4D87"/>
<stop offset="1" stop-color="#DB2561"/>
</linearGradient>
<linearGradient id="paint6_linear_651_4071" x1="35.3816" y1="18.5685" x2="38.5113" y2="18.5685" gradientUnits="userSpaceOnUse">
<stop stop-color="#4DC3FF"/>
<stop offset="1" stop-color="#259EDB"/>
</linearGradient>
</defs>
</svg>
