<svg width="80" height="80" viewBox="0 0 80 80" fill="none" xmlns="http://www.w3.org/2000/svg">
<rect width="80" height="79.9989" rx="39.9995" fill="#FFCB57"/>
<path d="M71.9165 72.4531H7.43939C3.33178 72.4531 0 75.7857 0 79.8924H79.3561C79.3561 75.7857 76.0232 72.4531 71.9165 72.4531Z" fill="#DB4743"/>
<path d="M31.925 45.6094H13.4463V66.5197H31.925V45.6094Z" fill="#DB4743"/>
<path d="M67.4242 47.5547H33.5312V66.5197H67.4242V47.5547Z" fill="#DB4743"/>
<path d="M22.8691 63.6051C24.1456 63.6051 25.1774 62.5728 25.1774 61.2967C25.1774 60.0209 24.1456 58.9883 22.8691 58.9883C21.5937 58.9883 20.5605 60.0209 20.5605 61.2967C20.5605 62.5728 21.5936 63.6051 22.8691 63.6051Z" fill="#FEFEF6"/>
<path d="M69.4359 42.6953H9.91895V69.9742H69.4359V42.6953ZM29.7586 65.0147H14.8793V47.6551H29.7586V65.0147ZM64.4764 65.0147H34.717V47.6551H64.4764V65.0147Z" fill="#E8E8E8"/>
<path d="M21.425 23.0625H58.4975L69.4359 39.7746V50.5349H9.91895L11.2572 38.3158L21.425 23.0625Z" fill="#FEFEF6"/>
<path d="M21.4257 23.0625L7.24072 38.9504V50.5349H14.3339V38.9504L23.6958 23.0625H21.4257Z" fill="#DB4743"/>
<path d="M28.8019 23.0625L19.3442 38.9504V50.5349H25.7757V38.5717L30.5039 23.0625H28.8019Z" fill="#DB4743"/>
<path d="M35.2347 23.0625L30.5044 38.9504V50.5349H36.5584V39.3287V23.0625H35.2347Z" fill="#DB4743"/>
<path d="M42.4204 23.0625L43.1772 50.5349H48.2838V36.7985L44.5006 23.0625H42.4204Z" fill="#DB4743"/>
<path d="M49.9863 23.0625L54.1476 39.1395V50.5349H60.5783V39.1395L52.4457 23.0625H49.9863Z" fill="#DB4743"/>
<path d="M56.0386 23.0625L65.6854 39.1395V50.5349H72.1155V38.9504L58.498 23.0625H56.0386Z" fill="#DB4743"/>
<path d="M68.4187 50.1016H9.95166V51.5443H68.4187V50.1016Z" fill="#E8E8E8"/>
<path d="M72.8276 49.968C72.8276 50.5371 72.366 50.9984 71.7968 50.9984H7.5586C6.98954 50.9984 6.52832 50.5371 6.52832 49.968C6.52832 49.3988 6.98954 48.9375 7.5586 48.9375H71.7968C72.366 48.9374 72.8276 49.3987 72.8276 49.968Z" fill="#DB4743"/>
</svg>
