<svg width="132" height="132" viewBox="0 0 132 132" fill="none" xmlns="http://www.w3.org/2000/svg">
<mask id="mask0_663_5268" style="mask-type:luminance" maskUnits="userSpaceOnUse" x="0" y="0" width="132" height="132">
<path d="M131.176 65.59C131.176 101.813 101.812 131.178 65.588 131.178C29.364 131.178 0 101.813 0 65.59C0 29.365 29.364 0 65.588 0C101.812 0 131.176 29.365 131.176 65.59Z" fill="white"/>
</mask>
<g mask="url(#mask0_663_5268)">
<path d="M54.5067 103.668C53.3927 100.663 50.1797 97.8619 50.1797 97.8619C50.1797 97.8619 43.2027 95.871 41.0357 94.193C39.9277 93.335 39.9497 90.389 40.2307 87.712C46.9077 85.266 51.7777 77.677 51.7777 68.686C51.7777 57.723 44.5387 48.8359 35.6157 48.8359C26.6947 48.8359 19.4617 57.723 19.4617 68.686C19.4617 77.788 24.4507 85.457 31.2557 87.795C31.5257 90.453 31.5367 93.344 30.4417 94.193C28.2787 95.871 21.2967 97.8619 21.2967 97.8619C21.2967 97.8619 18.0917 100.663 16.9697 103.668L16.0557 106.007L19.4907 111.206C19.4907 111.206 20.8177 133.715 24.1877 133.715C26.8987 133.715 33.1837 133.715 35.5497 133.715C36.1207 133.715 36.4667 133.715 36.4667 133.715C38.8187 133.715 45.1037 133.715 47.8177 133.715C51.1847 133.715 52.5247 111.206 52.5247 111.206L55.7047 107.596L54.5067 103.668Z" fill="#2B67C0"/>
</g>
<mask id="mask1_663_5268" style="mask-type:luminance" maskUnits="userSpaceOnUse" x="0" y="0" width="132" height="132">
<path d="M131.176 65.59C131.176 101.813 101.812 131.178 65.588 131.178C29.364 131.178 0 101.813 0 65.59C0 29.365 29.364 0 65.588 0C101.812 0 131.176 29.365 131.176 65.59Z" fill="white"/>
</mask>
<g mask="url(#mask1_663_5268)">
<path fill-rule="evenodd" clip-rule="evenodd" d="M95.7004 42.8501C90.2324 57.4351 71.8004 61.1421 61.2114 49.7721C60.7194 49.2491 60.2824 49.1311 59.6164 49.2651C57.3954 49.7071 55.1694 50.1411 52.9314 50.4681C52.2924 50.5631 50.7604 50.9601 50.5134 50.6381C50.0584 50.1321 50.6354 49.4851 51.3444 48.1221C51.4074 48.0101 51.4844 47.8951 51.5564 47.7781C52.9564 45.4661 54.3814 43.1651 55.7364 40.8271C55.9844 40.4091 56.1064 39.8081 56.0424 39.3291C55.5794 36.1311 55.7284 33.0081 56.6674 29.8951C59.7054 19.8451 69.9154 13.6521 80.2424 15.5731C93.6094 18.0711 99.5384 32.6251 95.7004 42.8501Z" fill="#2B67C0"/>
<path fill-rule="evenodd" clip-rule="evenodd" d="M97.2896 38.6717C92.0286 54.1687 72.7936 58.6678 61.2986 47.0788C60.7636 46.5438 60.3026 46.4338 59.6056 46.5968C57.2896 47.1358 54.9656 47.6618 52.6266 48.0808C51.9606 48.2018 50.3636 48.6697 50.0966 48.3377C49.5976 47.8227 50.1826 47.1238 50.8806 45.6698C50.9446 45.5478 51.0226 45.4248 51.0936 45.3028C52.4876 42.8268 53.9076 40.3647 55.2556 37.8637C55.5016 37.4157 55.6106 36.7817 55.5266 36.2807C54.9346 32.9387 54.9856 29.6528 55.8696 26.3518C58.7306 15.7008 69.2466 8.85773 80.1556 10.5357C94.2786 12.7197 100.983 27.8067 97.2896 38.6717Z" fill="white"/>
<path fill-rule="evenodd" clip-rule="evenodd" d="M69.4319 32.779C69.4319 34.542 68.0039 35.973 66.2409 35.973C64.4739 35.973 63.0479 34.541 63.0479 32.779C63.0479 31.014 64.4749 29.584 66.2409 29.584C68.0039 29.584 69.4319 31.015 69.4319 32.779Z" fill="#343433"/>
<path fill-rule="evenodd" clip-rule="evenodd" d="M91.0337 32.779C91.0337 34.542 89.6017 35.973 87.8367 35.973C86.0747 35.973 84.6396 34.541 84.6396 32.779C84.6396 31.014 86.0757 29.584 87.8367 29.584C89.6017 29.584 91.0337 31.015 91.0337 32.779Z" fill="#343433"/>
<path fill-rule="evenodd" clip-rule="evenodd" d="M80.382 32.779C80.382 34.542 78.953 35.973 77.188 35.973C75.426 35.973 73.998 34.541 73.998 32.779C73.998 31.014 75.427 29.584 77.188 29.584C78.953 29.584 80.382 31.015 80.382 32.779Z" fill="#343433"/>
</g>
<mask id="mask2_663_5268" style="mask-type:luminance" maskUnits="userSpaceOnUse" x="0" y="0" width="132" height="132">
<path d="M131.176 65.59C131.176 101.813 101.812 131.178 65.588 131.178C29.364 131.178 0 101.813 0 65.59C0 29.365 29.364 0 65.588 0C101.812 0 131.176 29.365 131.176 65.59Z" fill="white"/>
</mask>
<g mask="url(#mask2_663_5268)">
<path d="M51.001 101.974C49.846 98.8619 46.519 95.96 46.519 95.96C46.519 95.96 39.29 93.8989 37.047 92.1589C35.898 91.2699 35.921 88.218 36.214 85.444C43.129 82.91 48.177 75.0479 48.177 65.7339C48.177 54.3759 40.675 45.1699 31.432 45.1699C22.191 45.1699 14.695 54.3759 14.695 65.7339C14.695 75.1629 19.865 83.108 26.914 85.53C27.194 88.285 27.207 91.2789 26.07 92.1589C23.829 93.8979 16.598 95.96 16.598 95.96C16.598 95.96 13.278 98.8609 12.115 101.974L11.168 104.398L14.726 109.293C14.726 109.293 16.102 130.717 19.592 130.717C22.402 130.717 28.911 130.717 31.364 130.717C31.955 130.717 32.313 130.717 32.313 130.717C34.751 130.717 41.26 130.717 44.072 130.717C47.562 130.717 48.949 109.293 48.949 109.293L52.243 105.798L51.001 101.974Z" fill="white"/>
</g>
<mask id="mask3_663_5268" style="mask-type:luminance" maskUnits="userSpaceOnUse" x="0" y="0" width="132" height="132">
<path d="M131.176 65.59C131.176 101.813 101.812 131.178 65.588 131.178C29.364 131.178 0 101.813 0 65.59C0 29.365 29.364 0 65.588 0C101.812 0 131.176 29.365 131.176 65.59Z" fill="white"/>
</mask>
<g mask="url(#mask3_663_5268)">
<path d="M73.5711 87.926C73.0931 86.63 71.707 85.4229 71.707 85.4229C71.707 85.4229 68.7001 84.5659 67.7671 83.8419C67.2901 83.4739 67.3001 82.2019 67.4191 81.0479C70.2981 79.9949 72.3961 76.7249 72.3961 72.8499C72.3961 68.1229 69.2771 64.293 65.4321 64.293C61.5851 64.293 58.468 68.1219 58.468 72.8499C58.468 76.7709 60.6161 80.0779 63.5511 81.0859C63.6691 82.2299 63.6731 83.4749 63.1991 83.8419C62.2681 84.5659 59.259 85.4229 59.259 85.4229C59.259 85.4229 57.8761 86.63 57.3941 87.926L56.998 88.9349L58.4801 90.65C58.4801 90.65 59.0521 97.7159 60.5051 97.7159C61.6711 97.7159 64.38 97.7159 65.401 97.7159C65.646 97.7159 65.798 97.7159 65.798 97.7159C66.811 97.7159 69.518 97.7159 70.688 97.7159C72.141 97.7159 72.7171 90.65 72.7171 90.65L74.0891 89.3569L73.5711 87.926Z" fill="#006EFF"/>
<path d="M97.4723 87.926C96.9933 86.63 95.6073 85.4229 95.6073 85.4229C95.6073 85.4229 92.6013 84.5659 91.6663 83.8419C91.1893 83.4739 91.2014 82.2019 91.3214 81.0479C94.1984 79.9949 96.2993 76.7249 96.2993 72.8499C96.2993 68.1229 93.1773 64.293 89.3323 64.293C85.4873 64.293 82.3683 68.1219 82.3683 72.8499C82.3683 76.7709 84.5183 80.0779 87.4523 81.0859C87.5713 82.2299 87.5743 83.4749 87.1013 83.8419C86.1703 84.5659 83.1603 85.4229 83.1603 85.4229C83.1603 85.4229 81.7783 86.63 81.2953 87.926L80.9023 88.9349L82.3813 90.65C82.3813 90.65 82.9563 97.7159 84.4073 97.7159C85.5753 97.7159 88.2833 97.7159 89.3033 97.7159C89.5493 97.7159 89.6983 97.7159 89.6983 97.7159C90.7123 97.7159 93.4203 97.7159 94.5933 97.7159C96.0423 97.7159 96.6203 90.65 96.6203 90.65L97.9913 89.3569L97.4723 87.926Z" fill="#006EFF"/>
<path d="M121.77 87.926C121.29 86.63 119.906 85.4229 119.906 85.4229C119.906 85.4229 116.898 84.5659 115.965 83.8419C115.487 83.4739 115.497 82.2019 115.617 81.0479C118.497 79.9949 120.596 76.7249 120.596 72.8499C120.596 68.1229 117.475 64.293 113.629 64.293C109.783 64.293 106.666 68.1219 106.666 72.8499C106.666 76.7709 108.815 80.0779 111.749 81.0859C111.867 82.2299 111.871 83.4749 111.398 83.8419C110.465 84.5659 107.457 85.4229 107.457 85.4229C107.457 85.4229 106.074 86.63 105.592 87.926L105.196 88.9349L106.678 90.65C106.678 90.65 107.25 97.7159 108.703 97.7159C109.872 97.7159 112.58 97.7159 113.6 97.7159C113.844 97.7159 113.994 97.7159 113.994 97.7159C115.01 97.7159 117.717 97.7159 118.888 97.7159C120.338 97.7159 120.916 90.65 120.916 90.65L122.285 89.3569L121.77 87.926Z" fill="#006EFF"/>
<path d="M86.7468 98.7479C86.2198 97.3249 84.7008 95.9999 84.7008 95.9999C84.7008 95.9999 81.3968 95.0569 80.3718 94.2629C79.8478 93.8589 79.8588 92.4628 79.9908 91.1968C83.1528 90.0388 85.4568 86.4488 85.4568 82.1938C85.4568 77.0038 82.0298 72.7988 77.8088 72.7988C73.5868 72.7988 70.1608 77.0038 70.1608 82.1938C70.1608 86.5008 72.5228 90.1279 75.7448 91.2379C75.8728 92.4939 75.8778 93.8609 75.3588 94.2629C74.3358 95.0569 71.0318 95.9999 71.0318 95.9999C71.0318 95.9999 69.5138 97.3249 68.9828 98.7479L68.5508 99.8539L70.1748 101.847C70.1748 101.847 70.8048 109.716 72.3998 109.716C73.6808 109.716 76.6558 109.716 77.7768 109.716C78.0468 109.716 78.2088 109.716 78.2088 109.716C79.3228 109.716 82.2968 109.716 83.5838 109.716C85.1738 109.716 85.8108 101.847 85.8108 101.847L87.3158 100.372L86.7468 98.7479Z" fill="#006EFF"/>
<path d="M110.983 98.7479C110.454 97.3249 108.935 95.9999 108.935 95.9999C108.935 95.9999 105.632 95.0569 104.607 94.2629C104.084 93.8589 104.093 92.4628 104.227 91.1968C107.387 90.0388 109.694 86.4488 109.694 82.1938C109.694 77.0038 106.265 72.7988 102.043 72.7988C97.8202 72.7988 94.3972 77.0038 94.3972 82.1938C94.3972 86.5008 96.7572 90.1279 99.9792 91.2379C100.109 92.4939 100.113 93.8609 99.5942 94.2629C98.5692 95.0569 95.2662 95.9999 95.2662 95.9999C95.2662 95.9999 93.7482 97.3249 93.2182 98.7479L92.7842 99.8539L94.4112 101.847C94.4112 101.847 95.0392 109.716 96.6352 109.716C97.9182 109.716 100.892 109.716 102.012 109.716C102.28 109.716 102.445 109.716 102.445 109.716C103.559 109.716 106.532 109.716 107.817 109.716C109.411 109.716 110.046 101.847 110.046 101.847L111.55 100.372L110.983 98.7479Z" fill="#006EFF"/>
</g>
</svg>
