<svg width="80" height="80" viewBox="0 0 80 80" fill="none" xmlns="http://www.w3.org/2000/svg">
<g clip-path="url(#clip0_704_5268)">
<rect width="80" height="79.9989" rx="39.9995" fill="#FFCB57"/>
<path d="M72.5034 49.7615V23.4219H7.63965V49.7615H72.5034ZM56.2682 29.2031H61.1112V34.046H56.2682V29.2031ZM56.2682 35.1025H61.1112V39.9455H56.2682V35.1025ZM56.2682 41.002H61.1112V45.844H56.2682V41.002ZM50.3687 29.2031H55.2117V34.046H50.3687V29.2031ZM50.3687 35.1025H55.2117V39.9455H50.3687V35.1025ZM50.3687 41.002H55.2117V45.844H50.3687V41.002ZM40.5992 29.2031H45.4422V34.046H40.5992V29.2031ZM40.5992 35.1025H45.4422V39.9455H40.5992V35.1025ZM40.5992 41.002H45.4422V45.844H40.5992V41.002ZM34.6998 29.2031H39.5428V34.046H34.6998V29.2031ZM34.6998 35.1025H39.5428V39.9455H34.6998V35.1025ZM34.6998 41.002H39.5428V45.844H34.6998V41.002ZM24.4031 29.2031H29.2461V34.046H24.4031V29.2031ZM24.4031 35.1025H29.2461V39.9455H24.4031V35.1025ZM24.4031 41.002H29.2461V45.844H24.4031V41.002ZM18.5036 29.2031H23.3477V34.046H18.5036V29.2031ZM18.5036 35.1025H23.3477V39.9455H18.5036V35.1025ZM18.5036 41.002H23.3477V45.844H18.5036V41.002Z" fill="#5FB6C7"/>
<path d="M14.4985 80.3185H33.2524V56.7617H14.4985V80.3185ZM27.3519 57.8182H32.1949V62.6612H27.3519V57.8182ZM27.3519 63.7177H32.1949V68.5607H27.3519V63.7177ZM21.4524 57.8182H26.2954V62.6612H21.4524V57.8182ZM21.4524 63.7177H26.2954V68.5607H21.4524V63.7177ZM15.555 57.8182H20.397V62.6612H15.555V57.8182ZM15.555 63.7177H20.397V68.5607H15.555V63.7177Z" fill="#F5773D"/>
<path d="M46.8921 80.3185H65.645V56.7617H46.8921V80.3185ZM59.7476 57.8182H64.5885V62.6612H59.7476V57.8182ZM59.7476 63.7177H64.5885V68.5607H59.7476V63.7177ZM53.8481 57.8182H58.6911V62.6612H53.8481V57.8182ZM53.8481 63.7177H58.6911V68.5607H53.8481V63.7177ZM47.9486 57.8182H52.7916V62.6612H47.9486V57.8182ZM47.9486 63.7177H52.7916V68.5607H47.9486V63.7177Z" fill="#F5773D"/>
<path d="M4 53.9898H7.63965V80.3199H13.4419V55.7066H34.3078V80.3199H45.8353V55.7066H66.7011V80.3199H72.5034V53.9898H76.1431V50.8203H4V53.9898Z" fill="#5FB6C7"/>
</g>
<path d="M71.5034 13H6.63965L3 22.3669H75.1431L71.5034 13Z" fill="#F5773D"/>
<defs>
<clipPath id="clip0_704_5268">
<rect width="80" height="79.9989" rx="39.9995" fill="white"/>
</clipPath>
</defs>
</svg>
