<svg width="40" height="40" viewBox="0 0 40 40" fill="none" xmlns="http://www.w3.org/2000/svg">
<path d="M0.00488281 7.5C0.00488281 4.73858 2.24346 2.5 5.00488 2.5H35.0049C37.7663 2.5 40.0049 4.73858 40.0049 7.5V32.5C40.0049 35.2614 37.7663 37.5 35.0049 37.5H5.00488C2.24346 37.5 0.00488281 35.2614 0.00488281 32.5V7.5ZM2.50488 30V32.5C2.50488 33.8807 3.62417 35 5.00488 35H35.0049C36.3856 35 37.5049 33.8807 37.5049 32.5V23.75L28.0639 18.882C27.5827 18.6413 27.0014 18.7357 26.621 19.1161L17.3456 28.3915L10.6983 23.9599C10.2025 23.6294 9.54233 23.6948 9.121 24.1161L2.50488 30ZM15.0049 13.75C15.0049 11.6789 13.326 10 11.2549 10C9.18382 10 7.50488 11.6789 7.50488 13.75C7.50488 15.8211 9.18382 17.5 11.2549 17.5C13.326 17.5 15.0049 15.8211 15.0049 13.75Z" fill="#0781FF"/>
</svg>
