<svg width="60" height="60" viewBox="0 0 60 60" fill="none" xmlns="http://www.w3.org/2000/svg">
<path d="M48.92 35.125C48.85 29.568 36.485 25.887 31.492 25.887L23.49 25.987C22.434 25.811 15.982 22.464 10.122 19.211V5.06097C10.122 2.26997 7.852 0 5.06 0C2.269 0 0 2.26997 0 5.06097V21.77C0 23.332 0.703 24.782 1.931 25.748L14.104 35.327C14.103 35.417 14.103 35.505 14.104 35.593L14.401 59.019C14.407 59.563 14.85 60 15.394 60H40.262C40.529 60 40.784 59.894 40.969 59.704C41.157 59.515 41.26 59.259 41.256 58.993L41.041 42.061L48.556 35.907C48.789 35.715 48.924 35.428 48.92 35.125Z" fill="#7ECFE2"/>
<path d="M38.6 31.0293H35.272V33.1043H38.6V31.0293Z" fill="#FF5A00"/>
<path d="M27.7242 2.9375C22.9892 2.9375 19.1372 7.59951 19.1372 13.3305C19.1372 19.0595 22.9892 23.7215 27.7242 23.7215C32.4582 23.7215 36.3112 19.0595 36.3112 13.3305C36.3112 7.59951 32.4582 2.9375 27.7242 2.9375Z" fill="#7ECFE2"/>
<path d="M55.2879 32.3587H52.8309V28.6387H51.3399V30.5077L51.1239 30.2357C50.9829 30.0567 50.7689 29.9537 50.5409 29.9537H41.9099C41.6939 29.9537 41.4889 30.0467 41.3479 30.2087L39.4739 32.3577H33.8949C33.4829 32.3577 33.1489 32.6907 33.1489 33.1027V44.1377C33.1489 44.5497 33.4829 44.8837 33.8949 44.8837H55.2879C55.6989 44.8837 56.0329 44.5497 56.0329 44.1377V33.1027C56.0329 32.6917 55.6989 32.3587 55.2879 32.3587Z" fill="#3B73A4"/>
<path d="M46.3479 31.7422C43.2169 31.7422 40.6699 34.2892 40.6699 37.4192C40.6699 40.5502 43.2169 43.0972 46.3479 43.0972C49.4789 43.0972 52.0259 40.5502 52.0259 37.4192C52.0259 34.2882 49.4789 31.7422 46.3479 31.7422Z" fill="#FF5A00"/>
<path d="M46.3482 33.6035C44.2442 33.6035 42.5332 35.3155 42.5332 37.4185C42.5332 39.5225 44.2442 41.2335 46.3482 41.2335C48.4522 41.2335 50.1632 39.5225 50.1632 37.4185C50.1632 35.3155 48.4522 33.6035 46.3482 33.6035Z" fill="#FFDB00"/>
<path d="M35.9091 43.0346C35.4971 43.0346 35.1631 42.7006 35.1631 42.2886V35.1386C35.1631 34.7266 35.4971 34.3926 35.9091 34.3926C36.3211 34.3926 36.6541 34.7266 36.6541 35.1386V42.2886C36.6541 42.7006 36.3211 43.0346 35.9091 43.0346Z" fill="#FFDB00"/>
<path d="M54.692 23.0762H49.481C49.072 23.0762 48.731 23.4162 48.731 23.8262V28.6362C48.731 29.0462 49.072 29.3862 49.481 29.3862H54.692C55.101 29.3862 55.4309 29.0462 55.4309 28.6362V23.8262C55.4309 23.4162 55.101 23.0762 54.692 23.0762Z" fill="#FF5A00"/>
<path d="M55.9291 34.2695C54.1161 34.2695 52.6421 35.7435 52.6421 37.5555V39.8705C52.6421 41.6835 54.1171 43.1575 55.9291 43.1575C57.7401 43.1575 59.2161 41.6825 59.2161 39.8705V37.5555C59.2161 35.7435 57.7411 34.2695 55.9291 34.2695Z" fill="#7ECFE2"/>
<path d="M32.4138 25.9249L27.7828 35.9219L23.7428 25.9839L23.4898 25.9869C23.1718 25.9339 22.3548 25.5889 21.2178 25.0469L26.8028 38.7889L27.7227 38.4149L28.6248 38.8329L34.4848 26.1839C33.7388 26.0569 33.0388 25.9699 32.4138 25.9249Z" fill="#FF5A00"/>
<path d="M31.2778 37.4199H24.1708C23.6218 37.4199 23.1768 37.8649 23.1768 38.4139V43.5229C23.1768 44.0719 23.6218 44.5159 24.1708 44.5159H31.2778C31.8268 44.5159 32.2718 44.0719 32.2718 43.5229V38.4139C32.2718 37.8649 31.8268 37.4199 31.2778 37.4199Z" fill="#FFDB00"/>
<path d="M53.624 45.2148H36.491C35.668 45.2148 35 45.8828 35 46.7048C35 47.5288 35.668 48.1958 36.491 48.1958H42.572V59.8948H47.543V48.1958H53.624C54.447 48.1958 55.115 47.5288 55.115 46.7048C55.116 45.8828 54.448 45.2148 53.624 45.2148Z" fill="#414042"/>
</svg>
