<svg width="80" height="80" viewBox="0 0 80 80" fill="none" xmlns="http://www.w3.org/2000/svg">
<rect width="80" height="79.9989" rx="39.9995" fill="#FFCB57"/>
<path d="M66.2759 2.4043V68.5957C66.2759 69.9235 65.2735 71 64.0368 71H16.4822C15.2456 71 14.2432 69.9235 14.2432 68.5957V2.4043C14.2432 1.07646 15.2456 0 16.4822 0H64.0368C65.2735 0 66.2759 1.07646 66.2759 2.4043Z" fill="white"/>
<path d="M61.6309 20.8789H18.8901V61.9467H61.6309V20.8789Z" fill="#0078C7"/>
<path opacity="0.11" d="M61.6309 28.7014V61.9482H18.8901V52.4664C19.2113 51.6964 19.5048 50.9108 20.0555 50.2565C21.2002 48.8943 22.9992 48.126 24.774 48.2348C26.0015 48.3108 27.198 48.7804 28.4238 48.6992C32.3791 48.4368 34.1522 42.9604 38.0299 42.142C41.2291 41.467 44.5923 44.2777 47.6343 43.0795C50.9267 41.7812 51.4309 36.6898 54.7716 35.5227C56.0872 35.0635 57.7515 35.2603 58.6545 34.1985C59.3053 33.4354 59.2691 32.3253 59.3122 31.3222C59.3537 30.3191 59.6282 29.1555 60.5484 28.7515C60.8972 28.5995 61.2735 28.5961 61.6309 28.7014Z" fill="#0078C7"/>
<path d="M24.9517 17.7101C28.6503 17.7101 31.6486 14.7118 31.6486 11.0133C31.6486 7.31469 28.6503 4.31641 24.9517 4.31641C21.2532 4.31641 18.2549 7.31469 18.2549 11.0133C18.2549 14.7118 21.2532 17.7101 24.9517 17.7101Z" fill="#CC842D"/>
<path d="M24.9517 17.7101C28.6503 17.7101 31.6486 14.7118 31.6486 11.0133C31.6486 7.31469 28.6503 4.31641 24.9517 4.31641C21.2532 4.31641 18.2549 7.31469 18.2549 11.0133C18.2549 14.7118 21.2532 17.7101 24.9517 17.7101Z" fill="#0078C7"/>
<path d="M25.0199 15.2309C25.0199 15.3088 24.9567 15.372 24.8788 15.372C24.801 15.372 24.7378 15.3088 24.7378 15.2309C24.7378 15.153 24.801 15.0898 24.8788 15.0898C24.9567 15.0898 25.0199 15.1529 25.0199 15.2309Z" fill="#723D20"/>
<path d="M24.8788 16.2196C24.9567 16.2196 25.0199 16.1565 25.0199 16.0786C25.0199 16.0007 24.9567 15.9375 24.8788 15.9375C24.8009 15.9375 24.7378 16.0007 24.7378 16.0786C24.7378 16.1565 24.8009 16.2196 24.8788 16.2196Z" fill="#723D20"/>
<path d="M24.8788 17.0634C24.9567 17.0634 25.0199 17.0002 25.0199 16.9223C25.0199 16.8444 24.9567 16.7812 24.8788 16.7812C24.8009 16.7812 24.7378 16.8444 24.7378 16.9223C24.7378 17.0002 24.8009 17.0634 24.8788 17.0634Z" fill="#723D20"/>
<mask id="mask0_704_4478" style="mask-type:luminance" maskUnits="userSpaceOnUse" x="18" y="4" width="14" height="14">
<path d="M24.9522 17.7101C28.6508 17.7101 31.6491 14.7118 31.6491 11.0133C31.6491 7.31469 28.6508 4.31641 24.9522 4.31641C21.2537 4.31641 18.2554 7.31469 18.2554 11.0133C18.2554 14.7118 21.2537 17.7101 24.9522 17.7101Z" fill="white"/>
</mask>
<g mask="url(#mask0_704_4478)">
<path d="M28.0332 9.31319C28.0287 9.39779 28.0206 9.48256 28.0125 9.5663C27.9198 10.4722 27.826 11.381 27.6143 12.267C27.5657 12.4723 27.5082 12.6804 27.3875 12.8542C27.1416 13.2081 26.6895 13.3459 26.2663 13.426C25.3532 13.5999 24.4103 13.6161 23.4917 13.4737C22.982 13.3944 22.4416 13.244 22.1174 12.8433C21.8914 12.5633 21.8021 12.1985 21.7293 11.8465C21.5988 11.2125 21.5014 10.573 21.4356 9.93007C21.4275 9.85255 21.4202 9.77606 21.4132 9.69854C21.3609 9.11776 21.3068 8.58272 21.8707 8.22603C21.8878 8.21515 21.9049 8.20445 21.923 8.19461C22.4805 8.03784 23.327 7.89023 24.5996 7.84517C25.637 7.80908 26.6843 7.95687 27.6597 8.27661C27.8317 8.44684 27.9605 8.65661 28.0109 8.89262C28.0403 9.0304 28.0422 9.17179 28.0332 9.31319Z" fill="#FFC78F"/>
<path d="M28.0801 9.89101C27.8118 9.96041 27.4789 9.41501 27.198 9.42934C25.6373 9.50945 24.0515 9.15552 22.7142 8.42695C22.4369 9.76238 21.439 10.3592 21.367 10.406C21.3589 10.3285 21.2487 10.136 21.2311 10.0602C20.247 5.84413 23.2116 5.68184 24.7492 5.65008C29.4592 5.55357 28.0892 9.74978 28.0801 9.89101Z" fill="#723D20"/>
<path opacity="0.4892" d="M28.0781 9.72732C27.8096 9.79672 27.4782 9.65619 27.1971 9.67069C25.6364 9.7508 24.0506 9.39687 22.7132 8.6683C22.436 10.0037 21.4381 10.6006 21.3661 10.6474C21.358 10.5698 21.3376 10.0112 21.3305 9.93363C21.2784 9.35285 21.3067 8.82575 21.8704 8.46923C21.8875 8.45836 21.9046 8.44765 21.9227 8.43764C22.4802 8.28087 23.3267 8.13326 24.5993 8.0882C25.6367 8.05211 26.6873 8.1728 27.6625 8.49237C27.8345 8.6626 27.9602 8.89964 28.0106 9.13548C28.04 9.27343 28.0871 9.58592 28.0781 9.72732Z" fill="#723D20"/>
<path d="M27.7468 10.3907C27.7661 10.4127 27.7863 10.4349 27.8117 10.4458C27.8575 10.4653 27.9093 10.4412 27.9402 10.4011C27.9712 10.3611 27.9857 10.3081 27.9982 10.2561C28.0422 10.0717 28.0683 9.88109 28.0762 9.68876C28.0828 9.52924 28.0883 9.30497 28.0101 9.15735C27.8977 8.94534 27.1829 9.15252 27.1513 9.43704C27.1163 9.75195 27.5722 10.1927 27.7468 10.3907Z" fill="#723D20"/>
<path d="M21.1015 10.3516C20.9754 10.3519 20.8408 10.4148 20.7949 10.5322C20.7753 10.5819 20.7733 10.6368 20.7748 10.6901C20.781 10.9044 20.8475 11.1226 20.9918 11.2811C21.1362 11.4396 21.3653 11.5278 21.5725 11.4729C21.606 11.4641 21.6405 11.4503 21.6615 11.4228C21.6871 11.3894 21.6871 11.3436 21.685 11.3016C21.674 11.0803 21.6317 10.8607 21.5604 10.6511C21.5305 10.5634 21.5141 10.4809 21.4333 10.4362C21.3389 10.3837 21.2083 10.3512 21.1015 10.3516Z" fill="#FFC78F"/>
<path d="M28.2479 10.3516C28.374 10.3519 28.5086 10.4148 28.5546 10.5322C28.5741 10.5819 28.5761 10.6368 28.5746 10.6901C28.5684 10.9044 28.5019 11.1226 28.3576 11.2811C28.2132 11.4396 27.9841 11.5278 27.777 11.4729C27.7435 11.4641 27.7089 11.4503 27.6879 11.4228C27.6623 11.3894 27.6623 11.3436 27.6644 11.3016C27.6754 11.0803 27.7177 10.8607 27.789 10.6511C27.8189 10.5634 27.8353 10.4809 27.9161 10.4362C28.0104 10.3837 28.1409 10.3512 28.2479 10.3516Z" fill="#FFC78F"/>
<path d="M24.7099 13.918V20.6939H20.6123C20.6358 20.5687 20.6601 20.4444 20.6843 20.3201C20.9022 19.1827 21.1211 18.047 21.3409 16.9107C21.4238 16.4766 21.5083 16.0398 21.6786 15.6318C21.8136 15.3067 22.0082 14.9987 22.2702 14.7672C22.3369 14.7087 22.408 14.6547 22.4836 14.606C22.6673 14.4898 22.8709 14.4124 23.0798 14.3484C23.1842 14.3159 23.2896 14.2871 23.395 14.2583C23.3995 14.2574 23.404 14.2555 23.4085 14.2546C23.513 14.2267 23.6166 14.1978 23.7201 14.1681C23.8417 14.134 23.9643 14.0998 24.0858 14.0654C24.1759 14.0402 24.2659 14.0159 24.356 13.9924C24.3759 13.987 24.3947 13.9825 24.4145 13.977C24.5117 13.9522 24.61 13.9323 24.7099 13.918Z" fill="#CC842D"/>
<path d="M29.9815 20.6937C29.7006 19.432 29.2106 18.2711 28.6514 16.9267C28.4812 16.5187 28.266 16.0396 28.0958 15.6317C27.9264 15.2237 27.6635 14.8428 27.2908 14.606C27.2448 14.5771 27.198 14.5502 27.1494 14.5259C26.9089 14.4024 26.6423 14.3296 26.3793 14.2584C26.3749 14.2576 26.3704 14.2557 26.3659 14.2548C26.3496 14.2503 26.3334 14.2458 26.3172 14.2413C26.1164 14.1873 25.9165 14.1296 25.7157 14.073C25.623 14.0478 25.5301 14.0226 25.4374 13.9983C25.4113 13.991 25.3861 13.9839 25.3599 13.9775C25.277 13.956 25.1941 13.9389 25.1095 13.9252C25.0941 13.9225 25.0798 13.9199 25.0645 13.918V14.2548V14.3486V14.3945V14.5412V16.1191V17.6429V19.8149V20.4841V20.6939H28.3083H28.8568" fill="#CC842D"/>
<path d="M25.4995 14.332H24.3438V16.1804H25.4995V14.332Z" fill="#CC842D"/>
<path d="M24.0444 13.835C24.0574 13.9279 24.0717 14.0242 24.123 14.1027C24.1741 14.181 24.2568 14.2331 24.3421 14.2711C24.6834 14.423 25.1071 14.3695 25.3997 14.1373C25.4118 14.1278 25.4239 14.1174 25.4308 14.1038C25.4387 14.0879 25.4387 14.0694 25.4384 14.0516C25.4348 13.802 25.4313 13.5523 25.4277 13.3027C25.4273 13.2837 24.4968 13.3169 24.4118 13.3217C24.3257 13.3265 24.0512 13.2979 23.9944 13.3737C23.9621 13.4168 24.0021 13.533 24.009 13.5826C24.0208 13.6665 24.0325 13.7507 24.0444 13.835Z" fill="#FFC78F"/>
<path d="M24.029 14.4957C24.0404 14.6464 24.082 14.7939 24.1403 14.9332C24.1925 14.8847 24.7182 14.4425 24.8025 14.3626C24.6547 14.3611 24.5171 14.2917 24.3862 14.2228C24.3377 14.1972 24.2888 14.1713 24.2462 14.1368C24.2167 14.113 24.1681 14.0467 24.1262 14.051C24.0811 14.0558 24.0677 14.1276 24.0585 14.1615C24.029 14.2702 24.0205 14.3838 24.029 14.4957Z" fill="#99550B"/>
<path d="M25.5762 14.4957C25.5648 14.6464 25.5234 14.7939 25.4648 14.9332C25.4127 14.8847 24.887 14.4425 24.8027 14.3626C24.9505 14.3611 25.0881 14.2917 25.219 14.2228C25.2675 14.1972 25.3164 14.1713 25.359 14.1368C25.3885 14.113 25.437 14.0467 25.4788 14.051C25.5239 14.0558 25.5374 14.1276 25.5465 14.1615C25.576 14.2702 25.5847 14.3838 25.5762 14.4957Z" fill="#99550B"/>
<path opacity="0.4477" d="M24.029 14.5815C24.0404 14.7322 24.082 14.8797 24.1403 15.019C24.1925 14.9705 24.7182 14.4434 24.8025 14.3634C24.6547 14.3619 24.5171 14.3774 24.3862 14.3085C24.3377 14.283 24.2888 14.2571 24.2462 14.2226C24.2167 14.1987 24.1681 14.1324 24.1262 14.1369C24.0811 14.1418 24.0677 14.2136 24.0585 14.2474C24.029 14.3559 24.0205 14.4695 24.029 14.5815Z" fill="#99550B"/>
<path opacity="0.4477" d="M25.5762 14.5815C25.5648 14.7322 25.5234 14.8797 25.4648 15.019C25.4127 14.9705 24.887 14.4434 24.8027 14.3634C24.9505 14.3619 25.0881 14.3774 25.219 14.3085C25.2675 14.283 25.3164 14.2571 25.359 14.2226C25.3885 14.1987 25.437 14.1324 25.4788 14.1369C25.5239 14.1418 25.5374 14.2136 25.5465 14.2474C25.576 14.3559 25.5847 14.4695 25.5762 14.5815Z" fill="#99550B"/>
<path d="M27.1796 9.49702C27.4277 9.69626 27.6665 9.9207 27.808 10.2088C27.7979 10.1881 27.8914 10.0914 27.8699 10.0476C27.7285 9.75979 27.4893 9.535 27.2414 9.33594C27.2411 9.33542 27.1537 9.4763 27.1796 9.49702Z" fill="#602F17"/>
<path d="M27.8573 9.25366C27.9269 9.50193 27.9452 9.87365 27.8742 10.1248C27.8451 10.2283 27.924 10.0876 27.9335 10.0542C28.0141 9.76867 28.0056 9.3866 27.9257 9.10156C27.9259 9.10277 27.8445 9.20843 27.8573 9.25366Z" fill="#602F17"/>
<path d="M27.6612 9.54329C27.7337 9.67484 27.7765 9.81452 27.7905 9.96403C27.7922 9.98181 27.8272 9.9169 27.8286 9.91414C27.8417 9.88461 27.8604 9.8449 27.8573 9.81141C27.8433 9.66172 27.8005 9.52222 27.728 9.39067C27.7266 9.38808 27.6415 9.50772 27.6612 9.54329Z" fill="#602F17"/>
<path d="M26.1026 8.8611C26.3438 9.01701 26.6107 9.10022 26.8978 9.1092C26.9418 9.11058 26.975 8.94846 26.9596 8.94795C26.6725 8.93897 26.4056 8.85575 26.1644 8.69985C26.1466 8.68828 26.0689 8.83918 26.1026 8.8611Z" fill="#602F17"/>
<path d="M25.8306 9.08076C26.1747 9.23511 26.6128 9.26101 26.9809 9.19367C27.0298 9.1847 27.0709 9.0231 27.0237 9.03173C26.6588 9.09855 26.2344 9.07299 25.8924 8.91951C25.8504 8.90069 25.7847 9.06005 25.8306 9.08076Z" fill="#602F17"/>
<path d="M21.5741 9.33313C21.5288 9.60125 21.461 9.86299 21.3671 10.1183C21.3574 10.1447 21.3583 10.1449 21.369 10.119C21.3847 10.0816 21.3987 10.0432 21.4127 10.0051C21.5126 9.73385 21.5879 9.45709 21.6359 9.17188C21.6266 9.22712 21.5834 9.27719 21.5741 9.33313Z" fill="#602F17"/>
<path d="M21.843 9.19488C21.7845 9.3658 21.7189 9.52947 21.6186 9.67985C21.5902 9.72215 21.5814 9.80467 21.5605 9.83592C21.7133 9.60682 21.8026 9.34146 21.8912 9.08266C21.9007 9.05469 21.8995 9.05745 21.8867 9.08093C21.8677 9.11563 21.8558 9.15741 21.843 9.19488Z" fill="#602F17"/>
<path d="M22.3891 9.00802C22.1627 9.29583 21.9202 9.56913 21.6608 9.82776C21.6358 9.85262 21.6014 9.99436 21.623 9.97296C21.8822 9.71433 22.1249 9.44103 22.3513 9.15322C22.373 9.1256 22.3958 9.08036 22.3991 9.04514C22.4001 9.03668 22.4119 8.97919 22.3891 9.00802Z" fill="#602F17"/>
<path d="M28.0246 10.7839C28.0257 10.7494 28.0288 10.7437 28.034 10.7668C28.0742 10.7539 28.1054 10.7654 28.1282 10.8015C28.1572 10.8424 28.1536 10.9158 28.1508 10.9604C28.1422 11.0968 28.0374 11.1358 27.9345 11.2072C27.906 11.2271 27.89 11.268 27.881 11.3005C27.8794 11.3062 27.8654 11.3818 27.8865 11.3671C27.9818 11.3012 28.0958 11.2444 28.1519 11.1382C28.2056 11.0367 28.2294 10.9113 28.2275 10.7977C28.2263 10.7207 28.1993 10.5571 28.0819 10.6069C27.9994 10.6418 27.9683 10.7737 27.9556 10.8507C27.9373 10.9585 28.0177 10.8247 28.0246 10.7839Z" fill="#F9A25A"/>
<path d="M21.4256 10.8411C21.4139 10.7711 21.3792 10.6594 21.2846 10.694C21.2126 10.7202 21.1777 10.8266 21.1629 10.8925C21.1392 10.998 21.1456 11.1223 21.1825 11.2242C21.2235 11.3367 21.3429 11.3922 21.4363 11.4569C21.4552 11.4698 21.5342 11.3207 21.4981 11.2956C21.4106 11.2349 21.2901 11.1795 21.2538 11.0733C21.2438 11.0439 21.2005 10.8744 21.2319 10.8544C21.3017 10.8102 21.3429 10.9305 21.3497 10.9718C21.3573 11.0151 21.432 10.8796 21.4256 10.8411Z" fill="#F9A25A"/>
<path d="M25.3219 13.7362C25.3176 13.8151 25.3135 13.8938 25.3092 13.9727C25.3073 14.0088 25.3371 13.9584 25.3409 13.9517C25.3591 13.9197 25.3758 13.8766 25.3779 13.8393C25.3822 13.7604 25.3865 13.6816 25.3907 13.6027C25.3926 13.5667 25.3627 13.6171 25.3589 13.6238C25.3408 13.6559 25.324 13.6989 25.3219 13.7362Z" fill="#F9A25A"/>
<path d="M25.2347 13.9515C25.2283 14.0117 25.2265 14.0713 25.2293 14.1317C25.2298 14.1417 25.2585 14.0841 25.2605 14.0791C25.2725 14.0507 25.2946 14.0098 25.2932 13.9779C25.2904 13.9173 25.2921 13.8579 25.2985 13.7976C25.2994 13.7899 25.2699 13.8441 25.2673 13.8503C25.254 13.8819 25.2383 13.9169 25.2347 13.9515Z" fill="#F9A25A"/>
<path d="M25.0883 13.6676C25.0808 13.7787 25.0783 13.8895 25.0814 14.0009C25.0824 14.0385 25.115 13.9919 25.1207 13.9827C25.1402 13.952 25.1566 13.9068 25.1556 13.8696C25.1528 13.7679 25.1544 13.6664 25.1613 13.5649C25.1635 13.5307 25.1522 13.5342 25.1321 13.5537C25.1081 13.577 25.0905 13.6347 25.0883 13.6676Z" fill="#F9A25A"/>
<path d="M27.5519 11.8392C27.5309 11.9362 27.5064 12.032 27.4786 12.1273C27.4737 12.1442 27.458 12.1931 27.4856 12.1947C27.51 12.196 27.5357 12.1161 27.54 12.1018C27.5718 11.9933 27.5996 11.8837 27.6236 11.7734C27.6296 11.7459 27.631 11.7238 27.6029 11.7323C27.5759 11.7402 27.5568 11.8171 27.5519 11.8392Z" fill="#F9A25A"/>
<path d="M27.456 12.2494C27.4398 12.2922 27.4182 12.3267 27.3894 12.3621C27.3652 12.392 27.3472 12.4319 27.3402 12.4697C27.3384 12.4795 27.3315 12.5377 27.3552 12.5085C27.4156 12.4339 27.46 12.3535 27.494 12.2639C27.4976 12.2542 27.5256 12.1803 27.5059 12.176C27.4845 12.1714 27.4602 12.2385 27.456 12.2494Z" fill="#F9A25A"/>
<path d="M27.3266 12.1609C27.2812 12.2705 27.2094 12.3631 27.1217 12.4422C27.0937 12.4672 27.0745 12.5119 27.0699 12.5489C27.068 12.5635 27.0656 12.6177 27.0947 12.5915C27.222 12.477 27.3138 12.3387 27.3793 12.1811C27.385 12.1675 27.4095 12.0976 27.3839 12.0905C27.3572 12.0829 27.3328 12.1461 27.3266 12.1609Z" fill="#F9A25A"/>
<path d="M27.3278 12.4758C27.2553 12.5563 27.1817 12.6355 27.0842 12.6858C27.0522 12.7024 27.035 12.7441 27.0261 12.7773C27.0241 12.7852 27.0113 12.8617 27.0396 12.847C27.1537 12.7882 27.2392 12.6996 27.3241 12.6053C27.3481 12.5787 27.3714 12.528 27.3678 12.4914C27.3651 12.4608 27.3519 12.4491 27.3278 12.4758Z" fill="#F9A25A"/>
<path d="M27.0489 12.6016C26.9916 12.6567 26.9301 12.6961 26.8569 12.7261C26.8402 12.733 26.8263 12.789 26.8203 12.8045C26.8165 12.8143 26.8011 12.8848 26.7949 12.8872C26.8699 12.8566 26.9341 12.8142 26.9921 12.7582C27.014 12.7372 27.024 12.6885 27.034 12.6607C27.0382 12.6496 27.0511 12.5994 27.0489 12.6016Z" fill="#F9A25A"/>
<path d="M27.2108 12.7399C27.1097 12.8227 27.0076 12.9003 26.8752 12.9212C26.8208 12.9298 26.778 13.0933 26.8353 13.0841C26.9869 13.0601 27.1043 12.9686 27.22 12.874C27.2597 12.8416 27.2842 12.6796 27.2108 12.7399Z" fill="#F9A25A"/>
<path d="M26.7898 12.8557C26.6786 12.9133 26.5678 12.9672 26.4435 12.9889C26.3922 12.9979 26.3504 13.1604 26.402 13.1514C26.5343 13.1281 26.6527 13.0694 26.771 13.0081C26.8133 12.9864 26.8513 12.8239 26.7898 12.8557Z" fill="#F9A25A"/>
<path d="M27.4718 11.6577C27.4519 11.7382 27.4257 11.8152 27.3925 11.8912C27.3853 11.9077 27.3637 11.9725 27.3905 11.9828C27.4178 11.9934 27.444 11.9274 27.4502 11.9133C27.4892 11.8235 27.5205 11.7313 27.544 11.6363C27.5488 11.6167 27.5619 11.5676 27.5301 11.5664C27.502 11.5654 27.4763 11.64 27.4718 11.6577Z" fill="#F9A25A"/>
<path d="M21.8479 11.8878C21.8815 12.075 21.9179 12.26 22 12.433C21.9832 12.3978 22.0792 12.3084 22.0618 12.2718C21.9798 12.0988 21.9433 11.9139 21.9097 11.7266C21.9185 11.7746 21.839 11.839 21.8479 11.8878Z" fill="#F9A25A"/>
<path d="M22.0631 12.589C22.1049 12.7 22.1672 12.7947 22.2544 12.8753C22.2501 12.8713 22.3416 12.7375 22.3162 12.714C22.2314 12.6356 22.1686 12.5438 22.1279 12.4355C22.1228 12.4221 22.0964 12.4825 22.0944 12.4873C22.0857 12.5079 22.0541 12.565 22.0631 12.589Z" fill="#F9A25A"/>
<path d="M22.0856 12.2863C22.1162 12.4023 22.1616 12.5107 22.2229 12.6138C22.2058 12.5851 22.304 12.4851 22.2847 12.4525C22.2234 12.3494 22.178 12.241 22.1474 12.125C22.1509 12.1385 22.1201 12.1906 22.1146 12.2049C22.1079 12.2229 22.0804 12.2669 22.0856 12.2863Z" fill="#F9A25A"/>
<path d="M22.3782 12.9586C22.4797 13.0398 22.5987 13.0845 22.7202 13.127C22.7508 13.1377 22.8107 12.9757 22.782 12.9657C22.6605 12.9232 22.5415 12.8787 22.44 12.7974C22.4276 12.7874 22.3442 12.9313 22.3782 12.9586Z" fill="#F9A25A"/>
<path d="M27.493 15.2589C27.6467 15.3872 27.735 15.6199 27.8222 15.7957C27.9269 16.0063 28.0187 16.2223 28.1019 16.4422C28.0912 16.4138 28.1815 16.3281 28.1637 16.281C28.0805 16.061 27.9885 15.845 27.884 15.6344C27.7963 15.4576 27.7088 15.2265 27.5548 15.0977C27.5576 15.1001 27.4687 15.2385 27.493 15.2589Z" fill="#BC7222"/>
<path d="M28.223 16.6724C28.2859 16.8423 28.3485 17.012 28.4114 17.1819C28.4202 17.2059 28.4542 17.1391 28.4563 17.1346C28.4683 17.1094 28.4918 17.0596 28.481 17.0303C28.4183 16.8604 28.3554 16.6907 28.2926 16.5208C28.2838 16.4968 28.2498 16.5636 28.2477 16.5681C28.2356 16.5933 28.2121 16.643 28.223 16.6724Z" fill="#BC7222"/>
<path d="M28.5127 17.4643C28.5455 17.5883 28.5783 17.7122 28.6111 17.836C28.6242 17.8854 28.6996 17.7454 28.6893 17.7064C28.6565 17.5824 28.6237 17.4584 28.5909 17.3346C28.5779 17.2853 28.5025 17.4253 28.5127 17.4643Z" fill="#BC7222"/>
<path d="M28.2358 17.0082C28.3317 17.2011 28.4052 17.4015 28.4546 17.6113C28.4656 17.6586 28.5409 17.5198 28.5318 17.4813C28.4806 17.2646 28.4071 17.0573 28.308 16.8577C28.2976 16.8371 28.2148 16.9659 28.2358 17.0082Z" fill="#BC7222"/>
<path d="M27.9036 16.2738C27.9485 16.4126 27.9993 16.5492 28.0559 16.6837C28.0652 16.7058 28.0968 16.6405 28.0991 16.6357C28.11 16.6122 28.1364 16.5594 28.125 16.5318C28.0684 16.3973 28.0176 16.2607 27.9727 16.1219C27.9653 16.0991 27.9313 16.1661 27.9295 16.1699C27.9175 16.1958 27.894 16.244 27.9036 16.2738Z" fill="#BC7222"/>
<path d="M27.5908 15.5969C27.6664 15.7442 27.7323 15.8952 27.7888 16.0508C27.795 16.0677 27.8239 16.0045 27.8258 16.0004C27.8356 15.9781 27.8646 15.9239 27.8551 15.898C27.7986 15.7424 27.7329 15.5912 27.6571 15.4441C27.6488 15.428 27.6227 15.489 27.6201 15.4945C27.6118 15.5135 27.5794 15.5748 27.5908 15.5969Z" fill="#BC7222"/>
<path d="M27.2332 16.9347C27.3679 17.0946 27.4131 17.3442 27.4706 17.5431C27.5333 17.7601 27.5836 17.9801 27.6259 18.2019C27.6222 18.1831 27.6992 18.0947 27.6904 18.0484C27.6421 17.7948 27.583 17.544 27.5076 17.2969C27.456 17.1277 27.4112 16.9116 27.2951 16.7734C27.3037 16.7836 27.208 16.9046 27.2332 16.9347Z" fill="#914B0C"/>
<path d="M27.2682 17.2768C27.3171 17.435 27.3557 17.5952 27.3842 17.7584C27.3872 17.7755 27.4198 17.7111 27.4212 17.7079C27.4332 17.6812 27.456 17.6365 27.4505 17.6056C27.422 17.4426 27.3834 17.2822 27.3345 17.124C27.3291 17.1068 27.2993 17.1707 27.2975 17.1745C27.2872 17.1978 27.2597 17.2494 27.2682 17.2768Z" fill="#914B0C"/>
<path d="M22.8314 10.3101C22.8 10.3554 22.7791 10.4127 22.7699 10.4652C22.7604 10.5184 22.7571 10.5739 22.7713 10.6261C22.7972 10.7216 22.8984 10.7901 22.9935 10.8037C23.0903 10.8176 23.1889 10.7633 23.2373 10.6794C23.3376 10.5057 23.2027 10.3214 23.0456 10.2456C22.9515 10.2003 22.8792 10.2414 22.8314 10.3101Z" fill="#341D09"/>
<path d="M25.869 10.3101C25.8376 10.3554 25.8167 10.4127 25.8075 10.4652C25.798 10.5184 25.7948 10.5739 25.8087 10.6261C25.8346 10.7216 25.9358 10.7901 26.0309 10.8037C26.1278 10.8176 26.2264 10.7633 26.2747 10.6794C26.375 10.5057 26.2402 10.3214 26.0831 10.2456C25.9892 10.2003 25.9168 10.2414 25.869 10.3101Z" fill="#341D09"/>
<path d="M24.4811 11.0534C24.4897 11.1451 24.5038 11.2421 24.5524 11.3134C24.6009 11.3847 24.6948 11.413 24.7414 11.3476C24.7644 11.3153 24.7713 11.2689 24.7761 11.2245C24.7972 11.0316 24.7991 10.8338 24.782 10.6371C24.7751 10.5595 24.7651 10.4807 24.739 10.4087C24.7129 10.3366 24.6687 10.271 24.6114 10.2418C24.5707 10.2211 24.4885 10.2138 24.4659 10.2708C24.4464 10.3195 24.4621 10.4305 24.4615 10.4856C24.4595 10.6741 24.4629 10.864 24.4811 11.0534Z" fill="#F5884C"/>
<path d="M23.0969 9.57168C23.2464 9.60362 23.3969 9.66577 23.5469 9.63607C23.564 9.63262 23.583 9.6264 23.5903 9.61052C23.6005 9.58773 23.5801 9.56356 23.5606 9.54802C23.3581 9.38608 23.0792 9.35984 22.8203 9.37468C22.6929 9.38194 22.5551 9.39558 22.4389 9.45289C22.3947 9.47465 22.2495 9.60621 22.3636 9.6485C22.4009 9.66232 22.4769 9.60966 22.5142 9.59792C22.5765 9.57824 22.6411 9.5646 22.706 9.55614C22.8358 9.53905 22.9687 9.54422 23.0969 9.57168Z" fill="#341D09"/>
<path d="M26.6037 9.57168C26.7532 9.60362 26.9038 9.66577 27.0538 9.63607C27.0709 9.63262 27.0899 9.6264 27.0971 9.61052C27.1073 9.58773 27.0869 9.56356 27.0674 9.54802C26.8647 9.38608 26.5861 9.35984 26.3271 9.37468C26.1997 9.38194 26.0619 9.39558 25.9457 9.45289C25.9015 9.47465 25.7563 9.60621 25.8705 9.6485C25.9077 9.66232 25.9837 9.60966 26.021 9.59792C26.0833 9.57824 26.1479 9.5646 26.2128 9.55614C26.3425 9.53905 26.4754 9.54422 26.6037 9.57168Z" fill="#341D09"/>
<path d="M23.9268 11.4258C23.9363 11.6136 24.0003 11.7984 24.1094 11.9515C24.1483 12.0062 24.1933 12.0575 24.2489 12.0951C24.3399 12.1568 24.452 12.1773 24.5611 12.1918C24.6747 12.207 24.7909 12.217 24.9036 12.1961C25.0681 12.1656 25.2178 12.0679 25.318 11.9339C25.4181 11.7999 25.4694 11.6316 25.4687 11.4643" stroke="#F5884C" stroke-width="0.172648" stroke-miterlimit="10" stroke-linecap="round" stroke-linejoin="round"/>
<path opacity="0.3605" d="M26.4709 11.3515C26.5636 11.3615 26.6664 11.3599 26.7384 11.3007C26.7656 11.2783 26.7877 11.2449 26.7838 11.2097C26.7803 11.179 26.7572 11.1533 26.7299 11.1386C26.7026 11.1241 26.6714 11.1191 26.6406 11.1151C26.5056 11.0977 26.3684 11.0973 26.233 11.1125C26.1678 11.12 25.9305 11.1871 26.0785 11.2558C26.1981 11.3114 26.3409 11.3375 26.4709 11.3515Z" fill="#F5884C"/>
<path opacity="0.3605" d="M22.7757 11.3515C22.683 11.3615 22.5803 11.3599 22.5083 11.3007C22.481 11.2783 22.4589 11.2449 22.4629 11.2097C22.4663 11.179 22.4895 11.1533 22.5167 11.1386C22.544 11.1241 22.5753 11.1191 22.606 11.1151C22.741 11.0977 22.8783 11.0973 23.0136 11.1125C23.0789 11.12 23.3161 11.1871 23.1681 11.2558C23.0485 11.3114 22.9057 11.3375 22.7757 11.3515Z" fill="#F5884C"/>
<path d="M26.6009 15.9727H23.9263V20.6944H26.6009V15.9727Z" fill="#CC842D"/>
<path d="M25.0193 15.3695C25.0193 15.4895 24.9221 15.5867 24.8022 15.5867C24.6822 15.5867 24.585 15.4895 24.585 15.3695C24.585 15.2495 24.6822 15.1523 24.8022 15.1523C24.9221 15.1523 25.0193 15.2495 25.0193 15.3695Z" fill="#723D20"/>
<path d="M24.8022 16.8172C24.9221 16.8172 25.0193 16.72 25.0193 16.6C25.0193 16.4801 24.9221 16.3828 24.8022 16.3828C24.6822 16.3828 24.585 16.4801 24.585 16.6C24.585 16.72 24.6822 16.8172 24.8022 16.8172Z" fill="#723D20"/>
</g>
<path d="M60.638 66.5308H51.0328C50.4844 66.5308 50.04 66.0864 50.04 65.538V65.2584C50.04 64.71 50.4844 64.2656 51.0328 64.2656H60.638C61.1864 64.2656 61.6308 64.71 61.6308 65.2584V65.538C61.6308 66.0864 61.1864 66.5308 60.638 66.5308Z" fill="#D6D6D6"/>
<path d="M29.4881 66.5308H19.8829C19.3345 66.5308 18.8901 66.0864 18.8901 65.538V65.2584C18.8901 64.71 19.3345 64.2656 19.8829 64.2656H29.4881C30.0365 64.2656 30.4809 64.71 30.4809 65.2584V65.538C30.4809 66.0864 30.0365 66.5308 29.4881 66.5308Z" fill="#D6D6D6"/>
<path d="M44.7294 66.5308H35.1241C34.5757 66.5308 34.1313 66.0864 34.1313 65.538V65.2584C34.1313 64.71 34.5757 64.2656 35.1241 64.2656H44.7294C45.2777 64.2656 45.7221 64.71 45.7221 65.2584V65.538C45.7221 66.0864 45.2777 66.5308 44.7294 66.5308Z" fill="#D6D6D6"/>
<path d="M54.172 8.51514H34.2251C33.6768 8.51514 33.2324 8.07075 33.2324 7.52242V7.24273C33.2324 6.6944 33.6768 6.25 34.2251 6.25H54.1722C54.7206 6.25 55.1649 6.6944 55.1649 7.24273V7.52242C55.1648 8.07075 54.7204 8.51514 54.172 8.51514Z" fill="#D6D6D6"/>
<path d="M46.3198 10.5565H33.5328C33.3669 10.5565 33.2324 10.422 33.2324 10.2561V10.1715C33.2324 10.0056 33.3669 9.87109 33.5328 9.87109H46.3197C46.4856 9.87109 46.6201 10.0056 46.6201 10.1715V10.2561C46.6201 10.422 46.4856 10.5565 46.3198 10.5565Z" fill="#D6D6D6"/>
<path d="M46.3198 11.701H33.5328C33.3669 11.701 33.2324 11.5665 33.2324 11.4006V11.316C33.2324 11.1501 33.3669 11.0156 33.5328 11.0156H46.3197C46.4856 11.0156 46.6201 11.1501 46.6201 11.316V11.4006C46.6201 11.5667 46.4856 11.701 46.3198 11.701Z" fill="#D6D6D6"/>
<path d="M58.9146 6.78696C58.9146 6.98637 58.753 7.14814 58.5534 7.14814C58.354 7.14814 58.1924 6.98637 58.1924 6.78696C58.1924 6.58755 58.354 6.42578 58.5534 6.42578C58.753 6.42578 58.9146 6.58738 58.9146 6.78696Z" fill="#D6D6D6"/>
<path d="M59.7108 7.14814C59.9103 7.14814 60.072 6.98643 60.072 6.78696C60.072 6.58749 59.9103 6.42578 59.7108 6.42578C59.5113 6.42578 59.3496 6.58749 59.3496 6.78696C59.3496 6.98643 59.5113 7.14814 59.7108 7.14814Z" fill="#D6D6D6"/>
<path d="M60.8675 7.14814C61.067 7.14814 61.2287 6.98643 61.2287 6.78696C61.2287 6.58749 61.067 6.42578 60.8675 6.42578C60.668 6.42578 60.5063 6.58749 60.5063 6.78696C60.5063 6.98643 60.668 7.14814 60.8675 7.14814Z" fill="#D6D6D6"/>
<path d="M10.7926 31.4504C11.2538 29.4305 9.99018 27.4192 7.97021 26.958C5.95024 26.4968 3.93886 27.7603 3.47766 29.7802C3.01646 31.8001 4.28009 33.8114 6.30006 34.2726C8.32003 34.7338 10.3314 33.4703 10.7926 31.4504Z" fill="#F40033"/>
<path d="M6.63738 29.9031C6.57557 29.8517 6.51014 29.8051 6.44004 29.765C5.80453 29.4019 4.98635 30.0844 5.1255 30.7672C5.18455 31.0566 5.36548 31.3064 5.56575 31.5234C5.8558 31.8375 6.19419 32.1018 6.54709 32.3411C6.72457 32.4614 6.90637 32.5756 7.0892 32.6876C7.21385 32.7641 7.35594 32.9233 7.51236 32.8395C7.598 32.7936 8.9854 31.4457 9.24247 30.6433C9.3079 30.4392 9.33363 30.2156 9.26958 30.011C9.17099 29.6963 8.84659 29.4679 8.51718 29.481C8.25285 29.4915 8.00976 29.6416 7.83038 29.8361C7.60697 30.0785 7.48491 30.3865 7.29603 30.6523C7.29034 30.6602 7.01893 30.3221 6.99735 30.2937C6.89135 30.1533 6.7736 30.0166 6.63738 29.9031Z" fill="white"/>
<path d="M13.5483 51.6191C14.785 51.6191 15.7876 50.6166 15.7876 49.3799C15.7876 48.1432 14.785 47.1406 13.5483 47.1406C12.3116 47.1406 11.3091 48.1432 11.3091 49.3799C11.3091 50.6166 12.3116 51.6191 13.5483 51.6191Z" fill="#F40033"/>
<path d="M13.0643 48.7324C13.0208 48.7001 12.9748 48.6711 12.9262 48.647C12.4844 48.4265 11.9592 48.917 12.0788 49.3716C12.1296 49.5642 12.2608 49.7257 12.4039 49.8641C12.6111 50.0646 12.849 50.23 13.0957 50.3778C13.2198 50.4522 13.3466 50.5221 13.4738 50.5906C13.5606 50.6374 13.6623 50.7393 13.7645 50.677C13.8205 50.6428 14.7039 49.6825 14.8467 49.1324C14.883 48.9926 14.8919 48.841 14.841 48.7057C14.7628 48.4974 14.5356 48.3559 14.3143 48.3771C14.1366 48.3942 13.9786 48.5045 13.8652 48.6423C13.724 48.8139 13.6534 49.0261 13.5361 49.2122C13.5327 49.2177 13.3371 49.0004 13.3215 48.9819C13.2447 48.8914 13.1603 48.8037 13.0643 48.7324Z" fill="white"/>
<path d="M14.1835 30.9199C14.1434 30.9059 14.1025 30.8949 14.0604 30.888C13.679 30.8253 13.3998 31.3137 13.5944 31.626C13.6769 31.7585 13.8124 31.8486 13.9516 31.9192C14.1529 32.0212 14.3691 32.0898 14.5878 32.1431C14.6978 32.1701 14.8088 32.193 14.9198 32.2148C14.9956 32.2296 15.0952 32.2823 15.1572 32.212C15.191 32.1735 15.6296 31.2511 15.609 30.8065C15.6038 30.6934 15.5753 30.5781 15.5059 30.4886C15.3992 30.351 15.1966 30.2977 15.036 30.3648C14.9072 30.4187 14.8143 30.5378 14.7615 30.667C14.6955 30.8281 14.6919 31.003 14.6474 31.1692C14.646 31.1742 14.4495 31.0568 14.4335 31.0466C14.3552 30.9969 14.2717 30.951 14.1835 30.9199Z" fill="#F40033"/>
<path d="M5.90563 50.123C5.86557 50.1089 5.82465 50.098 5.78253 50.0911C5.40115 50.0284 5.12197 50.5168 5.31655 50.8292C5.39908 50.9616 5.5346 51.0517 5.67376 51.1223C5.87507 51.2244 6.09122 51.2929 6.30997 51.3463C6.41994 51.3732 6.53096 51.3961 6.64197 51.4179C6.71776 51.4327 6.81738 51.4854 6.87936 51.4151C6.9132 51.3766 7.35173 50.4542 7.33118 50.0096C7.326 49.8965 7.29751 49.7812 7.22811 49.6918C7.12141 49.5542 6.91872 49.5008 6.75816 49.568C6.62937 49.6218 6.53665 49.741 6.48365 49.8701C6.4177 50.0312 6.41407 50.2061 6.36953 50.3723C6.36815 50.3773 6.17168 50.2599 6.15562 50.2498C6.07741 50.2 5.99385 50.1541 5.90563 50.123Z" fill="#F40033"/>
<path d="M2.71428 35.7032C2.67215 35.6982 2.62968 35.6963 2.58721 35.6986C2.20134 35.7202 2.03456 36.2574 2.29233 36.52C2.40161 36.6314 2.55337 36.6901 2.70444 36.7288C2.92301 36.7847 3.14901 36.8047 3.37414 36.8096C3.4874 36.812 3.60066 36.8104 3.71391 36.8075C3.79109 36.8056 3.89968 36.8353 3.94509 36.7533C3.96978 36.7084 4.19785 35.7127 4.08148 35.2834C4.05179 35.1741 3.99913 35.0677 3.91194 34.9954C3.77797 34.8842 3.56854 34.8761 3.42628 34.9764C3.31216 35.0568 3.24742 35.1932 3.22377 35.3308C3.19442 35.5023 3.2286 35.6739 3.22118 35.8458C3.221 35.851 3.00364 35.779 2.98586 35.7726C2.89867 35.7414 2.80717 35.7145 2.71428 35.7032Z" fill="#F40033"/>
<path d="M22.0662 22.0039C22.7072 23.825 21.7506 25.8208 19.9295 26.4619C18.1084 27.1029 16.1126 26.1463 15.4717 24.3252C14.8307 22.5041 15.7873 20.5083 17.6084 19.8672C19.4295 19.2262 21.4253 20.1828 22.0662 22.0039Z" fill="#FDC300"/>
<path d="M20.7624 23.4457C20.7262 23.7913 20.5927 24.1247 20.3869 24.4078C20.1518 24.7391 19.8181 24.9998 19.4312 25.1276C19.1518 25.2196 18.8536 25.2403 18.5652 25.1986C18.1078 25.1321 17.6698 24.9113 17.3576 24.5746C17.2579 24.4644 17.2995 24.2896 17.4388 24.2426L20.4986 23.2288C20.6406 23.1832 20.7783 23.2991 20.7624 23.4457Z" fill="#F40033"/>
<path d="M19.3025 22.965C19.265 22.8306 19.2272 22.6928 19.2369 22.5535C19.2466 22.4141 19.3134 22.2705 19.4373 22.2064C19.5777 22.1339 19.7574 22.1826 19.8762 22.2867C19.995 22.3908 20.0642 22.5398 20.1188 22.6883" stroke="#341D09" stroke-width="0.172648" stroke-miterlimit="10" stroke-linecap="round"/>
<path d="M17.4129 23.6291C17.3754 23.4946 17.3374 23.3568 17.3473 23.2175C17.3569 23.0782 17.4238 22.9345 17.5477 22.8705C17.6881 22.798 17.8678 22.8467 17.9866 22.9508C18.1054 23.0551 18.1746 23.204 18.2292 23.3524" stroke="#341D09" stroke-width="0.172648" stroke-miterlimit="10" stroke-linecap="round"/>
<path d="M7.71968 46.3752C9.85649 45.5881 10.9506 43.2177 10.1634 41.0809C9.37621 38.9441 7.00584 37.85 4.86903 38.6372C2.73222 39.4244 1.63814 41.7947 2.42533 43.9315C3.21251 46.0683 5.58287 47.1624 7.71968 46.3752Z" fill="white"/>
<path d="M5.68359 42.6912C5.72451 43.0668 5.77147 43.4113 5.81239 43.787C5.85521 44.1797 5.93169 44.5143 6.23192 44.6668C6.50902 44.8077 7.12227 44.7534 7.41249 44.6851C7.71981 44.6127 8.02349 44.4895 8.26555 44.2629C8.5076 44.0366 8.62707 43.7027 8.59099 43.3358C8.52884 42.7039 8.40574 42.4272 8.05371 42.1941C7.70168 41.961 7.28801 41.9015 6.89006 41.9111C6.60225 41.918 6.30564 41.9629 6.06635 42.1404C5.82706 42.3177 5.66011 42.6559 5.72451 42.9866" fill="#FFC78F"/>
<path d="M6.13636 42.5445L5.25293 42.6484L5.46834 44.4801L6.35177 44.3762L6.13636 42.5445Z" fill="#FFC78F"/>
<path d="M5.65115 42.5923C5.64804 42.7539 5.65668 42.9514 5.79997 43.026C5.91237 43.0845 6.0517 43.0305 6.15269 42.954C6.42651 42.7467 6.5522 42.3972 6.61177 42.059C6.66563 41.7526 6.67616 41.4332 6.59243 41.1334C6.5087 40.8337 6.32275 40.5547 6.05152 40.4019C5.88561 40.3085 5.55896 40.2148 5.37664 40.3196C5.13977 40.4556 5.31293 40.6459 5.38804 40.8717C5.57242 41.4247 5.66237 42.0093 5.65115 42.5923Z" fill="#FFC78F"/>
<path d="M5.54692 44.559L4.5314 44.6784C4.4304 44.6904 4.3389 44.6182 4.32716 44.5172L4.12775 42.8211C4.11584 42.7201 4.188 42.6286 4.289 42.6168L5.30452 42.4974C5.40552 42.4855 5.49702 42.5578 5.50876 42.6586L5.70817 44.3547C5.72026 44.4557 5.64792 44.5472 5.54692 44.559Z" fill="#0078C7"/>
<path d="M74.5586 47.8397C76.6191 47.503 78.0164 45.5597 77.6797 43.4994C77.3429 41.439 75.3996 40.0418 73.3392 40.3785C71.2787 40.7153 69.8814 42.6585 70.2181 44.7189C70.5549 46.7792 72.4982 48.1765 74.5586 47.8397Z" fill="#F40033"/>
<path d="M71.4288 51.7166C71.4527 51.6814 71.4737 51.6446 71.491 51.6058C71.6484 51.2527 71.247 50.8587 70.8955 50.9677C70.7465 51.0138 70.6248 51.122 70.5214 51.2386C70.3715 51.4074 70.2503 51.599 70.1431 51.7971C70.0891 51.8967 70.0387 51.998 69.9895 52.1001C69.9558 52.1697 69.8797 52.2525 69.9318 52.3304C69.9605 52.373 70.7413 53.0313 71.1764 53.1244C71.2871 53.1481 71.4059 53.1498 71.51 53.1056C71.6702 53.0372 71.7733 52.8549 71.7491 52.6824C71.7298 52.5441 71.6381 52.4241 71.5265 52.3402C71.3874 52.2356 71.2192 52.1874 71.0697 52.1023C71.0652 52.0997 71.2287 51.9395 71.2425 51.9266C71.3107 51.8632 71.3763 51.7941 71.4288 51.7166Z" fill="#F40033"/>
<path d="M75.1657 35.1671C75.1583 35.1253 75.1476 35.0842 75.1329 35.0442C74.9996 34.6815 74.437 34.6789 74.2612 35.0021C74.1866 35.1391 74.1749 35.3014 74.1819 35.4572C74.1923 35.6826 74.2391 35.9045 74.3004 36.1212C74.3311 36.2301 74.3658 36.338 74.4016 36.4456C74.4259 36.5189 74.4292 36.6315 74.5209 36.6508C74.5711 36.6614 75.5899 36.5887 75.9666 36.3518C76.0624 36.2916 76.1489 36.2101 76.1926 36.1056C76.2598 35.9451 76.2064 35.7424 76.0688 35.6357C75.9585 35.55 75.8092 35.5279 75.6707 35.5456C75.498 35.5675 75.344 35.6504 75.1774 35.6935C75.1724 35.6947 75.1778 35.466 75.1788 35.4471C75.1833 35.3544 75.1823 35.2591 75.1657 35.1671Z" fill="#F40033"/>
<path d="M66.9787 36.1368C66.9516 36.057 66.9185 35.9795 66.8777 35.9055C66.5077 35.233 65.4024 35.3961 65.1537 36.0831C65.0482 36.3744 65.0734 36.6967 65.1342 37.0004C65.2219 37.44 65.38 37.8616 65.5649 38.2687C65.658 38.4734 65.7581 38.6749 65.8603 38.8752C65.9301 39.0119 65.9701 39.2319 66.1559 39.2424C66.2576 39.2481 68.2361 38.8009 68.9048 38.2236C69.0748 38.0767 69.2202 37.8907 69.2748 37.6729C69.3587 37.3374 69.1935 36.9555 68.8915 36.7872C68.6493 36.652 68.3495 36.6532 68.0828 36.7293C67.7505 36.8239 67.4727 37.0327 67.1585 37.1672C67.1491 37.1711 67.0911 36.7204 67.0875 36.6829C67.0692 36.4995 67.0386 36.3127 66.9787 36.1368Z" fill="#F40033"/>
<path d="M73.7385 43.086C73.7114 43.0063 73.6782 42.9287 73.6375 42.8547C73.2675 42.1822 72.1622 42.3454 71.9134 43.0323C71.8079 43.3236 71.8331 43.6459 71.8939 43.9496C71.9816 44.3892 72.1398 44.8108 72.3247 45.2179C72.4177 45.4226 72.5179 45.6241 72.6201 45.8244C72.6898 45.9611 72.7299 46.1811 72.9157 46.1916C73.0173 46.1973 74.9959 45.7502 75.6646 45.1728C75.8346 45.0259 75.98 44.84 76.0345 44.6219C76.1184 44.2864 75.9532 43.9047 75.6513 43.7362C75.409 43.601 75.1093 43.6024 74.8426 43.6784C74.5102 43.7732 74.2324 43.9817 73.9182 44.1164C73.9089 44.1204 73.8509 43.6696 73.8473 43.6321C73.8288 43.4488 73.7982 43.262 73.7385 43.086Z" fill="white"/>
<path d="M62.2642 33.5511C63.4523 32.0294 63.1818 29.8327 61.6602 28.6446C60.1385 27.4566 57.9418 27.727 56.7537 29.2487C55.5657 30.7703 55.8361 32.967 57.3578 34.1551C58.8795 35.3432 61.0761 35.0727 62.2642 33.5511Z" fill="#FDC300"/>
<path d="M60.8279 32.9141C60.5734 33.1508 60.254 33.3147 59.9129 33.3929C59.5178 33.4882 59.095 33.4656 58.7193 33.3078C58.4483 33.1936 58.2099 33.0134 58.0198 32.7924C57.7187 32.4419 57.5334 31.9877 57.5191 31.5288C57.5162 31.3801 57.6624 31.2757 57.7983 31.3318L60.7714 32.5773C60.9083 32.6362 60.9361 32.814 60.8279 32.9141Z" fill="#F40033"/>
<path d="M60.042 31.5978C60.1021 31.4718 60.1641 31.343 60.2628 31.2443C60.3617 31.1455 60.5062 31.0811 60.6419 31.1143C60.7954 31.1517 60.8988 31.3066 60.9201 31.4632C60.9413 31.6198 60.8956 31.7776 60.8393 31.9252" stroke="#341D09" stroke-width="0.172648" stroke-miterlimit="10" stroke-linecap="round"/>
<path d="M58.1802 30.8557C58.2403 30.7296 58.3022 30.6008 58.401 30.5021C58.4999 30.4033 58.6444 30.3389 58.7801 30.3721C58.9336 30.4095 59.037 30.5644 59.0583 30.721C59.0795 30.8776 59.0338 31.0354 58.9775 31.183" stroke="#341D09" stroke-width="0.172648" stroke-miterlimit="10" stroke-linecap="round"/>
<path d="M64.9151 52.8357C64.3224 54.3274 62.6327 55.0562 61.141 54.4635C59.6493 53.8708 58.9206 52.1811 59.5133 50.6894C60.106 49.1977 61.7957 48.4689 63.2874 49.0616C64.7791 49.6543 65.508 51.3441 64.9151 52.8357Z" fill="#FDC300"/>
<path d="M63.3111 53.0277C63.0996 53.2245 62.8339 53.3607 62.5502 53.4258C62.2218 53.505 61.8701 53.4862 61.558 53.355C61.3325 53.26 61.1343 53.1102 60.9764 52.9265C60.726 52.6351 60.572 52.2575 60.5601 51.8758C60.5577 51.7521 60.6792 51.6653 60.7923 51.7121L63.2643 52.7476C63.3781 52.7965 63.4012 52.9443 63.3111 53.0277Z" fill="#F40033"/>
<path d="M62.6572 51.9288C62.7071 51.824 62.7587 51.7169 62.8409 51.6349C62.9231 51.5529 63.0433 51.4992 63.1562 51.5269C63.2838 51.5581 63.3699 51.6867 63.3875 51.8169C63.4051 51.9471 63.3672 52.0783 63.3204 52.201" stroke="#341D09" stroke-width="0.172648" stroke-miterlimit="10" stroke-linecap="round"/>
<path d="M61.1094 51.3155C61.1593 51.2107 61.2109 51.1037 61.2931 51.0217C61.3753 50.9396 61.4954 50.8859 61.6083 50.9136C61.7359 50.9448 61.8221 51.0734 61.8397 51.2036C61.8573 51.3338 61.8193 51.465 61.7725 51.5878" stroke="#341D09" stroke-width="0.172648" stroke-miterlimit="10" stroke-linecap="round"/>
<path d="M76.4202 29.7961C77.0794 27.6165 75.8469 25.3152 73.6673 24.656C71.4876 23.9968 69.1863 25.2293 68.5271 27.4089C67.8679 29.5885 69.1004 31.8899 71.28 32.5491C73.4597 33.2083 75.761 31.9758 76.4202 29.7961Z" fill="white"/>
<path d="M71.859 28.433C71.6934 28.7726 71.5496 29.0892 71.3842 29.4288C71.2112 29.7841 71.0978 30.1078 71.2704 30.3968C71.43 30.6638 71.9778 30.9445 72.2597 31.0412C72.5584 31.1437 72.8811 31.201 73.2065 31.1385C73.5319 31.0759 73.8109 30.8571 73.9758 30.5274C74.26 29.9595 74.3032 29.6598 74.1293 29.275C73.9556 28.8901 73.6373 28.6193 73.2954 28.4155C73.0482 28.2681 72.7732 28.1481 72.4762 28.1707C72.1792 28.1933 71.8578 28.3905 71.7361 28.7047" fill="#FFC78F"/>
<path d="M72.3234 28.5468L71.5205 28.1641L70.7269 29.8288L71.5299 30.2116L72.3234 28.5468Z" fill="#FFC78F"/>
<path d="M71.8842 28.3314C71.7954 28.4664 71.6975 28.6382 71.779 28.7777C71.8431 28.8872 71.9897 28.9157 72.116 28.9048C72.4582 28.8753 72.7509 28.6465 72.9814 28.3919C73.1903 28.1612 73.3693 27.8965 73.458 27.5984C73.5468 27.3002 73.5381 26.9649 73.39 26.6913C73.2994 26.5238 73.073 26.2705 72.8628 26.2621C72.5898 26.251 72.635 26.5043 72.5784 26.7353C72.4398 27.3016 72.2043 27.8442 71.8842 28.3314Z" fill="#FFC78F"/>
<path d="M70.7478 29.9452L69.8246 29.5051C69.733 29.4614 69.6939 29.3514 69.7376 29.2598L70.4726 27.7182C70.5163 27.6265 70.6262 27.5875 70.7179 27.6312L71.6409 28.0713C71.7327 28.1149 71.7716 28.2249 71.7279 28.3166L70.993 29.8582C70.9494 29.9498 70.8396 29.9889 70.7478 29.9452Z" fill="#0078C7"/>
<path d="M25.7004 56.636C24.5388 56.636 23.6524 55.8507 22.8636 54.8892C21.4403 53.1544 21.5568 50.8625 21.8757 46.465C21.948 45.4662 23.5044 45.3283 24.363 45.8435C25.2214 46.3586 25.4996 47.4724 24.9844 48.3306C24.8076 48.6253 24.9566 49.4853 25.1401 50.5616C25.3126 51.5728 25.3939 52.2572 25.6665 52.5893C25.7578 52.7009 25.8561 52.7694 25.9236 52.7694C25.9246 52.7694 25.9257 52.7694 25.9267 52.7692C25.989 52.7673 26.1042 52.7062 26.224 52.5401C26.5912 52.0308 26.8274 51.2934 27.0772 50.5129C27.3348 49.7085 27.6268 48.7968 28.1268 47.9467C29.1231 46.2518 30.5366 44.8999 32.2144 44.0376C33.4088 43.4238 35.7338 42.4818 37.8862 43.0671C38.8523 43.33 39.4223 44.3264 39.1593 45.2925C38.8964 46.2587 37.8995 46.8284 36.9341 46.5656C36.2564 46.3811 35.0543 46.6546 33.8718 47.2623C32.806 47.8101 31.9002 48.6823 31.2522 49.7842C30.9568 50.2867 30.7495 50.9336 30.5302 51.6189C30.2201 52.5869 29.9289 53.7307 29.1651 54.6604C27.5418 56.636 25.739 56.636 25.7004 56.636Z" fill="#CC842D"/>
<path d="M50.4377 28.9543C50.4122 29.2061 50.3757 29.4574 50.3397 29.7061C49.9325 32.3945 49.5225 35.091 48.762 37.7035C48.5869 38.3089 48.3846 38.9212 47.998 39.4223C47.2106 40.4429 45.8358 40.7899 44.5556 40.9689C41.7934 41.3579 38.9646 41.2728 36.2312 40.7182C34.7145 40.4097 33.1161 39.8847 32.2012 38.6437C31.5635 37.7765 31.3482 36.6762 31.1797 35.6158C30.8784 33.7067 30.678 31.7863 30.5725 29.8594C30.5592 29.6273 30.5485 29.3979 30.5379 29.166C30.4641 27.4264 30.3782 25.8235 32.1191 24.84C32.1719 24.8101 32.2247 24.7804 32.2801 24.7533C33.9735 24.365 36.5323 24.0444 40.3532 24.0903C43.4683 24.1299 46.587 24.7186 49.4652 25.8101C49.9565 26.342 50.3127 26.986 50.4303 27.6968C50.4995 28.1122 50.4849 28.5339 50.4377 28.9543Z" fill="#FFC78F"/>
<path d="M50.5489 29.4736C49.7345 29.6424 48.7603 29.1766 47.916 29.1797C43.2262 29.1977 38.5224 27.9177 34.6171 25.5557C33.5961 29.4988 30.5195 31.1372 30.2968 31.2667C30.2835 31.0347 30.327 29.3629 30.2916 29.1335C29.2196 22.1939 31.8838 18.1503 39.5238 18.1523C46.7752 18.1544 52.1135 20.0946 50.5489 29.4736Z" fill="#723D20"/>
<path opacity="0.4892" d="M50.5137 30.2088C49.6993 30.3777 48.7251 29.9119 47.8808 29.915C43.1908 29.933 38.4872 28.6529 34.5819 26.2909C33.5608 30.2341 30.4843 31.8725 30.2615 32.002C30.2482 31.7699 30.2669 30.1008 30.2564 29.8687C30.1825 28.1291 30.3425 26.5617 32.0833 25.5781C32.1362 25.5482 32.189 25.5185 32.2444 25.4916C33.9377 25.1033 36.4966 24.7827 40.3174 24.8286C43.4325 24.8681 46.5645 25.3764 49.4427 26.4677C49.9341 26.9997 50.277 27.7241 50.3946 28.4349C50.4641 28.8501 50.5608 29.7884 50.5137 30.2088Z" fill="#723D20"/>
<path d="M49.4254 32.1316C49.4801 32.1996 49.5378 32.2692 49.6124 32.3051C49.7469 32.3698 49.9054 32.3053 50.0039 32.1901C50.1027 32.075 50.1538 31.9191 50.1984 31.7661C50.3565 31.2226 50.462 30.6579 50.5129 30.0852C50.555 29.6106 50.6039 28.9426 50.3903 28.4911C50.0837 27.8432 47.9116 28.3594 47.7761 29.2038C47.6261 30.1371 48.9304 31.5161 49.4254 32.1316Z" fill="#723D20"/>
<path d="M29.5121 31.0714C29.1343 31.0547 28.7217 31.223 28.5672 31.5664C28.5015 31.7121 28.4874 31.8751 28.4845 32.0348C28.4727 32.6745 28.6407 33.3347 29.0507 33.8278C29.4608 34.3207 30.1351 34.6163 30.7639 34.4819C30.8658 34.4602 30.9709 34.4243 31.0379 34.3449C31.1191 34.2487 31.126 34.1123 31.1256 33.9868C31.1237 33.3254 31.0284 32.6645 30.8444 32.0291C30.7674 31.7633 30.7299 31.5148 30.4939 31.37C30.2196 31.2011 29.8328 31.0856 29.5121 31.0714Z" fill="#FFC78F"/>
<path d="M50.9348 32.088C51.3126 32.107 51.7073 32.3133 51.8283 32.6698C51.8797 32.8211 51.8784 32.9847 51.8659 33.1439C51.8167 33.7819 51.5866 34.4232 51.1313 34.8754C50.6762 35.3274 49.9766 35.5581 49.3634 35.365C49.2641 35.3338 49.1628 35.288 49.1037 35.2027C49.0321 35.0993 49.0383 34.9629 49.0506 34.8379C49.1153 34.1798 49.2733 33.5308 49.517 32.9155C49.6191 32.6581 49.68 32.4143 49.9286 32.2924C50.2183 32.1503 50.6142 32.0719 50.9348 32.088Z" fill="#FFC78F"/>
<path d="M39.1134 41.7266V61.9552H28.0015C28.065 61.5814 28.131 61.2104 28.1969 60.8396C28.7879 57.4439 29.3814 54.0536 29.9773 50.6608C30.2019 49.3649 30.4315 48.0609 30.8932 46.843C31.2595 45.8724 31.7869 44.953 32.4976 44.2621C32.6783 44.0874 32.8712 43.9259 33.0765 43.7809C33.5747 43.4341 34.1267 43.2029 34.6931 43.0119C34.9765 42.9151 35.2622 42.8291 35.5479 42.7431C35.5602 42.7404 35.5724 42.735 35.5845 42.7324C35.8678 42.649 36.1487 42.563 36.4295 42.4743C36.7592 42.3721 37.0912 42.2699 37.421 42.1679C37.6653 42.0926 37.9094 42.0201 38.1537 41.9501C38.2074 41.9341 38.2587 41.9206 38.3124 41.9044C38.5762 41.8288 38.8424 41.7696 39.1134 41.7266Z" fill="#CC842D"/>
<path d="M52.3218 61.9549C51.6279 58.1882 50.418 54.7227 49.0368 50.7088C48.6164 49.4909 48.0848 48.0605 47.6646 46.8426C47.2464 45.6248 46.5969 44.4876 45.6762 43.7804C45.5628 43.6944 45.4471 43.6138 45.3269 43.5411C44.7332 43.1727 44.0747 42.955 43.4254 42.7426C43.4143 42.7398 43.4031 42.7345 43.3921 42.7319C43.352 42.7184 43.312 42.705 43.2719 42.6917C42.7759 42.5304 42.2821 42.3583 41.7863 42.1889C41.5572 42.1136 41.3281 42.0384 41.099 41.9659C41.0344 41.9443 40.9722 41.9229 40.9077 41.904C40.7031 41.8395 40.4985 41.7884 40.2894 41.7481C40.2516 41.74 40.216 41.7321 40.1782 41.7266V42.7321V43.0118V43.1488V43.587V48.2974V52.8465V59.3313V61.3289V61.9552H48.1894H49.5439" fill="#CC842D"/>
<path d="M41.4827 42.9648H38.0142V48.4829H41.4827V42.9648Z" fill="#CC842D"/>
<path d="M37.1149 41.4779C37.1539 41.7554 37.1967 42.0427 37.3506 42.2773C37.5039 42.5107 37.752 42.6664 38.0082 42.7799C39.0325 43.2336 40.304 43.0735 41.1825 42.3804C41.2186 42.3519 41.2552 42.3213 41.2757 42.2804C41.2995 42.2329 41.2994 42.1777 41.2985 42.1245C41.2878 41.3792 41.2771 40.6337 41.2664 39.8884C41.2655 39.8319 38.4724 39.9308 38.2174 39.9448C37.9591 39.9591 37.1349 39.8737 36.9645 40.0998C36.8677 40.2285 36.9878 40.5755 37.0085 40.7235C37.0439 40.975 37.0793 41.2264 37.1149 41.4779Z" fill="#FFC78F"/>
<path d="M37.0699 43.449C37.104 43.899 37.2287 44.3389 37.4039 44.7551C37.5603 44.6101 39.1384 43.2902 39.3909 43.0514C38.9472 43.0466 38.5343 42.8398 38.1417 42.6341C37.9959 42.5578 37.8495 42.4805 37.7214 42.3776C37.6329 42.3065 37.4875 42.1084 37.3616 42.1217C37.2264 42.1361 37.186 42.3503 37.1584 42.4515C37.07 42.7756 37.0445 43.115 37.0699 43.449Z" fill="#99550B"/>
<path d="M41.7115 43.449C41.6774 43.899 41.5529 44.3389 41.3775 44.7551C41.2212 44.6101 39.643 43.2902 39.3906 43.0514C39.8343 43.0466 40.2473 42.8398 40.6399 42.6341C40.7856 42.5578 40.932 42.4805 41.0601 42.3776C41.1487 42.3065 41.2941 42.1084 41.4199 42.1217C41.5551 42.1361 41.5957 42.3503 41.6231 42.4515C41.7114 42.7756 41.7369 43.115 41.7115 43.449Z" fill="#99550B"/>
<path opacity="0.4477" d="M37.0699 43.7028C37.104 44.1527 37.2287 44.5928 37.4039 45.0089C37.5603 44.8638 39.1384 43.2907 39.3909 43.0519C38.9472 43.0471 38.5343 43.0935 38.1417 42.8879C37.9959 42.8116 37.8495 42.7342 37.7214 42.6315C37.6329 42.5604 37.4875 42.3623 37.3616 42.3756C37.2264 42.39 37.186 42.6044 37.1584 42.7056C37.07 43.0291 37.0445 43.3685 37.0699 43.7028Z" fill="#99550B"/>
<path opacity="0.4477" d="M41.7115 43.7028C41.6774 44.1527 41.5529 44.5928 41.3775 45.0089C41.2212 44.8638 39.643 43.2907 39.3906 43.0519C39.8343 43.0471 40.2473 43.0935 40.6399 42.8879C40.7856 42.8116 40.932 42.7342 41.0601 42.6315C41.1487 42.5604 41.2941 42.3623 41.4199 42.3756C41.5551 42.39 41.5957 42.6044 41.6231 42.7056C41.7114 43.0291 41.7369 43.3685 41.7115 43.7028Z" fill="#99550B"/>
<path d="M47.9233 29.1886C48.6379 29.8172 49.3221 30.5201 49.7059 31.4C49.6948 31.3745 49.7874 31.2839 49.7677 31.2388C49.3842 30.3595 48.6992 29.6556 47.9851 29.0273C47.9887 29.0305 47.8984 29.1667 47.9233 29.1886Z" fill="#602F17"/>
<path d="M49.9911 28.5666C50.0891 28.9605 50.0779 29.3789 50.072 29.7832C50.0651 30.2597 50.0677 30.7575 49.9106 31.2126C49.8778 31.3073 49.9358 31.3324 49.9695 31.2352C50.1066 30.8384 50.133 30.4301 50.149 30.013C50.1689 29.4968 50.2001 28.9443 50.0743 28.439C50.0601 28.3823 49.9803 28.5237 49.9911 28.5666Z" fill="#602F17"/>
<path d="M49.3655 29.4035C49.5596 29.7971 49.669 30.2129 49.6892 30.6512C49.6932 30.7368 49.7738 30.592 49.7719 30.5523C49.751 30.096 49.6419 29.6635 49.4399 29.2538C49.4263 29.226 49.3436 29.3588 49.3655 29.4035Z" fill="#602F17"/>
<path d="M44.7901 27.1516C45.489 27.6515 46.282 27.9389 47.1386 28.0042C47.1935 28.0083 47.2367 27.8457 47.2004 27.8429C46.3438 27.7777 45.5508 27.4902 44.8519 26.9904C44.8215 26.9688 44.7454 27.1197 44.7901 27.1516Z" fill="#602F17"/>
<path d="M43.9379 27.7715C44.9257 28.2919 46.2557 28.4279 47.3495 28.2682C47.3911 28.2622 47.4313 28.1026 47.3963 28.1078C46.3144 28.2658 44.9794 28.1265 43.9997 27.6104C43.9713 27.5952 43.9005 27.7516 43.9379 27.7715Z" fill="#602F17"/>
<path d="M31.1428 27.9345C30.9759 28.7002 30.7473 29.4448 30.4395 30.1669C30.4258 30.199 30.3846 30.3133 30.3873 30.3065C30.7366 29.4871 31.0146 28.6444 31.2047 27.7734C31.1927 27.8285 31.1551 27.8788 31.1428 27.9345Z" fill="#602F17"/>
<path d="M31.978 27.5573C31.733 28.1716 31.4775 28.7752 31.0814 29.3088C31.0514 29.3494 31.0454 29.4354 31.0234 29.4649C31.4433 28.899 31.7083 28.2526 31.9675 27.6024C31.9873 27.5532 32.0231 27.4444 31.978 27.5573Z" fill="#602F17"/>
<path d="M33.5161 27.3498C32.7991 28.1742 32.0348 28.9527 31.2233 29.6844C31.1876 29.7167 31.179 29.8367 31.1719 29.8431C31.988 29.1071 32.757 28.3243 33.4783 27.495C33.5016 27.4683 33.5347 27.3286 33.5161 27.3498Z" fill="#602F17"/>
<path d="M50.1321 33.3939C50.1939 33.1097 50.4511 33.0156 50.5956 33.2554C50.6909 33.4135 50.6607 33.6723 50.6298 33.8402C50.534 34.36 50.2094 34.4926 49.816 34.7372C49.7754 34.7624 49.7578 34.9035 49.768 34.8971C50.0269 34.736 50.3703 34.5941 50.5307 34.3201C50.6675 34.0865 50.721 33.7764 50.7277 33.5107C50.7331 33.301 50.6749 32.8384 50.3434 32.9678C50.1587 33.0399 50.0995 33.2918 50.0629 33.4603C50.0397 33.567 50.1235 33.4336 50.1321 33.3939Z" fill="#F9A25A"/>
<path d="M30.3251 32.6807C30.3021 32.4884 30.2175 32.1659 29.9489 32.2529C29.7916 32.3038 29.7182 32.493 29.6811 32.6367C29.6137 32.8977 29.625 33.2173 29.6964 33.4737C29.7999 33.8449 30.1367 34.0172 30.4281 34.2392C30.4445 34.2516 30.526 34.1054 30.4899 34.0779C30.2054 33.8613 29.876 33.6871 29.7747 33.3267C29.7185 33.1272 29.6217 32.4649 29.9009 32.4127C30.1616 32.3641 30.2258 32.6141 30.2494 32.8114C30.2544 32.8535 30.3295 32.7197 30.3251 32.6807Z" fill="#F9A25A"/>
<path d="M40.8347 41.6152C40.8107 41.8496 40.7867 42.0841 40.7625 42.3187C40.7587 42.3562 40.7912 42.302 40.7943 42.2978C40.8153 42.2693 40.8276 42.2206 40.8312 42.1854C40.8552 41.951 40.8792 41.7165 40.9034 41.4819C40.9072 41.4444 40.8747 41.4986 40.8716 41.5028C40.8506 41.5314 40.8383 41.5799 40.8347 41.6152Z" fill="#F9A25A"/>
<path d="M40.5364 42.2096C40.507 42.3905 40.4925 42.5718 40.4937 42.7552C40.4935 42.727 40.5579 42.6512 40.5576 42.6013C40.5564 42.424 40.5695 42.2485 40.5978 42.0734C40.6032 42.0399 40.5781 42.0939 40.5761 42.0983C40.5593 42.1316 40.5424 42.1725 40.5364 42.2096Z" fill="#F9A25A"/>
<path d="M40.1445 41.4332C40.107 41.7538 40.0856 42.0751 40.0796 42.3977C40.0789 42.4333 40.1531 42.3052 40.1538 42.2665C40.1597 41.9532 40.1811 41.6415 40.2174 41.3304C40.2263 41.2538 40.1483 41.401 40.1445 41.4332Z" fill="#F9A25A"/>
<path d="M48.721 36.3992C48.6423 36.6931 48.5537 36.9838 48.4537 37.2713C48.414 37.3852 48.465 37.2858 48.4831 37.2334C48.5915 36.922 48.6889 36.6076 48.7742 36.2891C48.7913 36.2252 48.727 36.3764 48.721 36.3992Z" fill="#F9A25A"/>
<path d="M48.3762 37.5742C48.2963 37.7657 48.1851 37.9378 48.0442 38.0899C48.0076 38.1295 48.0183 38.2123 47.9824 38.2512C48.1247 38.0975 48.2364 37.9231 48.317 37.7299C48.337 37.682 48.3605 37.6119 48.3762 37.5742Z" fill="#F9A25A"/>
<path d="M47.9845 37.3514C47.8101 37.7228 47.5521 38.0387 47.2334 38.2956C47.1965 38.3255 47.1884 38.4486 47.1816 38.4541C47.5349 38.1694 47.804 37.8151 47.9964 37.4053C48.0214 37.3514 48.0356 37.2423 47.9845 37.3514Z" fill="#F9A25A"/>
<path d="M47.8556 38.4319C47.6149 38.6738 47.3692 38.9128 47.0529 39.0524C47.0067 39.073 46.978 39.2277 47.0091 39.2139C47.3421 39.0668 47.6004 38.8168 47.8539 38.5619C47.8834 38.5326 47.9174 38.37 47.8556 38.4319Z" fill="#F9A25A"/>
<path d="M46.9327 38.7689C46.7594 38.9243 46.5616 39.0397 46.3411 39.1137C46.2952 39.1291 46.2634 39.2859 46.2962 39.2748C46.5236 39.1985 46.7289 39.079 46.9074 38.919C46.9348 38.8943 46.9571 38.8496 46.9597 38.8125C46.9607 38.798 46.9628 38.742 46.9327 38.7689Z" fill="#F9A25A"/>
<path d="M47.4965 39.2014C47.1624 39.4483 46.8259 39.6847 46.4009 39.7292C46.348 39.7348 46.3026 39.8981 46.3605 39.892C46.7916 39.8468 47.1398 39.6058 47.4797 39.3546C47.5191 39.3254 47.5498 39.1619 47.4965 39.2014Z" fill="#F9A25A"/>
<path d="M46.193 39.4649C45.8427 39.625 45.4929 39.7781 45.107 39.8256C45.0611 39.8313 45.0423 39.9872 45.0452 39.9868C45.4345 39.9388 45.7888 39.7857 46.1427 39.6239C46.183 39.6056 46.2013 39.4611 46.193 39.4649Z" fill="#F9A25A"/>
<path d="M48.4844 35.8651C48.4124 36.1087 48.3192 36.3439 48.2054 36.5709C48.1704 36.6406 48.2087 36.7463 48.2613 36.6415C48.3891 36.3869 48.4927 36.1232 48.5733 35.8499C48.6063 35.7379 48.5065 35.79 48.4844 35.8651Z" fill="#F9A25A"/>
<path d="M31.5882 35.5632C31.6633 36.1318 31.7466 36.6934 31.9693 37.226C31.9979 37.2946 32.0808 37.1495 32.0608 37.1015C31.8424 36.5795 31.759 36.0275 31.6853 35.4698C31.673 35.3758 31.5815 35.5118 31.5882 35.5632Z" fill="#F9A25A"/>
<path d="M32.1429 37.7185C32.2479 38.0502 32.4256 38.3418 32.6718 38.5875C32.6999 38.6156 32.7738 38.4661 32.7448 38.4371C32.4986 38.1914 32.3209 37.8998 32.216 37.5681C32.2103 37.5505 32.1279 37.671 32.1429 37.7185Z" fill="#F9A25A"/>
<path d="M32.2514 36.8236C32.3253 37.1739 32.4463 37.5046 32.616 37.82C32.6222 37.8316 32.7059 37.7066 32.6852 37.6682C32.5157 37.3528 32.3947 37.0224 32.3206 36.6719C32.3208 36.6722 32.2413 36.7763 32.2514 36.8236Z" fill="#F9A25A"/>
<path d="M33.0395 38.837C33.3303 39.095 33.6842 39.2441 34.0409 39.3874C34.0585 39.3945 34.1224 39.2341 34.1027 39.2262C33.7458 39.0831 33.3921 38.9337 33.1014 38.6758C33.101 38.6756 33.0117 38.8125 33.0395 38.837Z" fill="#F9A25A"/>
<path d="M48.0448 46.4306C48.4854 46.8084 48.7169 47.5382 48.9463 48.0571C49.2328 48.7051 49.4819 49.3679 49.7005 50.0417C49.696 50.0281 49.7787 49.9304 49.765 49.8882C49.5618 49.2619 49.3329 48.645 49.0713 48.0406C48.8283 47.4786 48.5807 46.6761 48.1066 46.2695C48.1099 46.2721 48.0203 46.4095 48.0448 46.4306Z" fill="#BC7222"/>
<path d="M48.291 47.4694C48.4968 47.919 48.6729 48.3789 48.8198 48.8511C48.8174 48.8433 48.8996 48.7416 48.8861 48.6981C48.739 48.2259 48.5631 47.766 48.3573 47.3164C48.3583 47.3188 48.2734 47.4309 48.291 47.4694Z" fill="#BC7222"/>
<path d="M48.2197 51.5244C48.652 51.9817 48.8082 52.7964 48.9916 53.3822C49.1877 54.0093 49.3502 54.6453 49.4862 55.2881C49.4824 55.2701 49.5605 55.1802 49.5508 55.1346C49.4041 54.4404 49.2259 53.7541 49.0087 53.0785C48.835 52.5383 48.6777 51.7823 48.2817 51.3633C48.2884 51.3705 48.1943 51.4974 48.2197 51.5244Z" fill="#914B0C"/>
<path d="M49.745 56.0539C49.8538 56.5834 49.9627 57.113 50.0716 57.6425C50.0718 57.6437 50.1512 57.5385 50.1414 57.4909C50.0324 56.9614 49.9237 56.4319 49.8147 55.9024C49.8146 55.9011 49.7351 56.0063 49.745 56.0539Z" fill="#914B0C"/>
<path d="M50.2516 58.5258C50.2926 58.9063 50.3333 59.2868 50.3742 59.6673C50.3792 59.7133 50.4567 59.5782 50.4524 59.5377C50.4115 59.1572 50.3708 58.7766 50.3298 58.3961C50.325 58.3502 50.2473 58.4852 50.2516 58.5258Z" fill="#914B0C"/>
<path d="M49.6351 57.0346C49.8337 57.6543 49.958 58.286 50.0099 58.9343C50.0134 58.9776 50.0904 58.8443 50.0871 58.8043C50.0345 58.148 49.9081 57.511 49.7073 56.8841C49.7025 56.8692 49.6201 56.988 49.6351 57.0346Z" fill="#914B0C"/>
<path d="M48.9844 54.7144C49.0544 55.1445 49.1428 55.5704 49.2495 55.9931C49.2496 55.9934 49.3301 55.8876 49.3185 55.8411C49.2116 55.4187 49.1234 54.9927 49.0535 54.5625C49.054 54.5661 48.9767 54.6663 48.9844 54.7144Z" fill="#914B0C"/>
<path d="M50.5129 60.5532C50.5491 60.9278 50.6009 61.2962 50.6095 61.6733C50.6114 61.757 50.6903 61.611 50.6895 61.5732C50.6805 61.1863 50.6292 60.8083 50.5921 60.4239C50.5874 60.3769 50.5087 60.5119 50.5129 60.5532Z" fill="#914B0C"/>
<path d="M50.0071 59.7284C50.0439 60.0713 50.0808 60.414 50.1176 60.7569C50.1145 60.7285 50.1855 60.6505 50.1804 60.6027C50.1435 60.2598 50.1067 59.9171 50.07 59.5742C50.0729 59.6025 50.0019 59.6806 50.0071 59.7284Z" fill="#914B0C"/>
<path d="M48.3562 52.5944C48.5134 53.0629 48.6402 53.5388 48.7367 54.0236C48.7343 54.0113 48.8123 53.9172 48.803 53.8706C48.7065 53.3858 48.5797 52.91 48.4225 52.4414C48.4247 52.4483 48.3418 52.5517 48.3562 52.5944Z" fill="#914B0C"/>
<path d="M34.7038 31.1914C34.6031 31.3219 34.5325 31.4897 34.4973 31.6449C34.4615 31.8024 34.4432 31.9672 34.4783 32.1249C34.5422 32.4134 34.8358 32.6321 35.1192 32.6861C35.4073 32.7412 35.7107 32.5931 35.8678 32.35C36.1932 31.8464 35.8151 31.2772 35.3552 31.0291C35.0798 30.8806 34.8569 30.993 34.7038 31.1914Z" fill="#341D09"/>
<path d="M43.8106 31.621C43.71 31.7516 43.6395 31.9194 43.6041 32.0746C43.5684 32.232 43.5503 32.3969 43.5851 32.5546C43.649 32.843 43.9427 33.0618 44.226 33.1158C44.5142 33.1709 44.8175 33.0228 44.9746 32.7797C45.3001 32.2761 44.922 31.7069 44.462 31.4588C44.1865 31.3103 43.9638 31.4227 43.8106 31.621Z" fill="#341D09"/>
<path d="M39.5415 33.6378C39.5547 33.9121 39.5831 34.2039 39.7183 34.4231C39.8535 34.6424 40.131 34.7401 40.2801 34.5518C40.3538 34.4589 40.3806 34.3209 40.4015 34.1894C40.4921 33.6174 40.5261 33.0276 40.5025 32.4387C40.493 32.2063 40.474 31.9701 40.406 31.7512C40.338 31.5325 40.2149 31.3305 40.047 31.235C39.9279 31.1673 39.6828 31.1344 39.6064 31.301C39.5412 31.4436 39.5724 31.7766 39.5631 31.9406C39.5307 32.504 39.5144 33.0706 39.5415 33.6378Z" fill="#F5884C"/>
<path d="M35.604 29.0218C36.0476 29.1383 36.4902 29.3448 36.9439 29.2775C36.9957 29.2697 37.0537 29.2536 37.0774 29.2072C37.1112 29.1409 37.0534 29.066 36.9973 29.0168C36.413 28.5052 35.5811 28.3871 34.8028 28.3949C34.4198 28.3987 34.005 28.4196 33.6484 28.5741C33.5126 28.633 33.0588 29.0045 33.3948 29.1466C33.5048 29.1932 33.7401 29.0466 33.8532 29.0169C34.0431 28.967 34.2385 28.9356 34.4342 28.9197C34.8261 28.8878 35.2237 28.9218 35.604 29.0218Z" fill="#341D09"/>
<path d="M46.1157 29.5179C46.5593 29.6344 47.0019 29.8409 47.4557 29.7736C47.5075 29.7658 47.5655 29.7497 47.5891 29.7033C47.623 29.637 47.5651 29.5621 47.509 29.5129C46.9246 29.0015 46.0928 28.8832 45.3145 28.891C44.9315 28.8948 44.5167 28.9157 44.1602 29.0702C44.0243 29.1291 43.5706 29.5006 43.9065 29.6427C44.0165 29.6893 44.2518 29.5427 44.3649 29.513C44.5548 29.4631 44.7503 29.4317 44.9459 29.4158C45.3378 29.3837 45.7354 29.4177 46.1157 29.5179Z" fill="#341D09"/>
<path opacity="0.3605" d="M45.4664 34.8075C45.743 34.8503 46.051 34.8605 46.2752 34.694C46.3602 34.6308 46.4311 34.5345 46.4242 34.4294C46.4182 34.3372 46.3528 34.257 46.273 34.2099C46.1932 34.1628 46.1003 34.1433 46.009 34.1272C45.6066 34.0563 45.1955 34.0354 44.7875 34.0618C44.5911 34.0746 43.8704 34.2415 44.3039 34.4672C44.6541 34.6493 45.0784 34.7475 45.4664 34.8075Z" fill="#F5884C"/>
<path opacity="0.3605" d="M34.3892 34.2875C34.1099 34.3041 33.8022 34.2853 33.5947 34.0983C33.5161 34.0275 33.4547 33.9248 33.4716 33.8207C33.4864 33.7295 33.5593 33.6558 33.6432 33.6165C33.7271 33.5769 33.8214 33.5664 33.9139 33.559C34.3213 33.5262 34.7326 33.5443 35.1361 33.609C35.3305 33.6403 36.0319 33.8744 35.5789 34.0581C35.2127 34.2067 34.7809 34.2644 34.3892 34.2875Z" fill="#F5884C"/>
<path d="M37.5353 37.582C38.1063 38.1265 38.9158 38.3703 39.7064 38.3957C40.4463 38.4195 41.2145 38.2553 41.8015 37.8068C42.3885 37.3581 42.7583 36.5936 42.6119 35.8716C42.606 35.8429 38.5569 35.642 38.1729 35.5935C37.594 35.5202 36.9331 35.1931 36.8615 35.9551C36.8059 36.548 37.1135 37.1796 37.5353 37.582Z" fill="#F5884C"/>
<path d="M44.5801 47.2422H37.6704V61.9544H44.5801V47.2422Z" fill="#CC842D"/>
<path d="M24.8288 47.878L23.9756 47.7194C23.5315 47.6368 23.2384 47.2099 23.3211 46.7657L24.1615 42.2466C24.2441 41.8025 24.671 41.5094 25.1151 41.5921L25.9683 41.7507C26.4124 41.8333 26.7055 42.2602 26.6228 42.7043L25.7824 47.2234C25.6998 47.6676 25.2729 47.9606 24.8288 47.878Z" fill="#F40033"/>
<path opacity="0.4892" d="M25.5905 44.9491C25.8656 46.0955 25.2238 47.4396 24.1572 47.9509C23.0906 48.4623 22.0029 47.9477 21.7277 46.8011C21.4527 45.6547 22.0944 44.3107 23.161 43.7993C24.2277 43.2879 25.3153 43.8027 25.5905 44.9491Z" fill="#723D20"/>
<path d="M25.3245 44.9257C25.5995 46.0721 24.9578 47.4162 23.8912 47.9275C22.8245 48.4389 21.7369 47.9243 21.4617 46.7777C21.1865 45.6311 21.8284 44.2872 22.895 43.7759C23.9618 43.2645 25.0495 43.7791 25.3245 44.9257Z" fill="#FFC78F"/>
<path d="M17.1804 33.8867C19.004 35.3038 20.9613 36.549 23.0178 37.6002C23.8062 38.0033 24.6118 38.3794 25.3504 38.8676C25.6398 39.0589 26.6092 39.6556 26.7363 39.9783C26.8369 40.2338 26.7716 40.481 26.7463 40.7545C26.6974 41.2785 26.6715 41.7332 26.5636 42.2482C26.4932 42.5842 26.527 42.5923 26.2758 42.8263C25.9978 43.0849 24.7833 43.2171 24.406 43.2608C21.8244 43.5607 17.8513 44.6822 15.2959 45.1562C15.4211 44.6567 16.9478 43.4231 17.0728 42.9236L17.1804 33.8867Z" fill="#FDC300"/>
<path d="M18.7685 38.4739C18.7633 38.5515 18.7581 38.6292 18.7529 38.7069C18.7218 39.1178 18.6666 39.5408 18.5872 39.9707C18.4698 40.6078 18.304 41.2086 18.1038 41.7628C18.0209 41.9959 17.9311 42.2186 17.8362 42.4327C17.0316 44.2386 15.8455 45.3625 14.7509 45.1588C13.2195 44.8739 12.453 42.0891 13.0383 38.9383C13.6235 35.7875 15.3414 33.4653 16.8728 33.7502C18.1573 33.9885 18.9031 35.9808 18.7685 38.4739Z" fill="#F47A00"/>
<path d="M43.9722 44.8945C45.8369 45.8139 47.7715 46.8187 49.1601 48.366C50.5487 49.9132 51.9445 51.5123 53.7422 52.5568C55.5398 53.6012 57.1898 47.3667 57.9998 45.8443" stroke="#CC842D" stroke-width="3.62561" stroke-miterlimit="10" stroke-linecap="round"/>
<path d="M61.177 43.4754C60.7521 44.7193 59.9219 45.8557 58.6073 45.8557C57.2928 45.8557 56.8106 44.6534 56.227 43.4754C55.2999 41.6039 55.8177 40.9406 57.3786 42.3218C57.459 42.3931 57.6058 42.4183 57.6375 42.185C57.7018 41.7144 57.6436 40.6849 58.0476 40.3144C59.0167 39.4261 61.9323 41.2645 61.177 43.4754Z" fill="#FFC78F"/>
<path d="M27.3786 43.1011L25.3178 42.7178C24.856 42.6318 24.5511 42.1878 24.6371 41.7259L24.9116 40.2499C24.9976 39.7881 25.4416 39.4832 25.9034 39.5692L27.9642 39.9525C28.426 40.0385 28.7309 40.4825 28.6449 40.9443L28.3704 42.4203C28.2844 42.8821 27.8404 43.187 27.3786 43.1011Z" fill="#F40033"/>
<path d="M26.6544 43.6066L24.31 43.1705C23.8482 43.0847 23.5433 42.6405 23.6293 42.1786L24.1398 39.4335C24.2256 38.9717 24.6698 38.6668 25.1316 38.7528L27.4762 39.1889C27.938 39.2747 28.2429 39.7189 28.157 40.1808L27.6464 42.9259C27.5605 43.3877 27.1164 43.6924 26.6544 43.6066Z" fill="#FDC300"/>
<path d="M39.3911 46.0634C39.5552 46.0634 39.6884 45.9302 39.6884 45.766C39.6884 45.6019 39.5552 45.4688 39.3911 45.4688C39.2269 45.4688 39.0938 45.6019 39.0938 45.766C39.0938 45.9302 39.2269 46.0634 39.3911 46.0634Z" fill="#723D20"/>
<path d="M39.6884 48.4653C39.6884 48.6295 39.5552 48.7626 39.3911 48.7626C39.2269 48.7626 39.0938 48.6295 39.0938 48.4653C39.0938 48.3011 39.2269 48.168 39.3911 48.168C39.5552 48.168 39.6884 48.3011 39.6884 48.4653Z" fill="#723D20"/>
<path d="M39.3911 51.4579C39.5552 51.4579 39.6884 51.3248 39.6884 51.1606C39.6884 50.9964 39.5552 50.8633 39.3911 50.8633C39.2269 50.8633 39.0938 50.9964 39.0938 51.1606C39.0938 51.3248 39.2269 51.4579 39.3911 51.4579Z" fill="#723D20"/>
<path d="M39.3911 53.8251C39.5552 53.8251 39.6884 53.692 39.6884 53.5278C39.6884 53.3636 39.5552 53.2305 39.3911 53.2305C39.2269 53.2305 39.0938 53.3636 39.0938 53.5278C39.0938 53.692 39.2269 53.8251 39.3911 53.8251Z" fill="#723D20"/>
<path d="M39.3911 56.1805C39.5552 56.1805 39.6884 56.0474 39.6884 55.8832C39.6884 55.719 39.5552 55.5859 39.3911 55.5859C39.2269 55.5859 39.0938 55.719 39.0938 55.8832C39.0938 56.0474 39.2269 56.1805 39.3911 56.1805Z" fill="#723D20"/>
<path d="M39.3911 58.5477C39.5552 58.5477 39.6884 58.4146 39.6884 58.2504C39.6884 58.0862 39.5552 57.9531 39.3911 57.9531C39.2269 57.9531 39.0938 58.0862 39.0938 58.2504C39.0938 58.4146 39.2269 58.5477 39.3911 58.5477Z" fill="#723D20"/>
<path d="M39.6884 60.6137C39.6884 60.7779 39.5552 60.911 39.3911 60.911C39.2269 60.911 39.0938 60.7779 39.0938 60.6137C39.0938 60.4495 39.2269 60.3164 39.3911 60.3164C39.5552 60.3164 39.6884 60.4495 39.6884 60.6137Z" fill="#723D20"/>
<path d="M41.5846 54.4648C41.6138 55.5834 41.6283 56.4987 42.5837 57.0812C43.5091 57.6453 44.6852 57.4842 45.7539 57.3043C46.3599 57.2023 47.0343 57.0578 47.3752 56.5466C47.668 56.1073 47.6199 55.5322 47.5512 55.0088C47.3395 53.3952 47.0399 51.7932 46.6544 50.2121C46.6057 50.0122 41.9522 50.5498 41.5566 50.6644C41.5725 50.8129 41.5642 53.6808 41.5846 54.4648Z" fill="#CE791D"/>
<path d="M16.4266 34.543C14.226 37.0244 13.3925 40.6482 14.288 43.8416" stroke="#DB5D07" stroke-width="0.172648" stroke-miterlimit="10"/>
<path d="M18.7686 38.4705C18.7634 38.5482 18.7582 38.6259 18.7531 38.7036C18.722 39.1145 18.6667 39.5375 18.5873 39.9674C18.4699 40.6045 18.3042 41.2053 18.1039 41.7595C17.9537 41.8562 17.788 41.9235 17.6067 41.9511C17.0352 42.0357 16.4551 41.6904 16.1495 41.1984C15.8422 40.7081 15.7749 40.0986 15.8319 39.5237C15.8836 38.9989 16.0632 38.4412 16.5017 38.1494C17.0283 37.7989 18.3542 37.8283 18.7375 38.4136C18.7496 38.4326 18.76 38.4516 18.7686 38.4705Z" fill="white"/>
<path d="M24.8789 28.832L26.4921 30.1271L26.3884 29.0383L27.4804 30.0328" stroke="white" stroke-width="0.172648" stroke-miterlimit="10"/>
<path d="M23.7632 36.2866L27.2572 35.173L25.5475 34.2592L28.0868 33.6211" stroke="white" stroke-width="0.172648" stroke-miterlimit="10"/>
<path d="M23.583 31.5547L27.0037 31.8582" stroke="white" stroke-width="0.172648" stroke-miterlimit="10"/>
<path d="M11.1699 36.1145L12.966 37.1411L12.6932 36.082L13.9273 36.8935" stroke="white" stroke-width="0.172648" stroke-miterlimit="10"/>
<path d="M10.7212 41.8435L13.4045 41.9882L12.4703 40.918L14.376 41.1403" stroke="white" stroke-width="0.172648" stroke-miterlimit="10"/>
<path d="M10.3706 38.5469L13.7535 39.1377" stroke="white" stroke-width="0.172648" stroke-miterlimit="10"/>
<path d="M54.8103 35.4594L52.9697 34.5148L54.0059 34.1654L52.6523 33.5742" stroke="white" stroke-width="0.172648" stroke-miterlimit="10"/>
<path d="M56.3498 28.4062L53.6808 30.9212L53.7114 28.9827L51.9214 30.8934" stroke="white" stroke-width="0.172648" stroke-miterlimit="10"/>
<path d="M55.065 32.3854L52.4502 32.375" stroke="white" stroke-width="0.172648" stroke-miterlimit="10"/>
</svg>
