<svg width="99" height="83" viewBox="0 0 99 83" fill="none" xmlns="http://www.w3.org/2000/svg">
<path d="M2.03516 50.0881C2.03516 50.0881 5.28115 56.9861 8.75815 58.3371C13.5671 60.2091 36.8172 59.3481 36.8172 59.3481C36.8172 59.3481 36.2561 66.5881 43.7991 67.6401C43.7991 67.6401 46.4182 82.0431 59.9472 82.0431C73.4762 82.0431 75.9762 66.8931 75.9762 66.8931C75.9762 66.8931 97.4841 71.5691 97.4841 54.5471C97.4841 37.5241 2.03516 50.0881 2.03516 50.0881Z" fill="#2B67C0"/>
<path d="M89.0318 35.8715C88.8588 35.8125 88.4928 35.7105 88.4928 35.7105L88.2078 35.6335L88.4778 35.4445C88.4778 35.4445 88.8308 35.1955 88.9868 35.0675C91.1658 33.2925 92.5728 30.5745 92.5728 27.5475C92.5728 22.1955 88.2308 17.8595 82.8798 17.8595C80.9128 17.8595 79.0978 18.4415 77.5618 19.4435C77.4518 19.5165 77.2448 19.6605 77.2448 19.6605L76.7448 20.0555L77.0928 19.4925C77.0928 19.4925 77.2438 19.2415 77.3098 19.1135C78.0178 17.7595 78.4198 16.2215 78.4198 14.5885C78.4198 9.24053 74.0868 4.90552 68.7318 4.90552C64.9458 4.90552 61.6588 7.08553 60.0738 10.2655C59.9928 10.4105 59.8478 10.7165 59.8478 10.7165L59.5878 11.4075L59.6538 10.6735C59.6538 10.6735 59.6738 10.2925 59.6738 10.1005C59.6738 4.66453 55.2698 0.269531 49.8428 0.269531C44.4118 0.269531 40.0128 4.66453 40.0128 10.1005C40.0128 10.2945 40.0308 10.6885 40.0308 10.6885L40.0978 11.4085L39.8558 10.7725C39.8558 10.7725 39.6958 10.4175 39.6098 10.2455C38.0218 7.08451 34.7438 4.90652 30.9518 4.90652C25.5958 4.90652 21.2608 9.24154 21.2608 14.5895C21.2608 16.2875 21.6968 17.8765 22.4548 19.2645C22.4858 19.2915 22.5158 19.3595 22.5158 19.3595L22.9418 20.0565L22.4038 19.6285C22.4038 19.6285 22.2808 19.5455 22.2168 19.5185C20.6708 18.4645 18.8018 17.8615 16.8098 17.8615C11.4568 17.8615 7.11783 22.1975 7.11783 27.5495C7.11783 30.8435 8.75782 33.7415 11.2638 35.4935C11.4268 35.6055 11.7548 35.8145 11.7548 35.8145L12.5248 36.2385L11.7308 36.1155C11.7308 36.1155 11.3538 36.0715 11.1668 36.0645C10.9858 36.0525 10.7918 36.0475 10.6118 36.0475C5.25783 36.0475 0.923828 40.3775 0.923828 45.7305C0.923828 51.0845 5.25683 55.4245 10.6118 55.4245H41.5288L41.7588 60.5565C41.7588 62.3515 44.9378 63.8395 47.0428 63.8395H47.4638C48.0298 63.8395 48.5818 63.7245 49.0918 63.5335V67.0035C49.0918 72.6585 53.6488 77.2825 59.3018 77.2825H61.6188C67.2718 77.2825 71.0898 72.6585 71.0898 67.0035V63.3135H84.7048C92.4678 63.3135 98.7628 57.0155 98.7628 49.2525C98.7588 43.0035 94.6788 37.6955 89.0318 35.8715Z" fill="#006EFF"/>
<path d="M59.7597 22.6786L56.7812 23.6211L57.7232 26.5976L60.7016 25.6551L59.7597 22.6786Z" fill="white"/>
<path d="M64.0762 25.3521L67.1752 25.7101L67.5272 22.606L64.4292 22.248L64.0762 25.3521Z" fill="white"/>
<path d="M70.4092 26.7865L73.0892 28.3765L74.6792 25.6915L71.9852 24.1055L70.4092 26.7865Z" fill="white"/>
<path d="M78.1363 28.8576L75.5879 30.666L77.394 33.2112L79.9424 31.4027L78.1363 28.8576Z" fill="white"/>
<path d="M78.7656 36.3425L79.3896 39.4065L82.4466 38.7865L81.8286 35.7305L78.7656 36.3425Z" fill="white"/>
<path d="M79.3547 42.8164L78.6797 45.8584L81.7287 46.5414L82.4027 43.4894L79.3547 42.8164Z" fill="white"/>
<path d="M77.2623 48.9609L75.4043 51.4649L77.9163 53.322L79.7713 50.809L77.2623 48.9609Z" fill="white"/>
<path d="M72.8463 53.7157L70.125 55.252L71.6598 57.9706L74.381 56.4343L72.8463 53.7157Z" fill="white"/>
<path d="M66.8886 56.2888L63.7793 56.582L64.0721 59.6863L67.1813 59.3931L66.8886 56.2888Z" fill="white"/>
<path d="M60.3924 56.1894L57.4384 55.1914L56.4434 58.1544L59.3994 59.1404L60.3924 56.1894Z" fill="white"/>
<path d="M52.2046 51.3365L50.0918 53.6309L52.3883 55.7457L54.5011 53.4513L52.2046 51.3365Z" fill="white"/>
<path d="M48.9514 45.6977L46.0938 46.9395L47.3387 49.8045L50.1963 48.5627L48.9514 45.6977Z" fill="white"/>
<path d="M48.3077 42.3746L48.3387 39.2526L45.2147 39.2246L45.1777 42.3496L48.3077 42.3746Z" fill="white"/>
<path d="M47.539 31.7671L46.2393 34.6035L49.0775 35.9041L50.3773 33.0678L47.539 31.7671Z" fill="white"/>
<path d="M52.6883 25.9634L50.3545 28.0312L52.4243 30.3673L54.7582 28.2995L52.6883 25.9634Z" fill="white"/>
<path d="M48.8741 45.6692C51.4791 53.9482 60.2901 58.5342 68.5641 55.9342C76.8391 53.3302 81.4401 44.5212 78.8351 36.2512C76.2291 27.9702 67.4161 23.3802 59.1461 25.9822C50.8721 28.5872 46.2741 37.3952 48.8741 45.6692ZM59.3621 42.3692C58.5821 39.8932 59.9581 37.2472 62.4441 36.4682C64.9231 35.6902 67.5671 37.0632 68.3481 39.5442C69.1271 42.0282 67.7511 44.6812 65.2721 45.4572C62.7851 46.2332 60.1441 44.8532 59.3621 42.3692Z" fill="white"/>
<path d="M54.9204 43.7694C56.4734 48.7034 61.7344 51.4434 66.6614 49.8944C71.5934 48.3474 74.3424 43.0814 72.7904 38.1504C71.2354 33.2184 65.9764 30.4714 61.0414 32.0234C56.1104 33.5764 53.3684 38.8414 54.9204 43.7694ZM59.3854 42.3694C58.6104 39.8964 59.9844 37.2714 62.4514 36.4994C64.9154 35.7254 67.5404 37.0884 68.3214 39.5554C69.0974 42.0294 67.7224 44.6544 65.2634 45.4314C62.7944 46.2094 60.1634 44.8394 59.3854 42.3694Z" fill="#2B67C0"/>
<path d="M33.6527 20.5556L30.8877 21.4238L31.7592 24.1993L34.5242 23.3311L33.6527 20.5556Z" fill="white"/>
<path d="M38.3584 23.647L40.9364 24.988L42.2694 22.425L39.7044 21.082L38.3584 23.647Z" fill="white"/>
<path d="M43.4033 27.952L44.2783 30.717L47.0443 29.847L46.1813 27.082L43.4033 27.952Z" fill="white"/>
<path d="M43.9388 34.5726L42.5889 37.1426L45.1536 38.4897L46.5035 35.9197L43.9388 34.5726Z" fill="white"/>
<path d="M39.6496 39.624L36.8809 40.4902L37.7456 43.2542L40.5143 42.3879L39.6496 39.624Z" fill="white"/>
<path d="M30.4585 38.8221L29.124 41.3867L31.6957 42.7249L33.0302 40.1603L30.4585 38.8221Z" fill="white"/>
<path d="M27.0972 33.062L24.335 33.9316L25.2058 36.6977L27.968 35.828L27.0972 33.062Z" fill="white"/>
<path d="M27.448 29.2322L28.781 26.6592L26.218 25.3242L24.877 27.8912L27.448 29.2322Z" fill="white"/>
<path d="M26.6888 34.7346C28.2508 39.7006 33.5518 42.4706 38.5228 40.9056C43.4958 39.3456 46.2588 34.0356 44.7028 29.0626C43.1358 24.0956 37.8318 21.3336 32.8578 22.8956C27.8848 24.4566 25.1218 29.7576 26.6888 34.7346ZM32.1578 33.0106C31.5348 31.0666 32.6268 28.9786 34.5798 28.3636C36.5338 27.7526 38.6208 28.8326 39.2318 30.7876C39.8448 32.7446 38.7568 34.8256 36.8048 35.4386C34.8448 36.0576 32.7668 34.9686 32.1578 33.0106Z" fill="white"/>
</svg>
