<svg width="70" height="60" viewBox="0 0 70 60" fill="none" xmlns="http://www.w3.org/2000/svg">
<path d="M29.6892 1.60156C13.5625 1.60156 0.490234 14.6745 0.490234 30.8C0.490234 46.9261 13.5631 59.999 29.6892 59.999C45.8153 59.999 58.8876 46.9261 58.8876 30.8C58.8876 14.6745 45.8147 1.60156 29.6892 1.60156ZM29.6892 36.2012C26.7061 36.2012 24.288 33.7831 24.288 30.8C24.288 27.8175 26.7061 25.3993 29.6892 25.3993C32.6723 25.3993 35.0898 27.8175 35.0898 30.8C35.0898 33.7831 32.6717 36.2012 29.6892 36.2012Z" fill="#5E5E5E"/>
<path d="M29.6894 17.625C22.4102 17.625 16.5098 23.5254 16.5098 30.8034C16.5098 38.0821 22.4102 43.9825 29.6894 43.9825C36.9674 43.9825 42.8684 38.0821 42.8684 30.8034C42.8678 23.5254 36.9668 17.625 29.6894 17.625ZM29.6894 35.8912C26.8801 35.8912 24.6017 33.6133 24.6017 30.8034C24.6017 27.9942 26.8801 25.7163 29.6894 25.7163C32.4987 25.7163 34.7759 27.9942 34.7759 30.8034C34.7759 33.6133 32.4987 35.8912 29.6894 35.8912Z" fill="#006EFF"/>
<path d="M69.5484 12.2168C69.5484 13.2678 68.6954 14.1209 67.6437 14.1209H62.4082C61.3577 14.1209 60.5054 13.2678 60.5054 12.2168V1.9041C60.5054 0.852405 61.3577 0 62.4082 0H67.6437C68.6954 0 69.5484 0.852405 69.5484 1.9041V12.2168Z" fill="#DBDBDA"/>
<path d="M47.5508 36.9409C47.1976 36.9409 46.8505 36.7683 46.6419 36.4498C46.3141 35.9488 46.4544 35.2758 46.9554 34.9474L54.3924 30.0764L64.0221 6.64549C64.2499 6.09108 64.8844 5.8266 65.4382 6.05445C65.9926 6.28229 66.2571 6.91679 66.0299 7.47057L56.2716 31.2125C56.1891 31.4149 56.0463 31.5875 55.8631 31.7079L48.1449 36.7633C47.9618 36.8838 47.7551 36.9409 47.5508 36.9409Z" fill="#231F20"/>
</svg>
