<svg width="82" height="60" viewBox="0 0 82 60" fill="none" xmlns="http://www.w3.org/2000/svg">
<path d="M56.4299 0C70.4049 0 81.7342 10.4858 81.7342 23.4202C81.7342 33.1909 75.269 41.5626 66.0825 45.0745C67.663 47.992 69.9414 51.2052 72.6564 52.1601C72.6564 52.1601 64.032 50.6638 57.4219 46.8209C57.0924 46.8325 56.7621 46.8403 56.4299 46.8403C42.4548 46.8403 31.1255 36.3549 31.1255 23.4202C31.1255 10.4858 42.4548 0 56.4299 0Z" fill="#506C82"/>
<path d="M28.4104 1.4375C12.7198 1.4375 0 13.2101 0 27.7324C0 38.7023 7.25858 48.1018 17.5726 52.0444C15.7978 55.3203 13.2401 58.9276 10.1921 59.9998C10.1921 59.9998 19.8751 58.3196 27.2965 54.005C27.6661 54.0183 28.0369 54.0268 28.4104 54.0268C44.1011 54.0268 56.8208 42.2542 56.8208 27.732C56.8208 13.2105 44.1011 1.4375 28.4104 1.4375Z" fill="#FFFFFA"/>
<path d="M29.2181 39.1276C44.2798 35.4626 38.1367 22.0944 38.8377 21.773C39.5388 21.4517 42.0594 18.8641 42.0594 18.8641C42.0594 18.8641 39.7748 19.6103 36.6458 16.9981C32.0403 13.1528 26.375 17.1512 26.5129 23.6741C26.5129 23.6741 13.2105 23.5853 10.5792 19.8864C10.5792 19.8864 13.9372 25.9369 18.547 27.6323C18.547 27.6323 13.0831 27.5941 11.926 26.0958C11.926 26.0958 14.965 30.211 19.8144 31.4838C19.8144 31.4838 16.8419 32.1015 13.4628 30.9105C13.4628 30.9105 17.9129 33.821 21.3204 34.295C21.3204 34.295 17.6602 37.6631 10.314 37.9751C10.314 37.9751 18.5229 41.7296 29.2181 39.1276Z" fill="#506C82"/>
<path d="M34.3614 19.152C34.3029 18.8307 33.9953 18.6172 33.6739 18.6756C33.3526 18.7341 33.1392 19.0417 33.1976 19.3631C33.256 19.6844 33.5637 19.8978 33.885 19.8394C34.2063 19.781 34.4194 19.4733 34.3614 19.152Z" fill="#FFFFFA"/>
</svg>
