<svg width="40" height="40" viewBox="0 0 40 40" fill="none" xmlns="http://www.w3.org/2000/svg">
<path d="M19.773 39.7317C18.4506 40.0843 17.1025 39.2572 16.7616 37.8842L12.7126 21.5763C12.3718 20.2035 13.1675 18.8049 14.4899 18.4523C15.8121 18.0999 17.1604 18.927 17.5013 20.2998L21.5503 36.6077C21.8909 37.9807 21.0952 39.3793 19.773 39.7317Z" fill="#19B5FF"/>
<path d="M14.8828 18.3839C15.6613 18.6464 16.2987 19.3015 16.5182 20.1851L20.567 36.493C20.9078 37.8658 20.1122 39.2643 18.7899 39.6169C18.6596 39.6516 18.5291 39.6717 18.3992 39.6843C18.8303 39.8295 19.3041 39.8561 19.7752 39.7306C21.0977 39.378 21.8933 37.9794 21.5523 36.6066L17.5035 20.2987C17.1963 19.0612 16.0704 18.2702 14.8828 18.3839Z" fill="#148AD0"/>
<path d="M19.1588 39.9982C17.9776 39.9982 16.8972 39.1713 16.5892 37.9301L12.5402 21.6222C12.364 20.913 12.4633 20.1747 12.8198 19.5433C13.1795 18.906 13.7572 18.454 14.4461 18.2702C15.8606 17.8932 17.3092 18.782 17.674 20.2518L21.7228 36.5596C21.899 37.2688 21.7997 38.0073 21.4432 38.6386C21.0835 39.2756 20.5061 39.7278 19.8171 39.9114C19.5973 39.97 19.3762 39.9982 19.1588 39.9982ZM15.1048 18.5571C14.9162 18.5571 14.7249 18.5813 14.5342 18.6322C13.9379 18.7911 13.4382 19.1822 13.1272 19.7331C12.8194 20.2784 12.7336 20.9159 12.8856 21.528L16.9346 37.8359C17.2502 39.1072 18.5036 39.8763 19.7294 39.5492C20.3257 39.3903 20.8254 38.9994 21.1365 38.4483C21.4442 37.903 21.53 37.2655 21.378 36.6529L17.3292 20.345C17.0622 19.272 16.127 18.5571 15.1048 18.5571Z" fill="#17266B"/>
<path d="M11.5778 27.3361L11.5675 27.34C10.5822 27.7203 9.47258 27.2006 9.10175 26.1847L8.34291 24.1065C7.97187 23.0906 8.47465 21.9483 9.45976 21.568L9.4699 21.5641C10.4552 21.1838 11.5648 21.7035 11.9357 22.7194L12.6945 24.7974C13.0657 25.8133 12.5632 26.9555 11.5778 27.3361Z" fill="#148AD0"/>
<path d="M10.9004 27.6518C10.0524 27.6518 9.25238 27.1167 8.93635 26.2515L8.17751 24.1732C7.98227 23.6385 8.00006 23.0556 8.22736 22.5315C8.45797 21.9999 8.8741 21.5955 9.39943 21.3929C10.4888 20.9721 11.697 21.5393 12.1039 22.6528L12.8627 24.7308C13.0579 25.2655 13.0402 25.8484 12.8129 26.3725C12.5825 26.9039 12.1663 27.308 11.6414 27.5108L11.6319 27.5147C11.3909 27.6078 11.1436 27.6518 10.9004 27.6518ZM10.1411 21.6252C9.93883 21.6252 9.73345 21.6618 9.53325 21.7391C9.08795 21.9109 8.74338 22.2458 8.55248 22.6857C8.36489 23.1184 8.35001 23.5991 8.51092 24.0396L9.26975 26.1177C9.60688 27.0409 10.6102 27.5104 11.5072 27.1645L11.5173 27.1604C11.9525 26.9924 12.297 26.6575 12.4877 26.2177C12.6753 25.785 12.6902 25.3042 12.5293 24.8637L11.7705 22.7857C11.5086 22.0687 10.8445 21.6252 10.1411 21.6252Z" fill="#17266B"/>
<path d="M37.0531 28.1829L33.3776 27.7128C28.3669 27.0718 23.3028 27.0222 18.2832 27.5651L15.4077 27.876L12.6094 18.7603L15.1301 17.3236C19.5444 14.8079 23.6645 11.7804 27.4108 8.30035L30.1642 5.74219L37.0531 28.1829Z" fill="white"/>
<path d="M30.1639 5.74219L27.4104 8.30035C27.0553 8.63024 26.6938 8.9519 26.332 9.27357C26.2861 11.8657 26.7798 15.1516 27.8375 18.5966C28.973 22.296 30.5384 25.4607 32.1397 27.5677C32.5525 27.6125 32.9651 27.6597 33.3773 27.7123L37.0528 28.1825L30.1639 5.74219Z" fill="#F4CB11"/>
<path d="M37.0517 28.1815L36.6929 27.0128C35.3345 25.5647 34.1109 24.4209 33.6819 24.4787C32.5428 24.6323 21.0342 25.5586 16.6959 26.2541C16.0682 26.3547 15.4946 26.4173 14.9697 26.4524L15.4063 27.8747L18.2818 27.5639C23.3014 27.021 28.3655 27.0706 33.3763 27.7115L37.0517 28.1815Z" fill="#85D8FF"/>
<path d="M15.6138 24.3756L14.7331 21.5066C14.2554 19.9503 14.5817 18.3339 15.4678 17.125C15.354 17.1908 15.2423 17.2601 15.1279 17.3252L12.4729 18.6374C10.595 19.2463 9.55424 21.3094 10.1486 23.2455L10.8885 25.6556C11.4827 27.5916 13.487 28.6672 15.365 28.0583L18.2808 27.5663C18.408 27.5525 18.5354 27.5436 18.6624 27.5306C17.2617 27.0633 16.0917 25.932 15.6138 24.3756Z" fill="#F4CB11"/>
<path d="M16.6981 26.2596C13.6874 26.7423 11.8839 26.3717 11.0615 26.0996C11.8055 27.7521 13.6388 28.6218 15.368 28.0612L18.2838 27.5692C18.411 27.5553 18.5384 27.5465 18.6654 27.5335C17.9211 27.2852 17.2431 26.8475 16.6981 26.2596Z" fill="#D6B20F"/>
<path d="M30.3838 24.7936C30.9079 25.8199 31.4444 26.758 31.9565 27.5475C32.4303 27.5975 32.9039 27.6509 33.3772 27.7113L37.0526 28.1815L36.6938 27.0128C35.3354 25.5647 34.112 24.4209 33.6829 24.4787C33.3443 24.5241 32.0915 24.638 30.3838 24.7936Z" fill="#D6B20F"/>
<path d="M14.301 28.4159C12.7093 28.4159 11.2274 27.36 10.7219 25.714L9.98208 23.3039C9.68239 22.3275 9.76656 21.2885 10.2191 20.3782C10.677 19.4572 11.4553 18.7779 12.4114 18.4643L15.0553 17.1577C15.1068 17.1278 15.167 17.0921 15.2271 17.0562C15.2797 17.0248 15.332 16.9934 15.3852 16.9629C19.6637 14.4904 23.6703 11.5299 27.2937 8.16366L30.0473 5.60571C30.0924 5.56372 30.1545 5.54857 30.2128 5.56523C30.2709 5.5819 30.317 5.62801 30.3356 5.68819L37.2243 28.1285C37.243 28.1891 37.2308 28.2555 37.1919 28.3045C37.1532 28.3536 37.0924 28.3785 37.0328 28.3709L33.3573 27.9008C28.3669 27.2628 23.3018 27.2131 18.3028 27.7536L15.4094 28.2419C15.0408 28.3599 14.6679 28.4159 14.301 28.4159ZM30.0792 6.07479L27.5303 8.44268C23.8873 11.8271 19.859 14.8037 15.557 17.2895C15.5057 17.3192 15.4549 17.3495 15.404 17.38C15.3417 17.417 15.2797 17.4543 15.2166 17.4902L12.5525 18.8071C12.5448 18.811 12.5372 18.8141 12.5291 18.8167C11.659 19.0989 10.951 19.7146 10.5355 20.5503C10.1273 21.3714 10.0514 22.3087 10.3219 23.1894L11.0617 25.5995C11.6253 27.4354 13.5339 28.459 15.3155 27.8811C15.3235 27.8785 15.3316 27.8765 15.3399 27.875L18.2534 27.3834C23.291 26.8384 28.3832 26.8884 33.4 27.5297L36.7987 27.9644L30.0792 6.07479Z" fill="#17266B"/>
<path d="M38.5007 15.3759C40.4575 21.7505 40.22 27.5095 37.9704 28.239C35.7206 28.9685 32.3107 24.3922 30.3537 18.0176C28.3969 11.643 28.6344 5.88401 30.884 5.15453C33.1338 4.42505 36.5439 9.00129 38.5007 15.3759Z" fill="#19B5FF"/>
<path d="M30.8847 5.15453C30.1788 5.38354 29.6712 6.10805 29.3672 7.19101C29.5825 6.95788 29.828 6.79164 30.1041 6.70202C32.3539 5.97254 35.7639 10.5488 37.7208 16.9234C39.0637 21.2977 39.3729 25.3817 38.708 27.7502C40.2455 26.0852 40.2178 20.9678 38.5014 15.3759C36.5444 9.00129 33.1343 4.42505 30.8847 5.15453Z" fill="#148AD0"/>
<path d="M33.6731 16.2258C32.987 14.3134 31.0973 13.2887 29.4518 13.9365C29.3821 13.964 29.3146 13.995 29.248 14.0274C29.4741 15.2617 29.8321 16.6083 30.3411 18.0272C30.7264 19.1016 31.1508 20.0854 31.5972 20.9705C31.7109 20.9417 31.8241 20.906 31.9359 20.8618C33.5814 20.2137 34.3591 18.1383 33.6731 16.2258Z" fill="#85D8FF"/>
<path d="M31.4013 20.2724C33.0466 19.6243 33.8244 17.5487 33.1384 15.6364C32.9988 15.247 32.8085 14.8951 32.5812 14.5859C31.7018 13.8032 30.525 13.5138 29.4518 13.9366C29.3821 13.964 29.3146 13.995 29.248 14.0275C29.4739 15.2617 29.8321 16.6084 30.3411 18.0273C30.634 18.8438 30.9496 19.6075 31.2799 20.3157C31.3204 20.3019 31.361 20.2882 31.4013 20.2724Z" fill="white"/>
<path d="M11.3902 22.6721C11.3141 22.6721 11.2437 22.6205 11.2199 22.5407C11.1908 22.4422 11.2435 22.3376 11.3374 22.3071L13.4334 21.6274C13.5271 21.5973 13.6274 21.6519 13.6565 21.7504C13.6857 21.8488 13.633 21.9534 13.5391 21.9839L11.4431 22.6636C11.4255 22.6692 11.4077 22.6721 11.3902 22.6721Z" fill="#17266B"/>
<path d="M11.7329 23.7971C11.6568 23.7971 11.5863 23.7455 11.5627 23.6657C11.5336 23.5672 11.5863 23.4626 11.6802 23.4321L13.7762 22.7524C13.8701 22.7223 13.9704 22.7769 13.9993 22.8754C14.0285 22.9738 13.9757 23.0784 13.8818 23.1089L11.7859 23.7886C11.7683 23.7942 11.7505 23.7971 11.7329 23.7971Z" fill="#17266B"/>
<path d="M12.0816 24.9182C12.0055 24.9182 11.9351 24.8666 11.9114 24.7868C11.8822 24.6883 11.9349 24.5837 12.0288 24.5532L14.1248 23.8735C14.2189 23.8434 14.3188 23.898 14.348 23.9965C14.3771 24.0949 14.3244 24.1995 14.2305 24.23L12.1345 24.9097C12.1169 24.9156 12.0992 24.9182 12.0816 24.9182Z" fill="#17266B"/>
<path d="M37.4787 28.5025C35.1428 28.5025 32.0535 24.1578 30.186 18.0746C28.6938 13.213 28.4332 8.45387 29.5379 6.23188C29.8665 5.5708 30.3025 5.14826 30.8334 4.97596C33.2137 4.20427 36.6557 8.74761 38.6729 15.3186C40.1651 20.1799 40.4257 24.939 39.3211 27.1613C38.9924 27.8226 38.5564 28.2451 38.0253 28.4172C37.8489 28.4743 37.6661 28.5025 37.4787 28.5025ZM31.3751 5.26494C31.2245 5.26494 31.0793 5.28702 30.9391 5.33247C30.5023 5.47404 30.1374 5.83467 29.8543 6.40397C28.7908 8.54327 29.0607 13.1873 30.5259 17.9603C32.4173 24.1213 35.803 28.7469 37.9198 28.0604C38.3566 27.9189 38.7217 27.5583 39.0046 26.9887C40.0681 24.8492 39.7982 20.2052 38.3331 15.4324C36.567 9.67949 33.4971 5.26494 31.3751 5.26494Z" fill="#17266B"/>
<path d="M2.56291 0.216797H16.2448C17.5455 0.216797 18.5997 1.32033 18.5997 2.68145V5.07185V7.46225V12.2844C18.5997 12.5355 18.5008 12.7753 18.3266 12.9476C17.944 13.326 17.3306 13.2661 17.0216 12.8199L15.0185 9.92711H2.56291C1.26219 9.92711 0.208008 8.82358 0.208008 7.46246V2.68145C0.207801 1.32033 1.26219 0.216797 2.56291 0.216797Z" fill="#3EDB80"/>
<path d="M17.7265 13.4133C17.6932 13.4133 17.6597 13.4118 17.6262 13.4086C17.317 13.3783 17.0353 13.2101 16.8531 12.9469L14.9118 10.1435H2.56173C1.14912 10.1435 0 8.94057 0 7.46235V2.68133C0 1.20289 1.14933 0 2.56173 0H16.2436C17.656 0 18.8053 1.20289 18.8053 2.68133V12.2843C18.8053 12.5934 18.6822 12.8928 18.4676 13.1051C18.2663 13.3038 18.0007 13.4133 17.7265 13.4133ZM2.56173 0.433142C1.37725 0.433142 0.413649 1.44186 0.413649 2.68154V7.46235C0.413649 8.70203 1.37725 9.71053 2.56173 9.71053H15.0173C15.0835 9.71053 15.1457 9.74387 15.1846 9.79993L17.1877 12.6927C17.3002 12.8551 17.474 12.9588 17.6645 12.9774C17.8564 12.9964 18.0442 12.9278 18.1832 12.7902C18.3155 12.6592 18.3914 12.4748 18.3914 12.2841V2.68133C18.3914 1.44164 17.4278 0.432926 16.2434 0.432926L2.56173 0.433142Z" fill="#17266B"/>
<path d="M7.29654 6.13947L7.14452 5.72127H5.85083L5.69882 6.14857C5.63946 6.31524 5.58879 6.42759 5.5468 6.48603C5.50482 6.54426 5.43615 6.57348 5.3406 6.57348C5.25953 6.57348 5.18796 6.54253 5.12571 6.4804C5.06346 6.41828 5.03223 6.34793 5.03223 6.26914C5.03223 6.22368 5.03946 6.17671 5.05394 6.12822C5.06842 6.07973 5.0922 6.01241 5.12571 5.92604L5.93977 3.76293C5.96294 3.7008 5.99086 3.62634 6.02333 3.5391C6.0558 3.45209 6.09054 3.37979 6.12736 3.32221C6.16438 3.26463 6.21278 3.21809 6.27296 3.18237C6.33294 3.14666 6.40719 3.12891 6.4955 3.12891C6.58527 3.12891 6.66014 3.14666 6.72012 3.18237C6.78009 3.21809 6.8287 3.26376 6.86551 3.31983C6.90254 3.37589 6.93356 3.43607 6.959 3.50036C6.98423 3.56486 7.0165 3.6508 7.05559 3.75816L7.88702 5.90764C7.95217 6.07129 7.98484 6.19013 7.98484 6.26437C7.98484 6.34165 7.95403 6.41243 7.8926 6.47672C7.83118 6.54101 7.75693 6.57327 7.67006 6.57327C7.61939 6.57327 7.57596 6.56396 7.53976 6.54491C7.50357 6.52586 7.47316 6.5001 7.44855 6.46763C7.42394 6.43516 7.39747 6.38516 7.36934 6.31762C7.341 6.25052 7.31681 6.19099 7.29654 6.13947ZM6.02001 5.21474H6.971L6.49116 3.8402L6.02001 5.21474Z" fill="#17266B"/>
<path d="M8.85716 3.1875H9.69727C9.91589 3.1875 10.1033 3.20871 10.2596 3.25114C10.4158 3.29357 10.5577 3.37301 10.6851 3.48968C11.0166 3.78667 11.1823 4.238 11.1823 4.84388C11.1823 5.04389 11.1657 5.22637 11.1322 5.39153C11.0989 5.55669 11.0476 5.7054 10.9781 5.83809C10.9086 5.97057 10.8197 6.08919 10.7111 6.19374C10.6257 6.27405 10.5324 6.33834 10.4311 6.38682C10.3297 6.43531 10.2208 6.4693 10.1043 6.48921C9.98766 6.50891 9.85633 6.51865 9.71031 6.51865H8.87019C8.75292 6.51865 8.6646 6.50003 8.60524 6.46302C8.54588 6.426 8.50721 6.37362 8.48901 6.3063C8.47102 6.23898 8.46191 6.15153 8.46191 6.04395V3.60094C8.46191 3.4557 8.49294 3.35028 8.5554 3.28512C8.61765 3.21997 8.71817 3.1875 8.85716 3.1875ZM9.10679 3.7213V5.98204H9.59531C9.70245 5.98204 9.78621 5.97901 9.84701 5.97295C9.90782 5.96689 9.9707 5.95173 10.0359 5.92749C10.101 5.90325 10.1575 5.86904 10.2052 5.82532C10.421 5.6344 10.5287 5.30581 10.5287 4.83911C10.5287 4.51031 10.4813 4.26419 10.3864 4.10076C10.2915 3.93711 10.1748 3.83299 10.0359 3.7884C9.89707 3.74359 9.72912 3.7213 9.53223 3.7213H9.10679Z" fill="#17266B"/>
<path d="M14.1667 5.51693C14.1667 5.71845 14.1171 5.89942 14.018 6.05982C13.919 6.22022 13.7738 6.3462 13.5829 6.43711C13.3918 6.52781 13.1653 6.57327 12.9035 6.57327C12.5893 6.57327 12.3303 6.51114 12.1262 6.38711C11.9814 6.29771 11.8638 6.17844 11.7734 6.0293C11.6828 5.88015 11.6377 5.73512 11.6377 5.5942C11.6377 5.5126 11.665 5.44246 11.7192 5.38402C11.7736 5.32557 11.8427 5.29657 11.9264 5.29657C11.9945 5.29657 12.052 5.3193 12.0991 5.36475C12.1463 5.41021 12.1862 5.47753 12.2197 5.56693C12.2602 5.673 12.3041 5.76153 12.351 5.83296C12.398 5.90418 12.4642 5.96284 12.5496 6.00895C12.635 6.05505 12.7471 6.07822 12.8861 6.07822C13.077 6.07822 13.2323 6.03168 13.3519 5.93838C13.4712 5.8453 13.531 5.72906 13.531 5.58966C13.531 5.47905 13.4987 5.38943 13.4344 5.32038C13.3701 5.25154 13.2867 5.19873 13.1847 5.16258C13.0828 5.12621 12.9463 5.08768 12.7754 5.04677C12.5469 4.99071 12.3554 4.92512 12.2013 4.85022C12.0472 4.77532 11.925 4.67315 11.8346 4.54349C11.744 4.41405 11.6989 4.253 11.6989 4.06056C11.6989 3.87722 11.7467 3.71444 11.8422 3.57201C11.9378 3.42979 12.076 3.32026 12.2569 3.24363C12.4379 3.16722 12.6505 3.12891 12.8952 3.12891C13.0904 3.12891 13.2594 3.15423 13.4021 3.2051C13.5446 3.25575 13.6629 3.32329 13.757 3.40728C13.8511 3.49127 13.9198 3.57958 13.9632 3.67201C14.0067 3.76444 14.0284 3.85449 14.0284 3.94237C14.0284 4.02268 14.0013 4.09498 13.9469 4.15927C13.8925 4.22378 13.8249 4.25581 13.744 4.25581C13.6702 4.25581 13.6141 4.23655 13.5758 4.1978C13.5374 4.15905 13.4958 4.09585 13.4509 4.00818C13.393 3.88241 13.3235 3.78436 13.2424 3.71401C13.1614 3.64366 13.0313 3.60837 12.8518 3.60837C12.6853 3.60837 12.551 3.64669 12.4491 3.7231C12.3471 3.79973 12.296 3.89151 12.296 3.99909C12.296 4.06576 12.3134 4.12334 12.3481 4.17183C12.3827 4.22031 12.4305 4.26187 12.4913 4.29672C12.5521 4.33158 12.6137 4.35885 12.6757 4.37855C12.738 4.39825 12.8408 4.42704 12.9841 4.46492C13.1636 4.50886 13.326 4.55735 13.4714 4.61016C13.6168 4.6632 13.7407 4.72749 13.8427 4.80346C13.9446 4.87923 14.0242 4.9749 14.0815 5.09093C14.1382 5.20673 14.1667 5.34874 14.1667 5.51693Z" fill="#17266B"/>
</svg>
