<svg width="40" height="40" viewBox="0 0 40 40" fill="none" xmlns="http://www.w3.org/2000/svg">
<path d="M39.6596 27.8789L37.7371 26.437C37.8589 25.8937 37.9251 25.3294 37.9251 24.7506C37.9251 24.1719 37.8589 23.6076 37.7371 23.0647L39.6596 21.6228C39.9962 21.3701 40.0956 20.9074 39.8999 20.5767L38.5865 18.3653C38.3899 18.0342 37.9281 17.8881 37.535 18.045L35.2899 18.9432C34.4358 18.1853 33.4153 17.6037 32.2861 17.2557L31.9635 14.9171C31.9062 14.5076 31.545 14.1914 31.1519 14.1914H28.5268C28.1337 14.1914 27.7725 14.5076 27.716 14.9171L27.3934 17.2557C26.2642 17.6037 25.2437 18.1853 24.3897 18.9432L22.1445 18.045C21.7514 17.8885 21.2887 18.0347 21.0922 18.3653L19.7796 20.5767C19.5831 20.907 19.6833 21.3697 20.0199 21.622L21.9424 23.0639C21.8198 23.6072 21.7544 24.1715 21.7544 24.7502C21.7544 25.329 21.8198 25.8933 21.9424 26.4365L20.0199 27.8785C19.6841 28.1311 19.5831 28.5935 19.7796 28.9241L21.093 31.1355C21.2896 31.4662 21.7514 31.6127 22.1445 31.4555L24.3897 30.5576C25.2437 31.3155 26.2642 31.8972 27.3934 32.2452L27.716 34.5837C27.7733 34.9932 28.1346 35.309 28.5268 35.3094L31.1527 35.309C31.545 35.309 31.907 34.9932 31.9635 34.5837L32.2861 32.2452C33.4153 31.8972 34.4358 31.3155 35.2899 30.5576L37.535 31.4555C37.9281 31.6127 38.3908 31.4658 38.5873 31.1351L39.8999 28.9241C40.0956 28.5935 39.9962 28.1311 39.6596 27.8789ZM29.8398 28.3627C27.7886 28.3627 26.1263 26.7453 26.1263 24.7506C26.1263 22.7559 27.7886 21.1386 29.8398 21.1386C31.8918 21.1386 33.5541 22.7559 33.5541 24.7506C33.5541 26.7453 31.8918 28.3627 29.8398 28.3627Z" fill="url(#paint0_linear_646_2701)"/>
<path d="M29.8398 18.7051C26.4065 18.7051 23.623 21.4123 23.623 24.7507C23.623 28.089 26.4065 30.7967 29.8398 30.7967C33.2731 30.7967 36.0565 28.089 36.0565 24.7507C36.0565 21.4119 33.2731 18.7051 29.8398 18.7051ZM29.8398 28.4721C27.7271 28.4721 26.0134 26.8056 26.0134 24.7507C26.0134 22.6957 27.7271 21.0292 29.8398 21.0292C31.9533 21.0292 33.667 22.6957 33.667 24.7507C33.667 26.8056 31.9533 28.4721 29.8398 28.4721Z" fill="url(#paint1_linear_646_2701)"/>
<path d="M29.839 18.8828C26.5076 18.8828 23.8057 21.5103 23.8057 24.7509C23.8057 27.9914 26.5076 30.6181 29.839 30.6181C33.1713 30.6181 35.8732 27.9914 35.8732 24.7509C35.8732 21.5103 33.1713 18.8828 29.839 18.8828ZM29.839 27.7603C28.1304 27.7603 26.7449 26.4129 26.7449 24.7509C26.7449 23.0889 28.1304 21.7415 29.839 21.7415C31.5485 21.7415 32.934 23.0889 32.934 24.7509C32.934 26.4129 31.5485 27.7603 29.839 27.7603Z" fill="#FF9705"/>
<path d="M26.195 13.6871L24.2733 12.2447C24.3952 11.7015 24.4614 11.1376 24.4614 10.5584C24.4614 9.98006 24.3952 9.41575 24.2733 8.87249L26.195 7.43055C26.5316 7.17833 26.6318 6.71556 26.4361 6.38449L25.1227 4.17349C24.9262 3.84325 24.4643 3.6967 24.0713 3.85398L21.8253 4.75184C20.972 3.99351 19.9507 3.41227 18.8224 3.06386L18.4989 0.7253C18.4425 0.315794 18.0812 0 17.6881 0H15.0639C14.6708 0 14.3087 0.315794 14.2531 0.7253L13.9296 3.06386C12.8013 3.41227 11.7804 3.99351 10.9268 4.75184L8.68161 3.85398C8.28853 3.6967 7.82582 3.84366 7.62928 4.1739L6.31674 6.38491C6.1202 6.71598 6.22038 7.17833 6.55701 7.43055L8.47955 8.87249C8.35687 9.41575 8.2915 9.98006 8.2915 10.5584C8.2915 11.1376 8.35687 11.7015 8.47955 12.2447L6.55701 13.6871C6.22038 13.9393 6.1202 14.4021 6.31674 14.7327L7.62928 16.9437C7.82582 17.2744 8.28853 17.4209 8.68161 17.2636L10.9268 16.3654C11.7809 17.1237 12.8013 17.7049 13.9296 18.0534L14.2531 20.3919C14.3096 20.801 14.6708 21.1172 15.0639 21.118L17.6894 21.1172C18.0816 21.1168 18.4437 20.801 18.4993 20.3919L18.8228 18.0534C19.9511 17.7049 20.9724 17.1237 21.8257 16.3654L24.0717 17.2636C24.4648 17.4209 24.9275 17.274 25.1232 16.9433L26.4366 14.7327C26.6322 14.4016 26.5316 13.9397 26.195 13.6871ZM16.376 14.1705C14.3249 14.1705 12.6625 12.5531 12.6625 10.5584C12.6625 8.56412 14.3249 6.94715 16.376 6.94715C18.4272 6.94715 20.0903 8.56412 20.0903 10.5584C20.0903 12.5531 18.4272 14.1705 16.376 14.1705Z" fill="url(#paint2_linear_646_2701)"/>
<path d="M16.3759 4.51367C12.9426 4.51367 10.1592 7.22046 10.1592 10.5584C10.1592 13.8972 12.9426 16.6044 16.3759 16.6044C19.8092 16.6044 22.5927 13.8972 22.5927 10.5584C22.5927 7.22005 19.8092 4.51367 16.3759 4.51367ZM16.3759 14.2799C14.2624 14.2799 12.5495 12.6138 12.5495 10.5584C12.5495 8.50347 14.2624 6.83737 16.3759 6.83737C18.4895 6.83737 20.2023 8.50347 20.2023 10.5584C20.2023 12.6138 18.4895 14.2799 16.3759 14.2799Z" fill="url(#paint3_linear_646_2701)"/>
<path d="M16.3771 4.69141C13.0448 4.69141 10.3438 7.31811 10.3438 10.5587C10.3438 13.7996 13.0448 16.4267 16.3771 16.4267C19.7094 16.4267 22.4113 13.7996 22.4113 10.5587C22.4113 7.31811 19.7094 4.69141 16.3771 4.69141ZM16.3771 13.5684C14.6685 13.5684 13.2821 12.2206 13.2821 10.5587C13.2821 8.89669 14.6685 7.54927 16.3771 7.54927C18.0865 7.54927 19.4721 8.89669 19.4721 10.5587C19.4721 12.2206 18.087 13.5684 16.3771 13.5684Z" fill="#445368"/>
<path d="M19.9789 32.5703L18.0572 31.1284C18.179 30.5851 18.2452 30.0204 18.2452 29.442C18.2452 28.8633 18.179 28.299 18.0572 27.7561L19.9789 26.3138C20.3155 26.0616 20.4157 25.5988 20.2192 25.2677L18.9066 23.0571C18.7101 22.7261 18.2482 22.5795 17.8551 22.7368L15.6091 23.6351C14.7559 22.8772 13.7346 22.2951 12.6062 21.9471L12.2836 19.6089C12.2263 19.1994 11.8651 18.8828 11.472 18.8828H8.84692C8.45383 18.8828 8.09259 19.1994 8.03528 19.6089L7.71266 21.9471C6.58435 22.2951 5.56302 22.8772 4.70978 23.6351L2.46378 22.7368C2.0707 22.5799 1.60884 22.7269 1.41273 23.0571L0.0993382 25.2681C-0.0963542 25.5988 0.00382706 26.0616 0.340452 26.3134L2.26299 27.7557C2.14031 28.299 2.07409 28.8633 2.07409 29.442C2.07409 30.0204 2.14031 30.5851 2.26299 31.1284L0.340452 32.5703C0.00382706 32.8225 -0.0963542 33.2849 0.0993382 33.616L1.41273 35.827C1.60927 36.1572 2.07112 36.3042 2.46378 36.1469L4.70978 35.2486C5.56302 36.0065 6.58435 36.5886 7.71266 36.9366L8.03528 39.2747C8.09259 39.6846 8.45383 40.0004 8.84692 40.0009L11.472 40.0004C11.8651 40.0004 12.2263 39.6846 12.2836 39.2747L12.6062 36.9366C13.7346 36.5886 14.7559 36.0065 15.6091 35.2486L17.8551 36.1469C18.2482 36.3042 18.7101 36.1568 18.9066 35.8261L20.2192 33.6155C20.4157 33.2849 20.3155 32.8225 19.9789 32.5703ZM10.1599 33.0537C8.10872 33.0537 6.44555 31.4367 6.44555 29.442C6.44555 27.4469 8.10872 25.83 10.1599 25.83C12.211 25.83 13.8742 27.4469 13.8742 29.442C13.8742 31.4367 12.211 33.0537 10.1599 33.0537Z" fill="url(#paint4_linear_646_2701)"/>
<path d="M10.1601 23.3965C6.72763 23.3965 3.94336 26.1033 3.94336 29.4425C3.94336 32.7809 6.72763 35.4881 10.1601 35.4881C13.5934 35.4881 16.3768 32.7809 16.3768 29.4425C16.3764 26.1029 13.5934 23.3965 10.1601 23.3965ZM10.1601 33.1635C8.04738 33.1635 6.33284 31.497 6.33284 29.4421C6.33284 27.3871 8.04738 25.7202 10.1601 25.7202C12.2737 25.7202 13.9873 27.3871 13.9873 29.4421C13.9869 31.497 12.2732 33.1635 10.1601 33.1635Z" fill="url(#paint5_linear_646_2701)"/>
<path d="M10.1592 23.5742C6.82692 23.5742 4.125 26.2013 4.125 29.4419C4.125 32.682 6.82692 35.3091 10.1592 35.3091C13.4915 35.3091 16.1926 32.682 16.1926 29.4419C16.1926 26.2017 13.4911 23.5742 10.1592 23.5742ZM10.1592 32.4508C8.45061 32.4508 7.06506 31.1038 7.06506 29.4419C7.06506 27.7799 8.45061 26.4325 10.1592 26.4325C11.8678 26.4325 13.2534 27.7799 13.2534 29.4419C13.2534 31.1043 11.8678 32.4508 10.1592 32.4508Z" fill="#651EB0"/>
<defs>
<linearGradient id="paint0_linear_646_2701" x1="19.6806" y1="24.7506" x2="39.9995" y2="24.7506" gradientUnits="userSpaceOnUse">
<stop stop-color="#FFD52E"/>
<stop offset="1" stop-color="#FF9000"/>
</linearGradient>
<linearGradient id="paint1_linear_646_2701" x1="24.227" y1="20.1569" x2="40.252" y2="34.0252" gradientUnits="userSpaceOnUse">
<stop stop-color="#FFDC52"/>
<stop offset="1" stop-color="#FF9000"/>
</linearGradient>
<linearGradient id="paint2_linear_646_2701" x1="6.2169" y1="10.559" x2="26.5357" y2="10.559" gradientUnits="userSpaceOnUse">
<stop stop-color="#67768C"/>
<stop offset="1" stop-color="#3F4E63"/>
</linearGradient>
<linearGradient id="paint3_linear_646_2701" x1="10.7633" y1="5.96515" x2="26.788" y2="19.8331" gradientUnits="userSpaceOnUse">
<stop offset="0.0054" stop-color="#74859E"/>
<stop offset="1" stop-color="#3F4E63"/>
</linearGradient>
<linearGradient id="paint4_linear_646_2701" x1="1.96843" y1="18.5145" x2="15.5719" y2="37.704" gradientUnits="userSpaceOnUse">
<stop stop-color="#EC2EFF"/>
<stop offset="1" stop-color="#44009C"/>
</linearGradient>
<linearGradient id="paint5_linear_646_2701" x1="4.54742" y1="24.8483" x2="20.5722" y2="38.7163" gradientUnits="userSpaceOnUse">
<stop stop-color="#EE52FF"/>
<stop offset="1" stop-color="#5100FF"/>
</linearGradient>
</defs>
</svg>
