<svg width="36" height="40" viewBox="0 0 36 40" fill="none" xmlns="http://www.w3.org/2000/svg">
<path d="M35.9622 0H4.21387V40H35.9622V0Z" fill="#CCE7F2"/>
<path d="M31.3316 5.13086H14.5459V5.94543H31.3316V5.13086Z" fill="#00658F"/>
<path d="M31.3326 9.26172H8.84277V10.0763H31.3326V9.26172Z" fill="#00658F"/>
<path d="M31.3326 13.3945H8.84277V14.2091H31.3326V13.3945Z" fill="#00658F"/>
<path d="M31.3326 17.5254H8.84277V18.3407H31.3326V17.5254Z" fill="#00658F"/>
<path d="M31.3316 21.6582H14.5459V22.4728H31.3316V21.6582Z" fill="#00658F"/>
<path d="M31.3326 25.791H8.84277V26.6056H31.3326V25.791Z" fill="#00658F"/>
<path d="M31.3326 29.9219H8.84277V30.7364H31.3326V29.9219Z" fill="#00658F"/>
<path d="M23.1848 34.0527H8.84277V34.868H23.1848V34.0527Z" fill="#00658F"/>
<path d="M22.7117 27.0595C19.9849 29.7841 15.5674 29.7856 12.8428 27.0595C10.1182 24.3363 10.1168 19.9174 12.8428 17.1927C15.5674 14.4659 19.9863 14.4681 22.7117 17.1927C25.4363 19.9174 25.4363 24.3349 22.7117 27.0595Z" fill="#FCF0D3"/>
<path d="M23.14 27.4875C26.0971 24.5311 26.0971 19.7212 23.14 16.7641C20.1815 13.8078 15.3724 13.8078 12.4161 16.7641C9.75154 19.4287 9.49741 23.5949 11.6348 26.5563L8.93555 29.2556L10.6472 30.9673L13.3472 28.268C16.3093 30.4076 20.4755 30.1527 23.14 27.4875ZM13.2719 26.6309C10.7869 24.1466 10.7869 20.1042 13.2719 17.6207C15.7576 15.1364 19.7985 15.1364 22.2835 17.6207C24.7663 20.1049 24.7663 24.1474 22.2835 26.6309C19.7978 29.1159 15.7554 29.1173 13.2719 26.6309Z" fill="#D93A37"/>
<path d="M3.9852 39.5497C3.51312 40.0218 2.74706 40.0218 2.27353 39.5497L0.354062 37.6309C-0.118021 37.1581 -0.118021 36.3906 0.354062 35.9185L7.12108 29.1529C7.59316 28.6808 8.3592 28.6808 8.83346 29.1529L10.7508 31.0724C11.2228 31.5445 11.2228 32.312 10.7508 32.784L3.9852 39.5497Z" fill="#B56529"/>
<path d="M7.11639 29.1462L0.350586 35.9121L3.98153 39.5431L10.7473 32.7772L7.11639 29.1462Z" fill="#F18636"/>
<path d="M16.919 18.1921C17.0674 18.1704 17.2086 18.1537 17.3454 18.1429C17.4815 18.1335 17.6307 18.127 17.7943 18.127C17.9355 18.127 18.076 18.1335 18.2114 18.1429C18.3453 18.1545 18.4959 18.1704 18.6596 18.1921L21.0642 25.8751C20.7716 25.9186 20.4864 25.9388 20.2098 25.9388C19.9375 25.9388 19.6747 25.9186 19.4169 25.8751L18.9905 24.3365H16.4469L16.0081 25.8751C15.7518 25.9186 15.5071 25.9388 15.271 25.9388C15.0067 25.9388 14.7468 25.9186 14.4912 25.8751L16.919 18.1921ZM18.6263 23.0426L17.74 19.8155L16.8103 23.0426H18.6263Z" fill="#00658F"/>
</svg>
