<svg width="301" height="185" viewBox="0 0 301 185" fill="none" xmlns="http://www.w3.org/2000/svg">
<path d="M221.514 95.7285L209.231 102.555L222.879 110.121L229.041 108.011L233.879 104.299L224.988 97.3417L221.514 95.7285Z" fill="#1DB85E"/>
<path d="M205.647 123.215L223.608 133.56L223.594 112.888L205.728 102.555L205.647 123.215Z" fill="#FFB9A2"/>
<path d="M238.512 104.207L238.482 124.982L223.608 133.56L223.594 112.889L238.512 104.207Z" fill="#FF735A"/>
<path d="M220.616 93.9785L205.738 102.558L223.594 112.889L238.512 104.207L220.616 93.9785ZM211.686 102.577L220.604 97.3418L232.556 104.29L223.593 109.45L211.686 102.577Z" fill="#FFE2D8"/>
<path d="M222.855 105.201C222.855 105.201 222.467 89.3058 210.302 81.2676C210.302 81.2676 215.857 87.5029 216.24 93.2876C216.623 99.0719 222.855 105.201 222.855 105.201Z" fill="#7BDB65"/>
<path d="M222.824 105.206C222.824 105.206 221.548 89.3574 232.807 80.0918C232.807 80.0918 227.933 86.8731 228.157 92.6665C228.381 98.4595 222.824 105.206 222.824 105.206Z" fill="#7BDB65"/>
<path d="M222.818 105.207C222.818 105.207 229.221 89.3742 222.612 77.0299C217.825 68.0895 217.647 68.8687 217.647 68.8687C217.647 68.8687 215.177 71.8889 217.816 81.0103C220.456 90.1317 222.818 105.207 222.818 105.207Z" fill="#7BDB65"/>
<path d="M222.854 105.207C222.854 105.207 224.433 97.4531 231.096 94.5781C231.096 94.5781 227.829 97.1477 227.136 99.9481C226.443 102.748 222.854 105.207 222.854 105.207Z" fill="#7BDB65"/>
<path d="M86.792 65.8V127.797L151.186 164.974L220.972 124.683V62.6738L151.185 102.977L86.792 65.8Z" fill="#C63005"/>
<path d="M86.7568 71.9785L151.239 109.141L151.186 164.974L86.7922 127.796L86.7568 71.9785Z" fill="#F04401"/>
<path d="M86.792 41.0402L156.59 0.742188L220.972 37.8623L151.221 78.2383L86.792 41.0402Z" fill="#FFE2D8"/>
<path d="M102.865 44.0805L156.576 13.0703L204.877 40.981L151.186 71.979L102.865 44.0805Z" fill="#FFB9A2"/>
<path d="M102.866 44.0801L97.499 40.9821L156.556 6.85156L210.246 37.8845L204.877 40.9806L156.577 13.07L102.866 44.0801Z" fill="#FF4E2D"/>
<path d="M86.7578 40.9817L86.7583 47.1812L151.187 84.3792L220.973 44.0502V37.8633L151.186 78.1797L86.7578 40.9817Z" fill="#FF4E2D"/>
<path d="M86.7581 47.1798L81.3887 50.2798L151.186 90.5774L226.353 47.1798L220.973 44.0488L151.187 84.3779L86.7581 47.1798Z" fill="#FFB9A2"/>
<path d="M151.197 90.5773V102.976L226.364 59.5787V47.1797L151.197 90.5773Z" fill="#F04202"/>
<path d="M81.4009 50.2793L81.4004 62.6783L151.198 102.976V90.5769L81.4009 50.2793Z" fill="#FF735A"/>
<path d="M140.402 109.192L102.86 87.4808L97.4961 84.3789L97.5493 121.322L140.448 146.422L140.402 109.192Z" fill="#FFB9A2"/>
<path d="M102.77 118.489L140.441 140.18L140.402 109.192L102.86 87.4805L102.77 118.489Z" fill="#13426C"/>
<path d="M102.769 118.489L97.5493 121.322L97.4961 84.3789L102.86 87.4808L102.769 118.489Z" fill="#FF7853"/>
<path d="M161.928 109.136L161.924 152.574L188.767 137.074L188.748 93.6934L161.928 109.136Z" fill="#2171B8"/>
<path d="M199.509 87.4089L199.512 124.714L215.619 115.269V78.1113L199.509 87.4089Z" fill="#2171B8"/>
<path d="M161.903 146.377L161.925 152.574L188.768 137.074L188.749 93.6934L183.394 96.7735L183.454 133.886L161.903 146.377Z" fill="#FF7853"/>
<path d="M199.484 118.401L199.534 124.714L215.642 115.269V78.1113L210.247 81.1658L210.266 112.196L199.484 118.401Z" fill="#FF7853"/>
<path d="M117.956 127.233L108.234 121.635L108.133 102.85L124.618 112.386" fill="#2171B8"/>
<path d="M124.646 147.159L140.44 156.255L140.417 121.524L124.617 112.385L124.646 147.159Z" fill="#2171B8"/>
<path d="M117.956 108.521V145.797L123.332 148.894L123.421 111.503L117.956 108.521Z" fill="#F04401"/>
<path d="M117.956 96.1387V108.521L123.468 111.568L123.475 99.3306L117.956 96.1387Z" fill="#F04401"/>
<path d="M124.618 112.386L123.421 111.502L123.332 148.892L124.675 148.191" fill="#F04202"/>
<path d="M124.675 100.102L123.474 99.3301L123.449 146.518L124.671 147.254L124.675 100.102Z" fill="#FF7853"/>
<path d="M127.019 130.664C127.266 130.567 127.326 130.131 127.154 129.69C126.981 129.249 126.642 128.969 126.395 129.066C126.148 129.162 126.088 129.598 126.26 130.039C126.432 130.48 126.772 130.76 127.019 130.664Z" fill="#F04401"/>
<path d="M126.847 129.568V130.361L128.79 131.484V130.691L126.847 129.568Z" fill="#F04401"/>
<path d="M126.552 129.682V130.475L128.496 131.597V130.804L126.552 129.682Z" fill="#FFB9A2"/>
<path d="M128.79 131.484V130.691L128.495 130.805V131.598L128.79 131.484Z" fill="#F04401"/>
<path d="M126.844 130.806C127.091 130.71 127.151 130.274 126.979 129.833C126.807 129.392 126.467 129.112 126.22 129.208C125.973 129.305 125.913 129.74 126.085 130.182C126.258 130.623 126.597 130.902 126.844 130.806Z" fill="#FFB9A2"/>
<path d="M126.319 117.344V122.269L138.394 129.24V124.315L126.319 117.344Z" fill="#A8E5E2"/>
<mask id="mask0_732_6239" style="mask-type:luminance" maskUnits="userSpaceOnUse" x="127" y="119" width="10" height="9">
<path d="M127.602 121.929L127.61 119.092L136.565 124.262L136.557 127.1L127.602 121.929Z" fill="white"/>
</mask>
<g mask="url(#mask0_732_6239)">
<path d="M128.845 122.029C128.65 121.917 128.496 121.753 128.382 121.541C128.265 121.328 128.21 121.1 128.211 120.855C128.211 120.607 128.268 120.443 128.386 120.366C128.5 120.29 128.655 120.305 128.85 120.417C129.044 120.529 129.196 120.691 129.313 120.905C129.426 121.116 129.485 121.346 129.484 121.591C129.483 121.832 129.424 121.993 129.309 122.073C129.192 122.154 129.04 122.141 128.845 122.029ZM128.851 119.806C128.626 119.676 128.419 119.617 128.23 119.628C128.041 119.64 127.889 119.723 127.777 119.872C127.666 120.025 127.609 120.238 127.608 120.507C127.607 120.777 127.663 121.054 127.773 121.335C127.884 121.616 128.034 121.874 128.223 122.103C128.411 122.332 128.618 122.513 128.843 122.643C129.072 122.775 129.279 122.834 129.465 122.82C129.653 122.808 129.802 122.724 129.914 122.571C130.023 122.417 130.079 122.204 130.08 121.934C130.081 121.664 130.029 121.389 129.919 121.108C129.811 120.833 129.663 120.577 129.475 120.347C129.287 120.118 129.08 119.938 128.851 119.806Z" fill="#F04202"/>
<path d="M130.995 122.324L130.997 121.631L131.316 121.815C131.427 121.88 131.51 121.956 131.566 122.049C131.622 122.141 131.649 122.242 131.649 122.352C131.648 122.463 131.62 122.532 131.564 122.56C131.509 122.592 131.425 122.572 131.314 122.508L130.995 122.324ZM131.364 121.295L130.412 120.746L130.404 123.516L130.991 123.854L130.994 122.86L131.359 123.071C131.553 123.183 131.72 123.241 131.853 123.235C131.984 123.229 132.083 123.179 132.148 123.082C132.213 122.988 132.244 122.857 132.245 122.697C132.245 122.523 132.212 122.351 132.147 122.178C132.079 122.007 131.981 121.844 131.849 121.689C131.715 121.538 131.555 121.406 131.364 121.295Z" fill="#F04202"/>
<path d="M134.031 122.835L132.554 121.982L132.546 124.752L134.023 125.605L134.025 125.065L133.134 124.551L133.136 123.944L133.924 124.399L133.925 123.877L133.137 123.422L133.139 122.861L134.029 123.375L134.031 122.835Z" fill="#F04202"/>
<path d="M136.567 124.3L135.98 123.961L135.975 125.679L134.997 123.393L134.41 123.055L134.402 125.824L134.989 126.163L134.994 124.455L135.972 126.731L136.559 127.069L136.567 124.3Z" fill="#F04202"/>
</g>
<path d="M133.933 122.17C133.933 122.17 133.933 121.574 133.933 120.846C133.933 120.117 133.302 119.156 132.53 118.711C131.758 118.266 131.126 118.474 131.126 119.175C131.126 119.876 131.126 120.449 131.126 120.449" stroke="#A8E5E2" stroke-width="0.483997" stroke-miterlimit="10"/>
<path d="M77.7428 102.887L65.46 109.713L79.1077 117.278L85.2695 115.17L90.108 111.457L81.2165 104.499L77.7428 102.887Z" fill="#1DB85E"/>
<path d="M61.876 130.373L79.8361 140.718L79.8221 120.046L61.9568 109.713L61.876 130.373Z" fill="#FFB9A2"/>
<path d="M94.739 111.365L94.71 132.139L79.8353 140.719L79.8213 120.047L94.739 111.365Z" fill="#FF735A"/>
<path d="M76.8449 101.137L61.9668 109.716L79.8224 120.047L94.7402 111.366L76.8449 101.137ZM67.9142 109.735L76.8328 104.501L88.7846 111.448L79.8219 116.609L67.9142 109.735Z" fill="#FFE2D8"/>
<path d="M78.0549 113.252C78.0549 113.252 77.6667 97.3566 65.502 89.3184C65.502 89.3184 71.0573 95.5537 71.4401 101.338C71.823 107.123 78.0549 113.252 78.0549 113.252Z" fill="#7BDB65"/>
<path d="M78.024 113.257C78.024 113.257 76.7486 97.4082 88.0069 88.1426C88.0069 88.1426 83.1335 94.9239 83.3576 100.717C83.5812 106.51 78.024 113.257 78.024 113.257Z" fill="#7BDB65"/>
<path d="M78.0179 113.258C78.0179 113.258 84.4207 97.425 77.8117 85.0807C73.0255 76.1403 72.8474 76.9195 72.8474 76.9195C72.8474 76.9195 70.3771 79.9397 73.0163 89.0611C75.6565 98.1825 78.0179 113.258 78.0179 113.258Z" fill="#7BDB65"/>
<path d="M78.0547 113.257C78.0547 113.257 79.6335 105.504 86.2957 102.629C86.2957 102.629 83.0292 105.198 82.3361 107.999C81.6435 110.799 78.0547 113.257 78.0547 113.257Z" fill="#7BDB65"/>
<path d="M226.614 174.876V126.238C226.614 125.483 226.415 124.741 226.038 124.087L215.881 106.494C214.484 104.075 211.188 103.609 209.175 105.546L200.973 113.439C200.13 114.249 199.654 115.369 199.654 116.537V164.111C199.654 165.647 200.474 167.067 201.804 167.835L217.254 176.755C217.637 176.976 217.922 177.334 218.052 177.756L219.509 182.471C219.843 183.553 220.646 184.402 221.621 183.825L225.756 181.283C226.289 180.967 226.615 180.394 226.615 179.775V174.876H226.614Z" fill="#349CEA"/>
<path d="M195.16 120.161V169.492C195.16 170.402 195.646 171.243 196.434 171.698L218.299 184.322C219.998 185.303 222.121 184.077 222.121 182.115V130.137C222.121 129.689 222.003 129.25 221.779 128.863L210.268 108.924C209.44 107.491 207.488 107.215 206.295 108.363L195.941 118.325C195.442 118.805 195.16 119.468 195.16 120.161Z" fill="#A8E5E2"/>
<path d="M209.428 121.487C210.706 120.988 211.019 118.73 210.126 116.443C209.233 114.156 207.473 112.706 206.194 113.205C204.915 113.705 204.603 115.963 205.496 118.25C206.389 120.537 208.149 121.987 209.428 121.487Z" fill="white"/>
<mask id="mask1_732_6239" style="mask-type:luminance" maskUnits="userSpaceOnUse" x="203" y="132" width="9" height="37">
<path d="M203.277 163.333L203.365 132.408L211.853 137.309L211.766 168.233L203.277 163.333Z" fill="white"/>
</mask>
<g mask="url(#mask1_732_6239)">
<path d="M209.237 159.607C208.836 159.376 208.489 159.261 208.202 159.269C207.917 159.275 207.691 159.369 207.532 159.555C207.377 159.742 207.243 159.971 207.137 160.244C207.028 160.516 206.937 160.801 206.862 161.096C206.784 161.392 206.706 161.656 206.622 161.882C206.538 162.111 206.42 162.267 206.268 162.349C206.113 162.434 205.908 162.402 205.658 162.257C205.405 162.111 205.213 161.907 205.081 161.646C204.946 161.383 204.881 161.107 204.882 160.816C204.883 160.529 204.964 160.337 205.125 160.242C205.287 160.15 205.515 160.172 205.816 160.31L205.823 157.785C204.948 157.308 204.311 157.271 203.901 157.668C203.494 158.066 203.291 158.781 203.288 159.807C203.285 160.833 203.515 161.813 203.976 162.74C204.438 163.669 205.055 164.355 205.828 164.802C206.22 165.028 206.563 165.141 206.851 165.133C207.139 165.129 207.359 165.032 207.511 164.842C207.667 164.658 207.8 164.426 207.913 164.157C208.022 163.885 208.115 163.601 208.191 163.307C208.269 163.011 208.35 162.748 208.437 162.525C208.524 162.298 208.643 162.142 208.792 162.057C208.944 161.971 209.135 161.996 209.373 162.133C209.608 162.269 209.803 162.477 209.957 162.755C210.108 163.034 210.184 163.341 210.183 163.675C210.181 164.389 209.849 164.588 209.188 164.267L209.181 166.738C210.009 167.216 210.647 167.257 211.097 166.859C211.547 166.461 211.775 165.729 211.778 164.656C211.781 163.583 211.533 162.576 211.037 161.632C210.537 160.685 209.939 160.013 209.237 159.607Z" fill="#F04202"/>
<path d="M208.79 154.825L205.839 151.994L208.796 152.57L208.79 154.825ZM211.732 150.666L203.411 149.162L203.402 151.985L211.705 160.097L211.712 157.626L210.323 156.294L210.333 152.874L211.725 153.148L211.732 150.666Z" fill="#F04202"/>
<path d="M211.751 144.312L210.218 143.428L210.21 146.318L203.455 142.418L203.448 144.74L211.736 149.525L211.751 144.312Z" fill="#F04202"/>
<path d="M211.77 137.258L210.238 136.373L210.228 139.821L208.303 138.71L208.311 135.67L206.776 134.784L206.767 137.823L204.984 136.794L204.994 133.346L203.458 132.459L203.441 138.225L211.754 143.025L211.77 137.258Z" fill="#F04202"/>
</g>
<path d="M91.6213 6.25L155.958 43.388L151.129 46.1822L86.792 9.04411L91.6213 6.25Z" fill="#349CEA"/>
<path d="M86.7617 40.9882L92.0455 44.0316L92.0412 37.9501L86.7854 34.9102L86.7617 40.9882Z" fill="#2171B8"/>
<path d="M96.4294 35.3965L96.4207 41.5079L92.0454 44.032L92.041 37.9505L96.4294 35.3965Z" fill="#13426C"/>
<path d="M145.569 74.971L151.248 78.2418L151.243 71.7064L145.595 68.4395L145.569 74.971Z" fill="#2171B8"/>
<path d="M155.959 43.4531L155.95 75.5281L151.248 78.2409L151.243 46.1984L155.959 43.4531Z" fill="#13426C"/>
<path d="M86.792 9.04492V35.2834L151.114 72.4195V46.181L86.792 9.04492Z" fill="#A8E5E2"/>
<mask id="mask2_732_6239" style="mask-type:luminance" maskUnits="userSpaceOnUse" x="92" y="19" width="52" height="43">
<path d="M92.2725 31.3844L92.3059 19.6523L143.909 49.4452L143.875 61.1773L92.2725 31.3844Z" fill="white"/>
</mask>
<g mask="url(#mask2_732_6239)">
<path d="M97.4079 31.8009C96.6015 31.3353 95.9627 30.664 95.4854 29.7841C95.0082 28.9037 94.7725 27.9604 94.7754 26.9484C94.7783 25.9257 95.0184 25.2534 95.499 24.9301C95.9796 24.6102 96.6204 24.6774 97.4267 25.1431C98.221 25.6014 98.8565 26.2708 99.3337 27.1512C99.8109 28.0315 100.047 28.9782 100.044 29.9903C100.041 30.9917 99.8007 31.6567 99.3201 31.9911C98.8395 32.3217 98.2021 32.2597 97.4079 31.8009ZM97.434 22.6151C96.4975 22.0745 95.6379 21.8306 94.8548 21.8766C94.0717 21.9259 93.4483 22.2633 92.9885 22.8939C92.5253 23.5192 92.294 24.3924 92.2911 25.5143C92.2877 26.6328 92.5137 27.7731 92.9716 28.9376C93.4265 30.1002 94.0455 31.1582 94.8257 32.1102C95.6059 33.0622 96.4646 33.8066 97.4006 34.3472C98.3371 34.8878 99.1938 35.1332 99.9735 35.0824C100.75 35.0297 101.367 34.6851 101.824 34.0491C102.281 33.4131 102.513 32.5366 102.516 31.4181C102.519 30.2962 102.296 29.1607 101.848 28.0093C101.402 26.8559 100.789 25.8047 100.009 24.8527C99.2287 23.9035 98.3705 23.1558 97.434 22.6151Z" fill="#F04202"/>
<path d="M112.186 31.2967L109.758 29.8945L109.738 36.7475C109.736 37.4328 109.583 37.8742 109.279 38.0688C108.975 38.2633 108.539 38.1965 107.974 37.8699C107.405 37.5417 106.973 37.1071 106.68 36.5684C106.391 36.0316 106.244 35.4165 106.246 34.7316L106.265 27.8787L103.837 26.4766L103.817 33.312C103.815 34.3347 103.991 35.3081 104.351 36.2272C104.707 37.1477 105.197 37.9642 105.814 38.6762C106.434 39.3862 107.138 39.9709 107.923 40.4239C108.708 40.8769 109.423 41.1083 110.06 41.117C110.701 41.1276 111.212 40.8895 111.591 40.4007C111.973 39.9133 112.164 39.1558 112.167 38.1331L112.186 31.2967Z" fill="#F04202"/>
<path d="M121.061 36.4201L113.351 31.9688L113.345 34.2058L115.986 35.7309L115.96 44.9491L118.386 46.3497L118.412 37.1315L121.054 38.6571L121.061 36.4201Z" fill="#F04202"/>
<path d="M124.711 38.5271L122.281 37.125L122.249 48.5798L127.858 51.8182L127.864 49.6625L124.684 47.8267L124.711 38.5271Z" fill="#F04202"/>
<path d="M135.161 44.5606L129.055 41.0352L129.022 52.4899L135.129 56.0153L135.135 53.7783L131.458 51.6555L131.465 49.145L134.716 51.0219L134.722 48.8662L131.471 46.9898L131.478 44.6743L135.155 46.7976L135.161 44.5606Z" fill="#F04202"/>
<path d="M143.911 49.6115L136.201 45.1602L136.194 47.3972L138.833 48.9208L138.807 58.139L141.236 59.5412L141.262 50.3234L143.904 51.8485L143.911 49.6115Z" fill="#F04202"/>
</g>
<path d="M140.444 154.955L124.648 145.77L123.449 146.52L140.448 156.498L140.444 154.955Z" fill="#FFB9A2"/>
</svg>
