<svg width="40" height="40" viewBox="0 0 40 40" fill="none" xmlns="http://www.w3.org/2000/svg">
<path d="M11.2549 22.5C13.326 22.5 15.0049 20.8211 15.0049 18.75C15.0049 16.6789 13.326 15 11.2549 15C9.18382 15 7.50488 16.6789 7.50488 18.75C7.50488 20.8211 9.18382 22.5 11.2549 22.5Z" fill="#0781FF"/>
<path d="M35.0049 32.5C35.0049 35.2614 32.7663 37.5 30.0049 37.5H5.00488C2.24346 37.5 0.00488281 35.2614 0.00488281 32.5V12.5C0.00488281 9.73986 2.24138 7.50208 5.00103 7.5C5.00103 4.73858 7.23961 2.5 10.001 2.5H35.001C37.7625 2.5 40.001 4.73858 40.001 7.5V27.5C40.001 30.2601 37.7645 32.4979 35.0049 32.5ZM35.001 5H10.001C8.62032 5 7.50103 6.11929 7.50103 7.5L30.0049 7.5C32.7663 7.5 35.0049 9.73858 35.0049 12.5V30C36.3838 29.9979 37.501 28.8794 37.501 27.5V7.5C37.501 6.11929 36.3817 5 35.001 5ZM5.00488 10C3.62417 10 2.50488 11.1193 2.50488 12.5V32.5L9.121 26.6162C9.54233 26.1948 10.2025 26.1295 10.6983 26.46L17.3456 30.8915L26.621 21.6162C27.0014 21.2357 27.5827 21.1414 28.0639 21.382L32.5049 26.25V12.5C32.5049 11.1193 31.3856 10 30.0049 10H5.00488Z" fill="#0781FF"/>
</svg>
