<svg width="60" height="60" viewBox="0 0 60 60" fill="none" xmlns="http://www.w3.org/2000/svg">
<path d="M29.6605 59.6049C27.6768 60.1339 25.6545 58.8931 25.1432 56.8335L19.0695 32.3705C18.5582 30.3112 19.7517 28.2133 21.7355 27.6843C23.7189 27.1557 25.7414 28.3964 26.2527 30.4557L32.3265 54.9187C32.8375 56.9783 31.6439 59.0763 29.6605 59.6049Z" fill="#19B5FF"/>
<path d="M22.3247 27.5787C23.4925 27.9726 24.4487 28.9552 24.7779 30.2806L30.8513 54.7436C31.3626 56.8029 30.1691 58.9009 28.1857 59.4298C27.9902 59.4818 27.7944 59.512 27.5996 59.5308C28.2462 59.7487 28.9569 59.7886 29.6637 59.6003C31.6474 59.0713 32.841 56.9734 32.3294 54.9141L26.2559 30.4511C25.7952 28.5948 24.1062 27.4083 22.3247 27.5787Z" fill="#148AD0"/>
<path d="M28.7392 60.0046C26.9673 60.0046 25.3466 58.7642 24.8846 56.9023L18.8108 32.4394C18.5465 31.3756 18.6954 30.268 19.2303 29.3209C19.7698 28.3649 20.6363 27.6869 21.6698 27.4112C23.7916 26.8456 25.9646 28.1789 26.5119 30.3836L32.5854 54.8466C32.8497 55.9103 32.7008 57.0182 32.1659 57.9651C31.6264 58.9207 30.7601 59.599 29.7267 59.8744C29.3969 59.9624 29.0652 60.0046 28.7392 60.0046ZM22.6579 27.8415C22.375 27.8415 22.088 27.8778 21.802 27.9542C20.9075 28.1925 20.1579 28.7792 19.6913 29.6056C19.2297 30.4236 19.1009 31.3798 19.3289 32.2981L25.4027 56.7611C25.8762 58.6681 27.7563 59.8218 29.5952 59.3312C30.4896 59.0928 31.2392 58.5064 31.7058 57.6797C32.1674 56.8617 32.2962 55.9055 32.0682 54.9865L25.9947 30.5236C25.5942 28.914 24.1912 27.8415 22.6579 27.8415Z" fill="#17266B"/>
<path d="M17.3675 41.0075L17.352 41.0133C15.874 41.5838 14.2095 40.8042 13.6532 39.2803L12.5149 36.1628C11.9583 34.6389 12.7125 32.9254 14.1902 32.3549L14.2054 32.3491C15.6835 31.7786 17.348 32.5582 17.9042 34.0821L19.0425 37.1993C19.5994 38.7231 18.8455 40.4366 17.3675 41.0075Z" fill="#148AD0"/>
<path d="M16.3517 41.4839C15.0797 41.4839 13.8796 40.6812 13.4056 39.3834L12.2673 36.2658C11.9744 35.4638 12.0011 34.5894 12.342 33.8033C12.688 33.0058 13.3122 32.3992 14.1002 32.0953C15.7343 31.464 17.5468 32.3148 18.1571 33.9851L19.2954 37.1023C19.5882 37.9043 19.5616 38.7788 19.2206 39.5649C18.875 40.3621 18.2508 40.9683 17.4633 41.2725L17.4491 41.2784C17.0876 41.418 16.7166 41.4839 16.3517 41.4839ZM15.2128 32.4437C14.9094 32.4437 14.6013 32.4986 14.301 32.6145C13.633 32.8723 13.1161 33.3746 12.8297 34.0344C12.5483 34.6835 12.526 35.4047 12.7674 36.0655L13.9057 39.1827C14.4114 40.5676 15.9164 41.2719 17.262 40.753L17.2772 40.7468C17.93 40.4949 18.4468 39.9925 18.7329 39.3327C19.0143 38.6836 19.0366 37.9625 18.7952 37.3017L17.6569 34.1845C17.2642 33.109 16.2679 32.4437 15.2128 32.4437Z" fill="#17266B"/>
<path d="M55.5824 42.2759L50.0689 41.5706C42.5525 40.6092 34.9559 40.5348 27.4262 41.3492L23.1127 41.8155L18.915 28.1413L22.6964 25.9862C29.3181 22.2124 35.4986 17.6711 41.1182 12.4507L45.2485 8.61328L55.5824 42.2759Z" fill="white"/>
<path d="M45.248 8.61328L41.1177 12.4507C40.585 12.9456 40.0426 13.4281 39.5 13.9106C39.4311 17.799 40.1717 22.7281 41.7583 27.8958C43.4616 33.4451 45.8099 38.1924 48.2119 41.3531C48.8311 41.4203 49.4501 41.4911 50.0684 41.57L55.5819 42.2753L45.248 8.61328Z" fill="#F4CB11"/>
<path d="M55.5806 42.2783L55.0423 40.5252C53.0046 38.3529 51.1692 36.6372 50.5257 36.7238C48.8169 36.9544 31.5532 38.3438 25.0454 39.3871C24.1038 39.5381 23.2435 39.6319 22.4561 39.6845L23.111 41.8182L27.4244 41.3519C34.9542 40.5376 42.5507 40.6119 50.0672 41.5734L55.5806 42.2783Z" fill="#85D8FF"/>
<path d="M23.422 36.5659L22.101 32.2622C21.3843 29.9276 21.8739 27.503 23.203 25.6895C23.0324 25.7882 22.8648 25.8921 22.6933 25.9898L18.7106 27.9582C15.8935 28.8716 14.3323 31.9664 15.224 34.8706L16.3337 38.4859C17.2251 41.3901 20.2317 43.0036 23.0488 42.0902L27.4227 41.3521C27.6135 41.3314 27.8046 41.318 27.9951 41.2986C25.8941 40.5975 24.139 38.9006 23.422 36.5659Z" fill="#F4CB11"/>
<path d="M25.0485 39.3923C20.5322 40.1164 17.8268 39.5605 16.5933 39.1523C17.7092 41.6312 20.4593 42.9359 23.0533 42.0949L27.4272 41.3568C27.618 41.336 27.8091 41.3227 27.9996 41.3032C26.883 40.9308 25.866 40.2742 25.0485 39.3923Z" fill="#D6B20F"/>
<path d="M45.5776 37.1963C46.3638 38.7357 47.1686 40.143 47.9368 41.3273C48.6476 41.4023 49.3581 41.4825 50.0679 41.5731L55.5814 42.2783L55.0431 40.5252C53.0054 38.3529 51.1702 36.6372 50.5265 36.7238C50.0186 36.792 48.1394 36.9628 45.5776 37.1963Z" fill="#D6B20F"/>
<path d="M21.4533 42.6255C19.0656 42.6255 16.8426 41.0416 16.0844 38.5725L14.9746 34.9571C14.525 33.4924 14.6513 31.9338 15.3301 30.5684C16.017 29.1867 17.1845 28.1678 18.6188 27.6973L22.5847 25.7373C22.662 25.6925 22.7523 25.639 22.8426 25.5851C22.9214 25.538 22.9999 25.4909 23.0796 25.4451C29.4978 21.7363 35.5079 17.2952 40.9432 12.2457L45.0739 8.40857C45.1415 8.34558 45.2346 8.32285 45.3221 8.34785C45.4093 8.37285 45.4785 8.44202 45.5064 8.53229L55.8399 42.1943C55.8678 42.2852 55.8495 42.3849 55.7912 42.4583C55.7332 42.532 55.642 42.5693 55.5526 42.5579L50.0392 41.8527C42.5531 40.8958 34.9551 40.8211 27.4563 41.6319L23.1159 42.3644C22.563 42.5414 22.0036 42.6255 21.4533 42.6255ZM45.1217 9.11222L41.2982 12.6642C35.8334 17.741 29.7906 22.2061 23.3374 25.9351C23.2605 25.9796 23.1841 26.025 23.1078 26.0708C23.0144 26.1263 22.9214 26.1822 22.8267 26.2361L18.8304 28.2116C18.8189 28.2175 18.8074 28.222 18.7953 28.2259C17.4901 28.6493 16.4281 29.5728 15.8048 30.8265C15.1924 32.0581 15.0785 33.4641 15.4843 34.7854L16.5941 38.4007C17.4395 41.1546 20.3025 42.6901 22.975 41.8231C22.9871 41.8192 22.9992 41.8163 23.0116 41.814L27.3821 41.0766C34.9389 40.259 42.5776 40.334 50.1031 41.2961L55.2014 41.9481L45.1217 9.11222Z" fill="#17266B"/>
<path d="M57.7537 23.0646C60.689 32.627 60.3328 41.2659 56.9582 42.3601C53.5833 43.4544 48.4682 36.5897 45.5326 27.0273C42.5973 17.465 42.9535 8.82607 46.3281 7.7318C49.703 6.63752 54.8184 13.5022 57.7537 23.0646Z" fill="#19B5FF"/>
<path d="M46.3291 7.7318C45.2702 8.07534 44.5088 9.16214 44.0527 10.7867C44.3757 10.437 44.744 10.1876 45.1582 10.0531C48.5331 8.95887 53.6482 15.8236 56.5838 25.3859C58.5982 31.9477 59.0621 38.074 58.0646 41.6269C60.371 39.1293 60.3294 31.4528 57.7547 23.0646C54.8191 13.5022 49.7037 6.63752 46.3291 7.7318Z" fill="#148AD0"/>
<path d="M50.5123 24.3409C49.4832 21.4721 46.6485 19.9349 44.1801 20.9068C44.0756 20.948 43.9744 20.9944 43.8745 21.0431C44.2136 22.8946 44.7507 24.9146 45.5142 27.0431C46.0922 28.6547 46.7288 30.1305 47.3984 31.4582C47.569 31.415 47.7387 31.3614 47.9065 31.2952C50.3749 30.323 51.5414 27.2097 50.5123 24.3409Z" fill="#85D8FF"/>
<path d="M47.105 30.411C49.5731 29.4389 50.7399 26.3252 49.7108 23.4567C49.5014 22.8726 49.216 22.3446 48.875 21.8809C47.5558 20.7068 45.7905 20.2726 44.1806 20.9068C44.076 20.948 43.9749 20.9945 43.875 21.0432C44.2138 22.8947 44.7511 24.9147 45.5147 27.0432C45.954 28.268 46.4274 29.4135 46.9229 30.476C46.9837 30.4552 47.0445 30.4348 47.105 30.411Z" fill="white"/>
<path d="M17.0853 34.0091C16.9711 34.0091 16.8656 33.9319 16.8299 33.812C16.7862 33.6643 16.8653 33.5075 17.0062 33.4617L20.1502 32.4421C20.2908 32.397 20.4412 32.4788 20.485 32.6265C20.5287 32.7743 20.4496 32.9311 20.3088 32.9769L17.1647 33.9965C17.1383 34.0049 17.1116 34.0091 17.0853 34.0091Z" fill="#17266B"/>
<path d="M17.6004 35.6966C17.4862 35.6966 17.3804 35.6194 17.3451 35.4995C17.3013 35.3518 17.3804 35.195 17.5213 35.1492L20.6654 34.1296C20.8062 34.0845 20.9567 34.1663 21.0001 34.314C21.0439 34.4618 20.9648 34.6186 20.8239 34.6644L17.6798 35.684C17.6535 35.6924 17.6268 35.6966 17.6004 35.6966Z" fill="#17266B"/>
<path d="M18.1224 37.3783C18.0082 37.3783 17.9027 37.301 17.867 37.1812C17.8233 37.0334 17.9024 36.8766 18.0433 36.8308L21.1873 35.8112C21.3285 35.7661 21.4784 35.8479 21.5221 35.9957C21.5658 36.1434 21.4867 36.3002 21.3459 36.346L18.2018 37.3656C18.1754 37.3744 18.1487 37.3783 18.1224 37.3783Z" fill="#17266B"/>
<path d="M56.2206 42.7553C52.7166 42.7553 48.0824 36.2381 45.2811 27.1128C43.0427 19.8201 42.6517 12.6811 44.3088 9.34791C44.8018 8.35625 45.4558 7.72241 46.2522 7.46394C49.8229 6.30635 54.9861 13.1217 58.012 22.9786C60.2504 30.2709 60.6413 37.41 58.9843 40.7434C58.4913 41.7354 57.8373 42.3692 57.0406 42.6274C56.7759 42.7131 56.5017 42.7553 56.2206 42.7553ZM47.0648 7.89743C46.8389 7.89743 46.6211 7.93055 46.4107 7.99874C45.7555 8.2111 45.2082 8.75207 44.7835 9.60605C43.1882 12.8152 43.593 19.7815 45.7909 26.9413C48.6281 36.1832 53.7069 43.1219 56.8823 42.0923C57.5376 41.8799 58.0852 41.3389 58.5096 40.4846C60.1049 37.2752 59.7 30.3089 57.5022 23.1494C54.853 14.5196 50.2479 7.89743 47.0648 7.89743Z" fill="#17266B"/>
<path d="M3.84454 0.328125H24.3683C26.3194 0.328125 27.9008 1.98349 27.9008 4.02527V7.61103V11.1968V18.4304C27.9008 18.807 27.7525 19.1668 27.4913 19.4253C26.9173 19.9929 25.9971 19.9029 25.5336 19.2337L22.5288 14.8943H3.84454C1.89337 14.8943 0.312012 13.2389 0.312012 11.1971V4.02527C0.311702 1.98349 1.89337 0.328125 3.84454 0.328125Z" fill="#3EDB80"/>
<path d="M26.591 20.121C26.5411 20.121 26.4908 20.1187 26.4405 20.1138C25.9767 20.0683 25.5541 19.816 25.2808 19.4212L22.3688 15.2159H3.84278C1.72376 15.2159 0 13.4115 0 11.194V4.02218C0 1.80441 1.72407 0 3.84278 0H24.3665C26.4852 0 28.2093 1.80441 28.2093 4.02218V18.4273C28.2093 18.891 28.0247 19.34 27.7026 19.6586C27.4008 19.9566 27.0024 20.121 26.591 20.121ZM3.84278 0.649744C2.06597 0.649744 0.620502 2.16289 0.620502 4.0225V11.194C0.620502 13.0536 2.06597 14.5665 3.84278 14.5665H22.527C22.6263 14.5665 22.7197 14.6165 22.778 14.7006L25.7828 19.04C25.9516 19.2835 26.2122 19.4391 26.4979 19.467C26.7858 19.4956 27.0676 19.3926 27.276 19.1861C27.4746 18.9897 27.5885 18.713 27.5885 18.4269V4.02218C27.5885 2.16257 26.143 0.649419 24.3662 0.649419L3.84278 0.649744Z" fill="#17266B"/>
<path d="M10.9455 9.20942L10.7174 8.58208H8.7768L8.54876 9.22306C8.45972 9.47308 8.38371 9.64161 8.32073 9.72928C8.25774 9.81663 8.15475 9.86046 8.01141 9.86046C7.88979 9.86046 7.78245 9.81403 7.68906 9.72084C7.59567 9.62765 7.54883 9.52211 7.54883 9.40392C7.54883 9.33573 7.55968 9.26527 7.5814 9.19253C7.60312 9.1198 7.6388 9.01882 7.68906 8.88926L8.91021 5.64443C8.94496 5.55124 8.98684 5.43954 9.03555 5.30868C9.08426 5.17815 9.13638 5.0697 9.1916 4.98333C9.24714 4.89695 9.31974 4.82714 9.41002 4.77356C9.5 4.71999 9.61137 4.69336 9.74385 4.69336C9.8785 4.69336 9.99081 4.71999 10.0808 4.77356C10.1708 4.82714 10.2437 4.89565 10.2989 4.97975C10.3544 5.06385 10.401 5.15412 10.4391 5.25056C10.477 5.34732 10.5254 5.47623 10.584 5.63729L11.8312 8.86166C11.9289 9.10714 11.978 9.2854 11.978 9.39678C11.978 9.5127 11.9317 9.61888 11.8396 9.71532C11.7475 9.81176 11.6361 9.86014 11.5058 9.86014C11.4298 9.86014 11.3646 9.84618 11.3103 9.8176C11.256 9.78903 11.2104 9.75039 11.1735 9.70168C11.1366 9.65297 11.0969 9.57796 11.0547 9.47666C11.0122 9.376 10.9759 9.2867 10.9455 9.20942ZM9.03058 7.82226H10.4571L9.73734 5.76035L9.03058 7.82226Z" fill="#17266B"/>
<path d="M13.2867 4.78125H14.547C14.8749 4.78125 15.156 4.81307 15.3905 4.87671C15.6248 4.94036 15.8376 5.05953 16.0287 5.23454C16.5261 5.68005 16.7746 6.35707 16.7746 7.26593C16.7746 7.56596 16.7498 7.83969 16.6995 8.08744C16.6496 8.3352 16.5726 8.55827 16.4684 8.75732C16.3641 8.95604 16.2307 9.13398 16.0678 9.29082C15.9397 9.41128 15.7998 9.50772 15.6477 9.58046C15.4957 9.65319 15.3322 9.70417 15.1576 9.73404C14.9826 9.76359 14.7856 9.77821 14.5665 9.77821H13.3063C13.1304 9.77821 12.9979 9.75028 12.9088 9.69475C12.8198 9.63923 12.7618 9.56065 12.7345 9.45967C12.7075 9.35868 12.6938 9.2275 12.6938 9.06612V5.40145C12.6938 5.18357 12.7404 5.02543 12.8341 4.92769C12.9275 4.82996 13.0783 4.78125 13.2867 4.78125ZM13.6612 5.58198V8.97325H14.394C14.5547 8.97325 14.6804 8.9687 14.7716 8.95961C14.8628 8.95052 14.9571 8.92779 15.0549 8.89142C15.1526 8.85506 15.2373 8.80375 15.309 8.73816C15.6326 8.45177 15.7942 7.95886 15.7942 7.25878C15.7942 6.76555 15.7231 6.39636 15.5807 6.1512C15.4383 5.90572 15.2634 5.74953 15.0549 5.68264C14.8467 5.61543 14.5948 5.58198 14.2994 5.58198H13.6612Z" fill="#17266B"/>
<path d="M21.2508 8.27556C21.2508 8.57786 21.1763 8.84932 21.0277 9.08993C20.8791 9.33054 20.6613 9.51952 20.3749 9.6559C20.0883 9.79195 19.7485 9.86014 19.3558 9.86014C18.8845 9.86014 18.4961 9.76695 18.1898 9.58089C17.9727 9.44678 17.7961 9.26787 17.6606 9.04414C17.5247 8.82042 17.457 8.60286 17.457 8.39148C17.457 8.26906 17.498 8.16385 17.5793 8.07618C17.6609 7.98851 17.7645 7.945 17.8901 7.945C17.9922 7.945 18.0785 7.9791 18.1492 8.04728C18.2199 8.11547 18.2798 8.21646 18.3301 8.35056C18.3909 8.50967 18.4567 8.64248 18.5271 8.74963C18.5975 8.85646 18.6968 8.94446 18.8249 9.01362C18.9531 9.08278 19.1212 9.11753 19.3297 9.11753C19.6161 9.11753 19.8491 9.04771 20.0284 8.90776C20.2074 8.76814 20.2971 8.59377 20.2971 8.38466C20.2971 8.21873 20.2487 8.0843 20.1522 7.98072C20.0557 7.87746 19.9307 7.79823 19.7777 7.74401C19.6248 7.68945 19.42 7.63166 19.1637 7.57029C18.8209 7.48619 18.5336 7.3878 18.3025 7.27545C18.0713 7.1631 17.888 7.00984 17.7524 6.81534C17.6165 6.62116 17.5489 6.37958 17.5489 6.09091C17.5489 5.81588 17.6205 5.5717 17.7639 5.35804C17.9072 5.14471 18.1145 4.9804 18.3859 4.86546C18.6574 4.75083 18.9763 4.69336 19.3434 4.69336C19.6362 4.69336 19.8897 4.73135 20.1038 4.80766C20.3175 4.88364 20.495 4.98495 20.6362 5.11094C20.7773 5.23692 20.8803 5.3694 20.9455 5.50806C21.0107 5.64671 21.0432 5.78179 21.0432 5.91362C21.0432 6.03408 21.0026 6.14254 20.921 6.23898C20.8394 6.33574 20.7379 6.3838 20.6166 6.3838C20.5059 6.3838 20.4218 6.3549 20.3644 6.29677C20.3067 6.23865 20.2443 6.14384 20.177 6.01233C20.0901 5.82367 19.9859 5.67658 19.8643 5.57105C19.7427 5.46552 19.5475 5.41259 19.2782 5.41259C19.0285 5.41259 18.8271 5.47006 18.6741 5.58469C18.5212 5.69963 18.4446 5.83731 18.4446 5.99869C18.4446 6.0987 18.4706 6.18508 18.5227 6.25781C18.5746 6.33054 18.6462 6.39289 18.7374 6.44517C18.8287 6.49745 18.9211 6.53836 19.0142 6.56791C19.1076 6.59746 19.2618 6.64064 19.4768 6.69747C19.7461 6.76338 19.9896 6.83612 20.2077 6.91535C20.4258 6.9949 20.6117 7.09134 20.7646 7.20531C20.9176 7.31896 21.037 7.46248 21.123 7.63653C21.208 7.81025 21.2508 8.02326 21.2508 8.27556Z" fill="#17266B"/>
</svg>
