<svg width="29" height="40" viewBox="0 0 29 40" fill="none" xmlns="http://www.w3.org/2000/svg">
<path d="M18.6902 21.6226C18.5309 22.9924 17.7005 24.1015 16.4144 24.6498C15.6937 24.9536 14.7313 25.1201 13.9593 25.0706C12.7716 25.0211 11.6582 24.7269 10.6191 24.2044C10.2596 24.0065 9.7056 23.6356 9.28299 23.2892C9.17878 23.1902 9.16132 23.1407 9.2369 23.0383C9.27011 22.9782 9.34431 22.8684 9.49643 22.6459C9.72838 22.3179 9.75319 22.2746 9.77788 22.2325C9.85208 22.1261 9.96513 22.1164 10.0833 22.2005C10.0995 22.217 10.0995 22.217 10.1084 22.225C10.1242 22.2422 10.1242 22.2422 10.1665 22.2745C10.2103 22.308 10.242 22.324 10.2498 22.3429C11.3634 23.2147 12.6596 23.7095 13.9682 23.759C15.7846 23.7346 17.0899 22.9179 17.3304 21.6558C17.578 20.2822 16.4955 19.0832 14.3786 18.4146C13.7117 18.2167 12.0334 17.5463 11.7235 17.3598C10.2727 16.51 9.5917 15.3946 9.6907 14.0114C9.8392 12.0998 11.6151 10.6769 13.8596 10.6645C14.8559 10.6645 15.8602 10.8722 16.8129 11.273C17.1565 11.4191 17.7698 11.7514 17.9738 11.9102C18.0962 12.0009 18.1223 12.0998 18.0468 12.2106C18.0217 12.2782 17.9478 12.3789 17.8203 12.5948C17.6343 12.8783 17.6274 12.8902 17.5936 12.9525C17.5274 13.0567 17.4328 13.065 17.3067 12.9904C16.2884 12.2979 15.1398 11.9513 13.8849 11.9266C12.3261 11.9513 11.1541 12.8804 11.0786 14.1534C11.0631 15.297 11.9171 16.1301 13.7667 16.7574C17.5286 17.9694 18.9635 19.3853 18.6902 21.6226ZM14.0515 1.88811C16.4956 1.88811 18.4923 4.20715 18.5912 7.11434H9.51761C9.6049 4.20715 11.6075 1.88811 14.0515 1.88811ZM26.7193 7.66511C26.7193 7.36173 26.4844 7.11434 26.1848 7.11434H26.1652H20.2996C20.1512 3.27869 17.4076 0.212891 14.0515 0.212891C10.6934 0.212891 7.95682 3.27869 7.81045 7.11434H1.9203C1.6249 7.12104 1.3905 7.363 1.3905 7.66511C1.3905 7.68257 1.3905 7.69024 1.3905 7.70769H1.38379L2.22039 26.2087C2.22039 26.2587 2.23018 26.3092 2.23018 26.3693C2.23018 26.381 2.23178 26.3847 2.23178 26.4067V26.435L2.23795 26.4448C2.36388 27.7347 3.29576 28.763 4.56934 28.8133V28.8231H23.2525C23.2623 28.8231 23.268 28.8231 23.2777 28.8231C23.2922 28.8231 23.2922 28.8231 23.3028 28.8231H23.3416V28.8133C24.6332 28.7819 25.6908 27.7347 25.7916 26.4307L25.7973 26.4067C25.7973 26.3945 25.7973 26.3812 25.7973 26.3693C25.7973 26.3317 25.8071 26.3077 25.8071 26.2685L26.7193 7.69024C26.7193 7.68342 26.7193 7.67288 26.7193 7.66511Z" fill="#EE4D2D"/>
<path d="M24.7685 35.139C24.9307 34.626 25.3902 34.2984 25.931 34.2984C26.461 34.2984 26.9578 34.6523 27.12 35.139L27.1464 35.1666H24.7637L24.7685 35.139ZM27.6612 35.8693C27.6686 35.8693 27.6686 35.8693 27.6803 35.8693C27.6878 35.8693 27.6878 35.8693 27.6878 35.8693C27.796 35.8671 27.8902 35.7612 27.8902 35.6528C27.8902 35.6387 27.8898 35.6264 27.8887 35.6254C27.8891 35.6254 27.8891 35.6254 27.8891 35.6129C27.8891 34.4902 27.0119 33.5987 25.9308 33.5987C24.8524 33.5987 23.9847 34.4902 23.9847 35.6129C23.9847 35.6992 23.9847 35.7847 24.0004 35.869L24.0017 35.8693L24.0091 35.8938C24.0622 36.2892 24.228 36.6526 24.4982 36.9505C24.7958 37.2841 25.201 37.5175 25.6605 37.5992H25.6875C25.7146 37.5992 25.7186 37.5992 25.7416 37.6048C26.3362 37.6798 26.8724 37.5992 27.3095 37.3721C27.4177 37.3146 27.5257 37.2473 27.6066 37.1932C27.6339 37.1667 27.6607 37.1417 27.6879 37.1348C27.6879 37.1126 27.7018 37.1126 27.7129 37.1126C27.8031 37.0044 27.8187 36.9703 27.748 36.8688C27.6879 36.7607 27.6337 36.6802 27.5798 36.5985C27.5525 36.572 27.5483 36.5445 27.5257 36.5334C27.5257 36.518 27.5257 36.518 27.5253 36.518C27.5227 36.518 27.5227 36.518 27.5195 36.518H27.5183C27.4618 36.4363 27.4176 36.4363 27.3635 36.4904C27.3607 36.4904 27.3362 36.518 27.3358 36.518C26.9037 36.8964 26.3091 37.0243 25.7256 36.8964C25.6152 36.8688 25.5224 36.8356 25.4172 36.7882C25.0596 36.5985 24.7958 36.2742 24.7144 35.8957V35.8692L27.6612 35.8693ZM20.12 35.139C20.2821 34.626 20.7408 34.2984 21.2851 34.2984C21.818 34.2984 22.3087 34.6523 22.4746 35.139L22.4984 35.1666H20.12V35.139ZM23.0175 35.8693C23.0256 35.8693 23.0256 35.8693 23.0373 35.8693C23.039 35.8693 23.039 35.8693 23.039 35.8693C23.1472 35.8671 23.2473 35.7612 23.2473 35.6528C23.2473 35.6387 23.2469 35.6264 23.2458 35.6254C23.2461 35.6254 23.2461 35.6254 23.2461 35.6129C23.2461 34.4902 22.3628 33.5987 21.2837 33.5987C20.2097 33.5987 19.3354 34.4902 19.3354 35.6129C19.3354 35.6992 19.3354 35.7847 19.3574 35.869L19.3589 35.8693L19.3633 35.8938C19.4173 36.2892 19.5795 36.6526 19.8497 36.9505C20.1462 37.2841 20.5525 37.5175 21.0111 37.5992H21.0393C21.0652 37.5992 21.0756 37.5992 21.0929 37.6048C21.6875 37.6798 22.2281 37.5992 22.6606 37.3721C22.7694 37.3146 22.8768 37.2473 22.9577 37.1932C22.9849 37.1667 23.0118 37.1417 23.039 37.1348C23.039 37.1126 23.0588 37.1126 23.0658 37.1126C23.1602 37.0044 23.1738 36.9703 23.1048 36.8688C23.039 36.7607 22.9849 36.6802 22.9309 36.5985C22.9038 36.572 22.9034 36.5445 22.8768 36.5334C22.8768 36.518 22.8768 36.518 22.8768 36.518C22.8768 36.518 22.8768 36.518 22.8764 36.518H22.8753C22.8188 36.4363 22.7686 36.4363 22.7146 36.4904L22.6871 36.518C22.2546 36.8964 21.66 37.0243 21.0827 36.8964C20.9722 36.8688 20.8766 36.8356 20.7687 36.7882C20.4161 36.5985 20.1462 36.2742 20.0665 35.8957L20.0659 35.8692L23.0175 35.8693ZM16.5784 36.977C15.8492 36.977 15.2546 36.4097 15.2334 35.6794V35.6121C15.2546 34.8963 15.8492 34.3172 16.5784 34.3172C17.309 34.3172 17.9113 34.9147 17.9113 35.6531C17.9114 36.3823 17.3091 36.977 16.5784 36.977ZM16.5784 33.6063C16.0941 33.6063 15.6422 33.7686 15.28 34.0666L15.2334 34.1105V33.7333C15.2334 33.6251 15.2189 33.6063 15.1133 33.6063H14.6502C14.5456 33.6063 14.527 33.6253 14.527 33.7333V39.6691C14.527 39.7613 14.5456 39.7881 14.6502 39.7881H15.1133C15.2167 39.7881 15.2334 39.7613 15.2334 39.6691V37.1932L15.28 37.2207C15.6424 37.5175 16.0941 37.6798 16.5784 37.6798C17.7134 37.6798 18.6324 36.7711 18.6324 35.6531C18.6324 34.5178 17.7134 33.6063 16.5784 33.6063ZM11.7612 36.925C11.0173 36.925 10.4228 36.3404 10.4228 35.6131C10.4228 34.8861 11.0174 34.3012 11.7612 34.3012C12.5039 34.3012 13.0993 34.8861 13.0993 35.6131C13.0994 36.3403 12.5039 36.925 11.7612 36.925ZM11.7612 33.5987C10.6259 33.5987 9.70676 34.4902 9.70676 35.6157C9.70676 36.7343 10.6259 37.6259 11.7612 37.6259C12.8964 37.6259 13.816 36.7343 13.816 35.6157C13.816 34.4902 12.8964 33.5987 11.7612 33.5987ZM7.17961 33.6369C6.77191 33.6369 6.36856 33.767 6.03367 34.0173L5.99354 34.0515V31.2943C5.99354 31.1928 5.9633 31.166 5.87261 31.166H5.38229C5.28745 31.166 5.26051 31.1928 5.26051 31.2943V37.572C5.26051 37.6798 5.28755 37.7073 5.38229 37.7073H5.87261C5.9633 37.7073 5.99354 37.6751 5.99354 37.572V35.5174C6.00386 34.8734 6.53079 34.3557 7.17972 34.3557C7.84057 34.3557 8.36867 34.8798 8.36867 35.5288V37.572C8.36867 37.6798 8.38741 37.7073 8.49056 37.7073H8.97715C9.0852 37.7073 9.0985 37.6798 9.0985 37.572V35.5172C9.09839 34.4902 8.23348 33.6369 7.17961 33.6369ZM0.367704 36.5634L0.366533 36.5678C0.293827 36.6699 0.261466 36.7067 0.246988 36.7342C0.192698 36.8147 0.201321 36.8568 0.286695 36.9228C0.477029 37.0849 0.73315 37.2471 0.902301 37.3287C1.37526 37.5714 1.88261 37.6798 2.42498 37.7066C2.77403 37.7105 3.21953 37.6257 3.5441 37.4909C4.13863 37.2206 4.51631 36.7066 4.58061 36.078C4.6861 35.0499 4.01706 34.4097 2.29745 33.8931L2.29628 33.8928C1.49012 33.6251 1.11244 33.278 1.11233 32.8069C1.13852 32.274 1.63064 31.8687 2.29734 31.8456C2.82789 31.8489 3.30086 32.0012 3.76903 32.3013C3.86824 32.3555 3.90891 32.343 3.97661 32.251C3.98629 32.2473 4.00365 32.2199 4.09658 32.085H4.09711C4.17897 31.976 4.20601 31.9228 4.20633 31.9228C4.26307 31.8146 4.26009 31.7704 4.15491 31.7066C4.05762 31.6252 3.78084 31.4904 3.62489 31.423C3.17908 31.2469 2.71974 31.166 2.26871 31.166C1.23294 31.1928 0.422633 31.8688 0.368662 32.7509C0.340559 33.3826 0.664702 33.8955 1.34077 34.274C1.53015 34.3821 2.21974 34.6443 2.54399 34.7342C3.46298 35.0044 3.9484 35.4971 3.84312 36.0856C3.75924 36.6254 3.19888 36.977 2.42083 37.002C1.85408 36.977 1.27999 36.7778 0.786802 36.4098C0.784566 36.4095 0.772324 36.3863 0.74635 36.3822C0.71516 36.3557 0.71516 36.3557 0.706218 36.354C0.610625 36.2741 0.545264 36.2756 0.489377 36.3822C0.476816 36.3823 0.403578 36.5011 0.367704 36.5634Z" fill="#EE4D2D"/>
</svg>
