<svg width="61" height="60" viewBox="0 0 61 60" fill="none" xmlns="http://www.w3.org/2000/svg">
<path d="M60.2805 20.0888C59.2625 19.0718 57.5486 19.1388 56.4506 20.2368L48.113 28.5747L46.205 30.4827L45.5211 31.1667C45.2221 31.4657 44.7531 31.4837 44.4771 31.2067C44.2001 30.9297 44.2171 30.4617 44.5171 30.1617L47.109 27.5708L47.103 27.5638C47.152 27.5198 47.203 27.4768 47.25 27.4288L57.4946 17.1829C58.5935 16.0839 58.6595 14.3699 57.6426 13.3539C56.6256 12.3369 54.9117 12.4029 53.8137 13.5009L43.5671 23.7468C43.5201 23.7948 43.4771 23.8458 43.4331 23.8948L43.4261 23.8888L42.1202 25.1948C41.8202 25.4938 41.3522 25.5118 41.0762 25.2348C40.7993 24.9578 40.8162 24.4898 41.1162 24.1908L42.7992 22.5078L43.1952 22.1108L54.2597 11.0469C55.4887 9.81793 55.6606 7.99695 54.6437 6.98096C53.6267 5.96397 51.8068 6.13696 50.5788 7.36595L39.5133 18.4299L39.1173 18.8268L37.4344 20.5098C37.1344 20.8098 36.6664 20.8268 36.3904 20.5498C36.1134 20.2728 36.1304 19.8048 36.4304 19.5058L37.7364 18.1989L37.7294 18.1929C37.7794 18.1489 37.8304 18.1058 37.8764 18.0578L48.123 7.81195C49.2209 6.71296 49.2869 4.99898 48.27 3.98299C47.253 2.966 45.5391 3.033 44.4401 4.12999L34.1945 14.3769C34.1475 14.4239 34.1045 14.4739 34.0605 14.5229L34.0535 14.5169L28.6557 19.9138C30.6657 24.4918 30.8277 28.3978 29.1457 31.8497C28.9417 32.2687 28.4477 32.4687 28.0418 32.2967C27.9518 32.2577 27.8738 32.2047 27.8098 32.1407C27.5828 31.9137 27.5208 31.5507 27.6798 31.2247C29.1537 28.1998 28.9507 24.6818 27.0588 20.4718C27.0308 20.4078 27.0138 20.3398 27.0038 20.2718C26.8648 19.9988 26.9188 19.6438 27.1628 19.3988L33.0496 13.5119L35.4655 11.0969C36.8194 9.74293 36.9014 7.62995 35.6484 6.37696C34.3955 5.12398 32.2826 5.20597 30.9287 6.55996L28.5127 8.97594L18.3031 19.1868L17.3432 20.1458C16.0122 21.4768 14.4333 23.9748 13.8183 25.7238L11.6474 32.7507C11.0334 34.4987 9.45451 36.9967 8.12356 38.3277L2.75977 43.6916L18.0992 59.0314L23.4629 53.6675C24.7939 52.3365 27.2638 50.6715 28.9787 49.9485L35.2675 46.9816C36.9824 46.2596 39.4523 44.5946 40.7833 43.2626L49.8849 34.1617L51.7928 32.2527L60.1305 23.9158C61.2304 22.8208 61.2964 21.1058 60.2805 20.0888Z" fill="#3B73A4"/>
<path d="M7.90127 25.8928C7.87427 25.8928 7.84627 25.8908 7.81827 25.8888C7.21429 25.8438 6.76032 25.3178 6.80532 24.7128C7.15931 19.9789 9.36121 15.5279 13.0041 12.186C15.9319 9.49999 19.5838 7.78701 22.0877 7.92801C22.6927 7.96101 23.1557 8.48 23.1227 9.08399C23.0887 9.68899 22.5707 10.155 21.9667 10.119C18.4528 9.93099 9.69919 15.4449 8.99322 24.8768C8.95122 25.4538 8.47025 25.8928 7.90127 25.8928Z" fill="#006EFF"/>
<path d="M1.09882 29.7177C1.08382 29.7177 1.06883 29.7177 1.05383 29.7167C0.448852 29.6917 -0.0231229 29.1817 0.000876154 28.5757C0.790844 9.07391 15.8132 0 25.7318 0C25.7388 0 25.7458 0 25.7528 0C26.3598 0.00099999 26.8498 0.491994 26.8488 1.09899C26.8488 1.70398 26.3578 2.19499 25.7518 2.19499C25.7468 2.19499 25.7378 2.19499 25.7308 2.19499C16.6632 2.19499 2.92475 10.5999 2.19378 28.6657C2.17078 29.2547 1.6848 29.7177 1.09882 29.7177Z" fill="#006EFF"/>
<path d="M37.2685 52.6485C36.7965 52.6485 36.3545 52.6055 35.9516 52.5195C35.3586 52.3915 34.9816 51.8075 35.1086 51.2155C35.2356 50.6225 35.8196 50.2455 36.4125 50.3725C39.8484 51.1105 49.359 47.0205 51.5219 37.8126C51.6609 37.2226 52.2529 36.8586 52.8409 36.9956C53.4309 37.1346 53.7968 37.7246 53.6579 38.3146C52.5719 42.9376 49.705 46.9905 45.5852 49.7255C42.8223 51.5625 39.6644 52.6485 37.2685 52.6485Z" fill="#006EFF"/>
<path d="M33.976 60.0003C32.97 60.0003 32.006 59.9263 31.0961 59.7813C30.4981 59.6863 30.0901 59.1243 30.1851 58.5253C30.2801 57.9274 30.8411 57.5174 31.4411 57.6144C40.3947 59.0343 55.2931 52.8734 58.828 35.1316C58.946 34.5366 59.5239 34.1506 60.1189 34.2696C60.7139 34.3876 61.0989 34.9656 60.9799 35.5606C57.518 52.9354 43.8046 60.0003 33.976 60.0003Z" fill="#006EFF"/>
</svg>
