<svg width="49" height="60" viewBox="0 0 49 60" fill="none" xmlns="http://www.w3.org/2000/svg">
<path d="M48.8025 2.62831V57.3749C48.8025 58.8186 47.6213 59.9993 46.1781 59.9993H2.62442C1.18065 59.9993 0 58.818 0 57.3749V12.5182L12.5298 0.00509254L46.1787 0.00390625C47.6219 0.00390625 48.8025 1.17156 48.8025 2.62831Z" fill="#66C6B9"/>
<path d="M42.8976 48.9747C42.8976 52.47 40.0774 55.3019 36.5827 55.3019C35.6545 55.3019 34.763 55.1092 33.9796 54.7474C33.3411 55.1092 32.5937 55.3019 31.8222 55.3019C30.677 55.3019 29.653 54.8804 28.8572 54.181C28.3027 54.6268 27.5914 54.8922 26.8205 54.8922C25.8562 54.8922 25.0007 54.4943 24.41 53.8316C23.8076 54.4943 22.9397 54.8922 21.9878 54.8922C21.2044 54.8922 20.5056 54.6268 19.951 54.181C19.1676 54.8804 18.1188 55.3019 16.9984 55.3019C16.2032 55.3019 15.4802 55.1092 14.8292 54.7474C14.034 55.1092 13.1537 55.3019 12.2379 55.3019C8.74318 55.3019 5.91064 52.47 5.91064 48.9747C5.91064 45.5037 8.74258 42.6718 12.2379 42.6718C14.8292 42.6718 17.0588 44.2267 18.023 46.4686C19.2404 46.7577 20.2525 47.5292 20.8556 48.5656C21.205 48.445 21.5905 48.3729 21.9884 48.3729C22.2656 48.3729 22.5429 48.4089 22.8078 48.4817V38.9844H25.9898V48.4811C26.2546 48.4089 26.5319 48.3723 26.8216 48.3723C27.2195 48.3723 27.5926 48.4444 27.9426 48.565C28.5574 47.5286 29.5815 46.7571 30.7988 46.468C31.7631 44.2261 33.9926 42.6712 36.5839 42.6712C40.0774 42.6718 42.8976 45.5043 42.8976 48.9747Z" fill="white"/>
<path d="M12.5267 0L0.00341797 12.5237H8.23562C10.6058 12.5237 12.5273 10.6023 12.5273 8.23208L12.5267 0Z" fill="#E8EAE9"/>
<path d="M12.5267 0L0.00341797 12.5237H8.23562C10.6058 12.5237 12.5273 10.6023 12.5273 8.23208L12.5267 0Z" fill="#E8EAE9"/>
<path d="M12.5267 0L0.00341797 12.5237H8.23562C10.6058 12.5237 12.5273 10.6023 12.5273 8.23208L12.5267 0Z" fill="#E8EAE9"/>
<path d="M44.8657 5.03125H17.8687V7.83716H44.8657V5.03125Z" fill="white"/>
<path d="M44.8657 10.6543H17.8687V13.4596H44.8657V10.6543Z" fill="white"/>
<path d="M17.2641 34.8108L19.8631 32.6836L22.633 35.6722L16.8721 39.7356L17.2641 34.8108Z" fill="#E8EAE9"/>
<path d="M14.8922 40.9218C14.3269 37.7954 13.958 33.6463 13.958 32.9001C13.958 31.6763 16.1733 29.8867 16.1733 29.8867C16.1733 29.8867 18.3892 31.6763 18.3892 32.9001C18.3892 33.6463 18.0203 37.7954 17.4551 40.9218H14.8922Z" fill="white"/>
<path d="M17.6577 39.7051C17.5932 40.1213 17.5252 40.5298 17.4543 40.9224H14.8914C14.8204 40.5298 14.7524 40.1213 14.688 39.7051H17.6577Z" fill="#F3705A"/>
<path d="M31.5316 34.8108L28.9326 32.6836L26.1621 35.6722L31.9236 39.7356L31.5316 34.8108Z" fill="#E8EAE9"/>
<path d="M33.9037 40.9218C34.4689 37.7954 34.8378 33.6463 34.8378 32.9001C34.8378 31.6763 32.6225 29.8867 32.6225 29.8867C32.6225 29.8867 30.4072 31.6763 30.4072 32.9001C30.4072 33.6463 30.7761 37.7954 31.3413 40.9218H33.9037Z" fill="white"/>
<path d="M31.1372 39.7051C31.2017 40.1213 31.2696 40.5298 31.3406 40.9224H33.9036C33.9745 40.5298 34.0425 40.1213 34.1069 39.7051H31.1372Z" fill="#F3705A"/>
<path d="M20.1462 21.6211C19.4054 23.5053 18.8662 25.9322 18.8662 29.0072C18.8662 32.7359 19.3404 36.3229 20.1308 38.9898H28.6646C29.4544 36.3234 29.9286 32.7359 29.9286 29.0072C29.9286 25.9322 29.39 23.5053 28.6492 21.6211H20.1462Z" fill="white"/>
<path d="M28.7236 21.8633C27.0984 17.5415 24.3994 15.9512 24.3994 15.9512C24.3994 15.9512 21.6987 17.5421 20.0723 21.8633H28.7236Z" fill="#F3705A"/>
<path d="M19.8091 37.7773C19.9102 38.1953 20.016 38.6033 20.1307 38.9911H28.6644C28.7791 38.6033 28.8856 38.1953 28.9861 37.7773H19.8091Z" fill="#F3705A"/>
<path d="M24.3972 31.3421C26.3027 31.3421 27.8475 29.7973 27.8475 27.8917C27.8475 25.9862 26.3027 24.4414 24.3972 24.4414C22.4916 24.4414 20.9468 25.9862 20.9468 27.8917C20.9468 29.7973 22.4916 31.3421 24.3972 31.3421Z" fill="#415A6B"/>
<path d="M26.9663 27.8911C26.9663 29.31 25.8164 30.4599 24.3975 30.4599C22.9785 30.4599 21.8286 29.31 21.8286 27.8911C21.8286 26.4722 22.9785 25.3223 24.3975 25.3223C25.8158 25.3223 26.9663 26.4722 26.9663 27.8911Z" fill="#8AD7F8"/>
<path d="M25.3966 25.5225C24.7386 26.1917 23.6786 27.2406 22.0273 28.8694C21.9717 28.7464 21.938 28.624 21.9155 28.501C21.9043 28.4898 21.9043 28.4898 21.9043 28.4898C21.9486 28.4561 21.9823 28.423 22.016 28.3893L23.6898 26.7268L24.482 25.9458C24.482 25.9346 24.4933 25.9233 24.5045 25.9233L25.0177 25.4102H25.0289C25.1513 25.4332 25.2737 25.4776 25.3966 25.5225Z" fill="#55C0EB"/>
<path d="M26.4786 26.414C25.4853 27.4073 24.3029 28.5785 22.8975 29.9619C22.7302 29.839 22.5854 29.7053 22.4512 29.5493C23.7341 28.2663 25.1401 26.8829 26.0659 25.957C26.222 26.0906 26.3674 26.2467 26.4786 26.414Z" fill="#55C0EB"/>
</svg>
