<svg width="41" height="41" viewBox="0 0 41 41" fill="none" xmlns="http://www.w3.org/2000/svg">
<path d="M23.9503 21.0704L21.0723 23.9492L25.7266 28.6023L28.6047 25.7234L23.9503 21.0704Z" fill="#2A2840"/>
<path d="M23.4919 4.38535C28.7674 9.66083 28.7674 18.2139 23.4919 23.4886C18.216 28.764 9.66416 28.764 4.38826 23.4886C-0.887231 18.2139 -0.887231 9.66083 4.38826 4.38535C9.66416 -0.888866 18.2164 -0.888866 23.4919 4.38535Z" fill="url(#paint0_linear_645_2246)"/>
<path d="M21.7007 6.17663C25.987 10.4629 25.987 17.4124 21.7007 21.6982C17.4149 25.9853 10.4658 25.9853 6.17953 21.6982C1.89328 17.4128 1.89328 10.4629 6.17953 6.17663C10.4649 1.89165 17.4149 1.89165 21.7007 6.17663Z" fill="#CCE2E8"/>
<path d="M21.0575 6.81918C24.9895 10.7504 24.9882 17.1239 21.0575 21.0551C17.1267 24.9859 10.7536 24.9859 6.82196 21.0551C2.89201 17.1239 2.89075 10.7504 6.82196 6.81918C10.7527 2.8884 17.1275 2.8884 21.0575 6.81918Z" fill="#E4F1F5"/>
<path d="M9.07389 20.2742C8.66698 20.6803 8.01045 20.6803 7.60354 20.2742C4.11002 16.7807 4.11002 11.0949 7.60354 7.60142C8.01045 7.19536 8.66698 7.19536 9.07389 7.60142C9.47954 8.00707 9.47954 8.66445 9.07389 9.07051C6.38998 11.7544 6.38998 16.1208 9.07389 18.8047C9.47954 19.2112 9.47954 19.8686 9.07389 20.2742Z" fill="white"/>
<path d="M39.5194 33.1787C40.736 34.3965 40.7372 36.369 39.5194 37.5868L37.5907 39.5155C36.3725 40.7333 34.3996 40.7333 33.1814 39.5155L23.72 30.0541C22.5022 28.8364 22.5022 26.863 23.72 25.6452L25.6478 23.7161C26.8656 22.4983 28.839 22.4983 30.0568 23.7161L39.5194 33.1787Z" fill="url(#paint1_linear_645_2246)"/>
<defs>
<linearGradient id="paint0_linear_645_2246" x1="0.190882" y1="12.4237" x2="26.8874" y2="15.3627" gradientUnits="userSpaceOnUse">
<stop stop-color="#5C3B6E"/>
<stop offset="1" stop-color="#302E5E"/>
</linearGradient>
<linearGradient id="paint1_linear_645_2246" x1="18.4161" y1="32.4737" x2="42.9074" y2="30.8823" gradientUnits="userSpaceOnUse">
<stop stop-color="#AE7958"/>
<stop offset="1" stop-color="#946A58"/>
</linearGradient>
</defs>
</svg>
