<svg width="77" height="60" viewBox="0 0 77 60" fill="none" xmlns="http://www.w3.org/2000/svg">
<path d="M74.2118 43.2416L74.1678 43.2531L27.1243 56.0219L12.6245 59.9571C11.9745 60.1334 11.3048 59.7504 11.1285 59.1006L10.8174 57.9534L7.93361 47.3303L0.0428469 18.2541C-0.133496 17.6041 0.250579 16.9356 0.899278 16.7592L4.20577 15.8618L18.5844 11.9597L62.488 0.0428431C63.1378 -0.133504 63.8065 0.250579 63.9828 0.900383L65.4769 6.40377L73.1514 34.6812L75.0694 41.7456C75.2459 42.3954 74.8619 43.0652 74.2118 43.2416Z" fill="#DEDAF4"/>
<path d="M75.069 48.844L70.2491 49.4157L60.4367 50.5776L48.4567 51.9966L48.4545 51.9977L36.9074 53.3658L34.6261 53.6359L12.7329 56.2287L11.6969 56.3523C11.0275 56.4315 10.4221 55.9541 10.3419 55.2849L9.0672 44.5209L9.06611 44.5177L8.33175 38.3122L5.97215 18.3917L5.626 15.4744L5.36356 13.2547C5.28443 12.5875 5.76158 11.9811 6.4299 11.9019L28.3686 9.30251L39.0575 8.03647L65.0829 4.95225L66.0701 4.83497L69.804 4.39334C70.4713 4.31422 71.0777 4.79137 71.1568 5.4608L74.1357 30.6048V30.6059L74.2898 31.9L75.5569 42.5914L75.6622 43.482L76.1363 47.4896C76.2156 48.1584 75.7382 48.7648 75.069 48.844Z" fill="#F4F2FD"/>
<path d="M27.8675 30.595L13.3446 32.3155C12.9041 32.3678 12.5045 32.0529 12.4524 31.6123L10.7317 17.0891C10.6796 16.6485 10.9944 16.249 11.4349 16.1969L25.9578 14.4763C26.3984 14.4242 26.7979 14.739 26.85 15.1795L28.5707 29.7028C28.6228 30.1433 28.3081 30.5429 27.8675 30.595Z" stroke="#006EFF" stroke-width="0.433931" stroke-miterlimit="10" stroke-linecap="round" stroke-linejoin="round"/>
<path d="M10.937 18.8119L27.0553 16.9023" stroke="#006EFF" stroke-width="0.433931" stroke-miterlimit="10" stroke-linecap="round" stroke-linejoin="round"/>
<path d="M15.2636 17.005C14.985 17.0233 14.7062 17.0434 14.4344 17.1112C14.3078 17.1428 14.189 17.1881 14.0669 17.2332C14.0168 17.2518 13.9625 17.272 13.9084 17.264C13.8725 17.2585 13.8651 17.2422 13.8406 17.2539C14.027 17.1635 13.9119 16.8681 13.7177 16.9525C13.3661 17.1053 13.0147 17.2579 12.6634 17.4107C12.6904 17.3446 12.7357 17.2858 12.7998 17.2387C12.9685 17.1144 12.7728 16.8544 12.6036 16.9789C12.3826 17.1415 12.2686 17.4157 12.3181 17.6871C12.3364 17.7878 12.4388 17.8632 12.5411 17.8187C12.8802 17.6714 13.2194 17.524 13.5586 17.3767C13.6288 17.5343 13.8108 17.601 13.9734 17.5892C14.1868 17.5737 14.386 17.449 14.5957 17.4065C14.8281 17.3595 15.0657 17.344 15.302 17.3285C15.511 17.3145 15.472 16.9913 15.2636 17.005Z" fill="#006EFF"/>
<path d="M18.7263 16.414C18.4162 16.4641 18.106 16.5143 17.7958 16.5646C17.7119 16.5781 17.6386 16.6559 17.6532 16.7453C17.667 16.8295 17.7439 16.9023 17.8339 16.8879C18.1441 16.8377 18.4543 16.7876 18.7645 16.7372C18.8484 16.7237 18.9216 16.6459 18.907 16.5565C18.8933 16.4724 18.8164 16.3994 18.7263 16.414Z" fill="#006EFF"/>
<path d="M24.9701 16.0382C24.6063 16.0183 24.2359 15.9967 23.8747 16.0571C23.7028 16.0859 23.5436 16.1476 23.3756 16.1901C23.3137 16.2058 23.2389 16.2213 23.1759 16.2008C23.1515 16.1927 23.0617 16.1419 23.1064 16.1042C23.2692 15.968 23.0872 15.736 22.9102 15.8444C22.551 16.0645 22.1826 16.269 21.8051 16.4562C21.7146 16.5012 21.6241 16.5467 21.5319 16.5879C21.4997 16.6023 21.4685 16.6106 21.436 16.6189C21.4404 16.6125 21.4436 16.6058 21.4482 16.5997C21.5548 16.4482 21.6969 16.3266 21.8506 16.2254C22.0254 16.1101 21.829 15.8505 21.6544 15.9656C21.4552 16.097 21.2089 16.2963 21.1152 16.5238C21.0062 16.7882 21.2623 16.9931 21.5119 16.9393C21.6422 16.9112 21.7634 16.8388 21.882 16.7806C22.02 16.7128 22.1567 16.6428 22.2922 16.5707C22.4655 16.4785 22.6364 16.3815 22.806 16.2825C22.8152 16.3028 22.8258 16.3226 22.8389 16.3414C22.9597 16.5158 23.1894 16.5594 23.3863 16.5195C23.6341 16.4693 23.8601 16.3773 24.1156 16.3549C24.3839 16.3313 24.6527 16.3453 24.921 16.3601C25.1288 16.3712 25.1791 16.0495 24.9701 16.0382Z" fill="#006EFF"/>
<path d="M47.9054 28.2139L33.3825 29.9347C32.9419 29.9868 32.5424 29.672 32.4903 29.2315L30.7698 14.7082C30.7177 14.2677 31.0325 13.8681 31.473 13.816L45.9959 12.0955C46.4364 12.0434 46.8358 12.3581 46.8881 12.7987L48.6086 27.3219C48.6609 27.7623 48.3459 28.1618 47.9054 28.2139Z" stroke="#006EFF" stroke-width="0.433931" stroke-miterlimit="10" stroke-linecap="round" stroke-linejoin="round"/>
<path d="M30.9736 16.431L47.0921 14.5215" stroke="#006EFF" stroke-width="0.433931" stroke-miterlimit="10" stroke-linecap="round" stroke-linejoin="round"/>
<path d="M35.3017 14.6281C35.0231 14.6464 34.7443 14.6664 34.4725 14.7342C34.3459 14.7658 34.2271 14.8112 34.1048 14.8563C34.0546 14.8748 34.0004 14.8951 33.9463 14.887C33.9103 14.8816 33.9029 14.8652 33.8785 14.877C34.0649 14.7865 33.9498 14.4912 33.7556 14.5755C33.404 14.7283 33.0526 14.8809 32.7012 15.0337C32.7283 14.9677 32.7736 14.9088 32.8379 14.8615C33.0066 14.7373 32.8109 14.4772 32.6417 14.6017C32.4207 14.7643 32.3067 15.0385 32.3562 15.3099C32.3745 15.4106 32.4769 15.4858 32.5792 15.4416C32.9183 15.2942 33.2575 15.1469 33.5967 14.9995C33.6669 15.1571 33.8489 15.2238 34.0115 15.212C34.2249 15.1966 34.4241 15.0719 34.6338 15.0294C34.8662 14.9823 35.1038 14.9668 35.34 14.9513C35.5491 14.9376 35.5103 14.6145 35.3017 14.6281Z" fill="#006EFF"/>
<path d="M38.7644 14.037C38.4542 14.0872 38.1441 14.1373 37.8339 14.1877C37.75 14.2012 37.6767 14.279 37.6913 14.3684C37.7051 14.4523 37.782 14.5253 37.872 14.5109C38.1822 14.4608 38.4924 14.4106 38.8026 14.3603C38.8865 14.3468 38.9597 14.269 38.9449 14.1796C38.9314 14.0954 38.8544 14.0224 38.7644 14.037Z" fill="#006EFF"/>
<path d="M45.0082 13.6612C44.6444 13.6414 44.274 13.6198 43.9128 13.6802C43.7408 13.7089 43.5817 13.7706 43.4137 13.8131C43.3518 13.8288 43.277 13.8443 43.214 13.8238C43.1896 13.8158 43.0998 13.765 43.1445 13.7273C43.3073 13.591 43.1253 13.3591 42.9483 13.4674C42.5891 13.6876 42.2207 13.8921 41.8431 14.0791C41.7527 14.124 41.662 14.1695 41.57 14.2107C41.5378 14.2251 41.5066 14.2334 41.4741 14.2417C41.4785 14.2354 41.4817 14.2286 41.4863 14.2227C41.5929 14.0712 41.735 13.9496 41.8887 13.8485C42.0635 13.7331 41.8671 13.4735 41.6925 13.5886C41.4933 13.7201 41.247 13.9193 41.1532 14.1469C41.0443 14.4113 41.3004 14.6162 41.55 14.5623C41.6803 14.5342 41.8015 14.4619 41.9201 14.4037C42.0581 14.3359 42.1947 14.2659 42.3303 14.1937C42.5036 14.1015 42.6745 14.0045 42.8441 13.9056C42.8532 13.9258 42.8639 13.9457 42.877 13.9646C42.9978 14.139 43.2275 14.1826 43.4243 14.1427C43.6722 14.0926 43.8982 14.0006 44.1537 13.9782C44.422 13.9546 44.6908 13.9686 44.9591 13.9834C45.1666 13.9943 45.2172 13.6725 45.0082 13.6612Z" fill="#006EFF"/>
<path d="M67.9435 25.8452L53.4206 27.5657C52.98 27.6178 52.5807 27.3031 52.5284 26.8625L50.8079 12.3393C50.7558 11.8987 51.0705 11.4992 51.5111 11.4471L66.034 9.72634C66.4745 9.67424 66.8739 9.98901 66.9262 10.4296L68.6467 24.9528C68.6988 25.3936 68.384 25.7929 67.9435 25.8452Z" stroke="#006EFF" stroke-width="0.433931" stroke-miterlimit="10" stroke-linecap="round" stroke-linejoin="round"/>
<path d="M51.0112 14.0619L67.1295 12.1523" stroke="#006EFF" stroke-width="0.433931" stroke-miterlimit="10" stroke-linecap="round" stroke-linejoin="round"/>
<path d="M55.3393 12.255C55.0607 12.2733 54.7819 12.2934 54.5101 12.3612C54.3834 12.3928 54.2647 12.4381 54.1426 12.4832C54.0924 12.5018 54.0382 12.522 53.9841 12.514C53.9482 12.5085 53.9407 12.4922 53.9163 12.504C54.1027 12.4135 53.9876 12.1181 53.7934 12.2025C53.4418 12.3553 53.0904 12.5079 52.7388 12.6607C52.7658 12.5946 52.8112 12.5358 52.8755 12.4887C53.0442 12.3644 52.8485 12.1044 52.6793 12.2289C52.4583 12.3915 52.3443 12.6657 52.3938 12.9371C52.4121 13.0378 52.5145 13.1132 52.6167 13.0687C52.9559 12.9214 53.2951 12.774 53.6343 12.6267C53.7044 12.7843 53.8865 12.851 54.0491 12.8392C54.2625 12.8237 54.4617 12.6988 54.6714 12.6563C54.9038 12.6092 55.1414 12.5938 55.3776 12.5783C55.5869 12.5645 55.5479 12.2415 55.3393 12.255Z" fill="#006EFF"/>
<path d="M58.802 11.662C58.4918 11.7121 58.1817 11.7623 57.8715 11.8126C57.7876 11.8261 57.7143 11.9039 57.7289 11.9933C57.7427 12.0772 57.8196 12.1503 57.9096 12.1357C58.2198 12.0855 58.53 12.0354 58.8402 11.985C58.9241 11.9715 58.9973 11.8937 58.9827 11.8043C58.969 11.7204 58.892 11.6476 58.802 11.662Z" fill="#006EFF"/>
<path d="M65.0453 11.2921C64.6815 11.2722 64.3111 11.2507 63.9499 11.311C63.778 11.3398 63.6188 11.4015 63.4508 11.444C63.3889 11.4597 63.3141 11.4752 63.2511 11.4547C63.2267 11.4466 63.1367 11.3958 63.1816 11.3581C63.3444 11.2219 63.1624 10.9899 62.9854 11.0983C62.6262 11.3184 62.2578 11.5229 61.8802 11.7102C61.7898 11.7551 61.6993 11.8006 61.6071 11.8418C61.5749 11.8562 61.5437 11.8645 61.5112 11.8728C61.5156 11.8664 61.5188 11.8597 61.5234 11.8536C61.63 11.7021 61.7721 11.5805 61.9258 11.4793C62.1006 11.364 61.9042 11.1044 61.7296 11.2195C61.5304 11.3509 61.2841 11.5502 61.1904 11.7777C61.0814 12.0421 61.3375 12.247 61.5871 12.1932C61.7174 12.1651 61.8386 12.0927 61.9572 12.0345C62.0952 11.9667 62.2318 11.8967 62.3674 11.8246C62.5407 11.7324 62.7116 11.6354 62.8812 11.5364C62.8904 11.5567 62.901 11.5765 62.9141 11.5953C63.0349 11.7697 63.2646 11.8133 63.4614 11.7734C63.7093 11.7232 63.9353 11.6312 64.1908 11.6088C64.4591 11.5853 64.7279 11.5992 64.9962 11.614C65.204 11.6254 65.2543 11.3036 65.0453 11.2921Z" fill="#006EFF"/>
<path d="M30.0812 49.2903L15.5583 51.0108C15.1178 51.0632 14.7182 50.7482 14.6661 50.3076L12.9456 35.7844C12.8933 35.3438 13.2083 34.9445 13.6488 34.8922L28.1717 33.1717C28.6123 33.1196 29.0118 33.4343 29.0639 33.8749L30.7844 48.3981C30.8365 48.8387 30.5217 49.238 30.0812 49.2903Z" stroke="#006EFF" stroke-width="0.433931" stroke-miterlimit="10" stroke-linecap="round" stroke-linejoin="round"/>
<path d="M13.1494 37.5074L29.2677 35.5977" stroke="#006EFF" stroke-width="0.433931" stroke-miterlimit="10" stroke-linecap="round" stroke-linejoin="round"/>
<path d="M17.4777 35.7003C17.1991 35.7186 16.9203 35.7387 16.6485 35.8065C16.5219 35.8381 16.4031 35.8834 16.2808 35.9286C16.2306 35.9471 16.1764 35.9674 16.1223 35.9593C16.0863 35.9538 16.0789 35.9375 16.0543 35.9493C16.2407 35.8588 16.1256 35.5634 15.9316 35.6478C15.58 35.8006 15.2286 35.9532 14.877 36.106C14.904 36.0399 14.9494 35.9811 15.0137 35.9338C15.1824 35.8095 14.9866 35.5495 14.8175 35.674C14.5965 35.8366 14.4825 36.1108 14.5319 36.3822C14.5503 36.4829 14.6527 36.5583 14.7549 36.5138C15.0941 36.3665 15.4333 36.2191 15.7724 36.0718C15.8426 36.2294 16.0246 36.2961 16.1873 36.2843C16.4007 36.2688 16.5999 36.1441 16.8096 36.1014C17.0422 36.0543 17.2795 36.0389 17.5158 36.0234C17.7251 36.0096 17.6861 35.6866 17.4777 35.7003Z" fill="#006EFF"/>
<path d="M20.9402 35.1073C20.63 35.1575 20.3198 35.2076 20.0097 35.258C19.9257 35.2715 19.8525 35.3493 19.8671 35.4387C19.8808 35.5226 19.9578 35.5956 20.0478 35.5812C20.358 35.5311 20.6682 35.481 20.9783 35.4306C21.0623 35.4171 21.1355 35.3393 21.1209 35.2499C21.1072 35.1658 21.0302 35.0927 20.9402 35.1073Z" fill="#006EFF"/>
<path d="M27.1839 34.7354C26.8201 34.7156 26.4498 34.694 26.0886 34.7544C25.9164 34.7832 25.7575 34.8449 25.5894 34.8874C25.5275 34.9031 25.4528 34.9185 25.3898 34.898C25.3654 34.8902 25.2753 34.8392 25.3202 34.8015C25.4831 34.6652 25.3011 34.4333 25.1241 34.5416C24.7648 34.7618 24.3965 34.9663 24.0189 35.1533C23.9285 35.1982 23.838 35.2438 23.7458 35.285C23.7135 35.2993 23.6824 35.3076 23.6499 35.3159C23.6542 35.3096 23.6575 35.3028 23.6621 35.2969C23.7687 35.1455 23.9108 35.0238 24.0645 34.9227C24.2393 34.8074 24.0429 34.5477 23.8683 34.6628C23.6691 34.7943 23.4228 34.9935 23.329 35.2211C23.22 35.4855 23.4762 35.6904 23.7257 35.6366C23.8561 35.6084 23.9773 35.5361 24.0959 35.4779C24.2338 35.4101 24.3705 35.3401 24.5061 35.268C24.6794 35.1758 24.8503 35.0787 25.0199 34.9798C25.029 35.0001 25.0397 35.0197 25.0528 35.0389C25.1735 35.2132 25.4033 35.2568 25.6001 35.2169C25.848 35.1668 26.074 35.0748 26.3295 35.0524C26.5978 35.0288 26.8666 35.0428 27.1349 35.0576C27.3426 35.0687 27.393 34.747 27.1839 34.7354Z" fill="#006EFF"/>
<path d="M50.1197 46.9173L35.5968 48.6378C35.1563 48.6901 34.7567 48.3751 34.7046 47.9346L32.9842 33.4113C32.9321 32.9708 33.2468 32.5712 33.6873 32.5191L48.2103 30.7986C48.6508 30.7465 49.0503 31.0613 49.1024 31.5018L50.8229 46.0251C50.8753 46.4656 50.5603 46.8652 50.1197 46.9173Z" stroke="#006EFF" stroke-width="0.433931" stroke-miterlimit="10" stroke-linecap="round" stroke-linejoin="round"/>
<path d="M33.188 35.1344L49.3065 33.2246" stroke="#006EFF" stroke-width="0.433931" stroke-miterlimit="10" stroke-linecap="round" stroke-linejoin="round"/>
<path d="M37.516 33.3292C37.2375 33.3475 36.9587 33.3676 36.6869 33.4354C36.5602 33.467 36.4414 33.5123 36.3193 33.5575C36.2692 33.576 36.2149 33.5963 36.1609 33.5882C36.1249 33.5827 36.1175 33.5664 36.0931 33.5782C36.2795 33.4877 36.1644 33.1923 35.9701 33.2767C35.6185 33.4295 35.2672 33.5821 34.9158 33.7349C34.9428 33.6688 34.9882 33.61 35.0522 33.5629C35.221 33.4387 35.0252 33.1786 34.8561 33.3031C34.635 33.4657 34.521 33.7399 34.5705 34.0113C34.5888 34.112 34.6913 34.1874 34.7935 34.143C35.1327 33.9956 35.4719 33.8482 35.811 33.7009C35.8812 33.8585 36.0632 33.9252 36.2258 33.9134C36.4392 33.8979 36.6385 33.7733 36.8482 33.7305C37.0807 33.6835 37.3181 33.668 37.5544 33.6525C37.7634 33.6388 37.7246 33.3155 37.516 33.3292Z" fill="#006EFF"/>
<path d="M40.9783 32.7343C40.6681 32.7844 40.3579 32.8346 40.0477 32.8849C39.9638 32.8984 39.8906 32.9763 39.9052 33.0656C39.9189 33.1496 39.9959 33.2226 40.0859 33.208C40.3961 33.1578 40.7063 33.1077 41.0164 33.0573C41.1004 33.0438 41.1736 32.966 41.159 32.8766C41.1453 32.7927 41.0683 32.7197 40.9783 32.7343Z" fill="#006EFF"/>
<path d="M47.223 32.3643C46.8592 32.3445 46.4889 32.3229 46.1277 32.3833C45.9557 32.4121 45.7966 32.4738 45.6285 32.5163C45.5666 32.532 45.4918 32.5474 45.4288 32.527C45.4044 32.5191 45.3144 32.4681 45.3593 32.4304C45.5221 32.2941 45.3401 32.0622 45.1631 32.1705C44.8039 32.3907 44.4355 32.5952 44.058 32.7824C43.9675 32.8273 43.8771 32.8729 43.7849 32.9141C43.7526 32.9285 43.7214 32.9368 43.689 32.945C43.6933 32.9387 43.6966 32.932 43.7012 32.9259C43.8078 32.7744 43.9499 32.6527 44.1035 32.5516C44.2784 32.4363 44.082 32.1767 43.9074 32.2917C43.7081 32.4232 43.4618 32.6224 43.3681 32.85C43.2591 33.1144 43.5152 33.3193 43.7648 33.2655C43.8952 33.2374 44.0164 33.165 44.1349 33.1068C44.2729 33.039 44.4096 32.969 44.5452 32.8969C44.7185 32.8047 44.8894 32.7077 45.0589 32.6087C45.0681 32.629 45.0788 32.6488 45.0919 32.6675C45.2126 32.8419 45.4424 32.8855 45.6392 32.8456C45.887 32.7955 46.1131 32.7035 46.3685 32.6811C46.6369 32.6575 46.9056 32.6715 47.174 32.6863C47.3815 32.6976 47.432 32.3759 47.223 32.3643Z" fill="#006EFF"/>
<path d="M70.1569 44.5442L55.634 46.2647C55.1934 46.3171 54.7939 46.0021 54.7418 45.5615L53.0213 31.0383C52.969 30.5977 53.284 30.1982 53.7245 30.1461L68.2474 28.4256C68.6879 28.3735 69.0875 28.6882 69.1396 29.1288L70.8601 43.652C70.9122 44.0926 70.5974 44.4921 70.1569 44.5442Z" stroke="#006EFF" stroke-width="0.433931" stroke-miterlimit="10" stroke-linecap="round" stroke-linejoin="round"/>
<path d="M53.2251 32.7613L69.3434 30.8516" stroke="#006EFF" stroke-width="0.433931" stroke-miterlimit="10" stroke-linecap="round" stroke-linejoin="round"/>
<path d="M57.5531 30.9503C57.2746 30.9686 56.9958 30.9887 56.724 31.0565C56.5973 31.0881 56.4785 31.1334 56.3565 31.1786C56.3063 31.1971 56.252 31.2174 56.198 31.2093C56.162 31.2038 56.1546 31.1875 56.13 31.1993C56.3163 31.1088 56.2013 30.8134 56.0073 30.8978C55.6557 31.0506 55.3043 31.2032 54.9527 31.356C54.9797 31.2899 55.0251 31.2311 55.0894 31.184C55.2581 31.0598 55.0623 30.7997 54.8932 30.9242C54.6721 31.0868 54.5581 31.361 54.6076 31.6324C54.6259 31.7331 54.7284 31.8085 54.8306 31.7641C55.1698 31.6167 55.509 31.4693 55.8481 31.322C55.9183 31.4796 56.1003 31.5463 56.2629 31.5345C56.4763 31.519 56.6756 31.3944 56.8853 31.3519C57.1176 31.3048 57.3552 31.2893 57.5915 31.2738C57.8008 31.2599 57.7618 30.9366 57.5531 30.9503Z" fill="#006EFF"/>
<path d="M61.0154 30.3593C60.7052 30.4094 60.395 30.4596 60.0849 30.5099C60.0009 30.5234 59.9277 30.6013 59.9423 30.6906C59.956 30.7745 60.033 30.8476 60.123 30.8332C60.4332 30.7831 60.7434 30.7329 61.0535 30.6826C61.1375 30.669 61.2107 30.5912 61.1961 30.5019C61.1824 30.4177 61.1054 30.3447 61.0154 30.3593Z" fill="#006EFF"/>
<path d="M67.2596 29.9874C66.8958 29.9675 66.5255 29.946 66.1643 30.0063C65.9923 30.0351 65.8332 30.0968 65.6651 30.1393C65.6032 30.155 65.5285 30.1705 65.4655 30.15C65.441 30.1419 65.3512 30.0911 65.3959 30.0534C65.5588 29.9172 65.3767 29.6853 65.1997 29.7936C64.8405 30.0138 64.4721 30.2182 64.0946 30.4053C64.0041 30.4502 63.9135 30.4957 63.8215 30.5369C63.7892 30.5513 63.758 30.5596 63.7256 30.5679C63.7299 30.5615 63.7332 30.5548 63.7378 30.5489C63.8444 30.3974 63.9865 30.2758 64.1402 30.1746C64.315 30.0593 64.1186 29.7997 63.944 29.9148C63.7448 30.0462 63.4984 30.2455 63.4047 30.473C63.2957 30.7375 63.5518 30.9424 63.8014 30.8885C63.9318 30.8604 64.053 30.788 64.1715 30.7298C64.3095 30.662 64.4462 30.5921 64.5818 30.5199C64.7551 30.4277 64.926 30.3307 65.0956 30.2317C65.1047 30.252 65.1154 30.2718 65.1285 30.2908C65.2492 30.4652 65.479 30.5088 65.6758 30.4689C65.9236 30.4188 66.1497 30.3268 66.4052 30.3043C66.6735 30.2808 66.9423 30.2947 67.2106 30.3096C67.4183 30.3205 67.4687 29.9987 67.2596 29.9874Z" fill="#006EFF"/>
<path d="M26.4109 25.862C26.4104 25.8635 26.4095 25.8655 26.4091 25.8666C26.408 25.8691 26.4071 25.8717 26.4062 25.8744C26.406 25.8755 26.406 25.8766 26.4058 25.8779C26.412 25.864 26.4126 25.8595 26.4109 25.862Z" fill="#006EFF"/>
<path d="M26.5848 25.7868C26.5801 25.7832 26.5754 25.7796 26.5709 25.7761L26.5707 25.7758C26.5707 25.7758 26.5703 25.7756 26.5698 25.7754C26.5801 25.7841 26.5845 25.7874 26.5848 25.7868Z" fill="#006EFF"/>
<path d="M26.4133 25.9639C26.4137 25.9651 26.4142 25.9655 26.4149 25.9664C26.4167 25.9692 26.419 25.9717 26.421 25.9744C26.4208 25.9731 26.4176 25.9683 26.4121 25.9609C26.4126 25.9619 26.4128 25.9628 26.4133 25.9639Z" fill="#006EFF"/>
<path d="M26.4072 25.9512L26.4074 25.9518C26.4081 25.9529 26.409 25.954 26.4096 25.9553L26.4094 25.954C26.4085 25.9529 26.4081 25.9523 26.4072 25.9512Z" fill="#006EFF"/>
<path d="M26.651 25.9088C26.6517 25.9045 26.652 25.9001 26.6522 25.8956C26.6522 25.8946 26.652 25.8935 26.652 25.8926C26.6499 25.9045 26.6494 25.9118 26.6504 25.913C26.6506 25.9116 26.6508 25.9102 26.651 25.9088Z" fill="#006EFF"/>
<path d="M26.5464 26.0283C26.5502 26.0281 26.5535 26.0278 26.5553 26.0276C26.5564 26.0274 26.5577 26.0272 26.559 26.0269C26.5601 26.0265 26.5612 26.0258 26.5626 26.0254C26.5546 26.0261 26.549 26.0269 26.5464 26.0283Z" fill="#006EFF"/>
<path d="M26.6467 25.9346C26.6478 25.9284 26.649 25.9222 26.6503 25.916C26.649 25.9181 26.6471 25.9252 26.646 25.9369C26.646 25.9362 26.6465 25.9355 26.6467 25.9346Z" fill="#006EFF"/>
<path d="M27.9597 27.0103C27.8553 27.0463 27.7503 27.0803 27.6456 27.1156C27.6138 26.711 27.5898 26.306 27.5715 25.9006C27.585 25.8914 27.5981 25.8818 27.6105 25.869C27.7614 25.7125 27.8612 25.5161 27.9151 25.3068C27.9249 25.2682 27.907 25.2146 27.8839 25.1843C27.8691 25.1647 27.8468 25.1475 27.8229 25.1357C27.8514 25.1182 27.8789 25.0982 27.9055 25.0749C28.062 24.9378 27.8673 24.6766 27.7093 24.815C27.6448 24.8715 27.5726 24.8968 27.4974 24.9024C27.461 24.8665 27.4074 24.8458 27.3592 24.8517C27.3328 24.8547 27.3104 24.8636 27.2912 24.8763C27.1685 24.8403 27.0479 24.7767 26.9466 24.7248C26.7112 24.6045 26.4535 24.4881 26.1826 24.5421C25.955 24.5877 25.7706 24.7259 25.5993 24.8752C25.4907 24.9698 25.3626 25.103 25.2202 25.1839C25.162 25.1764 25.1032 25.1974 25.0681 25.2445C25.0467 25.249 25.0256 25.2538 25.0038 25.2547C24.7291 25.2673 24.9144 24.7228 24.9403 24.5833C25.0027 24.2483 25.0598 23.9122 25.1003 23.5736C25.14 23.2436 25.1507 22.9118 25.1821 22.5812C25.2126 22.259 25.2865 21.9564 25.402 21.6545C25.5406 21.2924 25.6934 20.9354 25.8399 20.5766C25.9439 20.3218 26.042 20.0456 26.2345 19.8442C26.534 20.1286 26.6687 20.5446 26.7663 20.9389C26.8893 21.4361 26.9948 21.9499 27.3204 22.3608C27.4503 22.5247 27.7108 22.3294 27.5802 22.1646C26.9536 21.3738 27.1986 20.1487 26.3332 19.4989C26.2761 19.4562 26.192 19.4516 26.1344 19.4969C25.8818 19.6951 25.7368 19.9763 25.6154 20.2671C25.4667 20.6232 25.3222 20.9816 25.1775 21.3393C25.0439 21.6696 24.9273 22.0033 24.8802 22.3579C24.8322 22.7191 24.8287 23.0847 24.788 23.4468C24.745 23.8289 24.6801 24.2082 24.6092 24.5859C24.5587 24.8551 24.4484 25.203 24.6502 25.4378C24.8021 25.6146 25.0297 25.603 25.2305 25.5278C25.3985 25.5926 25.5666 25.6573 25.7346 25.7221C25.7649 25.8021 25.7931 25.8827 25.8197 25.9638C25.5147 25.9586 25.2017 25.9821 24.9458 26.1624C24.7559 26.296 24.6323 26.4981 24.6099 26.7174C24.1761 26.7017 23.8494 27.2035 23.3955 27.1666C23.1845 27.1496 22.9807 27.1021 22.7745 27.1422C22.7745 27.1324 22.7743 27.1226 22.7736 27.113C22.7651 27.0075 22.7176 26.9116 22.6289 26.8521C22.5225 26.781 22.3981 26.7945 22.2804 26.8233C22.1566 26.8536 22.0336 26.8702 21.9063 26.8545C21.7805 26.839 21.6617 26.7882 21.5347 26.7838C21.3986 26.7793 21.2792 26.8316 21.1826 26.926C21.0967 27.0101 21.0449 27.1136 20.983 27.215C20.9511 27.2671 20.8705 27.4023 20.7896 27.3759C20.7707 27.3698 20.7515 27.3667 20.7323 27.3661C20.7196 27.1546 20.6266 26.9504 20.4509 26.8163C20.1836 26.6127 19.8118 26.6219 19.541 26.8109C19.4648 26.8641 19.4639 26.9667 19.5092 27.0389C19.6814 27.3122 19.4294 27.6473 19.1241 27.6115C18.9381 27.5897 18.9078 27.3741 18.8505 27.2268C18.777 27.038 18.7038 26.8492 18.6306 26.6607C18.5061 26.3405 18.4095 25.9464 18.1711 25.6878C17.967 25.4668 17.5969 25.3641 17.3508 25.581C17.1209 25.7837 17.1494 26.1149 17.1684 26.391C17.1817 26.5837 17.1947 26.7764 17.2078 26.9689C17.2207 27.1562 17.2628 27.3685 17.2427 27.5553C17.2264 27.7083 17.0683 27.7218 16.941 27.7406C16.822 27.758 16.6893 27.7757 16.572 27.7382C16.4281 27.6922 16.4181 27.549 16.388 27.4219C16.3497 27.2597 16.2819 27.1206 16.1332 27.0345C15.9882 26.9506 15.8169 26.9436 15.6534 26.9515C15.505 26.9587 15.3426 26.9776 15.2249 27.0772C15.0649 27.2126 15.1022 27.4112 15.1351 27.5923C15.1758 27.8175 15.2166 28.0427 15.2574 28.2679C15.2641 28.3054 15.2807 28.3346 15.3027 28.3564C15.3021 28.3564 15.3016 28.3564 15.301 28.3564C15.2245 28.359 15.0357 28.4344 14.9703 28.391C14.9064 28.3487 14.8997 28.1746 14.8606 28.1055C14.8101 28.0159 14.732 27.9468 14.6401 27.9014C14.5337 27.8493 14.4112 27.8345 14.2957 27.8557C14.2181 27.4844 13.9288 27.1797 13.541 27.0995C13.5319 27.0975 13.5234 27.0973 13.5149 27.0966C13.466 26.7372 13.4309 26.3758 13.4111 26.0131C13.4083 25.9625 13.3871 25.9267 13.357 25.9041C13.3897 25.8738 13.4209 25.8411 13.4501 25.806C13.7411 25.937 14.0448 26.053 14.3682 26.0464C14.6808 26.0401 15.0115 25.9041 15.1841 25.6331C15.2236 25.571 15.2548 25.4624 15.3184 25.4232C15.3866 25.3811 15.5 25.4001 15.576 25.4003C15.7367 25.4008 15.8965 25.3694 16.0456 25.3088C16.3512 25.1845 16.5966 24.9482 16.7368 24.6505C16.7871 24.5436 16.6897 24.4009 16.5685 24.4238C16.141 24.5046 15.7772 24.3287 15.5074 24.0035C15.394 23.8668 15.2707 23.7162 15.1002 23.6499C15.0135 23.6164 14.9206 23.6055 14.8284 23.6201C14.717 23.6377 14.6222 23.7033 14.5138 23.7262C14.3593 23.7587 14.3456 23.5058 14.3037 23.4025C14.234 23.2299 14.1038 23.1087 13.9166 23.0771C13.723 23.0444 13.5179 23.1239 13.349 22.9964C13.1796 22.8687 13.0296 22.7313 12.8428 22.6267C12.4145 22.3867 11.9077 22.2971 11.4225 22.363C11.2152 22.3911 11.2529 22.7143 11.4609 22.6862C11.8935 22.6276 12.3321 22.71 12.7129 22.9251C12.8971 23.0291 13.0373 23.1865 13.2145 23.2974C13.402 23.4147 13.5866 23.384 13.7954 23.3918C13.9953 23.3995 14.0088 23.5507 14.0633 23.7116C14.118 23.8734 14.2202 24.0198 14.3994 24.0519C14.4995 24.0698 14.601 24.0423 14.6941 24.0072C14.7835 23.9736 14.8772 23.9165 14.9747 23.9496C15.1316 24.0031 15.2373 24.1944 15.3424 24.3115C15.5828 24.5796 15.9189 24.742 16.2716 24.766C16.1526 24.8942 16.0002 24.9903 15.8296 25.0404C15.5449 25.1241 15.1994 24.9894 15.0087 25.2835C14.9306 25.4038 14.8875 25.5211 14.763 25.6041C14.6525 25.6778 14.5195 25.7114 14.3883 25.7205C14.0642 25.7428 13.7496 25.5865 13.4639 25.4544C13.4033 25.4263 13.3095 25.4441 13.2709 25.5028C13.0591 25.8258 12.6735 25.9366 12.3502 25.8125C12.3114 25.787 12.2702 25.7657 12.2247 25.7513C12.1468 25.7031 12.0751 25.639 12.0139 25.5586C11.887 25.392 11.6267 25.5876 11.754 25.7548C11.7556 25.7567 11.7575 25.7582 11.7591 25.7604C11.7508 25.799 11.7604 25.8415 11.7979 25.8812C11.8306 25.9158 11.8633 25.9507 11.8959 25.9854C11.9971 26.1936 12.1547 26.3862 12.3657 26.4848C12.4309 26.5541 12.4963 26.6234 12.5614 26.6929C12.7234 26.8658 12.896 27.05 12.9932 27.2678C13.0647 27.6621 13.1844 28.0442 13.4185 28.369C13.4787 28.6321 13.5458 28.8939 13.6212 29.1535C13.158 29.0421 12.7075 28.8821 12.28 28.6578C12.0941 28.5602 11.9655 28.8595 12.1499 28.9562C13.8944 29.872 15.9473 29.7567 17.8463 29.5657C20.0751 29.3416 22.2871 28.9504 24.4575 28.3967C25.6806 28.0848 26.8901 27.7231 28.0831 27.3111C28.2806 27.2436 28.1577 26.9421 27.9597 27.0103ZM27.5462 25.2235C27.5674 25.2218 27.5883 25.2174 27.609 25.2137C27.6027 25.2275 27.5973 25.2416 27.5931 25.2578C27.5929 25.2586 27.5927 25.2595 27.5925 25.2604C27.5809 25.2987 27.567 25.3362 27.5513 25.3731C27.5497 25.3234 27.5478 25.2734 27.5462 25.2235ZM15.3398 29.3693C14.88 29.3558 14.4203 29.3133 13.97 29.2292C13.9702 29.2117 13.9687 29.1939 13.963 29.1747C13.9024 28.9739 13.8479 28.7714 13.7969 28.5682C13.8643 28.5199 13.8963 28.4316 13.8237 28.3533C13.7845 28.3112 13.749 28.2672 13.7152 28.2225C13.6579 27.9651 13.6108 27.7057 13.5685 27.4454C13.8237 27.5368 14.0101 27.7996 13.9916 28.0741C13.9829 28.2027 14.1346 28.3302 14.2505 28.2284C14.3229 28.165 14.4173 28.1515 14.5045 28.1975C14.615 28.2559 14.6085 28.3943 14.6544 28.4965C14.7126 28.6256 14.8273 28.7093 14.9685 28.7195C15.1052 28.7296 15.2349 28.6742 15.3716 28.6805C15.4965 28.6862 15.6229 28.7276 15.7273 28.7965C15.7853 28.8346 15.8383 28.8806 15.8821 28.9347C15.9252 28.9879 15.9532 29.0489 16.0231 29.0698C16.1533 29.1086 16.2701 29.1043 16.3904 29.183C16.4589 29.2279 16.5155 29.2839 16.5628 29.3475C16.1552 29.3709 15.7474 29.3813 15.3398 29.3693ZM20.462 28.8943C19.7455 29.0099 19.0266 29.1097 18.3053 29.1906C17.8472 29.2418 17.3868 29.29 16.9253 29.3242C16.7795 29.0225 16.4918 28.8067 16.1589 28.7631C16.0314 28.5948 15.8524 28.468 15.6504 28.405C15.6087 28.3919 15.5669 28.3825 15.5246 28.3745C15.5662 28.3457 15.5922 28.2969 15.5802 28.2299C15.5458 28.0394 15.5111 27.8489 15.4767 27.6584C15.4614 27.5747 15.4137 27.4513 15.427 27.3667C15.4387 27.2924 15.5133 27.2915 15.5793 27.2837C15.6977 27.2695 15.8651 27.2492 15.9723 27.3157C16.1018 27.3959 16.0837 27.6141 16.1365 27.7432C16.2542 28.0298 16.5554 28.0985 16.8364 28.08C17.1161 28.0614 17.4709 27.9952 17.5503 27.6802C17.5895 27.5243 17.5594 27.3519 17.5485 27.1937C17.5341 26.9835 17.5197 26.7734 17.5054 26.563C17.4929 26.3817 17.3656 25.7606 17.7031 25.7868C18.0499 25.8136 18.161 26.3527 18.2617 26.6114C18.3319 26.7919 18.4021 26.9724 18.4721 27.1531C18.5423 27.3338 18.5963 27.5453 18.7025 27.7092C18.9048 28.0211 19.3708 27.9882 19.6333 27.7737C19.8647 27.5845 19.9323 27.2848 19.8462 27.0164C20.1656 26.9059 20.5158 27.2111 20.3877 27.5657C20.3166 27.7621 20.6148 27.8929 20.6861 27.6959C20.6878 27.6913 20.6885 27.6865 20.69 27.6819C20.9187 27.7397 21.1159 27.6117 21.238 27.4171C21.2918 27.3312 21.3343 27.2294 21.4085 27.1581C21.4917 27.0779 21.5913 27.1174 21.6912 27.1435C21.8108 27.1749 21.9307 27.1889 22.0545 27.1856C22.1733 27.1825 22.2812 27.1485 22.397 27.1293C22.4094 27.1272 22.4371 27.12 22.4497 27.1239C22.4499 27.1243 22.4493 27.1243 22.4499 27.1252C22.4578 27.1368 22.4499 27.1899 22.4497 27.2074C22.4491 27.2392 22.4484 27.2708 22.4486 27.3022C22.3974 27.3484 22.3534 27.4014 22.3244 27.4635C22.1088 27.4382 21.8895 27.4306 21.682 27.5051C21.449 27.5886 21.2979 27.7589 21.2193 27.9886C21.1752 28.117 21.0946 28.1074 20.9703 28.1185C20.8563 28.1288 20.7482 28.1488 20.6499 28.2112C20.4587 28.3326 20.3574 28.5665 20.396 28.7888C20.4047 28.837 20.4297 28.8719 20.462 28.8943ZM26.1052 27.6048C24.6199 28.047 23.1126 28.4141 21.5887 28.6997C21.2931 28.7551 20.9967 28.8069 20.7 28.8564C20.7181 28.8287 20.7271 28.7932 20.7194 28.7498C20.6841 28.5469 20.8304 28.4573 21.0089 28.4412C21.1894 28.4248 21.367 28.3973 21.4686 28.228C21.5142 28.1521 21.524 28.063 21.5667 27.9867C21.6101 27.9088 21.6879 27.8552 21.7681 27.8206C21.9724 27.7323 22.208 27.7735 22.4203 27.8038C22.5023 27.8153 22.5993 27.7558 22.6058 27.6673C22.6075 27.6436 22.6141 27.6226 22.6228 27.6032C22.7093 27.61 22.7994 27.5531 22.8061 27.4672C22.851 27.4546 22.8979 27.4476 22.9406 27.4465C23.1525 27.4413 23.3591 27.5117 23.5727 27.4918C23.7859 27.4722 23.9655 27.3613 24.1386 27.2436C24.3038 27.1313 24.5129 26.977 24.7189 27.0764C24.8582 27.1435 24.9724 26.9925 24.9347 26.8658C24.8756 26.6674 25.0406 26.4691 25.2065 26.3838C25.4201 26.274 25.6791 26.2805 25.9149 26.2901C26.028 26.7176 26.0932 27.1579 26.1052 27.6048ZM27.3348 27.22C27.0327 27.3194 26.7299 27.4164 26.4258 27.5095C26.4106 27.0851 26.3496 26.6637 26.2454 26.2533C26.2748 26.2759 26.3066 26.296 26.3393 26.3115C26.4923 26.3843 26.6885 26.3655 26.8154 26.2496C26.9538 26.1231 27.0094 25.9381 26.9542 25.7578C26.8982 25.5743 26.7044 25.4467 26.5194 25.4284C26.4666 25.4232 26.4112 25.4424 26.3748 25.4797C26.37 25.4812 26.3652 25.4818 26.3605 25.4838C26.2377 25.5337 26.1403 25.6429 26.0993 25.7696C26.083 25.7225 26.0638 25.6763 26.0463 25.6294C26.0525 25.5747 26.0339 25.52 25.9916 25.4847C25.9404 25.3567 25.8859 25.2299 25.8253 25.1058C25.8957 25.045 25.9681 24.9872 26.0479 24.9393C26.2161 24.8386 26.3783 24.8486 26.537 24.9009C26.5372 24.9024 26.5368 24.904 26.537 24.9055C26.5374 24.9613 26.5379 25.0169 26.5383 25.0727C26.5401 25.0951 26.5473 25.1152 26.5597 25.1333C26.5686 25.1525 26.5817 25.1686 26.5991 25.1812C26.6157 25.1952 26.6342 25.2043 26.6552 25.2085C26.6756 25.2163 26.697 25.2185 26.719 25.215C26.7332 25.2115 26.7471 25.2078 26.7613 25.2041C26.7877 25.1932 26.8099 25.1764 26.8278 25.1542L26.8492 25.1185C26.859 25.0956 26.8622 25.0718 26.8614 25.0472C26.8853 25.0594 26.9091 25.0716 26.9331 25.0834C27.0224 25.1274 27.1201 25.1658 27.2206 25.1917C27.2376 25.8531 27.2712 26.5138 27.3233 27.1732C27.3252 27.1906 27.3294 27.2059 27.3348 27.22ZM26.403 25.886C26.4047 25.8825 26.4058 25.8783 26.4071 25.8744C26.4073 25.874 26.4073 25.8733 26.4073 25.8729C26.4086 25.867 26.4104 25.8637 26.4117 25.8622C26.4139 25.8559 26.4167 25.8494 26.42 25.8422C26.4204 25.8417 26.4202 25.8419 26.4206 25.8415C26.4254 25.835 26.43 25.8282 26.435 25.8219C26.4372 25.8191 26.4396 25.8162 26.442 25.8136C26.4487 25.8092 26.4631 25.7968 26.4681 25.7925C26.4734 25.7901 26.4784 25.7875 26.4838 25.7853C26.4991 25.7792 26.5126 25.7698 26.525 25.7591C26.5268 25.7595 26.5287 25.76 26.5305 25.7604H26.5307C26.5398 25.7643 26.5497 25.7691 26.5512 25.7698C26.5575 25.7726 26.5638 25.7755 26.5699 25.7787C26.568 25.777 26.5675 25.7768 26.5651 25.7746C26.5669 25.7761 26.5691 25.7776 26.571 25.7792C26.5782 25.7829 26.5845 25.7888 26.5845 25.7896C26.5956 25.7979 26.607 25.8064 26.6177 25.8154C26.6201 25.8182 26.6225 25.821 26.6249 25.8241C26.6283 25.8284 26.6316 25.833 26.6349 25.8378C26.6373 25.8413 26.6395 25.8448 26.6419 25.8483C26.6447 25.8555 26.6471 25.8631 26.6493 25.8688L26.6497 25.8701C26.651 25.8786 26.6519 25.8868 26.6528 25.8954C26.6532 25.8923 26.6534 25.8906 26.6543 25.8866C26.6534 25.8903 26.6534 25.8943 26.6532 25.8982C26.6532 25.8995 26.6536 25.9008 26.6536 25.9019C26.6541 25.9108 26.6521 25.9163 26.6512 25.9148C26.651 25.9154 26.651 25.9163 26.6508 25.9169C26.6525 25.9145 26.6534 25.9182 26.6508 25.9254C26.6497 25.9285 26.6484 25.9315 26.6473 25.9346C26.6469 25.9372 26.646 25.94 26.6458 25.9427C26.646 25.94 26.6462 25.9389 26.6464 25.9368C26.6456 25.9394 26.6447 25.942 26.6436 25.9446C26.6392 25.9551 26.6342 25.9653 26.629 25.9754C26.6266 25.978 26.6242 25.9808 26.6227 25.983C26.6207 25.9854 26.6133 25.9934 26.6081 25.9995C26.6028 26.0041 26.5972 26.0089 26.595 26.0107C26.5926 26.0126 26.59 26.0144 26.5874 26.0161C26.5793 26.0198 26.571 26.0231 26.5627 26.0261C26.5658 26.0259 26.5677 26.0255 26.5715 26.0255C26.5677 26.0255 26.5634 26.0268 26.5592 26.0277C26.5571 26.0285 26.5551 26.0294 26.5527 26.0303C26.5505 26.0309 26.5497 26.0309 26.5481 26.0312C26.5473 26.0309 26.546 26.0309 26.5442 26.0307C26.5442 26.0303 26.5449 26.0296 26.5466 26.029C26.5418 26.0292 26.5364 26.0296 26.532 26.0298C26.5263 26.0294 26.5209 26.029 26.5185 26.0288C26.515 26.0283 26.5113 26.0274 26.5078 26.027C26.5095 26.0279 26.5109 26.0288 26.5115 26.0298C26.5109 26.029 26.5089 26.0279 26.5069 26.027C26.5054 26.0268 26.5039 26.0266 26.5026 26.0261C26.4779 26.0211 26.4923 26.0218 26.5032 26.0253C26.4943 26.0218 26.481 26.0185 26.4773 26.017C26.4627 26.0104 26.4328 25.9882 26.4734 26.0174C26.4633 26.0102 26.4531 26.0039 26.4435 25.9963C26.44 25.9934 26.4367 25.9906 26.4335 25.9876C26.4293 25.9825 26.4252 25.9773 26.4213 25.9721C26.4217 25.9738 26.4187 25.9708 26.4154 25.9645L26.4149 25.964C26.4134 25.9616 26.4117 25.9592 26.4101 25.9564C26.4099 25.9575 26.4091 25.956 26.408 25.9529C26.4073 25.952 26.4069 25.9509 26.4062 25.9503C26.4071 25.9512 26.4071 25.9514 26.4078 25.9522C26.4071 25.9505 26.4064 25.9485 26.406 25.9461C26.4056 25.9435 26.4054 25.9411 26.4049 25.9385C26.4082 25.9474 26.4097 25.9531 26.4099 25.9549C26.411 25.9564 26.4119 25.9575 26.4128 25.9588C26.4097 25.9518 26.4073 25.9448 26.4047 25.9376C26.4038 25.9324 26.403 25.9274 26.4025 25.9222C26.4021 25.9189 26.4021 25.9158 26.4019 25.9126C26.4032 25.901 26.4047 25.8897 26.4069 25.8783C26.4054 25.8807 26.4049 25.8823 26.403 25.886Z" fill="#006EFF"/>
<path d="M22.9726 23.7044C22.7367 23.3635 22.3411 23.1389 21.9387 23.0637C21.8302 23.0435 21.7661 23.123 21.7589 23.2085C21.5333 23.3279 21.3513 23.5193 21.2802 23.7761C21.1902 24.1016 21.3232 24.4787 21.6196 24.6496C21.7822 24.7433 21.9712 24.7594 22.155 24.7681C22.362 24.7777 22.5815 24.7871 22.774 24.6955C22.9527 24.6105 23.0857 24.4608 23.1206 24.2626C23.1555 24.0643 23.0844 23.8659 22.9726 23.7044ZM22.6925 24.3695C22.5835 24.4449 22.4405 24.4523 22.3123 24.4503C22.1715 24.4481 22.0187 24.4471 21.882 24.4093C21.6671 24.3501 21.5564 24.1375 21.5801 23.9322C21.6083 23.6883 21.8258 23.4934 22.0606 23.4297C22.2557 23.4938 22.4346 23.6015 22.5828 23.7458C22.7359 23.8953 22.9327 24.2034 22.6925 24.3695Z" fill="#006EFF"/>
<path d="M21.3635 22.5901C21.282 22.4138 21.2007 22.2376 21.1192 22.0613C21.0834 21.9841 20.9895 21.934 20.9071 21.9719C20.8299 22.0075 20.7796 22.1014 20.8177 22.184L21.0621 22.7128C21.0978 22.79 21.1918 22.8401 21.2742 22.8022C21.3513 22.7669 21.4017 22.673 21.3635 22.5901Z" fill="#006EFF"/>
<path d="M22.4839 21.409C22.4052 21.4008 22.301 21.4544 22.2984 21.5455C22.2886 21.8893 22.3027 22.2324 22.3465 22.5737C22.3574 22.6581 22.4398 22.7304 22.5272 22.7163C22.6136 22.7021 22.6814 22.626 22.6698 22.5356C22.6299 22.2249 22.6116 21.8919 22.6201 21.5945C22.6227 21.5097 22.5785 21.4191 22.4839 21.409Z" fill="#006EFF"/>
<path d="M23.6237 22.0583C23.6088 22.0221 23.5751 21.9849 23.538 21.9705C23.4981 21.9552 23.4515 21.9507 23.4116 21.969C23.3747 21.986 23.3377 22.015 23.3237 22.0546C23.3072 22.1017 23.286 22.1468 23.2616 22.1904C23.2296 22.2412 23.1927 22.2883 23.1511 22.3315C23.1049 22.3746 23.055 22.4134 23.0005 22.4455C22.9678 22.4649 22.9431 22.515 22.9377 22.5508C22.9316 22.5906 22.9425 22.6416 22.9686 22.6733C22.995 22.7051 23.0316 22.7317 23.0739 22.736C23.0885 22.7363 23.1029 22.7365 23.1175 22.7367C23.1467 22.7332 23.1731 22.7225 23.1964 22.7049C23.3913 22.5904 23.5474 22.3975 23.6219 22.1843C23.6367 22.1429 23.6407 22.1004 23.6237 22.0583Z" fill="#006EFF"/>
<path d="M20.631 23.7686C20.6055 23.7379 20.5671 23.7078 20.5257 23.7058C20.3855 23.6993 20.2451 23.6925 20.105 23.686C20.0601 23.6838 20.0195 23.689 19.9825 23.7169C19.9513 23.7405 19.9238 23.7828 19.9197 23.8222C19.9151 23.8647 19.9227 23.9109 19.9506 23.9447C19.9762 23.9755 20.0145 24.0056 20.0559 24.0075C20.1961 24.0141 20.3365 24.0208 20.4766 24.0273C20.5215 24.0295 20.5621 24.0243 20.5991 23.9962C20.6303 23.9726 20.6578 23.9303 20.6619 23.8909C20.6665 23.8488 20.6589 23.8026 20.631 23.7686Z" fill="#006EFF"/>
<path d="M22.5013 25.2616C22.4893 25.1774 22.4087 25.1046 22.3206 25.119C22.2352 25.133 22.1654 25.2095 22.1783 25.2997C22.2073 25.5055 22.2363 25.7113 22.2653 25.917C22.2773 26.0012 22.3579 26.074 22.446 26.0596C22.5314 26.0457 22.6012 25.9691 22.5885 25.8789C22.5595 25.6731 22.5303 25.4673 22.5013 25.2616Z" fill="#006EFF"/>
<path d="M24.102 25.4861C24.058 25.3891 24.0141 25.2919 23.9701 25.1949C23.9529 25.1568 23.9235 25.1241 23.8845 25.1071C23.8474 25.0909 23.7953 25.0883 23.758 25.1055C23.7203 25.1228 23.6857 25.1515 23.6702 25.1912C23.6547 25.2313 23.6506 25.2775 23.6687 25.3176C23.7127 25.4146 23.7565 25.5119 23.8005 25.6089C23.8178 25.647 23.8472 25.6797 23.8862 25.6967C23.9232 25.7128 23.9753 25.7155 24.0126 25.6982C24.0501 25.681 24.085 25.6522 24.1005 25.6126C24.1159 25.5727 24.1203 25.5265 24.102 25.4861Z" fill="#006EFF"/>
<path d="M21.256 25.1577C21.2296 25.1259 21.193 25.0993 21.1507 25.0949C21.1062 25.0901 21.065 25.0999 21.0282 25.1259C20.9471 25.183 20.8662 25.2401 20.7851 25.2972C20.7524 25.3203 20.7282 25.3635 20.7224 25.4025C20.7163 25.4424 20.7272 25.4934 20.7533 25.525C20.7797 25.5568 20.8163 25.5834 20.8586 25.5878C20.9031 25.5926 20.9443 25.5828 20.9811 25.5568C21.0622 25.4997 21.1431 25.4426 21.2241 25.3855C21.2568 25.3624 21.281 25.3192 21.2869 25.2802C21.293 25.2403 21.2821 25.1895 21.256 25.1577Z" fill="#006EFF"/>
<path d="M42.6963 19.8036C42.0434 19.8644 41.3904 19.9254 40.7375 19.9863C40.5302 20.0057 40.5668 20.3244 40.772 20.3095C40.7297 20.3387 40.7013 20.3878 40.7087 20.4545C40.7842 21.1396 40.8598 21.8247 40.9354 22.5098C40.9147 22.5031 40.8921 22.5005 40.8685 22.5033L40.2636 22.575C40.2172 22.1053 40.1706 21.6353 40.1241 21.1655C40.1115 21.0372 39.9842 21.0027 39.8929 21.0435C39.8599 21.0343 39.8238 21.0345 39.7878 21.0474C39.7599 21.0572 39.7313 21.0653 39.7028 21.0731C39.6516 21.0851 39.6001 21.0945 39.548 21.1002C39.5328 21.0836 39.5129 21.0692 39.4865 21.0592C39.247 20.9678 38.9972 21.0786 38.8612 21.2891C38.6983 21.5413 38.7622 21.8456 38.8503 22.1127C38.9327 22.362 39.0757 22.6827 38.8535 22.9022C38.6515 23.1017 38.3485 23.086 38.0837 23.0382C37.9832 22.3564 37.8829 21.6743 37.7824 20.9925C37.7693 20.904 37.6915 20.8414 37.6017 20.8499C37.3798 20.871 37.1579 20.892 36.936 20.9131C36.7235 20.9334 36.4815 20.9255 36.276 20.9846C36.0992 21.0354 36.0323 21.1965 36.0608 21.3687C36.0966 21.5856 36.1554 21.7997 36.1944 22.0163C36.3512 22.8891 36.417 23.7805 36.3821 24.6668C36.366 25.0753 36.3503 25.5016 36.2653 25.9027C36.2278 26.0793 36.1528 26.2412 35.9985 26.3433C35.8594 26.4353 35.6879 26.4697 35.5255 26.4924C35.2345 26.5331 34.7702 26.6221 34.5581 26.3548C34.3477 26.09 34.4441 25.6985 34.38 25.3898C34.3438 25.215 34.2708 25.0417 34.1163 24.9399C33.9434 24.8259 33.7389 24.8477 33.5438 24.8717C33.0279 24.9355 32.5119 24.9998 31.996 25.0641C31.7883 25.0899 31.8262 25.4131 32.0344 25.3874L33.3954 25.2183C33.5447 25.1997 33.8091 25.1169 33.9438 25.2154C34.0637 25.3031 34.0742 25.499 34.0816 25.6337C34.0997 25.9648 34.0969 26.3345 34.3364 26.595C34.5845 26.8647 34.9585 26.8727 35.299 26.8444C35.6268 26.8169 35.9954 26.7762 36.2577 26.5567C36.5508 26.311 36.6021 25.9304 36.6409 25.5725C36.7363 24.6964 36.7398 23.8086 36.6513 22.9319C36.6018 22.4401 36.5229 21.9511 36.4153 21.4685C36.4061 21.4278 36.373 21.3543 36.3817 21.3127C36.3889 21.2785 36.4185 21.2902 36.4689 21.2852C36.6021 21.2721 36.7352 21.2599 36.8682 21.2473C37.0731 21.2279 37.278 21.2083 37.4829 21.1889C37.5814 21.8576 37.68 22.5264 37.7783 23.1952C37.7894 23.2699 37.8432 23.3216 37.9154 23.3369C38.2094 23.3999 38.5307 23.4352 38.8147 23.3109C39.0574 23.2048 39.2507 22.9968 39.2904 22.7289C39.3335 22.4375 39.2008 22.1715 39.1236 21.8991C39.0874 21.7718 39.0536 21.6096 39.1214 21.4866C39.14 21.4531 39.1679 21.4191 39.201 21.3931C39.2217 21.4099 39.2466 21.4221 39.2753 21.4249C39.4591 21.4437 39.642 21.426 39.8187 21.3765C39.8604 21.797 39.902 22.2177 39.9436 22.6382C39.945 22.6524 39.948 22.6653 39.9519 22.677C39.933 22.7071 39.9229 22.7429 39.929 22.7793C39.9434 22.8662 40.0193 22.9325 40.1097 22.9216L40.9073 22.827C40.9289 22.8244 40.9498 22.817 40.9686 22.8059L41.3088 25.8916C40.9779 25.9542 40.6471 26.0167 40.3164 26.0793C40.2963 26.083 40.2776 26.0902 40.2604 26.0996C40.2305 26.0921 40.1982 26.0939 40.1653 26.1072C40.0903 26.1377 40.0345 26.2412 40.076 26.3193C40.1769 26.5089 40.2612 26.7053 40.3299 26.9065C39.9763 26.9798 39.6226 27.053 39.269 27.1263C39.2579 27.1286 39.2472 27.1317 39.2367 27.1358C39.1812 27.1038 39.1009 27.1071 39.0534 27.1465C38.98 27.2071 38.9741 27.2965 39.0216 27.3745C39.0305 27.3889 39.039 27.4035 39.0478 27.4181C39.0447 27.4133 39.0608 27.4412 39.0617 27.4428C39.0787 27.4739 39.0951 27.5053 39.1105 27.5371C39.1406 27.5984 39.1681 27.661 39.1927 27.7246C39.2176 27.7883 39.2396 27.853 39.2588 27.9184C39.2631 27.933 39.2673 27.9476 39.2712 27.9622C39.2727 27.9681 39.2742 27.9738 39.2758 27.9797C39.276 27.981 39.2771 27.9851 39.279 27.9934C39.2869 28.0278 39.2947 28.0625 39.3015 28.0971C39.3178 28.1804 39.3909 28.2545 39.4822 28.2395C39.5637 28.2262 39.6422 28.1482 39.6247 28.0588C39.5812 27.838 39.5099 27.6278 39.4142 27.4271C39.7501 27.3575 40.0862 27.288 40.4221 27.2185C40.4733 27.4216 40.5091 27.6291 40.5274 27.8401C40.5455 28.049 40.8687 28.0104 40.8506 27.8018C40.8293 27.5552 40.7859 27.3109 40.7218 27.0722C40.7288 27.0513 40.7319 27.0284 40.729 27.0037C40.7244 26.9647 40.7024 26.9266 40.6715 26.8991C40.6157 26.7221 40.5481 26.5488 40.4694 26.3808C40.804 26.3175 41.1388 26.2541 41.4734 26.1909C41.5416 26.178 41.597 26.1296 41.6123 26.0647C41.6349 26.0359 41.648 25.998 41.6428 25.9509C41.4394 24.1061 41.236 22.2613 41.0327 20.4166C41.0257 20.354 40.9915 20.3141 40.9479 20.2938C41.5436 20.2382 42.1395 20.1827 42.7353 20.1271C42.9432 20.1072 42.9049 19.784 42.6963 19.8036Z" fill="#006EFF"/>
<path d="M47.1865 17.5553C46.5282 17.8389 46.1712 18.6195 46.3621 19.3007C45.8571 19.4692 45.4907 19.9477 45.4647 20.4809C45.1595 20.5149 44.877 20.6736 44.7109 20.9425C44.5608 21.186 44.5335 21.474 44.6083 21.7391C44.2124 21.721 43.8177 21.8256 43.4833 22.0401C43.3957 21.3282 43.308 20.6162 43.2202 19.9045C43.1947 19.6968 42.8714 19.7345 42.8969 19.9429C43.067 21.3227 43.2368 22.7025 43.4068 24.0824C43.4183 24.1765 43.499 24.2258 43.5875 24.2249C44.1233 24.2186 44.6593 24.2123 45.1951 24.2057C45.2504 24.2051 45.3043 24.1576 45.3252 24.1092C45.4198 23.8886 45.4054 23.6573 45.3581 23.4271C45.3117 23.2008 45.2201 22.9443 45.2897 22.7141C45.3564 22.4939 45.5757 22.3498 45.7886 22.2936C46.0735 22.2184 46.3765 22.2688 46.6625 22.3132C46.7067 22.8281 46.7028 23.3449 46.6481 23.8598C46.6124 23.8934 46.5906 23.9409 46.5991 23.9932C46.6128 24.0767 46.69 24.151 46.7798 24.1358C47.1351 24.0752 47.4906 24.0146 47.8461 23.9542C47.9298 23.9398 48.0033 23.8633 47.9887 23.7735C47.9749 23.69 47.8978 23.6157 47.808 23.6309C47.5329 23.6778 47.2578 23.7246 46.9827 23.7715C47.0357 23.1821 47.0285 22.5879 46.9578 22.0002C46.9354 21.8134 46.6732 21.8256 46.6379 21.9808C46.0864 21.9028 45.4176 21.8836 45.078 22.4093C44.9261 22.6445 44.9226 22.9157 44.974 23.183C45.0172 23.4068 45.1085 23.6551 45.0571 23.8838C44.6087 23.889 44.1601 23.8945 43.7117 23.8997C43.6505 23.402 43.5892 22.9044 43.5278 22.4065C43.9014 22.1118 44.3753 21.9995 44.8417 22.0926C44.9917 22.1225 45.0673 21.9453 44.9961 21.8337C44.704 21.3757 45.0591 20.7632 45.6033 20.7958C45.7097 20.8022 45.7997 20.7283 45.7895 20.6158C45.7448 20.1303 46.1097 19.6541 46.5919 19.5749C46.6932 19.5584 46.7676 19.4526 46.7235 19.3519C46.4824 18.7994 46.7525 18.0964 47.3088 17.8568C47.5013 17.7742 47.3796 17.4723 47.1865 17.5553Z" fill="#006EFF"/>
<path d="M41.9606 21.2103C41.9497 21.184 41.933 21.1618 41.9108 21.1442C41.8988 21.137 41.8871 21.1298 41.8751 21.1229C41.8481 21.1113 41.8203 21.1072 41.7911 21.1105L41.6813 21.1235C41.6589 21.1253 41.6388 21.1324 41.6208 21.1448C41.6016 21.1538 41.5855 21.1668 41.5729 21.1844C41.559 21.201 41.5499 21.2195 41.5457 21.2403C41.5379 21.2608 41.5357 21.2821 41.5392 21.3041C41.5429 21.3182 41.5464 21.3321 41.5501 21.3463C41.561 21.3726 41.5777 21.3948 41.5999 21.4126C41.6119 21.4198 41.6236 21.4268 41.6356 21.434C41.6623 21.4455 41.6904 21.4496 41.7196 21.4464L41.8294 21.4333C41.8516 21.4316 41.8719 21.4244 41.8899 21.412C41.9091 21.4031 41.9252 21.39 41.9378 21.3726C41.9517 21.3561 41.9608 21.3376 41.965 21.3167C41.9728 21.2963 41.975 21.2749 41.9715 21.253C41.9678 21.2384 41.9641 21.2242 41.9606 21.2103Z" fill="#006EFF"/>
<path d="M42.3391 21.966L41.9539 22.0115C41.9125 22.0166 41.8711 22.0397 41.8453 22.0724C41.8207 22.1037 41.805 22.1521 41.8115 22.1922C41.8259 22.2792 41.9018 22.3455 41.9923 22.3348L42.3774 22.2892C42.4188 22.2842 42.4603 22.2611 42.486 22.2284C42.5106 22.197 42.5263 22.1486 42.5198 22.1085C42.5054 22.0213 42.4295 21.9553 42.3391 21.966Z" fill="#006EFF"/>
<path d="M39.4126 23.8387C39.3795 23.8147 39.3344 23.7962 39.2927 23.8049C39.1929 23.8261 39.0933 23.8472 38.9934 23.8684C38.9503 23.8775 38.913 23.8934 38.8849 23.9292C38.8603 23.9606 38.8446 24.009 38.8511 24.0491C38.8579 24.0907 38.8768 24.1323 38.9119 24.1576C38.945 24.1816 38.9902 24.2003 39.0318 24.1914C39.1316 24.1703 39.2312 24.1491 39.3311 24.128C39.3742 24.1188 39.4115 24.1029 39.4396 24.0672C39.4643 24.0358 39.48 23.9874 39.4734 23.9473C39.4667 23.9059 39.4477 23.8642 39.4126 23.8387Z" fill="#006EFF"/>
<path d="M37.8709 23.806C37.6633 23.8306 37.7012 24.1532 37.9092 24.1287C38.1165 24.1041 38.0787 23.7814 37.8709 23.806Z" fill="#006EFF"/>
<path d="M33.0652 25.8509C32.8577 25.8755 32.8955 26.1982 33.1035 26.1736C33.3111 26.149 33.2732 25.8264 33.0652 25.8509Z" fill="#006EFF"/>
<path d="M34.9414 27.4216C34.9243 27.3839 34.8955 27.3493 34.8559 27.3339C34.8425 27.33 34.829 27.326 34.8155 27.3221C34.7861 27.3178 34.7574 27.3213 34.7298 27.3324C34.6667 27.3487 34.6036 27.3652 34.5405 27.3815C34.52 27.3889 34.5028 27.4009 34.4891 27.417C34.4728 27.4305 34.4609 27.4472 34.453 27.4672C34.4435 27.487 34.4393 27.5079 34.4411 27.5295C34.4389 27.5514 34.4424 27.5728 34.4515 27.5934C34.4687 27.6311 34.4974 27.6657 34.537 27.6811C34.5505 27.685 34.564 27.6889 34.5775 27.6929C34.6071 27.6972 34.6356 27.6937 34.6632 27.6826C34.7263 27.6663 34.7894 27.6498 34.8522 27.6335C34.8727 27.6261 34.8899 27.6141 34.9036 27.598C34.9197 27.5845 34.9319 27.5678 34.9397 27.5477C34.9493 27.5277 34.9534 27.5071 34.9517 27.4855C34.9543 27.4635 34.9508 27.4422 34.9414 27.4216Z" fill="#006EFF"/>
<path d="M38.0047 25.4115C37.7971 25.4361 37.835 25.7587 38.043 25.7341C38.2505 25.7095 38.2127 25.3869 38.0047 25.4115Z" fill="#006EFF"/>
<path d="M43.8515 25.0388C43.8164 25.0135 43.7754 24.9998 43.7316 25.005L43.4565 25.0377C43.4151 25.0425 43.3737 25.0658 43.3478 25.0985C43.3231 25.1299 43.3074 25.1783 43.314 25.2184C43.3207 25.26 43.3397 25.3017 43.3748 25.3272C43.4099 25.3525 43.4509 25.3662 43.4947 25.361L43.7698 25.3283C43.8112 25.3233 43.8526 25.3002 43.8786 25.2675C43.9032 25.2361 43.9189 25.1877 43.9123 25.1476C43.9054 25.1057 43.8866 25.0641 43.8515 25.0388Z" fill="#006EFF"/>
<path d="M46.5184 24.7611C46.3108 24.7857 46.3487 25.1083 46.5566 25.0837C46.7642 25.0592 46.7263 24.7365 46.5184 24.7611Z" fill="#006EFF"/>
<path d="M45.9671 22.9291C45.7595 22.9537 45.7974 23.2763 46.0054 23.2517C46.2129 23.2271 46.1751 22.9045 45.9671 22.9291Z" fill="#006EFF"/>
<path d="M42.5155 23.6068C42.5066 23.5877 42.4935 23.5716 42.4759 23.5588C42.4594 23.5448 42.4409 23.5357 42.42 23.5316C42.3996 23.5237 42.3782 23.5216 42.3563 23.525C42.3421 23.5287 42.3282 23.5322 42.3141 23.5359C42.2877 23.5468 42.2655 23.5636 42.2477 23.5857L42.2264 23.6214C42.2148 23.6484 42.2107 23.6763 42.214 23.7054L42.2205 23.7602C42.2222 23.7826 42.2294 23.8027 42.2418 23.8207C42.2507 23.8399 42.2638 23.856 42.2814 23.8686C42.2979 23.8825 42.3164 23.8916 42.3373 23.8958C42.3578 23.9036 42.3789 23.9058 42.4011 23.9023C42.4152 23.8986 42.4291 23.8951 42.4433 23.8914C42.4696 23.8805 42.4918 23.864 42.5096 23.8416L42.531 23.8059C42.5425 23.7789 42.5466 23.7511 42.5434 23.7219L42.5368 23.6671C42.5351 23.6449 42.5279 23.6249 42.5155 23.6068Z" fill="#006EFF"/>
<path d="M39.6224 25.4115C39.4148 25.4361 39.4527 25.7587 39.6606 25.7341C39.8682 25.7096 39.8303 25.3869 39.6224 25.4115Z" fill="#006EFF"/>
<path d="M40.2029 24.4232C39.9954 24.4478 40.0332 24.7705 40.2412 24.7459C40.4488 24.7211 40.4109 24.3984 40.2029 24.4232Z" fill="#006EFF"/>
<path d="M37.0042 26.6146C36.7966 26.6392 36.8345 26.9618 37.0425 26.9373C37.25 26.9127 37.2122 26.59 37.0042 26.6146Z" fill="#006EFF"/>
<path d="M33.7435 28.2845C33.5359 28.3091 33.5738 28.6318 33.7817 28.6072C33.9891 28.5824 33.9512 28.26 33.7435 28.2845Z" fill="#006EFF"/>
<path d="M41.9905 27.1168C41.9796 27.0905 41.9631 27.0683 41.9406 27.0504C41.9287 27.0432 41.9169 27.0363 41.905 27.0291C41.878 27.0176 41.8501 27.0134 41.821 27.0167L41.7936 27.02C41.7712 27.0217 41.7512 27.0289 41.7331 27.0413C41.7139 27.0502 41.6978 27.0633 41.6852 27.0809C41.6713 27.0974 41.6622 27.1159 41.658 27.1368C41.6502 27.1572 41.648 27.1784 41.6515 27.2005C41.6552 27.2147 41.6587 27.2286 41.6624 27.2428C41.6733 27.2691 41.69 27.2913 41.7122 27.3091L41.7479 27.3304C41.7749 27.342 41.8027 27.3461 41.8319 27.3428L41.8593 27.3396C41.8817 27.3378 41.9017 27.3306 41.9198 27.3182C41.9389 27.3093 41.955 27.2963 41.9676 27.2786C41.9815 27.2621 41.9907 27.2436 41.9948 27.2227C42.0027 27.2023 42.0048 27.1812 42.0013 27.159C41.9976 27.1448 41.9942 27.1309 41.9905 27.1168Z" fill="#006EFF"/>
<path d="M46.7567 26.2961L45.9866 26.3874C45.9021 26.3975 45.8299 26.4814 45.8441 26.5681C45.8582 26.6553 45.9341 26.7214 46.0248 26.7107L46.7949 26.6194C46.8795 26.6093 46.9516 26.5254 46.9374 26.4387C46.9231 26.3515 46.8472 26.2852 46.7567 26.2961Z" fill="#006EFF"/>
<path d="M37.725 28.5749C37.2836 28.5058 36.845 28.5921 36.4599 28.8099C36.1802 28.6547 35.8726 28.5592 35.5505 28.5446C35.3637 28.5361 35.1769 28.5487 34.9944 28.5912C34.8052 28.6352 34.6287 28.7146 34.4425 28.768C34.24 28.826 34.0848 28.7983 33.9034 28.6989C33.7437 28.6113 33.5872 28.5385 33.4043 28.5149C33.0272 28.4667 32.6531 28.5851 32.3004 28.7046C32.1021 28.7717 32.2252 29.0732 32.4232 29.006C32.7377 28.8997 33.0832 28.7813 33.4189 28.8465C33.592 28.88 33.7288 28.9842 33.8864 29.0555C34.0445 29.1268 34.216 29.1449 34.3865 29.1139C34.5659 29.0812 34.7335 29.0093 34.9057 28.9522C35.064 28.8997 35.2281 28.8724 35.3948 28.8665C35.7305 28.8548 36.0745 28.947 36.3598 29.1242C36.4265 29.1656 36.4917 29.1691 36.5586 29.1261C36.8915 28.9132 37.2871 28.8356 37.6764 28.8966C37.8833 28.9291 37.9319 28.6071 37.725 28.5749Z" fill="#006EFF"/>
<path d="M48.3448 26.6509C48.0041 26.5844 47.6381 26.6851 47.3842 26.9236C47.3229 26.9812 47.2702 27.0435 47.2226 27.1128C47.1699 27.1898 47.1213 27.2844 47.0367 27.331C46.8789 27.4182 46.6596 27.3563 46.492 27.3371C46.0953 27.2918 45.7286 27.3378 45.423 27.6111C45.2598 27.7572 45.1231 27.8082 44.9023 27.7692C44.7046 27.7341 44.5158 27.6591 44.3135 27.6519C44.1071 27.6445 43.9129 27.7051 43.7747 27.8636C43.6528 28.0033 43.6099 28.1958 43.6855 28.3677C43.7699 28.5589 44.0718 28.4373 43.987 28.2448C43.8972 28.0412 44.1973 27.966 44.3351 27.9784C44.5683 27.9996 44.7852 28.1003 45.0209 28.1092C45.243 28.1177 45.4226 28.044 45.5874 27.8993C45.7572 27.7504 45.9078 27.6604 46.1386 27.6458C46.5367 27.6207 47.0064 27.8381 47.3316 27.508C47.4735 27.3639 47.5433 27.1815 47.7222 27.071C47.8958 26.9639 48.0969 26.9336 48.2955 26.9722C48.502 27.013 48.5499 26.6908 48.3448 26.6509Z" fill="#006EFF"/>
<path d="M36.1497 23.5641C36.0418 23.2929 35.918 23.0032 35.6797 22.8201C35.414 22.6156 35.0838 22.6287 34.7793 22.5284C34.458 22.4225 34.1825 22.2119 33.8561 22.118C33.6081 22.0467 33.3367 22.0417 33.1065 22.1533C32.7667 21.6317 32.1306 21.3319 31.5068 21.4429C31.3015 21.4793 31.3383 21.8028 31.5452 21.7662C32.0844 21.6705 32.6568 21.9438 32.8999 22.4406C32.9439 22.5306 33.0625 22.5797 33.1488 22.509C33.6131 22.1282 34.2457 22.7024 34.6936 22.841C34.9364 22.916 35.2301 22.9079 35.4463 23.0523C35.6599 23.195 35.7576 23.4586 35.8482 23.687C35.9254 23.8812 36.2273 23.7592 36.1497 23.5641Z" fill="#006EFF"/>
<path d="M36.1482 17.8818C35.8435 17.5627 35.4003 17.5352 34.9853 17.5605C34.9626 17.5618 34.9435 17.5675 34.9265 17.5753C34.9101 17.5548 34.8898 17.5376 34.8663 17.5272C34.7811 17.4901 34.6926 17.533 34.652 17.6113C34.4842 17.9363 34.4232 18.3274 34.5003 18.6866C34.5372 18.8579 34.6052 19.0312 34.7506 19.1394C34.9005 19.251 35.0873 19.2743 35.2689 19.2736C35.6299 19.2723 36.0163 19.1385 36.2193 18.8228C36.412 18.5231 36.3991 18.1447 36.1482 17.8818ZM35.9823 18.5844C35.8699 18.8204 35.6085 18.9227 35.3622 18.9449C35.2419 18.9558 35.1006 18.9602 34.9892 18.9055C34.8898 18.8569 34.8471 18.7513 34.8236 18.6485C34.7615 18.3782 34.7963 18.0959 34.9031 17.8428C34.9326 17.87 34.9729 17.8868 35.0235 17.8838C35.2857 17.8679 35.5869 17.8602 35.8121 18.0185C36.0039 18.1534 36.0865 18.3655 35.9823 18.5844Z" fill="#006EFF"/>
<path d="M37.7275 17.8539C37.6686 17.7827 37.5755 17.7718 37.4995 17.8221C37.4894 17.8287 37.4792 17.8348 37.4689 17.8409C37.4145 17.8701 37.3571 17.893 37.2978 17.91C37.2359 17.9239 37.1729 17.9318 37.1093 17.932C37.1086 17.932 37.1082 17.932 37.1075 17.932C37.0626 17.9298 37.0221 17.935 36.985 17.9629C36.9539 17.9865 36.9264 18.0288 36.9223 18.0682C36.9138 18.1487 36.9678 18.2489 37.0587 18.2537C37.1797 18.2598 37.2922 18.2478 37.4088 18.2158C37.5115 18.1877 37.6071 18.1404 37.6956 18.0815C37.7669 18.0349 37.7811 17.9189 37.7275 17.8539Z" fill="#006EFF"/>
<path d="M36.0492 20.2929C35.9884 20.0956 35.9274 19.8983 35.8666 19.701C35.8415 19.6195 35.7295 19.5772 35.6545 19.6117C35.5686 19.6511 35.5383 19.7366 35.5651 19.8238C35.6259 20.021 35.687 20.2183 35.7478 20.4156C35.7729 20.4971 35.8849 20.5394 35.9599 20.505C36.0458 20.4655 36.0763 20.3803 36.0492 20.2929Z" fill="#006EFF"/>
<path d="M34.4895 20.2887C34.5089 20.2283 34.5338 20.1703 34.5658 20.1154C34.5876 20.0801 34.6013 20.0448 34.5961 20.0014C34.5915 19.9617 34.5682 19.9166 34.5353 19.8928C34.5011 19.8682 34.4581 19.8521 34.4154 19.8591C34.3753 19.8656 34.3295 19.8841 34.3066 19.9199C34.2502 20.0082 34.207 20.0982 34.178 20.1987C34.1486 20.3003 34.1375 20.3994 34.1377 20.5052C34.1379 20.544 34.1693 20.5908 34.1985 20.6137C34.2299 20.6383 34.2783 20.654 34.3184 20.6475C34.36 20.6407 34.4017 20.6218 34.4272 20.5867L34.4485 20.5509C34.4577 20.5296 34.461 20.5071 34.4607 20.4842C34.4625 20.418 34.4727 20.3528 34.4895 20.2887Z" fill="#006EFF"/>
<path d="M33.7667 18.8254L33.1891 18.8938C33.1045 18.9039 33.0324 18.9878 33.0468 19.0745C33.0611 19.1617 33.137 19.2278 33.2275 19.2171L33.8051 19.1487C33.8897 19.1386 33.9618 19.0547 33.9477 18.968C33.9333 18.8808 33.8574 18.8145 33.7667 18.8254Z" fill="#006EFF"/>
<path d="M33.9971 17.6736C33.8957 17.6019 33.7941 17.5302 33.6928 17.4587C33.6575 17.4338 33.6165 17.4197 33.5729 17.4249C33.5332 17.4295 33.4881 17.4528 33.4641 17.4857C33.4395 17.52 33.4234 17.5629 33.4303 17.6056C33.4371 17.647 33.4558 17.6893 33.4912 17.7142C33.5925 17.7859 33.6941 17.8576 33.7955 17.9291C33.8308 17.954 33.8715 17.9681 33.9153 17.9629C33.955 17.9583 34.0001 17.935 34.0241 17.9021C34.0487 17.8678 34.0649 17.8249 34.0579 17.7822C34.0511 17.741 34.0324 17.6987 33.9971 17.6736Z" fill="#006EFF"/>
<path d="M36.3594 16.73C36.3359 16.6989 36.2936 16.6714 36.2541 16.6673C36.2116 16.6627 36.1654 16.6703 36.1316 16.6984C36.0998 16.7246 36.073 16.7616 36.0688 16.8037C36.0603 16.8885 36.0521 16.9731 36.0435 17.0579C36.0392 17.1013 36.0479 17.1451 36.0745 17.1804C36.098 17.2116 36.1403 17.239 36.1798 17.2432C36.2223 17.2477 36.2685 17.2401 36.3023 17.212C36.3341 17.1858 36.3609 17.1488 36.3651 17.1067C36.3736 17.0219 36.3818 16.9373 36.3903 16.8525C36.3947 16.8092 36.3862 16.7653 36.3594 16.73Z" fill="#006EFF"/>
</svg>
