<svg width="38" height="60" viewBox="0 0 38 60" fill="none" xmlns="http://www.w3.org/2000/svg">
<path d="M29.3649 35.4789C29.3649 39.8331 25.2112 43.3632 20.0876 43.3632H16.995C11.8714 43.3632 7.71777 39.8331 7.71777 35.4789V7.88428C7.71777 3.5301 11.8714 0 16.995 0H20.0876C25.2112 0 29.3649 3.5301 29.3649 7.88428V35.4789Z" fill="#515252"/>
<path d="M20.8525 48.9826H16.2297C7.96843 48.9826 1.24707 42.2618 1.24707 34.0007C1.24707 33.3862 1.74571 32.8887 2.35962 32.8887C2.97353 32.8887 3.47215 33.3868 3.47215 34.0007C3.47215 41.0356 9.19518 46.7586 16.2297 46.7586H20.8525C27.8875 46.7586 33.6105 41.0356 33.6105 34.0007C33.6105 33.3862 34.1086 32.8887 34.7225 32.8887C35.337 32.8887 35.8351 33.3868 35.8351 34.0007C35.8351 42.2613 29.1143 48.9826 20.8525 48.9826Z" fill="#231F20"/>
<path d="M18.5412 56.1918C17.9268 56.1918 17.4287 55.6936 17.4287 55.0797V47.8737C17.4287 47.2593 17.9268 46.7617 18.5412 46.7617C19.1557 46.7617 19.6533 47.2598 19.6533 47.8737V55.0797C19.6538 55.6936 19.1557 56.1918 18.5412 56.1918Z" fill="#231F20"/>
<path d="M22.1035 59.9999H15.032C12.7479 59.9999 11.1528 59.0198 11.1528 57.6172V56.3475C11.1528 54.9444 12.7485 53.9648 15.032 53.9648H22.1035C24.3875 53.9648 25.9826 54.9444 25.9826 56.3475V57.6172C25.9826 59.0198 24.3875 59.9999 22.1035 59.9999ZM13.3774 57.4188C13.587 57.5539 14.15 57.7759 15.032 57.7759H22.1035C22.9854 57.7759 23.5484 57.5539 23.7581 57.4188V56.5464C23.5484 56.4113 22.9854 56.1894 22.1035 56.1894H15.032C14.15 56.1894 13.587 56.4113 13.3774 56.5464V57.4188Z" fill="#231F20"/>
<path d="M2.3602 36.361C1.05839 36.361 0 35.3021 0 34.0008C0 32.6996 1.05893 31.6406 2.3602 31.6406C3.66201 31.6406 4.72041 32.6996 4.72041 34.0008C4.72041 35.3021 3.66201 36.361 2.3602 36.361ZM2.3602 33.8657C2.28514 33.8657 2.22456 33.9258 2.22456 34.0008C2.22456 34.0764 2.28514 34.1365 2.3602 34.1365C2.43527 34.1365 2.49585 34.0764 2.49585 34.0008C2.49585 33.9263 2.43527 33.8657 2.3602 33.8657Z" fill="#231F20"/>
<path d="M34.723 36.361C33.4217 36.361 32.3628 35.3021 32.3628 34.0008C32.3628 32.6996 33.4217 31.6406 34.723 31.6406C36.0248 31.6406 37.0832 32.6996 37.0832 34.0008C37.0832 35.3021 36.0248 36.361 34.723 36.361ZM34.723 33.8657C34.6485 33.8657 34.5874 33.9258 34.5874 34.0008C34.5874 34.0764 34.6485 34.1365 34.723 34.1365C34.7981 34.1365 34.8592 34.0764 34.8592 34.0008C34.8592 33.9263 34.7981 33.8657 34.723 33.8657Z" fill="#231F20"/>
<path d="M29.3647 11.0195H22.6638C22.0493 11.0195 21.5518 10.5214 21.5518 9.90691C21.5518 9.29247 22.0498 8.79492 22.6638 8.79492H29.3647C29.9797 8.79492 30.4768 9.293 30.4768 9.90691C30.4768 10.5214 29.9797 11.0195 29.3647 11.0195Z" fill="#231F20"/>
<path d="M29.3647 17.0429H22.6638C22.0493 17.0429 21.5518 16.5448 21.5518 15.9309C21.5518 15.3165 22.0498 14.8184 22.6638 14.8184H29.3647C29.9797 14.8184 30.4768 15.3165 30.4768 15.9309C30.4768 16.5453 29.9797 17.0429 29.3647 17.0429Z" fill="#231F20"/>
<path d="M29.3647 23.0663H22.6638C22.0493 23.0663 21.5518 22.5682 21.5518 21.9543C21.5518 21.3399 22.0498 20.8418 22.6638 20.8418H29.3647C29.9797 20.8418 30.4768 21.3399 30.4768 21.9543C30.4768 22.5682 29.9797 23.0663 29.3647 23.0663Z" fill="#231F20"/>
<path d="M29.3647 29.0892H22.6638C22.0493 29.0892 21.5518 28.5912 21.5518 27.9773C21.5518 27.3623 22.0498 26.8652 22.6638 26.8652H29.3647C29.9797 26.8652 30.4768 27.3628 30.4768 27.9773C30.4768 28.5912 29.9797 29.0892 29.3647 29.0892Z" fill="#231F20"/>
<path d="M29.3647 35.1127H22.6638C22.0493 35.1127 21.5518 34.6146 21.5518 34.0007C21.5518 33.3868 22.0498 32.8887 22.6638 32.8887H29.3647C29.9797 32.8887 30.4768 33.3868 30.4768 34.0007C30.4768 34.6146 29.9797 35.1127 29.3647 35.1127Z" fill="#231F20"/>
<path d="M14.4189 11.0195H7.71795C7.10404 11.0195 6.60596 10.5214 6.60596 9.90691C6.60596 9.29247 7.10404 8.79492 7.71795 8.79492H14.4189C15.0334 8.79492 15.531 9.293 15.531 9.90691C15.531 10.5214 15.0334 11.0195 14.4189 11.0195Z" fill="#231F20"/>
<path d="M14.4189 17.0429H7.71795C7.10404 17.0429 6.60596 16.5448 6.60596 15.9309C6.60596 15.3165 7.10404 14.8184 7.71795 14.8184H14.4189C15.0334 14.8184 15.531 15.3165 15.531 15.9309C15.531 16.5453 15.0334 17.0429 14.4189 17.0429Z" fill="#231F20"/>
<path d="M14.4189 23.0663H7.71795C7.10404 23.0663 6.60596 22.5682 6.60596 21.9543C6.60596 21.3399 7.10404 20.8418 7.71795 20.8418H14.4189C15.0334 20.8418 15.531 21.3399 15.531 21.9543C15.531 22.5682 15.0334 23.0663 14.4189 23.0663Z" fill="#231F20"/>
<path d="M14.4189 29.0892H7.71795C7.10404 29.0892 6.60596 28.5912 6.60596 27.9773C6.60596 27.3623 7.10404 26.8652 7.71795 26.8652H14.4189C15.0334 26.8652 15.531 27.3628 15.531 27.9773C15.531 28.5912 15.0334 29.0892 14.4189 29.0892Z" fill="#231F20"/>
<path d="M14.4189 35.1127H7.71795C7.10404 35.1127 6.60596 34.6146 6.60596 34.0007C6.60596 33.3868 7.10404 32.8887 7.71795 32.8887H14.4189C15.0334 32.8887 15.531 33.3868 15.531 34.0007C15.531 34.6146 15.0334 35.1127 14.4189 35.1127Z" fill="#231F20"/>
</svg>
