<svg width="61" height="61" viewBox="0 0 61 61" fill="none" xmlns="http://www.w3.org/2000/svg">
<path d="M44.1827 0.632812H14.6759L0.470215 14.8432V58.1323C0.470215 59.5074 1.58288 60.6325 2.97046 60.6325H44.1827C45.5579 60.6325 46.6823 59.5074 46.6823 58.1323V3.13305C46.6823 1.74488 45.5573 0.632812 44.1827 0.632812Z" fill="#E8EAE9"/>
<path d="M0.470215 14.8432H11.313C13.1795 14.8432 14.6765 13.3468 14.6765 11.4798V0.632812L0.470215 14.8432Z" fill="#ADB3BA"/>
<path d="M23.5767 28.3516C19.8976 28.3516 16.9043 31.3448 16.9043 35.0239C16.9043 38.7031 19.8976 41.6964 23.5767 41.6964C27.2558 41.6964 30.2492 38.7031 30.2492 35.0239C30.2492 31.3448 27.2558 28.3516 23.5767 28.3516ZM23.5767 37.9463C21.9657 37.9463 20.6544 36.6356 20.6544 35.0239C20.6544 33.4129 21.9651 32.1016 23.5767 32.1016C25.1884 32.1016 26.4991 33.4123 26.4991 35.0239C26.4991 36.6356 25.1884 37.9463 23.5767 37.9463Z" fill="#006EFF"/>
<path d="M41.684 33.1489H38.3495C37.5005 26.4298 32.1708 21.0994 25.4522 20.2505V16.916H21.7021V20.2505C14.983 21.0994 9.65322 26.4286 8.80365 33.1477H5.46924V36.8978H8.80307C9.65146 43.6163 14.9812 48.9467 21.7004 49.7962V53.1307H25.4504V49.7969C32.1696 48.9485 37.4999 43.6181 38.3489 36.8996H41.6834V33.1489H41.684ZM23.5769 46.1775C17.4259 46.1775 12.4225 41.174 12.4225 35.0243C12.4225 28.8733 17.4259 23.8699 23.5769 23.8699C29.7267 23.8699 34.7301 28.8733 34.7301 35.0243C34.7307 41.1734 29.7267 46.1775 23.5769 46.1775Z" fill="#006EFF"/>
<path d="M50.5918 36.5544C50.2856 37.5364 49.6648 38.2157 49.2055 38.0726C48.7461 37.9296 48.6213 37.0173 48.9276 36.0353C49.2338 35.0533 49.8546 34.374 50.314 34.5171C50.7734 34.6607 50.8981 35.573 50.5918 36.5544Z" fill="#FFD15C"/>
<path d="M38.9264 35.9662C39.0991 36.9801 39.6235 37.7363 40.0982 37.6553C40.573 37.5743 40.8177 36.6869 40.6451 35.6735C40.4724 34.6596 39.948 33.9035 39.4733 33.9845C38.9986 34.0649 38.7538 34.9523 38.9264 35.9662Z" fill="#FFD15C"/>
<path d="M40.083 35.7214C40.083 35.7214 39.8401 38.0301 40.5028 40.0402V46.9243H47.9213L48.2418 40.382C48.2418 40.382 49.1073 38.2441 49.4118 35.7214C49.7162 33.1987 50.0373 30.4833 50.0373 30.4833L48.3695 28.3242L42.896 28.4099L40.7369 30.099L40.083 35.7214Z" fill="#FFD15C"/>
<path d="M50.7461 46.5098H37.3013V60.6308H50.7461V46.5098Z" fill="#CED6E0"/>
<path d="M40.5131 35.7206C40.4959 35.0744 40.5196 34.1131 40.7679 33.5462C41.167 32.6351 41.1338 31.9511 41.2533 31.2984C41.3727 30.6457 41.9066 29.8091 43.0624 29.7814C44.2182 29.7536 46.4098 30.0716 47.5999 29.9339C48.79 29.7961 49.0768 30.4382 49.0401 31.3203C49.0035 32.2023 49.2784 33.571 49.4173 33.9671C49.5249 34.2739 49.4014 35.2814 49.4114 35.7201H49.7608C49.9997 35.3441 50.465 34.5164 50.4981 33.7342C50.5424 32.6795 51.6781 28.3642 49.2843 28.4695C49.2843 28.4695 49.3753 25.3094 44.3695 26.0094C39.3637 26.7088 39.4666 31.7625 39.3874 32.6481C39.3318 33.2695 39.7948 34.8149 40.0827 35.7206H40.5131Z" fill="#415A6B"/>
<path d="M44.1282 42.5417C42.2547 42.4595 40.5029 40.0391 40.5029 40.0391V45.973C46.4919 45.4285 48.2425 40.3808 48.2425 40.3808C47.8204 41.1298 46.0012 42.6239 44.1282 42.5417Z" fill="#F7B64C"/>
<path d="M60.4647 60.6319C59.7185 58.6874 59.2982 55.1117 59.0298 53.2329C58.7531 51.2966 57.3307 49.0039 57.3307 49.0039L56.1843 49.241L53.457 50.6634L54.7949 60.6313L60.4647 60.6319Z" fill="#415A6B"/>
<path d="M47.7656 60.6322H55.4845C55.7854 56.1644 57.3309 49.4594 57.3309 49.0042C57.3309 48.4905 57.2912 48.3326 55.5921 47.7396C53.8929 47.1466 49.7598 44.4141 49.7598 44.4141L50.0382 48.7672L47.7656 60.6322Z" fill="#344A5E"/>
<path d="M48.1207 42.8516C48.1207 42.8516 46.3051 45.6486 44.3115 46.5106C44.3115 46.5106 45.7807 47.0698 46.3631 47.5127C46.9454 47.9555 47.6915 48.2582 47.6915 48.2582L49.2293 45.0189L48.1207 42.8516Z" fill="#E8EAE9"/>
<path d="M48.3909 49.5169C48.2703 52.0178 47.7158 57.1678 47.228 60.6317H49.0111C50.2621 57.3262 52.0293 50.7934 51.9098 47.5127L50.255 47.1633C50.255 47.1633 51.2104 46.3711 51.5368 46.3013C51.5368 46.3013 50.7079 45.0426 49.759 44.4136C48.8101 43.7845 48.8089 43.3317 48.2851 43.1738C48.2851 43.1738 48.5541 46.1382 48.3909 49.5169Z" fill="#415A6B"/>
<path d="M33.8288 60.6313L35.1667 50.6634L32.44 49.241L31.2937 49.0039C31.2937 49.0039 29.8712 51.296 29.5945 53.2329C29.3261 55.1117 28.9058 58.6873 28.1597 60.6318L33.8288 60.6313Z" fill="#415A6B"/>
<path d="M40.8587 60.6322L38.5861 48.7672L38.8645 44.4141C38.8645 44.4141 34.7314 47.1472 33.0322 47.7396C31.3331 48.3326 31.2935 48.4905 31.2935 49.0042C31.2935 49.4589 32.8389 56.1644 33.1398 60.6322H40.8587Z" fill="#344A5E"/>
<path d="M40.5031 42.8516C40.5031 42.8516 42.3187 45.6486 44.3122 46.5106C44.3122 46.5106 42.8431 47.0698 42.2607 47.5127C41.6784 47.9555 40.9323 48.2582 40.9323 48.2582L39.3945 45.0189L40.5031 42.8516Z" fill="#E8EAE9"/>
<path d="M39.6129 60.6317H41.3961C40.9083 57.1672 40.3537 52.0178 40.2331 49.5169C40.0699 46.1382 40.3384 43.1738 40.3384 43.1738C39.8146 43.3317 39.814 43.7845 38.8651 44.4136C37.9162 45.0426 37.0873 46.3013 37.0873 46.3013C37.4136 46.3711 38.369 47.1633 38.369 47.1633L36.7142 47.5127C36.5948 50.7934 38.3619 57.3268 39.6129 60.6317Z" fill="#415A6B"/>
<path d="M45.4696 50.4488L46.8613 49.0565L44.312 46.5078L41.7627 49.0571L43.1538 50.4488H45.4696Z" fill="#006EFF"/>
<path d="M46.5999 60.6273L45.4695 50.4478L43.1543 50.4473L42.0239 60.6273H46.5999Z" fill="#006EFF"/>
</svg>
