<svg width="59" height="60" viewBox="0 0 59 60" fill="none" xmlns="http://www.w3.org/2000/svg">
<path d="M42.0777 6.41835L3.26758 6.47656L3.34296 56.7342L42.1531 56.676L42.0777 6.41835Z" fill="#D3D3D3"/>
<path d="M38.8097 9.68592L0 9.74414L0.0753851 60.0023L38.8851 59.944L38.8097 9.68592Z" fill="white"/>
<path d="M34.5185 23.2219C34.5185 27.0155 31.4437 30.0899 27.6507 30.0899H12.1715C8.37847 30.0899 5.30371 27.015 5.30371 23.2219C5.30371 19.4288 8.37847 16.3535 12.1715 16.3535H27.6507C31.4437 16.3535 34.5185 19.4288 34.5185 23.2219Z" fill="#D3D3D3"/>
<path d="M32.5567 35.7559H6.61182V40.459H32.5567V35.7559Z" fill="#D3D3D3"/>
<path d="M32.5567 44.5117H6.61182V49.2149H32.5567V44.5117Z" fill="#D3D3D3"/>
<path d="M12.4733 27.5309C13.6945 25.4141 14.3417 22.6633 14.9698 20.3197C14.3398 20.3197 13.7088 20.3197 13.0779 20.3197C14.3029 24.0284 15.4143 27.7798 16.7855 31.4391C17.0905 32.2532 18.4914 32.4886 18.677 31.4391C19.6349 26.0345 20.7828 20.6673 21.9464 15.3049C21.3164 15.3049 20.6849 15.3049 20.0549 15.3049C21.279 21.0835 21.7489 26.9963 23.1072 32.7471C23.2879 33.5123 24.5609 33.7813 24.8989 32.9816C26.4207 29.3846 27.8202 25.7377 29.1416 22.0635C29.5722 20.8696 27.6754 20.3604 27.2502 21.5419C25.9853 25.0554 24.6606 28.5512 23.2054 31.991C23.8038 32.0696 24.4007 32.1478 24.9986 32.2254C23.6408 26.4742 23.1714 20.5623 21.9464 14.7828C21.7479 13.8406 20.2582 13.8459 20.0549 14.7828C18.8908 20.1461 17.743 25.5133 16.7855 30.917C17.4155 30.917 18.0475 30.917 18.677 30.917C17.3057 27.2581 16.1953 23.5067 14.9698 19.7971C14.674 18.9 13.3392 18.8228 13.0779 19.7971C12.4944 21.9715 11.9099 24.5812 10.7798 26.5403C10.1455 27.6383 11.8409 28.626 12.4733 27.5309Z" fill="white"/>
<g opacity="0.7">
<mask id="mask0_664_5661" style="mask-type:luminance" maskUnits="userSpaceOnUse" x="25" y="2" width="22" height="22">
<path d="M46.3984 2.70117H25.3286V23.7725H46.3984V2.70117Z" fill="white"/>
</mask>
<g mask="url(#mask0_664_5661)">
<path d="M43.6391 6.1131C47.7533 10.227 47.7533 16.8978 43.6391 21.0131C39.5254 25.1265 32.8542 25.1265 28.7405 21.0131C24.6262 16.8983 24.6262 10.227 28.7405 6.1131C32.8542 1.99876 39.5254 1.99876 43.6391 6.1131Z" fill="#EAEAE9"/>
</g>
</g>
<path d="M57.8147 31.3486C58.8551 32.3885 58.8551 34.0748 57.8147 35.1153L57.5889 35.3421C56.5485 36.3825 54.8617 36.3825 53.8218 35.3421L53.5941 35.1153C52.5546 34.0748 52.5546 32.3885 53.5941 31.3486L53.8218 31.1218C54.8622 30.0818 56.5489 30.0818 57.5889 31.1218L57.8147 31.3486Z" fill="#006EFF"/>
<path d="M26.4339 3.81107C21.3521 8.89298 21.3521 17.1322 26.4339 22.2141C31.5157 27.296 39.7551 27.296 44.8364 22.2141C49.9187 17.1322 49.9187 8.89298 44.8364 3.81107C39.7551 -1.27036 31.5152 -1.27036 26.4339 3.81107ZM42.5029 19.8815C38.7094 23.6751 32.5599 23.6751 28.7674 19.8815C24.9735 16.0879 24.9739 9.93774 28.7674 6.14513C32.5599 2.35156 38.7094 2.35108 42.5029 6.14513C46.2964 9.93774 46.2964 16.0879 42.5029 19.8815Z" fill="#006EFF"/>
<path d="M47.1041 20.0344L42.4961 24.6426L53.2479 35.3947L57.8559 30.7865L47.1041 20.0344Z" fill="#006EFF"/>
<path d="M47.0638 19.3672C48.4647 20.7672 48.4647 23.0366 47.0638 24.4366L46.9113 24.5901C45.5118 25.9901 43.242 25.9901 41.8425 24.5901L41.6881 24.4366C40.2895 23.0366 40.2895 20.7677 41.6881 19.3672L41.8425 19.2137C43.242 17.8142 45.5118 17.8142 46.9113 19.2137L47.0638 19.3672Z" fill="#006EFF"/>
</svg>
