<svg width="56" height="60" viewBox="0 0 56 60" fill="none" xmlns="http://www.w3.org/2000/svg">
<path d="M15.6654 41.3718C17.212 42.7262 18.4363 44.3668 19.3261 46.1736H36.4825C37.3723 44.3686 38.5949 42.7304 40.141 41.3783C44.6419 37.4414 47.2189 31.3679 46.2955 24.7482C45.1414 16.473 38.3295 9.8763 30.0247 8.95578C18.8266 7.71365 9.3252 16.4511 9.3252 27.4157C9.32579 32.9772 11.7823 37.9711 15.6654 41.3718Z" fill="#E8EAE9"/>
<path d="M22.9312 57.2266C23.977 58.8855 25.7973 60.0017 27.905 60.0017C30.0127 60.0017 31.833 58.8855 32.8789 57.2266H22.9312Z" fill="#415A6B"/>
<path d="M36.576 55.2246V49.1777H19.2334V55.2246C19.2334 56.65 20.3886 57.8052 21.814 57.8052H33.9954C35.4202 57.8052 36.576 56.65 36.576 55.2246Z" fill="#344A5E"/>
<path d="M37.0073 45.7344H18.8032C17.852 45.7344 17.0811 46.5053 17.0811 47.4566C17.0811 48.4078 17.852 49.1788 18.8032 49.1788H37.0073C37.9585 49.1788 38.7295 48.4078 38.7295 47.4566C38.7295 46.5053 37.9579 45.7344 37.0073 45.7344Z" fill="#415A6B"/>
<path d="M37.0073 51.1797H18.8032C17.852 51.1797 17.0811 51.9506 17.0811 52.9019C17.0811 53.8531 17.852 54.6241 18.8032 54.6241H37.0073C37.9585 54.6241 38.7295 53.8531 38.7295 52.9019C38.7295 51.9512 37.9579 51.1797 37.0073 51.1797Z" fill="#415A6B"/>
<path d="M16.5455 30.4467C15.1834 29.9317 14.0417 28.8534 13.489 27.4102C13.3341 27.0058 13.2271 26.5896 13.2271 26.213C13.2271 24.8556 13.781 20.849 14.9676 19.2421C16.1542 17.6352 19.7138 14.8878 23.3238 14.0448C26.9337 13.2017 30.4597 12.8399 35.323 15.6446C40.1864 18.4493 42.0079 24.8556 42.4755 26.5382C42.9438 28.2214 41.824 32.3119 39.5342 33.171C39.5342 33.171 38.2809 36.6904 33.9692 36.9435C33.9692 36.9435 33.9526 38.3186 33.3673 38.1016C32.7826 37.8847 31.6215 36.5272 31.6215 36.5272C31.6215 36.5272 30.309 36.7442 29.8076 34.591C29.8076 34.591 28.7712 34.7495 28.4041 34.7879C28.4041 34.7879 26.0646 36.7082 23.6241 35.9485C21.1842 35.1882 19.7469 32.9989 19.7304 32.3291C19.7138 31.6592 20.266 30.8783 20.266 30.8783C20.266 30.8783 18.6763 31.2531 16.5455 30.4467Z" fill="#FFD15C"/>
<path d="M24.8543 34.785C24.4392 34.8832 23.9881 34.8057 23.6192 34.5746C23.1983 34.3109 22.8773 33.9828 22.7277 33.6635C22.7425 33.6085 22.7395 33.5334 22.6816 33.4418C22.6786 33.4377 22.6756 33.4359 22.6727 33.4318C22.668 33.349 22.6621 33.2568 22.6556 33.1509C22.6254 32.6827 22.5799 31.9732 22.6207 31.7048C22.7182 31.0622 23.0422 30.4597 23.5099 30.0506C23.5903 29.9803 23.6027 29.8526 23.5376 29.7651C23.4726 29.6776 23.3544 29.664 23.274 29.7349C22.736 30.2055 22.3629 30.8996 22.2506 31.6392C22.2121 31.8899 22.2316 32.3593 22.2648 32.9109C22.1725 32.7927 22.0779 32.7069 21.965 32.7004L21.0498 32.6454C20.9464 32.6378 20.8577 32.7253 20.8524 32.837C20.8464 32.9487 20.9257 33.0445 21.0291 33.051L21.9112 33.0971C21.9644 33.1302 22.0856 33.3259 22.1507 33.4306C22.2246 33.5494 22.2778 33.6351 22.3292 33.6943C22.5367 34.3127 23.1652 34.7602 23.4312 34.9263C23.7517 35.1273 24.1235 35.232 24.4936 35.232C24.6414 35.232 24.7887 35.2154 24.9323 35.1817C25.034 35.1587 25.0978 35.0499 25.076 34.9405C25.0547 34.8306 24.9524 34.7614 24.8543 34.785Z" fill="#F3705A"/>
<path d="M38.7191 30.2205C38.0871 30.6917 36.6535 30.7467 36.197 30.7526C36.1314 30.402 36.0073 30.0739 35.9068 29.8504C36.1125 29.8156 36.32 29.7494 36.4915 29.595C36.5713 29.5229 36.5819 29.3952 36.5151 29.3089C36.4483 29.2226 36.3307 29.2108 36.2508 29.2829C36.0865 29.4313 35.8388 29.4614 35.6011 29.4798C34.5872 29.5483 33.5697 29.5028 32.5812 29.3444C32.6338 29.1014 32.6651 28.8448 32.6864 28.5799C32.6876 28.5634 32.6758 28.5516 32.6734 28.5362C32.6988 28.5131 32.7319 28.493 32.7562 28.4694C32.9678 28.2648 33.1623 28 33.3521 27.66C33.5975 27.2208 33.7825 26.7318 33.9227 26.2257C34.3176 26.6449 35.1896 27.4537 36.0339 27.4572C35.9594 27.864 35.7926 28.4877 35.5012 28.7118C35.4166 28.7768 35.3971 28.9033 35.4574 28.995C35.4941 29.0505 35.5514 29.0801 35.61 29.0801C35.6478 29.0801 35.6856 29.0677 35.7187 29.0423C36.1923 28.6781 36.375 27.7428 36.4294 27.3869C36.6564 27.31 36.8622 27.1705 37.0389 26.9547C37.1873 26.7732 37.3156 26.5976 37.4273 26.4291C37.5231 26.6461 37.5994 26.8844 37.6307 27.1664C37.6762 27.5702 37.6503 27.987 37.6219 28.3458C37.6012 28.6095 37.5752 28.8655 37.493 29.089C37.4084 29.3195 37.2654 29.4928 37.101 29.5643C37.0052 29.6063 36.9579 29.7245 36.997 29.8286C37.0265 29.9078 37.0969 29.9563 37.1708 29.9563C37.1944 29.9563 37.2175 29.9515 37.2405 29.9415C37.4995 29.8286 37.7188 29.5732 37.8412 29.2397C37.9423 28.9642 37.9719 28.6763 37.9949 28.3807C38.0245 28.0017 38.0523 27.5595 38.0026 27.1173C37.9553 26.6987 37.8312 26.3458 37.6579 26.0419C38.1776 25.096 38.1504 24.4527 38.148 24.4184C38.1403 24.3073 38.0564 24.215 37.9488 24.231C37.8465 24.2381 37.7679 24.3345 37.7738 24.4462C37.7744 24.4533 37.7916 25.0067 37.334 25.8397C37.3292 25.8426 37.3233 25.8403 37.3186 25.8438C37.2748 25.8793 37.2518 25.9307 37.2458 25.9851C37.1152 26.2045 36.9621 26.4362 36.7575 26.6863C36.5565 26.9322 36.3212 27.0517 36.0392 27.0517H36.0386C35.1943 27.0517 34.236 26.0023 34.0303 25.7652C34.3129 24.4876 34.3412 23.1727 34.3099 22.2848C34.9703 22.173 35.6088 21.9135 36.1681 21.5168C36.2544 21.4553 36.2786 21.3294 36.2219 21.2354C36.1645 21.1408 36.0481 21.1153 35.9623 21.1768C35.2056 21.7136 34.2927 21.9791 33.3858 21.9365C32.8715 21.9093 32.4044 21.7852 31.9988 21.567C31.5542 21.3276 31.1966 20.98 30.9636 20.5608C30.9098 20.4644 30.7951 20.4349 30.7058 20.4916C30.6172 20.5496 30.5888 20.6743 30.6414 20.7707C30.8324 21.1142 31.1138 21.3944 31.4313 21.638C31.4266 21.6563 31.4124 21.6699 31.413 21.69C31.4242 22.1476 31.3905 22.6531 31.3083 23.2803C31.2184 23.9685 31.0825 24.6791 30.6988 25.2189C30.3635 25.6919 29.7079 26.0573 29.1516 25.8066C29.0901 25.7782 29.0298 25.7439 28.9701 25.7096C28.8122 25.6198 28.6343 25.5187 28.4244 25.5169C28.383 25.5175 28.3463 25.5281 28.3073 25.5352C28.2441 25.5139 28.1802 25.4678 28.1264 25.3951C28.0637 25.31 28.0105 25.2024 27.9591 25.0587C27.8213 24.6726 27.7463 24.2618 27.735 23.8384C27.7321 23.7261 27.6452 23.6457 27.5423 23.641C27.4388 23.6439 27.3566 23.7379 27.3596 23.8497C27.372 24.3191 27.4554 24.7755 27.6085 25.2047C27.6741 25.3886 27.7445 25.5293 27.8326 25.6487C27.8396 25.6582 27.8527 25.6682 27.8603 25.6783C27.3342 25.8888 26.7631 26.1359 26.3191 26.5834C26.1257 26.7773 25.962 27.0032 25.8035 27.2213C25.5487 27.5731 25.3075 27.9048 24.9699 28.081C24.5809 28.282 24.1138 28.2424 23.7502 28.1844L23.6101 28.1614C23.389 28.1241 23.162 28.0833 22.9255 28.1005C22.1504 28.1495 21.454 28.8389 21.3405 29.6713C21.3251 29.7825 21.396 29.8853 21.4989 29.9025C21.5083 29.9037 21.5172 29.9043 21.5267 29.9043C21.6178 29.9043 21.6982 29.8315 21.7117 29.731C21.7998 29.0825 22.3426 28.5445 22.9474 28.506C23.1407 28.4954 23.3417 28.5273 23.5522 28.5634L23.6964 28.587C24.1127 28.6527 24.653 28.6976 25.1325 28.4469C25.5493 28.2299 25.8284 27.8451 26.0985 27.4726C26.2546 27.2574 26.4024 27.0534 26.5739 26.8808C27.0031 26.4492 27.5778 26.2216 28.1335 26.0017C28.2305 25.9633 28.331 25.9236 28.4202 25.9236H28.422C28.5402 25.9242 28.6644 25.9952 28.795 26.0697C28.8648 26.1099 28.9352 26.1495 29.0067 26.1814C29.7422 26.5149 30.5646 26.075 30.9961 25.4672C31.4325 24.8524 31.5826 24.0808 31.6796 23.3377C31.7529 22.779 31.7813 22.3214 31.7825 21.8957C31.8002 21.9058 31.8126 21.9212 31.8309 21.9312C32.2838 22.1742 32.8005 22.3125 33.3669 22.3421C33.4408 22.3462 33.5141 22.348 33.588 22.348C33.7039 22.348 33.8192 22.3297 33.9351 22.3202C33.9794 23.628 33.9055 25.8817 33.0293 27.449C32.8567 27.7582 32.6894 27.9858 32.5037 28.1661C32.3074 28.3571 32.0544 28.525 31.7091 28.6952C30.5391 29.2687 29.1415 29.4993 27.4412 29.3994C27.1787 29.384 26.9032 29.3597 26.6691 29.2504C26.5443 29.1918 26.4272 29.1085 26.3037 29.021C26.2091 28.9536 26.1145 28.8868 26.0152 28.8288C25.434 28.4901 24.5821 28.5108 24.1629 29.1351C23.9986 29.3798 23.914 29.7009 23.9187 30.0633C23.9258 30.6048 24.1286 31.1387 24.4757 31.5289L24.5436 31.6028C24.6306 31.6962 24.7127 31.7843 24.7388 31.8789C24.779 32.0243 24.6838 32.1946 24.5791 32.2921C24.4603 32.4021 24.3054 32.4725 24.1422 32.547L24.0512 32.5889C23.7532 32.7285 23.4676 32.8981 23.201 33.0938C23.1153 33.1571 23.0934 33.2836 23.1514 33.3764C23.1874 33.4338 23.2465 33.4651 23.3068 33.4651C23.3429 33.4651 23.3801 33.4533 23.4121 33.4302C23.6586 33.2487 23.9241 33.0909 24.1996 32.9614L24.2877 32.9212C24.4703 32.8378 24.6595 32.7515 24.8221 32.6008C25.0675 32.3749 25.1756 32.0456 25.0982 31.7624C25.0444 31.5679 24.9191 31.4331 24.8079 31.3143L24.7464 31.2475C24.4644 30.9306 24.3001 30.4966 24.2942 30.0574C24.2918 29.8658 24.3196 29.5921 24.4662 29.3733C24.7612 28.9347 25.408 28.9347 25.8372 29.1853C25.9271 29.238 26.0122 29.2983 26.098 29.3592C26.2298 29.4532 26.3664 29.5501 26.5207 29.6222C26.7424 29.7257 26.9759 29.7606 27.2059 29.7819C27.2638 29.9657 27.3448 30.1342 27.4335 30.2921C27.534 30.4724 27.6298 30.6427 27.6635 30.82C27.6782 30.9117 27.6836 31.0151 27.6794 31.1405C27.6765 31.4101 27.6623 31.6802 27.6481 31.9504C27.6304 32.301 27.6168 32.6622 27.6227 33.0229C27.5287 33.0317 27.4341 33.0448 27.3389 33.0696C27.1568 33.1169 26.9865 33.1985 26.8417 33.2712L26.6756 33.3546C26.2942 33.5473 25.9353 33.7288 25.5481 33.7814C25.4695 33.7915 25.3903 33.7968 25.3116 33.8021C25.1822 33.811 25.048 33.8198 24.9126 33.8494C24.6182 33.915 24.3917 34.0758 24.2764 34.3028C24.2261 34.401 24.2593 34.5251 24.3497 34.5789C24.3787 34.5967 24.41 34.6044 24.4408 34.6044C24.5064 34.6044 24.5708 34.5665 24.6051 34.4997C24.6666 34.3797 24.8061 34.2881 24.9888 34.2473C25.0982 34.223 25.2129 34.2153 25.3347 34.2071C25.4216 34.2017 25.5085 34.1958 25.5948 34.184C26.0406 34.1243 26.4444 33.9197 26.8346 33.7223L26.999 33.6401C27.1338 33.5721 27.278 33.5029 27.4264 33.4645C27.5943 33.4214 27.7758 33.4154 27.9467 33.4131C28.3505 33.4083 28.7625 33.4214 29.1687 33.4551L29.2125 33.4586C29.5223 33.484 29.8722 33.5136 30.1927 33.3723C30.2867 33.3309 30.3748 33.2759 30.4629 33.2197C30.5681 33.1529 30.668 33.0891 30.7691 33.0637C30.9642 33.0128 31.1818 33.098 31.4112 33.1872C31.4963 33.2209 31.5814 33.254 31.6666 33.2812C31.9728 33.38 32.3021 33.4013 32.6202 33.348C32.7225 33.3303 32.7923 33.2262 32.7757 33.1151C32.7591 33.004 32.6628 32.9289 32.5605 32.9466C32.2986 32.9927 32.026 32.9732 31.7724 32.8916C31.6944 32.8668 31.6163 32.8361 31.5377 32.8053C31.2799 32.7048 30.9885 32.5901 30.6828 32.6682C30.5261 32.7078 30.3973 32.7894 30.2719 32.8686C30.1998 32.9147 30.1276 32.9614 30.0496 32.9957C29.8113 33.1009 29.5205 33.0773 29.2396 33.053L29.1953 33.0489C28.798 33.017 28.3972 33.0051 27.9999 33.0081C27.9946 32.6628 28.0034 32.3128 28.0212 31.9717C28.0354 31.6962 28.0495 31.4201 28.0525 31.1487C28.0549 31.066 28.0448 30.9974 28.0401 30.9235C28.3197 31.0216 28.5982 31.134 28.8725 31.2498L29.7889 31.6395C30.0195 31.7382 30.2814 31.8499 30.5545 31.9061C30.8247 31.9622 31.0961 31.9622 31.3651 31.9622C31.3674 31.9622 31.3698 31.9622 31.3721 31.9622C31.5613 31.9617 31.7576 31.9617 31.9545 31.9244C32.0899 31.899 32.2217 31.8564 32.3536 31.8133L32.408 31.7955C33.2841 31.5117 34.1922 31.3515 35.1068 31.3208C35.2103 31.3172 35.2919 31.2238 35.2884 31.1115C35.2848 30.9998 35.1997 30.9117 35.095 30.9146C34.1479 30.9466 33.2073 31.1121 32.2998 31.4059L32.2448 31.4237C32.1271 31.4621 32.0101 31.5011 31.8895 31.5242C31.7216 31.5555 31.5566 31.5561 31.358 31.5561C31.102 31.5561 30.8596 31.5555 30.6243 31.507C30.3854 31.458 30.1519 31.358 29.9255 31.2611L29.0038 30.8691C28.6591 30.7231 28.3032 30.5735 27.9372 30.46C27.8828 30.327 27.8196 30.2004 27.7516 30.0798C27.6996 29.9864 27.6499 29.8954 27.6085 29.8043C29.2846 29.8794 30.6816 29.6418 31.8623 29.0624C32.0207 28.9843 32.1526 28.9051 32.2803 28.8247C32.233 29.2563 32.1496 29.6512 31.9113 29.9173C31.7062 30.1461 31.4195 30.2412 31.2143 30.2809C30.9347 30.3352 30.6384 30.3264 30.3529 30.3169L29.5258 30.2909C29.4141 30.2868 29.336 30.376 29.3331 30.4884C29.3301 30.6001 29.4117 30.6935 29.5157 30.6971L30.3422 30.7231C30.4558 30.7266 30.5699 30.7302 30.6857 30.7302C30.882 30.7302 31.0813 30.7195 31.2811 30.6805C31.6524 30.6084 31.9634 30.4423 32.1803 30.1999C32.3051 30.0603 32.389 29.8977 32.4576 29.7263C32.4771 29.7304 32.5008 29.7375 32.5161 29.7405C33.228 29.8552 33.9522 29.9125 34.6806 29.9125C34.9531 29.9125 35.2263 29.9007 35.4994 29.8847C35.7057 30.3021 36.0421 31.1901 35.7489 31.6099C35.3238 32.2177 34.8213 32.4518 34.8165 32.4541C34.7214 32.4973 34.6758 32.6167 34.716 32.7196C34.7462 32.7976 34.8154 32.8443 34.8893 32.8443C34.9129 32.8443 34.9372 32.8396 34.9608 32.829C34.985 32.8183 35.5579 32.5552 36.048 31.8547C36.1888 31.6536 36.2361 31.4083 36.2349 31.1535C36.7611 31.1458 38.2213 31.0766 38.9272 30.5504C39.0124 30.4866 39.0343 30.3607 38.9757 30.2678C38.9208 30.1798 38.8031 30.1579 38.7191 30.2205Z" fill="#F3705A"/>
<path d="M41.5004 29.6677C41.0647 29.436 40.6053 29.248 40.1347 29.1084C39.7782 29.0032 39.317 28.9086 38.918 29.1126C38.824 29.1611 38.7844 29.2823 38.8287 29.3834C38.8736 29.485 38.9859 29.5264 39.0788 29.4803C39.3661 29.3331 39.7232 29.4082 40.0359 29.5004C40.4835 29.6334 40.9204 29.812 41.3348 30.0325C41.3614 30.0467 41.3898 30.0532 41.4176 30.0532C41.4868 30.0532 41.5536 30.0112 41.5861 29.9397C41.6316 29.8392 41.5932 29.7174 41.5004 29.6677Z" fill="#F3705A"/>
<path d="M35.6808 23.0369C35.5862 22.9955 35.4763 23.0451 35.4372 23.1492C35.4242 23.1847 35.118 24.026 35.6093 24.5746C35.8505 24.8448 36.1638 24.9707 36.4671 24.9169C36.8201 24.8572 37.1299 24.5687 37.3404 24.1064C37.4627 23.8362 37.5502 23.6186 37.6212 23.4418C37.7678 23.0782 37.8239 22.9488 37.931 22.8879C38.0054 22.8447 38.1083 22.8471 38.2 22.8932C38.2638 22.9251 38.3768 23.0067 38.4164 23.1988C38.4447 23.336 38.4678 23.5459 38.4926 23.7682C38.5606 24.3878 38.6221 24.8436 38.7853 25.0647C38.8225 25.115 38.8769 25.141 38.9319 25.141C38.9727 25.141 39.0141 25.1262 39.0489 25.0966C39.1299 25.0263 39.143 24.8986 39.0785 24.8111C38.9697 24.6639 38.9071 24.0957 38.8651 23.7197C38.8397 23.4868 38.8154 23.2668 38.7823 23.109C38.7273 22.8447 38.5724 22.6313 38.3566 22.5243C38.1574 22.425 37.9328 22.4273 37.756 22.5284C37.5266 22.6597 37.4385 22.8802 37.2771 23.2798C37.2079 23.4513 37.1222 23.6641 37.0027 23.9272C36.8478 24.2678 36.6368 24.4776 36.4086 24.5167C36.223 24.5474 36.0355 24.4682 35.8783 24.2926C35.5578 23.9343 35.7825 23.3076 35.7848 23.3017C35.8233 23.1971 35.7766 23.0788 35.6808 23.0369Z" fill="#F3705A"/>
<path d="M25.4048 22.559C25.5928 22.2143 25.9162 21.9175 26.3401 21.7005C26.7344 21.4995 27.1719 21.3831 27.5958 21.2695C27.6963 21.2423 27.7578 21.133 27.733 21.0236C27.7076 20.9148 27.607 20.848 27.5059 20.8752C27.0643 20.9929 26.6079 21.1152 26.1799 21.3334C25.6874 21.5853 25.3072 21.9382 25.0814 22.3526C24.8904 22.7032 24.8047 23.1011 24.7397 23.447C24.6149 24.1168 24.5162 24.9002 24.7338 25.6339C24.7775 25.7805 24.8325 25.9224 24.8881 26.0643C24.9389 26.1931 24.9898 26.322 25.0294 26.4556C25.0885 26.6543 25.1387 26.9398 25.043 27.1728C25.001 27.275 25.0435 27.3951 25.1381 27.4412C25.163 27.453 25.189 27.4583 25.2144 27.4583C25.2859 27.4583 25.3545 27.4134 25.3858 27.3377C25.5011 27.0569 25.5012 26.7181 25.3865 26.3315C25.3433 26.1866 25.2883 26.0465 25.2333 25.9058C25.1825 25.7757 25.1305 25.6457 25.0909 25.5103C24.8999 24.8653 24.9921 24.1458 25.1074 23.528C25.1665 23.214 25.2428 22.8558 25.4048 22.559Z" fill="#F3705A"/>
<path d="M19.2026 19.0043C19.5213 18.2747 20.2402 17.8419 20.8308 17.5469C22.1953 16.8635 23.3967 16.6702 24.3988 16.9711C24.5649 17.0213 25.1124 17.2176 25.1798 17.6551C25.2371 18.0294 24.9202 18.3876 24.6033 18.6886C24.5324 18.756 24.5182 18.8701 24.5708 18.9546C24.6234 19.0397 24.7263 19.0687 24.8103 19.0232C25.5977 18.5975 26.6472 18.844 27.2011 19.5819C27.2372 19.6298 27.291 19.657 27.3466 19.657C27.3584 19.657 27.3702 19.6558 27.382 19.6534C27.4494 19.6392 27.505 19.586 27.5257 19.5151C27.6889 18.9576 28.2293 18.6099 28.7353 18.3445L28.8358 18.2919C29.3573 18.0199 29.9479 17.7113 30.2689 17.1289C30.3458 16.9894 30.4019 16.844 30.4563 16.7027C30.4883 16.6193 30.5202 16.536 30.5569 16.4544C30.6142 16.3267 30.6857 16.2067 30.7655 16.0931C31.2421 16.3432 31.7741 16.6637 32.1714 17.1496C32.5256 17.5729 32.7089 18.0997 32.6941 18.5881C32.4286 18.6353 32.1537 18.7033 31.8747 18.8245C31.5389 18.97 31.3355 19.0125 31.1563 19.0504C30.95 19.0935 30.7721 19.1314 30.4983 19.2957C29.9367 19.6339 28.6768 21.7528 28.5302 22.4764C28.5296 22.4794 28.5296 22.4818 28.529 22.4847C28.1944 22.237 27.5127 21.926 26.3167 22.1802C26.215 22.2015 26.1488 22.3085 26.1689 22.4179C26.1884 22.5285 26.2871 22.6006 26.3888 22.5781C27.787 22.2831 28.3552 22.8182 28.4693 22.9482C28.4078 23.7605 28.61 24.6136 29.3868 24.833C29.4028 24.8377 29.4188 24.8401 29.4347 24.8401C29.5181 24.8401 29.5944 24.7798 29.6162 24.6881C29.6428 24.5794 29.5825 24.4682 29.4826 24.4404C28.597 24.1898 28.8642 22.7289 28.8979 22.5633C29.0321 21.8982 30.2494 19.9112 30.6816 19.651C30.9027 19.518 31.0393 19.4891 31.229 19.4489C31.4147 19.4098 31.6459 19.3613 32.0148 19.2011C32.7077 18.9008 33.416 18.8884 33.8121 18.9676C34.1922 19.0451 35.4917 19.9331 35.8506 20.3215C36.0338 20.5201 36.0451 20.6378 36.0563 20.7625C36.0664 20.8701 36.0788 21.0055 36.1905 21.1362C36.3194 21.2857 36.5293 21.3117 36.8214 21.3478C37.1051 21.3827 37.4929 21.4312 37.9677 21.6068C38.7138 21.884 38.8202 22.1802 38.8273 22.2027C38.8468 22.3073 38.9414 22.3759 39.0378 22.3635C39.1407 22.3475 39.2116 22.2447 39.1974 22.1335C39.1856 22.0454 39.078 21.589 38.0901 21.2225C37.5775 21.0321 37.1654 20.9807 36.8645 20.9434C36.7025 20.9239 36.5009 20.8985 36.466 20.8595C36.4424 20.8317 36.4382 20.8098 36.4299 20.7217C36.4158 20.568 36.3945 20.3351 36.116 20.0336C35.7353 19.6221 34.3684 18.6667 33.8812 18.5679C33.666 18.5248 33.3817 18.51 33.0677 18.5337C33.0672 18.0163 32.8856 17.4807 32.5545 17.0267C32.7224 16.6625 33.1233 16.4225 33.4946 16.4792C33.6294 16.4999 33.763 16.5531 33.9049 16.6099C33.9794 16.6394 34.0539 16.669 34.129 16.6944C34.5517 16.8387 35.0028 16.8564 35.4337 16.747C35.5343 16.7216 35.5969 16.6122 35.5733 16.5029C35.5502 16.3941 35.4491 16.3243 35.348 16.3515C34.9833 16.4437 34.6002 16.4295 34.2413 16.3066C34.1721 16.2829 34.1035 16.2557 34.035 16.2285C33.8812 16.167 33.7216 16.1032 33.5472 16.0766C33.0606 16.0021 32.5676 16.277 32.2998 16.7175C31.9149 16.3072 31.4614 16.0127 31.034 15.7828C31.2539 15.5687 31.5117 15.4014 31.7919 15.3074C31.8906 15.2737 31.9462 15.1602 31.9154 15.0532C31.8847 14.9462 31.7819 14.8853 31.6808 14.9196C31.0547 15.1301 30.509 15.6367 30.2216 16.2758C30.182 16.3645 30.1472 16.455 30.1117 16.546C30.0602 16.6796 30.0118 16.8061 29.9485 16.9203C29.6848 17.3979 29.171 17.6664 28.6744 17.9259L28.5733 17.9785C28.0826 18.2363 27.5629 18.5668 27.2904 19.0912C27.0243 18.8251 26.6974 18.6353 26.3486 18.5248C26.3539 18.4994 26.3681 18.4775 26.364 18.4503C26.2853 17.9614 26.4012 17.4305 26.6738 17.0302C26.7092 16.9782 26.7471 16.9279 26.7849 16.8777C26.9055 16.7175 27.0415 16.5354 27.1006 16.3048C27.1065 16.2835 27.1532 16.1747 27.5233 16.0435C27.6587 15.9956 27.8089 15.9855 27.9679 15.9749L28.0684 15.9678C28.2789 15.9513 28.5219 15.9152 28.7265 15.7745C28.9151 15.6456 29.0635 15.4334 29.1557 15.1614C29.2325 14.9361 29.2615 14.7062 29.2893 14.4827C29.3035 14.3715 29.2313 14.2693 29.1291 14.2539C29.0268 14.2385 28.9322 14.316 28.918 14.4277C28.8926 14.6287 28.8666 14.8374 28.8039 15.0207C28.759 15.1514 28.675 15.3287 28.5254 15.4316C28.3912 15.5238 28.2139 15.5492 28.0412 15.5622L27.9443 15.5693C27.7687 15.5806 27.5872 15.593 27.4063 15.6568C27.3069 15.6923 27.1958 15.7414 27.09 15.8023C27.0338 15.567 26.9132 15.3376 26.7217 15.1555C26.4462 14.8936 26.1003 14.7582 25.7952 14.6388C25.6994 14.6003 25.5907 14.6547 25.5552 14.7606C25.5197 14.8658 25.5706 14.9823 25.6675 15.0207C25.9543 15.133 26.251 15.2495 26.4733 15.4611C26.6542 15.6332 26.8062 15.9276 26.7376 16.1972C26.6998 16.3456 26.5993 16.4798 26.4928 16.6217C26.4509 16.6773 26.4095 16.7328 26.3711 16.7896C26.0524 17.2578 25.9158 17.8727 25.9897 18.4491C25.7739 18.416 25.5558 18.403 25.34 18.4332C25.5026 18.1825 25.5989 17.9028 25.5505 17.5895C25.4795 17.1272 25.0964 16.76 24.4999 16.5809C23.4085 16.254 22.1226 16.455 20.6735 17.1786C20.0256 17.5026 19.234 17.9838 18.8633 18.8316C18.8189 18.9333 18.8591 19.0539 18.9525 19.1024C19.0454 19.1473 19.1577 19.1059 19.2026 19.0043Z" fill="#F3705A"/>
<path d="M21.4908 28.1743C21.6534 27.9887 21.7043 27.7445 21.7451 27.5482L22.0738 25.9667C22.0968 25.8574 22.033 25.7492 21.9319 25.7244C21.832 25.6977 21.7303 25.7687 21.7078 25.8781L21.3785 27.459C21.346 27.6144 21.3093 27.79 21.2177 27.8947C21.0699 28.0644 20.7867 28.0425 20.5721 27.9668C20.4728 27.9313 20.3758 27.8864 20.2794 27.8415C20.0968 27.7569 19.9082 27.67 19.6977 27.6363C19.5948 27.6204 19.4996 27.6972 19.4849 27.8084C19.4701 27.9195 19.541 28.0224 19.6433 28.0389C19.8059 28.0644 19.9643 28.1377 20.1316 28.2157C20.2381 28.2648 20.3451 28.3138 20.455 28.3535C20.6028 28.4061 20.7459 28.4309 20.8801 28.4309C21.1278 28.4315 21.343 28.344 21.4908 28.1743Z" fill="#F3705A"/>
<path d="M19.6652 29.5333C19.1527 29.5505 18.6212 29.5682 18.1399 29.3914C17.6403 29.2082 17.2714 28.8026 17.1999 28.3586C17.1963 28.3367 17.194 28.3137 17.1916 28.2912C17.1951 28.2817 17.204 28.2764 17.2058 28.2664C17.2353 28.1227 17.3352 27.9832 17.5032 27.8525C17.5794 27.7934 17.6616 27.7408 17.7432 27.6876C17.8425 27.6231 17.9412 27.5587 18.0329 27.486C18.1866 27.366 18.3226 27.2187 18.439 27.0485C19.0923 26.0889 19.8976 25.4605 20.769 25.2317L20.8281 25.2163C20.9074 25.1968 20.9878 25.1785 21.0676 25.1601C21.3567 25.0939 21.6552 25.0259 21.9372 24.89C22.383 24.6706 22.6881 24.3088 22.7738 23.8967C22.83 23.6283 22.7928 23.3664 22.7567 23.1134C22.7407 23.004 22.7254 22.8946 22.7183 22.7847C22.6881 22.3454 22.8188 21.8967 23.0771 21.5561C23.3006 21.2635 23.6175 21.0453 23.9427 20.959C24.0083 20.9561 24.0751 20.9425 24.1472 20.9165C24.2395 20.8833 24.2927 20.7799 24.2708 20.6776C24.2483 20.5759 24.1555 20.5067 24.0627 20.5227C24.0106 20.5304 23.9586 20.5404 23.903 20.5529C23.7339 20.544 23.5459 20.3997 23.4508 20.2029C23.3248 19.9439 23.3148 19.6247 23.3148 19.2628C23.3083 18.6681 23.3047 18.0739 23.3006 17.4792L23.2994 17.3018C23.2988 17.1901 23.2149 17.0996 23.112 17.0996H23.1108C23.0074 17.1002 22.9234 17.1918 22.9246 17.3042L22.9258 17.4821C22.9293 18.0769 22.9329 18.6722 22.94 19.2652C22.94 19.6643 22.9536 20.0509 23.1185 20.3915C23.1883 20.5351 23.2864 20.6593 23.3999 20.7539C23.1682 20.8887 22.9583 21.0731 22.7874 21.2972C22.7171 21.39 22.6574 21.4911 22.603 21.5958C22.0135 21.2854 21.5654 20.7964 21.3756 20.2159C21.1622 19.5732 21.245 18.8242 21.3177 18.1638C21.3301 18.0526 21.2562 17.9509 21.1539 17.9379C21.054 17.9232 20.9576 18.0036 20.9452 18.1153C20.8672 18.8206 20.7791 19.6199 21.0221 20.3518C21.2461 21.0353 21.7664 21.6082 22.4493 21.9647C22.3635 22.2366 22.3239 22.5257 22.3434 22.813C22.3511 22.9331 22.3682 23.0543 22.3854 23.1743C22.4179 23.4001 22.4481 23.613 22.4079 23.8057C22.3227 24.2124 21.9414 24.4395 21.7829 24.5181C21.5388 24.6357 21.2721 24.6966 20.9901 24.7611C20.908 24.78 20.8258 24.7983 20.7259 24.8232L20.678 24.8356C19.7226 25.0868 18.844 25.7685 18.1375 26.8055C18.0441 26.9421 17.9359 27.0597 17.8124 27.1561C17.729 27.2223 17.6397 27.2796 17.5505 27.3376C17.4606 27.3961 17.3702 27.4546 17.285 27.5203C17.1863 27.5971 17.1142 27.6822 17.0462 27.7686C16.8783 27.509 16.5844 27.4399 16.3444 27.3878L16.2864 27.3754C15.8052 27.2684 15.3565 27.026 14.9887 26.6725C14.9107 26.5986 14.7924 26.6057 14.7239 26.6896C14.6553 26.7742 14.6624 26.9018 14.7399 26.9763C15.1567 27.3772 15.6651 27.6527 16.2108 27.7739L16.2711 27.7863C16.4679 27.8289 16.6719 27.8732 16.75 28.0098C16.7884 28.0778 16.7996 28.1783 16.812 28.2841C16.8173 28.3314 16.8227 28.3793 16.8304 28.426C16.9456 29.1402 17.5203 29.5907 18.0193 29.7734C18.406 29.9158 18.8156 29.9472 19.2076 29.9472C19.3678 29.9472 19.5251 29.9413 19.6765 29.9365C19.7799 29.933 19.8609 29.839 19.858 29.7272C19.855 29.6185 19.7811 29.5321 19.6652 29.5333Z" fill="#F3705A"/>
<path d="M16.5339 24.3055L15.2557 25.1474C15.1386 25.2254 15.005 25.3135 14.8974 25.4412C14.7597 25.6032 14.6911 25.8048 14.7088 25.9928C14.7183 26.0974 14.7999 26.1755 14.895 26.1755C14.9015 26.1755 14.9081 26.1749 14.9146 26.1743C15.0174 26.1631 15.0925 26.0637 15.0819 25.952C15.0754 25.8799 15.1096 25.7918 15.1741 25.7161C15.2462 25.6316 15.3461 25.5648 15.4549 25.4926L16.729 24.6525C16.8177 24.594 16.8455 24.4693 16.7917 24.3735C16.7379 24.2771 16.6214 24.2464 16.5339 24.3055Z" fill="#F3705A"/>
<path d="M15.424 23.5793C15.5836 23.2465 15.7332 22.9881 15.9454 22.8101C16.1317 22.6535 16.4249 22.5506 16.6572 22.673C16.7495 22.7215 16.8334 22.8042 16.9221 22.8929L17.0149 22.9828C17.2148 23.172 17.3992 23.2512 17.592 23.2595C17.7705 23.2565 17.9497 23.1684 18.1241 22.9982C18.1743 22.9491 18.2216 22.8965 18.2689 22.8438C18.3263 22.7806 18.383 22.7161 18.4468 22.6612C18.6804 22.4637 19.0262 22.4004 19.3963 22.4868C19.7511 22.5707 20.0839 22.7699 20.4055 22.9633C20.4966 23.0171 20.6101 22.9822 20.6603 22.884C20.7106 22.7859 20.6775 22.6623 20.587 22.608C20.2577 22.4105 19.8841 22.1864 19.4755 22.0906C18.9955 21.9765 18.5367 22.07 18.2151 22.3419C18.1377 22.4075 18.0679 22.4844 17.9987 22.5612C17.9573 22.608 17.9159 22.6535 17.8722 22.6972C17.767 22.8001 17.6712 22.8527 17.586 22.8539C17.4826 22.8545 17.3886 22.7971 17.2609 22.6771L17.1758 22.5944C17.0711 22.4903 16.9623 22.3827 16.8216 22.3088C16.4894 22.1332 16.0566 22.2053 15.7161 22.4897C15.4335 22.7262 15.2484 23.0638 15.0834 23.4079C14.9995 23.584 14.9197 23.7502 14.7949 23.8294C14.653 23.9198 14.4373 23.8625 14.3492 23.7106C14.2942 23.6154 14.1789 23.587 14.0902 23.6461C14.0027 23.7058 13.9761 23.8312 14.0311 23.9263C14.1605 24.1504 14.4024 24.2769 14.6424 24.2769C14.7612 24.2769 14.8801 24.2456 14.9841 24.1794C15.204 24.0399 15.3176 23.8028 15.424 23.5793Z" fill="#F3705A"/>
<path d="M14.2557 23.0521C14.3225 23.0521 14.3869 23.0136 14.4206 22.9451C14.585 22.6169 14.9522 22.4337 15.2531 22.3101L15.4109 22.2474C15.742 22.1168 16.0849 21.982 16.3592 21.7094C16.3852 21.6834 16.4101 21.6562 16.4355 21.6296C16.4787 21.5829 16.5218 21.5356 16.5721 21.499C16.6247 21.4617 16.6744 21.4529 16.6974 21.4635C16.8789 21.5463 17.4293 21.7981 17.8024 21.4877C17.9963 21.3252 18.0956 21.1011 18.1908 20.8847C18.2411 20.7718 18.2883 20.6642 18.3469 20.572C18.4959 20.3378 18.756 20.1552 19.0794 20.0582C19.3856 19.9666 19.7221 19.9524 20.049 19.9394C20.1525 19.9346 20.2329 19.8406 20.2287 19.7289C20.2252 19.6195 20.1406 19.5332 20.0401 19.5332C20.0378 19.5332 20.0354 19.5332 20.033 19.5332C19.6866 19.5474 19.3277 19.5622 18.9789 19.6662C18.6904 19.7525 18.2919 19.94 18.0371 20.3414C17.962 20.4596 17.9059 20.5867 17.8515 20.7091C17.7717 20.8906 17.696 21.0621 17.5724 21.1649C17.44 21.2755 17.1952 21.2495 16.8428 21.0887C16.698 21.0225 16.5195 21.0479 16.3646 21.159C16.2883 21.2134 16.2256 21.2802 16.1706 21.3399L16.105 21.4091C15.8857 21.6273 15.5924 21.7426 15.2821 21.8649L15.12 21.9294C14.7576 22.0778 14.3131 22.3048 14.0902 22.7517C14.0405 22.8499 14.0748 22.9734 14.1658 23.0267C14.1948 23.0438 14.2255 23.0521 14.2557 23.0521Z" fill="#F3705A"/>
<path d="M14.793 21.5221C14.848 21.5328 14.9042 21.5381 14.9603 21.5381C15.2684 21.5381 15.5929 21.3755 15.9086 21.0598C15.9885 20.9806 16.0653 20.8966 16.141 20.8127C16.313 20.6235 16.4756 20.4461 16.6713 20.3285C16.7476 20.283 16.8297 20.2457 16.9113 20.2073C17.1236 20.1091 17.3648 19.998 17.5173 19.7586C17.6474 19.5534 17.6746 19.3134 17.6982 19.1011L17.7106 18.9947C17.7834 18.4242 18.0175 17.8732 18.3705 17.4434C18.4396 17.3594 18.4319 17.2311 18.3545 17.1566C18.2776 17.0827 18.1582 17.0892 18.0896 17.1738C17.6882 17.6627 17.4216 18.29 17.3388 18.9391L17.3252 19.0527C17.3051 19.2342 17.2856 19.4056 17.2075 19.5286C17.1171 19.6711 16.9456 19.7503 16.7641 19.8342C16.6701 19.8774 16.5767 19.9211 16.4898 19.9738C16.2468 20.1192 16.057 20.3267 15.8738 20.5277C15.8022 20.6069 15.7295 20.6868 15.6544 20.7612C15.4564 20.9581 15.1602 21.1828 14.8604 21.1225C14.7564 21.1041 14.6606 21.1751 14.6417 21.2856C14.6233 21.395 14.6907 21.5014 14.793 21.5221Z" fill="#F3705A"/>
<path d="M40.2742 29.6217C40.2476 29.6217 40.2216 29.6158 40.1962 29.604C40.0974 29.5579 40.0519 29.4331 40.0951 29.3261C40.4794 28.3707 40.6757 27.4609 40.6798 26.6214C40.6798 25.6133 40.3972 24.681 39.8846 23.997C39.8166 23.9059 39.8291 23.7735 39.913 23.7002C39.9964 23.6257 40.1194 23.6399 40.1873 23.7309C40.7567 24.4895 41.07 25.517 41.07 26.6225C41.0665 27.5206 40.8584 28.4866 40.4528 29.4952C40.4209 29.5739 40.3493 29.6217 40.2742 29.6217Z" fill="#F3705A"/>
<path d="M29.3353 1.42541V4.54817C29.3353 5.33625 28.6986 5.97357 27.9099 5.97357C27.1065 5.97357 26.4697 5.33684 26.4697 4.54817V1.42541C26.4697 0.637325 27.1065 0 27.9099 0C28.6986 0 29.3353 0.636734 29.3353 1.42541Z" fill="#66C6B9"/>
<path d="M15.9042 4.25825L17.4655 6.96304C17.8599 7.64588 17.6269 8.51555 16.9441 8.90989C16.2482 9.31132 15.3785 9.07838 14.9842 8.39553L13.4228 5.69075C13.0285 5.00791 13.2614 4.13824 13.9573 3.73622C14.6401 3.34247 15.5104 3.576 15.9042 4.25825Z" fill="#415A6B"/>
<path d="M5.6887 13.4258L8.39347 14.9872C9.07632 15.3815 9.30927 16.2512 8.91493 16.9341C8.5135 17.6299 7.64325 17.8628 6.9604 17.4685L4.2556 15.9071C3.57275 15.5128 3.33981 14.6431 3.74124 13.9473C4.13558 13.265 5.00585 13.0321 5.6887 13.4258Z" fill="#66C6B9"/>
<path d="M1.42542 26.4727H4.54819C5.33628 26.4727 5.97361 27.1094 5.97361 27.8981C5.97361 28.7015 5.33687 29.3382 4.54819 29.3382H1.42542C0.637334 29.3382 0 28.7015 0 27.8981C0 27.1094 0.636742 26.4727 1.42542 26.4727Z" fill="#415A6B"/>
<path d="M4.25679 39.9056L6.9616 38.3442C7.64445 37.9498 8.51414 38.1828 8.90848 38.8656C9.30991 39.5615 9.07698 40.4311 8.39413 40.8255L5.68932 42.3869C5.00647 42.7812 4.13678 42.5483 3.73475 41.8524C3.34101 41.1696 3.57453 40.2993 4.25679 39.9056Z" fill="#66C6B9"/>
<path d="M50.1198 42.3844L47.415 40.8231C46.7321 40.4287 46.4992 39.5591 46.8935 38.8762C47.2955 38.1804 48.1652 37.9474 48.8481 38.3418L51.5529 39.9031C52.2357 40.2975 52.4687 41.1672 52.0672 41.863C51.6729 42.5453 50.8026 42.7782 50.1198 42.3844Z" fill="#66C6B9"/>
<path d="M54.3827 29.3363H51.2599C50.4712 29.3363 49.8345 28.6996 49.8345 27.9109C49.8345 27.1074 50.4712 26.4707 51.2599 26.4707H54.3827C55.1708 26.4707 55.8081 27.1074 55.8081 27.9109C55.8081 28.6996 55.1713 29.3363 54.3827 29.3363Z" fill="#415A6B"/>
<path d="M51.5511 15.9051L48.8463 17.4665C48.1634 17.8608 47.2938 17.6273 46.8994 16.945C46.498 16.2492 46.7309 15.3795 47.4138 14.9852L50.1186 13.4238C50.8009 13.0295 51.6711 13.2624 52.0731 13.9582C52.4669 14.6411 52.2334 15.5114 51.5511 15.9051Z" fill="#66C6B9"/>
<path d="M42.383 5.68917L40.8216 8.39395C40.4273 9.0768 39.5576 9.30974 38.8748 8.9154C38.1789 8.51397 37.946 7.64371 38.3403 6.96086L39.9017 4.25608C40.296 3.57323 41.1657 3.3403 41.8616 3.74173C42.5444 4.13607 42.7774 5.00633 42.383 5.68917Z" fill="#415A6B"/>
</svg>
