<svg width="60" height="60" viewBox="0 0 60 60" fill="none" xmlns="http://www.w3.org/2000/svg">
<mask id="mask0_673_2504" style="mask-type:luminance" maskUnits="userSpaceOnUse" x="0" y="0" width="60" height="60">
<path d="M59.9996 30.0005C59.9996 46.5686 46.5682 60 29.9996 60C13.4309 60 0 46.5686 0 30.0005C0 13.4314 13.4309 0 29.9996 0C46.5682 0 59.9996 13.4314 59.9996 30.0005Z" fill="white"/>
</mask>
<g mask="url(#mask0_673_2504)">
<path d="M26.0994 35.2488C25.6118 33.9334 24.2044 32.7076 24.2044 32.7076C24.2044 32.7076 21.1504 31.8357 20.2017 31.1003C19.7169 30.7261 19.7261 29.4349 19.8491 28.2626C22.7723 27.1909 24.9051 23.8693 24.9051 19.9321C24.9051 15.1313 21.7345 11.2402 17.8288 11.2402C13.9226 11.2402 10.7543 15.1313 10.7543 19.9321C10.7543 23.9174 12.9383 27.2751 15.9183 28.2992C16.0376 29.4637 16.0422 30.7279 15.562 31.1003C14.6161 31.8357 11.5588 32.7076 11.5588 32.7076C11.5588 32.7076 10.1546 33.9334 9.6634 35.2488L9.26318 36.2743L10.7662 37.9946C10.7662 37.9946 11.3484 45.1528 12.8249 45.1528C14.0118 45.1528 16.7621 45.1528 17.7986 45.1528C18.0488 45.1528 18.2006 45.1528 18.2006 45.1528C19.2302 45.1528 21.9819 45.1528 23.1707 45.1528C24.6458 45.1528 25.2322 37.9946 25.2322 37.9946L26.6245 36.691L26.0994 35.2488Z" fill="#C93831"/>
</g>
<mask id="mask1_673_2504" style="mask-type:luminance" maskUnits="userSpaceOnUse" x="0" y="0" width="60" height="60">
<path d="M59.9996 30.0005C59.9996 46.5686 46.5682 60 29.9996 60C13.4309 60 0 46.5686 0 30.0005C0 13.4314 13.4309 0 29.9996 0C46.5682 0 59.9996 13.4314 59.9996 30.0005Z" fill="white"/>
</mask>
<g mask="url(#mask1_673_2504)">
<path d="M50.28 35.2488C49.7929 33.9334 48.385 32.7076 48.385 32.7076C48.385 32.7076 45.3306 31.8357 44.382 31.1003C43.8971 30.7261 43.9067 29.4349 44.0293 28.2626C46.953 27.1909 49.0853 23.8693 49.0853 19.9321C49.0853 15.1313 45.9147 11.2402 42.0085 11.2402C38.1033 11.2402 34.9349 15.1313 34.9349 19.9321C34.9349 23.9174 37.1185 27.2751 40.0989 28.2992C40.2183 29.4637 40.2224 30.7279 39.7426 31.1003C38.7963 31.8357 35.739 32.7076 35.739 32.7076C35.739 32.7076 34.3353 33.9334 33.8445 35.2488L33.4434 36.2743L34.9464 37.9946C34.9464 37.9946 35.5291 45.1528 37.0051 45.1528C38.192 45.1528 40.9433 45.1528 41.9788 45.1528C42.229 45.1528 42.3804 45.1528 42.3804 45.1528C43.4104 45.1528 46.1621 45.1528 47.3509 45.1528C48.8251 45.1528 49.4124 37.9946 49.4124 37.9946L50.8047 36.691L50.28 35.2488Z" fill="#E74C3C"/>
</g>
<mask id="mask2_673_2504" style="mask-type:luminance" maskUnits="userSpaceOnUse" x="0" y="0" width="60" height="60">
<path d="M59.9996 30.0005C59.9996 46.5686 46.5682 60 29.9996 60C13.4309 60 0 46.5686 0 30.0005C0 13.4314 13.4309 0 29.9996 0C46.5682 0 59.9996 13.4314 59.9996 30.0005Z" fill="white"/>
</mask>
<g mask="url(#mask2_673_2504)">
<path d="M39.8503 40.9099C39.2799 39.3717 37.6351 37.9373 37.6351 37.9373C37.6351 37.9373 34.0624 36.9186 32.9542 36.0592C32.3861 35.6201 32.398 34.1111 32.5425 32.7408C35.9606 31.4885 38.4548 27.6029 38.4548 22.9997C38.4548 17.3866 34.7471 12.8359 30.1796 12.8359C25.6121 12.8359 21.9072 17.3866 21.9072 22.9997C21.9072 27.6592 24.4613 31.5859 27.9462 32.7833C28.0847 34.145 28.0907 35.6242 27.529 36.0592C26.4217 36.9186 22.8476 37.9373 22.8476 37.9373C22.8476 37.9373 21.2065 39.3717 20.632 40.9099L20.1641 42.1082L21.9218 44.5681C21.9218 44.5681 22.6024 53.3862 24.3291 53.3862C25.7164 53.3862 28.9337 53.3862 30.1458 53.3862C30.4376 53.3862 30.6151 53.3862 30.6151 53.3862C31.8194 53.3862 35.0362 53.3862 36.4267 53.3862C38.1511 53.3862 38.8367 44.5681 38.8367 44.5681L40.465 42.819L39.8503 40.9099Z" fill="white"/>
</g>
</svg>
