<svg width="42" height="60" viewBox="0 0 42 60" fill="none" xmlns="http://www.w3.org/2000/svg">
<path d="M14.6183 27.5264L2.68506 31.3926L4.23174 36.1667L16.1649 32.3005L14.6183 27.5264Z" fill="#B4B4B5"/>
<path d="M41.7187 53.0131C41.7231 56.7388 39.1833 59.9541 35.1902 59.9599L7.51115 59.9999C3.51884 60.0056 0.0660088 56.8009 0.0594085 53.0747L8.25034e-06 12.1093C-0.00615203 8.38362 3.43833 5.8407 7.43019 5.83498L35.1096 5.79493C39.1024 5.78921 41.6523 8.3229 41.658 12.0482L41.7187 53.0131Z" fill="#006EFF"/>
<path d="M36.6217 56.5688L6.27571 56.5662L6.21191 12.8859L36.5574 12.8379L36.6217 56.5688Z" fill="#006EFF"/>
<path d="M38.0873 10.6423L4.04297 10.6934L4.1091 54.7798L38.1534 54.7288L38.0873 10.6423Z" fill="white"/>
<path d="M13.7515 18.8625C13.7555 20.653 12.3056 22.1077 10.5156 22.1108C8.72693 22.1125 7.27311 20.6622 7.27003 18.8726C7.26651 17.083 8.71637 15.6296 10.505 15.627C12.2964 15.6248 13.7493 17.0729 13.7515 18.8625Z" fill="#E2E2E2"/>
<path d="M13.7646 27.4356C13.7668 29.2261 12.3183 30.68 10.5265 30.6822C8.73738 30.6853 7.28487 29.2358 7.28223 27.4458C7.28003 25.6553 8.72857 24.201 10.5186 24.1992C12.3081 24.1957 13.7615 25.6456 13.7646 27.4356Z" fill="#E2E2E2"/>
<path d="M13.7778 36.2247C13.7814 38.0152 12.3319 39.4695 10.5406 39.4721C8.75237 39.4747 7.29854 38.0249 7.2959 36.2348C7.29282 34.4443 8.74181 32.9909 10.5318 32.9883C12.3218 32.9848 13.7756 34.4347 13.7778 36.2247Z" fill="#E2E2E2"/>
<path d="M26.4573 2.97636C25.2657 1.76496 23.2249 -0.00351498 20.9099 5.24722e-06C18.5932 0.00352548 16.5577 1.77816 15.3683 2.99308L11.2251 2.99924L11.2401 12.3015H31.0577L31.0449 2.96976L26.4573 2.97636Z" fill="#343433"/>
<path d="M22.4987 3.52042C22.4987 4.27111 21.8937 4.88055 21.1443 4.88099C20.3941 4.88275 19.7847 4.27463 19.7847 3.52438C19.7834 2.77633 20.3901 2.16646 21.1391 2.16602C21.8902 2.16514 22.4987 2.77281 22.4987 3.52042Z" fill="white"/>
<path d="M33.7523 16.7754H16.3481V20.3132H33.7523V16.7754Z" fill="#E2E2E2"/>
<path d="M33.7527 25.6699H16.3486V29.2078H33.7527V25.6699Z" fill="#E2E2E2"/>
<path d="M33.7523 34.4688H16.3481V38.0066H33.7523V34.4688Z" fill="#E2E2E2"/>
<path d="M33.7527 42.4043H8.41064V50.7235H33.7527V42.4043Z" fill="#E2E2E2"/>
<path d="M12.1714 15.682C12.1824 15.6736 12.13 15.6477 12.1226 15.6406C12.1217 15.6653 12.1846 15.6895 12.1714 15.682Z" fill="#006EFF"/>
<path d="M12.1636 15.9353L12.146 15.9199L12.1768 15.9776L12.1636 15.9353Z" fill="#006EFF"/>
<path d="M12.0508 16.1075C12.1449 16.1449 12.0785 16.0358 12.1282 16.0243L12.1502 16.0318L12.0921 15.9746C12.0785 16.0186 12.0913 16.0965 12.0508 16.1075Z" fill="#006EFF"/>
<path d="M11.8145 16.0818C11.8501 16.0976 11.829 16.1205 11.8382 16.0682C11.8338 16.0677 11.8307 16.0668 11.8277 16.0664C11.8255 16.0699 11.8219 16.0748 11.8145 16.0818Z" fill="#006EFF"/>
<path d="M11.8266 16.0668C11.8363 16.0474 11.7927 16.0606 11.8266 16.0668Z" fill="#006EFF"/>
<path d="M11.7912 16.1626L11.7784 16.1199C11.756 16.112 11.7388 16.13 11.7305 16.1133C11.73 16.1476 11.7507 16.1555 11.7912 16.1626Z" fill="#006EFF"/>
<path d="M11.8373 16.2249L11.8333 16.2047C11.8227 16.2011 11.8183 16.202 11.8373 16.2249Z" fill="#006EFF"/>
<path d="M11.8242 16.1602L11.8335 16.2033C11.8484 16.209 11.8753 16.2262 11.8317 16.1848C11.8546 16.2033 11.8343 16.1826 11.8242 16.1602Z" fill="#006EFF"/>
<path d="M11.8467 16.1543C11.8735 16.153 11.896 16.1433 11.9092 16.186C11.9268 16.1332 11.8643 16.101 11.8467 16.1543Z" fill="#006EFF"/>
<path d="M12.1302 16.1743L12.1663 16.1726L12.1496 16.1387C12.1575 16.1554 12.1043 16.1585 12.1302 16.1743Z" fill="#006EFF"/>
<path d="M11.6484 16.2793C11.6643 16.2925 11.6995 16.3031 11.7228 16.3163L11.7153 16.2854C11.6977 16.2859 11.6748 16.2956 11.6484 16.2793Z" fill="#006EFF"/>
<path d="M11.7236 16.3184L11.7355 16.3641C11.7553 16.3439 11.7443 16.3298 11.7236 16.3184Z" fill="#006EFF"/>
<path d="M11.9254 16.2894L11.8906 16.2031L11.9206 16.2982L11.9254 16.2894Z" fill="#006EFF"/>
<path d="M11.5768 16.3752L11.5474 16.332L11.5887 16.4002L11.5768 16.3752Z" fill="#006EFF"/>
<path d="M11.5376 16.4462C11.513 16.4123 11.4716 16.422 11.4593 16.3965C11.4531 16.4185 11.4703 16.4533 11.4861 16.4849C11.4826 16.4603 11.4971 16.4471 11.5376 16.4462Z" fill="#006EFF"/>
<path d="M11.507 16.5371C11.5052 16.5244 11.496 16.5072 11.4858 16.4883C11.488 16.5015 11.4938 16.5169 11.507 16.5371Z" fill="#006EFF"/>
<path d="M11.6952 16.4C11.6846 16.3948 11.6538 16.3798 11.6318 16.3864L11.6873 16.4097C11.6908 16.4067 11.6926 16.4031 11.6952 16.4Z" fill="#006EFF"/>
<path d="M11.6896 16.4126L11.687 16.4121C11.6782 16.4222 11.6725 16.4293 11.6689 16.4324C11.6711 16.4297 11.6773 16.424 11.6896 16.4126Z" fill="#006EFF"/>
<path d="M11.697 16.4004L11.6948 16.403C11.701 16.4052 11.7032 16.4057 11.697 16.4004Z" fill="#006EFF"/>
<path d="M11.8325 16.3301C11.8497 16.364 11.8558 16.4159 11.9192 16.4132C11.8932 16.3798 11.8572 16.382 11.8325 16.3301Z" fill="#006EFF"/>
<path d="M11.7671 16.4298L11.7975 16.41C11.7843 16.4012 11.7618 16.3941 11.7539 16.377L11.7671 16.4298Z" fill="#006EFF"/>
<path d="M11.7735 16.4504L11.7673 16.4258L11.7559 16.4337L11.7735 16.4504Z" fill="#006EFF"/>
<path d="M11.5849 16.5199C11.5972 16.5467 11.5901 16.5608 11.584 16.5779C11.6038 16.5683 11.6205 16.5559 11.6311 16.5401C11.6179 16.5278 11.5959 16.5018 11.5849 16.5199Z" fill="#006EFF"/>
<path d="M11.6396 16.4707L11.641 16.4755C11.6458 16.4764 11.6484 16.476 11.6396 16.4707Z" fill="#006EFF"/>
<path d="M11.4829 16.7214C11.4856 16.7227 11.4891 16.7245 11.4921 16.7254L11.4847 16.7188L11.4829 16.7214Z" fill="#006EFF"/>
<path d="M11.6433 16.5433C11.6609 16.538 11.6534 16.5226 11.6433 16.5059C11.6415 16.5177 11.6389 16.5296 11.6318 16.5402C11.6376 16.5459 11.6424 16.549 11.6433 16.5433Z" fill="#006EFF"/>
<path d="M11.5019 16.5908C11.5155 16.5922 11.53 16.5908 11.5432 16.5891C11.523 16.5842 11.4904 16.5798 11.5019 16.5908Z" fill="#006EFF"/>
<path d="M11.6251 16.4697C11.6246 16.4688 11.6242 16.4675 11.6242 16.4662C11.611 16.4631 11.6163 16.4657 11.6251 16.4697Z" fill="#006EFF"/>
<path d="M11.625 16.4707C11.6268 16.4813 11.6356 16.4945 11.643 16.5072C11.6444 16.4971 11.6439 16.4874 11.6408 16.4764C11.6364 16.4747 11.6303 16.4729 11.625 16.4707Z" fill="#006EFF"/>
<path d="M11.7602 16.9886C11.7166 16.9547 11.6982 16.894 11.7655 16.9006C11.7505 16.85 11.5912 16.7637 11.4927 16.7285C11.5125 16.7435 11.5301 16.7558 11.5376 16.8024C11.5679 16.8099 11.637 16.7818 11.6612 16.8337C11.659 16.8861 11.6251 16.8522 11.5886 16.853C11.6542 16.8777 11.6366 16.9569 11.7237 17.0075L11.7171 16.9547C11.7307 16.9626 11.743 16.9895 11.7602 16.9886Z" fill="#006EFF"/>
<path d="M11.5341 16.6771L11.5363 16.6617C11.5196 16.6692 11.4949 16.6657 11.4487 16.6582C11.4567 16.6921 11.4712 16.7079 11.4852 16.7194L11.5301 16.6688L11.5341 16.6771Z" fill="#006EFF"/>
<path d="M11.5723 16.612C11.6141 16.6551 11.6163 16.6969 11.6801 16.7176C11.6999 16.682 11.655 16.6653 11.6484 16.6309C11.6233 16.6925 11.6321 16.5966 11.5775 16.616C11.5762 16.5992 11.5802 16.5887 11.585 16.5781C11.5727 16.5834 11.5582 16.5878 11.5432 16.59L11.5463 16.5909V16.5905L11.5485 16.5909C11.556 16.5927 11.5595 16.5944 11.5542 16.5944C11.5547 16.5953 11.5547 16.5962 11.5547 16.5966C11.5617 16.6015 11.5665 16.6063 11.5718 16.6116C11.5507 16.6199 11.5573 16.6054 11.5547 16.5966L11.5485 16.5905L11.5463 16.59L11.5366 16.6622C11.5507 16.6565 11.5595 16.6411 11.5723 16.612Z" fill="#006EFF"/>
<path d="M12.0045 16.512C11.9992 16.5107 11.9953 16.5081 11.9922 16.5059C11.9957 16.5142 11.9992 16.5177 12.0045 16.512Z" fill="#006EFF"/>
<path d="M11.9604 16.5149C11.9556 16.5065 11.9384 16.4898 11.9521 16.4801C11.975 16.4792 11.9758 16.4964 11.9921 16.507C11.9846 16.4907 11.9758 16.4559 11.9349 16.4634L11.9393 16.4722C11.9072 16.4819 11.8262 16.4673 11.8223 16.459C11.8702 16.4836 11.9059 16.4995 11.9604 16.5149Z" fill="#006EFF"/>
<path d="M11.7761 16.5762L11.7695 16.6373L11.8281 16.6444L11.8017 16.6277C11.8289 16.6092 11.7946 16.5929 11.7761 16.5762Z" fill="#006EFF"/>
<path d="M11.4538 16.7126L11.4067 16.6699L11.4613 16.7469L11.4538 16.7126Z" fill="#006EFF"/>
<path d="M11.4192 16.7722L11.377 16.7383L11.3928 16.7726L11.4192 16.7722Z" fill="#006EFF"/>
<path d="M9.84277 20.5449L9.84673 20.5669C9.84673 20.5586 9.84497 20.5511 9.84277 20.5449Z" fill="#006EFF"/>
<path d="M9.90867 20.4475L9.88623 20.4316C9.89635 20.4435 9.90427 20.451 9.90867 20.4475Z" fill="#006EFF"/>
<path d="M10.4405 18.2482C10.3855 18.2416 10.3037 18.2227 10.3574 18.2531L10.4124 18.2781C10.4115 18.2583 10.4238 18.2509 10.4405 18.2482Z" fill="#006EFF"/>
<path d="M10.1265 19.4639C10.1331 19.4652 10.1388 19.4661 10.1454 19.4669C10.1309 19.4515 10.1173 19.4375 10.1045 19.4238C10.1107 19.437 10.1181 19.4502 10.1265 19.4639Z" fill="#006EFF"/>
<path d="M10.3312 19.6055L10.2832 19.6125C10.2968 19.6129 10.314 19.6107 10.3312 19.6055Z" fill="#006EFF"/>
<path d="M9.55908 21.1289L9.60088 21.1782C9.61585 21.1522 9.5824 21.1469 9.55908 21.1289Z" fill="#006EFF"/>
<path d="M11.016 17.3867C10.9848 17.3902 10.9676 17.3982 10.957 17.4087C10.9993 17.4074 11.053 17.4197 11.016 17.3867Z" fill="#006EFF"/>
<path d="M9.32471 20.1738C9.32911 20.1879 9.33747 20.198 9.34847 20.2042C9.34495 20.1901 9.33835 20.1795 9.32471 20.1738Z" fill="#006EFF"/>
<path d="M10.925 17.4579C10.9307 17.4584 10.9351 17.4575 10.9422 17.4566C10.9422 17.4386 10.9435 17.4214 10.9571 17.4082C10.9259 17.4095 10.9013 17.4179 10.925 17.4579Z" fill="#006EFF"/>
<path d="M7.70095 21.0665C7.70359 21.0639 7.70446 21.0621 7.7071 21.0586C7.69918 21.0621 7.69963 21.0639 7.70095 21.0665Z" fill="#006EFF"/>
<path d="M7.98242 20.1973C7.9899 20.2012 7.99606 20.2118 8.00134 20.2219C8.00222 20.2149 7.99826 20.2074 7.98242 20.1973Z" fill="#006EFF"/>
<path d="M11.2325 16.9944C11.2377 16.9795 11.2285 16.9887 11.2325 16.9944Z" fill="#006EFF"/>
<path d="M11.4692 17.0703C11.4723 17.0769 11.478 17.084 11.489 17.0919C11.478 17.0831 11.4714 17.076 11.4692 17.0703Z" fill="#006EFF"/>
<path d="M11.1493 17.7949L11.1484 17.7962C11.1599 17.7989 11.1581 17.7984 11.1493 17.7949Z" fill="#006EFF"/>
<path d="M11.2681 16.9922C11.2589 16.9931 11.2501 16.9944 11.2422 16.9979C11.2475 16.9979 11.2558 16.9966 11.2681 16.9922Z" fill="#006EFF"/>
<path d="M11.2422 16.9758C11.2484 16.9732 11.251 16.9705 11.2554 16.9683C11.2484 16.9613 11.2418 16.9586 11.2422 16.9758Z" fill="#006EFF"/>
<path d="M11.2231 17.0116C11.2271 17.0036 11.2346 16.9988 11.2425 16.9948C11.2372 16.9948 11.2341 16.9939 11.2328 16.9922C11.2311 16.9966 11.2289 17.0023 11.2231 17.0116Z" fill="#006EFF"/>
<path d="M8.63768 22.043C8.63592 22.0417 8.63548 22.0413 8.6346 22.0391C8.62448 22.0883 8.62932 22.0756 8.63768 22.043Z" fill="#006EFF"/>
<path d="M10.766 18.9074L10.7638 18.9043L10.7607 18.9052L10.766 18.9074Z" fill="#006EFF"/>
<path d="M10.7761 18.9777C10.7246 18.9196 10.7396 18.913 10.7611 18.9068L10.6045 18.832L10.7761 18.9777Z" fill="#006EFF"/>
<path d="M9.70994 20.7952L9.77463 20.7908C9.82611 20.8775 9.78255 20.8898 9.86571 20.8995C9.70995 20.7952 9.92775 20.7609 9.77155 20.6579L9.81863 20.657C9.81335 20.6628 9.82171 20.6689 9.81599 20.6742C9.91895 20.6795 9.71963 20.5717 9.77639 20.5316C9.80059 20.5206 9.83095 20.5215 9.8424 20.5457L9.82919 20.4797C9.83887 20.47 9.86527 20.4894 9.85515 20.4995L9.882 20.4278L9.88596 20.4313C9.8666 20.4067 9.84064 20.3622 9.83007 20.342C9.86264 20.3402 9.84195 20.3605 9.86527 20.3684L9.84679 20.3098C9.89784 20.32 9.92072 20.3736 9.90004 20.3948C10.0804 20.459 9.87672 20.3406 10.0149 20.3261L10.0144 20.3723C10.1192 20.4053 10.102 20.3591 10.1821 20.3547C10.1478 20.3468 9.992 20.345 9.9766 20.2826C9.99464 20.279 10.01 20.2676 9.9898 20.228C10.0479 20.2619 10.0452 20.2328 10.0576 20.206L10.1328 20.2531C10.1275 20.2122 10.087 20.191 10.0628 20.1549C10.0892 20.1285 10.1508 20.1571 10.205 20.1796C10.2463 20.1378 10.0906 20.1572 10.1099 20.0907C10.164 20.0674 10.15 20.0203 10.1328 19.9442C10.1759 19.9314 10.1764 19.9767 10.2045 19.9794L10.1592 19.9182C10.164 19.9125 10.1808 19.9257 10.1896 19.9327C10.1786 19.8971 10.1143 19.8857 10.1139 19.8399C10.0356 19.7809 10.2776 19.8439 10.2072 19.7457C10.234 19.7479 10.2503 19.7779 10.2811 19.7919C10.2525 19.6986 10.2644 19.7167 10.2085 19.6203L10.2829 19.6098C10.208 19.6049 10.1627 19.527 10.1258 19.4619C10.0923 19.4558 10.0628 19.4505 10.0483 19.4496L10.0386 19.3735C10.0536 19.3743 10.0774 19.395 10.1038 19.4223C10.0994 19.4153 10.0954 19.4087 10.0919 19.4025C10.1302 19.4003 10.168 19.4359 10.2032 19.4747C10.1847 19.4716 10.1649 19.469 10.1447 19.4654C10.1834 19.5059 10.2274 19.5482 10.274 19.5719C10.267 19.5636 10.2631 19.553 10.2631 19.5424C10.2741 19.5534 10.2837 19.5622 10.2917 19.5653C10.3013 19.5684 10.2873 19.553 10.274 19.5327L10.3651 19.571L10.3335 19.5482L10.4263 19.5116C10.37 19.4117 10.2701 19.2947 10.2802 19.1966C10.3321 19.2525 10.3797 19.2608 10.4531 19.3057C10.3625 19.2806 10.4509 19.3853 10.4109 19.4161C10.4316 19.4003 10.4633 19.4258 10.4729 19.4381L10.4448 19.3242C10.5042 19.3616 10.4985 19.3361 10.5345 19.3321C10.4078 19.2758 10.4875 19.2313 10.4681 19.1807C10.5095 19.2023 10.546 19.234 10.5152 19.2635C10.6278 19.2775 10.4047 19.1301 10.5042 19.1367C10.5002 19.146 10.4914 19.1469 10.5099 19.1623C10.4857 19.1209 10.5438 19.0888 10.5715 19.1209L10.568 19.1301C10.6159 19.0817 10.674 18.9572 10.5781 18.889C10.5913 18.8956 10.6947 18.9691 10.7136 18.9845L10.4377 18.6782C10.5183 18.7394 10.7449 18.83 10.7642 18.9066C10.7854 18.9004 10.8104 18.8925 10.7964 18.8459C10.7783 18.8472 10.6582 18.7926 10.6578 18.7755C10.7757 18.7988 10.7237 18.7829 10.8316 18.7895C10.8043 18.7922 10.6784 18.6945 10.6965 18.6751C10.7145 18.691 10.8311 18.7548 10.8399 18.7719L10.7405 18.636C10.7563 18.6641 10.8518 18.7077 10.8958 18.7178C10.8668 18.7081 10.9275 18.6725 10.9231 18.6501L10.8782 18.654C10.9358 18.6052 10.7299 18.478 10.7748 18.4212C10.7972 18.4454 10.9306 18.5436 10.9666 18.5233C10.9077 18.467 10.6811 18.2576 10.6626 18.1704L10.707 18.1845L10.6881 18.1145C10.7744 18.2047 10.9429 18.4111 11.0023 18.5026C11.0472 18.4987 11.052 18.5246 11.0696 18.4881C11.1127 18.4982 11.1127 18.5409 11.1079 18.5519L11.1801 18.4872C11.1 18.4415 11.1396 18.3764 11.0723 18.3381L11.1 18.4762C11.0194 18.4309 10.9072 18.2861 10.957 18.2377C10.9966 18.2426 11.0903 18.3363 11.1162 18.3517C11.0938 18.3271 11.0987 18.2655 11.1198 18.2721L11.1475 18.3227C11.1955 18.3099 11.074 18.2047 11.1726 18.2153C11.1867 18.2056 11.2984 18.2417 11.2549 18.2096C11.1523 18.1735 10.872 18.001 10.814 17.9438C10.8241 17.9434 10.946 17.9302 10.9988 17.9443C11.0832 17.9685 11.1444 18.0837 11.2161 18.1044C11.1959 18.0899 11.1774 18.0617 11.1717 18.0516C11.1994 18.0499 11.2342 18.0996 11.2439 18.0644C11.1673 18.0085 11.2896 18.0103 11.1858 18.0072C11.1827 17.9641 11.2227 17.9878 11.2417 17.9522C11.1836 17.9293 11.0885 17.8078 11.0855 17.7643C11.1048 17.7788 11.1352 17.7902 11.1492 17.7946C11.1955 17.7405 11.2522 17.7326 11.2887 17.6789C11.3116 17.6868 11.3517 17.6763 11.3772 17.7101C11.3684 17.693 11.3477 17.6675 11.3561 17.6499C11.4458 17.6635 11.3415 17.6943 11.4401 17.7242C11.3961 17.6912 11.4062 17.6389 11.3943 17.5953C11.3195 17.5544 11.3437 17.6411 11.3556 17.6846C11.2593 17.6191 11.1867 17.5077 11.1818 17.4189C11.1897 17.3577 11.2575 17.4426 11.2487 17.425C11.3253 17.3529 11.133 17.2367 11.2518 17.2147C11.3319 17.2301 11.3728 17.2983 11.4212 17.3234C11.419 17.3757 11.3433 17.352 11.3288 17.3784L11.3789 17.3683C11.3904 17.3938 11.3886 17.429 11.3618 17.4299C11.4322 17.4453 11.4722 17.2952 11.5695 17.2657C11.5571 17.2398 11.5501 17.205 11.5189 17.1971L11.5127 17.2235C11.4498 17.2081 11.4722 17.1372 11.4304 17.1478C11.4155 17.0954 11.3833 17.0268 11.4397 17.007L11.5136 17.0488C11.4929 17.0351 11.4546 17.0448 11.4678 17.0708C11.4485 17.0325 11.6038 17.0774 11.5255 16.9955L11.4586 16.989C11.4436 16.9366 11.3948 16.8503 11.4414 16.8314C11.3609 16.7989 11.4432 16.8446 11.3455 16.8125C11.4608 16.8618 11.2786 16.8979 11.4075 16.9379C11.2967 16.897 11.3376 16.9537 11.2346 16.9304C11.2588 16.9458 11.2861 16.9498 11.2557 16.9705C11.261 16.9762 11.2667 16.9854 11.2707 16.9907C11.2707 16.9907 11.2694 16.9911 11.2676 16.9911L11.2716 16.9916C11.2738 16.9955 11.2755 16.9964 11.2729 16.9916C11.2874 16.992 11.3028 16.9951 11.3182 17.0017C11.3605 17.0528 11.3261 17.0981 11.342 17.1328C11.3191 17.1421 11.3209 17.1073 11.2901 17.0994L11.3147 17.1513C11.2623 17.1179 11.1981 17.1372 11.1968 17.0761L11.1691 17.1113C11.1251 17.1126 11.0929 17.1342 11.1017 17.1676C11.078 17.1773 11.1273 17.2508 11.0978 17.2072L11.089 17.2868L11.0762 17.2785C11.0296 17.33 11.0797 17.4554 10.9424 17.4585C10.942 17.4871 10.9438 17.5183 10.9077 17.5416L10.8593 17.5179C10.858 17.5531 10.7634 17.5641 10.803 17.6054C10.6639 17.5531 10.6943 17.7115 10.6428 17.7423L10.7004 17.7819C10.6762 17.81 10.674 17.8501 10.6723 17.9033L10.7255 17.9346C10.7475 17.9944 10.6362 17.9957 10.6102 18.0521C10.5917 18.0353 10.6054 18.0252 10.623 18.0235C10.4659 18.0116 10.6283 18.21 10.5068 18.2127C10.5169 18.2386 10.5046 18.2452 10.4848 18.2465C10.4857 18.2452 10.4857 18.2435 10.4848 18.2417C10.4826 18.2421 10.4813 18.2443 10.4804 18.247C10.4677 18.2474 10.4527 18.2474 10.4399 18.2487C10.4571 18.2509 10.4703 18.2523 10.4782 18.2501C10.4729 18.2615 10.469 18.2826 10.4725 18.3064L10.4118 18.2782C10.4118 18.28 10.41 18.2813 10.4109 18.2835C10.3805 18.2866 10.4298 18.313 10.4778 18.3306C10.4822 18.3447 10.4879 18.3588 10.498 18.3733C10.3986 18.3302 10.5037 18.4344 10.3942 18.3922C10.436 18.4327 10.3814 18.496 10.476 18.566C10.4624 18.5585 10.4531 18.5594 10.458 18.5506C10.436 18.5616 10.4131 18.5726 10.432 18.6061L10.3541 18.5695L10.4281 18.6681C10.3691 18.6655 10.337 18.6597 10.2961 18.6025C10.3462 18.7117 10.2996 18.6685 10.355 18.7689L10.3097 18.7385C10.3009 18.757 10.3462 18.823 10.3013 18.8102C10.1878 18.7961 10.1711 18.9959 10.0294 19.0474C10.1794 19.1103 9.9392 19.0575 10.0444 19.1248C10.0083 19.1112 9.98188 19.1143 9.96252 19.0813C9.96472 19.1521 9.86528 19.1275 9.93436 19.2164C9.89916 19.2036 9.89344 19.1772 9.87143 19.1706C9.87451 19.179 9.88903 19.204 9.86615 19.1974C9.84371 19.1913 9.84371 19.1737 9.83359 19.157C9.80851 19.2128 9.90708 19.278 9.9986 19.3383C9.93832 19.3383 9.93656 19.355 9.98804 19.4117C9.95152 19.4025 9.90971 19.3985 9.91851 19.3589C9.90267 19.3748 9.80719 19.4439 9.88112 19.4909C9.85912 19.4852 9.86087 19.5134 9.86659 19.5235C9.83755 19.5622 9.82875 19.5618 9.81291 19.6062L9.83051 19.6023C9.91368 19.6727 9.83183 19.6485 9.82303 19.6872L9.81423 19.6806C9.70378 19.7162 9.82699 19.7321 9.70863 19.7611L9.76715 19.7906C9.88684 19.8707 9.65671 19.8126 9.67915 19.8834L9.72007 19.887C9.74911 19.9349 9.51457 19.8535 9.48597 19.8667C9.47189 19.8659 9.47366 19.8491 9.47058 19.8373C9.36101 19.8549 9.53966 19.8896 9.52954 19.9446C9.48465 19.9288 9.43449 19.8733 9.40853 19.8989C9.36673 19.894 9.4851 20.0643 9.38301 20.0595C9.41865 20.0692 9.45518 20.0788 9.46574 20.1136C9.45738 20.1519 9.29589 20.1286 9.37597 20.217C9.36497 20.2157 9.35529 20.2122 9.34781 20.2078C9.35793 20.2474 9.34033 20.3129 9.38389 20.3604C9.17488 20.2623 9.38477 20.5712 9.20656 20.4586L9.1696 20.5395L9.15288 20.5263C9.11108 20.5664 9.14364 20.6108 9.17532 20.6548C9.15772 20.6584 9.14584 20.6394 9.13616 20.6328C9.05739 20.6803 9.06048 20.6918 9.11284 20.8075L9.05212 20.7772C9.07544 20.8146 8.89899 20.8207 8.91923 20.929C8.91307 20.9237 8.90295 20.9149 8.89855 20.9048C8.90647 20.9637 8.83563 20.9822 8.78767 21.0055C8.76479 21.0143 8.74014 21.0372 8.74762 21.0451C8.7529 21.0566 8.77358 21.0799 8.81846 21.1239C8.81934 21.1221 8.84355 21.1965 8.84223 21.1978C8.88887 21.1644 8.91527 21.2827 8.95927 21.2915C8.95091 21.3294 8.86687 21.2937 8.87655 21.2568L8.88755 21.2625C8.80438 21.1556 8.81582 21.2858 8.76346 21.2057C8.74014 21.2453 8.70626 21.2656 8.67898 21.2744C8.65038 21.2841 8.6275 21.2828 8.6099 21.3039L8.62618 21.4574L8.6077 21.4742C8.60154 21.442 8.59758 21.3501 8.6077 21.3426C8.5989 21.2546 8.59406 21.4464 8.5923 21.4878C8.56986 21.4478 8.59801 21.2717 8.59097 21.2779L8.58482 21.3003L8.5857 21.3188C8.57998 21.3994 8.57821 21.483 8.56325 21.4896C8.55533 21.4403 8.56414 21.3694 8.56106 21.3584C8.56238 21.3452 8.56106 21.3386 8.55622 21.3474L8.53993 21.3114L8.53333 21.4583C8.51617 21.5133 8.51001 21.4227 8.50473 21.5908C8.50913 21.4596 8.49021 21.4156 8.47173 21.3875C8.45457 21.3589 8.43169 21.3457 8.43829 21.3114C8.39869 21.3664 8.38065 21.3395 8.37141 21.3039C8.36481 21.3285 8.31464 21.4341 8.30584 21.3906C8.42641 21.2071 8.3318 21.2564 8.41804 21.1235C8.3626 21.2145 8.3758 21.0874 8.29132 21.2053C8.2922 21.1727 8.34412 21.1525 8.37184 21.1085C8.33576 21.1133 8.33444 21.0799 8.3406 21.05C8.35116 21.0288 8.3494 20.9646 8.3208 20.9241C8.29792 20.9316 8.26976 20.9615 8.22752 20.954L8.32213 20.8594C8.30276 20.8454 8.18396 20.8938 8.24908 20.8286C8.2328 20.841 8.20596 20.8594 8.19364 20.8498C8.21432 20.7362 8.15051 20.6469 8.10167 20.5541C8.05195 20.4608 8.00223 20.3635 8.05591 20.2126C8.02643 20.2619 8.01543 20.2456 8.00135 20.2262C8.00047 20.2447 7.94855 20.2535 7.92083 20.2716C7.92083 20.2716 7.93007 20.2412 7.93799 20.21C7.94459 20.1783 7.95295 20.1457 7.95295 20.1457C7.86582 20.1774 7.8953 20.0612 7.8161 20.0995L7.84382 20.1162C7.7391 20.1409 7.67706 20.2834 7.55957 20.345C7.61897 20.331 7.59477 20.375 7.57629 20.4155C7.55781 20.4551 7.54329 20.4942 7.63085 20.4859C7.61281 20.5101 7.58817 20.4942 7.56441 20.5149C7.62161 20.5034 7.64053 20.5158 7.63217 20.5585L7.61765 20.5611C7.67222 20.6434 7.63921 20.7041 7.64581 20.8242L7.70346 20.7912C7.70434 20.8176 7.68805 20.8295 7.67661 20.8467C7.7787 20.8352 7.6555 20.7811 7.76638 20.7631C7.6555 20.8436 7.83018 20.9246 7.69818 21.0029C7.71138 21.0394 7.76418 20.9646 7.77738 21.0011L7.7435 21.0258L7.79586 21.0156C7.79674 21.0429 7.75406 21.0737 7.72238 21.0878C7.72458 21.0803 7.70698 21.0746 7.70082 21.0693C7.66913 21.1182 7.75098 21.1503 7.74086 21.167L7.75053 21.1221C7.76814 21.1437 7.78222 21.1679 7.79586 21.1956C7.81082 21.2291 7.82578 21.2629 7.84206 21.2977C7.88078 21.3791 7.92082 21.464 7.98683 21.4975L8.00443 21.4662C8.09596 21.5138 8.02159 21.567 8.09683 21.6489L8.0898 21.6519C8.11972 21.6445 8.14391 21.6559 8.1558 21.6863C8.11971 21.6955 8.1448 21.8059 8.103 21.8117C8.20112 21.8447 8.1646 21.8108 8.25568 21.7439L8.24248 21.813C8.27592 21.7804 8.28692 21.7549 8.31904 21.78C8.27856 21.7963 8.30892 21.8975 8.26008 21.9247C8.27504 22.0365 8.31156 22.0414 8.3406 22.0427C8.37096 22.0449 8.39033 22.0444 8.39297 22.1734C8.45677 22.029 8.34368 21.9925 8.36921 21.9775C8.36701 21.9027 8.42201 21.8755 8.43829 21.9168C8.45721 21.9441 8.44489 22.2059 8.51265 22.2838C8.50605 22.275 8.50473 22.29 8.49813 22.2816C8.50913 22.3208 8.52233 22.3234 8.53509 22.3168C8.54785 22.2869 8.56106 22.2618 8.57514 22.2847C8.5901 22.1421 8.61342 22.2425 8.6121 22.0849L8.56106 22.1905C8.59406 22.106 8.60945 21.8988 8.6561 21.9247C8.6561 21.9582 8.64598 22.0145 8.63762 22.0493C8.6539 22.0735 8.66094 21.9855 8.6803 22.0097C8.6891 22.1575 8.61957 22.1254 8.58701 22.2873C8.60769 22.3287 8.65038 22.0911 8.64026 22.2763C8.64774 22.1562 8.6627 22.1443 8.68118 22.1333C8.69922 22.1228 8.72386 22.1118 8.73266 22.0141L8.7419 22.0981C8.74762 22.0766 8.7551 22.0207 8.76742 22.007L8.76258 22.139C8.78194 22.0062 8.85147 22.1192 8.87919 22.0255C8.8035 22.1267 8.83783 21.9604 8.79515 21.945C8.84707 21.7421 8.89811 22.0691 8.99711 21.8953C8.98523 21.9234 8.92671 21.9261 8.93551 21.8671C8.95971 21.8557 8.99711 21.8469 9.02615 21.8618C9.0904 21.7584 8.9826 21.8139 8.99272 21.7395C9.05476 21.7822 9.00812 21.6687 9.01824 21.6141L9.05696 21.6691C9.15684 21.6066 8.99139 21.5349 9.08379 21.4948C9.08379 21.4948 9.0926 21.5199 9.10184 21.5454C9.11108 21.5718 9.11768 21.5982 9.11768 21.5982L9.13616 21.5358L9.1806 21.5991C9.18148 21.508 9.20173 21.5058 9.25629 21.4689C9.21141 21.4508 9.16828 21.3879 9.19424 21.3492C9.24309 21.3479 9.23868 21.3954 9.26157 21.3461C9.28797 21.3804 9.32977 21.4143 9.25585 21.4086C9.27301 21.4236 9.28005 21.4464 9.29501 21.4623C9.36409 21.4486 9.35265 21.4011 9.36409 21.3835C9.35793 21.3879 9.34913 21.3932 9.33901 21.3914L9.30645 21.277C9.33417 21.281 9.34517 21.2999 9.35573 21.3188C9.35881 21.3021 9.33901 21.2761 9.34737 21.2546C9.39005 21.2893 9.43714 21.3184 9.43934 21.3598L9.43097 21.266C9.45429 21.2748 9.50709 21.27 9.51809 21.2889C9.56958 21.2726 9.48642 21.149 9.5489 21.1261C9.54142 21.1182 9.53614 21.1076 9.53526 21.094C9.57222 21.0579 9.6523 21.0561 9.62062 20.965L9.72007 20.9879C9.72623 20.9364 9.5929 20.9615 9.60258 20.8757C9.60522 20.8124 9.68354 20.903 9.71655 20.9004C9.68882 20.8511 9.62986 20.7578 9.72402 20.7569C9.73018 20.7741 9.71171 20.778 9.70994 20.7952ZM9.97484 20.2826C9.98056 20.2993 10.0052 20.3406 9.9678 20.3274C9.90927 20.2768 9.94624 20.2874 9.97484 20.2826ZM10.2793 19.4553C10.2934 19.4738 10.2784 19.4786 10.2494 19.4782C10.2503 19.4663 10.2578 19.4579 10.2793 19.4553ZM11.1796 17.1601L11.1827 17.1628C11.1471 17.168 11.1598 17.1667 11.1796 17.1601ZM11.2342 17.1346C11.2289 17.1254 11.221 17.1201 11.2131 17.1166C11.2241 17.1293 11.2188 17.1394 11.2069 17.1474C11.2232 17.154 11.2368 17.1557 11.2342 17.1346ZM8.55665 21.3976L8.55841 21.4328C8.54829 21.4583 8.55313 21.4302 8.55665 21.3976Z" fill="#006EFF"/>
<path d="M10.3074 19.5868C10.2964 19.5841 10.285 19.5784 10.2744 19.5723C10.281 19.5815 10.292 19.5885 10.3074 19.5868Z" fill="#006EFF"/>
<path d="M9.55112 21.1191C9.55112 21.1191 9.55068 21.12 9.5498 21.12C9.55332 21.1231 9.55552 21.1257 9.55904 21.1279L9.55112 21.1191Z" fill="#006EFF"/>
<path d="M11.2559 18.1038C11.2422 18.1073 11.229 18.1051 11.2158 18.1016C11.2299 18.1112 11.244 18.1143 11.2559 18.1038Z" fill="#006EFF"/>
<path d="M11.2983 16.8477L11.2935 16.8846C11.3005 16.8692 11.3155 16.8732 11.3291 16.8727C11.3155 16.8644 11.2935 16.8569 11.2983 16.8477Z" fill="#006EFF"/>
<path d="M11.7991 16.8531C11.7951 16.8443 11.804 16.8443 11.8004 16.8355L11.7736 16.8184C11.7635 16.8373 11.7758 16.8628 11.7991 16.8531Z" fill="#006EFF"/>
<path d="M11.4975 16.9508C11.5441 16.9812 11.541 16.953 11.545 16.9284C11.5445 16.9297 11.5441 16.931 11.5428 16.9315C11.4834 16.8809 11.49 16.9165 11.4975 16.9508Z" fill="#006EFF"/>
<path d="M11.5469 16.9249C11.5491 16.9174 11.5517 16.9104 11.5579 16.9064C11.5341 16.8858 11.5482 16.91 11.5469 16.9249Z" fill="#006EFF"/>
<path d="M11.2416 17.0607C11.2596 17.0602 11.1866 17.0136 11.209 17.022C11.158 16.9709 11.2368 17.1311 11.2416 17.0607Z" fill="#006EFF"/>
<path d="M11.6583 17.0432L11.5972 17.0098L11.6355 17.052L11.6583 17.0432Z" fill="#006EFF"/>
<path d="M11.5126 17.1616L11.5487 17.1427C11.539 17.1361 11.5355 17.1286 11.5355 17.1211C11.5197 17.1378 11.4946 17.151 11.5126 17.1616Z" fill="#006EFF"/>
<path d="M11.5361 17.1222C11.5435 17.1129 11.5488 17.1032 11.5431 17.0918C11.5409 17.0971 11.5339 17.1094 11.5361 17.1222Z" fill="#006EFF"/>
<path d="M11.6463 17.0938L11.6287 17.0942L11.6094 17.1122L11.6463 17.0938Z" fill="#006EFF"/>
<path d="M11.2737 17.4746L11.2676 17.5191C11.2847 17.5358 11.3028 17.5353 11.3028 17.5173C11.2944 17.4997 11.2962 17.4821 11.2737 17.4746Z" fill="#006EFF"/>
<path d="M11.4995 17.4846C11.4815 17.485 11.4679 17.4767 11.4463 17.4688L11.5149 17.5189L11.4995 17.4846Z" fill="#006EFF"/>
<path d="M11.4487 17.5906C11.4659 17.6073 11.4725 17.6777 11.4963 17.6324C11.4787 17.6157 11.4857 17.5717 11.4487 17.5906Z" fill="#006EFF"/>
<path d="M11.0246 18.0278L11.0294 18.0182L10.9102 17.9434L11.0246 18.0278Z" fill="#006EFF"/>
<path d="M11.0317 18.6565C11.0845 18.6345 10.9644 18.6015 11.0221 18.5879C10.9987 18.5606 10.975 18.5989 10.9561 18.5742C10.971 18.6173 10.9459 18.6191 11.0317 18.6565Z" fill="#006EFF"/>
<path d="M10.9554 18.5726C10.9528 18.566 10.9502 18.5585 10.9453 18.5488C10.948 18.5607 10.9519 18.5677 10.9554 18.5726Z" fill="#006EFF"/>
<path d="M7.98196 20.0466L7.98768 20L7.95996 20.0453L7.98196 20.0466Z" fill="#006EFF"/>
<path d="M7.85987 20.049L7.9294 19.9922L7.85107 20.0199C7.85943 20.0243 7.87351 20.0327 7.85987 20.049Z" fill="#006EFF"/>
<path d="M10.1745 20.304L10.1578 20.2908C10.1349 20.2829 10.1297 20.2886 10.1187 20.2987L10.1745 20.304Z" fill="#006EFF"/>
<path d="M9.89701 20.6259L9.90229 20.6206L9.82617 20.5898L9.89701 20.6259Z" fill="#006EFF"/>
<path d="M9.80116 20.9809C9.80996 20.9703 9.80469 20.9461 9.81481 20.9355C9.80997 20.9699 9.71272 20.9303 9.80116 20.9809Z" fill="#006EFF"/>
<path d="M12.3941 24.0882C12.4056 24.0794 12.3536 24.0535 12.3457 24.0469C12.3448 24.0715 12.4073 24.0957 12.3941 24.0882Z" fill="#006EFF"/>
<path d="M12.3872 24.3416L12.3691 24.3262L12.4004 24.3843L12.3872 24.3416Z" fill="#006EFF"/>
<path d="M12.2744 24.5142C12.3681 24.5516 12.3021 24.4425 12.351 24.4306L12.3734 24.4376L12.3153 24.3809C12.3017 24.4249 12.314 24.5028 12.2744 24.5142Z" fill="#006EFF"/>
<path d="M12.0381 24.4885C12.0728 24.5048 12.0513 24.5268 12.0614 24.4744C12.0566 24.474 12.0535 24.4731 12.0504 24.4727C12.0482 24.4766 12.0451 24.4819 12.0381 24.4885Z" fill="#006EFF"/>
<path d="M12.0499 24.473C12.06 24.4537 12.0155 24.4669 12.0499 24.473Z" fill="#006EFF"/>
<path d="M12.0148 24.5654L12.0025 24.5227C11.9801 24.5147 11.9625 24.5328 11.9541 24.5156C11.9537 24.5504 11.9752 24.5583 12.0148 24.5654Z" fill="#006EFF"/>
<path d="M12.0602 24.6307L12.0563 24.6104C12.0466 24.6078 12.0422 24.6087 12.0602 24.6307Z" fill="#006EFF"/>
<path d="M12.0479 24.5664L12.0567 24.6091C12.0716 24.6148 12.0989 24.6324 12.0549 24.591C12.0782 24.61 12.0575 24.5888 12.0479 24.5664Z" fill="#006EFF"/>
<path d="M12.0693 24.5609C12.0962 24.5591 12.1182 24.5494 12.1314 24.5921C12.149 24.5393 12.0865 24.5072 12.0693 24.5609Z" fill="#006EFF"/>
<path d="M12.3532 24.5786L12.3889 24.5764L12.3721 24.543C12.3805 24.5597 12.3277 24.5632 12.3532 24.5786Z" fill="#006EFF"/>
<path d="M11.8726 24.6855C11.888 24.6992 11.924 24.7093 11.9469 24.7229L11.9394 24.6917C11.9214 24.693 11.8981 24.7023 11.8726 24.6855Z" fill="#006EFF"/>
<path d="M11.9458 24.7207L11.9572 24.7669C11.9775 24.7462 11.9665 24.7326 11.9458 24.7207Z" fill="#006EFF"/>
<path d="M12.148 24.6952L12.1133 24.6094L12.1436 24.704L12.148 24.6952Z" fill="#006EFF"/>
<path d="M11.8004 24.781L11.7705 24.7383L11.8127 24.8065L11.8004 24.781Z" fill="#006EFF"/>
<path d="M11.7611 24.8525C11.7356 24.8181 11.6947 24.8278 11.6828 24.8027C11.6757 24.8252 11.6929 24.8595 11.7087 24.8912C11.7052 24.8665 11.7197 24.8533 11.7611 24.8525Z" fill="#006EFF"/>
<path d="M11.7301 24.9399C11.7274 24.9271 11.7191 24.9095 11.7085 24.8906C11.7116 24.9038 11.7177 24.9188 11.7301 24.9399Z" fill="#006EFF"/>
<path d="M11.9188 24.8059C11.9078 24.8006 11.877 24.7861 11.855 24.7927L11.9104 24.816C11.9135 24.8125 11.9161 24.8094 11.9188 24.8059Z" fill="#006EFF"/>
<path d="M11.9128 24.8192L11.9106 24.8184C11.9018 24.8285 11.8957 24.8355 11.8926 24.8382C11.8952 24.836 11.9014 24.8302 11.9128 24.8192Z" fill="#006EFF"/>
<path d="M11.9211 24.8066L11.9189 24.8088C11.9247 24.811 11.926 24.8115 11.9211 24.8066Z" fill="#006EFF"/>
<path d="M12.0557 24.7363C12.0728 24.7698 12.079 24.8221 12.1428 24.8195C12.1164 24.7856 12.0803 24.7874 12.0557 24.7363Z" fill="#006EFF"/>
<path d="M11.9903 24.836L12.0202 24.8162C12.0075 24.8079 11.985 24.7999 11.9775 24.7832L11.9903 24.836Z" fill="#006EFF"/>
<path d="M11.9967 24.8562L11.9905 24.832L11.9795 24.8395L11.9967 24.8562Z" fill="#006EFF"/>
<path d="M11.8085 24.9262C11.8213 24.953 11.8143 24.9671 11.8081 24.9843C11.8275 24.975 11.8446 24.9618 11.8552 24.946C11.842 24.9337 11.8191 24.9081 11.8085 24.9262Z" fill="#006EFF"/>
<path d="M11.8633 24.877L11.8642 24.8814C11.8694 24.8831 11.8721 24.8827 11.8633 24.877Z" fill="#006EFF"/>
<path d="M11.7056 25.1272C11.7082 25.129 11.7126 25.1303 11.7152 25.1316L11.7078 25.125L11.7056 25.1272Z" fill="#006EFF"/>
<path d="M11.8665 24.95C11.8845 24.9447 11.877 24.9293 11.8665 24.9121C11.8656 24.924 11.8625 24.9359 11.8555 24.946C11.8607 24.9517 11.8656 24.9557 11.8665 24.95Z" fill="#006EFF"/>
<path d="M11.7251 24.9971C11.7396 24.9976 11.7528 24.9971 11.7664 24.9949C11.7457 24.9905 11.7136 24.9861 11.7251 24.9971Z" fill="#006EFF"/>
<path d="M11.8489 24.8759C11.848 24.8746 11.848 24.8741 11.848 24.8724C11.8339 24.8693 11.8392 24.8724 11.8489 24.8759Z" fill="#006EFF"/>
<path d="M11.8491 24.877C11.8509 24.888 11.8601 24.9012 11.8667 24.9135C11.868 24.9034 11.8676 24.8932 11.8645 24.8822C11.8601 24.8814 11.854 24.8792 11.8491 24.877Z" fill="#006EFF"/>
<path d="M11.9828 25.3944C11.9393 25.3609 11.9203 25.2998 11.9868 25.3064C11.9736 25.2562 11.8134 25.1695 11.7148 25.1348C11.7342 25.1493 11.7522 25.162 11.7593 25.2082C11.7905 25.2162 11.8601 25.1876 11.8834 25.2395C11.8807 25.2923 11.8477 25.258 11.8103 25.2588C11.8768 25.283 11.8587 25.3627 11.9463 25.4129L11.9397 25.3605C11.9533 25.3689 11.9652 25.3953 11.9828 25.3944Z" fill="#006EFF"/>
<path d="M11.7572 25.0834L11.7599 25.0684C11.7427 25.0755 11.7185 25.0724 11.6719 25.0645C11.6802 25.0983 11.6939 25.1142 11.7084 25.1261L11.7533 25.075L11.7572 25.0834Z" fill="#006EFF"/>
<path d="M11.795 25.0187C11.8372 25.0614 11.839 25.1032 11.9032 25.1234C11.9239 25.0882 11.8786 25.0719 11.872 25.0376C11.8456 25.0992 11.8557 25.0033 11.8011 25.0222C11.8003 25.0055 11.8038 24.9945 11.8086 24.9844C11.7954 24.9897 11.7822 24.9941 11.7664 24.9963L11.7699 24.9971V24.9967L11.7712 24.9971C11.7791 24.9993 11.7831 25.0011 11.7778 25.0011C11.7782 25.002 11.7782 25.0029 11.7782 25.0029C11.7849 25.0077 11.7897 25.013 11.7945 25.0178C11.7739 25.0266 11.78 25.0117 11.7782 25.0029L11.7712 24.9967H11.7699L11.7598 25.0689C11.7743 25.0631 11.7826 25.0477 11.795 25.0187Z" fill="#006EFF"/>
<path d="M12.2272 24.9202C12.2224 24.9185 12.218 24.9163 12.2153 24.9141C12.2184 24.9211 12.221 24.9255 12.2272 24.9202Z" fill="#006EFF"/>
<path d="M12.1831 24.9196C12.1787 24.9108 12.1611 24.8936 12.1752 24.8848C12.1977 24.884 12.199 24.9007 12.2157 24.9112C12.2082 24.8945 12.199 24.8606 12.1585 24.8681L12.162 24.8765C12.1303 24.8862 12.0498 24.8721 12.0454 24.8633C12.0938 24.8879 12.129 24.9038 12.1831 24.9196Z" fill="#006EFF"/>
<path d="M11.9992 24.9785L11.9922 25.0401L12.0507 25.0467L12.0252 25.0304C12.0516 25.012 12.0177 24.9952 11.9992 24.9785Z" fill="#006EFF"/>
<path d="M11.677 25.1184L11.6299 25.0762L11.684 25.1532L11.677 25.1184Z" fill="#006EFF"/>
<path d="M11.6428 25.178L11.6001 25.1445L11.6159 25.1789L11.6428 25.178Z" fill="#006EFF"/>
<path d="M10.0654 28.9512L10.0703 28.9732C10.0703 28.9644 10.0676 28.9573 10.0654 28.9512Z" fill="#006EFF"/>
<path d="M10.1313 28.8537L10.1089 28.8379C10.119 28.8498 10.1278 28.8577 10.1313 28.8537Z" fill="#006EFF"/>
<path d="M10.6631 26.6528C10.6076 26.6462 10.5266 26.6268 10.5799 26.6572L10.6353 26.6823C10.6344 26.6625 10.6468 26.655 10.6631 26.6528Z" fill="#006EFF"/>
<path d="M10.3501 27.8701C10.3572 27.8714 10.3629 27.8723 10.3695 27.8737C10.355 27.8583 10.3413 27.8442 10.3281 27.8301C10.3347 27.8428 10.3418 27.856 10.3501 27.8701Z" fill="#006EFF"/>
<path d="M10.5547 28.0078L10.5059 28.0148C10.5208 28.0157 10.5367 28.0135 10.5547 28.0078Z" fill="#006EFF"/>
<path d="M9.78223 29.5352L9.82403 29.5844C9.83811 29.5589 9.80599 29.5532 9.78223 29.5352Z" fill="#006EFF"/>
<path d="M11.2377 25.793C11.2078 25.7969 11.1906 25.8044 11.1787 25.815C11.2218 25.8136 11.276 25.8269 11.2377 25.793Z" fill="#006EFF"/>
<path d="M9.54688 28.5801C9.55172 28.5942 9.55964 28.6038 9.57108 28.6109C9.56756 28.5968 9.56096 28.5858 9.54688 28.5801Z" fill="#006EFF"/>
<path d="M11.1476 25.8642C11.1547 25.8646 11.1586 25.8633 11.1648 25.8629C11.1648 25.8448 11.167 25.8277 11.1793 25.8145C11.1489 25.8158 11.1239 25.8241 11.1476 25.8642Z" fill="#006EFF"/>
<path d="M7.92516 29.4728C7.92736 29.4701 7.9278 29.4675 7.93044 29.4648C7.92164 29.4675 7.92251 29.4701 7.92516 29.4728Z" fill="#006EFF"/>
<path d="M8.20459 28.6035C8.21251 28.6079 8.21823 28.6185 8.22483 28.6282C8.22527 28.6216 8.22043 28.6136 8.20459 28.6035Z" fill="#006EFF"/>
<path d="M11.4559 25.4008C11.4616 25.3859 11.4524 25.3947 11.4559 25.4008Z" fill="#006EFF"/>
<path d="M11.6914 25.4766C11.6954 25.4832 11.7007 25.4902 11.7121 25.4981C11.7007 25.4884 11.6945 25.4814 11.6914 25.4766Z" fill="#006EFF"/>
<path d="M11.3721 26.2012V26.2025C11.3835 26.2051 11.3818 26.2043 11.3721 26.2012Z" fill="#006EFF"/>
<path d="M11.4903 25.3984C11.4802 25.3989 11.4718 25.4006 11.4644 25.4042C11.4701 25.4042 11.4784 25.4024 11.4903 25.3984Z" fill="#006EFF"/>
<path d="M11.4658 25.3826C11.4716 25.3796 11.4751 25.3774 11.4786 25.3747C11.4711 25.3672 11.4654 25.365 11.4658 25.3826Z" fill="#006EFF"/>
<path d="M11.4468 25.4174C11.4503 25.4099 11.4565 25.405 11.4653 25.4011C11.4604 25.4011 11.4565 25.4002 11.456 25.3984C11.4538 25.4024 11.4521 25.4086 11.4468 25.4174Z" fill="#006EFF"/>
<path d="M8.86077 30.4501C8.85945 30.4484 8.85856 30.448 8.85768 30.4453C8.848 30.4955 8.85197 30.4827 8.86077 30.4501Z" fill="#006EFF"/>
<path d="M10.9888 27.3132L10.9875 27.3105L10.9849 27.3114L10.9888 27.3132Z" fill="#006EFF"/>
<path d="M10.9992 27.3839C10.9473 27.3254 10.9622 27.3192 10.9847 27.3131L10.8271 27.2383L10.9992 27.3839Z" fill="#006EFF"/>
<path d="M9.93265 29.203L9.99777 29.1986C10.0493 29.2853 10.0048 29.2976 10.0884 29.3073C9.93266 29.203 10.1513 29.1691 9.9947 29.0657L10.0418 29.0648C10.0361 29.0706 10.0444 29.0772 10.0391 29.082C10.1417 29.0873 9.94277 28.9795 9.99865 28.9395C10.0229 28.9284 10.0541 28.9298 10.0651 28.954L10.0515 28.8875C10.0616 28.8774 10.088 28.8972 10.0774 28.9073L10.1043 28.8356L10.1082 28.8391C10.0889 28.8145 10.0625 28.7705 10.0515 28.7498C10.0853 28.748 10.0638 28.7683 10.0867 28.7766L10.0699 28.7177C10.1205 28.7287 10.1434 28.7819 10.1214 28.8026C10.3027 28.8668 10.0999 28.7485 10.2371 28.7335V28.7797C10.3419 28.8127 10.3252 28.7665 10.4048 28.7621C10.3696 28.7538 10.2151 28.7524 10.1989 28.6895C10.2178 28.6855 10.2319 28.675 10.2121 28.6349C10.2697 28.6693 10.2684 28.6402 10.2803 28.6125L10.3555 28.66C10.3498 28.6191 10.3097 28.5984 10.2851 28.5615C10.3111 28.5351 10.3731 28.5637 10.4277 28.5861C10.4682 28.5443 10.3128 28.5637 10.3331 28.4972C10.3859 28.4735 10.3722 28.4264 10.3555 28.3507C10.3982 28.3375 10.3995 28.3832 10.4272 28.3859L10.3815 28.3247C10.3863 28.319 10.4039 28.3326 10.4127 28.3392C10.4013 28.3036 10.3375 28.2922 10.3375 28.2464C10.2587 28.1874 10.5003 28.2499 10.429 28.1522C10.4567 28.1549 10.473 28.1848 10.5042 28.1989C10.4752 28.1051 10.4875 28.1232 10.4312 28.0264L10.5047 28.0163C10.4308 28.0119 10.3854 27.9344 10.3489 27.8684C10.315 27.8623 10.2855 27.857 10.271 27.8561L10.2618 27.7795C10.2776 27.7808 10.3005 27.8015 10.3269 27.8284C10.3221 27.8218 10.3185 27.8147 10.3146 27.8086C10.3538 27.8064 10.392 27.842 10.4259 27.8807C10.4079 27.8777 10.3881 27.8746 10.3683 27.8715C10.407 27.9115 10.4514 27.9542 10.4968 27.978C10.4902 27.9696 10.4866 27.9586 10.4866 27.9485C10.4968 27.9595 10.5069 27.9679 10.5152 27.9709C10.5245 27.9745 10.5108 27.9591 10.4968 27.9388L10.5874 27.9771L10.5562 27.9547L10.6499 27.9177C10.5931 27.8182 10.4932 27.7012 10.5038 27.6031C10.5548 27.659 10.6028 27.6673 10.6767 27.7118C10.5856 27.6867 10.6736 27.7919 10.634 27.8222C10.6547 27.8064 10.6868 27.8315 10.6961 27.8442L10.6679 27.7307C10.7273 27.7676 10.722 27.7417 10.7577 27.7377C10.631 27.6814 10.7102 27.637 10.6912 27.5868C10.7326 27.6084 10.7691 27.6392 10.7383 27.6695C10.851 27.6836 10.6288 27.5358 10.7273 27.5424C10.7234 27.552 10.7146 27.552 10.733 27.5683C10.7088 27.5265 10.7669 27.4948 10.7955 27.5269L10.7911 27.5358C10.8395 27.4874 10.8976 27.3633 10.8021 27.2937C10.814 27.3012 10.9187 27.3743 10.9368 27.3901L10.6613 27.0838C10.7419 27.145 10.9671 27.2357 10.9878 27.3122C11.0085 27.3061 11.0336 27.2977 11.0199 27.2511C11.0015 27.2528 10.8818 27.1983 10.8805 27.1807C10.9984 27.2044 10.9465 27.1881 11.0543 27.1952C11.0274 27.1974 10.9025 27.0997 10.9196 27.0808C10.9372 27.0962 11.0543 27.16 11.0631 27.1771L10.9641 27.0412C10.9799 27.0693 11.0749 27.1124 11.1194 27.123C11.0903 27.1129 11.1511 27.0777 11.1471 27.0552L11.1013 27.0592C11.1594 27.0104 10.9535 26.8841 10.9979 26.8269C11.0199 26.8511 11.1541 26.9492 11.1898 26.9285C11.1308 26.8726 10.9033 26.6632 10.8844 26.5761L10.9297 26.5893L10.9117 26.5197C10.9971 26.6104 11.166 26.8167 11.225 26.9078C11.2703 26.9043 11.2752 26.9298 11.2928 26.8933C11.3363 26.9039 11.3363 26.9461 11.3315 26.9576L11.4032 26.892C11.3231 26.8462 11.3618 26.7815 11.2945 26.7428L11.3236 26.8814C11.2422 26.8357 11.1304 26.6905 11.1788 26.6421C11.2193 26.6478 11.313 26.7415 11.339 26.7565C11.3165 26.7318 11.3209 26.6702 11.3425 26.6768L11.3702 26.7274C11.4186 26.7147 11.2967 26.6091 11.3957 26.6196C11.4094 26.6104 11.522 26.6465 11.4776 26.6143C11.3746 26.5778 11.0956 26.4053 11.0375 26.3486C11.0468 26.3477 11.1682 26.3349 11.2219 26.3486C11.3055 26.3728 11.3676 26.488 11.4397 26.5087C11.4186 26.4942 11.3997 26.4665 11.3948 26.4555C11.4226 26.4537 11.4564 26.5039 11.4661 26.4687C11.3909 26.4124 11.5128 26.4141 11.408 26.4119C11.4054 26.3684 11.4463 26.3917 11.4639 26.356C11.4063 26.3336 11.3112 26.2122 11.3082 26.1686C11.3275 26.1831 11.3579 26.1941 11.3715 26.1985C11.4182 26.1448 11.4745 26.1369 11.5123 26.0828C11.5343 26.0903 11.5739 26.0801 11.6003 26.1136C11.5915 26.0964 11.5713 26.0709 11.5792 26.0533C11.6681 26.0669 11.5651 26.0982 11.6619 26.1281C11.6184 26.0951 11.6285 26.0423 11.6171 25.9987C11.5422 25.9582 11.5664 26.0449 11.5788 26.0881C11.4824 26.0234 11.4098 25.9116 11.4045 25.8227C11.4124 25.7611 11.4806 25.846 11.4718 25.8289C11.5488 25.7567 11.3552 25.6406 11.4745 25.6186C11.5554 25.6331 11.5959 25.7021 11.6443 25.7268C11.6426 25.7792 11.5664 25.7554 11.5519 25.7822L11.6016 25.7721C11.6135 25.7981 11.6118 25.8328 11.5849 25.8337C11.6553 25.8491 11.6958 25.6995 11.7926 25.6696C11.7803 25.6436 11.7737 25.6084 11.742 25.6009L11.7363 25.6273C11.6738 25.6119 11.6954 25.5411 11.654 25.5517C11.6391 25.4993 11.6069 25.4302 11.6619 25.4109L11.7367 25.4527C11.7152 25.4395 11.6773 25.4491 11.6905 25.4747C11.6716 25.4373 11.8269 25.4813 11.7486 25.3999L11.6822 25.3932C11.6668 25.3409 11.6175 25.2546 11.6637 25.2353C11.5836 25.2023 11.6663 25.2489 11.5691 25.2168C11.6835 25.2665 11.5018 25.3022 11.6311 25.3418C11.5194 25.3022 11.5607 25.358 11.4578 25.3347C11.4824 25.3506 11.5101 25.3537 11.4784 25.3752C11.4846 25.3814 11.4903 25.3906 11.4938 25.3955C11.4938 25.3955 11.4916 25.3959 11.4908 25.3963H11.4947C11.4974 25.3999 11.4982 25.4007 11.4956 25.3963C11.5114 25.3968 11.5264 25.3994 11.5418 25.406C11.5832 25.4575 11.5497 25.5024 11.566 25.5371C11.5427 25.5468 11.5444 25.5112 11.5141 25.5037L11.5378 25.5556C11.4859 25.5222 11.4208 25.5415 11.4199 25.4799L11.3918 25.5151C11.3482 25.5169 11.3165 25.5385 11.3249 25.5715C11.3016 25.5811 11.3508 25.6546 11.3209 25.6115L11.3121 25.6911L11.2985 25.6828C11.2527 25.7343 11.3024 25.8597 11.1651 25.8628C11.1651 25.8914 11.1673 25.9226 11.1308 25.9455L11.0829 25.9222C11.0811 25.9578 10.9869 25.9684 11.0257 26.0102C10.8871 25.9578 10.9179 26.1162 10.8659 26.1466L10.9236 26.1866C10.8998 26.2148 10.8963 26.2548 10.8954 26.3081L10.9491 26.3393C10.9711 26.3992 10.8598 26.4009 10.8329 26.4564C10.8145 26.4401 10.8281 26.43 10.8466 26.4282C10.689 26.4168 10.8514 26.6143 10.73 26.6174C10.7405 26.6438 10.7282 26.6495 10.7084 26.6513C10.7093 26.6504 10.7088 26.6482 10.7084 26.646C10.7062 26.6473 10.7049 26.6495 10.7031 26.6517C10.6912 26.6531 10.6763 26.6522 10.6631 26.6539C10.6802 26.6557 10.6939 26.657 10.7014 26.6553C10.6961 26.6667 10.6926 26.6874 10.6952 26.7116L10.6349 26.6834C10.6349 26.6852 10.634 26.6865 10.634 26.6887C10.6037 26.6913 10.653 26.7182 10.7005 26.7358C10.7053 26.7499 10.7115 26.7639 10.7216 26.778C10.6222 26.7345 10.7269 26.8396 10.6182 26.7969C10.6587 26.8374 10.605 26.9008 10.6992 26.9712C10.6864 26.9633 10.6772 26.9642 10.6816 26.9554C10.6587 26.9659 10.6358 26.9774 10.6556 27.0108L10.5773 26.9743L10.6508 27.0733C10.5922 27.0702 10.561 27.0649 10.5192 27.0073C10.5698 27.1168 10.5232 27.0737 10.5782 27.1736L10.5333 27.1433C10.524 27.1617 10.5702 27.2273 10.5249 27.2145C10.4114 27.2005 10.3938 27.4002 10.2534 27.4517C10.4026 27.5142 10.1637 27.4618 10.2679 27.5296C10.2319 27.516 10.2046 27.5195 10.1865 27.4856C10.1879 27.556 10.0889 27.5318 10.1588 27.6211C10.1219 27.6075 10.1166 27.5815 10.0946 27.5754C10.0994 27.5842 10.1131 27.6088 10.0906 27.6022C10.0673 27.596 10.0673 27.5784 10.0572 27.5617C10.0325 27.6172 10.1307 27.6827 10.2231 27.743C10.1619 27.743 10.1606 27.7602 10.2121 27.8161C10.1751 27.8068 10.1337 27.8028 10.1421 27.7641C10.1258 27.7795 10.0303 27.8486 10.1047 27.8961C10.0827 27.8904 10.0849 27.9181 10.0906 27.9283C10.062 27.9665 10.0519 27.9661 10.0365 28.0114L10.0545 28.0075C10.1377 28.0779 10.0554 28.0532 10.0471 28.0924L10.0383 28.0858C9.92826 28.121 10.0501 28.1368 9.93221 28.1659L9.99117 28.1954C10.11 28.2754 9.88029 28.2178 9.90273 28.2878L9.94409 28.2922C9.9727 28.3401 9.73904 28.2578 9.71044 28.2719C9.69636 28.271 9.69724 28.2543 9.6946 28.2424C9.58504 28.2596 9.76369 28.2948 9.75357 28.3498C9.7078 28.334 9.6572 28.2781 9.63256 28.304C9.58987 28.2992 9.70824 28.4695 9.6066 28.4642C9.6418 28.4739 9.67876 28.4836 9.68976 28.5188C9.68052 28.5575 9.51992 28.5342 9.59912 28.6217C9.58812 28.6209 9.57843 28.6173 9.57095 28.6129C9.58019 28.6525 9.56391 28.7177 9.60704 28.7648C9.39847 28.6666 9.60792 28.9755 9.42927 28.8633L9.39231 28.9443L9.37559 28.9306C9.33378 28.9716 9.36635 29.0156 9.39891 29.0596C9.38043 29.0631 9.36855 29.0442 9.35931 29.0376C9.28055 29.0847 9.28363 29.0961 9.33643 29.2118L9.27438 29.1806C9.29814 29.2189 9.12126 29.2246 9.14194 29.3328C9.13534 29.3275 9.12566 29.3187 9.12126 29.3082C9.13006 29.3676 9.05877 29.3861 9.00993 29.409C8.98749 29.4182 8.96285 29.4406 8.97077 29.4486C8.97561 29.46 8.99585 29.4833 9.04117 29.5269C9.04293 29.5256 9.06625 29.5995 9.06537 29.6008C9.11157 29.5669 9.13842 29.6862 9.18242 29.6945C9.17406 29.7328 9.08958 29.6967 9.09926 29.6606L9.11113 29.6664C9.02709 29.559 9.03897 29.6893 8.98705 29.6092C8.96285 29.6488 8.92941 29.669 8.90125 29.6778C8.87265 29.6871 8.8502 29.6857 8.8326 29.7073L8.84932 29.8609L8.82952 29.8776C8.8238 29.8455 8.82028 29.7531 8.82952 29.7465C8.8216 29.658 8.81764 29.8503 8.81544 29.8917C8.793 29.8516 8.82072 29.6752 8.81412 29.6818L8.80796 29.7047L8.80928 29.7231C8.80312 29.8032 8.80004 29.8868 8.78596 29.8939C8.77848 29.8441 8.78728 29.7737 8.78376 29.7623C8.78464 29.7495 8.78376 29.7425 8.77936 29.7517L8.76264 29.7152L8.75692 29.8622C8.73844 29.9172 8.73272 29.8265 8.72788 29.9946C8.73184 29.8635 8.71336 29.8199 8.694 29.7918C8.67728 29.7627 8.6544 29.75 8.661 29.7152C8.62139 29.7702 8.60291 29.7434 8.59411 29.7077C8.58707 29.7328 8.53691 29.8389 8.52811 29.7944C8.64955 29.6109 8.55495 29.6602 8.6412 29.5273C8.58531 29.6184 8.59895 29.4908 8.51403 29.6087C8.51535 29.5766 8.56683 29.5564 8.59455 29.5124C8.55847 29.5176 8.55671 29.4833 8.56375 29.4538C8.57431 29.4332 8.57255 29.3693 8.54351 29.3289C8.52107 29.3363 8.49247 29.3658 8.45067 29.3584L8.54483 29.2642C8.52591 29.2501 8.4071 29.2981 8.47178 29.2338C8.45506 29.2461 8.4291 29.2642 8.41678 29.2545C8.43746 29.1414 8.37366 29.0521 8.3235 28.9588C8.2751 28.866 8.22582 28.7683 8.27906 28.6178C8.24914 28.6666 8.23858 28.6508 8.22494 28.631C8.22318 28.6495 8.17213 28.6587 8.14397 28.6763C8.14397 28.6763 8.15233 28.6455 8.16069 28.6138C8.16817 28.5821 8.17521 28.5505 8.17521 28.5505C8.08853 28.5821 8.11801 28.4651 8.03925 28.5043L8.06697 28.521C7.96224 28.5447 7.90064 28.6882 7.78271 28.7489C7.84168 28.7353 7.81792 28.7784 7.799 28.8193C7.78008 28.8598 7.76599 28.8985 7.85356 28.8897C7.83596 28.9139 7.81087 28.8985 7.78623 28.9183C7.84432 28.9073 7.86236 28.9192 7.85444 28.9619L7.83948 28.9645C7.89536 29.0464 7.86148 29.1075 7.86852 29.2277L7.9266 29.1947C7.92748 29.2206 7.90988 29.2329 7.89976 29.2497C8.00229 29.2382 7.87952 29.1841 7.9904 29.1656C7.87952 29.2461 8.05421 29.3276 7.92132 29.4054C7.93408 29.4424 7.98732 29.3676 8.00052 29.4046L7.96709 29.4288L8.01944 29.4186C8.02032 29.4459 7.9772 29.4763 7.94552 29.4899C7.94772 29.4824 7.931 29.4772 7.92484 29.4719C7.89228 29.5207 7.97456 29.5529 7.96356 29.5691L7.97412 29.5251C7.99216 29.5467 8.00581 29.5705 8.01901 29.5977C8.03441 29.6316 8.04937 29.6659 8.06521 29.7002C8.10393 29.7817 8.14441 29.867 8.21041 29.9005L8.22758 29.8688C8.31954 29.9172 8.24473 29.97 8.31998 30.0518L8.31338 30.0549C8.34374 30.0479 8.36662 30.0589 8.37894 30.0892C8.34374 30.0985 8.36794 30.2094 8.32658 30.2142C8.42383 30.2477 8.38687 30.2138 8.47927 30.1469L8.46518 30.216C8.49907 30.1839 8.51007 30.1579 8.54131 30.183C8.50171 30.1992 8.53251 30.3005 8.48322 30.3273C8.49775 30.4391 8.53471 30.4439 8.56375 30.4452C8.59411 30.4474 8.61392 30.447 8.61568 30.5764C8.67992 30.4316 8.56683 30.3951 8.59235 30.3801C8.59059 30.3049 8.64515 30.2776 8.66188 30.3194C8.68036 30.3462 8.6676 30.6085 8.7358 30.6864C8.7292 30.6771 8.72832 30.6925 8.72172 30.6837C8.73228 30.7224 8.74592 30.7255 8.75824 30.7189C8.771 30.689 8.7842 30.6635 8.79828 30.6868C8.81236 30.5438 8.83568 30.6441 8.83524 30.487L8.7842 30.5917C8.81764 30.5077 8.8326 30.3 8.87925 30.3255C8.87925 30.3594 8.87 30.4157 8.86076 30.4509C8.87704 30.4747 8.88409 30.3867 8.90301 30.4105C8.91225 30.5583 8.84229 30.5266 8.81104 30.689C8.82996 30.7299 8.87308 30.4923 8.8634 30.6776C8.87132 30.5579 8.88585 30.546 8.90389 30.5346C8.92281 30.5236 8.94656 30.5134 8.95537 30.4157L8.96549 30.4993C8.97077 30.4778 8.97825 30.4219 8.99057 30.4078L8.98661 30.5398C9.00553 30.4074 9.07506 30.52 9.10322 30.4263C9.02577 30.5271 9.06054 30.3607 9.01785 30.3458C9.06978 30.1429 9.12037 30.4699 9.22026 30.2956C9.20838 30.3242 9.14986 30.3264 9.1591 30.2679C9.1833 30.2564 9.22026 30.2472 9.24974 30.2626C9.31354 30.1596 9.20618 30.2151 9.21586 30.1403C9.27878 30.183 9.23082 30.0694 9.24138 30.0144L9.28098 30.0694C9.37999 30.007 9.21454 29.9352 9.3065 29.8952C9.3065 29.8952 9.31575 29.9207 9.32499 29.9462C9.33291 29.9726 9.34083 29.9981 9.34083 29.9981L9.35975 29.9361L9.40419 29.9995C9.40507 29.9084 9.42399 29.9062 9.47899 29.8688C9.43499 29.8512 9.39099 29.7878 9.41651 29.7491C9.46579 29.7482 9.46183 29.7957 9.48427 29.7465C9.51112 29.7817 9.55247 29.8142 9.47899 29.8085C9.49527 29.8239 9.50275 29.8468 9.51815 29.8626C9.58724 29.849 9.57492 29.8019 9.58724 29.7839C9.58064 29.7883 9.57272 29.794 9.56172 29.7927L9.52915 29.6783C9.55687 29.6818 9.56787 29.7007 9.57843 29.7196C9.58151 29.7025 9.56171 29.6769 9.57095 29.6549C9.61232 29.6897 9.65984 29.7196 9.66204 29.7601L9.65412 29.6664C9.67656 29.6756 9.72981 29.6703 9.74125 29.6897C9.79229 29.673 9.71 29.5498 9.77161 29.5264C9.76413 29.5185 9.7584 29.508 9.75796 29.4939C9.79449 29.4578 9.87457 29.4556 9.84333 29.3654L9.94277 29.3887C9.94849 29.3372 9.81517 29.3623 9.82485 29.2765C9.82837 29.2127 9.90625 29.3034 9.93881 29.3012C9.91153 29.2519 9.85257 29.1586 9.94673 29.1573C9.95333 29.1819 9.93485 29.1859 9.93265 29.203ZM10.1975 28.6908C10.2041 28.7076 10.2288 28.7489 10.1905 28.7353C10.132 28.6851 10.1689 28.6957 10.1975 28.6908ZM10.5029 27.8631C10.5166 27.8816 10.502 27.8869 10.473 27.886C10.4734 27.875 10.4809 27.8658 10.5029 27.8631ZM11.4032 25.5679L11.4058 25.5706C11.3698 25.5759 11.3834 25.575 11.4032 25.5679ZM11.4564 25.5429C11.4529 25.5332 11.4446 25.5283 11.4358 25.5248C11.4476 25.5371 11.4424 25.5473 11.4305 25.5556C11.4472 25.5627 11.4604 25.5644 11.4564 25.5429ZM8.78024 29.8059L8.78156 29.8415C8.77144 29.8661 8.77584 29.8375 8.78024 29.8059Z" fill="#006EFF"/>
<path d="M10.5319 27.9926C10.5205 27.99 10.5095 27.9842 10.498 27.9785C10.5051 27.9878 10.5165 27.9939 10.5319 27.9926Z" fill="#006EFF"/>
<path d="M9.77378 29.5254C9.77378 29.5254 9.77334 29.5258 9.77246 29.5263C9.7751 29.5289 9.77862 29.532 9.7817 29.5342L9.77378 29.5254Z" fill="#006EFF"/>
<path d="M11.4786 26.51C11.465 26.5135 11.4527 26.5113 11.4395 26.5078C11.4527 26.5175 11.4663 26.521 11.4786 26.51Z" fill="#006EFF"/>
<path d="M11.5219 25.2539L11.5166 25.2909C11.5241 25.2755 11.5386 25.279 11.5527 25.279C11.5386 25.2706 11.5166 25.2627 11.5219 25.2539Z" fill="#006EFF"/>
<path d="M12.0215 25.2585C12.018 25.2506 12.0268 25.2497 12.0224 25.2413L11.9964 25.2246C11.9859 25.2422 11.9986 25.2682 12.0215 25.2585Z" fill="#006EFF"/>
<path d="M11.7195 25.3571C11.7662 25.3874 11.7631 25.3597 11.7675 25.3346C11.7675 25.3359 11.7662 25.3373 11.7653 25.3381C11.7059 25.2871 11.712 25.3223 11.7195 25.3571Z" fill="#006EFF"/>
<path d="M11.7701 25.3308C11.7723 25.3233 11.7754 25.3163 11.782 25.3128C11.7573 25.2921 11.771 25.3159 11.7701 25.3308Z" fill="#006EFF"/>
<path d="M11.4646 25.4671C11.4831 25.4662 11.4101 25.42 11.4325 25.4284C11.3806 25.3769 11.4607 25.5371 11.4646 25.4671Z" fill="#006EFF"/>
<path d="M11.881 25.4495L11.8203 25.416L11.859 25.4587L11.881 25.4495Z" fill="#006EFF"/>
<path d="M11.7353 25.5674L11.7714 25.5489C11.7622 25.5423 11.7591 25.5348 11.7582 25.5273C11.7428 25.5445 11.7182 25.5568 11.7353 25.5674Z" fill="#006EFF"/>
<path d="M11.7586 25.5254C11.7665 25.5161 11.7718 25.506 11.7661 25.4941C11.763 25.5003 11.7569 25.5126 11.7586 25.5254Z" fill="#006EFF"/>
<path d="M11.8694 25.5L11.8514 25.5004L11.832 25.5185L11.8694 25.5Z" fill="#006EFF"/>
<path d="M11.4973 25.8809L11.4907 25.9253C11.5074 25.9425 11.5259 25.9416 11.5259 25.9235C11.518 25.9059 11.5198 25.8888 11.4973 25.8809Z" fill="#006EFF"/>
<path d="M11.7226 25.8908C11.7041 25.8913 11.6914 25.8834 11.6689 25.875L11.7389 25.9252L11.7226 25.8908Z" fill="#006EFF"/>
<path d="M11.6709 25.9969C11.6889 26.0136 11.6951 26.0835 11.7184 26.0387C11.7017 26.0215 11.7079 25.9779 11.6709 25.9969Z" fill="#006EFF"/>
<path d="M11.2486 26.4336L11.2526 26.4244L11.1338 26.3496L11.2486 26.4336Z" fill="#006EFF"/>
<path d="M11.2539 27.0627C11.3076 27.0407 11.1866 27.0073 11.2438 26.9937C11.2213 26.9668 11.1971 27.0047 11.1782 26.9805C11.1936 27.0227 11.1681 27.0249 11.2539 27.0627Z" fill="#006EFF"/>
<path d="M11.1781 26.9788C11.1754 26.9718 11.1728 26.9643 11.168 26.9551C11.1706 26.967 11.1741 26.9736 11.1781 26.9788Z" fill="#006EFF"/>
<path d="M8.20515 28.4529L8.21087 28.4062L8.18359 28.4511L8.20515 28.4529Z" fill="#006EFF"/>
<path d="M8.08258 28.4552L8.15254 28.3984L8.07422 28.4262C8.08214 28.4301 8.09622 28.4389 8.08258 28.4552Z" fill="#006EFF"/>
<path d="M10.3976 28.7083L10.38 28.6951C10.3571 28.6872 10.3514 28.6929 10.3408 28.703L10.3976 28.7083Z" fill="#006EFF"/>
<path d="M10.1206 29.0326L10.1255 29.0273L10.0498 28.9961L10.1206 29.0326Z" fill="#006EFF"/>
<path d="M10.0234 29.3871C10.0335 29.3761 10.0273 29.3519 10.0379 29.3418C10.0339 29.3761 9.93623 29.3365 10.0234 29.3871Z" fill="#006EFF"/>
<path d="M33.4285 9.0293H8.85254V13.5233H33.4285V9.0293Z" fill="#545454"/>
</svg>
