<svg width="40" height="40" viewBox="0 0 40 40" fill="none" xmlns="http://www.w3.org/2000/svg">
<path d="M17.5 34.8333C10.4167 33.5833 5 27.4167 5 20C5 11.75 11.75 5 20 5C28.25 5 35 11.75 35 20C35 27.4167 29.5833 33.5833 22.5 34.8333L21.6667 34.1667H18.3333L17.5 34.8333Z" fill="url(#paint0_linear_651_4068)"/>
<path d="M25.8333 24.1673L26.5 20.0007H22.5V17.084C22.5 15.9173 22.9167 15.0007 24.75 15.0007H26.6667V11.1673C25.5833 11.0007 24.4167 10.834 23.3333 10.834C19.9167 10.834 17.5 12.9173 17.5 16.6673V20.0007H13.75V24.1673H17.5V34.7507C18.3333 34.9173 19.1667 35.0007 20 35.0007C20.8333 35.0007 21.6667 34.9173 22.5 34.7507V24.1673H25.8333Z" fill="white"/>
<defs>
<linearGradient id="paint0_linear_651_4068" x1="20" y1="33.9617" x2="20" y2="5" gradientUnits="userSpaceOnUse">
<stop stop-color="#0062E0"/>
<stop offset="1" stop-color="#19AFFF"/>
</linearGradient>
</defs>
</svg>
