<svg width="95" height="84" viewBox="0 0 95 84" fill="none" xmlns="http://www.w3.org/2000/svg">
<path fill-rule="evenodd" clip-rule="evenodd" d="M91.5751 66.3271C91.4581 66.1241 91.2891 65.9121 91.1481 65.6981C88.3391 61.4851 85.4991 57.2981 82.7741 53.0281C82.2821 52.2661 82.0011 51.1561 82.0961 50.2481C82.7011 44.2391 82.1841 38.4041 80.1841 32.6561C73.7141 14.0981 54.1241 3.31409 34.9561 7.72109C32.7011 8.55809 30.4121 9.30908 28.1971 10.2461C9.42309 18.1951 0.202091 41.1351 8.18409 59.9621C8.33109 60.3061 8.49711 60.6271 8.64811 60.9631C7.62411 62.7751 6.5941 64.5811 5.5731 66.3931C5.4641 66.5841 5.3421 66.7771 5.2451 66.9641C4.1571 69.2291 3.2471 70.3161 4.0211 71.1191C4.4391 71.6321 6.9241 70.9051 7.9611 70.7171C9.9451 70.3631 11.9191 69.9541 13.8921 69.5231C28.5501 87.7721 56.8531 89.3491 73.2461 70.1921C74.1191 69.1721 74.9291 68.9221 76.1951 69.1161C80.3781 69.7701 84.5781 70.4031 88.7931 70.8461C89.9881 70.9701 92.8911 71.5921 93.3241 70.9631C94.1331 69.9891 93.0091 68.8231 91.5751 66.3271Z" fill="#2B67C0"/>
<path fill-rule="evenodd" clip-rule="evenodd" d="M33.9807 1.01621C53.8007 -3.54079 74.0547 7.61121 80.7467 26.7962C82.8117 32.7402 83.3517 38.7712 82.7257 44.9892C82.6267 45.9252 82.9147 47.0732 83.4237 47.8602C86.2427 52.2752 89.1797 56.6082 92.0807 60.9622C92.2297 61.1842 92.4017 61.4002 92.5257 61.6122C94.0077 64.1952 95.1707 65.3972 94.3347 66.4072C93.8867 67.0552 90.8827 66.4132 89.6467 66.2832C85.2917 65.8242 80.9457 65.1722 76.6227 64.4962C75.3097 64.2962 74.4757 64.5552 73.5727 65.6072C54.0217 88.4592 18.0647 82.7932 6.30171 55.0322C-1.95529 35.5652 7.57971 11.8462 26.9927 3.62721C29.2837 2.65821 31.6487 1.88421 33.9807 1.01621Z" fill="#006EFF"/>
<path fill-rule="evenodd" clip-rule="evenodd" d="M76.2581 51.0284C67.7871 75.9704 36.8331 83.2134 18.3311 64.5594C17.4701 63.6964 16.7282 63.5234 15.6062 63.7864C11.8772 64.6514 8.13815 65.4994 4.37315 66.1754C3.29915 66.3684 0.731147 67.1214 0.299147 66.5894C-0.502853 65.7594 0.440138 64.6354 1.56514 62.2944C1.66514 62.0994 1.79013 61.8994 1.90413 61.7014C4.15113 57.7204 6.43914 53.7544 8.60414 49.7314C8.99914 49.0084 9.17614 47.9883 9.04014 47.1833C8.08914 41.8033 8.17314 36.5134 9.59514 31.2044C14.2001 14.0584 31.1231 3.04836 48.6821 5.74536C71.4111 9.25936 82.2041 33.5414 76.2581 51.0284Z" fill="white"/>
<path fill-rule="evenodd" clip-rule="evenodd" d="M31.4215 41.5454C31.4215 44.3824 29.1216 46.6864 26.2826 46.6864C23.4406 46.6864 21.1436 44.3824 21.1436 41.5454C21.1436 38.7034 23.4406 36.4004 26.2826 36.4004C29.1226 36.4004 31.4215 38.7034 31.4215 41.5454Z" fill="#343433"/>
<path fill-rule="evenodd" clip-rule="evenodd" d="M66.1874 41.5454C66.1874 44.3824 63.8874 46.6864 61.0444 46.6864C58.2044 46.6864 55.8994 44.3824 55.8994 41.5454C55.8994 38.7034 58.2054 36.4004 61.0444 36.4004C63.8874 36.4004 66.1874 38.7034 66.1874 41.5454Z" fill="#343433"/>
<path fill-rule="evenodd" clip-rule="evenodd" d="M49.0476 41.5454C49.0476 44.3824 46.7456 46.6864 43.9026 46.6864C41.0676 46.6864 38.7676 44.3824 38.7676 41.5454C38.7676 38.7034 41.0676 36.4004 43.9026 36.4004C46.7466 36.4004 49.0476 38.7034 49.0476 41.5454Z" fill="#343433"/>
</svg>
