<svg width="60" height="60" viewBox="0 0 60 60" fill="none" xmlns="http://www.w3.org/2000/svg">
<path d="M60 29.9998C60 46.5683 46.5684 60 30 60C13.432 60 0 46.5683 0 29.9998C0 13.4313 13.432 0 30 0C46.5684 0 60 13.4313 60 29.9998Z" fill="#FFCB57"/>
<mask id="mask0_666_8435" style="mask-type:luminance" maskUnits="userSpaceOnUse" x="2" y="2" width="56" height="56">
<path d="M57.6788 30.0522C57.6788 45.3391 45.2866 57.731 29.9998 57.731C14.7131 57.731 2.32129 45.3391 2.32129 30.0522C2.32129 14.7654 14.7131 2.37305 29.9998 2.37305C45.2866 2.37305 57.6788 14.7654 57.6788 30.0522Z" fill="white"/>
</mask>
<g mask="url(#mask0_666_8435)">
<path d="M24.1583 44.3314H40.5693C44.7357 41.6348 47.4961 36.953 47.4961 31.6214C47.4961 23.2643 40.7216 16.4902 32.3655 16.4902C24.0081 16.4902 17.2349 23.2648 17.2349 31.6214C17.2344 36.9526 19.9935 41.6348 24.1583 44.3314Z" fill="#D8A535"/>
</g>
<mask id="mask1_666_8435" style="mask-type:luminance" maskUnits="userSpaceOnUse" x="2" y="2" width="56" height="56">
<path d="M57.6788 30.0522C57.6788 45.3391 45.2866 57.731 29.9998 57.731C14.7131 57.731 2.32129 45.3391 2.32129 30.0522C2.32129 14.7654 14.7131 2.37305 29.9998 2.37305C45.2866 2.37305 57.6788 14.7654 57.6788 30.0522Z" fill="white"/>
</mask>
<g mask="url(#mask1_666_8435)">
<path d="M61.4607 35.3809H-3.00879V61.6847H61.4607V35.3809Z" fill="#006EFF"/>
</g>
<mask id="mask2_666_8435" style="mask-type:luminance" maskUnits="userSpaceOnUse" x="2" y="2" width="56" height="56">
<path d="M57.6788 30.0522C57.6788 45.3391 45.2866 57.731 29.9998 57.731C14.7131 57.731 2.32129 45.3391 2.32129 30.0522C2.32129 14.7654 14.7131 2.37305 29.9998 2.37305C45.2866 2.37305 57.6788 14.7654 57.6788 30.0522Z" fill="white"/>
</mask>
<g mask="url(#mask2_666_8435)">
<path d="M48.0985 41.9543C48.0985 42.7692 47.4388 43.4288 46.6244 43.4288H14.1915C13.3783 43.4288 12.7153 42.7692 12.7153 41.9543C12.7153 41.139 13.3783 40.4785 14.1915 40.4785H46.6244C47.4384 40.4785 48.0985 41.139 48.0985 41.9543Z" fill="#3B73A4"/>
</g>
<mask id="mask3_666_8435" style="mask-type:luminance" maskUnits="userSpaceOnUse" x="2" y="2" width="56" height="56">
<path d="M57.6788 30.0522C57.6788 45.3391 45.2866 57.731 29.9998 57.731C14.7131 57.731 2.32129 45.3391 2.32129 30.0522C2.32129 14.7654 14.7131 2.37305 29.9998 2.37305C45.2866 2.37305 57.6788 14.7654 57.6788 30.0522Z" fill="white"/>
</mask>
<g mask="url(#mask3_666_8435)">
<path d="M22.2008 43.4291H38.6122C42.7783 40.7333 45.5391 36.0515 45.5391 30.7195C45.5391 22.362 38.7642 15.5879 30.4084 15.5879C22.051 15.5879 15.2778 22.3624 15.2778 30.7195C15.2774 36.0511 18.0361 40.7333 22.2008 43.4291Z" fill="#DDDDDD"/>
</g>
<mask id="mask4_666_8435" style="mask-type:luminance" maskUnits="userSpaceOnUse" x="2" y="2" width="56" height="56">
<path d="M57.6788 30.0522C57.6788 45.3391 45.2866 57.731 29.9998 57.731C14.7131 57.731 2.32129 45.3391 2.32129 30.0522C2.32129 14.7654 14.7131 2.37305 29.9998 2.37305C45.2866 2.37305 57.6788 14.7654 57.6788 30.0522Z" fill="white"/>
</mask>
<g mask="url(#mask4_666_8435)">
<path d="M30.4082 21.0359C35.7466 21.0359 40.0915 25.38 40.0915 30.7193C40.0915 36.0581 35.7466 40.4027 30.4082 40.4027C25.0677 40.4027 20.7227 36.0581 20.7227 30.7193C20.7223 25.38 25.0673 21.0359 30.4082 21.0359ZM30.4082 18.6152C23.7228 18.6152 18.3042 24.0338 18.3042 30.7197C18.3042 37.4052 23.7228 42.8238 30.4082 42.8238C37.0923 42.8238 42.5126 37.4052 42.5126 30.7197C42.5122 24.0338 37.0923 18.6152 30.4082 18.6152Z" fill="#B4B4B5"/>
</g>
<mask id="mask5_666_8435" style="mask-type:luminance" maskUnits="userSpaceOnUse" x="2" y="2" width="56" height="56">
<path d="M57.6788 30.0522C57.6788 45.3391 45.2866 57.731 29.9998 57.731C14.7131 57.731 2.32129 45.3391 2.32129 30.0522C2.32129 14.7654 14.7131 2.37305 29.9998 2.37305C45.2866 2.37305 57.6788 14.7654 57.6788 30.0522Z" fill="white"/>
</mask>
<g mask="url(#mask5_666_8435)">
<path d="M28.7094 32.4349C28.7756 32.4902 28.8613 32.5636 28.9647 32.656C29.0697 32.748 29.1879 32.8396 29.3217 32.9299C29.523 33.0629 29.7213 33.1675 29.9175 33.2422C30.1138 33.3165 30.3206 33.3536 30.5362 33.3536C30.7367 33.3536 30.9046 33.3308 31.0401 33.2861C31.176 33.2418 31.2827 33.1815 31.3617 33.1068C31.4401 33.0312 31.4959 32.9451 31.5296 32.8472C31.5625 32.7489 31.5794 32.6447 31.5794 32.5354C31.5794 32.4134 31.533 32.3041 31.441 32.2079C31.349 32.1117 31.2355 32.026 31.1026 31.9517C30.9684 31.8779 30.8291 31.8133 30.6835 31.7606C30.5375 31.7074 30.4122 31.6635 30.3058 31.6276C29.8349 31.4626 29.4221 31.2854 29.0681 31.0942C28.7144 30.9034 28.4194 30.6912 28.1835 30.457C27.9476 30.224 27.7704 29.9657 27.6531 29.6851C27.5358 29.4045 27.4763 29.0905 27.4763 28.7449C27.4763 28.4427 27.5273 28.1633 27.6286 27.9076C27.732 27.6523 27.8771 27.424 28.0658 27.224C28.2544 27.0239 28.4848 26.8543 28.7587 26.7142C29.0313 26.5749 29.3394 26.4711 29.6808 26.4053V25.5857C29.6808 25.5148 29.7023 25.4545 29.7462 25.403C29.7893 25.3519 29.8543 25.3262 29.9403 25.3262H31.0477C31.1072 25.3262 31.1697 25.3498 31.2346 25.3971C31.2988 25.4439 31.3313 25.5068 31.3313 25.5853V26.3753C31.5512 26.4141 31.7672 26.4707 31.9774 26.5428C32.1867 26.6167 32.3964 26.7091 32.6045 26.8239C32.7378 26.9015 32.8653 26.9838 32.9847 27.0678C33.1045 27.1522 33.2092 27.2337 33.2999 27.3126C33.3907 27.3915 33.462 27.4658 33.5152 27.5367C33.5679 27.6076 33.5949 27.6687 33.5949 27.7194C33.5949 27.7704 33.5814 27.8181 33.5561 27.8612C33.5308 27.9046 33.4919 27.9532 33.4409 28.0085L32.5395 28.9685C32.4724 29.0352 32.4057 29.069 32.339 29.069C32.2833 29.069 32.2335 29.0534 32.1884 29.0226C32.1436 28.9905 32.093 28.9512 32.0381 28.9044L31.9854 28.8571C31.9069 28.7909 31.8191 28.7217 31.7233 28.6516C31.6271 28.5803 31.5237 28.517 31.414 28.4596C31.3043 28.4026 31.1882 28.3549 31.0663 28.3186C30.9443 28.2811 30.8202 28.2621 30.6949 28.2621C30.5649 28.2621 30.4434 28.2731 30.329 28.2937C30.2147 28.3161 30.1155 28.3503 30.029 28.3976C29.9425 28.4448 29.8733 28.5064 29.8222 28.5828C29.7716 28.66 29.7462 28.7533 29.7462 28.863C29.7462 28.9728 29.7732 29.0686 29.8281 29.1487C29.8834 29.2298 29.9652 29.304 30.0754 29.3732C30.1851 29.442 30.3223 29.5066 30.486 29.5674C30.6489 29.6286 30.8384 29.694 31.0544 29.7649C31.471 29.9024 31.8554 30.0472 32.2074 30.1983C32.5589 30.3498 32.8623 30.5283 33.1176 30.7355C33.3734 30.9406 33.5717 31.1879 33.716 31.474C33.8591 31.7618 33.9313 32.1091 33.9313 32.5181C33.9313 32.8877 33.8671 33.2266 33.7367 33.5347C33.6076 33.8432 33.4265 34.1179 33.1948 34.3567C32.9632 34.5964 32.6885 34.7965 32.372 34.9552C32.0563 35.1147 31.7094 35.2274 31.3317 35.2945V36.1372C31.3317 36.3094 31.2372 36.3963 31.0481 36.3963H29.9412C29.7682 36.3963 29.6817 36.3094 29.6817 36.1372V35.2763C29.3715 35.2105 29.0706 35.1079 28.7802 34.9699C28.4886 34.8328 28.2139 34.6695 27.9544 34.4812C27.7974 34.3669 27.6649 34.2555 27.5564 34.1449C27.4484 34.0352 27.3627 33.9466 27.3003 33.8795L27.283 33.8621C27.2788 33.8541 27.2754 33.8495 27.2711 33.8474C27.2674 33.8453 27.2631 33.8423 27.2598 33.8381C27.2551 33.8305 27.2509 33.825 27.2484 33.8229C27.2446 33.8212 27.2404 33.8183 27.2366 33.8145C27.1458 33.717 27.1011 33.6377 27.1011 33.5781C27.1011 33.5119 27.1458 33.4368 27.2366 33.3541L28.2565 32.3822C28.3384 32.3227 28.4051 32.2935 28.4574 32.2935C28.492 32.2935 28.5292 32.3054 28.5688 32.3286C28.6068 32.3522 28.6537 32.3885 28.7094 32.4349Z" fill="#B4B4B5"/>
</g>
<mask id="mask6_666_8435" style="mask-type:luminance" maskUnits="userSpaceOnUse" x="2" y="2" width="56" height="56">
<path d="M57.6788 30.0522C57.6788 45.3391 45.2866 57.731 29.9998 57.731C14.7131 57.731 2.32129 45.3391 2.32129 30.0522C2.32129 14.7654 14.7131 2.37305 29.9998 2.37305C45.2866 2.37305 57.6788 14.7654 57.6788 30.0522Z" fill="white"/>
</mask>
<g mask="url(#mask6_666_8435)">
<path d="M13.6013 14.7009C14.2697 15.6116 15.1214 16.3657 15.7877 17.2739C16.0975 17.6968 16.6178 17.9065 17.1073 17.62C17.5251 17.3748 17.7657 16.724 17.4538 16.2999C16.7845 15.3901 15.9329 14.6359 15.267 13.7282C14.9568 13.3049 14.4364 13.0956 13.9469 13.3817C13.5296 13.6269 13.289 14.2768 13.6013 14.7009Z" fill="white"/>
</g>
<mask id="mask7_666_8435" style="mask-type:luminance" maskUnits="userSpaceOnUse" x="2" y="2" width="56" height="56">
<path d="M57.6788 30.0522C57.6788 45.3391 45.2866 57.731 29.9998 57.731C14.7131 57.731 2.32129 45.3391 2.32129 30.0522C2.32129 14.7654 14.7131 2.37305 29.9998 2.37305C45.2866 2.37305 57.6788 14.7654 57.6788 30.0522Z" fill="white"/>
</mask>
<g mask="url(#mask7_666_8435)">
<path d="M10.5727 20.3709C11.6138 20.8085 12.7313 21.0179 13.7681 21.4542C14.2526 21.6585 14.8059 21.5703 15.0785 21.0736C15.3118 20.649 15.1831 19.9679 14.6978 19.7641C13.6567 19.3256 12.5393 19.1167 11.5007 18.6803C11.0179 18.4765 10.4638 18.5647 10.1908 19.061C9.95785 19.486 10.0866 20.1667 10.5727 20.3709Z" fill="white"/>
</g>
<mask id="mask8_666_8435" style="mask-type:luminance" maskUnits="userSpaceOnUse" x="2" y="2" width="56" height="56">
<path d="M57.6788 30.0522C57.6788 45.3391 45.2866 57.731 29.9998 57.731C14.7131 57.731 2.32129 45.3391 2.32129 30.0522C2.32129 14.7654 14.7131 2.37305 29.9998 2.37305C45.2866 2.37305 57.6788 14.7654 57.6788 30.0522Z" fill="white"/>
</mask>
<g mask="url(#mask8_666_8435)">
<path d="M18.9482 11.2696C19.1431 12.3825 19.5702 13.4354 19.7635 14.5449C19.8533 15.0627 20.226 15.4809 20.7915 15.4425C21.2751 15.4087 21.7781 14.9327 21.6891 14.4136C21.4941 13.3008 21.067 12.2466 20.8738 11.1376C20.7843 10.6206 20.4108 10.202 19.8453 10.2408C19.3621 10.275 18.8574 10.7506 18.9482 11.2696Z" fill="white"/>
</g>
</svg>
