<svg width="55" height="40" viewBox="0 0 55 40" fill="none" xmlns="http://www.w3.org/2000/svg">
<path d="M52.7314 39.7174H5.96317C4.94216 39.7174 4.10932 38.9422 4.10278 37.9863L4.01468 7.69783C4.00843 6.74164 4.83072 5.9668 5.85172 5.9668H52.62C53.641 5.9668 54.4738 6.74192 54.4804 7.69783L54.5682 37.9863C54.575 38.9422 53.7524 39.7174 52.7314 39.7174Z" fill="#ECF6FE"/>
<path d="M3.98639 10.7457H54.4521L54.4433 7.69783C54.4368 6.74164 53.6039 5.9668 52.5829 5.9668H5.81465C4.79364 5.9668 3.97104 6.74192 3.97758 7.69783L3.98639 10.7457Z" fill="#148AD0"/>
<path d="M54.4902 11.0313H4.02454C3.86793 11.0313 3.74087 10.9045 3.7403 10.7479L3.73149 7.69972C3.72808 7.18353 3.93186 6.69151 4.30535 6.31546C4.70415 5.91383 5.2684 5.68359 5.8528 5.68359H52.6211C53.7961 5.68359 54.7583 6.58691 54.7657 7.69716L54.7745 10.7465C54.7748 10.8221 54.7449 10.8946 54.6915 10.948C54.6383 11.0012 54.5658 11.0313 54.4902 11.0313ZM4.30792 10.4628H54.2052L54.1972 7.69972C54.1918 6.90185 53.4849 6.25208 52.6211 6.25208H5.8528C5.41876 6.25208 5.00148 6.4212 4.70871 6.71624C4.44266 6.98371 4.2977 7.33219 4.29997 7.69716L4.30792 10.4628Z" fill="#17266B"/>
<path d="M7.85428 8.27599C7.85627 8.57075 7.59758 8.80979 7.27639 8.80979C6.95519 8.80979 6.69341 8.57075 6.69142 8.27599C6.68943 7.98123 6.94808 7.74219 7.26927 7.74219C7.59047 7.74219 7.85229 7.98123 7.85428 8.27599Z" fill="white"/>
<path d="M9.75662 8.27599C9.75861 8.57075 9.49992 8.80979 9.17873 8.80979C8.85753 8.80979 8.59547 8.57075 8.59376 8.27599C8.59177 7.98123 8.85042 7.74219 9.17162 7.74219C9.49281 7.74219 9.75463 7.98123 9.75662 8.27599Z" fill="white"/>
<path d="M11.6609 8.27599C11.6629 8.57075 11.4042 8.80979 11.083 8.80979C10.7618 8.80979 10.4998 8.57075 10.4981 8.27599C10.4961 7.98123 10.7548 7.74219 11.0759 7.74219C11.3971 7.74219 11.6586 7.98123 11.6609 8.27599Z" fill="white"/>
<path d="M52.7325 40.0046H5.96394C4.78887 40.0046 3.82698 39.1013 3.81958 37.9913L3.73149 7.70167C3.72808 7.18549 3.93186 6.69347 4.30535 6.31741C4.70415 5.91578 5.2684 5.68555 5.8528 5.68555H52.6211C53.7961 5.68555 54.7583 6.58886 54.7657 7.69911L54.8538 37.9888C54.8572 38.5049 54.6534 38.997 54.2799 39.373C53.8811 39.7741 53.3169 40.0046 52.7325 40.0046ZM5.8528 6.25374C5.41876 6.25374 5.00148 6.42287 4.70871 6.71791C4.44266 6.98538 4.2977 7.33386 4.29997 7.69882L4.38807 37.9885C4.39347 38.7863 5.1004 39.4361 5.96394 39.4361H52.7325C53.1665 39.4361 53.5838 39.267 53.8766 38.972C54.1426 38.7042 54.2876 38.3557 54.2853 37.991L54.1972 7.70138C54.1918 6.90352 53.4849 6.25374 52.6211 6.25374H5.8528Z" fill="#17266B"/>
<path d="M49.001 34.0399H2.23272C1.21172 34.0399 0.378871 33.2648 0.372333 32.3089L0.284218 2.02038C0.277681 1.06419 1.1003 0.289062 2.1213 0.289062H48.8896C49.9106 0.289062 50.7434 1.06419 50.7499 2.02038L50.8381 32.3089C50.8443 33.2648 50.022 34.0399 49.001 34.0399Z" fill="white"/>
<path d="M0.293032 5.0683H50.7587L50.7499 2.02038C50.7434 1.06419 49.9106 0.289062 48.8896 0.289062H2.1213C1.1003 0.289062 0.277681 1.06419 0.284218 2.02038L0.293032 5.0683Z" fill="#19B5FF"/>
<path d="M4.12381 2.59435C4.1258 2.88911 3.86711 3.12815 3.54592 3.12815C3.22472 3.12815 2.96265 2.88911 2.96095 2.59435C2.95896 2.29959 3.21764 2.06055 3.53884 2.06055C3.85975 2.06055 4.12153 2.29959 4.12381 2.59435Z" fill="white"/>
<path d="M6.02713 2.59435C6.02912 2.88911 5.77043 3.12815 5.44924 3.12815C5.12804 3.12815 4.86626 2.88911 4.86427 2.59435C4.86228 2.29959 5.12096 2.06055 5.44216 2.06055C5.76335 2.06055 6.02514 2.29959 6.02713 2.59435Z" fill="white"/>
<path d="M7.92947 2.59435C7.93146 2.88911 7.67278 3.12815 7.35158 3.12815C7.03039 3.12815 6.76832 2.88911 6.76661 2.59435C6.76462 2.29959 7.02331 2.06055 7.3445 2.06055C7.66541 2.06055 7.92748 2.29959 7.92947 2.59435Z" fill="white"/>
<path d="M49.0011 34.3213H2.23279C1.05772 34.3213 0.0958315 33.418 0.0881569 32.308L4.21286e-05 2.01836C-0.00336879 1.50218 0.200446 1.01016 0.573942 0.634106C0.972735 0.232473 1.53697 0.00195312 2.12137 0.00195312H48.8896C50.0647 0.00195312 51.0269 0.905275 51.0342 2.01524L51.1224 32.3049C51.1258 32.8211 50.922 33.3131 50.5485 33.6891C50.1497 34.0908 49.5855 34.3213 49.0011 34.3213ZM2.12137 0.570437C1.68733 0.570437 1.27006 0.739559 0.977285 1.0346C0.711233 1.30236 0.566255 1.65056 0.568529 2.01553L0.656644 32.3052C0.662044 33.103 1.36897 33.7528 2.23279 33.7528H49.0011C49.4351 33.7528 49.8524 33.5837 50.1451 33.2886C50.4112 33.0209 50.5562 32.6727 50.5539 32.3077L50.4658 2.01808C50.4604 1.22022 49.7535 0.570437 48.8896 0.570437H2.12137Z" fill="#17266B"/>
<path d="M50.7588 5.34801H0.293099C0.136481 5.34801 0.00942383 5.22124 0.00885534 5.06463L4.21286e-05 2.01642C-0.00336879 1.50023 0.200446 1.00821 0.573942 0.632153C0.972735 0.23052 1.53697 0 2.12137 0H48.8896C50.0647 0 51.0269 0.903322 51.0342 2.01329L51.0431 5.06263C51.0433 5.13824 51.0135 5.21072 50.9601 5.26416C50.9069 5.31788 50.8344 5.34801 50.7588 5.34801ZM0.576492 4.77952H50.4737L50.4658 2.01642C50.4604 1.21855 49.7535 0.56877 48.8896 0.56877H2.12137C1.68733 0.56877 1.27034 0.737892 0.977285 1.03294C0.711233 1.30069 0.566255 1.64889 0.568529 2.01386L0.576492 4.77952Z" fill="#17266B"/>
</svg>
