<svg width="90" height="62" viewBox="0 0 90 62" fill="none" xmlns="http://www.w3.org/2000/svg">
<path d="M2 53.5483L16.4774 40.2516L30.9549 45.1607L45.4323 35.2255H59.9098L74.3872 19.2252L88.8647 14.3223V59.9997H2V53.5483Z" fill="url(#paint0_linear_683_2240)"/>
<path d="M2 53.5483L16.4774 40.2516L30.9549 45.1607L45.4323 35.2255H59.9098L74.3872 19.2252L88.8647 14.3223" stroke="url(#paint1_linear_683_2240)" stroke-width="1.54839" stroke-miterlimit="10" stroke-linecap="round" stroke-linejoin="round"/>
<path d="M2 0V60H88.8647" stroke="url(#paint2_linear_683_2240)" stroke-width="3.09678" stroke-miterlimit="10"/>
<path d="M18.7819 33.7329L16.8379 31.7882C16.6203 31.5706 16.2348 31.5706 16.0165 31.7882L14.0725 33.7329C13.8456 33.9598 13.8456 34.3275 14.0725 34.5544C14.2993 34.782 14.6671 34.7804 14.8939 34.5544L15.8462 33.6013V36.5812C15.8462 36.9017 16.1063 37.1618 16.4268 37.1618C16.7473 37.1618 17.0074 36.9017 17.0074 36.5812V33.6013L17.9597 34.5544C18.0727 34.6682 18.2214 34.7247 18.37 34.7247C18.5179 34.7247 18.6673 34.6682 18.7804 34.5544C19.0087 34.3275 19.0087 33.9598 18.7819 33.7329Z" fill="url(#paint3_linear_683_2240)"/>
<path d="M84.2619 7.53957L82.3179 5.5948C82.1003 5.37725 81.7148 5.37725 81.4965 5.5948L79.5525 7.53957C79.3256 7.76641 79.3256 8.13416 79.5525 8.36099C79.7793 8.58861 80.147 8.58706 80.3739 8.36099L81.3269 7.40795V10.3878C81.3269 10.7083 81.587 10.9685 81.9076 10.9685C82.2281 10.9685 82.4882 10.7083 82.4882 10.3878V7.40795L83.4405 8.36099C83.5535 8.47403 83.7021 8.53132 83.8508 8.53132C83.9987 8.53132 84.1481 8.4748 84.2611 8.36099C84.4887 8.13416 84.4887 7.76641 84.2619 7.53957Z" fill="url(#paint4_linear_683_2240)"/>
<path d="M28.2105 39.2875L30.1545 41.2323C30.372 41.4498 30.7576 41.4498 30.9759 41.2323L32.9199 39.2875C33.1467 39.0607 33.1467 38.6929 32.9199 38.4661C32.6931 38.2385 32.3253 38.24 32.0985 38.4661L31.1462 39.4199V36.44C31.1462 36.1195 30.8861 35.8594 30.5656 35.8594C30.245 35.8594 29.9849 36.1195 29.9849 36.44V39.4199L29.0327 38.4661C28.9196 38.3531 28.771 38.2958 28.6223 38.2958C28.4745 38.2958 28.325 38.3523 28.212 38.4661C27.9836 38.6929 27.9836 39.0607 28.2105 39.2875Z" fill="url(#paint5_linear_683_2240)"/>
<path d="M55.3542 30.2077L57.299 28.2637C57.5165 28.0461 57.5165 27.6606 57.299 27.4423L55.3542 25.4983C55.1274 25.2714 54.7596 25.2714 54.5328 25.4983C54.3052 25.7251 54.3067 26.0928 54.5328 26.3197L55.4858 27.2719H52.5059C52.1854 27.2719 51.9253 27.5321 51.9253 27.8526C51.9253 28.1731 52.1854 28.4332 52.5059 28.4332H55.4858L54.5328 29.3855C54.4198 29.4985 54.3625 29.6472 54.3625 29.7958C54.3625 29.9437 54.419 30.0931 54.5328 30.2061C54.7596 30.4345 55.1274 30.4345 55.3542 30.2077Z" fill="url(#paint6_linear_683_2240)"/>
<defs>
<linearGradient id="paint0_linear_683_2240" x1="43.1416" y1="30.0416" x2="51.5284" y2="56.1064" gradientUnits="userSpaceOnUse">
<stop stop-color="#FF4D87" stop-opacity="0.2"/>
<stop offset="1" stop-color="#FF4D87" stop-opacity="0"/>
</linearGradient>
<linearGradient id="paint1_linear_683_2240" x1="45.7258" y1="53.6724" x2="45.1388" y2="14.1981" gradientUnits="userSpaceOnUse">
<stop stop-color="#FF4D87"/>
<stop offset="1" stop-color="#DB2561"/>
</linearGradient>
<linearGradient id="paint2_linear_683_2240" x1="-10.7793" y1="13.3448" x2="71.299" y2="82.4206" gradientUnits="userSpaceOnUse">
<stop offset="0.0054" stop-color="#74859E"/>
<stop offset="1" stop-color="#3F4E63"/>
</linearGradient>
<linearGradient id="paint3_linear_683_2240" x1="16.4273" y1="37.0158" x2="16.4273" y2="32.3213" gradientUnits="userSpaceOnUse">
<stop stop-color="#FFD52E"/>
<stop offset="1" stop-color="#FF9000"/>
</linearGradient>
<linearGradient id="paint4_linear_683_2240" x1="81.9073" y1="10.8225" x2="81.9073" y2="6.12791" gradientUnits="userSpaceOnUse">
<stop stop-color="#FFD52E"/>
<stop offset="1" stop-color="#FF9000"/>
</linearGradient>
<linearGradient id="paint5_linear_683_2240" x1="30.5651" y1="36.0047" x2="30.5651" y2="40.6992" gradientUnits="userSpaceOnUse">
<stop stop-color="#FF4D87"/>
<stop offset="1" stop-color="#DB2561"/>
</linearGradient>
<linearGradient id="paint6_linear_683_2240" x1="52.0714" y1="27.8537" x2="56.7659" y2="27.8537" gradientUnits="userSpaceOnUse">
<stop stop-color="#4DC3FF"/>
<stop offset="1" stop-color="#259EDB"/>
</linearGradient>
</defs>
</svg>
