<svg width="61" height="61" viewBox="0 0 61 61" fill="none" xmlns="http://www.w3.org/2000/svg">
<path d="M9.69458 45.1445L6.00537 60.3578H11.282L14.9712 45.1445H9.69458Z" fill="#344A5E"/>
<path d="M31.2839 45.1445H26.0073L29.6965 60.3578H34.9731L31.2839 45.1445Z" fill="#344A5E"/>
<path d="M40.1331 2.85905V44.1841C40.1331 45.5587 39.0081 46.6844 37.6329 46.6844H3.34546C1.97089 46.6844 0.845215 45.5593 0.845215 44.1841V2.85905C0.845215 1.48387 1.9703 0.359375 3.34546 0.359375H37.6329C39.0081 0.359375 40.1331 1.48446 40.1331 2.85905Z" fill="#F3F3F3"/>
<path d="M34.5895 26.4359L32.5267 24.9857L24.9391 35.7731L14.0271 34.311L8.46433 42.6856L6.38916 41.298L12.802 31.6357L23.7643 33.086L30.4894 23.5478L28.4266 22.0857L33.8392 21.0605L34.5895 26.4359Z" fill="#CED6E0"/>
<path d="M13.5419 36.074C15.1771 36.074 16.5026 34.7484 16.5026 33.1132C16.5026 31.4779 15.1771 30.1523 13.5419 30.1523C11.9066 30.1523 10.5811 31.4779 10.5811 33.1132C10.5811 34.7484 11.9066 36.074 13.5419 36.074Z" fill="#006EFF"/>
<path d="M13.5416 34.5746C14.3491 34.5746 15.0037 33.92 15.0037 33.1125C15.0037 32.305 14.3491 31.6504 13.5416 31.6504C12.7342 31.6504 12.0796 32.305 12.0796 33.1125C12.0796 33.92 12.7342 34.5746 13.5416 34.5746Z" fill="#006EFF"/>
<path d="M27.2014 34.5741C27.2014 36.2094 25.8759 37.5349 24.2406 37.5349C22.6053 37.5349 21.2798 36.2094 21.2798 34.5741C21.2798 32.9388 22.6053 31.6133 24.2406 31.6133C25.8759 31.6133 27.2014 32.9388 27.2014 34.5741Z" fill="#66C6B9"/>
<path d="M25.7018 34.5734C25.7018 35.3804 25.0474 36.0349 24.2398 36.0349C23.4322 36.0349 22.7783 35.3804 22.7783 34.5734C22.7783 33.7658 23.4328 33.1113 24.2398 33.1113C25.0468 33.1113 25.7018 33.7658 25.7018 34.5734Z" fill="#4ABAA5"/>
<path d="M11.7528 13.5391H7.85254V19.0392H11.7528V13.5391Z" fill="#415A6B"/>
<path d="M19.0653 7.99805H15.165V19.0397H19.0653V7.99805Z" fill="#66C6B9"/>
<path d="M26.3783 10.6641H22.478V19.0393H26.3783V10.6641Z" fill="#FFD15C"/>
<path d="M33.6908 5.33008H29.7905V19.0387H33.6908V5.33008Z" fill="#006EFF"/>
<path d="M42.8682 21.9514L43.8431 21.0469H44.442L43.9134 30.7411L41.0059 29.4197C41.0059 29.4197 42.0523 22.8099 42.8682 21.9514Z" fill="#344A5E"/>
<path d="M44.3297 30.5821C44.3297 31.9147 43.5859 32.9943 42.6677 32.9943C41.7496 32.9943 41.0059 31.9141 41.0059 30.5821C41.0059 29.2495 41.7496 28.1699 42.6677 28.1699C43.5859 28.1699 44.3297 29.2501 44.3297 30.5821Z" fill="#344A5E"/>
<path d="M57.6915 54.8466C57.1642 57.6455 57.1092 60.3586 57.1092 60.3586H44.2284C44.2284 60.3586 41.6525 52.2429 42.7864 46.203C43.9233 40.1631 45.0029 36.8398 45.0029 36.8398L54.7833 37.8366L58.0244 47.7544C58.0244 47.7544 58.2159 52.0478 57.6915 54.8466Z" fill="#415A6B"/>
<path d="M47.0225 19.9941L46.4431 20.1183C46.4431 20.1183 44.0718 20.6717 43.6567 21.218C43.2417 21.7642 42.2142 23.8217 42.3017 25.6669C42.3892 27.5127 43.1761 30.5504 43.3073 33.5668C43.4386 36.5832 42.8048 41.4572 42.4985 43.446C42.1923 45.4349 41.8647 50.0683 41.8647 50.0683C41.8647 50.0683 41.9741 50.5927 42.4548 49.4782C42.9354 48.3638 44.2698 41.4353 44.8155 40.0146C45.3606 38.5939 46.3455 31.6435 46.3455 31.6435C46.3455 31.6435 46.0907 23.6881 46.5241 21.983C46.9569 20.2785 47.0225 19.9941 47.0225 19.9941Z" fill="#344A5E"/>
<path d="M42.4921 32.3778C42.4921 32.3778 42.0622 31.9326 42.0025 31.3396C41.9434 30.7466 42.1214 29.8415 42.6552 29.2928C43.1891 28.7442 43.7525 28.8476 43.7525 28.8476L44.8203 29.1296L42.4921 32.3778Z" fill="#E8EAE9"/>
<path d="M53.8006 13.2764L53.4323 16.5133L48.1705 20.6247V16.375C48.1705 16.375 46.6977 15.286 46.8053 12.1253C46.8053 12.1253 46.6369 10.3611 46.9585 9.14909C47.2807 7.93709 47.7253 6.8327 48.7688 6.41826C49.8117 6.00381 52.8493 6.81733 53.4784 7.35416C54.1074 7.89158 54.7826 11.9414 53.8006 13.2764Z" fill="#FFD15C"/>
<path d="M53.6623 11.9407L53.8923 12.1246L54.8589 11.4033C54.8589 11.4033 55.258 9.56224 54.6443 8.13563C54.0306 6.70901 52.3433 5.43551 51.3767 5.20553C50.41 4.97554 49.674 4.97555 48.9373 5.497C48.2013 6.01846 47.48 6.78586 47.2039 7.56804C46.9278 8.35023 46.5287 10.0991 46.621 10.8665C46.7132 11.6339 46.8048 12.1246 46.8048 12.1246H46.9579C46.9579 12.1246 46.7433 10.9587 46.9272 10.2989C47.1111 9.6391 47.234 9.56222 47.2802 8.93376C47.3263 8.3047 47.5563 7.53789 48.2007 7.26179C48.8451 6.98569 50.5632 6.93959 51.4683 7.23106C52.3735 7.52253 52.9718 7.9825 53.2786 7.9825C53.2786 7.9825 52.8187 8.99526 53.1864 9.54746C53.5553 10.0997 53.816 11.2354 53.6623 11.9407Z" fill="#415A6B"/>
<path d="M54.9878 12.8223C54.743 13.6109 54.27 14.1655 53.9319 14.0609C53.5937 13.9562 53.518 13.2314 53.7628 12.4427C54.0075 11.654 54.4805 11.0994 54.8181 11.2041C55.1575 11.3087 55.2331 12.0336 54.9878 12.8223Z" fill="#FFD15C"/>
<path d="M48.1709 16.3734V19.5594C51.6786 18.1541 53.1868 14.6133 53.1868 14.6133C51.2417 17.2454 48.1709 16.3734 48.1709 16.3734Z" fill="#F7B64C"/>
<path d="M48.1677 18.2559L48.7849 18.6555H49.2278L51.89 19.0179L48.1931 27.5262L45.9873 32.7135L46.212 21.9906L48.1677 18.2559Z" fill="#CED6E0"/>
<path d="M48.7852 20.2298C48.7852 20.2298 49.5596 22.5438 49.4272 24.1762C49.2948 25.808 46.8259 30.7429 46.8259 30.7429L45.5264 26.7368C45.5264 26.7368 46.2447 21.9284 46.2642 21.8917C46.2831 21.8551 47.6015 20.2304 47.6015 20.2304L48.6574 19.5605L48.7852 20.1441" fill="#006EFF"/>
<path d="M49.9748 18.9036C49.9748 18.9036 49.2784 19.47 48.7847 20.2297C48.7847 20.2297 48.1326 19.8406 47.6011 20.2297C47.6011 20.2297 47.8589 18.9331 48.0823 18.6795C48.3058 18.4264 48.7847 18.6558 48.7847 18.6558H49.2275L49.9748 18.9036Z" fill="#006EFF"/>
<path d="M53.4665 16.2098C53.4665 16.2098 52.7618 16.8199 51.8064 17.2018C50.851 17.5838 49.2275 18.6551 49.2275 18.6551C49.2275 18.6551 50.8303 20.1946 50.8936 21.2133C50.9574 22.2319 50.9574 22.2319 50.9574 22.2319L54.296 17.6896C53.8839 17.2515 53.6575 16.0064 53.4665 16.2098Z" fill="#F3F3F3"/>
<path d="M55.2122 18.4512C55.2122 18.4512 56.2037 19.1234 56.9202 19.335C57.6368 19.5467 59.2171 19.27 60.195 20.5246C60.195 20.5246 61.3543 21.3576 60.5662 24.533C59.7787 27.7091 58.0004 31.7229 57.8224 32.8409C57.6445 33.9589 59.6262 49.9141 59.6262 49.9141C59.6262 49.9141 50.6072 51.9722 48.0662 49.9141C45.5258 47.8561 45.1444 40.5137 45.3986 38.0998C45.6529 35.6858 45.7226 34.1427 45.7226 34.1427C45.7226 34.1427 47.4567 27.0989 48.3459 24.9901C49.2351 22.8812 52.563 18.7657 52.563 18.7657L55.2122 18.4512Z" fill="#344A5E"/>
<path d="M46.5223 35.3021C46.5223 35.3021 49.5446 35.3967 49.3921 33.9299C49.2396 32.4631 47.4257 32.4004 47.4257 32.4004L45.5273 33.5675L46.5223 35.3021Z" fill="#FFD15C"/>
<path d="M47.1445 33.1398C47.1445 33.1398 46.866 34.8597 47.1445 35.5307L43.4062 35.7926L43.8361 32.9004L47.1445 33.1398Z" fill="#E8EAE9"/>
<path d="M46.1516 36.5814C46.1516 36.5814 45.9228 36.5689 45.5692 36.5541C44.9869 36.5269 44.0664 36.4838 43.2611 36.4477C42.5174 36.414 41.8676 36.3898 41.6725 36.3898C41.1357 36.3898 38.6816 36.0238 38.4227 35.7223C38.1637 35.4208 37.5601 34.2378 37.5601 33.0305C37.5601 31.8262 38.5509 30.2529 38.5509 30.2529C38.5509 30.2529 39.5418 28.6826 39.8433 28.2954C40.1448 27.9082 40.4257 27.6492 40.703 27.3045C40.9832 26.9634 40.9832 26.4632 40.9832 26.4632C40.9832 26.4632 40.8123 25.9051 41.1783 25.1525C41.5442 24.3993 41.8641 23.7743 41.8641 23.7743C41.8641 23.7743 42.1018 22.3536 42.8124 21.7074C43.4834 21.0979 43.8062 21.0518 43.8429 21.0488C43.7607 21.1068 43.6969 21.1618 43.6537 21.2197C43.2393 21.7654 42.2117 23.8234 42.2998 25.668C42.3394 26.5554 42.544 27.7196 42.7604 29.0214V29.0244C42.7604 29.0244 41.8883 30.8991 41.7571 31.1587C41.6288 31.4176 41.672 31.741 42.1627 31.8906C42.2998 31.9332 42.693 32.0035 43.1932 32.0828C44.187 32.2382 45.5988 32.4333 46.2142 32.5155C46.4064 32.5427 46.5223 32.5581 46.5223 32.5581C45.6029 33.935 46.1516 36.5814 46.1516 36.5814Z" fill="#2E4454"/>
<path d="M46.2267 32.7389C47.0562 30.4521 48.6998 26.0191 49.5334 24.4624C50.6768 22.3281 52.6964 20.7277 52.6964 20.7277L52.2198 20.0986L53.3059 19.965C53.3059 19.965 55.0399 18.5455 55.2114 18.4503C55.2114 18.4503 55.021 18.0979 54.7443 17.8881C54.4682 17.6782 54.2081 17.2129 53.9947 17.1934C53.9947 17.1934 51.5453 18.8482 50.416 20.5166C49.2868 22.1844 47.9891 24.5197 47.2466 27.1111C46.7677 28.7807 46.2734 31.2159 45.9819 32.7383H46.2267V32.7389Z" fill="#415A6B"/>
<path d="M48.1763 17.3418C48.1763 17.3418 48.3904 18.2434 48.7847 18.6579C48.7847 18.6579 48.064 18.6845 47.8322 19.4578C47.6011 20.2317 47.6011 20.2317 47.6011 20.2317C47.6011 20.2317 47.6206 19.3987 47.7926 18.9753C47.9647 18.552 47.8127 17.4872 48.1763 17.3418Z" fill="#F3F3F3"/>
<path d="M45.985 32.8994C46.2871 31.4384 46.7406 29.1321 46.7323 28.4954C46.7193 27.5423 46.7702 23.6302 46.9357 22.6009C47.1007 21.5722 47.8881 18.7852 47.8881 18.7852C47.8881 18.7852 47.4353 19.6182 46.4427 20.119L46.7046 20.3253C46.7046 20.3253 45.8302 20.5937 45.5127 21.4705C45.1952 22.3473 45.1567 25.8786 45.1567 26.8819C45.1567 27.6239 45.4778 31.0187 45.6362 32.8994H45.985Z" fill="#415A6B"/>
<path d="M60.5664 24.5326C60.1519 26.2093 59.4566 28.1213 58.8713 29.7158L58.8684 29.7188C57.1308 31.7827 53.5693 33.8774 52.9876 34.1429C52.4052 34.4048 52.1735 34.5059 51.762 34.6401C51.3505 34.7743 50.5701 34.6673 50.1308 34.7831C49.6886 34.902 49.4326 34.7376 48.939 34.6401C48.7137 34.591 47.2711 34.2653 45.7742 33.9265C43.9846 33.5179 42.1128 33.0881 42.1128 33.0881C42.6496 31.6 44.5551 28.9998 44.5551 28.9998C44.5551 28.9998 45.9456 29.1063 47.0335 29.1524C47.549 29.1766 47.9942 29.1831 48.1952 29.1613C48.8142 29.0909 50.3632 28.9295 50.5305 28.8503C50.6984 28.771 51.4297 29.0909 51.762 29.2068C52.0942 29.3227 52.2225 29.3469 52.4052 28.719C52.5915 28.0941 52.9633 27.7677 53.1856 27.1156C53.4085 26.4665 53.6858 24.4451 55.2129 22.0518C55.9655 20.8712 57.025 20.2486 57.9035 19.9211C58.7129 19.6195 59.6482 19.8318 60.1832 20.5099C60.1868 20.5146 60.1909 20.5194 60.1945 20.5241C60.1945 20.5241 61.3533 21.356 60.5664 24.5326Z" fill="#415A6B"/>
<path d="M50.4994 60.3596H49.4565C49.2401 59.082 48.7033 57.585 48.6365 56.5669C48.539 55.0362 48.5874 52.2315 48.938 53.1674C49.2886 54.1063 49.7704 56.7195 49.667 56.9175C49.5635 57.1126 50.0176 57.4082 50.066 58.7408C50.0909 59.332 50.286 59.9079 50.4994 60.3596Z" fill="#344A5E"/>
</svg>
