<svg width="80" height="80" viewBox="0 0 80 80" fill="none" xmlns="http://www.w3.org/2000/svg">
<rect width="80" height="79.9989" rx="39.9995" fill="#FFCB57"/>
<path d="M64.8562 61.881C64.5324 61.881 64.27 61.6533 64.27 61.3725V58.3041C64.27 58.0233 64.5324 57.7956 64.8562 57.7956H66.288V35.6705H64.8562C64.5324 35.6705 64.27 35.4429 64.27 35.162V32.0937C64.27 31.8129 64.5324 31.5852 64.8562 31.5852H66.288V29.4727H14.0444V31.5852H15.4854C15.8092 31.5852 16.0716 31.8129 16.0716 32.0937V35.162C16.0716 35.4429 15.8092 35.6705 15.4854 35.6705H14.0444V57.7959H15.4854C15.8092 57.7959 16.0716 58.0235 16.0716 58.3044V61.3727C16.0716 61.6535 15.8092 61.8812 15.4854 61.8812H14.0444V63.9937H66.288V61.8812H64.8562V61.881ZM24.7802 61.3725C24.7802 61.6533 24.5178 61.881 24.194 61.881H21.312C20.9882 61.881 20.7258 61.6533 20.7258 61.3725V58.3041C20.7258 58.0233 20.9882 57.7956 21.312 57.7956H24.194C24.5178 57.7956 24.7802 58.0233 24.7802 58.3041V61.3725ZM24.7802 35.162C24.7802 35.4429 24.5178 35.6705 24.194 35.6705H21.312C20.9882 35.6705 20.7258 35.4429 20.7258 35.162V32.0937C20.7258 31.8129 20.9882 31.5852 21.312 31.5852H24.194C24.5178 31.5852 24.7802 31.8129 24.7802 32.0937V35.162ZM33.489 61.3725C33.489 61.6533 33.2266 61.881 32.9028 61.881H30.0208C29.697 61.881 29.4346 61.6533 29.4346 61.3725V58.3041C29.4346 58.0233 29.697 57.7956 30.0208 57.7956H32.9028C33.2266 57.7956 33.489 58.0233 33.489 58.3041V61.3725ZM33.489 35.162C33.489 35.4429 33.2266 35.6705 32.9028 35.6705H30.0208C29.697 35.6705 29.4346 35.4429 29.4346 35.162V32.0937C29.4346 31.8129 29.697 31.5852 30.0208 31.5852H32.9028C33.2266 31.5852 33.489 31.8129 33.489 32.0937V35.162ZM42.198 61.3725C42.198 61.6533 41.9356 61.881 41.6118 61.881H38.7298C38.406 61.881 38.1436 61.6533 38.1436 61.3725V58.3041C38.1436 58.0233 38.406 57.7956 38.7298 57.7956H41.6118C41.9356 57.7956 42.198 58.0233 42.198 58.3041V61.3725ZM42.198 35.162C42.198 35.4429 41.9356 35.6705 41.6118 35.6705H38.7298C38.406 35.6705 38.1436 35.4429 38.1436 35.162V32.0937C38.1436 31.8129 38.406 31.5852 38.7298 31.5852H41.6118C41.9356 31.5852 42.198 31.8129 42.198 32.0937V35.162ZM50.9066 61.3725C50.9066 61.6533 50.6442 61.881 50.3204 61.881H47.4384C47.1146 61.881 46.8522 61.6533 46.8522 61.3725V58.3041C46.8522 58.0233 47.1146 57.7956 47.4384 57.7956H50.3204C50.6442 57.7956 50.9066 58.0233 50.9066 58.3041V61.3725ZM50.9066 35.162C50.9066 35.4429 50.6442 35.6705 50.3204 35.6705H47.4384C47.1146 35.6705 46.8522 35.4429 46.8522 35.162V32.0937C46.8522 31.8129 47.1146 31.5852 47.4384 31.5852H50.3204C50.6442 31.5852 50.9066 31.8129 50.9066 32.0937V35.162ZM59.6154 61.3725C59.6154 61.6533 59.353 61.881 59.0291 61.881H56.1474C55.8236 61.881 55.5612 61.6533 55.5612 61.3725V58.3041C55.5612 58.0233 55.8236 57.7956 56.1474 57.7956H59.0293C59.3532 57.7956 59.6156 58.0233 59.6156 58.3041V61.3725H59.6154ZM59.6154 35.162C59.6154 35.4429 59.353 35.6705 59.0291 35.6705H56.1474C55.8236 35.6705 55.5612 35.4429 55.5612 35.162V32.0937C55.5612 31.8129 55.8236 31.5852 56.1474 31.5852H59.0293C59.3532 31.5852 59.6156 31.8129 59.6156 32.0937V35.162H59.6154Z" fill="#333333"/>
<mask id="mask0_704_4498" style="mask-type:luminance" maskUnits="userSpaceOnUse" x="14" y="29" width="53" height="35">
<path d="M64.8567 61.8771C64.5328 61.8771 64.2704 61.6494 64.2704 61.3686V58.3002C64.2704 58.0194 64.5328 57.7917 64.8567 57.7917H66.2885V35.6666H64.8567C64.5328 35.6666 64.2704 35.439 64.2704 35.1581V32.0898C64.2704 31.809 64.5328 31.5813 64.8567 31.5813H66.2885V29.4688H14.0449V31.5813H15.4859C15.8097 31.5813 16.0721 31.809 16.0721 32.0898V35.1581C16.0721 35.439 15.8097 35.6666 15.4859 35.6666H14.0449V57.792H15.4859C15.8097 57.792 16.0721 58.0196 16.0721 58.3004V61.3688C16.0721 61.6496 15.8097 61.8773 15.4859 61.8773H14.0449V63.9898H66.2885V61.8773H64.8567V61.8771ZM24.7807 61.3686C24.7807 61.6494 24.5183 61.8771 24.1945 61.8771H21.3125C20.9887 61.8771 20.7263 61.6494 20.7263 61.3686V58.3002C20.7263 58.0194 20.9887 57.7917 21.3125 57.7917H24.1945C24.5183 57.7917 24.7807 58.0194 24.7807 58.3002V61.3686ZM24.7807 35.1581C24.7807 35.439 24.5183 35.6666 24.1945 35.6666H21.3125C20.9887 35.6666 20.7263 35.439 20.7263 35.1581V32.0898C20.7263 31.809 20.9887 31.5813 21.3125 31.5813H24.1945C24.5183 31.5813 24.7807 31.809 24.7807 32.0898V35.1581ZM33.4895 61.3686C33.4895 61.6494 33.2271 61.8771 32.9033 61.8771H30.0213C29.6975 61.8771 29.4351 61.6494 29.4351 61.3686V58.3002C29.4351 58.0194 29.6975 57.7917 30.0213 57.7917H32.9033C33.2271 57.7917 33.4895 58.0194 33.4895 58.3002V61.3686ZM33.4895 35.1581C33.4895 35.439 33.2271 35.6666 32.9033 35.6666H30.0213C29.6975 35.6666 29.4351 35.439 29.4351 35.1581V32.0898C29.4351 31.809 29.6975 31.5813 30.0213 31.5813H32.9033C33.2271 31.5813 33.4895 31.809 33.4895 32.0898V35.1581ZM42.1985 61.3686C42.1985 61.6494 41.9361 61.8771 41.6123 61.8771H38.7303C38.4065 61.8771 38.1441 61.6494 38.1441 61.3686V58.3002C38.1441 58.0194 38.4065 57.7917 38.7303 57.7917H41.6123C41.9361 57.7917 42.1985 58.0194 42.1985 58.3002V61.3686ZM42.1985 35.1581C42.1985 35.439 41.9361 35.6666 41.6123 35.6666H38.7303C38.4065 35.6666 38.1441 35.439 38.1441 35.1581V32.0898C38.1441 31.809 38.4065 31.5813 38.7303 31.5813H41.6123C41.9361 31.5813 42.1985 31.809 42.1985 32.0898V35.1581ZM50.9071 61.3686C50.9071 61.6494 50.6447 61.8771 50.3208 61.8771H47.4389C47.1151 61.8771 46.8527 61.6494 46.8527 61.3686V58.3002C46.8527 58.0194 47.1151 57.7917 47.4389 57.7917H50.3208C50.6447 57.7917 50.9071 58.0194 50.9071 58.3002V61.3686ZM50.9071 35.1581C50.9071 35.439 50.6447 35.6666 50.3208 35.6666H47.4389C47.1151 35.6666 46.8527 35.439 46.8527 35.1581V32.0898C46.8527 31.809 47.1151 31.5813 47.4389 31.5813H50.3208C50.6447 31.5813 50.9071 31.809 50.9071 32.0898V35.1581ZM59.6158 61.3686C59.6158 61.6494 59.3534 61.8771 59.0296 61.8771H56.1479C55.8241 61.8771 55.5617 61.6494 55.5617 61.3686V58.3002C55.5617 58.0194 55.8241 57.7917 56.1479 57.7917H59.0298C59.3537 57.7917 59.6161 58.0194 59.6161 58.3002V61.3686H59.6158ZM59.6158 35.1581C59.6158 35.439 59.3534 35.6666 59.0296 35.6666H56.1479C55.8241 35.6666 55.5617 35.439 55.5617 35.1581V32.0898C55.5617 31.809 55.8241 31.5813 56.1479 31.5813H59.0298C59.3537 31.5813 59.6161 31.809 59.6161 32.0898V35.1581H59.6158Z" fill="white"/>
</mask>
<g mask="url(#mask0_704_4498)">
<path opacity="0.5" d="M66.2886 29.1875H14.0918V33.6271H66.2886V29.1875Z" fill="#333333"/>
</g>
<path d="M40.166 52.8759C36.6042 52.8759 33.7065 49.9782 33.7065 46.4165C33.7065 42.8547 36.6042 39.957 40.166 39.957C43.7275 39.957 46.6254 42.8547 46.6254 46.4165C46.6254 49.978 43.7275 52.8759 40.166 52.8759ZM40.166 40.8319C37.0866 40.8319 34.5814 43.3371 34.5814 46.4162C34.5814 49.4956 37.0866 52.0008 40.166 52.0008C43.2451 52.0008 45.7505 49.4956 45.7505 46.4162C45.7505 43.3371 43.2451 40.8319 40.166 40.8319Z" fill="white"/>
<path d="M38.724 49.8023C38.653 49.8023 38.5818 49.785 38.517 49.7502C38.3751 49.674 38.2866 49.5259 38.2866 49.3648V43.4647C38.2866 43.3035 38.3751 43.1555 38.517 43.0792C38.6591 43.0032 38.8313 43.0112 38.9656 43.1L43.4199 46.0499C43.5423 46.131 43.6158 46.2681 43.6158 46.4146C43.6158 46.5614 43.5423 46.6982 43.4199 46.7793L38.9656 49.7293C38.8925 49.778 38.8085 49.8023 38.724 49.8023Z" fill="white"/>
<path d="M67.7529 29.4778H12.3345V25.0273H67.7527C67.9133 25.0273 68.0435 25.1576 68.0435 25.3181V29.1872C68.0437 29.3477 67.9135 29.4778 67.7529 29.4778Z" fill="#333333"/>
<mask id="mask1_704_4498" style="mask-type:luminance" maskUnits="userSpaceOnUse" x="12" y="25" width="57" height="5">
<path d="M67.7529 29.4778H12.3345V25.0273H67.7527C67.9133 25.0273 68.0435 25.1576 68.0435 25.3181V29.1872C68.0437 29.3477 67.9135 29.4778 67.7529 29.4778Z" fill="white"/>
</mask>
<g mask="url(#mask1_704_4498)">
<path d="M18.7839 33.1185L13.9995 31.3666L19.3708 21.8086L24.155 23.5605L18.7839 33.1185Z" fill="#F5F5F5"/>
<path d="M29.418 33.0443L24.6338 31.2924L30.0051 21.7344L34.7893 23.4863L29.418 33.0443Z" fill="#F5F5F5"/>
<path d="M40.0523 32.9701L35.2681 31.2182L40.6393 21.6602L45.4236 23.412L40.0523 32.9701Z" fill="#F5F5F5"/>
<path d="M50.687 32.9L45.9028 31.1481L51.2739 21.5898L56.0583 23.3419L50.687 32.9Z" fill="#F5F5F5"/>
<path d="M61.321 32.8258L56.5366 31.0739L61.9079 21.5156L66.6923 23.2677L61.321 32.8258Z" fill="#F5F5F5"/>
</g>
<path d="M12.3456 24.7421L67.5966 20.4378C67.7567 20.4253 67.8763 20.2855 67.8638 20.1254L67.5633 16.2682C67.5508 16.1081 67.4111 15.9884 67.2509 16.0009L12 20.3052L12.3456 24.7421Z" fill="#333333"/>
<mask id="mask2_704_4498" style="mask-type:luminance" maskUnits="userSpaceOnUse" x="12" y="16" width="56" height="9">
<path d="M12.3456 24.7421L67.5966 20.4378C67.7567 20.4253 67.8763 20.2855 67.8638 20.1254L67.5633 16.2682C67.5508 16.1081 67.4111 15.9884 67.2509 16.0009L12 20.3052L12.3456 24.7421Z" fill="white"/>
</mask>
<g mask="url(#mask2_704_4498)">
<path d="M61.7391 24.5428L66.3727 22.4245L60.2754 13.3125L55.6416 15.4308L61.7391 24.5428Z" fill="#F5F5F5"/>
<path d="M51.1312 25.2967L55.765 23.1784L49.6675 14.0664L45.0337 16.1847L51.1312 25.2967Z" fill="#F5F5F5"/>
<path d="M40.5235 26.0506L45.1574 23.9323L39.0599 14.8203L34.4263 16.9386L40.5235 26.0506Z" fill="#F5F5F5"/>
<path d="M29.9151 26.8006L34.549 24.6823L28.4515 15.5703L23.8179 17.6886L29.9151 26.8006Z" fill="#F5F5F5"/>
<path d="M19.3077 27.5545L23.9416 25.4362L17.8443 16.3242L13.2104 18.4425L19.3077 27.5545Z" fill="#F5F5F5"/>
</g>
<path opacity="0.3" d="M12.8887 28.2207V22.1662C12.8887 21.5773 13.6007 21.2825 14.0171 21.6988L20.2321 27.9141C20.6544 28.3364 20.3445 29.0577 19.7475 29.0422L13.5325 28.8815C13.1744 28.8722 12.8887 28.5791 12.8887 28.2207Z" fill="#242424"/>
<path d="M13.0513 28.0369V21.9826C13.0513 21.3937 13.7633 21.0989 14.1797 21.5152L20.3947 27.7303C20.817 28.1526 20.5071 28.8739 19.9101 28.8584L13.6949 28.6977C13.337 28.6886 13.0513 28.3953 13.0513 28.0369Z" fill="#262626"/>
<path d="M14.3365 22.3894C14.3365 22.6779 14.1027 22.9117 13.8143 22.9117C13.5258 22.9117 13.292 22.6779 13.292 22.3894C13.292 22.101 13.5258 21.8672 13.8143 21.8672C14.1027 21.8672 14.3365 22.101 14.3365 22.3894Z" fill="#D4D4D4"/>
<path d="M19.7525 28.0066C19.7525 28.2951 19.5187 28.5289 19.2303 28.5289C18.9418 28.5289 18.708 28.2951 18.708 28.0066C18.708 27.7182 18.9418 27.4844 19.2303 27.4844C19.5187 27.4844 19.7525 27.7182 19.7525 28.0066Z" fill="#D4D4D4"/>
<path d="M14.3365 27.8973C14.3365 28.1857 14.1027 28.4195 13.8143 28.4195C13.5258 28.4195 13.292 28.1857 13.292 27.8973C13.292 27.6088 13.5258 27.375 13.8143 27.375C14.1027 27.375 14.3365 27.6088 14.3365 27.8973Z" fill="#D4D4D4"/>
</svg>
