<svg width="47" height="40" viewBox="0 0 47 40" fill="none" xmlns="http://www.w3.org/2000/svg">
<path d="M44.0461 38.243C43.7762 38.243 43.5575 38.0533 43.5575 37.8193V35.2624C43.5575 35.0283 43.7762 34.8386 44.0461 34.8386H45.2393V16.4012H44.0461C43.7762 16.4012 43.5575 16.2115 43.5575 15.9774V13.4205C43.5575 13.1865 43.7762 12.9968 44.0461 12.9968H45.2393V11.2363H1.70312V12.9968H2.90394C3.17379 12.9968 3.39245 13.1865 3.39245 13.4205V15.9774C3.39245 16.2115 3.17379 16.4012 2.90394 16.4012H1.70312V34.8388H2.90394C3.17379 34.8388 3.39245 35.0285 3.39245 35.2625V37.8195C3.39245 38.0535 3.17379 38.2432 2.90394 38.2432H1.70312V40.0036H45.2393V38.2432H44.0461V38.243ZM10.6496 37.8193C10.6496 38.0533 10.4309 38.243 10.1611 38.243H7.75943C7.48958 38.243 7.27091 38.0533 7.27091 37.8193V35.2624C7.27091 35.0283 7.48958 34.8386 7.75943 34.8386H10.1611C10.4309 34.8386 10.6496 35.0283 10.6496 35.2624V37.8193ZM10.6496 15.9774C10.6496 16.2115 10.4309 16.4012 10.1611 16.4012H7.75943C7.48958 16.4012 7.27091 16.2115 7.27091 15.9774V13.4205C7.27091 13.1865 7.48958 12.9968 7.75943 12.9968H10.1611C10.4309 12.9968 10.6496 13.1865 10.6496 13.4205V15.9774ZM17.9069 37.8193C17.9069 38.0533 17.6882 38.243 17.4183 38.243H15.0167C14.7469 38.243 14.5282 38.0533 14.5282 37.8193V35.2624C14.5282 35.0283 14.7469 34.8386 15.0167 34.8386H17.4183C17.6882 34.8386 17.9069 35.0283 17.9069 35.2624V37.8193ZM17.9069 15.9774C17.9069 16.2115 17.6882 16.4012 17.4183 16.4012H15.0167C14.7469 16.4012 14.5282 16.2115 14.5282 15.9774V13.4205C14.5282 13.1865 14.7469 12.9968 15.0167 12.9968H17.4183C17.6882 12.9968 17.9069 13.1865 17.9069 13.4205V15.9774ZM25.1643 37.8193C25.1643 38.0533 24.9457 38.243 24.6758 38.243H22.2742C22.0043 38.243 21.7857 38.0533 21.7857 37.8193V35.2624C21.7857 35.0283 22.0043 34.8386 22.2742 34.8386H24.6758C24.9457 34.8386 25.1643 35.0283 25.1643 35.2624V37.8193ZM25.1643 15.9774C25.1643 16.2115 24.9457 16.4012 24.6758 16.4012H22.2742C22.0043 16.4012 21.7857 16.2115 21.7857 15.9774V13.4205C21.7857 13.1865 22.0043 12.9968 22.2742 12.9968H24.6758C24.9457 12.9968 25.1643 13.1865 25.1643 13.4205V15.9774ZM32.4214 37.8193C32.4214 38.0533 32.2028 38.243 31.9329 38.243H29.5313C29.2615 38.243 29.0428 38.0533 29.0428 37.8193V35.2624C29.0428 35.0283 29.2615 34.8386 29.5313 34.8386H31.9329C32.2028 34.8386 32.4214 35.0283 32.4214 35.2624V37.8193ZM32.4214 15.9774C32.4214 16.2115 32.2028 16.4012 31.9329 16.4012H29.5313C29.2615 16.4012 29.0428 16.2115 29.0428 15.9774V13.4205C29.0428 13.1865 29.2615 12.9968 29.5313 12.9968H31.9329C32.2028 12.9968 32.4214 13.1865 32.4214 13.4205V15.9774ZM39.6787 37.8193C39.6787 38.0533 39.4601 38.243 39.1902 38.243H36.7888C36.5189 38.243 36.3003 38.0533 36.3003 37.8193V35.2624C36.3003 35.0283 36.5189 34.8386 36.7888 34.8386H39.1904C39.4602 34.8386 39.6789 35.0283 39.6789 35.2624V37.8193H39.6787ZM39.6787 15.9774C39.6787 16.2115 39.4601 16.4012 39.1902 16.4012H36.7888C36.5189 16.4012 36.3003 16.2115 36.3003 15.9774V13.4205C36.3003 13.1865 36.5189 12.9968 36.7888 12.9968H39.1904C39.4602 12.9968 39.6789 13.1865 39.6789 13.4205V15.9774H39.6787Z" fill="#333333"/>
<mask id="mask0_651_3566" style="mask-type:luminance" maskUnits="userSpaceOnUse" x="1" y="11" width="45" height="30">
<path d="M44.0451 38.2411C43.7752 38.2411 43.5566 38.0514 43.5566 37.8173V35.2604C43.5566 35.0264 43.7752 34.8367 44.0451 34.8367H45.2383V16.3992H44.0451C43.7752 16.3992 43.5566 16.2095 43.5566 15.9755V13.4186C43.5566 13.1845 43.7752 12.9948 44.0451 12.9948H45.2383V11.2344H1.70215V12.9948H2.90296C3.17281 12.9948 3.39148 13.1845 3.39148 13.4186V15.9755C3.39148 16.2095 3.17281 16.3992 2.90296 16.3992H1.70215V34.8368H2.90296C3.17281 34.8368 3.39148 35.0266 3.39148 35.2606V37.8175C3.39148 38.0515 3.17281 38.2412 2.90296 38.2412H1.70215V40.0017H45.2383V38.2412H44.0451V38.2411ZM10.6486 37.8173C10.6486 38.0514 10.4299 38.2411 10.1601 38.2411H7.75845C7.4886 38.2411 7.26994 38.0514 7.26994 37.8173V35.2604C7.26994 35.0264 7.4886 34.8367 7.75845 34.8367H10.1601C10.4299 34.8367 10.6486 35.0264 10.6486 35.2604V37.8173ZM10.6486 15.9755C10.6486 16.2095 10.4299 16.3992 10.1601 16.3992H7.75845C7.4886 16.3992 7.26994 16.2095 7.26994 15.9755V13.4186C7.26994 13.1845 7.4886 12.9948 7.75845 12.9948H10.1601C10.4299 12.9948 10.6486 13.1845 10.6486 13.4186V15.9755ZM17.9059 37.8173C17.9059 38.0514 17.6872 38.2411 17.4174 38.2411H15.0157C14.7459 38.2411 14.5272 38.0514 14.5272 37.8173V35.2604C14.5272 35.0264 14.7459 34.8367 15.0157 34.8367H17.4174C17.6872 34.8367 17.9059 35.0264 17.9059 35.2604V37.8173ZM17.9059 15.9755C17.9059 16.2095 17.6872 16.3992 17.4174 16.3992H15.0157C14.7459 16.3992 14.5272 16.2095 14.5272 15.9755V13.4186C14.5272 13.1845 14.7459 12.9948 15.0157 12.9948H17.4174C17.6872 12.9948 17.9059 13.1845 17.9059 13.4186V15.9755ZM25.1633 37.8173C25.1633 38.0514 24.9447 38.2411 24.6748 38.2411H22.2732C22.0034 38.2411 21.7847 38.0514 21.7847 37.8173V35.2604C21.7847 35.0264 22.0034 34.8367 22.2732 34.8367H24.6748C24.9447 34.8367 25.1633 35.0264 25.1633 35.2604V37.8173ZM25.1633 15.9755C25.1633 16.2095 24.9447 16.3992 24.6748 16.3992H22.2732C22.0034 16.3992 21.7847 16.2095 21.7847 15.9755V13.4186C21.7847 13.1845 22.0034 12.9948 22.2732 12.9948H24.6748C24.9447 12.9948 25.1633 13.1845 25.1633 13.4186V15.9755ZM32.4205 37.8173C32.4205 38.0514 32.2018 38.2411 31.932 38.2411H29.5303C29.2605 38.2411 29.0418 38.0514 29.0418 37.8173V35.2604C29.0418 35.0264 29.2605 34.8367 29.5303 34.8367H31.932C32.2018 34.8367 32.4205 35.0264 32.4205 35.2604V37.8173ZM32.4205 15.9755C32.4205 16.2095 32.2018 16.3992 31.932 16.3992H29.5303C29.2605 16.3992 29.0418 16.2095 29.0418 15.9755V13.4186C29.0418 13.1845 29.2605 12.9948 29.5303 12.9948H31.932C32.2018 12.9948 32.4205 13.1845 32.4205 13.4186V15.9755ZM39.6778 37.8173C39.6778 38.0514 39.4591 38.2411 39.1892 38.2411H36.7878C36.5179 38.2411 36.2993 38.0514 36.2993 37.8173V35.2604C36.2993 35.0264 36.5179 34.8367 36.7878 34.8367H39.1894C39.4593 34.8367 39.6779 35.0264 39.6779 35.2604V37.8173H39.6778ZM39.6778 15.9755C39.6778 16.2095 39.4591 16.3992 39.1892 16.3992H36.7878C36.5179 16.3992 36.2993 16.2095 36.2993 15.9755V13.4186C36.2993 13.1845 36.5179 12.9948 36.7878 12.9948H39.1894C39.4593 12.9948 39.6779 13.1845 39.6779 13.4186V15.9755H39.6778Z" fill="white"/>
</mask>
<g mask="url(#mask0_651_3566)">
<path opacity="0.5" d="M45.2384 10.998H1.74121V14.6977H45.2384V10.998Z" fill="#333333"/>
</g>
<path d="M23.4717 30.7383C20.5036 30.7383 18.0889 28.3236 18.0889 25.3555C18.0889 22.3873 20.5036 19.9727 23.4717 19.9727C26.4397 19.9727 28.8545 22.3873 28.8545 25.3555C28.8545 28.3234 26.4397 30.7383 23.4717 30.7383ZM23.4717 20.7017C20.9056 20.7017 18.8179 22.7894 18.8179 25.3553C18.8179 27.9214 20.9056 30.009 23.4717 30.009C26.0376 30.009 28.1255 27.9214 28.1255 25.3553C28.1255 22.7894 26.0376 20.7017 23.4717 20.7017Z" fill="white"/>
<path d="M22.2697 28.179C22.2106 28.179 22.1513 28.1645 22.0973 28.1356C21.979 28.072 21.9053 27.9487 21.9053 27.8144V22.8976C21.9053 22.7633 21.979 22.64 22.0973 22.5764C22.2157 22.5131 22.3592 22.5198 22.4711 22.5937L26.1829 25.052C26.285 25.1196 26.3462 25.2338 26.3462 25.3559C26.3462 25.4782 26.285 25.5922 26.1829 25.6598L22.4711 28.1181C22.4102 28.1587 22.3401 28.179 22.2697 28.179Z" fill="white"/>
<path d="M46.4602 11.236H0.27832V7.52734H46.46C46.5938 7.52734 46.7023 7.63588 46.7023 7.76966V10.9939C46.7025 11.1276 46.594 11.236 46.4602 11.236Z" fill="#333333"/>
<mask id="mask1_651_3566" style="mask-type:luminance" maskUnits="userSpaceOnUse" x="0" y="7" width="47" height="5">
<path d="M46.4602 11.236H0.27832V7.52734H46.46C46.5938 7.52734 46.7023 7.63588 46.7023 7.76966V10.9939C46.7025 11.1276 46.594 11.236 46.4602 11.236Z" fill="white"/>
</mask>
<g mask="url(#mask1_651_3566)">
<path d="M5.65302 14.2686L1.66602 12.8087L6.14206 4.84375L10.1289 6.30364L5.65302 14.2686Z" fill="#F5F5F5"/>
<path d="M14.5151 14.2081L10.5283 12.7482L15.0044 4.7832L18.9912 6.24309L14.5151 14.2081Z" fill="#F5F5F5"/>
<path d="M23.3765 14.1475L19.3896 12.6876L23.8657 4.72266L27.8525 6.18254L23.3765 14.1475Z" fill="#F5F5F5"/>
<path d="M32.2388 14.0871L28.252 12.6273L32.7278 4.66211L36.7148 6.12217L32.2388 14.0871Z" fill="#F5F5F5"/>
<path d="M41.1003 14.0266L37.1133 12.5667L41.5893 4.60156L45.5763 6.06163L41.1003 14.0266Z" fill="#F5F5F5"/>
</g>
<path d="M0.288026 7.28696L46.3303 3.70007C46.4637 3.68966 46.5634 3.57318 46.553 3.43976L46.3026 0.225425C46.2922 0.0920017 46.1757 -0.00771285 46.0423 0.0026998L0 3.58959L0.288026 7.28696Z" fill="#333333"/>
<mask id="mask2_651_3566" style="mask-type:luminance" maskUnits="userSpaceOnUse" x="0" y="0" width="47" height="8">
<path d="M0.288026 7.28501L46.3303 3.69812C46.4637 3.68771 46.5634 3.57122 46.553 3.4378L46.3026 0.223472C46.2922 0.0900485 46.1757 -0.00966597 46.0423 0.000746675L0 3.58764L0.288026 7.28501Z" fill="white"/>
</mask>
<g mask="url(#mask2_651_3566)">
<path d="M41.4504 7.12217L45.3117 5.35696L40.2307 -2.23633L36.3691 -0.47112L41.4504 7.12217Z" fill="#F5F5F5"/>
<path d="M32.6105 7.74912L36.472 5.98392L31.3908 -1.60938L27.5293 0.155833L32.6105 7.74912Z" fill="#F5F5F5"/>
<path d="M23.7705 8.37803L27.632 6.61282L22.5508 -0.980469L18.6895 0.784739L23.7705 8.37803Z" fill="#F5F5F5"/>
<path d="M14.9306 9.00498L18.7922 7.23977L13.711 -0.353516L9.84961 1.41169L14.9306 9.00498Z" fill="#F5F5F5"/>
<path d="M6.09081 9.63389L9.95232 7.86868L4.87129 0.275391L1.00977 2.0406L6.09081 9.63389Z" fill="#F5F5F5"/>
</g>
<path opacity="0.3" d="M0.740234 10.193V5.14764C0.740234 4.65684 1.33358 4.41117 1.68055 4.75814L6.85972 9.93746C7.21163 10.2894 6.95343 10.8905 6.45592 10.8776L1.27675 10.7436C0.978313 10.7359 0.740234 10.4916 0.740234 10.193Z" fill="#242424"/>
<path d="M0.875977 10.0385V4.99335C0.875977 4.50254 1.46932 4.25687 1.8163 4.60384L6.99546 9.78299C7.34737 10.1349 7.08917 10.736 6.59166 10.7231L1.41232 10.5892C1.11406 10.5816 0.875977 10.3372 0.875977 10.0385Z" fill="#262626"/>
<path d="M1.9466 5.33365C1.9466 5.57402 1.75176 5.76887 1.51139 5.76887C1.27101 5.76887 1.07617 5.57402 1.07617 5.33365C1.07617 5.09328 1.27101 4.89844 1.51139 4.89844C1.75176 4.89844 1.9466 5.09328 1.9466 5.33365Z" fill="#D4D4D4"/>
<path d="M6.46027 10.0153C6.46027 10.2557 6.26543 10.4505 6.02506 10.4505C5.78468 10.4505 5.58984 10.2557 5.58984 10.0153C5.58984 9.77492 5.78468 9.58008 6.02506 9.58008C6.26543 9.58008 6.46027 9.77492 6.46027 10.0153Z" fill="#D4D4D4"/>
<path d="M1.9466 9.92154C1.9466 10.1619 1.75176 10.3568 1.51139 10.3568C1.27101 10.3568 1.07617 10.1619 1.07617 9.92154C1.07617 9.68117 1.27101 9.48633 1.51139 9.48633C1.75176 9.48633 1.9466 9.68117 1.9466 9.92154Z" fill="#D4D4D4"/>
</svg>
