<svg width="55" height="60" viewBox="0 0 55 60" fill="none" xmlns="http://www.w3.org/2000/svg">
<path d="M55.0071 10.5967C55.0071 7.61365 52.5888 5.19531 49.6057 5.19531H5.40142C2.41834 5.19531 0 7.61365 0 10.5967V22.8545H55.0071V10.5967Z" fill="#FFB200"/>
<path d="M0 22.8555V54.5992C0 57.5823 2.41834 60.0006 5.40142 60.0006H49.6057C52.5888 60.0006 55.0071 57.5823 55.0071 54.5992V22.8555H0Z" fill="#FFFFFA"/>
<path d="M9.42768 0H7.32268C6.50385 0 5.83398 0.669863 5.83398 1.4887V11.921C5.83398 12.7398 6.50385 13.4097 7.32268 13.4097H9.42768C10.2465 13.4097 10.9164 12.7398 10.9164 11.921V1.4887C10.9167 0.669863 10.2465 0 9.42768 0Z" fill="#506C82"/>
<path d="M21.1275 0C19.7298 0 18.5859 1.01668 18.5859 2.25933V11.1507C18.5859 12.3933 19.7295 13.41 21.1275 13.41C22.5251 13.41 23.6687 12.3933 23.6687 11.1507V2.25933C23.6687 1.01668 22.5251 0 21.1275 0Z" fill="#506C82"/>
<path d="M33.8801 0C32.4824 0 31.3389 1.01668 31.3389 2.25933V11.1507C31.3389 12.3933 32.4824 13.41 33.8801 13.41C35.2777 13.41 36.4213 12.3933 36.4213 11.1507V2.25933C36.4213 1.01668 35.2777 0 33.8801 0Z" fill="#506C82"/>
<path d="M47.6845 0H45.5795C44.7607 0 44.0908 0.669863 44.0908 1.4887V11.921C44.0908 12.7398 44.7607 13.4097 45.5795 13.4097H47.6845C48.5033 13.4097 49.1732 12.7398 49.1732 11.921V1.4887C49.1735 0.669863 48.5033 0 47.6845 0Z" fill="#506C82"/>
<path d="M20.6327 34.9432C20.6327 33.6219 19.5762 32.6313 18.1892 32.5654C16.11 32.4335 13.5009 33.7872 12.7416 34.4471L11.587 29.8919C13.4028 28.5706 16.2754 27.6473 18.5859 27.7454C25.5189 28.1083 27.8294 34.1836 23.8682 39.6972L19.2136 46.8936H26.2125V51.6814H10.6289L19.4449 37.6826C20.6986 35.9003 20.6327 34.9432 20.6327 34.9432Z" fill="#506C82"/>
<path d="M37.6773 32.5645H28.1689V28.1074H44.3789L34.739 51.6805H29.6543L37.6773 32.5645Z" fill="#506C82"/>
</svg>
