<svg width="33" height="60" viewBox="0 0 33 60" fill="none" xmlns="http://www.w3.org/2000/svg">
<path d="M32.4032 3.90625H2.00928V55.7687H32.4032V3.90625Z" fill="#85D8FF"/>
<path d="M2.00879 55.9629V4.03704C2.00879 1.98331 3.26713 0.318359 4.81936 0.318359H29.5925C31.1447 0.318359 32.403 1.98331 32.403 4.03704V55.9629C32.403 58.0166 31.1447 59.6815 29.5925 59.6815H4.81936C3.26713 59.6815 2.00879 58.0166 2.00879 55.9629ZM2.0091 7.15935V52.8409C2.0091 54.4578 3.23912 55.7686 4.75665 55.7686H29.6555C31.173 55.7686 32.403 54.4578 32.403 52.8409V7.15935C32.403 5.54248 31.173 4.23159 29.6555 4.23159H4.75665C3.23912 4.23159 2.0091 5.54248 2.0091 7.15935Z" fill="#19B5FF"/>
<path d="M29.1521 60H5.25977C3.29169 60 1.69074 57.9278 1.69074 55.3806V52.7881C1.69042 52.7722 1.69043 52.7565 1.69043 52.7409V7.25937C1.69043 7.24345 1.69042 7.22784 1.69074 7.21224V4.61947C1.69074 2.07221 3.29169 0 5.25977 0H29.1521C31.1205 0 32.7215 2.07221 32.7215 4.61947V55.3806C32.7215 57.9278 31.1202 60 29.1521 60ZM2.32756 54.7536V55.3806C2.32756 57.5763 3.64289 59.3632 5.25977 59.3632H29.1521C30.769 59.3632 32.0847 57.5766 32.0847 55.3806V54.7533C31.5074 55.5627 30.5913 56.0868 29.5616 56.0868H4.85029C3.82056 56.0871 2.90483 55.563 2.32756 54.7536ZM2.32756 52.7839C2.34889 54.2582 3.47254 55.4503 4.85029 55.4503H29.5616C30.9527 55.4503 32.0847 54.2349 32.0847 52.7409V7.25937C32.0847 5.76572 30.9527 4.55005 29.5616 4.55005H4.85029C3.47254 4.55005 2.34921 5.74215 2.32756 7.21638V52.7839ZM4.85029 3.91323H29.5616C30.591 3.91323 31.5074 4.43764 32.0847 5.24703V4.61947C32.0847 2.42373 30.769 0.636814 29.1521 0.636814H5.25977C3.64289 0.636814 2.32756 2.42341 2.32756 4.61947V5.24672C2.90483 4.43733 3.82056 3.91323 4.85029 3.91323Z" fill="#17266B"/>
<path d="M14.2751 11.9226C17.0351 11.8212 19.1904 9.50165 19.089 6.74166C18.9876 3.98167 16.668 1.82643 13.9081 1.9278C11.1481 2.02916 8.99282 4.34874 9.09418 7.10873C9.19554 9.86871 11.5151 12.024 14.2751 11.9226Z" fill="#FF5626"/>
<path d="M19.0648 6.29688C19.0441 6.76334 18.9604 7.23459 18.8012 7.69883C17.9055 10.3114 15.0611 11.7031 12.4486 10.8071C10.5824 10.1671 9.34477 8.53211 9.11329 6.6984C9.01745 8.85784 10.3369 10.9122 12.4852 11.6487C15.0978 12.5444 17.9418 11.1529 18.8378 8.54038C19.0938 7.79435 19.1575 7.03017 19.0648 6.29688Z" fill="#C14833"/>
<path d="M14.1114 12.239C13.5306 12.239 12.9473 12.1429 12.3818 11.949C9.60754 10.9976 8.12438 7.96601 9.07547 5.19173C10.0272 2.41745 13.0575 0.934639 15.8327 1.8854C18.607 2.8368 20.0902 5.86835 19.1391 8.64263C18.6783 9.98663 17.7215 11.0708 16.445 11.6952C15.7057 12.0569 14.9106 12.239 14.1114 12.239ZM14.1111 2.23436C12.1653 2.23436 10.3434 3.45736 9.6779 5.39837C8.84017 7.84087 10.1459 10.5091 12.5881 11.3465C13.7713 11.7528 15.0415 11.6729 16.1648 11.1233C17.2882 10.5738 18.1307 9.61949 18.536 8.43661C19.3737 5.99411 18.0679 3.32587 15.6258 2.48846C15.1246 2.3162 14.6135 2.23436 14.1111 2.23436Z" fill="#17266B"/>
<path d="M16.5221 5.8642C15.4459 4.63356 14.3372 6.24629 14.3372 6.24629C14.3372 6.24629 14.4515 4.29254 12.8464 4.60394C11.6871 4.82874 11.7469 6.45643 12.1233 7.36676C12.5777 8.46622 13.3364 9.16544 13.3364 9.16544C13.3364 9.16544 14.3646 9.07883 15.3978 8.48946C16.2534 8.00166 17.2997 6.75319 16.5221 5.8642Z" fill="white"/>
<path d="M30.0175 26.8143C30.3872 29.3682 28.6165 31.7381 26.0625 32.1078C23.5086 32.4775 21.1387 30.7068 20.769 28.1529C20.3993 25.5989 22.17 23.229 24.724 22.8593C27.2779 22.4897 29.6478 24.2603 30.0175 26.8143Z" fill="#FF5626"/>
<path d="M29.2492 24.8555C29.431 25.2522 29.5625 25.6798 29.6281 26.1336C29.9978 28.6875 28.2271 31.0574 25.6732 31.4271C23.8487 31.691 22.1226 30.8597 21.1479 29.4339C21.9892 31.2698 23.9624 32.4148 26.0626 32.111C28.6165 31.7413 30.3872 29.3714 30.0175 26.8175C29.9121 26.0877 29.6389 25.4254 29.2492 24.8555Z" fill="#C14833"/>
<path d="M25.3905 32.4733C22.9524 32.4733 20.8134 30.6791 20.4542 28.1968C20.2635 26.8776 20.5975 25.5626 21.3954 24.4947C22.1934 23.4267 23.3594 22.7336 24.6789 22.5429C25.998 22.3515 27.313 22.6858 28.381 23.4837C29.4489 24.2817 30.1421 25.4477 30.3331 26.7668C30.727 29.4905 28.8318 32.0272 26.1085 32.4211C25.8678 32.4565 25.6277 32.4733 25.3905 32.4733ZM25.4032 23.1271C25.1934 23.1271 24.982 23.1424 24.7706 23.173C23.6195 23.3395 22.6019 23.9445 21.9062 24.8761C21.2098 25.8078 20.9182 26.9547 21.0847 28.1057C21.4289 30.4817 23.6405 32.133 26.0174 31.7916C28.3934 31.4477 30.0466 29.2348 29.7033 26.8589C29.5368 25.7078 28.9315 24.6902 27.9998 23.9945C27.2395 23.4258 26.3355 23.1271 25.4032 23.1271Z" fill="#17266B"/>
<path d="M26.9513 25.5775C25.5319 25.0136 25.2978 26.8269 25.2978 26.8269C25.2978 26.8269 24.5594 25.154 23.3581 26.0974C22.4901 26.7788 23.2343 28.1063 23.9354 28.7026C24.782 29.4225 25.7108 29.6805 25.7108 29.6805C25.7108 29.6805 26.5285 29.1697 27.1363 28.2393C27.6397 27.4688 27.9769 25.985 26.9513 25.5775Z" fill="white"/>
<path d="M9.39663 21.7183C10.2608 24.1496 8.99033 26.8214 6.55865 27.6855C4.12729 28.5497 1.45554 27.2792 0.591383 24.8476C-0.272776 22.4162 0.99766 19.7444 3.42934 18.8803C5.8607 18.0164 8.53247 19.2869 9.39663 21.7183Z" fill="#19B5FF"/>
<path d="M8.25753 19.9473C8.51353 20.3004 8.72653 20.6939 8.88 21.126C9.74416 23.5574 8.47373 26.2291 6.04205 27.0933C4.30513 27.7107 2.44912 27.2347 1.21338 26.0282C2.39913 27.6632 4.55857 28.3981 6.55818 27.6874C8.98954 26.8233 10.2603 24.1515 9.39582 21.7202C9.14937 21.0254 8.75138 20.4297 8.25753 19.9473Z" fill="#148AD0"/>
<path d="M4.99826 28.2756C2.94485 28.2756 1.01689 26.9982 0.290923 24.9559C-0.155484 23.6998 -0.0863974 22.345 0.4861 21.1411C1.0586 19.9375 2.06572 19.0285 3.32184 18.5821C4.57764 18.1353 5.93279 18.2048 7.13669 18.7772C8.34027 19.3497 9.24932 20.3569 9.69573 21.613C10.1421 22.8691 10.073 24.2239 9.50022 25.4281C8.92773 26.6317 7.92061 27.5408 6.66481 27.9872C6.1146 28.1827 5.55166 28.2753 4.99826 28.2756ZM4.99698 18.9285C4.50536 18.9285 4.01247 19.0129 3.5355 19.1823C2.43954 19.5717 1.56105 20.3645 1.06146 21.4149C0.562201 22.4654 0.501394 23.6473 0.891125 24.7429C1.69479 27.0049 4.18887 28.1913 6.45179 27.3873C7.54744 26.9979 8.42625 26.205 8.92583 25.1546C9.42509 24.1042 9.4859 22.9223 9.09617 21.8266C8.70707 20.731 7.91391 19.8522 6.86349 19.3526C6.27029 19.0705 5.63507 18.9285 4.99698 18.9285Z" fill="#17266B"/>
<path d="M7.25466 24.4124L6.92319 22.758C6.82958 22.2912 6.5357 21.8929 6.12527 21.6518C5.89633 21.5175 5.64892 21.356 5.45979 21.1911C5.17131 20.9392 4.85226 20.1579 4.73286 19.7258C4.68923 19.5682 4.53036 19.4892 4.38421 19.5631C4.13044 19.6911 3.9378 19.998 3.90151 20.3855C3.84069 21.0373 4.34472 22.1597 4.34472 22.1597C4.34472 22.1597 3.08605 22.4119 2.49063 22.4673L2.47281 22.4692C2.09231 22.5074 1.9382 22.9793 2.22318 23.2343L2.36009 23.3569L2.26679 23.5428C2.16426 23.7469 2.23337 23.9953 2.42632 24.1169L2.57342 24.2099L2.53457 24.4089C2.49573 24.6086 2.5973 24.8092 2.78166 24.8955L3.19687 25.0903L3.19558 25.0929C3.06726 25.3126 3.15006 25.5953 3.37613 25.7112C3.54966 25.8 3.74581 25.8344 3.93876 25.8089C4.31353 25.7599 4.71249 25.8363 6.64523 25.366C7.07094 25.2626 7.34063 24.8413 7.25466 24.4124Z" fill="#F8FBFF"/>
<path d="M28.4106 47.6059C27.8308 50.1204 25.3227 51.6888 22.8079 51.1093C20.2935 50.5298 18.725 48.0214 19.3045 45.5066C19.884 42.9922 22.3924 41.4237 24.9072 42.0032C27.4216 42.583 28.9901 45.0914 28.4106 47.6059Z" fill="#19B5FF"/>
<path d="M28.4043 45.502C28.4301 45.9375 28.3979 46.3836 28.2951 46.8303C27.7156 49.3448 25.2072 50.9133 22.6924 50.3338C20.8962 49.9198 19.5879 48.5198 19.1953 46.838C19.3154 48.8541 20.7402 50.6353 22.808 51.112C25.3224 51.6918 27.8308 50.1233 28.4107 47.6085C28.5762 46.8908 28.5613 46.1744 28.4043 45.502Z" fill="#148AD0"/>
<path d="M23.8684 51.5493C23.4921 51.5493 23.1131 51.5063 22.7374 51.42C21.4383 51.1207 20.3338 50.3333 19.6269 49.2029C18.92 48.0726 18.6956 46.7347 18.9952 45.4356C19.2948 44.1368 20.0819 43.0319 21.2123 42.325C22.3426 41.6185 23.6812 41.3947 24.9796 41.6936C26.2788 41.9929 27.3833 42.7804 28.0902 43.9107C28.7971 45.0411 29.0215 46.379 28.7219 47.6778C28.4226 48.9769 27.6352 50.0818 26.5048 50.7883C25.7015 51.2904 24.7931 51.5493 23.8684 51.5493ZM23.8503 42.2012C23.0434 42.2012 22.2512 42.4266 21.5501 42.8651C20.564 43.4818 19.8772 44.4453 19.6161 45.5782C19.077 47.9179 20.5414 50.2597 22.8807 50.7991C24.0149 51.0609 25.1815 50.8647 26.1673 50.248C27.1534 49.6315 27.8402 48.6677 28.1013 47.5345C28.3624 46.4013 28.1669 45.234 27.5505 44.2482C26.9337 43.2621 25.9702 42.5753 24.8367 42.3142C24.5091 42.2384 24.1782 42.2012 23.8503 42.2012Z" fill="#17266B"/>
<path d="M25.1559 48.7271L25.7666 47.1542C25.9388 46.7104 25.9054 46.2165 25.6889 45.7924C25.5682 45.5561 25.4466 45.2868 25.3759 45.046C25.2679 44.6786 25.4198 43.8482 25.5513 43.4199C25.5994 43.2636 25.5077 43.1117 25.345 43.0952C25.0622 43.0665 24.7346 43.2216 24.4955 43.5288C24.0933 44.0456 23.9147 45.2629 23.9147 45.2629C23.9147 45.2629 22.7181 44.7983 22.1864 44.5248L22.1705 44.5168C21.8291 44.3443 21.4455 44.6592 21.5483 45.0276L21.5977 45.2046L21.419 45.311C21.2229 45.4278 21.1474 45.6742 21.2449 45.8809L21.3191 46.0382L21.1793 46.185C21.0392 46.3324 21.0172 46.5562 21.1258 46.7279L21.3709 47.1154L21.3684 47.1166C21.142 47.2329 21.0595 47.5156 21.1879 47.735C21.2862 47.9034 21.433 48.0375 21.6097 48.1203C21.952 48.2804 22.2472 48.5597 24.1293 49.2032C24.5432 49.3449 24.9976 49.135 25.1559 48.7271Z" fill="#F8FBFF"/>
<path d="M12.2578 44.152C14.342 42.5366 14.7221 39.5376 13.1067 37.4534C11.4914 35.3692 8.49226 34.9891 6.40806 36.6044C4.32386 38.2198 3.9438 41.2189 5.55916 43.3031C7.17453 45.3873 10.1736 45.7674 12.2578 44.152Z" fill="#FF5626"/>
<path d="M13.2727 37.6836C13.4584 38.0889 13.5927 38.5258 13.6599 38.9894C14.0376 41.599 12.2284 44.0208 9.61838 44.3985C7.7541 44.6682 5.99012 43.8187 4.99414 42.3616C5.85384 44.238 7.87001 45.4078 10.0161 45.0971C12.6257 44.7194 14.4353 42.2976 14.0576 39.688C13.95 38.9429 13.6708 38.2663 13.2727 37.6836Z" fill="#C14833"/>
<path d="M9.32828 45.4643C6.84056 45.4643 4.65818 43.6335 4.29169 41.1005C3.88954 38.3212 5.82323 35.7328 8.60261 35.3307C11.3842 34.9266 13.97 36.8625 14.3725 39.6413C14.5674 40.9878 14.2263 42.3293 13.4118 43.4192C12.5974 44.5091 11.4078 45.2166 10.0616 45.4111C9.81512 45.4468 9.57027 45.4643 9.32828 45.4643ZM9.34165 35.9137C9.12673 35.9137 8.91053 35.9293 8.69401 35.9605C6.26201 36.313 4.56999 38.5775 4.92151 41.0088C5.09217 42.1869 5.71147 43.2281 6.66478 43.9404C7.6181 44.6527 8.79176 44.9494 9.97019 44.781C11.1483 44.6106 12.1895 43.9914 12.9021 43.0377C13.6144 42.0844 13.913 40.9101 13.7427 39.7323C13.572 38.5542 12.953 37.513 11.9994 36.8008C11.2209 36.2194 10.2959 35.9137 9.34165 35.9137Z" fill="#17266B"/>
<path d="M10.9251 38.4256C9.47439 37.8493 9.23526 39.7024 9.23526 39.7024C9.23526 39.7024 8.48063 37.9928 7.25285 38.957C6.36608 39.6533 7.12613 41.0098 7.84287 41.6192C8.70798 42.355 9.65716 42.6183 9.65716 42.6183C9.65716 42.6183 10.4927 42.0965 11.1139 41.1457C11.6284 40.3583 11.9729 38.842 10.9251 38.4256Z" fill="white"/>
</svg>
