<svg width="60" height="60" viewBox="0 0 60 60" fill="none" xmlns="http://www.w3.org/2000/svg">
<path d="M59.9996 29.9994C59.9996 46.5683 46.5676 60 29.9996 60C13.4316 60 0 46.5683 0 29.9994C0 13.4313 13.4316 0 29.9996 0C46.5676 0 59.9996 13.4313 59.9996 29.9994Z" fill="#FFCB57"/>
<mask id="mask0_683_2221" style="mask-type:luminance" maskUnits="userSpaceOnUse" x="2" y="2" width="56" height="56">
<path d="M57.6779 30.0526C57.6779 45.3391 45.2861 57.7314 29.9994 57.7314C14.7126 57.7314 2.3208 45.3391 2.3208 30.0526C2.3208 14.7654 14.7126 2.37305 29.9994 2.37305C45.2861 2.37305 57.6779 14.7654 57.6779 30.0526Z" fill="white"/>
</mask>
<g mask="url(#mask0_683_2221)">
<path fill-rule="evenodd" clip-rule="evenodd" d="M45.9481 22.75L56.1129 38.9838L44.8867 40.8044L45.9481 22.75Z" fill="#D8A535"/>
</g>
<mask id="mask1_683_2221" style="mask-type:luminance" maskUnits="userSpaceOnUse" x="2" y="2" width="56" height="56">
<path d="M57.6779 30.0526C57.6779 45.3391 45.2861 57.7314 29.9994 57.7314C14.7126 57.7314 2.3208 45.3391 2.3208 30.0526C2.3208 14.7654 14.7126 2.37305 29.9994 2.37305C45.2861 2.37305 57.6779 14.7654 57.6779 30.0526Z" fill="white"/>
</mask>
<g mask="url(#mask1_683_2221)">
<path d="M61.0623 38.5039H-3.40674V64.8073H61.0623V38.5039Z" fill="#E74C3C"/>
</g>
<mask id="mask2_683_2221" style="mask-type:luminance" maskUnits="userSpaceOnUse" x="2" y="2" width="56" height="56">
<path d="M57.6779 30.0526C57.6779 45.3391 45.2861 57.7314 29.9994 57.7314C14.7126 57.7314 2.3208 45.3391 2.3208 30.0526C2.3208 14.7654 14.7126 2.37305 29.9994 2.37305C45.2861 2.37305 57.6779 14.7654 57.6779 30.0526Z" fill="white"/>
</mask>
<g mask="url(#mask2_683_2221)">
<path fill-rule="evenodd" clip-rule="evenodd" d="M45.513 42.043C45.513 43.8179 44.0608 45.2696 42.2863 45.2696H19.1675C17.393 45.2696 15.9404 43.8184 15.9404 42.043" fill="#C93831"/>
</g>
<mask id="mask3_683_2221" style="mask-type:luminance" maskUnits="userSpaceOnUse" x="2" y="2" width="56" height="56">
<path d="M57.6779 30.0526C57.6779 45.3391 45.2861 57.7314 29.9994 57.7314C14.7126 57.7314 2.3208 45.3391 2.3208 30.0526C2.3208 14.7654 14.7126 2.37305 29.9994 2.37305C45.2861 2.37305 57.6779 14.7654 57.6779 30.0526Z" fill="white"/>
</mask>
<g mask="url(#mask3_683_2221)">
<path fill-rule="evenodd" clip-rule="evenodd" d="M18.5113 20.5029H24.143V18.6676C24.143 17.6316 24.565 16.6909 25.2461 16.0094C25.9272 15.3287 26.8679 14.9062 27.9039 14.9062H33.5508C34.5868 14.9062 35.5274 15.3287 36.209 16.0094C36.8897 16.6909 37.3121 17.6316 37.3121 18.6676V20.5029H42.9434C44.8188 20.5029 46.3536 22.0374 46.3536 23.9136V39.7356C46.3536 41.6114 44.8188 43.1454 42.9434 43.1454H18.5113C16.6359 43.1454 15.1011 41.6114 15.1011 39.7356V23.9136C15.1011 22.0374 16.6359 20.5029 18.5113 20.5029ZM30.0566 28.043C29.3535 28.3126 27.6195 28.2274 27.3173 30.1302C26.9092 32.7083 29.5843 33.1345 30.8314 33.7312C32.5059 34.5326 31.7264 36.0105 27.2924 34.1609V36.3237C27.7144 36.4228 28.0993 36.6144 28.5762 36.7296L30.062 36.9389L30.0717 38.1484L31.4074 38.1408L31.4648 36.9136C31.6543 36.8385 32.0902 36.7841 32.3362 36.7047C34.7151 35.9303 34.7894 33.1063 32.7671 32.0639C31.7041 31.5161 29.8401 31.1486 29.8565 30.4404C29.8713 29.7884 31.1584 29.9281 31.5817 30.0058L33.3035 30.5438L34.0331 28.7034L31.4205 28.0514L31.3871 27.1998L30.0688 27.215L30.0566 28.043ZM26.7459 20.5029H34.7088V18.6676C34.7088 18.3503 34.5779 18.0608 34.3673 17.8498C34.1563 17.6396 33.8669 17.5088 33.5504 17.5088H27.9035C27.5866 17.5088 27.2966 17.6392 27.0865 17.8498C26.8755 18.0608 26.7451 18.3499 26.7451 18.6676V20.5029H26.7459Z" fill="white"/>
</g>
</svg>
