<svg width="73" height="60" viewBox="0 0 73 60" fill="none" xmlns="http://www.w3.org/2000/svg">
<path d="M71.3619 12.84L26.3829 0.0419954C26.0989 -0.0380046 25.7949 -0.00300558 25.5369 0.140994C25.2789 0.283994 25.0899 0.523995 25.0089 0.806995L12.2109 45.787C12.1309 46.07 12.1659 46.374 12.3099 46.632C12.4539 46.89 12.6929 47.079 12.9769 47.16L57.9549 59.957C58.0569 59.986 58.1599 60 58.2599 60C58.7439 60 59.1899 59.681 59.3279 59.192L72.1269 14.213C72.2959 13.623 71.9519 13.008 71.3619 12.84Z" fill="#D1D3D4"/>
<path d="M28.6491 5.59186L19.1421 39L57.0312 49.7821L66.5382 16.374L28.6491 5.59186Z" fill="#3B73A4"/>
<path d="M57.024 50.8786C56.922 50.8786 56.821 50.8636 56.719 50.8356L18.83 40.0556C18.546 39.9746 18.307 39.7846 18.162 39.5276C18.019 39.2696 17.984 38.9666 18.064 38.6826L27.57 5.27256C27.65 4.98956 27.841 4.74957 28.098 4.60557C28.355 4.46157 28.66 4.42656 28.943 4.50756L66.834 15.2876C67.424 15.4556 67.766 16.0706 67.598 16.6606L58.094 50.0706C58.012 50.3536 57.823 50.5936 57.565 50.7376C57.399 50.8306 57.212 50.8786 57.024 50.8786ZM20.508 38.2206L56.26 48.3926L65.156 17.1216L29.404 6.94957L20.508 38.2206Z" fill="#3B73A4"/>
<path opacity="0.5" d="M23.9679 4.46484L15.6699 33.6328V47.9258L35.0939 53.4529H60.9619L64.6569 40.4678V10.9319L41.9259 4.46484H23.9679Z" fill="#808285"/>
<path d="M60.0459 7.92773H13.2809C12.6679 7.92773 12.1699 8.42573 12.1699 9.03973V55.8047C12.1699 56.4177 12.6679 56.9157 13.2809 56.9157H60.0459C60.6589 56.9157 61.1569 56.4177 61.1569 55.8047V9.03973C61.1569 8.42573 60.6589 7.92773 60.0459 7.92773Z" fill="#D1D3D4"/>
<path d="M56.3311 12.6582H16.9971V47.3422H56.3311V12.6582Z" fill="#7ECFE2"/>
<path d="M54.1371 39.7834L47.7801 32.4234C47.6301 32.2494 47.4131 32.1494 47.1821 32.1494H47.1801C46.9501 32.1504 46.7311 32.2504 46.5821 32.4244L42.9471 36.6534L36.3211 25.1904C36.1751 24.9384 35.9051 24.7854 35.6111 24.7954C35.3201 24.8054 35.0571 24.9734 34.9271 25.2344L30.3801 34.4044L27.2141 29.9984C27.0621 29.7884 26.8181 29.6664 26.5591 29.6694C26.3001 29.6734 26.0601 29.8044 25.9151 30.0194L19.1301 40.1174C19.0421 40.2474 18.9961 40.4004 18.9961 40.5574V44.5704C18.9961 45.0084 19.3511 45.3614 19.7871 45.3614H53.5361C53.9741 45.3614 54.3271 45.0074 54.3271 44.5704V40.3004C54.3291 40.1104 54.2611 39.9264 54.1371 39.7834Z" fill="#3B73A4"/>
<path d="M48.0674 24.96C50.5034 24.96 52.4834 22.98 52.4834 20.544C52.4834 18.108 50.5034 16.127 48.0674 16.127C45.6324 16.127 43.6514 18.109 43.6514 20.544C43.6514 22.979 45.6324 24.96 48.0674 24.96Z" fill="#FFDB00"/>
<path d="M27.9281 46.014L6.29612 14.77C6.12812 14.528 5.87113 14.362 5.58113 14.309C5.29013 14.256 4.99113 14.321 4.74913 14.489L0.479122 17.445C-0.0258783 17.795 -0.151869 18.487 0.198131 18.992L21.8301 50.2371C21.9981 50.4791 22.2551 50.6451 22.5451 50.6981C22.6111 50.7101 22.6781 50.716 22.7441 50.716C22.9691 50.716 23.1891 50.6491 23.3771 50.5191L27.6471 47.562C28.1511 47.212 28.2781 46.519 27.9281 46.014Z" fill="#FF5A00"/>
<path d="M32.2939 56.9337L28.0479 46.2387C27.9229 45.9237 27.6609 45.6817 27.3369 45.5847C27.0119 45.4867 26.6609 45.5417 26.3819 45.7347L22.1119 48.6907C21.8329 48.8837 21.6569 49.1937 21.6349 49.5317C21.6119 49.8697 21.7449 50.1997 21.9959 50.4277L30.5119 58.1667C30.7229 58.3577 30.9899 58.4557 31.2599 58.4557C31.4809 58.4557 31.7009 58.3907 31.8929 58.2587C32.3189 57.9627 32.4849 57.4147 32.2939 56.9337Z" fill="white"/>
<path d="M30.5122 58.1662C30.7232 58.3572 30.9902 58.4552 31.2602 58.4552C31.4812 58.4552 31.7012 58.3902 31.8932 58.2582C32.3192 57.9632 32.4852 57.4142 32.2932 56.9342L30.6292 52.7422L27.2422 55.1952L30.5122 58.1662Z" fill="#414042"/>
</svg>
