<svg width="80" height="80" viewBox="0 0 80 80" fill="none" xmlns="http://www.w3.org/2000/svg">
<rect width="80" height="79.9989" rx="39.9995" fill="#FFCB57"/>
<path d="M50.0405 55.0156C50.1027 60.1395 53.6022 64.2718 57.9157 64.2718C62.2293 64.2718 65.7288 60.1395 65.7909 55.0156H50.0405Z" fill="#415A6B"/>
<path d="M68.2906 56.7924C67.872 56.1207 67.1194 55.75 66.1736 55.75C65.8635 55.75 65.5445 55.8032 65.224 55.8781V57.1556C65.5483 57.0523 65.8703 56.9856 66.1736 56.9856C66.5308 56.9856 67.0056 57.065 67.2422 57.4462C67.4849 57.8349 67.4339 58.4489 67.0999 59.1274C66.1938 60.9757 63.187 61.5927 62.057 61.762C62.0413 61.7133 62.0278 61.6519 62.0128 61.5942H60.7637C60.8783 62.2765 61.1291 62.7191 61.1501 62.7535L61.3493 63.08L61.7304 63.0471C61.9371 63.0291 66.7846 62.5768 68.2105 59.6719V59.6704C68.7347 58.601 68.7632 57.5518 68.2906 56.7924Z" fill="#415A6B"/>
<path d="M50.042 63.6133C50.0465 64.0888 51.3046 65.4473 51.3046 65.4473H64.5276C64.5276 65.4473 65.7849 64.0888 65.7902 63.6133H50.042Z" fill="#E8EAE9"/>
<path d="M55.3438 48.8477V51.7062C55.3438 51.9892 55.1169 52.2296 54.8203 52.2296C54.5372 52.2296 54.2969 51.9892 54.2969 51.7062V48.8477C54.2969 48.5504 54.5372 48.3242 54.8203 48.3242C55.1176 48.3242 55.3438 48.5504 55.3438 48.8477Z" fill="#E8EAE9"/>
<path d="M58.4395 47.1602V50.0187C58.4395 50.3017 58.2126 50.5421 57.9161 50.5421C57.633 50.5421 57.3926 50.3017 57.3926 50.0187V47.1602C57.3926 46.8629 57.633 46.6367 57.9161 46.6367C58.2126 46.6367 58.4395 46.8629 58.4395 47.1602Z" fill="#E8EAE9"/>
<path d="M61.5347 48.8477V51.7062C61.5347 51.9892 61.3078 52.2296 61.0113 52.2296C60.7282 52.2296 60.4878 51.9892 60.4878 51.7062V48.8477C60.4878 48.5504 60.7282 48.3242 61.0113 48.3242C61.3086 48.3242 61.5347 48.5504 61.5347 48.8477Z" fill="#E8EAE9"/>
<path d="M29.879 67.2472L27.0542 61.7422H18.189L15.3643 67.2472H29.879Z" fill="#344A5E"/>
<path d="M39.7164 37.0703V59.7569C39.7164 61.2269 38.5294 62.4139 37.0594 62.4139H8.18486C6.71481 62.4139 5.52783 61.2269 5.52783 59.7569V37.0711C5.52783 35.601 6.71481 34.4141 8.18486 34.4141H37.0594C38.5294 34.4133 39.7164 35.6003 39.7164 37.0703Z" fill="#415A6B"/>
<path d="M36.1735 37.9531H9.0708V55.3054H36.1735V37.9531Z" fill="#8AD7F8"/>
<path d="M23.9642 58.8881C23.9642 59.6288 23.3636 60.2294 22.623 60.2294C21.8823 60.2294 21.2817 59.6288 21.2817 58.8881C21.2817 58.1475 21.8823 57.5469 22.623 57.5469C23.3636 57.5469 23.9642 58.1475 23.9642 58.8881Z" fill="#344A5E"/>
<path d="M76.7689 70.4726H3.23117C2.55118 70.4726 2 69.9214 2 69.2414V66.4968C2 65.8168 2.55118 65.2656 3.23117 65.2656H76.7689C77.4488 65.2656 78 65.8168 78 66.4968V69.2414C78.0007 69.9207 77.4488 70.4726 76.7689 70.4726Z" fill="#F3705A"/>
<path d="M71.9272 70.4688H8.07324V79.996H71.9272V70.4688Z" fill="#F05540"/>
<path d="M70.1395 26.2433C69.7943 19.7835 64.4623 14.6484 57.9171 14.6484C51.3711 14.6484 46.0398 19.7843 45.6938 26.2433H70.1395Z" fill="#415A6B"/>
<path d="M53.3257 26.2422C53.4552 28.6686 55.4577 30.5977 57.9163 30.5977C60.3749 30.5977 62.3774 28.6686 62.5069 26.2422H53.3257Z" fill="#FFD15C"/>
<path d="M59.5238 4H56.3096V16.385H59.5238V4Z" fill="#415A6B"/>
<path d="M58.5489 32.993V34.5447C58.5489 34.893 58.2635 35.1775 57.9153 35.1775C57.5671 35.1775 57.2817 34.893 57.2817 34.5447V32.993C57.2817 32.6283 57.5663 32.3438 57.9153 32.3438C58.2643 32.3438 58.5489 32.6283 58.5489 32.993Z" fill="#FFD15C"/>
<path d="M61.9561 31.7402L62.7319 33.0837C62.9057 33.3855 62.8016 33.7749 62.4998 33.9486C62.198 34.1224 61.8093 34.0183 61.6348 33.7165L60.8589 32.373C60.677 32.0577 60.7811 31.6683 61.0829 31.4938C61.3847 31.32 61.7741 31.4241 61.9561 31.7402Z" fill="#FFD15C"/>
<path d="M64.2801 28.9493L65.6236 29.7251C65.9254 29.8989 66.0294 30.2883 65.8549 30.5901C65.6804 30.8919 65.2918 30.996 64.99 30.8222L63.6465 30.0464C63.3312 29.8644 63.2264 29.475 63.4009 29.1732C63.5746 28.8714 63.964 28.7673 64.2801 28.9493Z" fill="#FFD15C"/>
<path d="M52.1855 30.0464L50.842 30.8222C50.5402 30.996 50.1508 30.8919 49.977 30.5901C49.8025 30.2883 49.9074 29.8989 50.2092 29.7251L51.5527 28.9493C51.868 28.7673 52.2574 28.8714 52.4318 29.1732C52.6048 29.475 52.5008 29.8644 52.1855 30.0464Z" fill="#FFD15C"/>
<path d="M54.9732 32.3733L54.1974 33.7168C54.0229 34.0186 53.6334 34.1227 53.3324 33.9482C53.0306 33.7745 52.9265 33.3851 53.1002 33.0833L53.8761 31.7398C54.0581 31.4245 54.4475 31.3196 54.7493 31.4941C55.0511 31.6686 55.1552 32.058 54.9732 32.3733Z" fill="#FFD15C"/>
</svg>
