<svg width="60" height="60" viewBox="0 0 60 60" fill="none" xmlns="http://www.w3.org/2000/svg">
<path d="M30.0014 2.625C14.8823 2.625 2.62598 14.8813 2.62598 30.0005C2.62598 45.1196 14.8823 57.3759 30.0014 57.3759C45.1205 57.3759 57.3769 45.1196 57.3769 30.0005C57.3769 14.8813 45.1205 2.625 30.0014 2.625ZM30.0014 51.2139C18.2857 51.2139 8.78802 41.7162 8.78802 30.0005C8.78802 18.2847 18.2857 8.78705 30.0014 8.78705C41.7172 8.78705 51.2148 18.2847 51.2148 30.0005C51.2148 41.7162 41.7172 51.2139 30.0014 51.2139Z" fill="#506C82"/>
<path d="M45 45C53.2843 36.7157 53.2843 23.2843 45 15C36.7157 6.71572 23.2843 6.71573 15 15C6.71573 23.2843 6.71573 36.7157 15 45C23.2843 53.2843 36.7157 53.2843 45 45Z" fill="#FFFFFA"/>
<path d="M30.8691 10.1699H29.1343V15.4421H30.8691V10.1699Z" fill="#506C82"/>
<path d="M30.8691 44.5605H29.1343V49.8327H30.8691V44.5605Z" fill="#506C82"/>
<path d="M20.8329 12.3885L19.3306 13.2559L21.9666 17.8216L23.469 16.9542L20.8329 12.3885Z" fill="#506C82"/>
<path d="M38.0277 42.1658L36.5254 43.0332L39.1615 47.5989L40.6638 46.7315L38.0277 42.1658Z" fill="#506C82"/>
<path d="M13.2595 19.3355L12.3921 20.8379L16.9578 23.474L17.8252 21.9716L13.2595 19.3355Z" fill="#506C82"/>
<path d="M43.0417 36.5309L42.1743 38.0332L46.74 40.6693L47.6074 39.167L43.0417 36.5309Z" fill="#506C82"/>
<path d="M10.1699 29.1321V30.8672H15.4421V29.1321H10.1699Z" fill="#506C82"/>
<path d="M44.5596 29.1301V30.8652H49.8317V29.1301H44.5596Z" fill="#506C82"/>
<path d="M12.3929 39.1656L13.2603 40.668L17.8259 38.0319L16.9585 36.5295L12.3929 39.1656Z" fill="#506C82"/>
<path d="M42.1746 21.9723L43.042 23.4746L47.6077 20.8385L46.7403 19.3362L42.1746 21.9723Z" fill="#506C82"/>
<path d="M19.3395 46.742L20.8418 47.6094L23.4779 43.0437L21.9755 42.1763L19.3395 46.742Z" fill="#506C82"/>
<path d="M36.5328 16.9607L38.0352 17.8281L40.6712 13.2624L39.1689 12.395L36.5328 16.9607Z" fill="#506C82"/>
<path d="M32.6492 31.0932C33.2542 29.6328 32.5606 27.9585 31.1002 27.3535C29.6398 26.7486 27.9654 27.4421 27.3605 28.9025C26.7555 30.363 27.4491 32.0373 28.9095 32.6422C30.3699 33.2472 32.0443 32.5537 32.6492 31.0932Z" fill="#506C82"/>
<path d="M31.2199 30.0001C31.2199 29.3271 30.6741 28.7812 30.0011 28.7812C29.328 28.7812 28.7822 29.3271 28.7822 30.0001C28.7822 30.6731 29.328 31.219 30.0011 31.219C30.6741 31.219 31.2199 30.6731 31.2199 30.0001Z" fill="#FFFFFA"/>
<path d="M27.49 29.7207L21.3388 33.141C20.614 33.5439 20.3509 34.4668 20.7538 35.1915C21.1567 35.9163 22.0796 36.1797 22.8044 35.7765L28.9556 32.3562L27.49 29.7207Z" fill="#506C82"/>
<path d="M31.22 27.8965L26.888 12.8673C26.6582 12.0705 25.8185 11.6066 25.0216 11.8361C24.2248 12.0658 23.7609 12.9055 23.9904 13.7024L28.3224 28.7316L31.22 27.8965Z" fill="#506C82"/>
<path d="M29.7218 29.4922L29.4446 29.7562C29.3368 29.8587 29.3325 30.0312 29.435 30.139L38.4956 39.6561C38.5982 39.7639 38.7707 39.7682 38.8785 39.6656L39.1557 39.4017C39.2635 39.2991 39.2678 39.1266 39.1653 39.0188L30.1047 29.5017C30.0018 29.3939 29.8296 29.3896 29.7218 29.4922Z" fill="#F77732"/>
</svg>
