<svg width="58" height="60" viewBox="0 0 58 60" fill="none" xmlns="http://www.w3.org/2000/svg">
<path d="M0.566965 40.6589V43.1804H4.65698V40.6589C4.65698 35.3852 4.84026 30.114 5.11872 24.848C5.1873 23.5491 5.22454 22.1746 5.22454 20.7521C5.22454 11.5061 4.75453 8.148 4.04271 6.92773H1.18124C0.470007 8.148 0 11.5061 0 20.7521C0 22.1746 0.037238 23.5491 0.105819 24.848C0.38428 30.114 0.566965 35.3852 0.566965 40.6589Z" fill="#415A6B"/>
<path d="M4.65455 43.1777V43.9682C4.65455 47.8418 3.96578 51.6705 2.61072 55.2959C1.25566 51.6705 0.566895 47.8418 0.566895 43.9682V43.1777H4.65455Z" fill="#415A6B"/>
<path d="M0.56676 43.9695C0.56676 44.9912 0.618196 46.0098 0.714563 47.0232H4.50957C4.60534 46.0092 4.65678 44.9906 4.65678 43.9695C4.65678 43.9695 4.66861 39.1435 4.6757 38.3867H0.547852C0.554946 39.1435 0.56676 43.9695 0.56676 43.9695Z" fill="#F3705A"/>
<path d="M3.69671 5.78292V6.92455H1.52637V5.78292C1.52637 5.18284 2.01233 4.69922 2.61301 4.69922C3.21013 4.69981 3.69671 5.18284 3.69671 5.78292Z" fill="#F3705A"/>
<path d="M5.15894 15.5205C4.59552 14.5539 3.66613 13.9231 2.61318 13.9231C1.56377 13.9231 0.630836 14.5509 0.0644531 15.5176C0.104656 14.0738 0.163184 12.8553 0.240042 11.8272C0.676949 11.1934 1.09258 10.5342 1.38523 9.82003C1.65305 9.16437 2.10237 8.73633 2.61318 8.73633C3.12399 8.73633 3.57331 9.16437 3.84113 9.82003C4.13023 10.5342 4.54586 11.1899 4.98336 11.8272C5.06021 12.8553 5.11874 14.0768 5.15894 15.5205Z" fill="#F3705A"/>
<path d="M2.61135 27.2685C3.21083 27.2685 3.69681 23.3949 3.69681 18.6167C3.69681 13.8384 3.21083 9.96484 2.61135 9.96484C2.01186 9.96484 1.52588 13.8384 1.52588 18.6167C1.52588 23.3949 2.01186 27.2685 2.61135 27.2685Z" fill="#F3705A"/>
<path d="M57.8101 10.5154L49.7353 56.8784C49.3776 58.9317 47.4313 60.3009 45.378 59.9432L10.3462 53.8419C8.29295 53.4842 6.9237 51.5379 7.28139 49.4846L15.3562 3.12164C15.7139 1.06835 17.6601 -0.300905 19.7134 0.0567791L54.7452 6.15811C56.7985 6.5158 58.1678 8.46207 57.8101 10.5154Z" fill="#CED6E0"/>
<path d="M50.6758 2.69531H21.6584L10.9971 13.3567V53.8862C10.9971 55.7745 12.5212 57.2987 14.4096 57.2987H50.6752C52.5523 57.2987 54.0877 55.7739 54.0877 53.8862V6.1078C54.0883 4.21946 52.5529 2.69531 50.6758 2.69531Z" fill="#E8EAE9"/>
<path d="M48.9893 49.0977H16.0918V51.1982H48.9893V49.0977Z" fill="#ADB3BA"/>
<path d="M48.9888 43.7832H16.0913V45.8838H48.9888V43.7832Z" fill="#ADB3BA"/>
<path d="M36.9084 38.4707H16.0918V40.5713H36.9084V38.4707Z" fill="#ADB3BA"/>
<path d="M42.5204 27.9092C41.9658 27.9092 41.5165 27.4604 41.5165 26.9053V15.1023H23.562V26.9053C23.562 27.4598 23.1132 27.9092 22.5581 27.9092C22.0035 27.9092 21.5542 27.4604 21.5542 26.9053V14.099C21.5542 13.5444 22.0029 13.0957 22.5581 13.0957H42.5198C43.0744 13.0957 43.5231 13.5444 43.5231 14.099V26.9053C43.5237 27.4604 43.075 27.9092 42.5204 27.9092Z" fill="#415A6B"/>
<path d="M27.57 22.8047H17.5483V32.8264H27.57V22.8047Z" fill="#F3705A"/>
<path d="M47.5319 22.8047H37.5103V32.8264H47.5319V22.8047Z" fill="#66C6B9"/>
<path d="M37.551 9.08984H27.5293V19.1115H37.551V9.08984Z" fill="#FFD15C"/>
<path d="M17.8705 13.3567C19.9664 13.3567 21.6584 11.6646 21.6584 9.56877V2.69531L10.9971 13.3567H17.8705Z" fill="#ADB3BA"/>
</svg>
