<svg width="80" height="80" viewBox="0 0 80 80" fill="none" xmlns="http://www.w3.org/2000/svg">
<g clip-path="url(#clip0_704_4437)">
<rect width="80" height="79.9989" rx="39.9995" fill="#FFCB57"/>
<path d="M70.5919 25.1328H8.42277C7.23868 25.1328 6.27881 26.1164 6.27881 27.3298V62.2023V70.2944H72.7359V62.2023V27.3298C72.7359 26.1165 71.776 25.1328 70.5919 25.1328Z" fill="#1A1A1A"/>
<path opacity="0.2" d="M70.5919 25.1328H49.4016C48.8955 27.0562 48.624 29.0782 48.624 31.1654C48.624 43.9345 58.7256 54.2859 71.1865 54.2859C71.7074 54.2859 72.2237 54.2662 72.7358 54.2306V27.3298C72.7359 26.1165 71.776 25.1328 70.5919 25.1328Z" fill="url(#paint0_linear_704_4437)"/>
<path d="M9.64502 64.3978V67.225H69.3699V64.3978V28.1992H9.64502V64.3978Z" fill="url(#paint1_linear_704_4437)"/>
<path opacity="0.1" d="M67.0213 64.0766H23.6394C23.3359 64.0766 23.0898 63.8306 23.0898 63.5271V31.8933C23.0898 31.5898 23.3359 31.3438 23.6394 31.3438H67.0213C67.3248 31.3438 67.5708 31.5898 67.5708 31.8933V63.5271C67.5708 63.8306 67.3248 64.0766 67.0213 64.0766Z" fill="white"/>
<mask id="mask0_704_4437" style="mask-type:luminance" maskUnits="userSpaceOnUse" x="36" y="39" width="18" height="18">
<path d="M45.3283 56.1551C49.9425 56.1551 53.683 52.3743 53.683 47.7104C53.683 43.0465 49.9425 39.2656 45.3283 39.2656C40.7141 39.2656 36.9736 43.0465 36.9736 47.7104C36.9736 52.3743 40.7141 56.1551 45.3283 56.1551Z" fill="white"/>
</mask>
<g mask="url(#mask0_704_4437)">
<path opacity="0.3" d="M53.7921 39.0312H36.8652V56.3951H53.7921V39.0312Z" fill="white"/>
<mask id="mask1_704_4437" style="mask-type:luminance" maskUnits="userSpaceOnUse" x="38" y="40" width="15" height="17">
<path d="M52.6212 40.707H38.0376V56.3966H52.6212V40.707Z" fill="white"/>
</mask>
<g mask="url(#mask1_704_4437)">
<path d="M48.1467 47.2582C48.0294 47.918 48.2355 48.5139 48.6071 48.589C48.9787 48.664 49.3749 48.1899 49.4923 47.53C49.6096 46.8701 49.4035 46.2743 49.0319 46.1992C48.6603 46.1242 48.264 46.5983 48.1467 47.2582Z" fill="url(#paint2_linear_704_4437)"/>
<path d="M42.3975 47.2582C42.5148 47.918 42.3087 48.5139 41.9371 48.589C41.5656 48.664 41.1693 48.1899 41.052 47.53C40.9347 46.8701 41.1408 46.2743 41.5124 46.1992C41.8839 46.1242 42.2802 46.5983 42.3975 47.2582Z" fill="url(#paint3_linear_704_4437)"/>
<path d="M46.9633 50.6475C47.0028 51.1751 47.1601 53.3779 47.1601 53.3779L43.3838 53.6418C43.3838 53.6418 43.6549 51.5568 43.7075 50.7015C43.7445 50.0999 46.9182 50.0466 46.9633 50.6475Z" fill="url(#paint4_linear_704_4437)"/>
<path d="M50.0727 53.8086C50.152 53.9612 50.191 54.1253 50.1819 54.3007C50.0854 56.1779 50.1534 58.0652 50.2693 59.8384C50.7495 60.2334 51.4171 60.8279 52.424 61.7803C53.3708 62.6759 50.4148 66.8965 48.3665 67.1015C48.1432 67.1238 48.2875 67.4174 48.3334 67.5018C48.4792 67.7701 48.6855 68.3634 48.8359 68.692C48.878 68.7841 48.9612 68.8269 49.0399 68.7973C52.9742 67.317 54.6726 66.2051 55.4174 62.8264C56.0003 60.1818 51.5063 55.6913 50.0727 53.8086Z" fill="url(#paint5_linear_704_4437)"/>
<path d="M40.5865 53.8086C40.5072 53.9612 40.4682 54.1253 40.4772 54.3007C40.5738 56.1779 40.5058 58.0652 40.3899 59.8384C39.9097 60.2334 39.242 60.8279 38.2352 61.7803C37.2884 62.6759 40.2444 66.8965 42.2927 67.1015C42.5159 67.1238 42.3717 67.4174 42.3258 67.5018C42.18 67.7701 41.9737 68.3634 41.8233 68.692C41.7811 68.7841 41.698 68.8269 41.6193 68.7973C37.6849 67.317 35.9866 66.2051 35.2418 62.8264C34.6589 60.1818 39.1529 55.6913 40.5865 53.8086Z" fill="url(#paint6_linear_704_4437)"/>
<path d="M45.272 52.3467C47.3614 52.3467 49.0552 50.1005 49.0552 47.3296C49.0552 44.5587 47.3614 42.3125 45.272 42.3125C43.1826 42.3125 41.4888 44.5587 41.4888 47.3296C41.4888 50.1005 43.1826 52.3467 45.272 52.3467Z" fill="url(#paint7_linear_704_4437)"/>
<path d="M50.3414 54.4223C50.3309 53.2488 47.8337 52.6335 45.3299 52.6912C42.826 52.6335 40.3289 53.2488 40.3183 54.4223C40.2535 61.6572 37.2881 68.8904 39.8301 69.3518C41.3557 69.6286 43.3872 69.741 45.3299 69.7674C47.2726 69.741 49.3041 69.6286 50.8296 69.3518C53.3716 68.8904 50.4063 61.6572 50.3414 54.4223Z" fill="url(#paint8_linear_704_4437)"/>
<path d="M49.0502 44.7615C49.1152 43.8183 48.3904 42.9533 47.9971 42.5506C47.0025 41.5321 45.8471 41.1048 44.7431 41.4582C43.832 41.7499 43.5099 42.6146 42.6999 42.8085C41.9948 42.9773 41.3836 42.3618 40.8107 42.7664C40.1919 43.2035 40.2778 44.3188 40.6766 44.9375C41.132 45.644 41.3855 46.0214 42.3481 46.075C43.5145 46.14 45.1607 44.7807 46.2361 44.8795C46.8265 44.9337 48.9614 46.0492 49.0502 44.7615Z" fill="url(#paint9_linear_704_4437)"/>
</g>
</g>
<path opacity="0.1" d="M21.7107 38.6958H11.8309C11.6188 38.6958 11.4468 38.5238 11.4468 38.3117V31.2943C11.4468 31.0822 11.6188 30.9102 11.8309 30.9102H21.7107C21.9229 30.9102 22.0948 31.0821 22.0948 31.2943V38.3116C22.0948 38.5238 21.9229 38.6958 21.7107 38.6958Z" fill="white"/>
<mask id="mask2_704_4437" style="mask-type:luminance" maskUnits="userSpaceOnUse" x="14" y="32" width="5" height="5">
<path d="M16.7709 36.8102C17.8683 36.8102 18.758 35.9109 18.758 34.8016C18.758 33.6922 17.8683 32.793 16.7709 32.793C15.6734 32.793 14.7837 33.6922 14.7837 34.8016C14.7837 35.9109 15.6734 36.8102 16.7709 36.8102Z" fill="white"/>
</mask>
<g mask="url(#mask2_704_4437)">
<path opacity="0.3" d="M18.7839 32.7383H14.7578V36.8683H18.7839V32.7383Z" fill="white"/>
<mask id="mask3_704_4437" style="mask-type:luminance" maskUnits="userSpaceOnUse" x="15" y="33" width="4" height="4">
<path d="M18.5064 33.1445H15.0376V36.8763H18.5064V33.1445Z" fill="white"/>
</mask>
<g mask="url(#mask3_704_4437)">
<path d="M17.4409 34.703C17.413 34.8599 17.462 35.0016 17.5504 35.0195C17.6388 35.0374 17.7331 34.9246 17.7609 34.7676C17.7888 34.6107 17.7398 34.4689 17.6515 34.4511C17.5631 34.4332 17.4688 34.546 17.4409 34.703Z" fill="url(#paint10_linear_704_4437)"/>
<path d="M16.0734 34.703C16.1013 34.8599 16.0523 35.0016 15.964 35.0195C15.8756 35.0374 15.7813 34.9246 15.7534 34.7676C15.7255 34.6107 15.7746 34.4689 15.8629 34.4511C15.9513 34.4332 16.0455 34.546 16.0734 34.703Z" fill="url(#paint11_linear_704_4437)"/>
<path d="M17.1595 35.5073C17.1689 35.6328 17.2063 36.1567 17.2063 36.1567L16.3081 36.2195C16.3081 36.2195 16.3726 35.7236 16.3851 35.5201C16.3939 35.377 17.1487 35.3644 17.1595 35.5073Z" fill="url(#paint12_linear_704_4437)"/>
<path d="M17.8986 36.2539C17.9174 36.2902 17.9267 36.3292 17.9245 36.3709C17.9016 36.8174 17.9178 37.2663 17.9453 37.6881C18.0595 37.7821 18.2183 37.9235 18.4578 38.15C18.683 38.363 17.98 39.3669 17.4927 39.4156C17.4396 39.4209 17.4739 39.4908 17.4849 39.5108C17.5196 39.5746 17.5686 39.7157 17.6044 39.7939C17.6144 39.8158 17.6342 39.826 17.6529 39.8189C18.5887 39.4668 18.9927 39.2024 19.1698 38.3988C19.3084 37.7698 18.2395 36.7017 17.8986 36.2539Z" fill="url(#paint13_linear_704_4437)"/>
<path d="M15.6425 36.2539C15.6236 36.2902 15.6143 36.3292 15.6165 36.3709C15.6395 36.8174 15.6233 37.2663 15.5957 37.6881C15.4815 37.7821 15.3227 37.9235 15.0832 38.15C14.858 38.363 15.5611 39.3669 16.0483 39.4156C16.1014 39.4209 16.0671 39.4908 16.0562 39.5108C16.0215 39.5746 15.9724 39.7157 15.9366 39.7939C15.9266 39.8158 15.9068 39.826 15.8881 39.8189C14.9523 39.4668 14.5484 39.2024 14.3712 38.3988C14.2326 37.7698 15.3015 36.7017 15.6425 36.2539Z" fill="url(#paint14_linear_704_4437)"/>
<path d="M16.7568 35.9101C17.2538 35.9101 17.6566 35.3758 17.6566 34.7168C17.6566 34.0577 17.2538 33.5234 16.7568 33.5234C16.2598 33.5234 15.8569 34.0577 15.8569 34.7168C15.8569 35.3758 16.2598 35.9101 16.7568 35.9101Z" fill="url(#paint15_linear_704_4437)"/>
<path d="M17.9629 36.4048C17.9604 36.1257 17.3664 35.9793 16.7709 35.9931C16.1753 35.9793 15.5814 36.1257 15.5789 36.4048C15.5634 38.1257 14.8581 39.8461 15.4627 39.9558C15.8256 40.0217 16.3088 40.0484 16.7708 40.0547C17.2329 40.0484 17.7161 40.0217 18.079 39.9558C18.6836 39.8461 17.9783 38.1257 17.9629 36.4048Z" fill="url(#paint16_linear_704_4437)"/>
<path d="M17.6559 34.1C17.6714 33.8756 17.499 33.6699 17.4054 33.5741C17.1688 33.3318 16.894 33.2302 16.6314 33.3142C16.4147 33.3836 16.3381 33.5893 16.1454 33.6354C15.9777 33.6755 15.8324 33.5292 15.6961 33.6254C15.5489 33.7293 15.5694 33.9946 15.6642 34.1417C15.7726 34.3098 15.8328 34.3996 16.0618 34.4123C16.3392 34.4278 16.7308 34.1045 16.9865 34.1279C17.127 34.1409 17.6348 34.4062 17.6559 34.1Z" fill="url(#paint17_linear_704_4437)"/>
</g>
</g>
<path opacity="0.1" d="M21.7107 55.8988H11.8309C11.6188 55.8988 11.4468 55.7269 11.4468 55.5147V48.4974C11.4468 48.2853 11.6188 48.1133 11.8309 48.1133H21.7107C21.9229 48.1133 22.0948 48.2853 22.0948 48.4974V55.5147C22.0948 55.7269 21.9229 55.8988 21.7107 55.8988Z" fill="white"/>
<mask id="mask4_704_4437" style="mask-type:luminance" maskUnits="userSpaceOnUse" x="14" y="50" width="5" height="5">
<path d="M16.7704 54.0211C17.8679 54.0211 18.7575 53.1218 18.7575 52.0125C18.7575 50.9032 17.8679 50.0039 16.7704 50.0039C15.6729 50.0039 14.7832 50.9032 14.7832 52.0125C14.7832 53.1218 15.6729 54.0211 16.7704 54.0211Z" fill="white"/>
</mask>
<g mask="url(#mask4_704_4437)">
<path opacity="0.3" d="M18.7839 49.9453H14.7578V54.0753H18.7839V49.9453Z" fill="white"/>
<mask id="mask5_704_4437" style="mask-type:luminance" maskUnits="userSpaceOnUse" x="15" y="50" width="4" height="5">
<path d="M18.5059 50.3203H15.0371V54.0521H18.5059V50.3203Z" fill="white"/>
</mask>
<g mask="url(#mask5_704_4437)">
<path d="M17.44 51.8787C17.4121 52.0357 17.4611 52.1774 17.5494 52.1953C17.6378 52.2131 17.7321 52.1004 17.76 51.9434C17.7879 51.7864 17.7389 51.6447 17.6505 51.6269C17.5621 51.609 17.4679 51.7218 17.44 51.8787Z" fill="url(#paint18_linear_704_4437)"/>
<path d="M16.0725 51.8787C16.1004 52.0357 16.0514 52.1774 15.963 52.1953C15.8746 52.2131 15.7804 52.1004 15.7525 51.9434C15.7246 51.7864 15.7736 51.6447 15.8619 51.6269C15.9504 51.609 16.0446 51.7218 16.0725 51.8787Z" fill="url(#paint19_linear_704_4437)"/>
<path d="M17.1585 52.687C17.1679 52.8125 17.2053 53.3364 17.2053 53.3364L16.3071 53.3992C16.3071 53.3992 16.3716 52.9033 16.3841 52.6998C16.3929 52.5567 17.1478 52.544 17.1585 52.687Z" fill="url(#paint20_linear_704_4437)"/>
<path d="M17.8981 53.4375C17.9169 53.4738 17.9262 53.5128 17.924 53.5546C17.9011 54.0011 17.9172 54.45 17.9448 54.8717C18.059 54.9657 18.2178 55.1071 18.4573 55.3336C18.6825 55.5466 17.9795 56.5505 17.4923 56.5993C17.4391 56.6046 17.4735 56.6744 17.4844 56.6945C17.5191 56.7583 17.5681 56.8994 17.6039 56.9776C17.6139 56.9995 17.6337 57.0096 17.6524 57.0026C18.5882 56.6505 18.9922 56.386 19.1693 55.5824C19.308 54.9534 18.2391 53.8853 17.8981 53.4375Z" fill="url(#paint21_linear_704_4437)"/>
<path d="M15.642 53.4375C15.6231 53.4738 15.6139 53.5128 15.616 53.5546C15.639 54.0011 15.6228 54.45 15.5952 54.8717C15.481 54.9657 15.3222 55.1071 15.0827 55.3336C14.8575 55.5466 15.5606 56.5505 16.0478 56.5993C16.1009 56.6046 16.0666 56.6744 16.0557 56.6945C16.021 56.7583 15.9719 56.8994 15.9362 56.9776C15.9261 56.9995 15.9063 57.0096 15.8876 57.0026C14.9518 56.6505 14.5479 56.386 14.3707 55.5824C14.2321 54.9534 15.301 53.8853 15.642 53.4375Z" fill="url(#paint22_linear_704_4437)"/>
<path d="M16.7573 53.0898C17.2543 53.0898 17.6571 52.5555 17.6571 51.8964C17.6571 51.2374 17.2543 50.7031 16.7573 50.7031C16.2603 50.7031 15.8574 51.2374 15.8574 51.8964C15.8574 52.5555 16.2603 53.0898 16.7573 53.0898Z" fill="url(#paint23_linear_704_4437)"/>
<path d="M17.9619 53.5845C17.9594 53.3054 17.3655 53.159 16.7699 53.1728C16.1743 53.159 15.5804 53.3054 15.5779 53.5845C15.5625 55.3054 14.8571 57.0258 15.4617 57.1355C15.8246 57.2014 16.3078 57.2281 16.7699 57.2344C17.232 57.2281 17.7152 57.2014 18.078 57.1355C18.6827 57.0258 17.9773 55.3054 17.9619 53.5845Z" fill="url(#paint24_linear_704_4437)"/>
<path d="M17.6564 51.2836C17.6719 51.0592 17.4995 50.8535 17.4059 50.7577C17.1693 50.5154 16.8945 50.4138 16.6319 50.4978C16.4152 50.5672 16.3386 50.7729 16.1459 50.819C15.9782 50.8591 15.8329 50.7127 15.6966 50.809C15.5494 50.9129 15.5699 51.1782 15.6647 51.3253C15.7731 51.4934 15.8333 51.5832 16.0623 51.5959C16.3397 51.6114 16.7313 51.2881 16.987 51.3115C17.1275 51.3245 17.6353 51.5898 17.6564 51.2836Z" fill="url(#paint25_linear_704_4437)"/>
</g>
</g>
<path opacity="0.1" d="M21.7107 47.2973H11.8309C11.6188 47.2973 11.4468 47.1253 11.4468 46.9132V39.8959C11.4468 39.6837 11.6188 39.5117 11.8309 39.5117H21.7107C21.9229 39.5117 22.0948 39.6837 22.0948 39.8959V46.9132C22.0948 47.1253 21.9229 47.2973 21.7107 47.2973Z" fill="white"/>
<mask id="mask6_704_4437" style="mask-type:luminance" maskUnits="userSpaceOnUse" x="14" y="41" width="5" height="5">
<path d="M16.7709 45.4274C17.8683 45.4274 18.758 44.5281 18.758 43.4188C18.758 42.3094 17.8683 41.4102 16.7709 41.4102C15.6734 41.4102 14.7837 42.3094 14.7837 43.4188C14.7837 44.5281 15.6734 45.4274 16.7709 45.4274Z" fill="white"/>
</mask>
<g mask="url(#mask6_704_4437)">
<path opacity="0.3" d="M18.7844 41.3555H14.7583V45.4855H18.7844V41.3555Z" fill="white"/>
<mask id="mask7_704_4437" style="mask-type:luminance" maskUnits="userSpaceOnUse" x="15" y="41" width="4" height="5">
<path d="M18.5059 41.7539H15.0371V45.4857H18.5059V41.7539Z" fill="white"/>
</mask>
<g mask="url(#mask7_704_4437)">
<path d="M17.4409 43.3123C17.413 43.4693 17.462 43.611 17.5504 43.6289C17.6388 43.6467 17.733 43.534 17.761 43.377C17.7889 43.22 17.7398 43.0783 17.6515 43.0604C17.5631 43.0426 17.4688 43.1554 17.4409 43.3123Z" fill="url(#paint26_linear_704_4437)"/>
<path d="M16.0735 43.3123C16.1014 43.4693 16.0524 43.611 15.964 43.6289C15.8756 43.6467 15.7814 43.534 15.7534 43.377C15.7255 43.22 15.7746 43.0783 15.863 43.0604C15.9514 43.0426 16.0456 43.1554 16.0735 43.3123Z" fill="url(#paint27_linear_704_4437)"/>
<path d="M17.159 44.1206C17.1685 44.246 17.2058 44.77 17.2058 44.77L16.3076 44.8328C16.3076 44.8328 16.3721 44.3369 16.3846 44.1334C16.3934 43.9903 17.1483 43.9777 17.159 44.1206Z" fill="url(#paint28_linear_704_4437)"/>
<path d="M17.8981 44.8711C17.9169 44.9074 17.9262 44.9464 17.924 44.9882C17.9011 45.4347 17.9172 45.8836 17.9448 46.3053C18.059 46.3993 18.2178 46.5407 18.4573 46.7672C18.6825 46.9802 17.9794 47.9841 17.4923 48.0328C17.4391 48.0381 17.4735 48.108 17.4844 48.1281C17.5191 48.1919 17.5681 48.333 17.6039 48.4111C17.6139 48.433 17.6337 48.4432 17.6524 48.4362C18.5882 48.0841 18.9922 47.8196 19.1693 47.016C19.308 46.387 18.2391 45.3189 17.8981 44.8711Z" fill="url(#paint29_linear_704_4437)"/>
<path d="M15.6425 44.8711C15.6236 44.9074 15.6143 44.9464 15.6165 44.9882C15.6395 45.4347 15.6233 45.8836 15.5957 46.3053C15.4815 46.3993 15.3227 46.5407 15.0832 46.7672C14.858 46.9802 15.5611 47.9841 16.0483 48.0328C16.1014 48.0381 16.0671 48.108 16.0562 48.1281C16.0215 48.1919 15.9724 48.333 15.9366 48.4111C15.9266 48.433 15.9068 48.4432 15.8881 48.4362C14.9523 48.0841 14.5484 47.8196 14.3712 47.016C14.2326 46.387 15.3015 45.3189 15.6425 44.8711Z" fill="url(#paint30_linear_704_4437)"/>
<path d="M16.7568 44.5234C17.2538 44.5234 17.6566 43.9891 17.6566 43.33C17.6566 42.671 17.2538 42.1367 16.7568 42.1367C16.2598 42.1367 15.8569 42.671 15.8569 43.33C15.8569 43.9891 16.2598 44.5234 16.7568 44.5234Z" fill="url(#paint31_linear_704_4437)"/>
<path d="M17.9624 45.0181C17.9599 44.739 17.3659 44.5926 16.7704 44.6064C16.1748 44.5926 15.5809 44.739 15.5784 45.0181C15.563 46.7389 14.8576 48.4594 15.4622 48.5691C15.8251 48.635 16.3083 48.6617 16.7704 48.668C17.2325 48.6617 17.7156 48.6349 18.0785 48.5691C18.6831 48.4594 17.9778 46.739 17.9624 45.0181Z" fill="url(#paint32_linear_704_4437)"/>
<path d="M17.6559 42.725C17.6714 42.5006 17.499 42.2949 17.4054 42.1991C17.1688 41.9568 16.894 41.8552 16.6314 41.9392C16.4147 42.0086 16.3381 42.2143 16.1454 42.2604C15.9777 42.3005 15.8324 42.1542 15.6961 42.2504C15.5489 42.3543 15.5694 42.6196 15.6642 42.7667C15.7726 42.9348 15.8328 43.0246 16.0618 43.0373C16.3392 43.0528 16.7308 42.7295 16.9865 42.7529C17.127 42.7659 17.6348 43.0312 17.6559 42.725Z" fill="url(#paint33_linear_704_4437)"/>
</g>
</g>
<path opacity="0.1" d="M21.7107 64.4964H11.8309C11.6188 64.4964 11.4468 64.3245 11.4468 64.1123V57.095C11.4468 56.8829 11.6188 56.7109 11.8309 56.7109H21.7107C21.9228 56.7109 22.0948 56.8829 22.0948 57.095V64.1123C22.0948 64.3245 21.9229 64.4964 21.7107 64.4964Z" fill="white"/>
<mask id="mask8_704_4437" style="mask-type:luminance" maskUnits="userSpaceOnUse" x="14" y="58" width="5" height="5">
<path d="M16.7709 62.6227C17.8683 62.6227 18.758 61.7234 18.758 60.6141C18.758 59.5047 17.8683 58.6055 16.7709 58.6055C15.6734 58.6055 14.7837 59.5047 14.7837 60.6141C14.7837 61.7234 15.6734 62.6227 16.7709 62.6227Z" fill="white"/>
</mask>
<g mask="url(#mask8_704_4437)">
<path opacity="0.3" d="M18.7834 58.5508H14.7573V62.6808H18.7834V58.5508Z" fill="white"/>
<mask id="mask9_704_4437" style="mask-type:luminance" maskUnits="userSpaceOnUse" x="15" y="58" width="4" height="5">
<path d="M18.5049 58.9492H15.0361V62.681H18.5049V58.9492Z" fill="white"/>
</mask>
<g mask="url(#mask9_704_4437)">
<path d="M17.4404 60.5115C17.4126 60.6685 17.4615 60.8102 17.5499 60.8281C17.6383 60.8459 17.7326 60.7332 17.7605 60.5762C17.7884 60.4192 17.7394 60.2775 17.651 60.2597C17.5626 60.2418 17.4683 60.3546 17.4404 60.5115Z" fill="url(#paint34_linear_704_4437)"/>
<path d="M16.073 60.5115C16.1009 60.6685 16.0519 60.8102 15.9635 60.8281C15.8751 60.8459 15.7809 60.7332 15.7529 60.5762C15.725 60.4192 15.7741 60.2775 15.8625 60.2597C15.9509 60.2418 16.0451 60.3546 16.073 60.5115Z" fill="url(#paint35_linear_704_4437)"/>
<path d="M17.1586 61.3159C17.168 61.4414 17.2053 61.9653 17.2053 61.9653L16.3071 62.0281C16.3071 62.0281 16.3716 61.5322 16.3841 61.3288C16.3929 61.1857 17.1478 61.1729 17.1586 61.3159Z" fill="url(#paint36_linear_704_4437)"/>
<path d="M17.8981 62.0664C17.9169 62.1027 17.9262 62.1417 17.924 62.1834C17.9011 62.6299 17.9173 63.0788 17.9448 63.5006C18.059 63.5946 18.2178 63.736 18.4573 63.9625C18.6825 64.1755 17.9794 65.1794 17.4923 65.2281C17.4391 65.2334 17.4735 65.3033 17.4844 65.3233C17.5191 65.3871 17.5681 65.5282 17.6039 65.6064C17.6139 65.6283 17.6337 65.6385 17.6524 65.6314C18.5882 65.2793 18.9922 65.0149 19.1693 64.2113C19.308 63.5823 18.2391 62.5142 17.8981 62.0664Z" fill="url(#paint37_linear_704_4437)"/>
<path d="M15.642 62.0664C15.6231 62.1027 15.6139 62.1417 15.616 62.1834C15.639 62.6299 15.6228 63.0788 15.5952 63.5006C15.481 63.5946 15.3222 63.736 15.0827 63.9625C14.8575 64.1755 15.5606 65.1794 16.0478 65.2281C16.1009 65.2334 16.0666 65.3033 16.0557 65.3233C16.021 65.3871 15.9719 65.5282 15.9362 65.6064C15.9261 65.6283 15.9063 65.6385 15.8876 65.6314C14.9519 65.2793 14.5479 65.0149 14.3707 64.2113C14.2321 63.5823 15.301 62.5142 15.642 62.0664Z" fill="url(#paint38_linear_704_4437)"/>
<path d="M16.7568 61.7187C17.2538 61.7187 17.6566 61.1844 17.6566 60.5254C17.6566 59.8663 17.2538 59.332 16.7568 59.332C16.2598 59.332 15.8569 59.8663 15.8569 60.5254C15.8569 61.1844 16.2598 61.7187 16.7568 61.7187Z" fill="url(#paint39_linear_704_4437)"/>
<path d="M17.9619 62.2134C17.9594 61.9343 17.3655 61.7879 16.7699 61.8017C16.1743 61.7879 15.5804 61.9343 15.5779 62.2134C15.5625 63.9343 14.8571 65.6547 15.4617 65.7644C15.8246 65.8303 16.3078 65.857 16.7699 65.8633C17.232 65.857 17.7151 65.8303 18.0781 65.7644C18.6827 65.6547 17.9773 63.9343 17.9619 62.2134Z" fill="url(#paint40_linear_704_4437)"/>
<path d="M17.6554 59.9125C17.6708 59.6881 17.4984 59.4824 17.4049 59.3866C17.1683 59.1443 16.8935 59.0427 16.6309 59.1267C16.4142 59.1961 16.3376 59.4018 16.1449 59.4479C15.9772 59.488 15.8319 59.3417 15.6956 59.4379C15.5484 59.5418 15.5689 59.8071 15.6637 59.9542C15.7721 60.1223 15.8323 60.2121 16.0613 60.2248C16.3387 60.2403 16.7303 59.917 16.986 59.9404C17.1264 59.9534 17.6343 60.2187 17.6554 59.9125Z" fill="url(#paint41_linear_704_4437)"/>
</g>
</g>
<path d="M-3.53564 79.2816C-3.53564 79.7479 -3.08759 80.1261 -2.53493 80.1261H81.5353C82.088 80.1261 82.536 79.7479 82.536 79.2816V78.4258H-3.53564V79.2816Z" fill="#CACACA"/>
<path d="M-4 79.2473C-4 79.3485 -3.9028 79.4305 -3.78291 79.4305H82.783C82.9028 79.4305 83 79.3485 83 79.2473V78.2539H-4V79.2473Z" fill="#B1B1B1"/>
<path d="M34.5352 78.4199C34.5352 78.6532 34.7592 78.8422 35.0355 78.8422H43.9649C44.2412 78.8422 44.4652 78.6531 44.4652 78.4199V78.2539H34.5352L34.5352 78.4199Z" fill="#CACACA"/>
<path d="M6.30612 69.5234L-4 78.2602H82.9999L72.6938 69.5234H6.30612Z" fill="#F1F1F1"/>
<path d="M2.81641 74.73H8.80333L13.0176 70.1523H7.85265L2.81641 74.73Z" fill="#CFCFCF"/>
<path d="M65.9819 70.1523L70.1962 74.73H76.1832L71.1469 70.1523H65.9819Z" fill="#CFCFCF"/>
<path d="M48.2966 75.8936C48.1901 75.4758 47.6566 75.1445 47.1028 75.1445H31.8967C31.3428 75.1445 30.8094 75.4758 30.7029 75.8936L30.4127 77.0318C30.2962 77.4888 30.6848 77.868 31.2833 77.868H47.7162C48.3147 77.868 48.7033 77.4888 48.5868 77.0318L48.2966 75.8936Z" fill="#D6D6D6"/>
<path d="M10.5776 74.7279H13.918L14.5574 73.8945H11.3005L10.5776 74.7279Z" fill="#313946"/>
<path d="M13.6729 71.1624H16.6557L17.1668 70.4961H14.2508L13.6729 71.1624Z" fill="#313946"/>
<path d="M14.3472 70.3852H18.6794L18.8466 70.1523H14.5491L14.3472 70.3852Z" fill="#313946"/>
<path d="M19.2705 70.3852H22.1756L22.3147 70.1523H19.4329L19.2705 70.3852Z" fill="#313946"/>
<path d="M22.8384 70.3852H25.7435L25.8539 70.1523H22.9721L22.8384 70.3852Z" fill="#313946"/>
<path d="M26.3604 70.3852H29.2654L29.3476 70.1523H26.4658L26.3604 70.3852Z" fill="#313946"/>
<path d="M29.9287 70.3852H32.8338L32.8873 70.1523H30.0056L29.9287 70.3852Z" fill="#313946"/>
<path d="M33.4346 70.3852H36.3397L36.365 70.1523H33.4833L33.4346 70.3852Z" fill="#313946"/>
<path d="M37.023 70.1523L37.0029 70.3852H39.908L39.9047 70.1523H37.023Z" fill="#313946"/>
<path d="M40.5166 70.1523L40.5248 70.3852H43.4299L43.3983 70.1523H40.5166Z" fill="#313946"/>
<path d="M43.9126 70.1523L43.9483 70.3852H46.8534L46.7944 70.1523H43.9126Z" fill="#313946"/>
<path d="M47.377 70.1523L47.4407 70.3852H50.3458L50.2587 70.1523H47.377Z" fill="#313946"/>
<path d="M50.9971 70.1523L51.0901 70.3852H53.9952L53.8788 70.1523H50.9971Z" fill="#313946"/>
<path d="M54.5366 70.1523L54.6583 70.3852H57.5634L57.4184 70.1523H54.5366Z" fill="#313946"/>
<path d="M58.0303 70.1523L58.1802 70.3852H61.0853L60.912 70.1523H58.0303Z" fill="#313946"/>
<path d="M61.5703 70.1523L61.749 70.3852H64.654L64.452 70.1523H61.5703Z" fill="#313946"/>
<path d="M12.2129 72.8444H17.8544L18.3655 72.1016H12.8572L12.2129 72.8444Z" fill="#313946"/>
<path d="M12.9634 71.9804H17.743L18.243 71.2773H13.5731L12.9634 71.9804Z" fill="#313946"/>
<path d="M11.4189 73.7588H19.6301L20.1127 72.9727H12.1008L11.4189 73.7588Z" fill="#313946"/>
<path d="M60.1191 72.1016L60.6178 72.8444H66.7763L66.1323 72.1016H60.1191Z" fill="#313946"/>
<path d="M58.877 72.9727L59.3592 73.7588H67.5704L66.8887 72.9727H58.877Z" fill="#313946"/>
<path d="M14.5688 74.7279H17.9092L18.4488 73.8945H15.1919L14.5688 74.7279Z" fill="#313946"/>
<path d="M20.2686 73.7588H23.5117L23.9 72.9727H20.7355L20.2686 73.7588Z" fill="#313946"/>
<path d="M24.2515 73.7588H27.4946L27.7861 72.9727H24.6217L24.2515 73.7588Z" fill="#313946"/>
<path d="M28.0801 73.7588H31.3232L31.5218 72.9727H28.3574L28.0801 73.7588Z" fill="#313946"/>
<path d="M32.064 73.7588H35.3071L35.4089 72.9727H32.2445L32.064 73.7588Z" fill="#313946"/>
<path d="M35.9556 73.7588H39.1988L39.2061 72.9727H36.0417L35.9556 73.7588Z" fill="#313946"/>
<path d="M39.9287 72.9727L39.9394 73.7588H43.1825L43.0931 72.9727H39.9287Z" fill="#313946"/>
<path d="M43.6641 72.9727L43.7677 73.7588H47.0109L46.8285 72.9727H43.6641Z" fill="#313946"/>
<path d="M47.5508 72.9727L47.7511 73.7588H50.9943L50.7152 72.9727H47.5508Z" fill="#313946"/>
<path d="M51.2705 72.9727L51.5634 73.7588H54.8066L54.4349 72.9727H51.2705Z" fill="#313946"/>
<path d="M55.1572 72.9727L55.5469 73.7588H58.79L58.3216 72.9727H55.1572Z" fill="#313946"/>
<path d="M18.5718 72.8444H21.7232L22.143 72.1016H19.0659L18.5718 72.8444Z" fill="#313946"/>
<path d="M22.4429 72.8444H25.5943L25.9227 72.1016H22.8457L22.4429 72.8444Z" fill="#313946"/>
<path d="M26.1626 72.8444H29.3141L29.5546 72.1016H26.4776L26.1626 72.8444Z" fill="#313946"/>
<path d="M30.0342 72.8444H33.1857L33.3348 72.1016H30.2577L30.0342 72.8444Z" fill="#313946"/>
<path d="M33.8159 72.8444H36.9674L37.0272 72.1016H33.9502L33.8159 72.8444Z" fill="#313946"/>
<path d="M37.7289 72.1016L37.686 72.8444H40.8376L40.806 72.1016H37.7289Z" fill="#313946"/>
<path d="M41.3618 72.1016L41.4068 72.8444H44.5583L44.4388 72.1016H41.3618Z" fill="#313946"/>
<path d="M45.1411 72.1016L45.2775 72.8444H48.429L48.2182 72.1016H45.1411Z" fill="#313946"/>
<path d="M48.7578 72.1016L48.9817 72.8444H52.1332L51.8349 72.1016H48.7578Z" fill="#313946"/>
<path d="M52.5371 72.1016L52.8524 72.8444H56.0039L55.6142 72.1016H52.5371Z" fill="#313946"/>
<path d="M56.3291 72.1016L56.7361 72.8444H59.8876L59.4062 72.1016H56.3291Z" fill="#313946"/>
<path d="M18.4497 71.9804H21.5145L21.9278 71.2773H18.9334L18.4497 71.9804Z" fill="#313946"/>
<path d="M22.2144 71.9804H25.2791L25.6059 71.2773H22.6115L22.2144 71.9804Z" fill="#313946"/>
<path d="M25.8315 71.9804H28.8964L29.14 71.2773H26.1456L25.8315 71.9804Z" fill="#313946"/>
<path d="M29.5967 71.9804H32.6615L32.8187 71.2773H29.8243L29.5967 71.9804Z" fill="#313946"/>
<path d="M33.2744 71.9804H36.3392L36.4118 71.2773H33.4175L33.2744 71.9804Z" fill="#313946"/>
<path d="M37.0951 71.2773L37.0386 71.9804H40.1034L40.0895 71.2773H37.0951Z" fill="#313946"/>
<path d="M40.6304 71.2773L40.657 71.9804H43.7218L43.6248 71.2773H40.6304Z" fill="#313946"/>
<path d="M44.3086 71.2773L44.4216 71.9804H47.4865L47.303 71.2773H44.3086Z" fill="#313946"/>
<path d="M47.9766 71.2773L48.1759 71.9804H51.2407L50.971 71.2773H47.9766Z" fill="#313946"/>
<path d="M51.5059 71.2773L51.7883 71.9804H54.8531L54.5003 71.2773H51.5059Z" fill="#313946"/>
<path d="M55.1953 71.2773L55.5645 71.9804H58.6293L58.1897 71.2773H55.1953Z" fill="#313946"/>
<path d="M58.8027 71.2773L59.2567 71.9804H62.3216L61.7972 71.2773H58.8027Z" fill="#313946"/>
<path d="M62.4229 71.2773L62.962 71.9804H66.0268L65.4173 71.2773H62.4229Z" fill="#313946"/>
<path d="M17.2373 71.1624H20.2201L20.6515 70.4961H17.7355L17.2373 71.1624Z" fill="#313946"/>
<path d="M20.9019 71.1624H23.8847L24.2341 70.4961H21.3181L20.9019 71.1624Z" fill="#313946"/>
<path d="M24.4224 71.1624H27.4052L27.6758 70.4961H24.7598L24.4224 71.1624Z" fill="#313946"/>
<path d="M28.0864 71.1624H31.0692L31.2579 70.4961H28.3418L28.0864 71.1624Z" fill="#313946"/>
<path d="M31.6665 71.1624H34.6493L34.7579 70.4961H31.8418L31.6665 71.1624Z" fill="#313946"/>
<path d="M35.3296 71.1624H38.3124L38.339 70.4961H35.4229L35.3296 71.1624Z" fill="#313946"/>
<path d="M38.8646 70.4961L38.8501 71.1624H41.8329L41.7807 70.4961H38.8646Z" fill="#313946"/>
<path d="M42.4463 70.4961L42.5137 71.1624H45.4965L45.3623 70.4961H42.4463Z" fill="#313946"/>
<path d="M45.874 70.4961L46.0199 71.1624H49.0028L48.7901 70.4961H45.874Z" fill="#313946"/>
<path d="M49.4556 70.4961L49.6835 71.1624H52.6663L52.3717 70.4961H49.4556Z" fill="#313946"/>
<path d="M53.0488 70.4961L53.359 71.1624H56.3418L55.9649 70.4961H53.0488Z" fill="#313946"/>
<path d="M56.562 70.4961L56.9526 71.1624H59.9354L59.4781 70.4961H56.562Z" fill="#313946"/>
<path d="M60.0879 70.4961L60.5591 71.1624H65.3173L64.7395 70.4961H60.0879Z" fill="#313946"/>
<path d="M18.6196 74.7279H21.96L22.3984 73.8945H19.1415L18.6196 74.7279Z" fill="#313946"/>
<path d="M52.6074 73.8945L52.9434 74.7279H56.2838L55.8643 73.8945H52.6074Z" fill="#313946"/>
<path d="M56.5566 73.8945L56.9939 74.7279H60.3342L59.8135 73.8945H56.5566Z" fill="#313946"/>
<path d="M64.4004 73.8516L65.0378 74.6827H68.3737L67.653 73.8516H64.4004Z" fill="#313946"/>
<path d="M60.4673 73.8516L60.7041 74.2184H63.9935L63.7198 73.8516H60.4673Z" fill="#313946"/>
<path d="M60.7886 74.3516L61.0328 74.7298H64.3731L64.091 74.3516H60.7886Z" fill="#313946"/>
<path d="M22.6108 74.7279H26.9692L27.2823 73.8945H23.0329L22.6108 74.7279Z" fill="#313946"/>
<path d="M47.7642 73.8945L47.976 74.7279H52.3343L52.0136 73.8945H47.7642Z" fill="#313946"/>
<path d="M28.157 73.8945L27.8662 74.7279H47.2234L47.0304 73.8945H28.157Z" fill="#313946"/>
<path d="M63.8989 69.5234H15.0909L15.089 69.5256C14.9616 69.6724 15.0537 69.7926 15.2958 69.7926H63.694C63.936 69.7926 64.0281 69.6724 63.9008 69.5256L63.8989 69.5234Z" fill="#333333"/>
<g opacity="0.1">
<mask id="mask10_704_4437" style="mask-type:luminance" maskUnits="userSpaceOnUse" x="6" y="25" width="67" height="46">
<path d="M70.5939 25.1328H8.42472C7.24064 25.1328 6.28076 26.1164 6.28076 27.3298V62.2023V70.2944H72.7378V62.2023V27.3298C72.7379 26.1165 71.778 25.1328 70.5939 25.1328Z" fill="white"/>
</mask>
<g mask="url(#mask10_704_4437)">
<path d="M73.1 54.4321C83.4755 54.3995 91.8601 45.9621 91.8276 35.5867C91.8115 30.4244 89.7092 25.7516 86.3224 22.3648L86.3178 22.3602L85.2478 21.291L85.2432 21.2864C81.8288 17.8744 77.1101 15.7688 71.9076 15.7853C67.4208 15.7994 63.3063 17.3853 60.0839 20.0201C55.8549 23.4778 53.1623 28.7419 53.1808 34.6302C53.1936 38.7246 54.5177 42.5066 56.7517 45.5852C57.8243 47.0631 58.2333 48.9206 57.8631 50.7089L57.2133 53.8478L58.2871 54.9225L60.9994 53.4994C62.6448 52.636 64.5825 52.5221 66.317 53.1888C68.4224 53.9978 70.709 54.4396 73.1 54.4321Z" fill="#050607"/>
</g>
</g>
<path d="M66.5229 20C61.3474 20.0164 57.165 24.2251 57.1812 29.4007C57.1876 31.4431 57.8481 33.3298 58.9625 34.8654C59.4976 35.6027 59.7016 36.5293 59.517 37.4213L59.1928 38.9872L60.5458 38.2773C61.3666 37.8466 62.3331 37.7898 63.1984 38.1223C64.2485 38.526 65.3891 38.7463 66.5818 38.7426C71.7574 38.7263 75.9399 34.5176 75.9237 29.342C75.9075 24.1705 71.6943 19.9837 66.5229 20Z" fill="url(#paint42_linear_704_4437)"/>
<path d="M70.2517 28.176L69.938 28.3571V27.37C69.938 26.8507 69.517 26.4297 68.9977 26.4297H65.0633H64.1384H61.8441C61.3248 26.4297 60.9038 26.8507 60.9038 27.37V31.6207C60.9038 32.14 61.3248 32.561 61.8441 32.561H64.1533H65.0809H68.9977C69.517 32.561 69.938 32.14 69.938 31.6207V30.4379L70.2517 30.619L72.3674 31.8405V26.9544L70.2517 28.176Z" fill="white"/>
</g>
<defs>
<linearGradient id="paint0_linear_704_4437" x1="73.2708" y1="53.9218" x2="54.8375" y2="21.9944" gradientUnits="userSpaceOnUse">
<stop/>
<stop offset="1" stop-color="white"/>
</linearGradient>
<linearGradient id="paint1_linear_704_4437" x1="39.5075" y1="27.7678" x2="39.5075" y2="67.4055" gradientUnits="userSpaceOnUse">
<stop stop-color="#005A9A"/>
<stop offset="1" stop-color="#002756"/>
</linearGradient>
<linearGradient id="paint2_linear_704_4437" x1="48.2059" y1="43.6841" x2="49.8584" y2="53.6762" gradientUnits="userSpaceOnUse">
<stop stop-color="#FFCAC2"/>
<stop offset="1" stop-color="#FC9B80"/>
</linearGradient>
<linearGradient id="paint3_linear_704_4437" x1="42.3383" y1="43.6841" x2="40.6858" y2="53.6762" gradientUnits="userSpaceOnUse">
<stop stop-color="#FFCAC2"/>
<stop offset="1" stop-color="#FC9B80"/>
</linearGradient>
<linearGradient id="paint4_linear_704_4437" x1="45.2891" y1="51.3316" x2="45.2731" y2="53.3623" gradientUnits="userSpaceOnUse">
<stop stop-color="#FFCAC2"/>
<stop offset="1" stop-color="#F2957B"/>
</linearGradient>
<linearGradient id="paint5_linear_704_4437" x1="54.4153" y1="68.4117" x2="41.7203" y2="48.5279" gradientUnits="userSpaceOnUse">
<stop stop-color="#FFD03F"/>
<stop offset="0.1968" stop-color="#FDCA3A"/>
<stop offset="0.4642" stop-color="#F6B82B"/>
<stop offset="0.7709" stop-color="#EB9C12"/>
<stop offset="0.8989" stop-color="#E58E06"/>
<stop offset="1" stop-color="#DF8800"/>
</linearGradient>
<linearGradient id="paint6_linear_704_4437" x1="36.2439" y1="68.4117" x2="48.9389" y2="48.5279" gradientUnits="userSpaceOnUse">
<stop stop-color="#FFD03F"/>
<stop offset="0.1968" stop-color="#FDCA3A"/>
<stop offset="0.4642" stop-color="#F6B82B"/>
<stop offset="0.7709" stop-color="#EB9C12"/>
<stop offset="0.8989" stop-color="#E58E06"/>
<stop offset="1" stop-color="#DF8800"/>
</linearGradient>
<linearGradient id="paint7_linear_704_4437" x1="45.262" y1="43.9501" x2="45.2872" y2="52.4376" gradientUnits="userSpaceOnUse">
<stop stop-color="#FFCAC2"/>
<stop offset="1" stop-color="#F2957B"/>
</linearGradient>
<linearGradient id="paint8_linear_704_4437" x1="45.3299" y1="51.8751" x2="45.3299" y2="71.2688" gradientUnits="userSpaceOnUse">
<stop stop-color="#FFD03F"/>
<stop offset="0.1968" stop-color="#FDCA3A"/>
<stop offset="0.4642" stop-color="#F6B82B"/>
<stop offset="0.7709" stop-color="#EB9C12"/>
<stop offset="0.8989" stop-color="#E58E06"/>
<stop offset="1" stop-color="#DF8800"/>
</linearGradient>
<linearGradient id="paint9_linear_704_4437" x1="44.4508" y1="41.158" x2="44.8806" y2="46.2965" gradientUnits="userSpaceOnUse">
<stop offset="0.0013" stop-color="#94602E"/>
<stop offset="0.205" stop-color="#885627"/>
<stop offset="0.6988" stop-color="#6F4219"/>
<stop offset="1" stop-color="#663B14"/>
</linearGradient>
<linearGradient id="paint10_linear_704_4437" x1="17.455" y1="33.8528" x2="17.8481" y2="36.2295" gradientUnits="userSpaceOnUse">
<stop stop-color="#FFCAC2"/>
<stop offset="1" stop-color="#FC9B80"/>
</linearGradient>
<linearGradient id="paint11_linear_704_4437" x1="16.0593" y1="33.8528" x2="15.6663" y2="36.2295" gradientUnits="userSpaceOnUse">
<stop stop-color="#FFCAC2"/>
<stop offset="1" stop-color="#FC9B80"/>
</linearGradient>
<linearGradient id="paint12_linear_704_4437" x1="16.7613" y1="35.67" x2="16.7574" y2="36.153" gradientUnits="userSpaceOnUse">
<stop stop-color="#FFCAC2"/>
<stop offset="1" stop-color="#F2957B"/>
</linearGradient>
<linearGradient id="paint13_linear_704_4437" x1="18.9314" y1="39.7273" x2="15.9119" y2="34.9979" gradientUnits="userSpaceOnUse">
<stop stop-color="#FFD03F"/>
<stop offset="0.1968" stop-color="#FDCA3A"/>
<stop offset="0.4642" stop-color="#F6B82B"/>
<stop offset="0.7709" stop-color="#EB9C12"/>
<stop offset="0.8989" stop-color="#E58E06"/>
<stop offset="1" stop-color="#DF8800"/>
</linearGradient>
<linearGradient id="paint14_linear_704_4437" x1="14.6095" y1="39.7273" x2="17.6291" y2="34.9979" gradientUnits="userSpaceOnUse">
<stop stop-color="#FFD03F"/>
<stop offset="0.1968" stop-color="#FDCA3A"/>
<stop offset="0.4642" stop-color="#F6B82B"/>
<stop offset="0.7709" stop-color="#EB9C12"/>
<stop offset="0.8989" stop-color="#E58E06"/>
<stop offset="1" stop-color="#DF8800"/>
</linearGradient>
<linearGradient id="paint15_linear_704_4437" x1="16.7544" y1="33.9129" x2="16.7604" y2="35.9317" gradientUnits="userSpaceOnUse">
<stop stop-color="#FFCAC2"/>
<stop offset="1" stop-color="#F2957B"/>
</linearGradient>
<linearGradient id="paint16_linear_704_4437" x1="16.7709" y1="35.799" x2="16.7709" y2="40.4118" gradientUnits="userSpaceOnUse">
<stop stop-color="#FFD03F"/>
<stop offset="0.1968" stop-color="#FDCA3A"/>
<stop offset="0.4642" stop-color="#F6B82B"/>
<stop offset="0.7709" stop-color="#EB9C12"/>
<stop offset="0.8989" stop-color="#E58E06"/>
<stop offset="1" stop-color="#DF8800"/>
</linearGradient>
<linearGradient id="paint17_linear_704_4437" x1="16.5619" y1="33.2429" x2="16.6642" y2="34.4651" gradientUnits="userSpaceOnUse">
<stop offset="0.0013" stop-color="#94602E"/>
<stop offset="0.205" stop-color="#885627"/>
<stop offset="0.6988" stop-color="#6F4219"/>
<stop offset="1" stop-color="#663B14"/>
</linearGradient>
<linearGradient id="paint18_linear_704_4437" x1="17.454" y1="51.0286" x2="17.8471" y2="53.4053" gradientUnits="userSpaceOnUse">
<stop stop-color="#FFCAC2"/>
<stop offset="1" stop-color="#FC9B80"/>
</linearGradient>
<linearGradient id="paint19_linear_704_4437" x1="16.0584" y1="51.0286" x2="15.6654" y2="53.4053" gradientUnits="userSpaceOnUse">
<stop stop-color="#FFCAC2"/>
<stop offset="1" stop-color="#FC9B80"/>
</linearGradient>
<linearGradient id="paint20_linear_704_4437" x1="16.7603" y1="52.8497" x2="16.7565" y2="53.3327" gradientUnits="userSpaceOnUse">
<stop stop-color="#FFCAC2"/>
<stop offset="1" stop-color="#F2957B"/>
</linearGradient>
<linearGradient id="paint21_linear_704_4437" x1="18.931" y1="56.9109" x2="15.9115" y2="52.1815" gradientUnits="userSpaceOnUse">
<stop stop-color="#A7D63F"/>
<stop offset="0.0738" stop-color="#9FD340"/>
<stop offset="1" stop-color="#39B54A"/>
</linearGradient>
<linearGradient id="paint22_linear_704_4437" x1="14.6091" y1="56.9109" x2="17.6286" y2="52.1815" gradientUnits="userSpaceOnUse">
<stop stop-color="#A7D63F"/>
<stop offset="0.0738" stop-color="#9FD340"/>
<stop offset="1" stop-color="#39B54A"/>
</linearGradient>
<linearGradient id="paint23_linear_704_4437" x1="16.7549" y1="51.0926" x2="16.7609" y2="53.1114" gradientUnits="userSpaceOnUse">
<stop stop-color="#FFCAC2"/>
<stop offset="1" stop-color="#F2957B"/>
</linearGradient>
<linearGradient id="paint24_linear_704_4437" x1="16.7699" y1="52.9787" x2="16.7699" y2="57.5915" gradientUnits="userSpaceOnUse">
<stop stop-color="#A7D63F"/>
<stop offset="0.0738" stop-color="#9FD340"/>
<stop offset="1" stop-color="#39B54A"/>
</linearGradient>
<linearGradient id="paint25_linear_704_4437" x1="16.5624" y1="50.4264" x2="16.6646" y2="51.6486" gradientUnits="userSpaceOnUse">
<stop offset="0.0013" stop-color="#94602E"/>
<stop offset="0.205" stop-color="#885627"/>
<stop offset="0.6988" stop-color="#6F4219"/>
<stop offset="1" stop-color="#663B14"/>
</linearGradient>
<linearGradient id="paint26_linear_704_4437" x1="17.455" y1="42.4622" x2="17.8481" y2="44.8389" gradientUnits="userSpaceOnUse">
<stop stop-color="#FFCAC2"/>
<stop offset="1" stop-color="#FC9B80"/>
</linearGradient>
<linearGradient id="paint27_linear_704_4437" x1="16.0594" y1="42.4623" x2="15.6664" y2="44.8389" gradientUnits="userSpaceOnUse">
<stop stop-color="#FFCAC2"/>
<stop offset="1" stop-color="#FC9B80"/>
</linearGradient>
<linearGradient id="paint28_linear_704_4437" x1="16.7608" y1="44.2833" x2="16.757" y2="44.7663" gradientUnits="userSpaceOnUse">
<stop stop-color="#FFCAC2"/>
<stop offset="1" stop-color="#F2957B"/>
</linearGradient>
<linearGradient id="paint29_linear_704_4437" x1="18.931" y1="48.3445" x2="15.9115" y2="43.6151" gradientUnits="userSpaceOnUse">
<stop stop-color="#00BDFF"/>
<stop offset="1" stop-color="#0174E8"/>
</linearGradient>
<linearGradient id="paint30_linear_704_4437" x1="14.6095" y1="48.3445" x2="17.6291" y2="43.6151" gradientUnits="userSpaceOnUse">
<stop stop-color="#00BDFF"/>
<stop offset="1" stop-color="#0174E8"/>
</linearGradient>
<linearGradient id="paint31_linear_704_4437" x1="16.7544" y1="42.5262" x2="16.7604" y2="44.545" gradientUnits="userSpaceOnUse">
<stop stop-color="#FFCAC2"/>
<stop offset="1" stop-color="#F2957B"/>
</linearGradient>
<linearGradient id="paint32_linear_704_4437" x1="16.7704" y1="44.4123" x2="16.7704" y2="49.0251" gradientUnits="userSpaceOnUse">
<stop stop-color="#00BDFF"/>
<stop offset="1" stop-color="#0174E8"/>
</linearGradient>
<linearGradient id="paint33_linear_704_4437" x1="16.5619" y1="41.8679" x2="16.6641" y2="43.09" gradientUnits="userSpaceOnUse">
<stop offset="0.0013" stop-color="#94602E"/>
<stop offset="0.205" stop-color="#885627"/>
<stop offset="0.6988" stop-color="#6F4219"/>
<stop offset="1" stop-color="#663B14"/>
</linearGradient>
<linearGradient id="paint34_linear_704_4437" x1="17.4545" y1="59.6615" x2="17.8476" y2="62.0381" gradientUnits="userSpaceOnUse">
<stop stop-color="#FFCAC2"/>
<stop offset="1" stop-color="#FC9B80"/>
</linearGradient>
<linearGradient id="paint35_linear_704_4437" x1="16.0589" y1="59.6615" x2="15.6659" y2="62.0381" gradientUnits="userSpaceOnUse">
<stop stop-color="#FFCAC2"/>
<stop offset="1" stop-color="#FC9B80"/>
</linearGradient>
<linearGradient id="paint36_linear_704_4437" x1="16.7603" y1="61.4786" x2="16.7565" y2="61.9616" gradientUnits="userSpaceOnUse">
<stop stop-color="#FFCAC2"/>
<stop offset="1" stop-color="#F2957B"/>
</linearGradient>
<linearGradient id="paint37_linear_704_4437" x1="18.931" y1="65.5398" x2="15.9115" y2="60.8104" gradientUnits="userSpaceOnUse">
<stop stop-color="#FF9452"/>
<stop offset="0.2141" stop-color="#FE8948"/>
<stop offset="0.5863" stop-color="#FA6D2C"/>
<stop offset="1" stop-color="#F54607"/>
</linearGradient>
<linearGradient id="paint38_linear_704_4437" x1="14.609" y1="65.5398" x2="17.6286" y2="60.8104" gradientUnits="userSpaceOnUse">
<stop stop-color="#FF9452"/>
<stop offset="0.2141" stop-color="#FE8948"/>
<stop offset="0.5863" stop-color="#FA6D2C"/>
<stop offset="1" stop-color="#F54607"/>
</linearGradient>
<linearGradient id="paint39_linear_704_4437" x1="16.7544" y1="59.7215" x2="16.7604" y2="61.7403" gradientUnits="userSpaceOnUse">
<stop stop-color="#FFCAC2"/>
<stop offset="1" stop-color="#F2957B"/>
</linearGradient>
<linearGradient id="paint40_linear_704_4437" x1="16.7699" y1="61.6076" x2="16.7699" y2="66.2204" gradientUnits="userSpaceOnUse">
<stop stop-color="#FF9452"/>
<stop offset="0.2141" stop-color="#FE8948"/>
<stop offset="0.5863" stop-color="#FA6D2C"/>
<stop offset="1" stop-color="#F54607"/>
</linearGradient>
<linearGradient id="paint41_linear_704_4437" x1="16.5614" y1="59.0553" x2="16.6636" y2="60.2775" gradientUnits="userSpaceOnUse">
<stop offset="0.0013" stop-color="#94602E"/>
<stop offset="0.205" stop-color="#885627"/>
<stop offset="0.6988" stop-color="#6F4219"/>
<stop offset="1" stop-color="#663B14"/>
</linearGradient>
<linearGradient id="paint42_linear_704_4437" x1="71.9065" y1="21.0263" x2="59.7237" y2="40.0147" gradientUnits="userSpaceOnUse">
<stop stop-color="#00BEFF"/>
<stop offset="1" stop-color="#007DFF"/>
</linearGradient>
<clipPath id="clip0_704_4437">
<rect width="80" height="79.9989" rx="39.9995" fill="white"/>
</clipPath>
</defs>
</svg>
