<svg width="60" height="60" viewBox="0 0 60 60" fill="none" xmlns="http://www.w3.org/2000/svg">
<path d="M46.2511 36.8745C46.2511 49.6465 35.8974 60.0004 23.1256 60.0004C10.3537 60.0004 0 49.6465 0 36.8745C0 24.1019 10.3537 13.748 23.1256 13.748C35.8974 13.748 46.2511 24.1019 46.2511 36.8745Z" fill="url(#paint0_linear_683_2368)"/>
<path d="M41.3881 36.8742C41.3881 46.9603 33.2114 55.1365 23.1254 55.1365C13.0395 55.1365 4.86279 46.9603 4.86279 36.8742C4.86279 26.7881 13.0395 18.6113 23.1254 18.6113C33.2114 18.6113 41.3881 26.7881 41.3881 36.8742Z" fill="white"/>
<path d="M36.5241 36.8739C36.5241 44.274 30.525 50.2726 23.1256 50.2726C15.7249 50.2726 9.72705 44.2734 9.72705 36.8739C9.72705 29.4732 15.7255 23.4746 23.1256 23.4746C30.525 23.4746 36.5241 29.4738 36.5241 36.8739Z" fill="url(#paint1_linear_683_2368)"/>
<path d="M31.6618 36.8742C31.6618 41.5884 27.8403 45.4099 23.1256 45.4099C18.4108 45.4099 14.5894 41.5884 14.5894 36.8742C14.5894 32.1594 18.4108 28.3379 23.1256 28.3379C27.8403 28.3379 31.6618 32.16 31.6618 36.8742Z" fill="white"/>
<path d="M26.7978 36.8739C26.7978 38.9022 25.1539 40.546 23.1257 40.546C21.0975 40.546 19.4536 38.9022 19.4536 36.8739C19.4536 34.845 21.0975 33.2012 23.1257 33.2012C25.1539 33.2018 26.7978 34.8456 26.7978 36.8739Z" fill="url(#paint2_linear_683_2368)"/>
<path d="M59.9963 7.69197L54.2596 6.91406L47.4146 13.7592L53.1513 14.5365L59.9963 7.69197Z" fill="url(#paint3_linear_683_2368)"/>
<path d="M52.3041 0L53.0814 5.73683L46.2364 12.5819L45.4585 6.84448L52.3041 0Z" fill="url(#paint4_linear_683_2368)"/>
<path d="M23.1255 36.8732L24.8562 36.3182L54.2492 6.92597C54.5735 6.59987 54.5735 6.07398 54.2492 5.74848C53.9231 5.42238 53.396 5.42238 53.0712 5.74848L23.6781 35.1401L23.1255 36.8732Z" fill="#312E5E"/>
<defs>
<linearGradient id="paint0_linear_683_2368" x1="8.31359" y1="18.3975" x2="37.0736" y2="54.2728" gradientUnits="userSpaceOnUse">
<stop stop-color="#FF4D87"/>
<stop offset="1" stop-color="#DB2561"/>
</linearGradient>
<linearGradient id="paint1_linear_683_2368" x1="14.5434" y1="26.1684" x2="31.2069" y2="46.9544" gradientUnits="userSpaceOnUse">
<stop stop-color="#FF4D87"/>
<stop offset="1" stop-color="#DB2561"/>
</linearGradient>
<linearGradient id="paint2_linear_683_2368" x1="19.4537" y1="36.8738" x2="26.7977" y2="36.8738" gradientUnits="userSpaceOnUse">
<stop stop-color="#FF4D87"/>
<stop offset="1" stop-color="#DB2561"/>
</linearGradient>
<linearGradient id="paint3_linear_683_2368" x1="53.2741" y1="14.6427" x2="54.1115" y2="7.03654" gradientUnits="userSpaceOnUse">
<stop stop-color="#FF4D87"/>
<stop offset="1" stop-color="#DB2561"/>
</linearGradient>
<linearGradient id="paint4_linear_683_2368" x1="45.3525" y1="6.72227" x2="52.9591" y2="5.88489" gradientUnits="userSpaceOnUse">
<stop stop-color="#FF4D87"/>
<stop offset="1" stop-color="#DB2561"/>
</linearGradient>
</defs>
</svg>
