<svg width="139" height="100" viewBox="0 0 139 100" fill="none" xmlns="http://www.w3.org/2000/svg">
<path d="M138.425 43.6797C135.178 29.9517 129.165 17.2857 120.497 5.98771C116.627 0.978708 110.396 -0.707292 104.984 1.32171C86.2837 8.54471 68.8357 18.3817 52.4787 30.3927C47.7427 33.8027 45.0417 39.3327 46.0697 44.3317C48.3037 55.3117 53.1927 64.9247 60.8487 73.4747C63.5147 76.4827 67.7928 78.0757 72.2178 78.0807L75.6307 99.5597L94.4847 73.0307C107.605 69.1797 120.201 64.2667 132.193 58.0947C137.209 55.4477 139.859 49.7807 138.425 43.6797Z" fill="#E8E8E8"/>
<path d="M60.8478 73.4739C53.1928 64.9239 48.3037 55.3109 46.0687 44.3309C45.3677 40.9219 46.4307 37.2809 48.6597 34.2179L15.8608 27.0779C10.5688 25.9259 5.64879 30.5019 4.87379 37.2999L0.367746 76.7919C-0.407254 83.5899 3.31274 88.4579 8.67774 87.6659L40.6888 82.9389L55.8648 95.9059V80.4189C58.7618 79.4099 61.2978 77.4919 62.8398 75.2409C62.1118 74.7189 61.4348 74.1369 60.8478 73.4739Z" fill="#82C891"/>
<path d="M76.1539 51.121C78.0069 54.622 76.6719 58.962 73.1709 60.816C69.6699 62.669 65.3299 61.334 63.4759 57.833C61.6229 54.332 62.9579 49.992 66.4589 48.138C69.9599 46.284 74.3009 47.62 76.1539 51.121Z" fill="#F3715B"/>
<path d="M98.671 39.2004C100.524 42.7014 99.189 47.0424 95.688 48.8954C92.187 50.7484 87.846 49.4134 85.993 45.9124C84.14 42.4114 85.475 38.0704 88.976 36.2174C92.477 34.3644 96.818 35.7004 98.671 39.2004Z" fill="#F3715B"/>
<path d="M121.188 27.2807C123.041 30.7817 121.706 35.1217 118.205 36.9757C114.704 38.8287 110.363 37.4937 108.51 33.9927C106.657 30.4917 107.992 26.1517 111.493 24.2977C114.994 22.4447 119.335 23.7797 121.188 27.2807Z" fill="#F3715B"/>
</svg>
