<svg width="34" height="41" viewBox="0 0 34 41" fill="none" xmlns="http://www.w3.org/2000/svg">
<path d="M0.434204 18.2322L4.38031 21.0758L4.35908 17.7949L0.434204 18.2322Z" fill="#4B5916"/>
<path d="M33.3 10.7086V38.8964C33.3 39.9452 32.4499 40.7949 31.4015 40.7949H6.27876C5.23033 40.7949 4.38025 39.9452 4.38025 38.8964V2.69381C4.38025 1.645 5.23033 0.794922 6.27876 0.794922H22.6954L33.3 10.7086Z" fill="white"/>
<path d="M18.8534 18.3162H0.787737C0.352683 18.3162 0 17.9635 0 17.5284V9.5436C0 9.10855 0.352683 8.75586 0.787737 8.75586H18.8534C19.2885 8.75586 19.6412 9.10855 19.6412 9.5436V17.5284C19.6412 17.9635 19.2885 18.3162 18.8534 18.3162Z" fill="#73931C"/>
<path d="M33.3001 10.7086V11.0021H23.8526C23.1313 11.0021 22.5464 10.4171 22.5464 9.69551V0.794922H22.6954L33.3001 10.7086Z" fill="#E6E7E8"/>
<path d="M16.9102 12.6808C16.8543 12.5095 16.7805 12.356 16.6889 12.2203C16.599 12.083 16.4913 11.9659 16.3658 11.8693C16.242 11.7726 16.1013 11.6988 15.9436 11.6479C15.7858 11.5971 15.6128 11.5716 15.4246 11.5716C15.1159 11.5716 14.8353 11.6513 14.5826 11.8108C14.3299 11.9702 14.1289 12.2051 13.9797 12.5154C13.8304 12.8258 13.7558 13.2065 13.7558 13.6576C13.7558 14.1087 13.8313 14.4895 13.9822 14.7998C14.1331 15.1102 14.3375 15.3451 14.5953 15.5045C14.8531 15.6639 15.1431 15.7436 15.4653 15.7436C15.7638 15.7436 16.0267 15.68 16.2539 15.5528C16.4829 15.4239 16.6609 15.2425 16.7881 15.0084C16.917 14.7727 16.9815 14.4954 16.9815 14.1766L17.1748 14.2173H15.6078V13.6576H17.592V14.2173C17.592 14.6464 17.5004 15.0195 17.3173 15.3366C17.1358 15.6537 16.8848 15.8997 16.5643 16.0743C16.2454 16.2473 15.8791 16.3338 15.4653 16.3338C15.004 16.3338 14.5987 16.2253 14.2493 16.0082C13.9017 15.7911 13.6303 15.4825 13.4353 15.0822C13.2419 14.682 13.1453 14.2071 13.1453 13.6576C13.1453 13.2455 13.2004 12.875 13.3106 12.5459C13.4225 12.2152 13.5803 11.9337 13.7838 11.7014C13.9873 11.469 14.2281 11.291 14.5062 11.1672C14.7844 11.0433 15.0905 10.9814 15.4246 10.9814C15.6993 10.9814 15.9554 11.023 16.1929 11.1061C16.432 11.1875 16.6448 11.3037 16.8314 11.4546C17.0196 11.6039 17.1765 11.7828 17.302 11.9914C17.4275 12.1983 17.514 12.4281 17.5615 12.6808H16.9102Z" fill="white"/>
<path d="M12.0862 11.0527V16.2626H11.4757L8.63672 12.1721H8.58584V16.2626H7.95496V11.0527H8.56549L11.4147 15.1535H11.4655V11.0527H12.0862Z" fill="white"/>
<path d="M4.4139 16.2626H2.80615V11.0527H4.48513C4.99051 11.0527 5.42298 11.157 5.78252 11.3656C6.14205 11.5725 6.41764 11.8702 6.60928 12.2585C6.80092 12.6452 6.89674 13.1082 6.89674 13.6475C6.89674 14.1902 6.80008 14.6574 6.60674 15.0492C6.4134 15.4393 6.13188 15.7394 5.76216 15.9497C5.39245 16.1583 4.94303 16.2626 4.4139 16.2626ZM3.43704 15.703H4.37319C4.80396 15.703 5.16096 15.6199 5.44418 15.4537C5.7274 15.2875 5.93854 15.0509 6.07761 14.7439C6.21667 14.437 6.28621 14.0715 6.28621 13.6475C6.28621 13.2269 6.21752 12.8648 6.08015 12.5613C5.94278 12.256 5.73757 12.022 5.46453 11.8592C5.19148 11.6946 4.85145 11.6124 4.44442 11.6124H3.43704V15.703Z" fill="white"/>
<path d="M27.9536 22.9736H9.72681V22.9736V21.4024V21.4023H27.9536L27.9536 21.4024V22.9736L27.9536 22.9736Z" fill="#E6E7E8"/>
<path d="M27.9536 26.5947H9.72681V26.5947V25.0235V25.0234H27.9536L27.9536 25.0235V26.5947L27.9536 26.5947Z" fill="#E6E7E8"/>
<path d="M27.9536 30.2148H9.72681V30.2148V28.6436V28.6436H27.9536L27.9536 28.6436V30.2148L27.9536 30.2148Z" fill="#E6E7E8"/>
<path d="M27.9536 33.8359H9.72681V33.8359V32.2647V32.2646H27.9536L27.9536 32.2647V33.8359L27.9536 33.8359Z" fill="#E6E7E8"/>
<path d="M27.9536 37.457H9.72681V37.457V35.8858V35.8857H27.9536L27.9536 35.8858V37.457L27.9536 37.457Z" fill="#E6E7E8"/>
</svg>
