<svg width="64" height="47" viewBox="0 0 64 47" fill="none" xmlns="http://www.w3.org/2000/svg">
<path d="M57.647 42.891H57.897V42.641V21.51V21.26H57.647H46.655V6.19702V5.94702H46.405H17.447H17.197V6.19702V21.26H6.20496H5.95496V21.51V42.641V42.891H6.20496H57.647Z" fill="white" stroke="#C7CED8" stroke-width="0.5"/>
<path d="M63.096 42.641H0.755981V46.673H63.096V42.641Z" fill="#377DFF"/>
<path d="M38.7 34.708H25.153V42.641H38.7V34.708Z" fill="#C7CED8"/>
<path d="M36.225 14.428C36.225 16.802 34.2999 18.727 31.9259 18.727C29.5519 18.727 27.627 16.802 27.627 14.428C27.627 12.054 29.5519 10.129 31.9259 10.129C34.2999 10.129 36.225 12.054 36.225 14.428Z" fill="#C7CED8"/>
<path d="M32.343 11.1851H31.611V14.9871H32.343V11.1851Z" fill="#555555"/>
<path d="M32.343 13.854H29.859V14.987H32.343V13.854Z" fill="#555555"/>
<path d="M12.715 24.6471H9.92798V30.2221H12.715V24.6471Z" fill="#C7CED8"/>
<path d="M12.715 32.1331H9.92798V37.7081H12.715V32.1331Z" fill="#C7CED8"/>
<path d="M17.483 24.6471H14.695V30.2221H17.483V24.6471Z" fill="white"/>
<path d="M17.483 32.1331H14.695V37.7081H17.483V32.1331Z" fill="#C7CED8"/>
<path d="M49.09 24.6471H46.303V30.2221H49.09V24.6471Z" fill="#C7CED8"/>
<path d="M49.09 32.1331H46.303V37.7081H49.09V32.1331Z" fill="#C7CED8"/>
<path d="M53.858 24.6471H51.07V30.2221H53.858V24.6471Z" fill="#C7CED8"/>
<path d="M53.858 32.1331H51.07V37.7081H53.858V32.1331Z" fill="#C7CED8"/>
<path d="M17.483 24.6471H14.695V30.2221H17.483V24.6471Z" fill="#C7CED8"/>
<path d="M28.552 24.6471H25.765V30.2221H28.552V24.6471Z" fill="#C7CED8"/>
<path d="M33.321 24.6471H30.533V30.2221H33.321V24.6471Z" fill="#C7CED8"/>
<path d="M38.088 24.6471H35.3V30.2221H38.088V24.6471Z" fill="#C7CED8"/>
<path d="M49.423 0.165039H14.43V4.19704H49.423V0.165039Z" fill="#377DFF"/>
</svg>
