<svg width="45" height="41" viewBox="0 0 45 41" fill="none" xmlns="http://www.w3.org/2000/svg">
<path d="M40.7599 5.93878H33.8807V4.33544C33.8807 3.46944 33.1784 2.76758 32.3134 2.76758C31.4479 2.76758 30.746 3.46944 30.746 4.33544V5.93878H14.0821V4.41972C14.0821 3.55373 13.3798 2.85186 12.5148 2.85186C11.6493 2.85186 10.9474 3.55373 10.9474 4.41972V5.93878H4.21513C1.88478 5.93878 0 7.51995 0 9.47226V9.74482V16.5392V37.0678C0 39.1285 1.88478 40.7954 4.21513 40.7954H40.7594C43.0898 40.7954 44.977 39.1285 44.977 37.0678V16.5392V9.74482V9.47226C44.9775 7.51995 43.0902 5.93878 40.7599 5.93878Z" fill="#DBDBDB"/>
<path d="M40.7599 4.0457H33.7338V2.49805H30.9205V4.0457H14.053V2.49805H11.2441V4.0457H4.21562C1.88527 4.0457 0.000488281 5.7141 0.000488281 7.77238V35.0948C0.000488281 37.1556 1.88527 38.8225 4.21562 38.8225H40.7599C43.0902 38.8225 44.9775 37.1556 44.9775 35.0948V7.77238C44.9775 5.7141 43.0902 4.0457 40.7599 4.0457Z" fill="#E6E6E6"/>
<path opacity="0.48" d="M39.9269 37.547H5.05151C3.72171 37.547 2.63342 36.4592 2.63342 35.1289V15.1593C2.63342 13.8295 3.72171 12.7412 5.05151 12.7412H39.9269C41.2567 12.7412 42.3445 13.8295 42.3445 15.1593V35.1289C42.3445 36.4587 41.2567 37.547 39.9269 37.547Z" fill="#CCCCCC"/>
<path d="M40.7599 3.96582H33.7338H32.3267H4.21609C1.88574 3.96582 0.000976562 5.54699 0.000976562 7.49929V14.5657C0.000976562 14.7846 0.0783474 14.9975 0.21389 15.1828H2.8099H42.1646H44.7621C44.8986 14.9975 44.978 14.7846 44.978 14.5657V7.49929C44.9775 5.54699 43.0902 3.96582 40.7599 3.96582ZM30.9205 6.3213H32.3267H33.7338V7.49929C33.7338 8.1499 33.1034 8.67728 32.3267 8.67728C31.5504 8.67728 30.9205 8.1499 30.9205 7.49929V6.3213ZM14.0535 6.3213V7.49929C14.0535 8.1499 13.4271 8.67728 12.6493 8.67728C11.8725 8.67728 11.2441 8.1499 11.2441 7.49929V6.3213H14.0535Z" fill="#0037B3"/>
<path d="M38.6212 5.2793H32.4173H31.1748H6.35469C4.2974 5.2793 2.63293 6.39223 2.63293 7.76638V12.7405C2.63293 12.8948 2.70144 13.0442 2.82121 13.1743H5.11261H39.8603H42.1532C42.274 13.0442 42.344 12.8943 42.344 12.7405V7.76638C42.3445 6.39223 40.6785 5.2793 38.6212 5.2793Z" fill="#0037B3"/>
<path d="M15.0147 7.7787C15.0147 9.15878 13.8953 10.2781 12.5158 10.2781C11.1352 10.2781 10.0164 9.15878 10.0164 7.7787C10.0164 6.39863 11.1357 5.2793 12.5158 5.2793C13.8953 5.2793 15.0147 6.39814 15.0147 7.7787Z" fill="#0037B3"/>
<path d="M34.8127 7.6664C34.8127 9.04647 33.6933 10.1653 32.3137 10.1653C30.9332 10.1653 29.8143 9.04647 29.8143 7.6664C29.8143 6.28584 30.9337 5.16699 32.3137 5.16699C33.6933 5.16699 34.8127 6.28584 34.8127 7.6664Z" fill="#0037B3"/>
<path d="M14.0825 7.23215C14.0825 8.09814 13.3801 8.80001 12.5151 8.80001C11.6496 8.80001 10.9478 8.09814 10.9478 7.23215V2.44774C10.9478 1.58175 11.6496 0.879883 12.5151 0.879883C13.3801 0.879883 14.0825 1.58175 14.0825 2.44774V7.23215Z" fill="#4C4846"/>
<path d="M33.8807 7.14719C33.8807 8.01318 33.1783 8.71505 32.3133 8.71505C31.4478 8.71505 30.746 8.01318 30.746 7.14719V2.36278C30.746 1.49679 31.4478 0.794922 32.3133 0.794922C33.1783 0.794922 33.8807 1.49679 33.8807 2.36278V7.14719Z" fill="#4C4846"/>
<path d="M17.1989 33.0217C16.2862 33.0217 15.4726 32.865 14.7581 32.5515C14.0482 32.2381 13.4836 31.8025 13.0641 31.2447C12.6492 30.6823 12.4233 30.0301 12.3865 29.2879H14.1289C14.1658 29.7443 14.3225 30.1384 14.5991 30.4703C14.8757 30.7976 15.2375 31.0511 15.6847 31.2309C16.1318 31.4107 16.6273 31.5005 17.1713 31.5005C17.7798 31.5005 18.3191 31.3945 18.7893 31.1825C19.2595 30.9704 19.6282 30.6754 19.8956 30.2974C20.163 29.9194 20.2966 29.4815 20.2966 28.9837C20.2966 28.4628 20.1676 28.0041 19.9094 27.6077C19.6513 27.2066 19.2733 26.8932 18.7755 26.6673C18.2776 26.4414 17.6691 26.3285 16.95 26.3285H15.816V24.8073H16.95C17.5124 24.8073 18.0056 24.7059 18.4297 24.5031C18.8584 24.3002 19.1926 24.0144 19.4323 23.6457C19.6766 23.2769 19.7988 22.8436 19.7988 22.3457C19.7988 21.8663 19.6928 21.4492 19.4807 21.0942C19.2687 20.7393 18.9691 20.4627 18.5818 20.2645C18.1992 20.0663 17.7475 19.9672 17.2266 19.9672C16.738 19.9672 16.277 20.0571 15.8437 20.2368C15.415 20.412 15.0647 20.6678 14.7927 21.0043C14.5207 21.3362 14.3732 21.7373 14.3502 22.2075H12.6907C12.7184 21.4653 12.9419 20.8153 13.3614 20.2576C13.7809 19.6952 14.3294 19.2573 15.0071 18.9438C15.6893 18.6304 16.4384 18.4736 17.2543 18.4736C18.1301 18.4736 18.8815 18.6511 19.5084 19.006C20.1353 19.3564 20.617 19.8197 20.9535 20.3959C21.29 20.9721 21.4583 21.5944 21.4583 22.2628C21.4583 23.0602 21.2485 23.7402 20.8291 24.3026C20.4142 24.8649 19.8495 25.2544 19.135 25.4711V25.5817C20.0293 25.7292 20.7276 26.1095 21.2301 26.7226C21.7325 27.3311 21.9838 28.0848 21.9838 28.9837C21.9838 29.7535 21.774 30.4449 21.3546 31.058C20.9397 31.6665 20.3727 32.1459 19.6536 32.4962C18.9345 32.8466 18.1163 33.0217 17.1989 33.0217ZM29.4307 33.0217C28.3889 33.0217 27.5015 32.7382 26.7686 32.1712C26.0357 31.5996 25.4756 30.7722 25.0884 29.6889C24.7012 28.6011 24.5076 27.2873 24.5076 25.7477C24.5076 24.2173 24.7012 22.9104 25.0884 21.8272C25.4802 20.7393 26.0426 19.9095 26.7755 19.3379C27.5131 18.7617 28.3981 18.4736 29.4307 18.4736C30.4633 18.4736 31.346 18.7617 32.0789 19.3379C32.8165 19.9095 33.3789 20.7393 33.7661 21.8272C34.1579 22.9104 34.3538 24.2173 34.3538 25.7477C34.3538 27.2873 34.1602 28.6011 33.773 29.6889C33.3858 30.7722 32.8257 31.5996 32.0928 32.1712C31.3598 32.7382 30.4725 33.0217 29.4307 33.0217ZM29.4307 31.5005C30.4633 31.5005 31.2653 31.0027 31.8369 30.007C32.4085 29.0113 32.6943 27.5915 32.6943 25.7477C32.6943 24.5215 32.563 23.4774 32.3002 22.6154C32.0421 21.7534 31.6687 21.0965 31.1801 20.6448C30.696 20.193 30.1129 19.9672 29.4307 19.9672C28.4073 19.9672 27.6076 20.4719 27.0314 21.4814C26.4552 22.4863 26.167 23.9084 26.167 25.7477C26.167 26.9739 26.2961 28.0156 26.5543 28.873C26.8124 29.7304 27.1835 30.3827 27.6675 30.8298C28.1561 31.277 28.7438 31.5005 29.4307 31.5005Z" fill="#4C4846"/>
<path opacity="0.32" d="M13.1157 7.50095C12.8589 7.50095 12.6489 7.29099 12.6489 7.03419V2.68746C12.6489 2.43067 12.8589 2.2207 13.1157 2.2207C13.3725 2.2207 13.582 2.43067 13.582 2.68746V7.03419C13.5824 7.29099 13.3725 7.50095 13.1157 7.50095Z" fill="white"/>
<path opacity="0.32" d="M32.7939 7.2114C32.5371 7.2114 32.3271 7.00144 32.3271 6.74465V2.39742C32.3271 2.14063 32.5376 1.93066 32.7939 1.93066C33.0507 1.93066 33.2607 2.14063 33.2607 2.39742V6.74465C33.2607 7.00094 33.0507 7.2114 32.7939 7.2114Z" fill="white"/>
</svg>
