<svg width="63" height="56" viewBox="0 0 63 56" fill="none" xmlns="http://www.w3.org/2000/svg">
<path d="M58.785 31.1581H59.5567L59.1118 30.5275L50.2488 17.9654L50.1293 17.796H49.922H12.723H12.5157L12.3961 17.9654L3.53315 30.5275L3.08823 31.1581H3.85999H58.785Z" fill="white" stroke="#C7CED8" stroke-width="0.8"/>
<path d="M11.767 32.3581H11.367V32.7581V51.8801V52.2801H11.767H50.878H51.278V51.8801V32.7581V32.3581H50.878H11.767Z" fill="white" stroke="#C7CED8" stroke-width="0.8"/>
<path d="M19.6591 9.53201H19.2591V9.93201V16.196V16.596H19.6591H42.9861H43.3861V16.196V9.93201V9.53201H42.9861H19.6591Z" fill="white" stroke="#C7CED8" stroke-width="0.8"/>
<path d="M18.213 7.93201L31.171 0L44.432 7.93201H18.213Z" fill="#377DFF"/>
<path d="M20.902 45.151C20.842 43.767 19.71 42.661 18.311 42.661C16.912 42.661 15.78 43.767 15.72 45.151H15.709V51.88H20.913V45.151H20.902Z" fill="#C7CED8"/>
<path d="M38.25 45.151C38.19 43.767 37.058 42.661 35.659 42.661C34.26 42.661 33.128 43.767 33.068 45.151H33.057V51.88H38.261V45.151H38.25Z" fill="#C7CED8"/>
<path d="M46.924 45.151C46.864 43.767 45.7319 42.661 44.3329 42.661C42.9339 42.661 41.8019 43.767 41.7419 45.151H41.731V51.88H46.935V45.151H46.924Z" fill="#C7CED8"/>
<path d="M29.576 45.151C29.516 43.767 28.384 42.661 26.985 42.661C25.586 42.661 24.454 43.767 24.394 45.151H24.3831V51.88H29.587V45.151H29.576Z" fill="#C7CED8"/>
<path d="M21.78 22.327C21.731 21.194 20.8041 20.288 19.6591 20.288C18.5141 20.288 17.5871 21.194 17.5381 22.327H17.5291V27.837H21.79V22.327H21.78Z" fill="#C7CED8"/>
<path d="M45.107 22.327C45.058 21.194 44.131 20.288 42.986 20.288C41.841 20.288 40.914 21.194 40.865 22.327H40.856V27.837H45.1169V22.327H45.107Z" fill="#C7CED8"/>
<path d="M33.444 22.327C33.395 21.194 32.468 20.288 31.323 20.288C30.178 20.288 29.251 21.194 29.202 22.327H29.193V27.837H33.454V22.327H33.444Z" fill="#C7CED8"/>
<path d="M5.15002 32.3581H4.75002V32.7581V51.8801V52.2801H5.15002H8.76703H9.16703V51.8801V32.7581V32.3581H8.76703H5.15002Z" fill="white" stroke="#C7CED8" stroke-width="0.8"/>
<path d="M53.8781 32.3581H53.4781V32.7581V51.8801V52.2801H53.8781H57.4951H57.8951V51.8801V32.7581V32.3581H57.4951H53.8781Z" fill="white" stroke="#C7CED8" stroke-width="0.8"/>
<path d="M62.645 51.881H0V55.828H62.645V51.881Z" fill="#377DFF"/>
</svg>
