<svg height="512pt" viewBox="-11 0 512 512" width="512pt" xmlns="http://www.w3.org/2000/svg"><path d="m479.253906 338.949219c6.980469-22.753907 10.746094-46.910157 10.746094-71.949219 0-135.308594-109.691406-245-245-245s-245 109.691406-245 245c0 25.039062 3.765625 49.195312 10.746094 71.949219zm0 0" fill="#ef4a8a"/><path d="m73.273438 214.433594h-27.757813c-7.871094 0-14.25 6.382812-14.25 14.253906s6.382813 14.25 14.25 14.25h27.757813c7.871093 0 14.253906-6.378906 14.253906-14.25s-6.382813-14.253906-14.253906-14.253906zm0 0" fill="#284cb2"/><path d="m56.640625 228.6875c0-7.871094 6.378906-14.253906 14.253906-14.253906h-25.378906c-7.871094 0-14.25 6.382812-14.25 14.253906s6.382813 14.25 14.25 14.25h25.378906c-7.871093 0-14.253906-6.378906-14.253906-14.25zm0 0" fill="#122894"/><path d="m208.558594 175.109375v26.375c0 7.003906 5.679687 12.6875 12.6875 12.6875h82.347656c7.007812 0 12.6875-5.679687 12.6875-12.6875v-26.375zm0 0" fill="#122894"/><path d="m252.457031 201.484375v-26.375h-43.898437v26.375c0 7.003906 5.679687 12.6875 12.6875 12.6875h43.898437c-7.007812 0-12.6875-5.683594-12.6875-12.6875zm0 0" fill="#012481"/><path d="m285.820312 213.113281h-46.800781c-14.242187 0-25.789062 11.546875-25.789062 25.789063v4.828125h98.375v-4.828125c0-14.242188-11.546875-25.789063-25.785157-25.789063zm0 0" fill="#284cb2"/><path d="m265.996094 213.113281h-26.976563c-14.242187 0-25.785156 11.546875-25.785156 25.789063v4.828125h36.5625v-4.828125c0-14.242188 7.253906-25.789063 16.199219-25.789063zm0 0" fill="#122894"/><path d="m107.289062 264.136719v61.820312h372.261719v-61.820312c0-12.382813-10.132812-22.519531-22.515625-22.519531h-372.265625c12.386719 0 22.519531 10.132812 22.519531 22.519531zm0 0" fill="#e8f3fc"/><path d="m136.148438 486.53125c32.792968 16.292969 69.75 25.46875 108.851562 25.46875 39.105469 0 76.0625-9.171875 108.855469-25.46875zm0 0" fill="#e8f3fc"/><path d="m153.527344 494.339844v-232.648438c0-8.882812 5.320312-16.582031 12.933594-20.074218h-81.691407c12.386719 0 22.519531 10.136718 22.519531 22.519531v205.515625c14.390626 9.796875 29.878907 18.09375 46.238282 24.6875zm0 0" fill="#b7dbf6"/><path d="m108.34375 324.230469v146.140625c9.953125 6.699218 20.421875 12.683594 31.335938 17.890625h33.554687c-19.878906-21.605469-32.039063-50.414063-32.039063-82.019531 0-31.601563 12.160157-60.414063 32.039063-82.011719zm0 0" fill="#5488e2"/><path d="m153.527344 459.46875c-7.890625-16.078125-12.332032-34.140625-12.332032-53.222656 0-19.085938 4.441407-37.148438 12.332032-53.222656v-28.792969h-45.183594v146.144531c9.953125 6.699219 20.421875 12.679688 31.335938 17.886719h13.847656zm0 0" fill="#284cb2"/><path d="m479.554688 337.949219v-13.71875h-127.953126c19.882813 21.601562 32.042969 50.414062 32.042969 82.015625 0 31.066406-11.761719 59.433594-31.046875 80.910156 60.605469-29.679688 107.148438-83.636719 126.957032-149.207031zm0 0" fill="#5488e2"/><path d="m364.875 343.441406c9.804688-1.828125 17.230469-10.410156 17.230469-20.742187 0-11.660157-9.453125-21.113281-21.113281-21.113281-9.140626 0-16.902344 5.820312-19.839844 13.945312 9.234375 8.042969 17.246094 17.453125 23.722656 27.910156zm0 0" fill="#122894"/><path d="m364.875 343.441406c9.804688-1.828125 17.230469-10.410156 17.230469-20.742187 0-11.660157-9.453125-21.113281-21.113281-21.113281-9.140626 0-16.902344 5.820312-19.839844 13.945312 9.234375 8.042969 17.246094 17.453125 23.722656 27.910156zm0 0" fill="#1d3ba8"/><path d="m359.34375 329.808594c0-9.867188 8-17.867188 17.867188-17.867188.675781 0 1.339843.042969 1.992187.117188-3.664063-6.257813-10.4375-10.472656-18.214844-10.472656-9.136719 0-16.898437 5.820312-19.835937 13.945312 7.691406 6.699219 14.519531 14.359375 20.335937 22.769531-1.367187-2.527343-2.144531-5.417969-2.144531-8.492187zm0 0" fill="#122894"/><path d="m262.417969 283.4375c-67.714844 0-122.808594 55.089844-122.808594 122.804688 0 41.035156 20.234375 77.429687 51.242187 99.742187 17.421876 3.929687 35.539063 6.015625 54.148438 6.015625 40.078125 0 77.90625-9.625 111.308594-26.6875 18.03125-21.382812 28.917968-48.976562 28.917968-79.070312 0-67.714844-55.089843-122.804688-122.808593-122.804688zm0 0" fill="#284cb2"/><path d="m319.820312 499.949219c-3.113281-4.046875-3.9375-8.984375-2.816406-13.445313.59375-2.375-.886718-4.832031-3.277344-5.371094-6.96875-1.5625-13.320312-5.839843-17.332031-12.421874-3.972656-6.523438-4.878906-14.054688-3.132812-20.917969.574219-2.265625-.699219-4.613281-2.929688-5.308594-15.566406-4.828125-29.507812-15.117187-38.632812-30.097656-9.121094-14.972657-11.875-32.066407-9.035157-48.105469.40625-2.292969-1.09375-4.503906-3.367187-5.03125-6.886719-1.601562-13.152344-5.859375-17.125-12.375-4.007813-6.582031-4.898437-14.1875-3.089844-21.097656.625-2.382813-.902343-4.8125-3.300781-5.382813-3.9375-.933593-7.515625-3.375-9.789062-7.105469-3.085938-5.066406-2.953126-11.179687-.203126-15.992187-39.292968 20.507813-66.179687 61.640625-66.179687 108.945313 0 41.035156 20.234375 77.425781 51.242187 99.738281 17.421876 3.933593 35.539063 6.019531 54.148438 6.019531 26.191406 0 51.414062-4.136719 75.074219-11.746094-.082031-.101562-.171875-.199218-.253907-.304687zm0 0" fill="#1d3ba8"/><path d="m262.417969 311.941406c-52 0-94.304688 42.304688-94.304688 94.300782 0 52 42.304688 94.308593 94.304688 94.308593s94.304687-42.308593 94.304687-94.308593c0-51.996094-42.304687-94.300782-94.304687-94.300782zm0 0" fill="#55f3ff"/><path d="m262.417969 311.941406c-52 0-94.304688 42.304688-94.304688 94.300782 0 52 42.304688 94.308593 94.304688 94.308593s94.304687-42.308593 94.304687-94.308593c0-51.996094-42.304687-94.300782-94.304687-94.300782zm0 0" fill="#55f3ff"/><g fill="#06daf7"><path d="m313.726562 481.136719c-6.96875-1.566407-13.320312-5.839844-17.332031-12.421875-3.972656-6.527344-4.878906-14.058594-3.132812-20.921875.574219-2.261719-.699219-4.613281-2.929688-5.304688-15.566406-4.832031-29.507812-15.121093-38.632812-30.101562-9.121094-14.972657-11.875-32.0625-9.035157-48.101563.40625-2.296875-1.09375-4.507812-3.367187-5.035156-6.886719-1.601562-13.152344-5.855469-17.125-12.375-4.007813-6.582031-4.898437-14.1875-3.089844-21.097656.28125-1.078125.105469-2.15625-.371093-3.078125-30.050782 15.789062-50.597657 47.308593-50.597657 83.542969 0 52 42.304688 94.308593 94.304688 94.308593 20.152343 0 38.84375-6.359375 54.1875-17.167969-.574219-1.097656-1.585938-1.957031-2.878907-2.246093zm0 0"/><path d="m262.417969 357.058594c-27.121094 0-49.1875 22.0625-49.1875 49.183594 0 27.125 22.066406 49.1875 49.1875 49.1875 27.121093 0 49.1875-22.0625 49.1875-49.1875 0-27.121094-22.066407-49.183594-49.1875-49.183594zm0 0"/><path d="m262.417969 357.058594c-27.121094 0-49.1875 22.0625-49.1875 49.183594 0 27.125 22.066406 49.1875 49.1875 49.1875 27.121093 0 49.1875-22.0625 49.1875-49.1875 0-27.121094-22.066407-49.183594-49.1875-49.183594zm0 0"/></g><path d="m292.945312 444.769531c-.507812-1.054687-1.417968-1.910156-2.613281-2.285156-15.566406-4.828125-29.507812-15.117187-38.632812-30.097656-9.121094-14.972657-11.875-32.066407-9.035157-48.105469.179688-1.011719-.03125-2-.496093-2.84375-17.046875 7.734375-28.9375 24.902344-28.9375 44.804688 0 27.125 22.066406 49.1875 49.1875 49.1875 11.527343 0 22.132812-3.996094 30.527343-10.660157zm0 0" fill="#05b8e2"/><path d="m86.882812 241.617188h-53.917968c-12.386719 0-22.519532 10.132812-22.519532 22.519531v73.808593c16.632813 55.0625 52.117188 101.9375 98.957032 133.121094v-206.929687c0-12.386719-10.132813-22.519531-22.519532-22.519531zm0 0" fill="#e8f3fc"/><path d="m58.867188 264.136719c0-12.382813 10.132812-22.519531 22.519531-22.519531h-48.421875c-12.386719 0-22.519532 10.136718-22.519532 22.519531v73.8125c9.941407 32.902343 26.617188 62.878906 48.421876 88.335937zm0 0" fill="#b7dbf6"/><path d="m433.304688 269.183594h-20.367188c-7.871094 0-14.25 6.382812-14.25 14.253906s6.378906 14.25 14.25 14.25h20.367188c7.871093 0 14.25-6.378906 14.25-14.25s-6.378907-14.253906-14.25-14.253906zm0 0" fill="#5488e2"/><path d="m420.121094 283.4375c0-7.691406 6.09375-13.941406 13.71875-14.226562-.179688-.007813-.355469-.027344-.535156-.027344h-20.367188c-7.871094 0-14.253906 6.382812-14.253906 14.253906s6.382812 14.25 14.253906 14.25h20.367188c.179687 0 .355468-.019531.535156-.027344-7.625-.28125-13.71875-6.53125-13.71875-14.222656zm0 0" fill="#284cb2"/><path d="m333.5625 177.222656h-142.289062c-6.964844 0-12.667969-5.703125-12.667969-12.667968v-151.886719c0-6.96875 5.703125-12.667969 12.667969-12.667969h142.289062c6.964844 0 12.667969 5.699219 12.667969 12.667969v151.886719c0 6.96875-5.699219 12.667968-12.667969 12.667968zm0 0" fill="#284cb2"/><path d="m239.613281 164.554688v-151.886719c0-6.96875 5.703125-12.667969 12.667969-12.667969h-61.007812c-6.964844 0-12.667969 5.699219-12.667969 12.667969v151.886719c0 6.96875 5.703125 12.667968 12.667969 12.667968h61.007812c-6.964844 0-12.667969-5.699218-12.667969-12.667968zm0 0" fill="#122894"/><path d="m277.394531 127.398438h-29.953125c-4.371094 0-7.917968-3.542969-7.917968-7.917969 0-4.371094 3.546874-7.917969 7.917968-7.917969h29.953125c4.375 0 7.917969 3.546875 7.917969 7.917969 0 4.375-3.542969 7.917969-7.917969 7.917969zm0 0" fill="#5488e2"/><path d="m308.28125 28.503906h-91.726562c-5.214844 0-9.445313 4.226563-9.445313 9.445313v41.214843c0 5.21875 4.230469 9.445313 9.445313 9.445313h91.726562c5.214844 0 9.445312-4.226563 9.445312-9.445313v-41.214843c0-5.21875-4.230468-9.445313-9.445312-9.445313zm0 0" fill="#55f3ff"/><path d="m234.441406 79.757812v-42.402343c0-3.941407 2.355469-7.332031 5.734375-8.851563h-23.621093c-5.214844 0-9.445313 4.226563-9.445313 9.441406v41.21875c0 5.21875 4.230469 9.445313 9.445313 9.445313h23.621093c-3.378906-1.519531-5.734375-4.910156-5.734375-8.851563zm0 0" fill="#06daf7"/></svg>