<svg id="Capa_1" enable-background="new 0 0 512 512" height="512" viewBox="0 0 512 512" width="512" xmlns="http://www.w3.org/2000/svg"><g><g><path d="m219.971 380.269h40v57.731h-40z" fill="#d8ecfe"/><g><path d="m28 283.39c0-14 11.39-25.39 25.39-25.39h1.221c6.941 0 13.425 2.754 18.257 7.754l1.719 1.779v-28.572c0-30.773 25.036-55.809 55.809-55.809h4.758c46.753 0 84.789 38.037 84.789 84.79v73.058h266.869l3.128-1c7.186-23.057 11.06-47.576 11.06-73 0-135.31-109.69-245-245-245s-245 109.69-245 245c0 30.725 5.672 60.122 16 87.221l1 .37z" fill="#d8ecfe"/></g></g><path d="m74.586 267.534-1-2.474c-4.799-4.967-11.524-8.06-18.976-8.06h-1.22c-14.575 0-26.39 11.815-26.39 26.39v70.831c10.796 28.328 26.705 54.152 46.586 76.316l1-1.537z" fill="#26a6fe"/><path d="m48 283.39c0-11.074 6.824-20.549 16.494-24.464-3.053-1.237-6.386-1.926-9.884-1.926h-1.22c-14.575 0-26.39 11.815-26.39 26.39v70.831c5.65 14.825 12.713 28.956 21 42.244z" fill="#0593fc"/><g fill="#8d9cdb"><path d="m364.236 272.547-37.225 50.453h18.641l18.584-25.188z"/><path d="m377.236 272.547v25.265l18.585 25.188h18.642z"/></g><g><path d="m432.825 142.647v-6.372c0-2.913-2.362-5.275-5.275-5.275h-13.406c-2.913 0-5.275 2.362-5.275 5.275v6.372z" fill="#7a8ccb"/><path d="m424.275 131h-10.131c-2.913 0-5.275 2.362-5.275 5.275v6.372h10.131v-6.372c0-2.913 2.362-5.275 5.275-5.275z" fill="#596ca9"/><path d="m402.658 142.647v-6.372c0-2.913-2.362-5.275-5.275-5.275h-13.406c-2.913 0-5.275 2.362-5.275 5.275v6.372z" fill="#596ca9"/><path d="m394.275 131h-10.298c-2.913 0-5.275 2.362-5.275 5.275v6.372h10.298v-6.372c0-2.913 2.362-5.275 5.275-5.275z" fill="#465a94"/><g><path d="m363.236 241.61h15v81.39h-15z" fill="#9faced"/></g><path d="m350.461 224.605v12.729c0 2.913 2.362 5.275 5.275 5.275h30.001c2.913 0 5.275-2.362 5.275-5.275v-12.729z" fill="#fff"/><path d="m371.449 237.335v-12.729h-20.988v12.729c0 2.913 2.362 5.275 5.275 5.275h20.988c-2.913 0-5.275-2.362-5.275-5.275z" fill="#f5f8f9"/><path d="m437.198 141.647h-95.542c.539 1.154.848 2.435.848 3.789v77.505l1 2.664h93.695c2.913 0 5.275-2.362 5.275-5.275v-73.408c-.001-2.913-2.362-5.275-5.276-5.275z" fill="#9faced"/><g><circle cx="417" cy="203.575" fill="#596ca9" r="9.495"/></g><g><path d="m343.503 225.606h-34.503c-5.523 0-10-4.477-10-10v-70.169c0-5.523 4.477-10 10-10h24.503c5.523 0 10 4.477 10 10z" fill="#7a8ccb"/></g><g><circle cx="388.94" cy="183.626" fill="#7a8ccb" r="33.994"/></g><g><circle cx="388.94" cy="183.626" fill="#596ca9" r="19.59"/></g><g fill="#465a94"><path d="m383 183.626c0-8.415 5.316-15.57 12.765-18.343-2.128-.792-4.421-1.247-6.825-1.247-10.819 0-19.59 8.771-19.59 19.59s8.771 19.59 19.59 19.59c2.404 0 4.697-.454 6.825-1.246-7.449-2.774-12.765-9.928-12.765-18.344z"/><path d="m299 202h14c2.761 0 5-2.239 5-5v-32c0-2.761-2.239-5-5-5h-14z"/></g></g><g><path d="m280 297h10.899l-27.987-45.188c-2.617-4.226-8.164-5.53-12.39-2.913s-5.53 8.164-2.913 12.39l23.907 38.6c2.357-1.804 5.293-2.889 8.484-2.889z" fill="#26a6fe"/></g><g><path d="m279.83 297.009-22.122-35.719c-2.551-4.119-1.368-9.487 2.608-12.179-2.848-1.932-6.679-2.14-9.794-.211-4.226 2.617-5.53 8.164-2.913 12.39l23.907 38.6c2.315-1.773 5.189-2.844 8.314-2.881z" fill="#0593fc"/></g><path d="m313.263 341h124.737v-14c0-2.761-2.239-5-5-5h-119.737z" fill="#fff"/><path d="m315.088 329.878c6.51-.329 13.075.803 19.175 3.381v-11.259h-21v8.488c.526-.354 1.149-.576 1.825-.61z" fill="#f5f8f9"/><g><g><path d="m278.039 126.76 11.091-41.391-1.894-1.543-53.536-14.345c-1.117-.299-2.269-.451-3.423-.451-4.216 0-8.213 2.035-10.693 5.445l-22.319 27.484c-.382.47-.947.74-1.553.74-.174 0-.349-.023-.518-.068l-4.828-1.293c-.516-.139-.947-.47-1.215-.932-.267-.463-.338-1.001-.199-1.517l2.532-9.453c1.461-5.45.61-10.608-2.394-14.523s-7.767-6.071-13.409-6.071c-11.461 0-23.197 9.006-26.164 20.077l-1.458 5.442c-1.943 7.253.266 14.955 5.763 20.1.763.714.833 1.908.161 2.717l-10.515 12.651c-.762.918-1.883 1.444-3.076 1.444-.349 0-.697-.046-1.035-.137l-6.995-1.875-1.047.755-14.7 54.862c4.409-1.124 9.025-1.725 13.78-1.725h4.758c16.047 0 31.067 4.483 43.875 12.259l4.161-15.531c.715-2.667 3.456-4.25 6.124-3.536l25.275 6.772c19.911 5.335 40.254-3.045 51.034-19.338l12.915 3.46c6.102 1.635 11.574-4.171 9.581-10.165z" fill="#fed2a4"/><path d="m130.395 183.152h4.758c.185 0 .367.013.552.014l16.779-62.621-8.245 9.922c-1.247 1.501-3.255 2.139-5.14 1.634l-7.783-2.085-14.7 54.862c4.408-1.125 9.024-1.726 13.779-1.726z" fill="#ffbd86"/><path d="m220.942 438v-170.058c0-47.38-38.41-85.79-85.79-85.79h-4.757c-31.375 0-56.809 25.434-56.809 56.809v191.575c1.967 2.192 3.977 4.344 6.021 6.463l3.533 1h137.802z" fill="#fff"/><path d="m104.644 437v-198.039c0-27.319 19.287-50.127 44.985-55.569-4.709-.801-9.54-1.241-14.477-1.241h-4.757c-31.375 0-56.809 25.434-56.809 56.809v191.575c1.967 2.192 3.977 4.344 6.021 6.463h25.037z" fill="#f5f8f9"/><path d="m260 437h-180.394c44.563 46.232 107.11 75 176.394 75 1.003 0 2-.025 3-.038l1-3.748z" fill="#7a8ccb"/><path d="m465.686 380.269h-206.686v131.693c11.198-.135 22.212-1.013 33-2.601l1-1.161v-64.2c0-4.962 4.037-9 9-9h130.928l2.315-1c14.704-15.776 27.342-33.495 37.505-52.731z" fill="#fe9901"/><g><path d="m249.345 136.683c-.643 0-1.296-.083-1.946-.257-4.001-1.072-6.375-5.185-5.303-9.186l3.869-14.439c1.071-4.001 5.184-6.372 9.186-5.303 4.001 1.072 6.375 5.185 5.303 9.186l-3.869 14.439c-.898 3.35-3.929 5.56-7.24 5.56z" fill="#d88a55"/></g><g><path d="m307.13 30.712-108.116-28.97c-6.099-1.634-12.237-2.085-18.169-1.494-24.408 2.434-43.133 22.842-44.598 47.326l-4.931 82.44 7.783 2.085c1.885.505 3.892-.133 5.14-1.634l10.514-12.652c1.009-1.215.906-3.007-.247-4.086-5.041-4.717-7.392-11.976-5.48-19.111l1.458-5.442c2.849-10.634 14.189-19.335 25.198-19.335 11.01 0 17.686 8.701 14.836 19.335l-2.533 9.452c-.429 1.6.521 3.245 2.121 3.674l4.828 1.294c1.143.306 2.359-.088 3.105-1.007l22.351-27.526c2.976-4.09 8.163-5.925 13.049-4.616l55.688 14.922 25.226-33.856c5.62-7.537 1.858-18.366-7.223-20.799z" fill="#bb5d4c"/></g><g><path d="m153.36 112.55c-4.236-4.699-6.094-11.365-4.334-17.932l1.458-5.442c.881-3.287 2.576-6.387 4.819-9.105l1.944-32.496c1.353-22.626 17.451-41.758 39.148-46.455-5.232-1.113-10.467-1.378-15.55-.871-24.408 2.434-43.133 22.842-44.598 47.326l-4.931 82.44 7.783 2.085c1.885.505 3.892-.133 5.14-1.634l8.674-10.438z" fill="#a44f3e"/></g></g><path d="m204 346.069c0-2.795 2.273-5.069 5.068-5.069h56.932v-30c0-1.835.365-3.585 1.01-5.193h-102.833l-17.501-60.133c-3.564-12.247-16.381-19.286-28.63-15.722-12.248 3.564-19.287 16.382-15.722 28.63l22.344 76.775c2.87 9.861 11.906 16.642 22.176 16.642h57.156z" fill="#9faced"/><path d="m145.66 335.358-22.344-76.775c-3.151-10.825 1.985-22.091 11.677-27.024-5.056-2.579-11.064-3.317-16.945-1.606-12.248 3.564-19.287 16.382-15.722 28.63l22.344 76.775c2.87 9.861 11.906 16.642 22.176 16.642h20.99c-10.27 0-19.307-6.781-22.176-16.642z" fill="#8d9cdb"/></g><path d="m314.262 341v-30c0-8.25-6.75-15-15-15h-19.262c-8.25 0-15 6.75-15 15v30z" fill="#fed2a4"/><path d="m286 341v-30c0-7.957 6.284-14.5 14.131-14.956-.289-.017-.576-.044-.869-.044h-19.262c-8.25 0-15 6.75-15 15v30z" fill="#ffbd86"/><g><path d="m489.922 340h-280.853c-3.352 0-6.069 2.717-6.069 6.069v29.131c0 3.352 2.717 6.069 6.069 6.069h263.678c6.922-13.1 12.693-26.899 17.175-41.269z" fill="#fe9901"/></g><g fill="#fb8801"><path d="m313.286 379.309c-.637-3.101 1.732-6.006 4.898-6.006h15.4c-3.302-1.881-6.413-4.22-9.23-7.038-1.878-1.878-3.535-3.89-4.997-5.997h-77.287c-3.352 0-6.069-2.717-6.069-6.069v-14.199h-26.931c-3.352 0-6.069 2.717-6.069 6.069v29.131c0 3.352 2.717 6.069 6.069 6.069h104.62z"/><path d="m397.98 360.269c-1.462 2.107-3.12 4.119-4.997 5.997-2.817 2.817-5.929 5.157-9.231 7.038h15.4c3.166 0 5.535 2.905 4.898 6.006l-.402 1.959h69.1c3.601-6.815 6.883-13.824 9.842-21z"/></g><g><path d="m335.43 374.304h25.342c.258-11.46-3.963-23.001-12.709-31.747-9.058-9.058-21.115-13.278-32.974-12.678-1.848.093-3.32 1.565-3.413 3.413-.599 11.86 3.62 23.916 12.678 32.974 3.337 3.337 7.084 6.013 11.076 8.038z" fill="#97d729"/><path d="m335.43 374.304h25.274c-6.979-1.94-13.57-5.639-19.058-11.127-8.751-8.751-12.972-20.301-12.709-31.768-4.519-1.249-9.198-1.766-13.849-1.531-1.848.093-3.32 1.565-3.413 3.413-.599 11.86 3.62 23.916 12.678 32.974 3.338 3.338 7.085 6.014 11.077 8.039z" fill="#8bc727"/><path d="m381.906 374.304c3.992-2.025 7.739-4.7 11.077-8.038 9.058-9.058 13.278-21.115 12.678-32.974-.094-1.848-1.565-3.32-3.413-3.413-11.86-.599-23.917 3.62-32.974 12.678-8.746 8.746-12.967 20.287-12.709 31.747z" fill="#8bc727"/><path d="m405.661 333.291c-.094-1.848-1.565-3.32-3.413-3.413-11.86-.599-23.917 3.62-32.974 12.678-8.746 8.746-12.967 20.287-12.709 31.747h11.712c1.282-8.989 5.365-17.654 12.28-24.569 7.055-7.055 15.93-11.161 25.113-12.355.058-1.362.06-2.726-.009-4.088z" fill="#81b823"/></g><path d="m324.724 435h67.888l11.438-55.691c.637-3.101-1.732-6.006-4.898-6.006h-80.968c-3.166 0-5.535 2.905-4.898 6.006z" fill="#fff"/><path d="m350.002 373.303h-31.818c-3.166 0-5.535 2.905-4.898 6.006l11.438 55.691h31.818l-11.438-55.691c-.637-3.101 1.732-6.006 4.898-6.006z" fill="#f5f8f9"/><g><path d="m435.243 434h-133.243c-5.523 0-10 4.477-10 10v65.361c56.237-8.283 106.248-35.671 143.243-75.361z" fill="#bb5d4c"/></g><g><path d="m323.757 444c0-5.523 4.477-10 10-10h-31.757c-5.523 0-10 4.477-10 10v65.361c10.834-1.596 21.434-3.907 31.757-6.873z" fill="#a44f3e"/></g></g></svg>