<svg id="Avatar_Flat" height="512" viewBox="0 0 128 128" width="512" xmlns="http://www.w3.org/2000/svg" data-name="Avatar Flat"><path d="m108.53 85.79c-8.83-13.02-12.15-20.2-11.33-30.96.59-7.78.46-18.32-7.33-29.6-11.12-4.647-24.094-2.675-34.1.3-13.86 4.137-21.77 11.033-26.31 16.64a67.919 67.919 0 0 0 -.55 16.52c.12 1.7.32 3.46.57 5.27 2.1 16.37-31.65 32.84-.48 49.57 27.125 7.55 40.5 7.55 69.9-.26 0 0 23.15-7.55 9.63-27.48z" fill="#f4e9d0"/><path d="m41.917 58.771c.18 2.84.312 5.458-1.147 7.589-3.94 1.05-8.21-2.46-8.97-6.25a11.5 11.5 0 0 1 -.2-1.64c-.14-2.72.64-5.97 3.69-6.88a9.51 9.51 0 0 1 4.34.1c1.683 1.727 2.17 5.171 2.287 7.081z" fill="#ffb497"/><path d="m39.811 59.8a1 1 0 0 1 -.913-.589 1.9 1.9 0 0 0 -2.343-1.28 1 1 0 0 1 -.389-1.962 3.856 3.856 0 0 1 4.555 2.419 1 1 0 0 1 -.91 1.412z" fill="#ff7364"/><path d="m94.89 119.09a31.908 31.908 0 0 1 -4.63 1.99c-5.17 1.82-13.67 3.81-25.27 3.91-.33.01-.66.01-.99.01s-.68 0-1.01-.01c-11.59-.1-20.08-2.09-25.25-3.91a31.908 31.908 0 0 1 -4.63-1.99c-2.78-1.53-4.74-3.18-4.01-5.82a6.386 6.386 0 0 1 .82-1.8c1.4-2.24 4.34-5.34 8.96-9.31a65.543 65.543 0 0 1 7.6-4.83c4.22-2.27 9.37-3.13 10.98-9.46a16.434 16.434 0 0 0 .48-3.33c1.99.76 10.13.76 12.12 0a17.225 17.225 0 0 0 .45 3.23c1.58 6.42 6.77 7.28 11.01 9.56a65.543 65.543 0 0 1 7.6 4.83c4.62 3.97 7.56 7.07 8.96 9.31a6.386 6.386 0 0 1 .82 1.8c.73 2.64-1.23 4.29-4.01 5.82z" fill="#ffb497"/><path d="m70.51 87.77a11.917 11.917 0 0 1 -6.59 1.86 12.058 12.058 0 0 1 -6.46-1.76 16.434 16.434 0 0 0 .48-3.33c1.99.76 10.13.76 12.12 0a17.225 17.225 0 0 0 .45 3.23z" fill="#ff7364"/><path d="m76.16 63.08a19.29 19.29 0 0 0 11.08 3.18c-1.52 6.59-4.27 10.72-9.68 14.28a40.156 40.156 0 0 1 -7.5 4 17.242 17.242 0 0 1 -6.07 1.25 17.306 17.306 0 0 1 -6.2-1.3 40.417 40.417 0 0 1 -7.38-3.95 20.641 20.641 0 0 1 -9.64-14.18 51.429 51.429 0 0 1 -.96-7.56c-.12-1.91-.18-3.98-.19-6.23 0-.3 0-.59.01-.88a30.082 30.082 0 0 1 2.48-11.86c5.2-6.642 15.39-9.142 21.55-5.65 1.71 7.04-.44 19.85 12.5 28.9z" fill="#fccaaf"/><path d="m96.43 15.07c3.56.5 5.01 2.94 1.71 5.89-1.22 1.09-4.18 2.58-8.27 4.27-6.62 2.74-16.2 6-26.21 8.95-7.29 2.15-14.8 4.14-21.55 5.65-4.69 1.05-9.02 1.86-12.65 2.34a40.475 40.475 0 0 1 -7.31.42c-2.12-.14-3.35-.98-3.78-2.41-1.31-4.34 7.43-8.44 11.45-10.15a2.5 2.5 0 0 0 1.52-2.19c.23-4.94 2.63-20.1 23.2-24.15 17.25-3.4 25.75 6.7 28.19 10.35a2.439 2.439 0 0 0 2.33 1.07 47.565 47.565 0 0 1 11.37-.04z" fill="#4b3956"/><path d="m64.99 124.94v.05c-.33.01-.66.01-.99.01s-.68 0-1.01-.01c-.05-.83-.42-7.47.04-10.31a1 1 0 0 1 1.15-.83 1.019 1.019 0 0 1 .83 1.15c-.45 2.75-.03 9.87-.02 9.94z" fill="#ff7364"/><path d="m86.06 100.02c.23-.44.45-.89.65-1.34.17-.38 1.37-.4 1.73.66a22.2 22.2 0 0 1 .68 2.82c1.08 5.57 1.88 15.35 1.14 18.92-5.32 1.87-14.16 3.92-26.27 3.92 1.18-4.5 16-13.28 22.07-24.98z" fill="#4b3956"/><path d="m41.91 100.02c6.07 11.7 20.89 20.48 22.08 24.98-12.12 0-20.96-2.05-26.28-3.92-.73-3.57.06-13.34 1.14-18.92a21.978 21.978 0 0 1 .69-2.82c.35-1.06 1.55-1.04 1.72-.66.2.45.42.9.65 1.34z" fill="#4b3956"/><path d="m43.267 44.885a12.582 12.582 0 0 1 6.522-2.219 21.4 21.4 0 0 1 3.453 0c.577.041 1.153.116 1.733.215a8.8 8.8 0 0 1 1.819.485 1 1 0 0 1 -.76 1.852l-.056-.025-.039-.019a11.608 11.608 0 0 0 -2.9-.789 19.989 19.989 0 0 0 -3.179-.257 11.452 11.452 0 0 0 -6.051 1.511l-.014.009a.463.463 0 0 1 -.525-.762z" fill="#4b3956"/><ellipse cx="51.424" cy="55.57" fill="#5c4666" rx="2.611" ry="1.728"/><path d="m38.06 81.939a1 1 0 0 1 -1-1v-10.506a1 1 0 0 1 2 0v10.506a1 1 0 0 1 -1 1z" fill="#fff"/><path d="m86.243 66.337a10.138 10.138 0 0 0 6.543-3.464c-4.086-1.713-5.371-3.649-5.456-8.023a21.992 21.992 0 0 1 .173-2.46c.436-4.262 1.167-11.39-4.014-19.79a1 1 0 1 1 1.7-1.05c5.539 8.967 4.734 16.82 4.3 21.039a21.365 21.365 0 0 0 -.162 2.218c.071 3.722.937 4.915 4.629 6.378a1.538 1.538 0 0 1 1.044 1.696c-.3 1.971-8.716 3.98-8.757 3.456z" fill="#e2c7a3"/><g fill="#ff7364"><path d="m70.788 67.516a1 1 0 0 0 -1.4.186 1.1 1.1 0 0 1 -1.1.272l-1.849-.81c-.033-.014-.065-.026-.1-.037a2.989 2.989 0 0 0 -2.347.228 3 3 0 0 0 -2.351-.228c-.032.011-.065.023-.1.037l-1.851.81a1.111 1.111 0 0 1 -1.1-.272 1 1 0 1 0 -1.59 1.216 3 3 0 0 0 2.385 1.1 2.785 2.785 0 0 0 1.11-.216l1.8-.785a1.027 1.027 0 0 1 1 .276.969.969 0 0 0 .165.107 1.01 1.01 0 0 0 .165.107 1.13 1.13 0 0 0 .143.028 1.05 1.05 0 0 0 .233.043 1.076 1.076 0 0 0 .158-.031 1.007 1.007 0 0 0 .217-.044 1.022 1.022 0 0 0 .166-.111.986.986 0 0 0 .16-.106 1.011 1.011 0 0 1 .982-.269l1.793.785a2.785 2.785 0 0 0 1.11.216 3 3 0 0 0 2.385-1.1 1 1 0 0 0 -.184-1.402z"/><path d="m65.15 73.18h-2.33a1 1 0 1 1 0-2h2.33a1 1 0 0 1 0 2z"/><path d="m63.99 64.12c-.026 0-2.67-.043-2.67-1.59a1 1 0 0 1 1.822-.571 3.129 3.129 0 0 0 .848.161 3.042 3.042 0 0 0 .839-.161 1 1 0 0 1 1.821.571c0 1.547-2.633 1.59-2.66 1.59z"/></g><path d="m38.06 71.433a2.84 2.84 0 1 1 2.839-2.84 2.842 2.842 0 0 1 -2.839 2.84zm0-3.679a.84.84 0 1 0 .839.839.84.84 0 0 0 -.839-.839z" fill="#fff"/><path d="m89.027 70.835a2.839 2.839 0 1 1 2.839-2.835 2.842 2.842 0 0 1 -2.839 2.835zm0-3.678a.839.839 0 1 0 .839.84.84.84 0 0 0 -.839-.84z" fill="#fff"/><path d="m89.027 81.342a1 1 0 0 1 -1-1v-10.507a1 1 0 0 1 2 0v10.507a1 1 0 0 1 -1 1z" fill="#fff"/><path d="m43.33 51.96a4.067 4.067 0 0 0 1.542-.154c.239-.078.481-.137.719-.238l.36-.139.18-.072a2.21 2.21 0 0 1 .329-.1 2.444 2.444 0 0 1 1.511.141 2.415 2.415 0 0 1 .656.418c.117.11.138.123.191.167l.141.118a5.694 5.694 0 0 0 1.261.789 9.145 9.145 0 0 0 3.031.767 10.3 10.3 0 0 0 3.134-.187l.056-.013a1 1 0 0 1 .607 1.9 9 9 0 0 1 -3.962.59 9.462 9.462 0 0 1 -3.876-1.036 6.738 6.738 0 0 1 -1.7-1.217l-.324-.328a.347.347 0 0 0 -.086-.081.387.387 0 0 0 -.244-.063c-.926.279-2.925.433-3.813-.824a.28.28 0 0 1 .259-.439z" fill="#473049"/></svg>