<svg width="40" height="41" viewBox="0 0 40 41" fill="none" xmlns="http://www.w3.org/2000/svg">
<path d="M11.3879 16.0505C11.9981 16.2791 12.5469 16.6149 13.1045 16.9127C14.2626 17.5308 15.4699 18.0686 16.5607 18.8102C17.3051 19.3162 18.1512 19.6328 18.9176 20.1019C19.2786 20.3227 19.6892 20.6324 20.1693 20.3726C21.0315 19.9058 21.9227 19.4984 22.7815 19.019C23.6124 18.5549 24.4694 18.1173 25.3091 17.6586C25.8091 17.3855 26.3594 17.2072 26.8298 16.8948C27.6204 16.37 28.4786 15.9701 29.2912 15.4863C30.3739 14.8417 31.5011 14.2719 32.6686 13.6376C28.535 11.5281 24.5972 9.17463 20.4172 7.20703C20.4172 7.399 20.4194 7.57046 20.4165 7.74216C20.4133 7.92852 20.3806 8.11829 20.405 8.30049C20.4402 8.56232 20.3584 8.60018 20.1036 8.59016C19.4649 8.56501 19.4642 8.58479 19.4557 7.92803C19.4542 7.81299 19.4579 7.69746 19.4476 7.58316C19.4347 7.43515 19.3587 7.36408 19.2197 7.45933C19.0055 7.60612 18.7452 7.65106 18.5263 7.76952C17.5225 8.31368 16.5634 8.9492 15.5312 9.42986C14.6314 9.84898 13.8167 10.4085 12.9235 10.834C11.9604 11.2929 11.0304 11.8212 10.09 12.3273C9.83872 12.4626 9.59913 12.6211 9.36075 12.7791C8.85493 13.115 8.32371 13.4107 7.75854 13.6215C7.62348 13.6718 7.60344 13.7798 7.47888 13.8118C7.98739 14.1825 8.57015 14.366 9.07914 14.6845C9.83897 15.1595 10.5517 15.7371 11.3879 16.0505ZM20.5911 19.348C20.5838 19.8719 20.1986 19.7099 19.9573 19.7419C19.6423 19.7837 19.79 19.4984 19.7715 19.346C19.5966 18.9091 19.8337 18.4565 19.7026 18.0152C19.6799 17.9385 19.7282 17.8662 19.8362 17.8339C20.28 17.7008 20.6666 17.9578 20.5897 18.393C20.5325 18.7183 20.5955 19.0314 20.5911 19.348ZM20.5416 16.4037C20.6373 16.8533 20.3337 17.1041 19.8738 17.0551C19.7759 17.0445 19.7119 17.0238 19.706 16.9114C19.676 16.335 19.6105 15.7581 19.6227 15.1829C19.6308 14.8041 20.0018 14.9548 20.2189 14.9013C20.4001 14.8569 20.5289 14.8889 20.4358 15.1439C20.3962 15.2523 20.6097 15.3876 20.4861 15.4875C20.5411 15.8104 20.4785 16.1076 20.5416 16.4037ZM20.44 13.0524C20.4143 13.3182 20.4602 13.59 20.4558 13.8587C20.4475 14.3616 20.0738 14.0651 19.8623 14.1181C19.6064 14.182 19.6977 13.9964 19.6423 13.8584C19.4298 13.3275 19.6882 12.7887 19.557 12.2601C19.61 12.2413 19.623 12.2337 19.6367 12.232C20.5374 12.1321 20.5291 12.1314 20.44 13.0524ZM19.5856 9.70048C19.6706 9.26842 20.0077 9.66043 20.2001 9.50191C20.2971 9.42205 20.3996 9.5957 20.3965 9.74615C20.3913 9.98624 20.395 10.2263 20.395 10.4664C20.3984 10.4664 20.4018 10.4662 20.4053 10.4662C20.415 10.5929 20.4331 10.7197 20.4334 10.8465C20.4346 11.2775 20.1571 11.4729 19.7282 11.3701C19.6371 11.3484 19.5971 11.3134 19.6044 11.2421C19.6569 10.7275 19.4837 10.2178 19.5856 9.70048Z" fill="#EAF0FD"/>
<path d="M6.97725 16.7983C7.05565 17.6204 7.0068 18.4398 7.04295 19.2587C7.0896 20.3146 7.01682 21.3753 7.01731 22.4341C7.01828 24.0942 7.04027 25.7543 7.04637 27.4144C7.04711 27.6469 7.16776 27.7168 7.34093 27.6279C7.60739 27.4911 7.90708 27.4227 8.14228 27.2181C8.59119 26.8273 8.68522 26.8522 8.98881 27.3541C9.08382 27.5111 9.08577 27.5927 8.90967 27.6863C8.56065 27.8714 8.22751 28.0902 7.84552 28.2016C7.72633 28.2363 7.66625 28.3081 7.65404 28.4021C7.64085 28.5042 7.75003 28.515 7.82745 28.5533C8.24242 28.7587 8.65127 28.9768 9.06354 29.1881C10.0268 29.6815 10.9432 30.2581 11.908 30.7522C13.6726 31.6561 15.4651 32.5083 17.2104 33.4442C17.9961 33.8655 18.7933 34.2742 19.696 34.8003C19.696 34.0387 19.708 33.3622 19.6936 32.6861C19.665 31.3609 19.5871 30.0356 19.5949 28.7108C19.601 27.686 19.6802 26.6622 19.6555 25.6342C19.6247 24.3377 19.6443 23.0403 19.6418 21.7432C19.6416 21.5864 19.6675 21.4168 19.4689 21.3468C18.5933 21.0375 17.9324 20.3483 17.0385 20.0374C16.2862 19.7758 15.6043 19.3049 14.9031 18.9056C14.185 18.4967 13.4801 18.0646 12.7723 17.6382C12.5293 17.4917 12.2509 17.436 12.0083 17.2677C11.5975 16.9829 11.1315 16.7792 10.7026 16.5189C10.2188 16.225 9.71201 15.9886 9.19495 15.758C8.46419 15.432 7.8338 14.9054 7.08594 14.6025C6.89665 14.9381 7.14456 15.2759 7.0261 15.5942C6.87907 15.9886 6.94135 16.4229 6.97725 16.7983ZM16.6169 22.5328C17.0116 22.206 17.5015 22.0485 17.9028 21.7405C17.9392 21.7126 18.0398 21.7024 18.0557 21.7239C18.1925 21.9105 18.3168 22.1063 18.425 22.2697C18.4414 22.3906 18.3674 22.3823 18.3256 22.4134C17.8909 22.7375 17.3274 22.7961 16.8895 23.1138C16.7823 23.1917 16.6777 23.1544 16.6855 23.0188C16.6953 22.852 16.3277 22.7721 16.6169 22.5328ZM14.4398 23.5664C14.7773 23.4177 15.1078 23.2523 15.4402 23.0921C15.723 22.9558 16.0649 23.1405 16.1326 23.4577C16.1555 23.5645 16.1082 23.6441 16.0366 23.669C15.5806 23.8282 15.2438 24.1643 14.863 24.4352C14.8076 24.4745 14.7328 24.4865 14.64 24.5211C14.4344 24.3497 14.2979 24.1206 14.2063 23.882C14.1486 23.731 14.2903 23.6321 14.4398 23.5664ZM11.9524 25.036C12.2931 24.8599 12.5872 24.603 12.9545 24.4645C13.0779 24.4178 13.2012 24.2517 13.3199 24.3519C13.4901 24.4955 13.6096 24.6994 13.7302 24.8516C13.7515 24.9857 13.6694 24.9957 13.6147 25.038C13.2339 25.3335 12.7682 25.482 12.3808 25.7719C12.1771 25.9243 11.9939 25.7069 11.9646 25.5536C11.9348 25.3987 11.5926 25.2219 11.9524 25.036ZM9.73081 26.2953C10.0571 26.0684 10.3983 25.8628 10.7354 25.6515C10.9066 25.5443 11.0871 25.5218 11.1411 25.7572C11.1923 25.981 11.673 26.1886 11.1877 26.4533C10.8253 26.6512 10.4691 26.8607 10.1099 27.0642C10.0618 27.0915 10.0112 27.115 9.93866 27.1519C9.78894 26.9745 9.55765 26.872 9.45946 26.6424C9.34614 26.3784 9.61259 26.3774 9.73081 26.2953Z" fill="#EAF0FD"/>
<path d="M32.4405 14.7062C31.5173 15.1192 30.7352 15.7928 29.779 16.1435C29.2151 16.3504 28.7522 16.7431 28.2169 16.9971C27.4106 17.3799 26.6107 17.768 25.868 18.2682C25.5923 18.4538 25.3063 18.6668 24.9941 18.7457C24.3779 18.9015 23.8936 19.3079 23.3514 19.5829C22.4396 20.045 21.5635 20.5985 20.6684 21.1065C20.5282 21.1861 20.4547 21.2657 20.4576 21.4348C20.4774 22.5451 20.4581 23.6569 20.5118 24.7652C20.5658 25.8777 20.58 26.9902 20.5617 28.1015C20.5453 29.0934 20.5993 30.0843 20.5155 31.0808C20.4652 31.6806 20.4373 32.3091 20.494 32.915C20.5426 33.4367 20.4478 33.9579 20.5509 34.4767C20.5878 34.6618 20.6554 34.699 20.8037 34.6384C21.4575 34.3709 21.9985 33.9071 22.6716 33.6429C23.2156 33.4294 23.6945 33.0096 24.257 32.7709C26.0556 32.0077 27.6383 30.8358 29.4202 30.0371C30.014 29.7709 30.5645 29.4153 31.1548 29.1339C31.5515 28.9449 32.0014 28.8101 32.3406 28.4364C32.1081 28.3331 31.9437 28.1826 31.7195 28.1133C31.1009 27.9215 31.1104 27.8905 31.3419 27.2985C31.4574 27.0034 31.5771 27.0384 31.7891 27.1734C32.1069 27.3757 32.4386 27.5564 32.769 27.7493C32.7355 23.2912 32.7253 18.8912 32.8242 14.417C32.642 14.5569 32.5521 14.6561 32.4405 14.7062ZM23.4083 23.3882C23.2493 23.5289 23.1115 23.3379 22.9608 23.2753C22.5879 23.1203 22.2816 22.864 21.9443 22.656C21.8241 22.5817 21.7682 22.517 21.8251 22.2991C21.9585 21.7896 22.1924 21.7618 22.5871 21.9711C22.8976 22.136 23.2192 22.2808 23.5226 22.4576C23.6354 22.5233 23.7099 22.6545 23.7834 22.7353C23.7399 23.0299 23.5863 23.2307 23.4083 23.3882ZM25.3864 24.6131C25.0686 24.4045 24.7294 24.2477 24.3872 24.0943C24.223 24.0208 24.1696 23.9788 24.2809 23.7897C24.7262 23.0328 24.5862 23.1493 25.3817 23.5565C25.5825 23.6593 25.761 23.8058 25.9635 23.904C26.0807 23.9609 26.1489 24.0264 26.1648 24.1434C26.1574 24.521 25.6934 24.8143 25.3864 24.6131ZM28.1551 26.0621C28.0117 26.2172 27.8412 26.0228 27.7013 25.9447C27.373 25.7615 27.1229 25.4518 26.7368 25.3582C26.5912 25.3231 26.5912 25.2014 26.6183 25.0893C26.6486 24.6741 26.8618 24.5439 27.2455 24.6243C27.6922 24.7176 27.9997 25.0627 28.4123 25.2105C28.4552 25.2259 28.5104 25.3033 28.5046 25.3438C28.4643 25.6181 28.3331 25.8692 28.1551 26.0621ZM30.5728 27.0371C30.5242 27.1219 30.4971 27.2191 30.4509 27.3339C30.0059 27.1155 29.5656 26.9184 29.1438 26.6869C28.7459 26.4683 29.0988 26.2189 29.1672 26.0052C29.2527 25.7378 29.3904 25.8846 29.5489 25.9911C29.8139 26.1691 30.0973 26.3474 30.3994 26.4356C30.8324 26.5626 30.7235 26.7743 30.5728 27.0371Z" fill="#EAF0FD"/>
<path d="M30.6571 34.0713C29.9515 35.6264 29.3355 37.1563 28.8165 38.7695C29.8003 38.5306 30.758 38.3802 31.7213 38.2883C32.3451 38.2287 32.9239 37.9647 33.5555 37.9501C33.7861 37.9447 33.7365 37.7774 33.6198 37.6504C33.4358 37.4504 33.2099 37.2789 33.0661 37.0542C32.3805 35.9834 31.5139 35.0653 30.6571 34.0713Z" fill="#002D40"/>
<path d="M6.12623 27.9628C6.20683 28.3401 6.17532 28.7194 6.61667 28.9063C7.35842 29.2204 8.02935 29.6771 8.76134 30.0029C9.84112 30.4836 10.8694 31.0446 11.8859 31.6467C12.338 31.9143 12.8111 32.1781 13.2878 32.407C14.0027 32.7499 14.7208 33.1035 15.4059 33.4853C16.207 33.9318 17.0057 34.3988 17.8109 34.8406C18.3521 35.1373 18.9513 35.3501 19.4884 35.6605C20.0132 35.9636 20.4595 35.927 20.9049 35.5582C21.4081 35.1415 22.0319 34.9344 22.5929 34.6261C23.3771 34.1953 24.2054 33.8299 24.9818 33.3805C25.95 32.8202 26.9196 32.2624 27.9434 31.8169C28.9148 31.3941 29.83 30.8675 30.7395 30.3402C31.5355 29.8786 32.3315 29.426 33.1648 29.0369C33.3814 28.9358 33.5991 28.8379 33.5996 28.5248C33.6005 27.7005 33.6621 26.8747 33.6271 26.0526C33.5878 25.1313 33.602 24.211 33.6193 23.2919C33.6337 22.5287 33.5749 21.7662 33.6074 21.0058C33.6508 19.9834 33.5812 18.963 33.6061 17.9433C33.6262 17.1302 33.4147 16.3255 33.5053 15.5236C33.5802 14.8603 33.4977 14.1964 33.601 13.5372C33.6328 13.3342 33.5224 13.165 33.3226 13.0543C32.6338 12.6736 31.9375 12.304 31.27 11.8886C29.6031 10.8508 27.7808 10.1142 26.0674 9.16628C24.973 8.56056 23.8937 7.92798 22.7629 7.38576C22.0048 7.02209 21.3001 6.54802 20.5515 6.16236C20.266 6.01533 19.9607 5.95622 19.6027 6.14063C18.5204 6.69749 17.4653 7.3015 16.4112 7.90722C15.7933 8.26234 15.1619 8.59695 14.5547 8.96258C14.0259 9.28107 13.4832 9.58295 12.9359 9.84917C12.2576 10.1791 11.6834 10.6688 10.9847 10.9663C10.1379 11.3268 9.31382 11.7447 8.51344 12.2098C7.96977 12.5256 7.50376 12.974 6.90561 13.1882C6.11354 13.4717 6.14236 13.569 6.16214 14.3491C6.17533 14.8603 6.25934 15.3771 6.20634 15.8802C6.16336 16.2874 6.24787 16.6791 6.21685 17.0853C6.14554 18.0202 6.33849 18.9564 6.26888 19.8999C6.20782 20.7264 6.20585 21.5576 6.1829 22.387C6.16067 23.1879 6.20195 23.9865 6.14455 24.7911C6.06957 25.8425 6.12623 26.9045 6.12623 27.9628ZM32.7691 27.7488C32.4384 27.5561 32.107 27.3754 31.7892 27.1729C31.5772 27.0381 31.4576 27.0029 31.342 27.298C31.1103 27.89 31.101 27.921 31.7196 28.1127C31.9441 28.1821 32.1082 28.3326 32.3407 28.4359C32.0012 28.8098 31.5514 28.9446 31.155 29.1334C30.5644 29.4148 30.0141 29.7704 29.4204 30.0366C27.6386 30.8353 26.0557 32.0072 24.2571 32.7704C23.6946 33.009 23.2157 33.4289 22.6718 33.6423C21.9987 33.9066 21.4577 34.3704 20.8038 34.6379C20.6556 34.6984 20.5879 34.6616 20.551 34.4762C20.4477 33.9572 20.5425 33.436 20.4941 32.9145C20.4377 32.3083 20.4653 31.6799 20.5156 31.0803C20.5994 30.0838 20.5454 29.0929 20.5618 28.101C20.5801 26.99 20.5659 25.8772 20.512 24.7647C20.458 23.6563 20.4775 22.5443 20.4577 21.4342C20.4548 21.2652 20.5283 21.1853 20.6685 21.106C21.5637 20.5982 22.4397 20.0445 23.3515 19.5824C23.8937 19.3076 24.378 18.901 24.9942 18.7451C25.3064 18.6663 25.5926 18.4533 25.8681 18.2677C26.6109 17.7677 27.4108 17.3793 28.217 16.9966C28.7524 16.7424 29.2152 16.3499 29.7791 16.143C30.7351 15.7923 31.5172 15.1184 32.4406 14.7056C32.5525 14.6556 32.6421 14.5564 32.8246 14.4167C32.7252 18.891 32.7354 23.2907 32.7691 27.7488ZM7.75898 13.621C8.32415 13.4104 8.85537 13.1144 9.36119 12.7786C9.59932 12.6203 9.83893 12.4621 10.0905 12.3267C11.0308 11.8207 11.9609 11.2926 12.9239 10.8335C13.8169 10.4077 14.6316 9.84844 15.5317 9.42932C16.5636 8.94866 17.5227 8.31314 18.5268 7.76897C18.7456 7.65027 19.006 7.60558 19.2202 7.45879C19.3594 7.36329 19.4351 7.43461 19.448 7.58262C19.4581 7.69692 19.4544 7.81245 19.4561 7.92749C19.4647 8.58425 19.4654 8.56447 20.1041 8.58962C20.3588 8.59964 20.4406 8.56178 20.4055 8.29995C20.3808 8.11775 20.4135 7.92798 20.417 7.74162C20.4199 7.57016 20.4177 7.39846 20.4177 7.20649C24.5976 9.17409 28.5355 11.5278 32.669 13.6371C31.5018 14.2711 30.3744 14.841 29.2917 15.4858C28.4791 15.9696 27.6208 16.3694 26.8302 16.8943C26.3598 17.2067 25.8093 17.385 25.3096 17.658C24.4699 18.1167 23.6128 18.5544 22.7819 19.0184C21.9232 19.4979 21.0319 19.9055 20.1698 20.372C19.6896 20.6319 19.279 20.3224 18.9181 20.1014C18.1516 19.6325 17.3056 19.3157 16.5611 18.8096C15.4704 18.0681 14.2633 17.5303 13.1049 16.9121C12.5473 16.6144 11.9985 16.2786 11.3884 16.0499C10.5519 15.7366 9.83917 15.159 9.08007 14.6842C8.57083 14.3657 7.98832 14.182 7.47981 13.8115C7.60388 13.7792 7.62391 13.6713 7.75898 13.621ZM7.08562 14.6014C7.83348 14.9042 8.46386 15.4308 9.19463 15.7569C9.71169 15.9877 10.2185 16.2241 10.7023 16.5177C11.1314 16.778 11.5975 16.9817 12.008 17.2665C12.2506 17.4348 12.529 17.4905 12.772 17.637C13.4798 18.0635 14.1847 18.4958 14.9028 18.9044C15.604 19.3037 16.2859 19.7746 17.0381 20.0362C17.9321 20.3471 18.593 21.0364 19.4686 21.3456C19.6671 21.4157 19.641 21.5852 19.6415 21.742C19.6439 23.0389 19.6244 24.3365 19.6552 25.633C19.6796 26.661 19.6007 27.6846 19.5946 28.7097C19.5865 30.0344 19.6645 31.3597 19.6933 32.6849C19.7079 33.361 19.6957 34.0375 19.6957 34.7991C18.793 34.273 17.9956 33.8644 17.2101 33.443C15.4648 32.5069 13.6723 31.655 11.9076 30.751C10.9429 30.2569 10.0265 29.6803 9.06322 29.1869C8.65095 28.9756 8.24208 28.7575 7.82712 28.5521C7.74969 28.5138 7.64053 28.503 7.65372 28.4009C7.66593 28.3069 7.72601 28.2353 7.8452 28.2004C8.22719 28.089 8.56058 27.8702 8.90935 27.6851C9.08545 27.5915 9.08324 27.51 8.98848 27.3529C8.68489 26.8507 8.59085 26.8261 8.14194 27.2169C7.90674 27.4215 7.60707 27.4899 7.3406 27.6267C7.16744 27.7156 7.04702 27.6455 7.04604 27.4132C7.03993 25.7531 7.01796 24.093 7.01698 22.4329C7.01625 21.3744 7.08927 20.3137 7.04262 19.2576C7.00648 18.4386 7.05533 17.6194 6.97693 16.7971C6.94103 16.4217 6.87874 15.9877 7.02553 15.5927C7.14423 15.2747 6.89633 14.9369 7.08562 14.6014Z" fill="#002D40"/>
<path d="M39.5317 17.1984C39.3358 16.5912 39.3202 15.9596 39.1067 15.3507C38.8801 14.7037 38.7132 14.0184 38.4956 13.3614C38.2477 12.613 37.8843 11.9096 37.5096 11.2072C36.9313 10.123 36.2181 9.1441 35.4688 8.18496C34.6887 7.18651 33.7754 6.30725 32.8503 5.44923C32.0841 4.73873 31.2852 4.05168 30.3151 3.61181C30.0474 3.49042 29.7335 3.41642 29.5257 3.22737C28.9905 2.74036 28.3418 2.47511 27.6892 2.24309C26.7983 1.92631 25.885 1.66912 24.9723 1.41267C24.1395 1.17868 23.3149 0.942258 22.4449 0.908309C21.6331 0.876557 20.8212 0.844562 20.0101 0.803041C19.5287 0.778373 19.0541 0.809882 18.5803 0.898052C17.8283 1.038 17.0677 1.11738 16.3145 1.26661C15.6978 1.38873 15.0364 1.3814 14.4361 1.5658C13.4679 1.86329 12.5185 2.23625 11.5926 2.64828C11.257 2.79751 10.8946 2.87274 10.5746 3.06715C9.27111 3.85947 8.07385 4.8059 6.90785 5.77236C6.0894 6.45061 5.32128 7.20263 4.63619 8.06675C3.85242 9.05544 3.0816 10.0451 2.45781 11.131C2.10097 11.7523 1.9581 12.4941 1.68626 13.1682C1.47914 13.6816 1.23074 14.1882 1.05904 14.7059C0.786464 15.529 0.646273 16.3961 0.426701 17.2402C0.120913 18.4162 0.115054 19.6562 0.0227309 20.8723C-0.0231862 21.4782 0.0146661 22.0906 0.0146661 22.7002C0.0205278 23.2588 0.194439 23.7885 0.274305 24.3307C0.439655 25.4525 0.669722 26.5675 1.11546 27.6028C1.61859 28.7713 2.11342 29.948 2.84932 31.0129C3.39397 31.8011 3.84118 32.6569 4.52016 33.3481C4.62494 33.4546 4.58635 33.6167 4.72362 33.7137C5.50421 34.265 5.96973 35.1262 6.71564 35.7258C7.37972 36.2594 7.97494 36.8962 8.69251 37.349C9.33828 37.7566 10.0329 38.1054 10.6982 38.4859C11.7817 39.1056 12.9799 39.4238 14.1049 39.9291C15.083 40.3685 16.1782 40.4811 17.2553 40.5376C17.8198 40.5671 18.3556 40.7586 18.9352 40.7412C19.284 40.7307 19.6376 40.646 19.9935 40.7141C20.8432 40.877 21.6844 40.7552 22.537 40.6821C23.459 40.603 24.3375 40.4101 25.2112 40.1323C25.4845 40.0454 25.4945 39.8464 25.4977 39.65C25.5018 39.382 25.2341 39.3693 25.0891 39.3923C24.8592 39.4289 24.625 39.4453 24.3905 39.5152C23.2985 39.8405 22.1743 39.9846 21.0322 39.9162C20.7421 39.8989 20.4434 39.8874 20.1644 39.9074C19.2529 39.9734 18.3507 39.944 17.4576 39.7736C16.6154 39.6129 15.7816 39.4079 14.9441 39.2221C14.5411 39.1327 14.0712 39.1446 13.749 38.9324C13.0783 38.4906 12.3021 38.3194 11.5877 38.0204C10.6858 37.6426 9.90785 37.1267 9.12433 36.5772C8.07141 35.8388 7.08981 35.0197 6.20249 34.0928C5.67249 33.5391 5.08803 33.0274 4.6992 32.3504C4.33992 31.7246 3.90981 31.1458 3.54565 30.519C2.77263 29.1889 2.03942 27.8598 1.69235 26.3428C1.39609 25.0483 1.09641 23.7558 1.01434 22.4259C0.989187 22.0197 1.07662 21.596 0.991625 21.2066C0.825542 20.4451 0.856078 19.663 0.939852 18.9308C1.03071 18.1356 1.18312 17.324 1.37289 16.5314C1.47132 16.1198 1.66866 15.7435 1.78345 15.352C1.93659 14.829 2.07948 14.3044 2.29124 13.8025C2.53743 13.2192 2.84174 12.6538 3.0618 12.0686C3.39006 11.1969 3.84142 10.4176 4.40073 9.69169C4.94782 8.98192 5.55305 8.32247 6.20126 7.70162C6.75496 7.17137 7.29986 6.63086 7.8301 6.07741C8.27901 5.60896 8.87228 5.34665 9.36711 4.95122C10.1233 4.34697 10.9476 3.82478 11.8242 3.47503C13.0454 2.98777 14.2854 2.52689 15.5566 2.15906C16.6848 1.83251 17.853 1.83984 18.9924 1.6276C19.6523 1.5045 20.3117 1.69306 20.9741 1.70307C21.3832 1.70918 21.8062 1.72212 22.2117 1.77561C23.012 1.88137 23.7746 2.18129 24.5876 2.27459C24.8771 2.30781 25.1868 2.30708 25.4857 2.41308C26.2262 2.67588 26.9468 2.97287 27.6668 3.29039C28.6865 3.74003 29.7154 4.13497 30.6411 4.78661C31.263 5.22428 31.8841 5.67369 32.4346 6.17975C33.2413 6.92102 34.0793 7.63371 34.7192 8.56354C35.4138 9.57298 36.2589 10.4684 36.7857 11.6056C37.2014 12.5026 37.6935 13.3697 38.0194 14.3032C38.425 15.4658 38.6151 16.6836 38.8354 17.895C39.0728 19.2012 39.0444 20.5225 39.1964 21.8295C39.2677 22.443 39.0207 22.9945 39.0259 23.5804C39.0344 24.5547 38.7472 25.454 38.3955 26.3442C38.1298 27.0171 37.9095 27.7088 37.6278 28.3749C37.2896 29.1752 36.9618 29.9883 36.5295 30.7381C36.1289 31.433 35.724 32.1389 35.1886 32.749C34.7795 33.215 34.4444 33.7357 34.0163 34.1946C33.658 34.5791 33.1336 34.7212 32.8434 35.1581C32.7584 35.2861 32.6923 35.2385 32.6131 35.1418C32.1022 34.5158 31.5761 33.9025 31.1372 33.2203C30.9916 32.9939 30.7569 32.7729 30.5124 32.7609C30.2794 32.7494 30.0955 32.9849 29.959 33.226C29.6539 33.7643 29.5616 34.3734 29.3376 34.9386C29.057 35.6464 28.92 36.4148 28.6076 37.1057C28.3055 37.7742 28.101 38.4664 27.8812 39.1576C27.793 39.4348 27.9262 39.6402 28.2183 39.6148C28.8694 39.5581 29.521 39.4819 30.1648 39.3703C31.0285 39.2206 31.8789 38.95 32.7465 38.8831C33.4071 38.832 34.0297 38.6596 34.6699 38.547C34.9927 38.4901 35.1278 38.1538 34.9038 37.9276C34.3633 37.3815 34.0277 36.6663 33.424 36.1749C33.2366 36.0225 33.2313 35.8906 33.4426 35.7009C33.7173 35.4542 34.0361 35.2749 34.3069 35.0133C35.4783 33.882 36.4308 32.5902 37.2437 31.1914C37.516 30.7227 37.6549 30.1695 37.8945 29.6989C38.3093 28.8848 38.693 28.0815 38.9272 27.1937C39.2325 26.037 39.6365 24.9118 39.7686 23.7062C39.8338 23.1115 39.8866 22.5185 39.934 21.9223C40.0019 21.0684 39.9867 20.2192 39.8834 19.3729C39.796 18.6421 39.7547 17.8891 39.5317 17.1984ZM33.6196 37.6504C33.7364 37.7774 33.7859 37.9447 33.5554 37.9501C32.9238 37.9647 32.3449 38.2287 31.7211 38.2883C30.7579 38.3804 29.8002 38.5309 28.8164 38.7695C29.3354 37.1563 29.9516 35.6266 30.657 34.0713C31.5138 35.0653 32.3804 35.9834 33.0659 37.0537C33.2098 37.2789 33.436 37.4503 33.6196 37.6504Z" fill="#002D40"/>
<path d="M20.436 15.1441C20.5291 14.8891 20.4004 14.8571 20.2192 14.9015C20.002 14.9548 19.631 14.8043 19.623 15.1831C19.6108 15.7583 19.676 16.3352 19.7063 16.9116C19.7121 17.0242 19.7761 17.0447 19.874 17.0552C20.334 17.1043 20.6378 16.8535 20.5418 16.4039C20.4788 16.1078 20.5413 15.8106 20.4866 15.4877C20.6099 15.3878 20.3965 15.2525 20.436 15.1441Z" fill="#002D40"/>
<path d="M19.6367 12.232C19.623 12.2334 19.6101 12.241 19.5571 12.26C19.6882 12.7883 19.4296 13.3274 19.6423 13.8584C19.6978 13.9966 19.6064 14.1822 19.8624 14.118C20.0739 14.0652 20.4476 14.3615 20.4559 13.8586C20.4603 13.5899 20.4144 13.3181 20.44 13.0524C20.5292 12.1313 20.5375 12.1321 19.6367 12.232Z" fill="#002D40"/>
<path d="M19.8361 17.834C19.7284 17.8663 19.6798 17.9388 19.7025 18.0153C19.8337 18.4564 19.5963 18.9092 19.7714 19.3461C19.7899 19.4985 19.6422 19.7838 19.9572 19.742C20.1986 19.71 20.5837 19.872 20.591 19.3481C20.5954 19.0315 20.5324 18.7184 20.5898 18.3931C20.6665 17.9579 20.2799 17.7009 19.8361 17.834Z" fill="#002D40"/>
<path d="M19.6043 11.2418C19.597 11.3131 19.637 11.348 19.7281 11.3698C20.157 11.4726 20.4345 11.2772 20.4332 10.8461C20.433 10.7194 20.4149 10.5926 20.4051 10.4658C20.4017 10.4658 20.3983 10.4658 20.3949 10.4661C20.3949 10.226 20.3912 9.98565 20.3963 9.74581C20.3995 9.59535 20.2972 9.4217 20.2 9.50157C20.0078 9.66008 19.6707 9.26807 19.5855 9.70013C19.4836 10.2174 19.6568 10.7272 19.6043 11.2418Z" fill="#002D40"/>
<path d="M9.93845 27.1514C10.011 27.1142 10.0615 27.0908 10.1097 27.0637C10.4689 26.86 10.825 26.6504 11.1875 26.4528C11.6728 26.1883 11.1921 25.9805 11.1408 25.7567C11.0869 25.521 10.9061 25.5435 10.7351 25.651C10.3981 25.8623 10.0569 26.0679 9.7306 26.2948C9.61238 26.3769 9.34592 26.3778 9.459 26.6421C9.55743 26.8714 9.78873 26.9743 9.93845 27.1514Z" fill="#002D40"/>
<path d="M14.6401 24.5203C14.7327 24.4856 14.8077 24.4739 14.8631 24.4344C15.2439 24.1635 15.5807 23.8274 16.0367 23.6682C16.1083 23.6433 16.1554 23.5636 16.1327 23.4569C16.065 23.1399 15.7231 22.955 15.4403 23.0913C15.1079 23.2515 14.7776 23.4168 14.4399 23.5656C14.2904 23.6313 14.1487 23.7302 14.2066 23.8811C14.298 24.1198 14.4345 24.3489 14.6401 24.5203Z" fill="#002D40"/>
<path d="M12.3809 25.7719C12.7682 25.482 13.2342 25.3335 13.6148 25.0379C13.6695 24.9957 13.7515 24.9857 13.7303 24.8516C13.6096 24.6992 13.4902 24.4952 13.32 24.3519C13.2013 24.2517 13.0779 24.4178 12.9546 24.4645C12.5873 24.6029 12.2932 24.8599 11.9525 25.036C11.5927 25.2221 11.9349 25.3987 11.9644 25.5535C11.994 25.7069 12.1772 25.9243 12.3809 25.7719Z" fill="#002D40"/>
<path d="M16.8895 23.1136C17.3274 22.7958 17.8908 22.7372 18.3256 22.4131C18.3674 22.3821 18.4414 22.3904 18.425 22.2695C18.3168 22.1061 18.1925 21.9102 18.0557 21.7236C18.0398 21.7019 17.9392 21.7121 17.9028 21.7402C17.5018 22.048 17.0118 22.2057 16.6169 22.5325C16.3277 22.7719 16.6953 22.8515 16.6855 23.0188C16.6775 23.1541 16.782 23.1915 16.8895 23.1136Z" fill="#002D40"/>
<path d="M23.5229 22.4567C23.2196 22.2799 22.8982 22.1348 22.5875 21.9702C22.1928 21.7609 21.9588 21.7887 21.8255 22.2982C21.7683 22.5161 21.8245 22.5811 21.9446 22.6551C22.2819 22.8632 22.5882 23.1194 22.9612 23.2745C23.1119 23.337 23.2496 23.528 23.4086 23.3873C23.5867 23.2298 23.7403 23.029 23.7838 22.7344C23.7103 22.6536 23.6355 22.5227 23.5229 22.4567Z" fill="#002D40"/>
<path d="M28.4122 25.2103C27.9999 25.0625 27.6922 24.7176 27.2455 24.6241C26.8618 24.5437 26.6485 24.6739 26.6183 25.0891C26.5914 25.2012 26.5912 25.3228 26.7367 25.358C27.1229 25.4516 27.373 25.7613 27.7012 25.9444C27.8412 26.0226 28.0116 26.217 28.155 26.0619C28.3331 25.869 28.4642 25.6179 28.5045 25.3436C28.5104 25.3031 28.4552 25.2256 28.4122 25.2103Z" fill="#002D40"/>
<path d="M25.9634 23.9031C25.7609 23.8049 25.5821 23.6584 25.3816 23.5556C24.5861 23.1482 24.7263 23.0317 24.2808 23.7888C24.1696 23.9779 24.2229 24.0199 24.387 24.0934C24.7292 24.2468 25.0684 24.4036 25.3862 24.6121C25.6932 24.8136 26.1573 24.5203 26.1644 24.1425C26.1487 24.0252 26.0806 23.96 25.9634 23.9031Z" fill="#002D40"/>
<path d="M30.399 26.4354C30.0971 26.347 29.8135 26.1687 29.5485 25.9909C29.39 25.8844 29.2523 25.7374 29.1668 26.0051C29.0986 26.2188 28.7455 26.4681 29.1433 26.6867C29.5649 26.9183 30.0055 27.1154 30.4505 27.3337C30.4969 27.2189 30.5238 27.1217 30.5724 27.037C30.7233 26.7739 30.8323 26.5622 30.399 26.4354Z" fill="#002D40"/>
</svg>
