<svg height="512pt" viewBox="-11 0 512 512" width="512pt" xmlns="http://www.w3.org/2000/svg"><path d="m76.421875 444.773438h337.15625c47.066406-44.648438 76.421875-107.78125 76.421875-177.773438 0-135.308594-109.691406-245-245-245s-245 109.691406-245 245c0 69.992188 29.355469 133.125 76.421875 177.773438zm0 0" fill="#ef4a8a"/><path d="m245 512c65.835938 0 125.601562-25.976562 169.625-68.226562v-137.453126l-169.625 84.519532zm0 0" fill="#5488e2"/><path d="m305.789062 360.550781-60.789062 30.289063v121.160156c20.984375 0 41.351562-2.648438 60.789062-7.613281zm0 0" fill="#406bcc"/><path d="m75.375 306.320312v137.453126c44.023438 42.25 103.789062 68.226562 169.625 68.226562v-121.160156zm0 0" fill="#284cb2"/><path d="m245 216.800781v179.039063l-169.625-89.519532zm0 0" fill="#122894"/><path d="m414.625 306.320312-169.625 89.519532v-179.039063zm0 0" fill="#012481"/><path d="m455.65625 362.539062-41.03125-56.21875-169.625 89.519532 42.277344 57.929687c2.121094 2.90625 6.050781 3.816407 9.234375 2.136719l156.671875-82.6875c3.90625-2.0625 5.074218-7.109375 2.472656-10.679688zm0 0" fill="#284cb2"/><path d="m349.15625 420.785156-42.105469-57.695312-62.050781 32.75 42.277344 57.929687c2.121094 2.90625 6.050781 3.816407 9.234375 2.136719l60.253906-31.800781c-2.875.335937-5.8125-.859375-7.609375-3.320313zm0 0" fill="#1d3ba8"/><path d="m75.375 306.320312-41.03125 56.21875c-2.601562 3.570313-1.433594 8.617188 2.472656 10.679688l156.671875 82.683594c3.183594 1.679687 7.117188.769531 9.238281-2.136719l42.273438-57.925781zm0 0" fill="#1d3ba8"/><path d="m262.386719 341.648438h-34.773438c-.660156 0-1.308593-.054688-1.949219-.136719v4.46875c0 10.679687 8.65625 19.335937 19.335938 19.335937s19.335938-8.65625 19.335938-19.335937v-4.46875c-.640626.082031-1.285157.136719-1.949219.136719zm0 0" fill="#06daf7"/><path d="m273.539062 300.691406h-57.078124c-1.457032 0-2.84375-.304687-4.097657-.847656v28.554688c0 8.421874 6.828125 15.25 15.25 15.25h34.773438c8.421875 0 15.25-6.828126 15.25-15.25v-28.554688c-1.253907.546875-2.640625.847656-4.097657.847656zm0 0" fill="#d6eafc"/><path d="m473.058594 261.316406-158.964844-83.890625c-1.617188-.855469-3.566406-.792969-5.128906.164063l-63.964844 41.210937 169.625 87.519531 58.722656-35.996093c3.425782-2.101563 3.265625-7.132813-.289062-9.007813zm0 0" fill="#284cb2"/><path d="m345.851562 255.746094c0-22.332032 27.429688-35.570313 52.285157-33.96875l-84.042969-44.351563c-1.617188-.855469-3.566406-.792969-5.128906.164063l-63.964844 41.210937 109.519531 56.503907c-5.457031-5.539063-8.667969-12.277344-8.667969-19.558594zm0 0" fill="#1d3ba8"/><path d="m181.035156 177.589844c-1.5625-.957032-3.511718-1.019532-5.128906-.164063l-158.964844 83.890625c-3.554687 1.875-3.714844 6.90625-.289062 9.007813l58.722656 35.996093 169.625-87.519531zm0 0" fill="#284cb2"/><path d="m144.148438 255.746094c0-22.332032-27.429688-35.570313-52.285157-33.96875l84.042969-44.351563c1.617188-.855469 3.566406-.792969 5.128906.164063l63.964844 41.210937-109.519531 56.503907c5.457031-5.539063 8.667969-12.277344 8.667969-19.558594zm0 0" fill="#1d3ba8"/><path d="m246.148438 49.808594c-62.1875-.621094-113.585938 50.035156-113.820313 112.230468-.175781 45.453126 26.570313 84.679688 65.199219 102.652344 5.238281 2.4375 8.59375 7.679688 8.59375 13.457032v15.207031c0 5.710937 4.628906 10.335937 10.339844 10.335937h57.078124c5.710938 0 10.339844-4.625 10.339844-10.335937v-15.207031c0-5.742188 3.296875-11 8.503906-13.417969 38.554688-17.894531 65.292969-56.949219 65.292969-102.253907 0-61.84375-49.828125-112.050781-111.527343-112.667968zm0 0" fill="#f9ce00"/><path d="m246.148438 49.808594c-62.1875-.621094-113.585938 50.035156-113.820313 112.230468-.175781 45.453126 26.570313 84.679688 65.199219 102.652344 5.238281 2.4375 8.59375 7.679688 8.59375 13.457032v15.207031c0 5.710937 4.628906 10.335937 10.339844 10.335937h57.078124c5.710938 0 10.339844-4.625 10.339844-10.335937v-15.207031c0-5.742188 3.296875-11 8.503906-13.417969 38.554688-17.894531 65.292969-56.949219 65.292969-102.253907 0-61.84375-49.828125-112.050781-111.527343-112.667968zm0 0" fill="#f9ce00"/><path d="m223.257812 293.652344v-15.292969c0-5.808594-1.503906-11.078125-3.855468-13.527344-17.335938-18.070312-29.335938-57.507812-29.257813-103.210937.09375-55.296875 18.140625-101.511719 41.617188-111.035156-55.535157 6.605468-99.214844 54.128906-99.433594 111.449218-.175781 45.457032 26.570313 84.683594 65.203125 102.65625 5.238281 2.4375 8.59375 7.679688 8.59375 13.453125v15.210938c0 5.707031 4.628906 10.335937 10.335938 10.335937h10.257812c-1.992188-1.167968-3.460938-5.214844-3.460938-10.039062zm0 0" fill="#f4b500"/><g fill="#f9ce00"><path d="m399.976562 169.976562h-14.101562c-4.140625 0-7.5-3.355468-7.5-7.5 0-4.140624 3.359375-7.5 7.5-7.5h14.101562c4.140626 0 7.5 3.359376 7.5 7.5 0 4.140626-3.359374 7.5-7.5 7.5zm0 0"/><path d="m104.125 169.976562h-14.101562c-4.140626 0-7.5-3.355468-7.5-7.5 0-4.140624 3.359374-7.5 7.5-7.5h14.101562c4.140625 0 7.5 3.359376 7.5 7.5 0 4.140626-3.359375 7.5-7.5 7.5zm0 0"/><path d="m360.507812 95.789062c-2.070312-3.585937-.84375-8.175781 2.746094-10.246093l12.210938-7.050781c3.585937-2.070313 8.171875-.84375 10.246094 2.746093 2.070312 3.585938.839843 8.171875-2.746094 10.246094l-12.210938 7.050781c-3.566406 2.058594-8.164062.863282-10.246094-2.746094zm0 0"/><path d="m104.289062 243.714844c-2.070312-3.585938-.839843-8.175782 2.746094-10.246094l12.214844-7.046875c3.585938-2.070313 8.171875-.84375 10.242188 2.742187 2.074218 3.589844.84375 8.175782-2.746094 10.246094l-12.210938 7.050782c-3.5625 2.054687-8.160156.863281-10.246094-2.746094zm0 0"/><path d="m311.6875 46.96875c-3.585938-2.070312-4.816406-6.65625-2.746094-10.242188l7.050782-12.210937c2.074218-3.589844 6.660156-4.816406 10.246093-2.746094 3.585938 2.070313 4.816407 6.65625 2.746094 10.246094l-7.050781 12.210937c-2.074219 3.589844-6.660156 4.8125-10.246094 2.742188zm0 0"/><path d="m163.761719 303.183594c-3.585938-2.070313-4.816407-6.65625-2.746094-10.242188l7.050781-12.214844c2.070313-3.585937 6.660156-4.8125 10.246094-2.742187s4.816406 6.65625 2.746094 10.242187l-7.050782 12.214844c-2.078124 3.597656-6.667968 4.808594-10.246093 2.742188zm0 0"/><path d="m119.246094 98.535156-12.210938-7.050781c-3.585937-2.074219-4.816406-6.660156-2.746094-10.246094 2.074219-3.589843 6.660157-4.816406 10.246094-2.746093l12.210938 7.050781c3.589844 2.070312 4.816406 6.660156 2.746094 10.246093-2.078126 3.597657-6.667969 4.808594-10.246094 2.746094zm0 0"/><path d="m375.175781 246.296875-11.921875-6.886719c-3.589844-2.070312-4.816406-6.65625-2.746094-10.246094 2.070313-3.585937 6.65625-4.816406 10.246094-2.742187l11.921875 6.882813c3.589844 2.070312 4.816407 6.660156 2.746094 10.246093-2.074219 3.597657-6.667969 4.808594-10.246094 2.746094zm0 0"/><path d="m168.066406 44.226562-7.050781-12.210937c-2.070313-3.589844-.839844-8.175781 2.746094-10.246094 3.585937-2.070312 8.175781-.84375 10.246093 2.746094l7.050782 12.210937c2.070312 3.585938.839844 8.171876-2.746094 10.242188-3.566406 2.058594-8.160156.867188-10.246094-2.742188zm0 0"/><path d="m315.992188 300.441406-7.050782-12.214844c-2.070312-3.585937-.839844-8.171874 2.746094-10.242187s8.171875-.84375 10.246094 2.742187l7.050781 12.214844c2.070313 3.585938.839844 8.171875-2.746094 10.242188-3.5625 2.058594-8.160156.867187-10.246093-2.742188zm0 0"/><path d="m245 29.101562c-4.140625 0-7.5-3.359374-7.5-7.5v-14.101562c0-4.144531 3.359375-7.5 7.5-7.5s7.5 3.355469 7.5 7.5v14.101562c0 4.140626-3.359375 7.5-7.5 7.5zm0 0"/></g><path d="m280.804688 169.246094c-4.144532 0-7.5 3.359375-7.5 7.5v30.175781c0 7.191406-3.082032 14.0625-8.449219 18.851563-8.554688 7.628906-13.460938 18.582031-13.460938 30.042968v47.875h15v-47.875c0-7.191406 3.078125-14.0625 8.449219-18.851562 8.554688-7.628906 13.460938-18.578125 13.460938-30.042969v-30.175781c0-4.140625-3.359376-7.5-7.5-7.5zm0 0" fill="#fce275"/><path d="m223.605469 303.691406h15v-47.875c0-11.464844-4.90625-22.414062-13.460938-30.046875-5.371093-4.785156-8.449219-11.65625-8.449219-18.847656v-30.175781c0-4.140625-3.355468-7.5-7.5-7.5-4.140624 0-7.5 3.359375-7.5 7.5v30.175781c0 11.464844 4.90625 22.414063 13.464844 30.046875 5.367188 4.785156 8.445313 11.65625 8.445313 18.847656zm0 0" fill="#fce275"/><path d="m287.957031 190.726562h-31.402343c-4.144532 0-7.5-3.355468-7.5-7.5 0-4.140624 3.355468-7.5 7.5-7.5h31.402343c4.140625 0 7.5 3.359376 7.5 7.5 0 4.144532-3.359375 7.5-7.5 7.5zm0 0" fill="#fce275"/><path d="m233.203125 190.726562h-31.160156c-4.140625 0-7.5-3.355468-7.5-7.5 0-4.140624 3.359375-7.5 7.5-7.5h31.160156c4.140625 0 7.5 3.359376 7.5 7.5 0 4.144532-3.359375 7.5-7.5 7.5zm0 0" fill="#fce275"/><path d="m256.554688 195.726562h-23.351563c-6.902344 0-12.5-5.597656-12.5-12.5 0-6.902343 5.597656-12.5 12.5-12.5h23.351563c6.902343 0 12.5 5.597657 12.5 12.5 0 6.90625-5.597657 12.5-12.5 12.5zm0 0" fill="#fcecac"/><path d="m284.855469 102.316406c-7.84375-1.144531-15.128907 4.289063-16.273438 12.132813s4.289063 15.128906 12.132813 16.273437c7.84375 1.144532 15.128906-4.289062 16.273437-12.132812s-4.289062-15.128906-12.132812-16.273438zm0 0" fill="#fce275"/><path d="m304.628906 88.6875c-4.226562-.617188-8.15625 2.3125-8.773437 6.539062-.613281 4.230469 2.3125 8.160157 6.542969 8.773438 4.226562.617188 8.15625-2.3125 8.773437-6.539062.613281-4.230469-2.3125-8.15625-6.542969-8.773438zm0 0" fill="#fce275"/></svg>