<svg width="36" height="48" viewBox="0 0 36 48" fill="none" xmlns="http://www.w3.org/2000/svg">
<path d="M17.7457 41.7748C20.8872 41.7748 23.4339 39.2281 23.4339 36.0866C23.4339 32.9451 20.8872 30.3984 17.7457 30.3984C14.6042 30.3984 12.0575 32.9451 12.0575 36.0866C12.0575 39.2281 14.6042 41.7748 17.7457 41.7748Z" fill="white"/>
<path d="M15.0981 6.21304H14.6981V6.61304V23.0847V23.4847H15.0981H17.7457H18.1457V23.0847V6.61304V6.21304H17.7457H15.0981Z" fill="white" stroke="#C7CED8" stroke-width="0.8"/>
<path d="M18.1379 3.27175H17.7379V3.67175V23.0847V23.4847H18.1379H21.2756H21.6756V23.0847V3.67175V3.27175H21.2756H18.1379Z" fill="white" stroke="#C7CED8" stroke-width="0.8"/>
<path d="M11.6667 3.27175H11.2667V3.67175V22.0307V22.4307H11.6667H14.7307H15.1307V22.0307V3.67175V3.27175H14.7307H11.6667Z" fill="white" stroke="#C7CED8" stroke-width="0.8"/>
<path d="M21.6672 8.39419H21.2672V8.79419V22.0303V22.4303H21.6672H23.9468H24.3468V22.0303V8.79419V8.39419H23.9468H21.6672Z" fill="white" stroke="#C7CED8" stroke-width="0.8"/>
<path d="M24.3148 0.6H23.9148V1V20.7072V21.1072H24.3148H27.403H27.803V20.7072V1V0.6H27.403H24.3148Z" fill="white" stroke="#C7CED8" stroke-width="0.8"/>
<path d="M8.57861 0.685815H8.17861V1.08582V20.0576V20.4576H8.57861H11.373H11.773V20.0576V1.08582V0.685815H11.373H8.57861Z" fill="white" stroke="#C7CED8" stroke-width="0.8"/>
<path d="M30.6635 16.8411L31.0385 16.8176V16.4419V4.16187V3.76187H30.6385H27.8441H27.4441V4.16187V4.16332V4.16509V4.16718V4.16959V4.17232V4.17536V4.17872V4.18238V4.18636V4.19065V4.19525V4.20016V4.20537V4.21089V4.21671V4.22283V4.22925V4.23598V4.243V4.25032V4.25794V4.26585V4.27405V4.28255V4.29134V4.30042V4.30979V4.31944V4.32938V4.33961V4.35011V4.36091V4.37198V4.38333V4.39496V4.40687V4.41905V4.43151V4.44424V4.45724V4.47051V4.48406V4.49787V4.51195V4.52629V4.5409V4.55578V4.57091V4.58631V4.60196V4.61787V4.63404V4.65047V4.66715V4.68408V4.70127V4.7187V4.73639V4.75432V4.7725V4.79092V4.80959V4.82851V4.84766V4.86705V4.88669V4.90656V4.92667V4.94701V4.96759V4.9884V5.00944V5.03072V5.05222V5.07395V5.0959V5.11809V5.14049V5.16312V5.18597V5.20904V5.23233V5.25584V5.27956V5.3035V5.32765V5.35201V5.37659V5.40138V5.42637V5.45157V5.47698V5.5026V5.52841V5.55444V5.58066V5.60708V5.6337V5.66052V5.68753V5.71474V5.74214V5.76974V5.79752V5.8255V5.85366V5.88201V5.91055V5.93927V5.96818V5.99727V6.02654V6.05598V6.08561V6.11542V6.1454V6.17555V6.20588V6.23638V6.26705V6.29789V6.3289V6.36008V6.39142V6.42293V6.4546V6.48643V6.51842V6.55058V6.58289V6.61535V6.64798V6.68076V6.71369V6.74677V6.78V6.81338V6.84692V6.88059V6.91442V6.94838V6.98249V7.01675V7.05114V7.08567V7.12034V7.15515V7.19009V7.22516V7.26037V7.29571V7.33118V7.36678V7.40251V7.43837V7.47435V7.51045V7.54668V7.58302V7.61949V7.65608V7.69278V7.72961V7.76654V7.80359V7.84076V7.87803V7.91542V7.95291V7.99051V8.02822V8.06603V8.10395V8.14196V8.18008V8.2183V8.25662V8.29504V8.33355V8.37216V8.41086V8.44965V8.48854V8.52751V8.56657V8.60572V8.64496V8.68428V8.72369V8.76317V8.80274V8.84239V8.88212V8.92192V8.9618V9.00175V9.04178V9.08188V9.12205V9.16229V9.2026V9.24297V9.28341V9.32392V9.36449V9.40512V9.44581V9.48656V9.52737V9.56824V9.60916V9.65014V9.69117V9.73225V9.77338V9.81456V9.85579V9.89707V9.93839V9.97976V10.0212V10.0626V10.1041V10.1456V10.1872V10.2288V10.2705V10.3121V10.3538V10.3956V10.4374V10.4792V10.521V10.5628V10.6047V10.6466V10.6885V10.7305V10.7725V10.8144V10.8564V10.8985V10.9405V10.9826V11.0246V11.0667V11.1088V11.1509V11.193V11.2351V11.2772V11.3193V11.3614V11.4035V11.4457V11.4878V11.5299V11.572V11.6141V11.6562V11.6983V11.7404V11.7825V11.8245V11.8666V11.9086V11.9506V11.9926V12.0346V12.0766V12.1186V12.1605V12.2024V12.2443V12.2861V12.3279V12.3697V12.4115V12.4533V12.495V12.5366V12.5783V12.6199V12.6615V12.703V12.7445V12.7859V12.8273V12.8687V12.91V12.9513V12.9925V13.0337V13.0749V13.1159V13.157V13.1979V13.2389V13.2797V13.3205V13.3613V13.402V13.4426V13.4832V13.5237V13.5641V13.6045V13.6448V13.6851V13.7252V13.7653V13.8054V13.8453V13.8852V13.925V13.9647V14.0044V14.0439V14.0834V14.1228V14.1622V14.2014V14.2405V14.2796V14.3186V14.3575V14.3963V14.435V14.4736V14.5121V14.5505V14.5888V14.627V14.6652V14.7032V14.7411V14.7789V14.8166V14.8542V14.8917V14.9291V14.9664V15.0036V15.0406V15.0775V15.1144V15.1511V15.1877V15.2241V15.2605V15.2967V15.3328V15.3688V15.4046V15.4404V15.476V15.5115V15.5468V15.582V15.6171V15.652V15.6868V15.7215V15.756V15.7904V15.8247V15.8588V15.8928V15.9266V15.9603V15.9938V16.0272V16.0604V16.0935V16.1264V16.1592V16.1918V16.2243V16.2566V16.2888V16.3208V16.3526V16.3843V16.4158V16.4471V16.4783V16.5093V16.5402V16.5708V16.6013V16.6317V16.6618V16.6918V16.7216V16.7512V16.7807V16.81V16.8391V16.868V16.8967V16.9252V16.9536V16.9817V17.0097V17.0375V17.0651V17.0925V17.1197V17.1467V17.1736V17.2002V17.2266V17.2528V17.2789V17.3047V17.3303V17.3557V17.3809V17.4059V17.4307V17.4553V17.4796V17.5038V17.5277V17.5515V17.575V17.5983V17.6213V17.6442V17.6668V17.6892V17.7114V17.7334V17.7551V17.7766V17.7979V17.8189V17.8397V17.8603V17.8807V17.9008V17.9206V17.9403V17.9597V17.9788V17.9977V18.0164V18.0348V18.053V18.071V18.0887V18.1061V18.1233V18.1402V18.1569V18.1733V18.1895V18.2054V18.2211V18.2365V18.2516V18.2665V18.2811V18.2954V18.3095V18.3233V18.3369V18.3502V18.3632V18.3759V18.3884V18.4005V18.4125V18.4241V18.4354V18.4465V18.4573V18.4678V18.4781V18.488V18.4977V18.507V18.5161V18.5249V18.5334V18.5416V18.5495V18.5571V18.5645V18.5715V18.5782V18.5846V18.5908V18.5966V18.6021V18.6073V18.6122V18.6168V18.6211V18.6251V18.6288V18.6321V18.6352V18.6379V18.6403V18.6424V18.6442V18.6457V18.6468V18.6476V18.6481C27.4441 18.6482 27.4441 18.6483 27.8441 18.6483H27.4441V19.8374L28.1628 18.89L29.6698 16.9034L30.6635 16.8411Z" fill="white" stroke="#C7CED8" stroke-width="0.8"/>
<path d="M31.0061 6.70315H30.6061V7.10315V16.295V16.695H31.0061H33.4325H33.8325V16.295V7.10315V6.70315H33.4325H31.0061Z" fill="white" stroke="#C7CED8" stroke-width="0.8"/>
<path d="M7.82693 18.9L8.53735 19.7742V18.6478V4.16187V3.76187H8.13735H4.75439H4.35439V4.16187V16.295V16.695H4.75439H6.03493L7.82693 18.9Z" fill="white" stroke="#C7CED8" stroke-width="0.8"/>
<path d="M2.07056 7.43862H1.67056V7.83862V16.0008V16.4008H2.07056H4.42379H4.82379V16.0008V7.83862V7.43862H4.42379H2.07056Z" fill="white" stroke="#C7CED8" stroke-width="0.8"/>
<path d="M31.2538 17.0057C30.5668 17.0057 29.9312 17.4052 29.668 18.0393C28.488 20.8822 25.4948 22.5781 22.7668 23.5666C18.788 25.0079 14.3434 24.8106 10.6535 22.739C7.87658 21.1804 6.60931 19.2164 6.06342 18.0384C5.77448 17.4149 5.16217 17.0057 4.47521 17.0057H0L5.68673 47.4H30.3942L35.4924 17.0057H31.2538ZM17.7457 42.5025C14.2023 42.5025 11.3303 39.63 11.3303 36.0871C11.3303 32.5437 14.2028 29.6717 17.7457 29.6717C21.2886 29.6717 24.1611 32.5441 24.1611 36.0871C24.1611 39.63 21.2886 42.5025 17.7457 42.5025Z" fill="#377DFF"/>
<path d="M17.7457 41.7748C14.6042 41.7748 12.0575 39.2282 12.0575 36.0866C12.0575 32.9451 14.6042 30.3984 17.7457 30.3984C20.8872 30.3984 23.4339 32.9451 23.4339 36.0866C23.4339 39.2282 20.8872 41.7748 17.7457 41.7748Z" fill="#C7CED8"/>
</svg>
