<svg width="39" height="36" viewBox="0 0 39 36" fill="none" xmlns="http://www.w3.org/2000/svg">
<path d="M30.5106 33.0175L29.7967 14.0894L31.5377 18.0926L38.47 14.0222C38.47 14.0222 34.5958 5.28821 31.0012 2.84598C27.4066 0.40375 22.4423 0.339844 22.4423 0.339844C22.4423 0.339844 22.5047 3.07949 19.1795 2.97047C15.9963 2.86609 15.9374 0.339844 15.9374 0.339844C15.9374 0.339844 11.4877 0.40375 7.89316 2.84598C4.29862 5.28813 0.470215 14.0221 0.470215 14.0221L7.40255 18.0925L9.14356 14.0893L8.77202 33.0174C8.77202 33.0174 11.4221 35.3563 19.6804 35.3563C27.9387 35.3563 30.5106 33.0175 30.5106 33.0175Z" fill="#0097DD"/>
</svg>
