<svg width="32" height="32" viewBox="0 0 32 32" fill="none" xmlns="http://www.w3.org/2000/svg">
<rect width="32" height="32" rx="16" fill="#F2F4F7"/>
<path d="M14.0812 15.692C15.2092 16.148 15.7732 16.868 15.7732 17.852C15.7732 18.292 15.6532 18.688 15.4132 19.04C15.1812 19.384 14.8532 19.656 14.4292 19.856C14.0052 20.048 13.5252 20.144 12.9892 20.144C12.4452 20.144 11.9652 20.048 11.5492 19.856C11.1332 19.664 10.8092 19.396 10.5772 19.052C10.3532 18.708 10.2412 18.316 10.2412 17.876C10.2412 17.38 10.3732 16.964 10.6372 16.628C10.9092 16.292 11.3052 16.012 11.8252 15.788C11.4012 15.572 11.0852 15.312 10.8772 15.008C10.6772 14.696 10.5772 14.332 10.5772 13.916C10.5772 13.484 10.6892 13.112 10.9132 12.8C11.1452 12.488 11.4452 12.252 11.8132 12.092C12.1892 11.932 12.5892 11.852 13.0132 11.852C13.4292 11.852 13.8212 11.928 14.1892 12.08C14.5652 12.232 14.8692 12.464 15.1012 12.776C15.3332 13.08 15.4492 13.448 15.4492 13.88C15.4492 14.28 15.3372 14.624 15.1132 14.912C14.8892 15.2 14.5452 15.46 14.0812 15.692ZM13.0132 12.68C12.5972 12.68 12.2652 12.788 12.0172 13.004C11.7772 13.22 11.6572 13.528 11.6572 13.928C11.6572 14.312 11.7732 14.604 12.0052 14.804C12.2452 15.004 12.6252 15.188 13.1452 15.356L13.3492 15.428C13.7092 15.22 13.9692 15 14.1292 14.768C14.2892 14.536 14.3692 14.252 14.3692 13.916C14.3692 13.54 14.2492 13.24 14.0092 13.016C13.7772 12.792 13.4452 12.68 13.0132 12.68ZM13.0012 19.268C13.4972 19.268 13.8892 19.14 14.1772 18.884C14.4732 18.628 14.6212 18.288 14.6212 17.864C14.6212 17.576 14.5652 17.336 14.4532 17.144C14.3412 16.944 14.1612 16.772 13.9132 16.628C13.6652 16.476 13.3172 16.324 12.8692 16.172L12.5692 16.064C12.1692 16.256 11.8732 16.5 11.6812 16.796C11.4892 17.084 11.3932 17.444 11.3932 17.876C11.3932 18.316 11.5372 18.66 11.8252 18.908C12.1132 19.148 12.5052 19.268 13.0012 19.268ZM19.8025 13.772V15.572H21.5545V16.484H19.8025V18.272H18.7945V16.484H17.0545V15.572H18.7945V13.772H19.8025Z" fill="#616161"/>
</svg>
