<svg width="32" height="32" viewBox="0 0 32 32" fill="none" xmlns="http://www.w3.org/2000/svg">
<rect width="32" height="32" rx="16" fill="#F2F4F7"/>
<path d="M12.9615 11.852C13.8095 11.852 14.4535 12.132 14.8935 12.692C15.3335 13.244 15.5535 14.004 15.5535 14.972C15.5535 16.068 15.4055 16.952 15.1095 17.624C14.8135 18.288 14.3615 18.82 13.7535 19.22C13.1455 19.612 12.3215 19.96 11.2815 20.264L11.0295 19.436C12.1015 19.132 12.9215 18.72 13.4895 18.2C14.0655 17.68 14.3735 16.988 14.4135 16.124C14.2295 16.412 13.9815 16.644 13.6695 16.82C13.3575 16.996 13.0055 17.084 12.6135 17.084C12.1975 17.084 11.8215 16.98 11.4855 16.772C11.1495 16.556 10.8815 16.256 10.6815 15.872C10.4895 15.48 10.3935 15.024 10.3935 14.504C10.3935 13.96 10.5095 13.488 10.7415 13.088C10.9735 12.688 11.2815 12.384 11.6655 12.176C12.0575 11.96 12.4895 11.852 12.9615 11.852ZM12.8415 16.22C13.4735 16.22 14.0055 15.888 14.4375 15.224C14.4535 14.336 14.3415 13.7 14.1015 13.316C13.8695 12.924 13.4975 12.728 12.9855 12.728C12.5135 12.728 12.1495 12.884 11.8935 13.196C11.6375 13.508 11.5095 13.952 11.5095 14.528C11.5095 15.088 11.6295 15.512 11.8695 15.8C12.1095 16.08 12.4335 16.22 12.8415 16.22ZM19.6502 13.772V15.572H21.4022V16.484H19.6502V18.272H18.6422V16.484H16.9022V15.572H18.6422V13.772H19.6502Z" fill="#616161"/>
</svg>
