<svg width="40" height="43" viewBox="0 0 40 43" fill="none" xmlns="http://www.w3.org/2000/svg">
<g filter="url(#filter0_d_321_2830)">
<path d="M2.5 15.7394C2.5 11.3834 2.5 9.20542 3.34773 7.54166C4.09341 6.07818 5.28326 4.88833 6.74674 4.14265C8.4105 3.29492 10.5885 3.29492 14.9444 3.29492H25.0556C29.4115 3.29492 31.5895 3.29492 33.2533 4.14265C34.7167 4.88833 35.9066 6.07818 36.6523 7.54166C37.5 9.20542 37.5 11.3834 37.5 15.7394V25.8505C37.5 30.2064 37.5 32.3844 36.6523 34.0482C35.9066 35.5117 34.7167 36.7015 33.2533 37.4472C31.5895 38.2949 29.4115 38.2949 25.0556 38.2949H14.9444C10.5885 38.2949 8.4105 38.2949 6.74674 37.4472C5.28326 36.7015 4.09341 35.5117 3.34773 34.0482C2.5 32.3844 2.5 30.2064 2.5 25.8505V15.7394Z" fill="white"/>
<path fill-rule="evenodd" clip-rule="evenodd" d="M30 16.8094L29.9999 16.8625C29.9997 16.8849 29.9995 16.9073 29.9993 16.9297C29.9998 16.9558 30 16.9821 30 17.0087C30 21.179 26.7509 24.8705 24.5767 27.3407C23.9458 28.0575 23.4055 28.6715 23.0612 29.1645C21.8367 30.9181 21.1905 32.8179 21.0204 33.5485C21.0204 34.0988 20.5636 34.5449 20 34.5449C19.4364 34.5449 18.9796 34.0988 18.9796 33.5485C18.8095 32.8179 18.1633 30.9181 16.9388 29.1645C16.5945 28.6715 16.0542 28.0575 15.4233 27.3407C13.2491 24.8705 10 21.179 10 17.0087C10 16.9821 10.0002 16.9558 10.0007 16.9297C10.0002 16.8896 10 16.8496 10 16.8094C10 11.4166 14.4771 7.04492 20 7.04492C25.5229 7.04492 30 11.4166 30 16.8094ZM20 20.3964C22.1415 20.3964 23.8776 18.7012 23.8776 16.6101C23.8776 14.5191 22.1415 12.8239 20 12.8239C17.8585 12.8239 16.1224 14.5191 16.1224 16.6101C16.1224 18.7012 17.8585 20.3964 20 20.3964Z" fill="#34A851"/>
<path d="M28.8815 12.3184C27.657 10.0145 25.5199 8.24738 22.9378 7.47363L17.1946 13.997C17.9007 13.2746 18.8965 12.8245 20 12.8245C22.1415 12.8245 23.8775 14.5196 23.8775 16.6107C23.8775 17.4638 23.5886 18.2509 23.1011 18.884L28.8815 12.3184Z" fill="#4285F5"/>
<path d="M15.5393 27.4727C15.501 27.4292 15.4624 27.3853 15.4233 27.341C13.9902 25.7127 12.09 23.5538 10.9612 21.0769L16.9303 14.2969C16.4239 14.9367 16.1225 15.7391 16.1225 16.6104C16.1225 18.7015 17.8586 20.3966 20.0001 20.3966C21.0849 20.3966 22.0656 19.9616 22.7694 19.2606L15.5393 27.4727Z" fill="#F9BB0E"/>
<path d="M12.3661 10.502C10.8901 12.2035 10 14.405 10 16.8095C10 16.8497 10.0002 16.8898 10.0007 16.9298C10.0002 16.9559 10 16.9822 10 17.0088C10 18.4302 10.3774 19.796 10.9611 21.0767L16.9202 14.3082L12.3661 10.502Z" fill="#E74335"/>
<path d="M22.9379 7.4731C22.0089 7.19477 21.0224 7.04492 20.0001 7.04492C16.9398 7.04492 14.2005 8.38726 12.3662 10.5018L16.9203 14.308L16.9302 14.2968C17.0131 14.1921 17.1014 14.0918 17.1948 13.9963L22.9379 7.4731Z" fill="#1A73E6"/>
</g>
<defs>
<filter id="filter0_d_321_2830" x="-2.5" y="-0.455078" width="45" height="45" filterUnits="userSpaceOnUse" color-interpolation-filters="sRGB">
<feFlood flood-opacity="0" result="BackgroundImageFix"/>
<feColorMatrix in="SourceAlpha" type="matrix" values="0 0 0 0 0 0 0 0 0 0 0 0 0 0 0 0 0 0 127 0" result="hardAlpha"/>
<feOffset dy="1.25"/>
<feGaussianBlur stdDeviation="1.25"/>
<feColorMatrix type="matrix" values="0 0 0 0 0.0627451 0 0 0 0 0.0941176 0 0 0 0 0.156863 0 0 0 0.05 0"/>
<feBlend mode="normal" in2="BackgroundImageFix" result="effect1_dropShadow_321_2830"/>
<feBlend mode="normal" in="SourceGraphic" in2="effect1_dropShadow_321_2830" result="shape"/>
</filter>
</defs>
</svg>
