<svg width="23" height="22" viewBox="0 0 23 22" fill="none" xmlns="http://www.w3.org/2000/svg">
<g filter="url(#filter0_d_26_53)">
<path d="M2.75 7.47222C2.75 5.29424 2.75 4.20525 3.17386 3.37337C3.5467 2.64163 4.14163 2.0467 4.87337 1.67386C5.70525 1.25 6.79424 1.25 8.97222 1.25H14.0278C16.2058 1.25 17.2948 1.25 18.1266 1.67386C18.8584 2.0467 19.4533 2.64163 19.8261 3.37337C20.25 4.20525 20.25 5.29424 20.25 7.47222V12.5278C20.25 14.7058 20.25 15.7948 19.8261 16.6266C19.4533 17.3584 18.8584 17.9533 18.1266 18.3261C17.2948 18.75 16.2058 18.75 14.0278 18.75H8.97222C6.79424 18.75 5.70525 18.75 4.87337 18.3261C4.14163 17.9533 3.5467 17.3584 3.17386 16.6266C2.75 15.7948 2.75 14.7058 2.75 12.5278V7.47222Z" fill="white"/>
<path fill-rule="evenodd" clip-rule="evenodd" d="M16.5 8.00725L16.4999 8.03381C16.4999 8.045 16.4998 8.05619 16.4996 8.06738C16.4999 8.08044 16.5 8.0936 16.5 8.10688C16.5 10.1921 14.8755 12.0378 13.7884 13.2729C13.4729 13.6313 13.2027 13.9383 13.0306 14.1848C12.4184 15.0616 12.0952 16.0115 12.0102 16.3768C12.0102 16.652 11.7818 16.875 11.5 16.875C11.2182 16.875 10.9898 16.652 10.9898 16.3768C10.9048 16.0115 10.5816 15.0616 9.96939 14.1848C9.79727 13.9383 9.52708 13.6313 9.21164 13.2729C8.12454 12.0378 6.5 10.1921 6.5 8.10688C6.5 8.0936 6.50012 8.08044 6.50037 8.06738C6.50012 8.04736 6.5 8.02731 6.5 8.00725C6.5 5.31085 8.73857 3.125 11.5 3.125C14.2614 3.125 16.5 5.31085 16.5 8.00725ZM11.5 9.80072C12.5708 9.80072 13.4388 8.95315 13.4388 7.90761C13.4388 6.86207 12.5708 6.01449 11.5 6.01449C10.4292 6.01449 9.56122 6.86207 9.56122 7.90761C9.56122 8.95315 10.4292 9.80072 11.5 9.80072Z" fill="#34A851"/>
<path d="M15.9408 5.76172C15.3285 4.60978 14.26 3.72623 12.9689 3.33936L10.0973 6.60103C10.4503 6.23982 10.9483 6.01478 11.5 6.01478C12.5707 6.01478 13.4388 6.86236 13.4388 7.9079C13.4388 8.33443 13.2943 8.72801 13.0506 9.04454L15.9408 5.76172Z" fill="#4285F5"/>
<path d="M9.26963 13.3389C9.25048 13.3171 9.23115 13.2952 9.21164 13.273C8.49507 12.4589 7.54497 11.3794 6.98056 10.141L9.96514 6.75098C9.71191 7.07088 9.56123 7.47211 9.56123 7.90773C9.56123 8.95327 10.4292 9.80085 11.5 9.80085C12.0424 9.80085 12.5328 9.58335 12.8847 9.23282L9.26963 13.3389Z" fill="#F9BB0E"/>
<path d="M7.68305 4.85352C6.94505 5.70428 6.5 6.80504 6.5 8.00731C6.5 8.02737 6.50012 8.04742 6.50037 8.06744C6.50012 8.0805 6.5 8.09366 6.5 8.10694C6.5 8.81764 6.68872 9.50053 6.98056 10.1409L9.96011 6.75663L7.68305 4.85352Z" fill="#E74335"/>
<path d="M12.9689 3.33909C12.5044 3.19992 12.0112 3.125 11.5 3.125C9.96985 3.125 8.60023 3.79617 7.68307 4.85346L9.96013 6.75655L9.96509 6.75093C10.0065 6.6986 10.0507 6.64844 10.0974 6.60067L12.9689 3.33909Z" fill="#1A73E6"/>
</g>
<defs>
<filter id="filter0_d_26_53" x="-0.5" y="-1" width="24" height="24" filterUnits="userSpaceOnUse" color-interpolation-filters="sRGB">
<feFlood flood-opacity="0" result="BackgroundImageFix"/>
<feColorMatrix in="SourceAlpha" type="matrix" values="0 0 0 0 0 0 0 0 0 0 0 0 0 0 0 0 0 0 127 0" result="hardAlpha"/>
<feOffset dy="1"/>
<feGaussianBlur stdDeviation="1"/>
<feColorMatrix type="matrix" values="0 0 0 0 0.0627451 0 0 0 0 0.0941176 0 0 0 0 0.156863 0 0 0 0.05 0"/>
<feBlend mode="normal" in2="BackgroundImageFix" result="effect1_dropShadow_26_53"/>
<feBlend mode="normal" in="SourceGraphic" in2="effect1_dropShadow_26_53" result="shape"/>
</filter>
</defs>
</svg>
