<svg width="65" height="60" viewBox="0 0 65 60" fill="none" xmlns="http://www.w3.org/2000/svg">
<path d="M1 54.2949H0.6V54.6949V58.7269V59.1269H1H63.341H63.741V58.7269V54.6949V54.2949H63.341H1Z" fill="white" stroke="#C7CED8" stroke-width="0.8"/>
<path d="M30.35 23.958H29.95V24.358V40.632V41.032H30.35H33.991H34.391V40.632V24.358V23.958H33.991H30.35Z" fill="white" stroke="#C7CED8" stroke-width="0.8"/>
<path d="M35.9771 23.958H35.5771V24.358V40.632V41.032H35.9771H39.618H40.018V40.632V24.358V23.958H39.618H35.9771Z" fill="white" stroke="#C7CED8" stroke-width="0.8"/>
<path d="M41.605 23.958H41.205V24.358V40.632V41.032H41.605H45.246H45.646V40.632V24.358V23.958H45.246H41.605Z" fill="white" stroke="#C7CED8" stroke-width="0.8"/>
<path d="M24.722 23.958H24.322V24.358V40.632V41.032H24.722H28.3631H28.7631V40.632V24.358V23.958H28.3631H24.722Z" fill="white" stroke="#C7CED8" stroke-width="0.8"/>
<path d="M19.095 23.958H18.695V24.358V40.632V41.032H19.095H22.736H23.136V40.632V24.358V23.958H22.736H19.095Z" fill="white" stroke="#C7CED8" stroke-width="0.8"/>
<path d="M31.333 0.6H30.933V1V11.124V11.524H31.333H32.524H32.924V11.124V1V0.6H32.524H31.333Z" fill="white" stroke="#C7CED8" stroke-width="0.8"/>
<path d="M42.368 5.98L42.5473 5.22242L38.6926 3.29L42.5473 1.35758L42.368 0.6H33.233H32.833V1V5.58V5.98H33.233H42.368Z" fill="#377DFF" stroke="#C7CED8" stroke-width="0.8"/>
<path d="M7.93201 48.2639H7.53201V48.6639V52.6959V53.0959H7.93201H56.346H56.746V52.6959V48.6639V48.2639H56.346H7.93201Z" fill="white" stroke="#C7CED8" stroke-width="0.8"/>
<path d="M18.475 42.232H18.075V42.632V46.664V47.064H18.475H45.867H46.267V46.664V42.632V42.232H45.867H18.475Z" fill="white" stroke="#C7CED8" stroke-width="0.8"/>
<path d="M18.475 17.926H18.075V18.326V22.3581V22.7581H18.475H45.867H46.267V22.3581V18.326V17.926H45.867H18.475Z" fill="white" stroke="#C7CED8" stroke-width="0.8"/>
<path d="M18.3841 16.878V17.278H18.7841H45.5561H45.9561V16.878C45.9561 14.1965 44.3549 11.815 41.8601 10.1214C39.3631 8.42642 35.936 7.39102 32.1701 7.39102C28.4041 7.39102 24.977 8.42642 22.48 10.1214C19.9852 11.815 18.3841 14.1965 18.3841 16.878Z" fill="white" stroke="#C7CED8" stroke-width="0.8"/>
</svg>
