<svg width="64" height="60" viewBox="0 0 64 60" fill="none" xmlns="http://www.w3.org/2000/svg">
<path d="M1 54.4949H0.8V54.6949V58.7269V58.9269H1H63.341H63.541V58.7269V54.6949V54.4949H63.341H1Z" fill="white" stroke="#C7CED8" stroke-width="0.4"/>
<path d="M30.35 24.158H30.15V24.358V40.632V40.832H30.35H33.991H34.191V40.632V24.358V24.158H33.991H30.35Z" fill="white" stroke="#C7CED8" stroke-width="0.4"/>
<path d="M35.9771 24.158H35.7771V24.358V40.632V40.832H35.9771H39.618H39.818V40.632V24.358V24.158H39.618H35.9771Z" fill="white" stroke="#C7CED8" stroke-width="0.4"/>
<path d="M41.605 24.158H41.405V24.358V40.632V40.832H41.605H45.246H45.446V40.632V24.358V24.158H45.246H41.605Z" fill="white" stroke="#C7CED8" stroke-width="0.4"/>
<path d="M24.722 24.158H24.522V24.358V40.632V40.832H24.722H28.3631H28.5631V40.632V24.358V24.158H28.3631H24.722Z" fill="white" stroke="#C7CED8" stroke-width="0.4"/>
<path d="M19.095 24.158H18.895V24.358V40.632V40.832H19.095H22.736H22.936V40.632V24.358V24.158H22.736H19.095Z" fill="white" stroke="#C7CED8" stroke-width="0.4"/>
<path d="M31.333 0.8H31.133V1V11.124V11.324H31.333H32.524H32.724V11.124V1V0.8H32.524H31.333Z" fill="white" stroke="#C7CED8" stroke-width="0.4"/>
<path d="M42.368 5.78L42.4577 5.40121L38.2463 3.29L42.4577 1.17879L42.368 0.8H33.233H33.033V1V5.58V5.78H33.233H42.368Z" fill="#377DFF" stroke="#C7CED8" stroke-width="0.4"/>
<path d="M7.93201 48.4639H7.73201V48.6639V52.6959V52.8959H7.93201H56.346H56.546V52.6959V48.6639V48.4639H56.346H7.93201Z" fill="white" stroke="#C7CED8" stroke-width="0.4"/>
<path d="M18.475 42.432H18.275V42.632V46.664V46.864H18.475H45.867H46.067V46.664V42.632V42.432H45.867H18.475Z" fill="white" stroke="#C7CED8" stroke-width="0.4"/>
<path d="M18.475 18.126H18.275V18.326V22.3581V22.5581H18.475H45.867H46.067V22.3581V18.326V18.126H45.867H18.475Z" fill="white" stroke="#C7CED8" stroke-width="0.4"/>
<path d="M18.5841 16.878V17.078H18.7841H45.5561H45.7561V16.878C45.7561 14.2825 44.2064 11.9559 41.7478 10.2869C39.2881 8.61722 35.9013 7.59102 32.1701 7.59102C28.4388 7.59102 25.052 8.61722 22.5924 10.2869C20.1338 11.9559 18.5841 14.2825 18.5841 16.878Z" fill="white" stroke="#C7CED8" stroke-width="0.4"/>
</svg>
