<svg width="65" height="60" viewBox="0 0 65 60" fill="none" xmlns="http://www.w3.org/2000/svg">
<path d="M32.171 0L33.54 2.772L36.6 3.217L34.386 5.375L34.908 8.42299L32.171 6.98399L29.434 8.42299L29.957 5.375L27.743 3.217L30.803 2.772L32.171 0Z" fill="#377DFF"/>
<path d="M40.093 1.77905L41.172 3.96606L43.586 4.31706L41.839 6.01906L42.252 8.42305L40.093 7.28806L37.934 8.42305L38.346 6.01906L36.6 4.31706L39.013 3.96606L40.093 1.77905Z" fill="#377DFF"/>
<path d="M46.65 3.46802L47.455 5.09901L49.255 5.36101L47.953 6.63L48.26 8.423L46.65 7.57701L45.04 8.423L45.348 6.63L44.045 5.36101L45.845 5.09901L46.65 3.46802Z" fill="#377DFF"/>
<path d="M24.25 1.77905L23.17 3.96606L20.757 4.31706L22.503 6.01906L22.091 8.42305L24.25 7.28806L26.409 8.42305L25.996 6.01906L27.743 4.31706L25.329 3.96606L24.25 1.77905Z" fill="#377DFF"/>
<path d="M17.692 3.46802L16.888 5.09901L15.088 5.36101L16.39 6.63L16.083 8.423L17.692 7.57701L19.302 8.423L18.995 6.63L20.297 5.36101L18.498 5.09901L17.692 3.46802Z" fill="#377DFF"/>
<mask id="path-6-outside-1_366_1523" maskUnits="userSpaceOnUse" x="0" y="8.00696" width="65" height="52" fill="black">
<rect fill="white" y="8.00696" width="65" height="52"/>
<path d="M56.947 54.309V25.152H47.8V12.494H52.463V9.00696H42.89H21.452H11.879V12.494H16.483V25.152H7.39499V54.309H1V58.341H63.341V54.309H56.947ZM12.073 46.454H9.40599V43.787H12.073V46.454ZM12.073 42.481H9.40599V39.814H12.073V42.481ZM12.073 38.507H9.40599V35.84H12.073V38.507ZM12.073 34.533H9.40599V31.866H12.073V34.533ZM12.073 30.56H9.40599V27.893H12.073V30.56ZM16.047 46.454H13.38V43.787H16.047V46.454ZM16.047 42.481H13.38V39.814H16.047V42.481ZM16.047 38.507H13.38V35.84H16.047V38.507ZM16.047 34.533H13.38V31.866H16.047V34.533ZM16.047 30.56H13.38V27.893H16.047V30.56ZM30.925 37.883V33.119H33.417V37.883H30.925ZM33.417 39.385V44.149H30.925V39.385H33.417ZM30.925 31.617V26.853H33.417V31.617H30.925ZM30.925 25.35V20.586H33.417V25.35H30.925ZM30.925 19.084V14.32H33.417V19.084H30.925ZM26.675 31.617V26.853H29.167V31.617H26.675ZM29.166 33.119V37.883H26.674V33.119H29.166ZM26.675 25.35V20.586H29.167V25.35H26.675ZM26.675 19.084V14.32H29.167V19.084H26.675ZM26.675 39.385H29.167V44.149H26.675V39.385ZM31.539 52.948H29.166V49.344H31.539V52.948ZM35.176 52.948H32.803V49.344H35.176V52.948ZM35.176 48.006H29.166V46.852H35.176V48.006ZM37.668 44.149H35.176V39.385H37.668V44.149ZM37.668 37.883H35.176V33.119H37.668V37.883ZM37.668 31.617H35.176V26.853H37.668V31.617ZM37.668 25.35H35.176V20.586H37.668V25.35ZM37.668 19.084H35.176V14.32H37.668V19.084ZM50.963 42.604H48.296V39.937H50.963V42.604ZM50.963 38.63H48.296V35.963H50.963V38.63ZM50.963 34.656H48.296V31.989H50.963V34.656ZM50.963 30.683H48.296V28.016H50.963V30.683ZM54.936 42.604H52.269V39.937H54.936V42.604ZM54.936 38.63H52.269V35.963H54.936V38.63ZM54.936 34.656H52.269V31.989H54.936V34.656ZM54.936 30.683H52.269V28.016H54.936V30.683Z"/>
</mask>
<path d="M56.947 54.309V25.152H47.8V12.494H52.463V9.00696H42.89H21.452H11.879V12.494H16.483V25.152H7.39499V54.309H1V58.341H63.341V54.309H56.947ZM12.073 46.454H9.40599V43.787H12.073V46.454ZM12.073 42.481H9.40599V39.814H12.073V42.481ZM12.073 38.507H9.40599V35.84H12.073V38.507ZM12.073 34.533H9.40599V31.866H12.073V34.533ZM12.073 30.56H9.40599V27.893H12.073V30.56ZM16.047 46.454H13.38V43.787H16.047V46.454ZM16.047 42.481H13.38V39.814H16.047V42.481ZM16.047 38.507H13.38V35.84H16.047V38.507ZM16.047 34.533H13.38V31.866H16.047V34.533ZM16.047 30.56H13.38V27.893H16.047V30.56ZM30.925 37.883V33.119H33.417V37.883H30.925ZM33.417 39.385V44.149H30.925V39.385H33.417ZM30.925 31.617V26.853H33.417V31.617H30.925ZM30.925 25.35V20.586H33.417V25.35H30.925ZM30.925 19.084V14.32H33.417V19.084H30.925ZM26.675 31.617V26.853H29.167V31.617H26.675ZM29.166 33.119V37.883H26.674V33.119H29.166ZM26.675 25.35V20.586H29.167V25.35H26.675ZM26.675 19.084V14.32H29.167V19.084H26.675ZM26.675 39.385H29.167V44.149H26.675V39.385ZM31.539 52.948H29.166V49.344H31.539V52.948ZM35.176 52.948H32.803V49.344H35.176V52.948ZM35.176 48.006H29.166V46.852H35.176V48.006ZM37.668 44.149H35.176V39.385H37.668V44.149ZM37.668 37.883H35.176V33.119H37.668V37.883ZM37.668 31.617H35.176V26.853H37.668V31.617ZM37.668 25.35H35.176V20.586H37.668V25.35ZM37.668 19.084H35.176V14.32H37.668V19.084ZM50.963 42.604H48.296V39.937H50.963V42.604ZM50.963 38.63H48.296V35.963H50.963V38.63ZM50.963 34.656H48.296V31.989H50.963V34.656ZM50.963 30.683H48.296V28.016H50.963V30.683ZM54.936 42.604H52.269V39.937H54.936V42.604ZM54.936 38.63H52.269V35.963H54.936V38.63ZM54.936 34.656H52.269V31.989H54.936V34.656ZM54.936 30.683H52.269V28.016H54.936V30.683Z" fill="white"/>
<path d="M56.947 54.309V25.152H47.8V12.494H52.463V9.00696H42.89H21.452H11.879V12.494H16.483V25.152H7.39499V54.309H1V58.341H63.341V54.309H56.947ZM12.073 46.454H9.40599V43.787H12.073V46.454ZM12.073 42.481H9.40599V39.814H12.073V42.481ZM12.073 38.507H9.40599V35.84H12.073V38.507ZM12.073 34.533H9.40599V31.866H12.073V34.533ZM12.073 30.56H9.40599V27.893H12.073V30.56ZM16.047 46.454H13.38V43.787H16.047V46.454ZM16.047 42.481H13.38V39.814H16.047V42.481ZM16.047 38.507H13.38V35.84H16.047V38.507ZM16.047 34.533H13.38V31.866H16.047V34.533ZM16.047 30.56H13.38V27.893H16.047V30.56ZM30.925 37.883V33.119H33.417V37.883H30.925ZM33.417 39.385V44.149H30.925V39.385H33.417ZM30.925 31.617V26.853H33.417V31.617H30.925ZM30.925 25.35V20.586H33.417V25.35H30.925ZM30.925 19.084V14.32H33.417V19.084H30.925ZM26.675 31.617V26.853H29.167V31.617H26.675ZM29.166 33.119V37.883H26.674V33.119H29.166ZM26.675 25.35V20.586H29.167V25.35H26.675ZM26.675 19.084V14.32H29.167V19.084H26.675ZM26.675 39.385H29.167V44.149H26.675V39.385ZM31.539 52.948H29.166V49.344H31.539V52.948ZM35.176 52.948H32.803V49.344H35.176V52.948ZM35.176 48.006H29.166V46.852H35.176V48.006ZM37.668 44.149H35.176V39.385H37.668V44.149ZM37.668 37.883H35.176V33.119H37.668V37.883ZM37.668 31.617H35.176V26.853H37.668V31.617ZM37.668 25.35H35.176V20.586H37.668V25.35ZM37.668 19.084H35.176V14.32H37.668V19.084ZM50.963 42.604H48.296V39.937H50.963V42.604ZM50.963 38.63H48.296V35.963H50.963V38.63ZM50.963 34.656H48.296V31.989H50.963V34.656ZM50.963 30.683H48.296V28.016H50.963V30.683ZM54.936 42.604H52.269V39.937H54.936V42.604ZM54.936 38.63H52.269V35.963H54.936V38.63ZM54.936 34.656H52.269V31.989H54.936V34.656ZM54.936 30.683H52.269V28.016H54.936V30.683Z" stroke="#C7CED8" stroke-width="1.6" mask="url(#path-6-outside-1_366_1523)"/>
</svg>
