<svg width="40" height="40" viewBox="0 0 40 40" fill="none" xmlns="http://www.w3.org/2000/svg">
<g clip-path="url(#clip0_3322_6550)">
<rect width="40" height="40" rx="20" fill="white"/>
<path d="M20 40C8.97227 40 0 31.0277 0 20C0 8.97227 8.97227 0 20 0C31.0277 0 40 8.97227 40 20C40 31.0277 31.0277 40 20 40ZM20 0.866551C9.44974 0.866551 0.866551 9.44974 0.866551 20C0.866551 30.5503 9.44974 39.1334 20 39.1334C30.5503 39.1334 39.1334 30.5503 39.1334 20C39.1334 9.44974 30.5503 0.866551 20 0.866551Z" fill="#0037B3"/>
<path d="M3.84074 19.0632L4.07384 19.779H4.82601L4.21769 20.2209L4.44992 20.9367L3.84074 20.4948L3.23242 20.9367L3.46465 20.2209L2.85547 19.779H3.6085L3.84074 19.0632Z" fill="#0037B3"/>
<path d="M36.1611 19.0632L36.3942 19.779H37.1463L36.538 20.2209L36.7702 20.9367L36.1611 20.4948L35.5527 20.9367L35.785 20.2209L35.1758 19.779H35.9288L36.1611 19.0632Z" fill="#0037B3"/>
<path d="M23.0711 18.0138H12.8788V15.0104H14.5919V12.6776H9.54688V15.0104C9.54688 15.0104 10.5469 14.9835 10.5469 16.2833V24.3943C10.5469 25.6941 9.54688 25.6672 9.54688 25.6672V28H12.8796V20.3466H23.072V18.0138H23.0711Z" fill="#0037B3"/>
<path d="M30.4496 15.0104V12.6776H17.4062V15.0104H27.1168V18.0138H25.8855V20.3466H27.1168V28H30.4496V25.6672C30.4496 25.6672 29.4496 25.6941 29.4496 24.3943V16.2833C29.4496 14.9835 30.4496 15.0104 30.4496 15.0104Z" fill="#0037B3"/>
<path d="M25.4057 27.7617V26.195L23.6033 24.3925H25.4057V15.4922H23.073V22.0598H16.9265V20.8284H14.5937V27.7617C14.5937 29.0615 13.5938 29.0346 13.5938 29.0346V31.3674H16.9265V24.3917H20.3043L23.073 27.1603V31.3674H26.4057V29.0346C26.4057 29.0346 25.4057 29.0615 25.4057 27.7617Z" fill="#0037B3"/>
<path d="M14.5938 12.2374V18.0138H16.9265V10.9645H23.073V12.6776H25.4057V12.2383C25.4057 10.9385 26.4057 10.9653 26.4057 10.9653V8.63257H13.5938V10.9653C13.5938 10.9653 14.5938 10.9385 14.5938 12.2383V12.2374Z" fill="#0037B3"/>
</g>
<defs>
<clipPath id="clip0_3322_6550">
<rect width="40" height="40" rx="20" fill="white"/>
</clipPath>
</defs>
</svg>
