<svg width="100" height="92" viewBox="0 0 100 92" fill="none" xmlns="http://www.w3.org/2000/svg">
<path d="M30.9435 30.7214L57.4099 46.0018V76.5625L30.9435 91.8429L4.47717 76.5625V46.0018L30.9435 30.7214Z" fill="#65DFCD" fill-opacity="0.8"/>
<path d="M56.7638 14.9146L83.2302 30.1949V60.7556L56.7638 76.036L30.2975 60.7556V30.1949L56.7638 14.9146Z" fill="#50D5D0" fill-opacity="0.8"/>
<path d="M30.9435 0.160889L57.4099 15.4412V46.002L30.9435 61.2823L4.47717 46.002V15.4412L30.9435 0.160889Z" fill="#4EDAC1" fill-opacity="0.82"/>
<path d="M40.7056 32.8474C39.9345 33.2612 39.1164 34.0417 38.2513 35.1889C37.3862 36.3173 36.5117 37.7654 35.6278 39.5332C36.3048 39.6648 36.9255 39.8153 37.4896 39.9845C38.0727 40.1538 38.5992 40.3325 39.0694 40.5205L40.7056 32.8474ZM42.9059 30.8445C43.3009 30.8445 43.6958 30.8821 44.0908 30.9574C44.4857 31.0138 44.8336 31.1078 45.1345 31.2395L40.7056 52.002H36.6434L38.8155 41.7618C38.1573 41.4609 37.5367 41.2352 36.9537 41.0847C36.3707 40.9155 35.7312 40.8026 35.0354 40.7462C33.9634 43.0782 33.0795 45.4479 32.3837 47.8551C31.7066 50.2623 31.3681 52.19 31.3681 53.6381C31.3681 53.9766 31.3963 54.2681 31.4527 54.5126C31.528 54.7759 31.6314 55.011 31.763 55.2179C30.3337 55.2179 29.3464 54.9734 28.801 54.4844C28.2556 53.9955 27.9829 53.2432 27.9829 52.2276C27.9829 50.9676 28.359 49.2844 29.1113 47.1781C29.8824 45.0717 30.8885 42.9278 32.1298 40.7462C31.1706 40.8026 30.4184 40.9531 29.873 41.1976C29.3464 41.442 28.9985 41.7806 28.8292 42.2131C28.9044 42.2131 28.9797 42.3166 29.0549 42.5234C29.1489 42.7115 29.1959 42.8996 29.1959 43.0876C29.1959 43.4073 29.0455 43.6706 28.7446 43.8775C28.4437 44.0844 28.0675 44.1878 27.6162 44.1878C27.0896 44.1878 26.6665 44.0468 26.3467 43.7647C26.027 43.4638 25.8672 43.0594 25.8672 42.5516C25.8672 41.5737 26.4126 40.7556 27.5033 40.0974C28.6129 39.4203 29.9858 39.0818 31.622 39.0818C31.8101 39.0818 32.0263 39.0912 32.2708 39.11C32.5153 39.11 32.788 39.1288 33.0889 39.1665C34.7439 36.5523 36.4271 34.5118 38.1385 33.0449C39.8499 31.578 41.439 30.8445 42.9059 30.8445ZM54.8096 40.2384C54.8096 40.8779 54.6686 41.3856 54.3865 41.7618C54.1232 42.1191 53.7659 42.2977 53.3145 42.2977C53.1641 42.2977 53.0042 42.2695 52.8349 42.2131C52.6657 42.1567 52.4964 42.0721 52.3272 41.9592C52.44 41.6583 52.5246 41.3668 52.5811 41.0847C52.6375 40.8026 52.6657 40.5393 52.6657 40.2948C52.6657 39.9187 52.5999 39.6366 52.4682 39.4485C52.3366 39.2417 52.1391 39.1382 51.8758 39.1382C51.0483 39.1382 50.2396 40.0974 49.4498 42.0156C48.6599 43.9151 48.2649 45.7205 48.2649 47.4319C48.2649 48.2971 48.406 48.9083 48.6881 49.2656C48.989 49.6229 49.525 49.8016 50.2961 49.8016C51.18 49.8016 51.9887 49.6041 52.7221 49.2092C53.4744 48.7954 54.3301 48.0432 55.2892 46.9524H56.2483C55.1576 48.7202 53.9727 50.0367 52.6939 50.9018C51.4151 51.7481 50.014 52.1712 48.4906 52.1712C47.0425 52.1712 45.9423 51.7951 45.1901 51.0428C44.4566 50.2906 44.0899 49.1716 44.0899 47.6858C44.0899 46.6139 44.2497 45.4761 44.5694 44.2724C44.908 43.0688 45.3687 41.9968 45.9517 41.0565C46.6476 39.9281 47.4751 39.0818 48.4342 38.5176C49.4121 37.9346 50.4935 37.6431 51.6783 37.6431C52.7127 37.6431 53.4932 37.8688 54.0198 38.3202C54.5463 38.7527 54.8096 39.3921 54.8096 40.2384ZM56.2706 37.897H57.2015L58.0478 34.004L62.2229 33.4398L61.2638 37.897H62.9564L62.7307 39.0254H61.0381L59.2326 47.4884C59.195 47.6576 59.1668 47.8175 59.148 47.9679C59.1292 48.0996 59.1198 48.2406 59.1198 48.3911C59.1198 48.7672 59.2044 49.0399 59.3737 49.2092C59.5618 49.3596 59.8627 49.4349 60.2764 49.4349C60.803 49.4349 61.3014 49.2092 61.7715 48.7578C62.2417 48.2877 62.5896 47.6858 62.8153 46.9524H64.0001C63.3983 48.6638 62.5896 49.9614 61.5741 50.8453C60.5585 51.7293 59.3925 52.1712 58.076 52.1712C57.1357 52.1712 56.3928 51.8797 55.8475 51.2967C55.3209 50.6949 55.0576 49.858 55.0576 48.786C55.0576 48.5415 55.0764 48.2688 55.114 47.9679C55.1516 47.6482 55.208 47.3097 55.2833 46.9524L56.9759 39.0254H56.0449L56.2706 37.897ZM67.5151 49.4349C68.0041 49.4349 68.4366 49.228 68.8128 48.8142C69.2077 48.3817 69.5274 47.7611 69.7719 46.9524L71.6902 37.897H75.7524L73.7213 47.4884C73.6837 47.6576 73.6555 47.8175 73.6367 47.9679C73.6179 48.0996 73.6085 48.2406 73.6085 48.3911C73.6085 48.7672 73.6931 49.0399 73.8623 49.2092C74.0504 49.3596 74.3513 49.4349 74.7651 49.4349C75.254 49.4349 75.696 49.2186 76.0909 48.786C76.4859 48.3535 76.8056 47.7423 77.0501 46.9524H78.2349C77.6331 48.6826 76.8526 49.9896 75.8935 50.8736C74.9343 51.7387 73.8247 52.1712 72.5647 52.1712C71.756 52.1712 71.1072 51.9455 70.6182 51.4942C70.1292 51.024 69.8471 50.3564 69.7719 49.4913C69.2265 50.394 68.6059 51.071 67.9101 51.5224C67.233 51.9549 66.4619 52.1712 65.5968 52.1712C64.6565 52.1712 63.9137 51.8797 63.3683 51.2967C62.8417 50.6949 62.5784 49.858 62.5784 48.786C62.5784 48.5415 62.5972 48.2688 62.6348 47.9679C62.6724 47.6482 62.7288 47.3097 62.8041 46.9524L64.7223 37.897H68.7846L66.7534 47.4884C66.7158 47.6388 66.6876 47.7799 66.6688 47.9115C66.6688 48.0244 66.6688 48.1466 66.6688 48.2782C66.6688 48.6544 66.7346 48.9459 66.8663 49.1528C67.0167 49.3408 67.233 49.4349 67.5151 49.4349ZM80.037 52.002H75.9748L78.965 37.897H83.0273L82.6605 39.646C83.488 38.9502 84.1368 38.4894 84.607 38.2637C85.096 38.0192 85.5849 37.897 86.0739 37.897C86.6569 37.897 87.1271 38.1039 87.4844 38.5176C87.8417 38.9126 88.0204 39.4109 88.0204 40.0127C88.0204 40.5958 87.8323 41.0847 87.4562 41.4797C87.0801 41.8746 86.5911 42.0721 85.9893 42.0721C85.6696 42.0721 85.4157 41.9968 85.2276 41.8464C85.0584 41.6959 84.9361 41.3856 84.8609 40.9155C84.8045 40.6146 84.7387 40.4265 84.6634 40.3513C84.5882 40.2572 84.4848 40.2102 84.3531 40.2102C84.0334 40.2102 83.7325 40.276 83.4504 40.4077C83.1683 40.5393 82.7828 40.8308 82.2938 41.2822L80.037 52.002ZM97.9509 40.3513C97.9509 41.9122 97.3115 43.2757 96.0327 44.4417C94.7538 45.5889 93.2305 46.2095 91.4627 46.3036C91.4439 46.6233 91.4251 46.8678 91.4063 47.037C91.4063 47.1875 91.4063 47.3191 91.4063 47.4319C91.4063 48.2971 91.5473 48.9083 91.8294 49.2656C92.1303 49.6229 92.6663 49.8016 93.4374 49.8016C94.3213 49.8016 95.13 49.6041 95.8634 49.2092C96.6157 48.7954 97.4714 48.0432 98.4305 46.9524H99.3897C98.2989 48.7202 97.1141 50.0367 95.8352 50.9018C94.5564 51.7481 93.1553 52.1712 91.6319 52.1712C90.1838 52.1712 89.0836 51.7951 88.3314 51.0428C87.5979 50.2906 87.2312 49.1716 87.2312 47.6858C87.2312 46.6139 87.4004 45.4761 87.739 44.2724C88.0775 43.0688 88.5288 41.9968 89.093 41.0565C89.7889 39.9281 90.6164 39.0818 91.5755 38.5176C92.5535 37.9346 93.6442 37.6431 94.8479 37.6431C95.8822 37.6431 96.6533 37.8688 97.1611 38.3202C97.6877 38.7527 97.9509 39.4297 97.9509 40.3513ZM95.0735 39.1382C94.4341 39.1382 93.7853 39.7118 93.1271 40.859C92.4876 41.9874 92.0081 43.3509 91.6884 44.9495C92.7791 44.8743 93.7289 44.3759 94.5376 43.4544C95.365 42.514 95.7788 41.4609 95.7788 40.2948C95.7788 39.8999 95.7224 39.6084 95.6095 39.4203C95.4967 39.2323 95.318 39.1382 95.0735 39.1382Z" fill="black"/>
</svg>
