<svg width="188" height="40" viewBox="0 0 188 40" fill="none" xmlns="http://www.w3.org/2000/svg">
<g clip-path="url(#clip0_2745_34529)">
<path d="M20 40C8.97227 40 0 31.0277 0 20C0 8.97227 8.97227 0 20 0C31.0277 0 40 8.97227 40 20C40 31.0277 31.0277 40 20 40ZM20 0.866551C9.44974 0.866551 0.866551 9.44974 0.866551 20C0.866551 30.5503 9.44974 39.1334 20 39.1334C30.5503 39.1334 39.1334 30.5503 39.1334 20C39.1334 9.44974 30.5503 0.866551 20 0.866551Z" fill="#0037B3"/>
<path d="M3.84074 19.0633L4.07384 19.779H4.82601L4.21769 20.221L4.44992 20.9367L3.84074 20.4948L3.23242 20.9367L3.46465 20.221L2.85547 19.779H3.6085L3.84074 19.0633Z" fill="#0037B3"/>
<path d="M36.1611 19.0633L36.3942 19.779H37.1463L36.538 20.221L36.7702 20.9367L36.1611 20.4948L35.5527 20.9367L35.785 20.221L35.1758 19.779H35.9288L36.1611 19.0633Z" fill="#0037B3"/>
<path d="M23.0711 18.0139H12.8788V15.0104H14.5919V12.6776H9.54688V15.0104C9.54688 15.0104 10.5469 14.9835 10.5469 16.2834V24.3943C10.5469 25.6941 9.54688 25.6672 9.54688 25.6672V28H12.8796V20.3466H23.072V18.0139H23.0711Z" fill="#0037B3"/>
<path d="M30.4496 15.0104V12.6776H17.4062V15.0104H27.1168V18.0139H25.8855V20.3466H27.1168V28H30.4496V25.6672C30.4496 25.6672 29.4496 25.6941 29.4496 24.3943V16.2834C29.4496 14.9835 30.4496 15.0104 30.4496 15.0104Z" fill="#0037B3"/>
<path d="M25.4057 27.7617V26.195L23.6033 24.3925H25.4057V15.4922H23.073V22.0598H16.9265V20.8284H14.5937V27.7617C14.5937 29.0615 13.5938 29.0347 13.5938 29.0347V31.3674H16.9265V24.3917H20.3043L23.073 27.1603V31.3674H26.4057V29.0347C26.4057 29.0347 25.4057 29.0615 25.4057 27.7617Z" fill="#0037B3"/>
<path d="M14.5938 12.2374V18.0139H16.9265V10.9645H23.073V12.6776H25.4057V12.2383C25.4057 10.9385 26.4057 10.9653 26.4057 10.9653V8.63258H13.5938V10.9653C13.5938 10.9653 14.5938 10.9385 14.5938 12.2383V12.2374Z" fill="#0037B3"/>
</g>
<path d="M66.536 28L65.6 24.28H60.392L59.456 28H55.784L60.896 11.392H65.192L70.28 28H66.536ZM61.064 21.664H64.928L62.984 14.008L61.064 21.664ZM77.8865 14.92C78.2705 14.92 78.6945 14.984 79.1585 15.112L78.5825 18.4C78.1345 18.288 77.7585 18.232 77.4545 18.232C76.7025 18.232 76.1185 18.496 75.7025 19.024C75.2865 19.552 74.9585 20.352 74.7185 21.424V28H71.3105V15.28H74.2625L74.5745 17.752C74.8785 16.856 75.3185 16.16 75.8945 15.664C76.4865 15.168 77.1505 14.92 77.8865 14.92ZM85.8896 9.832C87.3136 9.832 88.6656 10.144 89.9456 10.768L88.9376 13C88.0896 12.6 87.1856 12.4 86.2256 12.4C85.4576 12.4 84.9296 12.536 84.6416 12.808C84.3536 13.08 84.2096 13.528 84.2096 14.152V15.28H91.2896V28H87.8816V17.68H84.2096V28H80.8016V17.68H78.8336V15.28H80.8016V14.056C80.8016 12.792 81.2176 11.776 82.0496 11.008C82.8976 10.224 84.1776 9.832 85.8896 9.832ZM103.932 24.472C103.932 24.968 104.004 25.336 104.148 25.576C104.292 25.8 104.532 25.968 104.868 26.08L104.148 28.336C103.396 28.272 102.78 28.096 102.3 27.808C101.836 27.52 101.476 27.072 101.22 26.464C100.388 27.744 99.1161 28.384 97.4041 28.384C96.1401 28.384 95.1321 28.024 94.3801 27.304C93.6441 26.568 93.2761 25.616 93.2761 24.448C93.2761 23.056 93.7801 21.992 94.7881 21.256C95.7961 20.52 97.2441 20.152 99.1321 20.152H100.596V19.528C100.596 18.744 100.42 18.2 100.068 17.896C99.7161 17.592 99.1321 17.44 98.3161 17.44C97.4201 17.44 96.3001 17.664 94.9561 18.112L94.1881 15.832C95.7721 15.208 97.3401 14.896 98.8921 14.896C100.62 14.896 101.892 15.272 102.708 16.024C103.524 16.76 103.932 17.864 103.932 19.336V24.472ZM98.3401 25.936C99.3001 25.936 100.052 25.464 100.596 24.52V22.096H99.4681C97.6281 22.096 96.7081 22.784 96.7081 24.16C96.7081 24.72 96.8441 25.16 97.1161 25.48C97.4041 25.784 97.8121 25.936 98.3401 25.936ZM114.009 14.896C115.129 14.896 116.001 15.24 116.625 15.928C117.249 16.6 117.561 17.536 117.561 18.736V28H114.153V19.312C114.153 18.624 114.033 18.144 113.793 17.872C113.569 17.584 113.225 17.44 112.761 17.44C112.281 17.44 111.841 17.592 111.441 17.896C111.057 18.184 110.681 18.624 110.313 19.216V28H106.905V15.28H109.857L110.121 16.888C110.649 16.232 111.225 15.736 111.849 15.4C112.489 15.064 113.209 14.896 114.009 14.896ZM132.423 11.008C133.463 11.008 134.367 11.16 135.135 11.464C135.903 11.752 136.655 12.2 137.391 12.808L135.639 14.848C134.679 14.064 133.671 13.672 132.615 13.672C131.431 13.672 130.487 14.16 129.783 15.136C129.095 16.096 128.751 17.608 128.751 19.672C128.751 21.688 129.095 23.184 129.783 24.16C130.487 25.12 131.439 25.6 132.639 25.6C133.263 25.6 133.831 25.488 134.343 25.264C134.855 25.024 135.391 24.688 135.951 24.256L137.583 26.296C136.991 26.904 136.255 27.408 135.375 27.808C134.511 28.192 133.551 28.384 132.495 28.384C131.007 28.384 129.703 28.048 128.583 27.376C127.463 26.704 126.591 25.72 125.967 24.424C125.343 23.112 125.031 21.528 125.031 19.672C125.031 17.864 125.351 16.312 125.991 15.016C126.631 13.704 127.511 12.712 128.631 12.04C129.751 11.352 131.015 11.008 132.423 11.008ZM148.563 24.472C148.563 24.968 148.635 25.336 148.779 25.576C148.923 25.8 149.163 25.968 149.499 26.08L148.779 28.336C148.027 28.272 147.411 28.096 146.931 27.808C146.467 27.52 146.107 27.072 145.851 26.464C145.019 27.744 143.747 28.384 142.035 28.384C140.771 28.384 139.763 28.024 139.011 27.304C138.275 26.568 137.907 25.616 137.907 24.448C137.907 23.056 138.411 21.992 139.419 21.256C140.427 20.52 141.875 20.152 143.763 20.152H145.227V19.528C145.227 18.744 145.051 18.2 144.699 17.896C144.347 17.592 143.763 17.44 142.947 17.44C142.051 17.44 140.931 17.664 139.587 18.112L138.819 15.832C140.403 15.208 141.971 14.896 143.523 14.896C145.251 14.896 146.523 15.272 147.339 16.024C148.155 16.76 148.563 17.864 148.563 19.336V24.472ZM142.971 25.936C143.931 25.936 144.683 25.464 145.227 24.52V22.096H144.099C142.259 22.096 141.339 22.784 141.339 24.16C141.339 24.72 141.475 25.16 141.747 25.48C142.035 25.784 142.443 25.936 142.971 25.936ZM158.64 14.896C159.744 14.896 160.608 15.24 161.232 15.928C161.872 16.6 162.192 17.536 162.192 18.736V28H158.784V19.312C158.784 18.624 158.664 18.144 158.424 17.872C158.184 17.584 157.84 17.44 157.392 17.44C156.496 17.44 155.68 18.024 154.944 19.192V28H151.536V10.216L154.944 9.856V16.72C155.456 16.112 156.008 15.656 156.6 15.352C157.208 15.048 157.888 14.896 158.64 14.896ZM171.414 28.024C170.902 29.64 170.094 30.888 168.99 31.768C167.902 32.648 166.422 33.152 164.55 33.28L164.19 30.832C165.406 30.672 166.294 30.384 166.854 29.968C167.43 29.552 167.902 28.896 168.27 28H167.094L163.134 15.28H166.758L169.302 25.792L171.99 15.28H175.518L171.414 28.024ZM185.963 24.472C185.963 24.968 186.035 25.336 186.179 25.576C186.323 25.8 186.563 25.968 186.899 26.08L186.179 28.336C185.427 28.272 184.811 28.096 184.331 27.808C183.867 27.52 183.507 27.072 183.251 26.464C182.419 27.744 181.147 28.384 179.435 28.384C178.171 28.384 177.163 28.024 176.411 27.304C175.675 26.568 175.307 25.616 175.307 24.448C175.307 23.056 175.811 21.992 176.819 21.256C177.827 20.52 179.275 20.152 181.163 20.152H182.627V19.528C182.627 18.744 182.451 18.2 182.099 17.896C181.747 17.592 181.163 17.44 180.347 17.44C179.451 17.44 178.331 17.664 176.987 18.112L176.219 15.832C177.803 15.208 179.371 14.896 180.923 14.896C182.651 14.896 183.923 15.272 184.739 16.024C185.555 16.76 185.963 17.864 185.963 19.336V24.472ZM180.371 25.936C181.331 25.936 182.083 25.464 182.627 24.52V22.096H181.499C179.659 22.096 178.739 22.784 178.739 24.16C178.739 24.72 178.875 25.16 179.147 25.48C179.435 25.784 179.843 25.936 180.371 25.936Z" fill="#202231"/>
<defs>
<clipPath id="clip0_2745_34529">
<rect width="40" height="40" fill="white"/>
</clipPath>
</defs>
</svg>
