<svg width="101" height="101" viewBox="0 0 101 101" fill="none" xmlns="http://www.w3.org/2000/svg">
<g clip-path="url(#clip0_3232_6557)">
<path d="M75.3828 50C75.3828 63.806 64.1888 75 50.3828 75V68.7519C55.3557 68.7513 60.1248 66.7754 63.641 63.2588C67.1572 59.7422 69.1326 54.9729 69.1326 50H75.3828Z" fill="#498AC6"/>
<path d="M75.3828 50C75.3827 47.8962 75.648 45.8008 76.1724 43.7635V43.7635C78.9461 32.9817 88.7343 25.0095 100.379 25.0095V50H75.3828Z" fill="#FFC700"/>
<path d="M100.381 50L50.3828 99.9979V75.0021C62.0324 75.0021 71.8206 67.0331 74.5943 56.2481C75.1205 54.2072 75.3862 52.1077 75.3849 50H100.381Z" fill="#FFC700"/>
<path d="M100.379 49.9999C100.398 58.7782 98.0887 67.4046 93.6875 74.9999C87.4383 85.8113 77.2612 94.0614 65.1052 97.797C57.6251 100.102 49.7082 100.619 41.9919 99.3056C34.2756 97.9923 26.9754 94.8857 20.679 90.2358C14.3825 85.586 9.26577 79.5227 5.74057 72.5342C2.21537 65.5457 0.380212 57.8272 0.382815 49.9999C0.382815 22.3879 22.7688 0.00199659 50.3807 0.00199659C56.9483 -0.00667703 63.4528 1.28281 69.5204 3.79634C75.588 6.30987 81.099 9.99786 85.7365 14.6483L68.0597 32.3252C65.7406 30 62.985 28.156 59.951 26.8992C56.9171 25.6425 53.6647 24.9977 50.3807 25.002C36.5747 25.002 25.3807 36.196 25.3807 50.002C25.3814 52.1081 25.6482 54.2056 26.1745 56.2449C27.5614 61.6112 30.6911 66.3649 35.0723 69.7599C39.4535 73.1548 44.8381 74.9987 50.3807 75.002C62.0303 75.002 71.8185 67.033 74.5922 56.248C75.1184 54.207 75.3841 52.1076 75.3828 49.9999H100.379Z" fill="#498AC6"/>
<path d="M75.3828 75.002C75.3822 77.1078 75.6475 79.2054 76.1724 81.2448V81.2448C78.945 92.0329 88.7332 99.9977 100.379 99.9977V75.002H75.3828Z" fill="#FFC700"/>
<path d="M100.383 50.002H75.3828V100.002H100.383V50.002Z" fill="#498AC6"/>
<path d="M100.379 50C100.383 58.7781 98.0752 67.4025 93.6872 75.0052C89.2992 82.6079 82.9859 88.9206 75.3828 93.3079V50H100.379Z" fill="#255F92"/>
<path d="M100.381 50C100.383 54.2117 99.8535 58.4068 98.8047 62.4857V62.4931C93.2605 84.0652 73.6831 99.9979 50.3828 99.9979V75.0021C62.0324 75.0021 71.8206 67.0331 74.5943 56.2481C75.1205 54.2072 75.3862 52.1077 75.3849 50H100.381Z" fill="#255F92"/>
<path d="M44.1328 37.5012V62.5012L62.8825 50.0017L44.1328 37.5012Z" fill="#FFC700"/>
<path d="M100.379 50C100.383 58.7781 98.0752 67.4025 93.6872 75.0052C89.2992 82.6079 82.9859 88.9206 75.3828 93.3079V50H100.379Z" fill="#255F92"/>
</g>
<defs>
<clipPath id="clip0_3232_6557">
<rect width="100" height="100" fill="white" transform="translate(0.382812 0.00195312)"/>
</clipPath>
</defs>
</svg>
