<svg width="150" height="40" viewBox="0 0 150 40" fill="none" xmlns="http://www.w3.org/2000/svg">
<g clip-path="url(#clip0_2658_26829)">
<path d="M20 40C8.97227 40 0 31.0277 0 20C0 8.97227 8.97227 0 20 0C31.0277 0 40 8.97227 40 20C40 31.0277 31.0277 40 20 40ZM20 0.866551C9.44974 0.866551 0.866551 9.44974 0.866551 20C0.866551 30.5503 9.44974 39.1334 20 39.1334C30.5503 39.1334 39.1334 30.5503 39.1334 20C39.1334 9.44974 30.5503 0.866551 20 0.866551Z" fill="#0037B3"/>
<path d="M3.83885 19.0633L4.07195 19.779H4.82411L4.2158 20.221L4.44803 20.9367L3.83885 20.4948L3.23053 20.9367L3.46276 20.221L2.85358 19.779H3.60661L3.83885 19.0633Z" fill="#0037B3"/>
<path d="M36.1603 19.0633L36.3934 19.779H37.1456L36.5373 20.221L36.7695 20.9367L36.1603 20.4948L35.552 20.9367L35.7842 20.221L35.175 19.779H35.9281L36.1603 19.0633Z" fill="#0037B3"/>
<path d="M23.0728 18.0139H12.8804V15.0104H14.5936V12.6776H9.54852V15.0104C9.54852 15.0104 10.5485 14.9835 10.5485 16.2834V24.3943C10.5485 25.6941 9.54852 25.6672 9.54852 25.6672V28H12.8813V20.3466H23.0737V18.0139H23.0728Z" fill="#0037B3"/>
<path d="M30.4515 15.0104V12.6776H17.4081V15.0104H27.1187V18.0139H25.8873V20.3466H27.1187V28H30.4515V25.6672C30.4515 25.6672 29.4515 25.6941 29.4515 24.3943V16.2834C29.4515 14.9835 30.4515 15.0104 30.4515 15.0104Z" fill="#0037B3"/>
<path d="M25.4064 27.7617V26.195L23.604 24.3925H25.4064V15.4922H23.0736V22.0598H16.9272V20.8284H14.5944V27.7617C14.5944 29.0615 13.5944 29.0347 13.5944 29.0347V31.3674H16.9272V24.3917H20.305L23.0736 27.1603V31.3674H26.4064V29.0347C26.4064 29.0347 25.4064 29.0615 25.4064 27.7617Z" fill="#0037B3"/>
<path d="M14.5936 12.2374V18.0139H16.9263V10.9645H23.0728V12.6776H25.4055V12.2383C25.4055 10.9385 26.4055 10.9653 26.4055 10.9653V8.63258H13.5936V10.9653C13.5936 10.9653 14.5936 10.9385 14.5936 12.2383V12.2374Z" fill="#0037B3"/>
</g>
<path d="M66.536 28L65.6 24.28H60.392L59.456 28H55.784L60.896 11.392H65.192L70.28 28H66.536ZM61.064 21.664H64.928L62.984 14.008L61.064 21.664ZM76.6145 14.896C77.4625 14.896 78.2225 15.024 78.8945 15.28C79.5825 15.52 80.2305 15.904 80.8385 16.432L79.3505 18.448C78.9345 18.128 78.5265 17.896 78.1265 17.752C77.7425 17.608 77.3185 17.536 76.8545 17.536C75.0465 17.536 74.1425 18.928 74.1425 21.712C74.1425 23.12 74.3745 24.128 74.8385 24.736C75.3025 25.344 75.9665 25.648 76.8305 25.648C77.2785 25.648 77.6865 25.584 78.0545 25.456C78.4225 25.312 78.8545 25.08 79.3505 24.76L80.8385 26.896C79.6225 27.888 78.2305 28.384 76.6625 28.384C75.4145 28.384 74.3265 28.112 73.3985 27.568C72.4865 27.024 71.7825 26.256 71.2865 25.264C70.7905 24.256 70.5425 23.08 70.5425 21.736C70.5425 20.392 70.7905 19.208 71.2865 18.184C71.7825 17.144 72.4865 16.336 73.3985 15.76C74.3265 15.184 75.3985 14.896 76.6145 14.896ZM89.9474 27.4C89.4834 27.72 88.9554 27.96 88.3634 28.12C87.7874 28.296 87.2114 28.384 86.6354 28.384C85.3234 28.368 84.3314 27.992 83.6594 27.256C82.9874 26.52 82.6514 25.44 82.6514 24.016V17.68H80.7554V15.28H82.6514V12.496L86.0594 12.088V15.28H88.9874L88.6514 17.68H86.0594V23.944C86.0594 24.552 86.1634 24.992 86.3714 25.264C86.5794 25.536 86.8994 25.672 87.3314 25.672C87.7634 25.672 88.2434 25.528 88.7714 25.24L89.9474 27.4ZM101.441 28H98.4886L98.3206 26.296C97.8726 27 97.3286 27.528 96.6886 27.88C96.0486 28.216 95.3046 28.384 94.4566 28.384C93.3046 28.384 92.4246 28.04 91.8166 27.352C91.2086 26.648 90.9046 25.672 90.9046 24.424V15.28H94.3126V23.992C94.3126 24.664 94.4246 25.144 94.6486 25.432C94.8726 25.704 95.2246 25.84 95.7046 25.84C96.6166 25.84 97.3926 25.288 98.0326 24.184V15.28H101.441V28ZM110.95 14.92C111.334 14.92 111.758 14.984 112.222 15.112L111.646 18.4C111.198 18.288 110.822 18.232 110.518 18.232C109.766 18.232 109.182 18.496 108.766 19.024C108.35 19.552 108.022 20.352 107.782 21.424V28H104.374V15.28H107.326L107.638 17.752C107.942 16.856 108.382 16.16 108.958 15.664C109.55 15.168 110.214 14.92 110.95 14.92ZM123.506 21.352C123.506 21.512 123.482 21.952 123.434 22.672H115.49C115.602 23.824 115.914 24.64 116.426 25.12C116.938 25.6 117.634 25.84 118.514 25.84C119.058 25.84 119.57 25.752 120.05 25.576C120.53 25.4 121.05 25.12 121.61 24.736L123.026 26.656C121.602 27.808 119.994 28.384 118.202 28.384C116.202 28.384 114.666 27.784 113.594 26.584C112.522 25.384 111.986 23.76 111.986 21.712C111.986 20.416 112.21 19.256 112.658 18.232C113.122 17.192 113.786 16.376 114.65 15.784C115.53 15.192 116.57 14.896 117.77 14.896C119.578 14.896 120.986 15.464 121.994 16.6C123.002 17.736 123.506 19.32 123.506 21.352ZM120.122 20.392C120.122 18.28 119.362 17.224 117.842 17.224C117.138 17.224 116.586 17.488 116.186 18.016C115.802 18.528 115.57 19.368 115.49 20.536H120.122V20.392ZM126.483 24.28C127.059 24.28 127.547 24.48 127.947 24.88C128.347 25.28 128.547 25.76 128.547 26.32C128.547 26.88 128.347 27.368 127.947 27.784C127.547 28.184 127.059 28.384 126.483 28.384C125.923 28.384 125.443 28.184 125.043 27.784C124.643 27.368 124.443 26.88 124.443 26.32C124.443 25.76 124.643 25.28 125.043 24.88C125.443 24.48 125.923 24.28 126.483 24.28ZM134.048 15.28V28H130.64V15.28H134.048ZM132.32 8.728C132.928 8.728 133.424 8.92 133.808 9.304C134.208 9.672 134.408 10.144 134.408 10.72C134.408 11.296 134.208 11.776 133.808 12.16C133.424 12.528 132.928 12.712 132.32 12.712C131.712 12.712 131.216 12.528 130.832 12.16C130.448 11.776 130.256 11.296 130.256 10.72C130.256 10.144 130.448 9.672 130.832 9.304C131.216 8.92 131.712 8.728 132.32 8.728ZM147.998 10.216V28H144.998L144.806 26.44C143.91 27.736 142.694 28.384 141.158 28.384C139.59 28.384 138.39 27.784 137.558 26.584C136.742 25.368 136.334 23.72 136.334 21.64C136.334 20.328 136.542 19.168 136.958 18.16C137.39 17.136 137.998 16.336 138.782 15.76C139.566 15.184 140.47 14.896 141.494 14.896C142.678 14.896 143.71 15.32 144.59 16.168V9.832L147.998 10.216ZM142.166 25.84C142.662 25.84 143.102 25.72 143.486 25.48C143.87 25.224 144.238 24.832 144.59 24.304V18.616C144.254 18.216 143.91 17.92 143.558 17.728C143.222 17.52 142.83 17.416 142.382 17.416C141.598 17.416 140.982 17.76 140.534 18.448C140.102 19.136 139.886 20.2 139.886 21.64C139.886 23.16 140.078 24.24 140.462 24.88C140.862 25.52 141.43 25.84 142.166 25.84Z" fill="#202231"/>
<defs>
<clipPath id="clip0_2658_26829">
<rect width="40" height="40" fill="white"/>
</clipPath>
</defs>
</svg>
