<svg width="34" height="41" viewBox="0 0 34 41" fill="none" xmlns="http://www.w3.org/2000/svg">
<path d="M0.434204 18.2322L4.38031 21.0758L4.35908 17.7949L0.434204 18.2322Z" fill="#4B5916"/>
<path d="M33.3 10.7086V38.8964C33.3 39.9452 32.4499 40.7949 31.4015 40.7949H6.27876C5.23033 40.7949 4.38025 39.9452 4.38025 38.8964V2.69381C4.38025 1.645 5.23033 0.794922 6.27876 0.794922H22.6954L33.3 10.7086Z" fill="white"/>
<path d="M18.8534 18.3162H0.787737C0.352683 18.3162 0 17.9635 0 17.5284V9.5436C0 9.10855 0.352683 8.75586 0.787737 8.75586H18.8534C19.2885 8.75586 19.6412 9.10855 19.6412 9.5436V17.5284C19.6412 17.9635 19.2885 18.3162 18.8534 18.3162Z" fill="#73931C"/>
<path d="M33.3001 10.7086V11.0021H23.8526C23.1313 11.0021 22.5464 10.4171 22.5464 9.69551V0.794922H22.6954L33.3001 10.7086Z" fill="#E6E7E8"/>
<path d="M27.9536 22.9736H9.72681V22.9736V21.4024V21.4023H27.9536L27.9536 21.4024V22.9736L27.9536 22.9736Z" fill="#E6E7E8"/>
<path d="M27.9536 26.5947H9.72681V26.5947V25.0235V25.0234H27.9536L27.9536 25.0235V26.5947L27.9536 26.5947Z" fill="#E6E7E8"/>
<path d="M27.9536 30.2148H9.72681V30.2148V28.6436V28.6436H27.9536L27.9536 28.6436V30.2148L27.9536 30.2148Z" fill="#E6E7E8"/>
<path d="M27.9536 33.8359H9.72681V33.8359V32.2647V32.2646H27.9536L27.9536 32.2647V33.8359L27.9536 33.8359Z" fill="#E6E7E8"/>
<path d="M27.9536 37.457H9.72681V37.457V35.8858V35.8857H27.9536L27.9536 35.8858V37.457L27.9536 37.457Z" fill="#E6E7E8"/>
</svg>
