<svg width="49" height="48" viewBox="0 0 49 48" fill="none" xmlns="http://www.w3.org/2000/svg">
<rect x="0.800049" width="48" height="48" rx="24" fill="#F9FAFE"/>
<path d="M21.3165 30V28.81L24.1725 25.758C24.7325 25.1607 25.1711 24.68 25.4885 24.316C25.8151 23.9427 26.0485 23.616 26.1885 23.336C26.3378 23.056 26.4125 22.762 26.4125 22.454C26.4125 21.95 26.2585 21.5627 25.9505 21.292C25.6425 21.012 25.2458 20.872 24.7605 20.872C24.2565 20.872 23.8225 21.0167 23.4585 21.306C23.0945 21.586 22.8425 21.9967 22.7025 22.538L21.2465 22.118C21.3585 21.5673 21.5825 21.0913 21.9185 20.69C22.2545 20.2793 22.6651 19.962 23.1505 19.738C23.6451 19.514 24.1771 19.402 24.7465 19.402C25.4091 19.402 25.9878 19.528 26.4825 19.78C26.9771 20.0227 27.3598 20.3633 27.6305 20.802C27.9105 21.2407 28.0505 21.7493 28.0505 22.328C28.0505 22.7107 27.9758 23.084 27.8265 23.448C27.6865 23.8027 27.4671 24.1807 27.1685 24.582C26.8698 24.974 26.4871 25.4173 26.0205 25.912L23.5005 28.6H28.2465V30H21.3165Z" fill="#0037B3"/>
</svg>
