<svg width="49" height="48" viewBox="0 0 49 48" fill="none" xmlns="http://www.w3.org/2000/svg">
<rect x="0.399902" width="48" height="48" rx="24" fill="#F9FAFE"/>
<path d="M24.2793 30.168C23.7286 30.168 23.2106 30.07 22.7253 29.874C22.2399 29.6687 21.8199 29.384 21.4653 29.02C21.1106 28.656 20.8586 28.2173 20.7093 27.704L22.0953 27.172C22.2726 27.6667 22.5619 28.0447 22.9633 28.306C23.3646 28.5673 23.8033 28.698 24.2793 28.698C24.6713 28.698 25.0166 28.6093 25.3153 28.432C25.6139 28.2547 25.8473 28.012 26.0153 27.704C26.1926 27.396 26.2813 27.046 26.2813 26.654C26.2813 26.2527 26.1926 25.9027 26.0153 25.604C25.8473 25.296 25.6139 25.058 25.3153 24.89C25.0166 24.7127 24.6713 24.624 24.2793 24.624C23.8873 24.624 23.5279 24.7127 23.2013 24.89C22.8746 25.0673 22.6366 25.3053 22.4873 25.604L21.1573 25.31L21.9693 19.57H27.5273V20.97H22.6133L23.2433 20.284L22.6413 24.68L22.1233 24.33C22.4033 23.938 22.7439 23.6533 23.1453 23.476C23.5466 23.2987 24.0039 23.21 24.5173 23.21C25.1986 23.21 25.7913 23.364 26.2953 23.672C26.8086 23.9707 27.2053 24.3813 27.4853 24.904C27.7746 25.4173 27.9193 26.0007 27.9193 26.654C27.9193 27.3167 27.7606 27.914 27.4433 28.446C27.1259 28.978 26.6919 29.398 26.1413 29.706C25.5999 30.014 24.9793 30.168 24.2793 30.168Z" fill="#0037B3"/>
</svg>
