<svg width="48" height="48" viewBox="0 0 48 48" fill="none" xmlns="http://www.w3.org/2000/svg">
<rect width="48" height="48" rx="24" fill="#F9FAFE"/>
<path d="M23.8227 30.168C23.2627 30.168 22.7354 30.0653 22.2407 29.86C21.7554 29.6547 21.3354 29.3653 20.9807 28.992C20.6354 28.6187 20.388 28.18 20.2387 27.676L21.6387 27.144C21.8254 27.6387 22.11 28.0213 22.4927 28.292C22.8754 28.5627 23.3187 28.698 23.8227 28.698C24.2334 28.698 24.588 28.6187 24.8867 28.46C25.1947 28.3013 25.4327 28.0773 25.6007 27.788C25.778 27.4987 25.8667 27.1487 25.8667 26.738C25.8667 26.3367 25.778 25.9913 25.6007 25.702C25.4327 25.4127 25.1947 25.1933 24.8867 25.044C24.588 24.8947 24.2334 24.82 23.8227 24.82C23.6547 24.82 23.482 24.834 23.3047 24.862C23.1367 24.89 22.9874 24.9273 22.8567 24.974L22.4927 24.204L25.2367 20.97H20.7987V19.57H27.0847V20.9L24.3967 24.12L24.3547 23.588C24.98 23.5973 25.5307 23.7373 26.0067 24.008C26.4827 24.2693 26.8514 24.6333 27.1127 25.1C27.3834 25.5573 27.5187 26.0893 27.5187 26.696C27.5187 27.3493 27.36 27.942 27.0427 28.474C26.7254 28.9967 26.2867 29.412 25.7267 29.72C25.176 30.0187 24.5414 30.168 23.8227 30.168Z" fill="#0037B3"/>
</svg>
