<svg width="37" height="41" viewBox="0 0 37 41" fill="none" xmlns="http://www.w3.org/2000/svg">
<path d="M4.76158 9.84359C5.71544 10.0803 6.63088 10.4355 7.60076 10.6459C8.35419 10.8092 9.08254 11.1081 9.87841 11.1377C10.1744 11.1487 10.3786 11.383 10.3425 11.671C10.311 11.9229 10.366 12.165 10.3313 12.4132C10.1787 13.5096 10.3652 14.6121 10.2857 15.7114C10.2585 16.0886 10.4218 16.2634 10.8411 16.2156C11.2193 16.1724 11.61 16.1353 11.99 16.2604C12.1609 16.3168 12.1977 16.2265 12.1902 16.0627C12.1368 14.9041 12.1566 13.7453 12.1689 12.5856C12.1787 11.6563 12.0424 10.7214 12.1019 9.79741C12.1894 8.44187 12.0981 7.09141 12.1101 5.73907C12.1163 5.04596 12.1502 4.95174 12.8553 4.93119C14.0988 4.89489 15.343 4.85032 16.587 4.92425C17.1573 4.95815 17.3108 5.16499 17.2318 5.74708C17.1213 6.56056 17.1837 7.3954 17.2307 8.19393C17.275 8.94683 17.2256 9.70053 17.2662 10.4516C17.2892 10.8735 17.4119 10.9205 17.7576 10.8813C18.1814 10.8332 18.6145 10.7662 19.0344 10.8063C19.6976 10.8692 19.7718 10.9234 19.7766 11.5455C19.7859 12.7599 19.7793 13.9745 19.7793 15.1891C19.7937 15.1891 19.8081 15.1891 19.8225 15.1891C19.8225 15.3616 19.8412 15.5364 19.8185 15.7056C19.7769 16.0168 19.8206 16.1694 20.2087 16.1991C20.5919 16.2284 20.976 16.1542 21.3459 16.222C21.6414 16.2759 21.6478 16.1454 21.6736 15.9348C21.6886 15.8145 21.6248 15.7227 21.6224 15.6204C21.6168 15.3746 21.8146 15.0458 21.6285 14.9081C21.4623 14.7851 21.1305 14.9033 20.8751 14.8793C20.3371 14.8286 20.1281 14.566 20.2316 14.1312C20.3803 13.5067 20.683 12.9344 20.9173 12.3481C21.2119 11.6112 21.4569 10.8444 21.8357 10.1372C21.9488 9.92606 22.0649 9.75765 22.3059 9.73656C22.5408 9.71601 22.6051 9.92125 22.7012 10.0822C22.9996 10.5837 23.0548 11.169 23.2675 11.7027C23.6094 12.5603 23.8859 13.4445 24.1709 14.3236C24.2625 14.6062 24.1773 14.8846 23.8624 14.9556C23.6276 15.0085 23.374 15.0445 23.1213 14.9948C22.6398 14.9001 22.5434 14.9791 22.5707 15.4803C22.5837 15.7216 22.4909 16.0936 22.8258 16.1353C23.5181 16.2215 24.2214 16.2177 24.9198 16.2562C25.1251 16.2674 25.1672 16.1935 25.1704 15.9842C25.1915 14.5902 25.23 13.1965 25.1416 11.8039C25.1139 11.3646 25.2932 11.1698 25.7509 11.1337C26.1686 11.1009 26.6306 11.1356 26.9909 10.9661C27.9018 10.5375 28.8979 10.446 29.8392 10.142C31.1528 9.71787 32.4085 9.22252 33.5548 8.4392C34.746 7.62518 34.8049 6.44019 33.9768 5.64806C33.3928 5.08946 32.6794 4.59011 31.9324 4.29973C31.2342 4.0283 30.5665 3.6712 29.8418 3.46035C29.3225 3.30929 28.8229 3.09098 28.3029 2.94178C27.6766 2.7619 27.0448 2.58762 26.404 2.47526C25.4832 2.31379 24.5553 2.18008 23.6252 2.08934C22.4524 1.97484 21.2891 1.7181 20.0995 1.82325C19.8553 1.84487 19.6141 1.84193 19.3664 1.82779C18.6172 1.78455 17.8929 1.54728 17.1114 1.70235C16.4434 1.83499 15.7423 1.92493 15.0457 1.81124C14.8517 1.77974 14.6461 1.72209 14.4601 1.75572C12.9303 2.03195 11.3754 2.10989 9.84131 2.36076C8.72411 2.54358 7.60103 2.73628 6.54948 3.12007C5.32205 3.56818 4.04444 3.93942 2.93658 4.6707C2.29791 5.09212 1.55462 5.37049 1.17483 6.14554C0.938632 6.62781 0.939701 7.66736 1.38434 8.01325C2.40653 8.80778 3.48557 9.52679 4.76158 9.84359ZM21.4996 3.98506C22.4951 3.98052 23.3289 4.60265 23.3449 5.34915C23.3823 7.08447 22.8328 7.64493 21.7705 7.73648C20.6819 7.83042 19.5764 6.97504 19.5716 6.12232C19.5647 4.94827 20.4772 3.91487 21.4996 3.98506Z" fill="#EAF0FD"/>
<path d="M0.910955 22.1104C0.927502 23.6998 0.997961 25.2915 1.02572 26.883C1.03292 27.2988 1.12714 27.7642 1.42739 28.0493C2.1181 28.7042 2.93292 29.2519 3.80459 29.5828C5.38031 30.1809 7.01982 30.6109 8.63318 31.1095C8.70764 31.1324 8.7861 31.1425 8.86297 31.158C9.14934 31.2159 9.26704 31.0908 9.26677 30.8071C9.26544 29.7811 9.26784 28.7555 9.27505 27.7295C9.28973 25.679 9.31374 23.6285 9.32229 21.578C9.32469 20.9809 9.22033 20.3764 9.28385 19.7885C9.39835 18.7297 9.2601 17.6774 9.29586 16.6218C9.32175 15.8521 9.29693 15.0771 9.30441 14.3087C9.31081 13.6532 9.28545 12.9902 9.32869 12.3318C9.33403 12.252 9.34444 12.0809 9.15281 12.0564C8.39297 11.9584 7.69425 11.6307 6.95203 11.4556C6.126 11.2611 5.30665 11.0521 4.51398 10.7083C3.43681 10.241 2.2753 9.96182 1.38522 9.12566C1.28647 9.03278 1.14502 8.98553 0.988353 8.89746C0.861847 9.50117 0.974208 10.0571 0.970204 10.6117C0.964066 11.5111 1.05401 12.4121 1.02865 13.3102C1.00383 14.187 0.9259 15.0827 1.01504 15.9362C1.12153 16.953 1.02679 17.952 0.992356 18.9486C0.955258 20.0015 0.900012 21.064 0.910955 22.1104ZM7.57122 19.8549C7.60591 20.0917 7.34543 20.2307 7.30806 20.1592C7.18102 19.9155 6.64884 20.4301 6.7548 19.8218C6.81138 19.4973 6.71983 19.1469 6.69608 18.8082C6.67553 18.5141 6.70916 18.2853 7.10442 18.2979C7.46126 18.3091 7.67797 18.3993 7.56988 18.8319C7.68678 19.1594 7.52051 19.5069 7.57122 19.8549ZM6.71076 21.2687C6.74946 20.7538 7.17301 21.1291 7.39747 21.002C7.57095 20.9038 7.61285 21.1147 7.60484 21.298C7.5907 21.6287 7.58696 21.965 7.63073 22.2919C7.68518 22.6984 7.49702 22.7902 7.13592 22.7382C6.72838 22.8324 6.65631 22.597 6.67953 22.2484C6.70169 21.9228 6.68621 21.5943 6.71076 21.2687ZM7.63607 27.2059C7.63607 27.4731 7.61819 27.6762 7.63954 27.8753C7.69212 28.3672 7.27897 28.2721 7.04571 28.3047C6.74892 28.3463 6.87169 28.0685 6.84527 27.9022C6.77508 27.4613 6.71023 27.0196 6.78816 26.5768C6.80871 26.4599 6.74812 26.1714 7.06332 26.3257C7.26803 26.4258 7.66783 26.1608 7.65742 26.6663C7.65315 26.8678 7.58109 27.069 7.63607 27.2059ZM7.70413 24.5036C7.69185 24.6264 7.68598 24.739 7.69318 24.8637C7.72468 25.4057 7.5181 25.5613 6.96084 25.489C6.7628 25.4634 6.80551 25.3121 6.78202 25.2141C6.6742 24.7617 6.79456 24.3 6.73451 23.8383C6.69128 23.5068 7.01075 23.6536 7.21385 23.6202C7.65128 23.6074 7.77459 23.8033 7.70413 24.5036ZM6.63443 14.3276C6.69181 14.1088 6.69421 13.8611 6.66005 13.6358C6.60053 13.2443 6.77001 12.9913 7.11964 12.9347C7.50076 12.8731 7.61765 13.0946 7.59016 13.6591C7.57789 13.9022 7.54906 14.1459 7.5576 14.3885C7.57015 14.7538 7.35824 14.8638 7.05665 14.8262C6.79109 14.7931 6.52981 14.7272 6.63443 14.3276ZM7.45272 15.5905C7.5947 15.6309 7.60751 15.7259 7.61552 15.8348C7.63153 16.0507 7.64141 16.2671 7.64835 16.388C7.6358 16.624 7.6318 16.7641 7.62059 16.9031C7.57682 17.4452 7.37905 17.6149 6.86529 17.4871C6.59867 17.4206 6.65952 17.1078 6.65818 16.9375C6.65631 16.704 6.62642 16.478 6.60721 16.2482C6.5621 15.708 6.9192 15.4392 7.45272 15.5905Z" fill="#EAF0FD"/>
<path d="M34.534 8.90332C34.0453 9.04771 33.8411 9.50409 33.4453 9.6709C32.129 10.2263 30.8551 10.8836 29.4484 11.2175C28.4358 11.4577 27.4483 11.8034 26.437 12.0521C26.1854 12.114 26.1822 12.1994 26.1629 12.3993C26.0757 13.3076 26.207 14.2134 26.1659 15.1224C26.1256 16.0136 26.1944 16.9092 26.1637 17.8009C26.129 18.8098 26.2393 19.8162 26.1982 20.8211C26.1645 21.6463 26.1635 22.464 26.2131 23.2893C26.2582 24.0406 26.1443 24.8009 26.1779 25.5538C26.2529 27.2406 26.1413 28.9295 26.2646 30.6157C26.3071 31.1978 26.3965 31.3318 26.9113 31.0726C27.7982 30.6261 28.7835 30.5484 29.7099 30.2503C31.0233 29.8278 32.2825 29.345 33.4309 28.5649C34.0736 28.1283 34.4624 27.5766 34.447 26.809C34.4288 25.9035 34.4608 24.9966 34.4838 24.095C34.5097 23.0784 34.538 22.061 34.5388 21.0437C34.5388 20.8301 34.562 20.6198 34.5511 20.4028C34.4931 19.2472 34.483 18.0889 34.4189 16.9335C34.3858 16.3386 34.5559 15.7654 34.5038 15.1643C34.4285 14.2943 34.3936 13.4119 34.4494 12.5416C34.5262 11.3382 34.511 10.1377 34.534 8.90332ZM27.8662 14.3436C27.9239 14.077 27.8943 13.789 27.8863 13.5112C27.8761 13.1592 28.0755 12.9625 28.3848 12.9392C28.7598 12.9112 28.8727 13.1818 28.8431 13.5133C28.8249 13.8152 28.7889 14.1173 28.7931 14.4189C28.7982 14.7712 28.5783 14.8539 28.3098 14.8248C28.0525 14.7971 27.7768 14.7554 27.8662 14.3436ZM27.8649 15.804C27.8756 15.6383 27.9033 15.6202 28.0776 15.6191C28.898 15.614 28.898 15.602 28.87 16.5212C28.87 16.6301 28.8724 16.739 28.8695 16.8479C28.8583 17.2503 28.7894 17.5687 28.2466 17.4953C28.0451 17.4681 27.9949 17.4836 27.9663 17.2426C27.9095 16.7633 27.8331 16.2906 27.8649 15.804ZM28.3595 18.2984C28.7021 18.3099 28.9028 18.394 28.8129 18.8047C28.909 19.1466 28.7571 19.5093 28.8094 19.8733C28.8401 20.0876 28.5882 20.2051 28.5695 20.1632C28.4505 19.8952 27.9359 20.4306 27.9906 19.8512C28.0237 19.5021 27.9594 19.1434 27.9319 18.7895C27.9071 18.4762 27.9791 18.2856 28.3595 18.2984ZM27.9372 21.8566C27.9439 21.8563 27.9506 21.8561 27.9575 21.8558C27.9492 21.7781 27.9356 21.7007 27.9338 21.6231C27.9199 21.0327 28.052 20.9187 28.645 20.9796C28.783 20.9937 28.8516 21.0562 28.8543 21.1806C28.8636 21.6209 28.8649 22.0616 28.8687 22.5022C28.8713 22.8121 28.6181 22.7624 28.4649 22.7339C28.2834 22.7002 27.9562 22.9228 27.9391 22.5075C27.93 22.2911 27.9372 22.0736 27.9372 21.8566ZM28.8986 26.7511C28.8754 26.9038 28.8764 27.0602 28.8735 27.1066C28.8735 27.4015 28.8783 27.5873 28.8724 27.7725C28.8591 28.2022 28.6592 28.3695 28.2463 28.3266C28.0867 28.31 28.0693 28.1902 28.0717 28.096C28.0822 27.6671 27.9853 27.2478 27.9895 26.8165C27.9938 26.3711 28.1315 26.2349 28.5708 26.3268C28.8388 26.3828 28.9386 26.4872 28.8986 26.7511ZM28.9301 25.1623C28.9266 25.2565 28.9015 25.5346 28.6621 25.4345C28.4507 25.3459 28.0982 25.7324 28.0088 25.2274C27.9805 25.0678 27.9879 24.9213 27.9994 24.8212C27.9463 24.4959 28.0523 24.2215 27.9626 23.9416C27.9129 23.787 27.9661 23.5546 28.2217 23.6237C28.4505 23.6856 28.8401 23.3808 28.8916 23.8625C28.9381 24.2928 28.9461 24.7297 28.9301 25.1623Z" fill="#EAF0FD"/>
<path d="M25.2453 18.5072C25.2453 18.1181 25.2437 17.7287 25.2466 17.3396C25.2472 17.2678 25.2976 17.1471 25.1772 17.1709C24.7908 17.2472 24.4105 17.1178 24.036 17.1445C23.2925 17.1976 22.5441 17.188 21.8064 17.1848C20.5726 17.1794 19.339 17.1797 18.1046 17.192C17.0344 17.2026 15.9634 17.1463 14.8929 17.1202C13.5381 17.0871 12.1834 17.0601 10.8289 17.018C10.431 17.0057 10.1441 17.0684 10.2057 17.5667C10.2247 17.7209 10.1993 17.88 10.2004 18.0369C10.2073 19.0522 10.2271 20.0677 10.2191 21.0827C10.2156 21.5207 10.316 21.6752 10.7144 21.5474C11.3742 21.336 12.0502 21.2741 12.7292 21.2231C13.615 21.1564 14.4928 21.0173 15.3751 20.9364C16.0859 20.8713 16.8081 20.933 17.5255 20.9319C18.774 20.9298 20.0153 20.8812 21.2644 21.0969C22.4341 21.2989 23.6488 21.1972 24.8089 21.5506C24.9221 21.585 25.2837 21.7123 25.2829 21.3152C25.2805 20.3792 25.2821 19.4432 25.2821 18.5072C25.2696 18.5072 25.2576 18.5072 25.2453 18.5072Z" fill="#2A58C0"/>
<path d="M13.6095 16.2715C13.8721 16.2363 14.2874 16.1477 14.7048 16.1362C15.0018 16.1282 14.9906 15.9764 14.9863 15.7773C14.9767 15.3313 14.9562 14.8848 14.9682 14.4393C14.9933 13.5159 15.0627 12.5938 15.0112 11.6682C14.9698 10.9265 15.0547 10.8553 15.791 10.9134C16.1495 10.9417 16.3899 10.8579 16.3507 10.4168C16.3168 10.0335 16.3846 9.64704 16.3865 9.26459C16.3918 8.23679 16.3942 7.2082 16.3523 6.17933C16.3406 5.88922 16.2562 5.78806 16.04 5.78593C15.0613 5.77605 14.0827 5.78807 13.104 5.79714C12.9988 5.79821 12.9006 5.88735 12.9302 5.97783C13.0116 6.22577 12.9059 6.47531 12.958 6.71364C13.116 7.43692 13.0311 8.18128 13.0423 8.90055C13.0615 10.1296 13.0944 11.3696 13.0047 12.6021C12.9364 13.5404 13.0562 14.4802 12.9486 15.4212C12.8542 16.255 12.8881 16.259 13.6095 16.2715ZM15.4102 6.72485C15.6739 6.74086 15.8636 6.93356 15.8468 7.16149C15.8292 7.40142 15.8383 7.77587 15.412 7.71422C15.0264 7.73717 15.0098 7.45373 14.9973 7.21513C14.9834 6.94851 15.0696 6.7043 15.4102 6.72485ZM15.404 8.89521C15.6739 8.90589 15.8601 9.10525 15.8468 9.32624C15.8324 9.56377 15.8449 9.94062 15.4147 9.88484C15.0325 9.91393 15.0112 9.63156 14.9978 9.39216C14.9829 9.12847 15.0605 8.8816 15.404 8.89521ZM14.4467 15.5413C14.4285 15.7991 14.4929 16.0519 14.1339 16.0273C13.7405 16.0006 13.7232 15.7367 13.7141 15.4375C13.7058 15.1661 13.8734 15.0569 14.0853 15.0633C14.4101 15.0729 14.4929 15.3003 14.4467 15.5413ZM13.6199 13.3627C13.6111 13.0899 13.7789 12.9797 13.9895 12.9877C14.3042 12.9997 14.4131 13.2116 14.3554 13.4332C14.333 13.7201 14.4016 13.9752 14.0413 13.9512C13.649 13.9248 13.6295 13.6632 13.6199 13.3627ZM14.3554 11.3565C14.333 11.6434 14.4016 11.8985 14.0413 11.8745C13.649 11.8484 13.6297 11.5865 13.6201 11.286C13.6113 11.0133 13.7792 10.903 13.9898 10.911C14.3042 10.9233 14.4131 11.135 14.3554 11.3565ZM13.8969 6.66293C14.2212 6.67254 14.3039 6.89994 14.258 7.13987C14.2393 7.39849 14.3042 7.65123 13.9449 7.62667C13.5513 7.59972 13.5345 7.33577 13.5254 7.03685C13.5174 6.76595 13.685 6.65653 13.8969 6.66293ZM13.8846 8.8365C14.1998 8.83783 14.3157 9.04466 14.2588 9.28887C14.2391 9.55496 14.3108 9.81652 13.9569 9.79944C13.5756 9.78102 13.5387 9.53014 13.5251 9.22055C13.5128 8.93925 13.678 8.8357 13.8846 8.8365Z" fill="white"/>
<path d="M18.4562 11.8276C17.782 11.8695 17.0918 11.9653 16.434 11.8668C15.8674 11.7819 15.9231 12.0374 15.9367 12.387C15.9786 13.4671 16.0152 14.5472 16.0574 15.722C16.0427 15.9169 15.9784 16.1261 16.4657 16.1243C16.9672 16.1221 17.486 16.109 18.0003 16.2099C18.587 16.325 18.8595 16.1021 18.8266 15.6796C18.7375 14.5301 18.6985 13.382 18.8213 12.2311C18.8443 12.016 18.7861 11.807 18.4562 11.8276ZM16.4502 12.9701C16.4513 12.707 16.6221 12.5941 16.8359 12.6074C17.1209 12.625 17.2349 12.8204 17.1869 13.0491C17.1588 13.304 17.2525 13.5786 16.9034 13.5778C16.4924 13.5765 16.4489 13.2904 16.4502 12.9701ZM17.28 15.14C17.2592 15.4143 17.3286 15.6713 16.9709 15.6503C16.5821 15.6273 16.5567 15.3692 16.5458 15.0652C16.5359 14.7893 16.7025 14.6812 16.9117 14.687C17.225 14.6961 17.3369 14.9059 17.28 15.14ZM18.0177 12.6704C18.3049 12.6579 18.4933 12.8701 18.4898 13.0732C18.4858 13.3024 18.5114 13.6843 18.0548 13.6611C17.7097 13.7116 17.6566 13.4452 17.6408 13.1967C17.6248 12.9421 17.6667 12.6856 18.0177 12.6704ZM18.1525 15.7365C17.7818 15.7725 17.7479 15.4973 17.7348 15.2534C17.7206 14.9926 17.7847 14.7431 18.1317 14.7463C18.4092 14.749 18.5928 14.9561 18.5838 15.1683C18.5736 15.4023 18.591 15.7824 18.1525 15.7365Z" fill="white"/>
<path d="M22.9449 13.6768C22.733 13.028 22.5221 12.3787 22.2827 11.6426C21.7676 12.4216 21.6806 13.2501 21.3075 14.0216C21.797 13.9632 22.236 13.9525 22.6769 14.0163C22.9072 14.0497 23.0265 13.9272 22.9449 13.6768Z" fill="white"/>
<path d="M30.3482 35.1032C30.1534 35.1144 29.9869 35.2252 30.1969 35.4363C30.8892 36.1321 31.36 37.0069 32.0427 37.7086C32.4938 38.1722 32.8221 38.7374 33.3091 39.1757C33.4853 39.3342 33.5216 39.3099 33.5894 39.1444C34.2494 37.534 34.9268 35.9298 35.4747 34.1934C34.6978 34.4992 33.9203 34.5932 33.181 34.6572C32.2197 34.7408 31.3058 35.0479 30.3482 35.1032Z" fill="#002D40"/>
<path d="M21.5094 6.97426C22.0664 6.96199 22.5506 6.36468 22.5527 5.68678C22.5541 5.24775 22.0771 4.83914 21.5671 4.84181C20.8513 4.84581 20.5001 5.2344 20.5142 6.00652C20.523 6.48959 21.032 6.98467 21.5094 6.97426Z" fill="white"/>
<path d="M0.932353 28.8249C1.44238 29.1635 1.8283 29.6509 2.42347 29.8983C3.61647 30.3942 4.76784 30.9789 6.03984 31.2829C7.1848 31.5562 8.30948 31.9163 9.44137 32.2437C9.92337 32.3833 10.2989 32.0897 10.2186 31.5939C10.135 31.0796 10.1217 30.569 10.1462 30.0502C10.1532 29.9023 10.2063 29.7678 10.1967 29.6077C10.1564 28.9362 10.1243 28.2569 10.1823 27.5886C10.2565 26.733 10.1134 25.8843 10.2079 25.0238C10.2911 24.2645 10.1729 23.4841 10.158 22.7128C10.1542 22.5228 10.2663 22.4043 10.4774 22.3778C11.0382 22.3076 11.5949 22.1777 12.157 22.1523C13.393 22.0965 14.606 21.8542 15.8678 21.9399C16.7611 22.0005 17.6886 21.7792 18.6096 21.874C19.3737 21.9527 20.1602 21.7976 20.8958 21.8822C22.2503 22.0381 23.617 22.1304 24.9632 22.372C25.229 22.4197 25.3192 22.5302 25.316 22.8102C25.3126 23.1275 25.2875 23.443 25.2829 23.7587C25.2696 24.672 25.2936 25.5861 25.2784 26.4994C25.2731 26.8224 25.2597 27.1517 25.2629 27.4701C25.2773 28.847 25.4148 30.2228 25.2538 31.5997C25.1991 32.0668 25.5722 32.4135 26.0003 32.2515C26.1912 32.1794 26.3876 32.1431 26.576 32.1015C27.2763 31.9475 27.9313 31.6499 28.6434 31.5186C29.139 31.427 29.6712 31.3534 30.123 31.1329C30.889 30.759 31.7014 30.5063 32.4815 30.1737C33.3142 29.8185 33.974 29.269 34.6628 28.7325C35.1504 28.3527 35.3159 27.8093 35.3298 27.2337C35.3626 25.8656 35.3573 24.4964 35.3671 23.1278C35.3778 21.6137 35.3813 20.0994 35.4018 18.5856C35.4125 17.8092 35.5596 17.0187 35.4563 16.2604C35.3066 15.163 35.4459 14.0725 35.4368 12.9857C35.4277 11.8888 35.3722 10.782 35.4251 9.67517C35.4694 8.74479 35.5273 7.78745 35.4034 6.8843C35.4824 6.26538 35.2067 5.86371 34.8139 5.45937C34.3572 4.98964 34.034 4.3862 33.3948 4.11051C33.1826 4.01896 32.932 3.98639 32.7527 3.85402C32.0051 3.30262 31.1396 2.99517 30.2965 2.65061C29.7301 2.41922 29.0912 2.39386 28.5142 2.20624C27.8515 1.99086 27.1808 1.81845 26.513 1.62762C25.9363 1.46295 25.3262 1.57611 24.7734 1.41784C23.5247 1.06074 22.2252 1.18511 20.9743 0.92756C20.3329 0.795449 19.699 0.868314 19.0614 0.846429C18.2693 0.819206 17.4807 0.764758 16.6861 0.816268C16.0947 0.854701 15.4819 0.744205 14.9102 0.858434C14.0298 1.03458 13.1413 1.07382 12.2565 1.15389C11.2971 1.24063 10.368 1.5286 9.39893 1.53767C8.94095 1.54195 8.51419 1.7245 8.08182 1.8502C7.20589 2.10482 6.31287 2.30472 5.44521 2.57508C4.47319 2.87827 3.57991 3.38349 2.67302 3.85989C1.95801 4.2354 1.31988 4.59465 0.840542 5.25974C0.502391 5.7292 0.0283927 6.08069 0.0476088 6.761C0.0873756 8.17232 0.0660251 9.58523 0.0868426 10.9974C0.0900453 11.2178 -0.0281883 11.4073 0.0182507 11.6408C0.115933 12.1319 0.104458 12.6545 0.0593537 13.1325C-0.0482033 14.2729 0.169044 15.4059 0.0251901 16.5457C-0.0532758 17.1684 0.0758997 17.8151 0.0839064 18.4511C0.102856 19.9809 0.110329 21.511 0.113531 23.0411C0.115933 24.3024 0.125008 25.5634 0.109795 26.825C0.100187 27.5777 0.220288 28.3519 0.932353 28.8249ZM24.8087 21.5507C23.6485 21.1974 22.4339 21.2991 21.2641 21.097C20.015 20.8814 18.7735 20.9302 17.5252 20.9321C16.8081 20.9332 16.0859 20.8715 15.3749 20.9366C14.4923 21.0175 13.6147 21.1566 12.7289 21.2233C12.05 21.2743 11.3739 21.3359 10.7142 21.5475C10.3157 21.6754 10.2153 21.5209 10.2188 21.0829C10.2266 20.0676 10.2071 19.0524 10.2001 18.0371C10.1991 17.8802 10.2247 17.7211 10.2055 17.5669C10.1441 17.0686 10.4307 17.0056 10.8287 17.0181C12.1831 17.0603 13.5379 17.0873 14.8926 17.1204C15.9631 17.1465 17.0341 17.2028 18.1044 17.1922C19.3387 17.1799 20.5723 17.1796 21.8062 17.1849C22.5438 17.1882 23.2925 17.1978 24.0358 17.1446C24.4102 17.118 24.7905 17.2477 25.177 17.1711C25.2974 17.1473 25.2469 17.268 25.2464 17.3397C25.2434 17.7289 25.245 18.1183 25.245 18.5074C25.2573 18.5074 25.2693 18.5074 25.2816 18.5077C25.2816 19.4437 25.28 20.3796 25.2824 21.3156C25.2837 21.7125 24.9218 21.5852 24.8087 21.5507ZM13.0052 12.6019C13.0948 11.3694 13.062 10.1294 13.0428 8.90039C13.0316 8.18139 13.1165 7.43676 12.9585 6.71349C12.9064 6.47516 13.0121 6.22561 12.9307 5.97767C12.9011 5.88746 12.999 5.79806 13.1044 5.79699C14.0831 5.78792 15.0621 5.77563 16.0405 5.78577C16.2567 5.78791 16.341 5.88906 16.3528 6.17917C16.3947 7.20804 16.392 8.23637 16.3869 9.26443C16.3851 9.64688 16.3173 10.0333 16.3512 10.4166C16.3901 10.8578 16.1499 10.9416 15.7915 10.9133C15.0551 10.8551 14.9703 10.9264 15.0116 11.6681C15.0632 12.5936 14.9938 13.5155 14.9687 14.4392C14.9564 14.8846 14.9772 15.3311 14.9868 15.7771C14.9911 15.9762 15.0023 16.1281 14.7053 16.1361C14.2878 16.1473 13.8723 16.2361 13.6099 16.2714C12.8885 16.2586 12.8546 16.2548 12.9496 15.4211C13.0564 14.48 12.9368 13.5403 13.0052 12.6019ZM18.8266 15.6789C18.8594 16.1014 18.5869 16.3242 18.0003 16.2092C17.486 16.1086 16.9672 16.1217 16.4657 16.1235C15.9783 16.1254 16.0424 15.9162 16.0573 15.7213C16.0152 14.5465 15.9789 13.4664 15.9367 12.3863C15.9231 12.0366 15.8673 11.7812 16.4339 11.8661C17.0918 11.9646 17.782 11.8688 18.4561 11.8269C18.7857 11.8063 18.8442 12.0153 18.8212 12.2299C18.6982 13.3812 18.7372 14.5294 18.8266 15.6789ZM21.3076 14.0218C21.6807 13.2502 21.7677 12.4217 22.2828 11.6427C22.5225 12.3788 22.7331 13.0281 22.945 13.6769C23.0266 13.9273 22.9071 14.0495 22.677 14.0164C22.2361 13.9526 21.7971 13.9633 21.3076 14.0218ZM34.5035 15.1654C34.5555 15.7664 34.3855 16.3397 34.4186 16.9346C34.4827 18.09 34.4925 19.248 34.5507 20.4039C34.5617 20.6206 34.5384 20.8312 34.5384 21.0447C34.5379 22.0624 34.5094 23.0795 34.4835 24.0961C34.4605 24.9976 34.4282 25.9045 34.4466 26.8101C34.4621 27.5777 34.0735 28.1293 33.4306 28.566C32.2824 29.3461 31.0232 29.8286 29.7096 30.2514C28.7832 30.5495 27.7978 30.6272 26.911 31.0737C26.3964 31.3328 26.307 31.1988 26.2643 30.6168C26.141 28.9303 26.2526 27.2417 26.1776 25.5549C26.1442 24.802 26.2579 24.0416 26.2128 23.2903C26.1631 22.4651 26.1642 21.6474 26.1978 20.8221C26.2389 19.8173 26.1284 18.8108 26.1634 17.802C26.1941 16.9101 26.1252 16.0144 26.1655 15.1235C26.2069 14.2145 26.0753 13.3086 26.1626 12.4004C26.1818 12.2005 26.185 12.1154 26.4367 12.0532C27.4477 11.8044 28.4352 11.4591 29.448 11.2186C30.8548 10.8847 32.129 10.2274 33.445 9.67197C33.8408 9.5049 34.045 9.04878 34.5336 8.90439C34.5107 10.1388 34.5259 11.3392 34.4485 12.5435C34.393 13.413 34.4282 14.2953 34.5035 15.1654ZM1.17522 6.14528C1.55501 5.37023 2.2983 5.09186 2.93697 4.67044C4.04483 3.93916 5.32244 3.56792 6.54987 3.11981C7.60142 2.73602 8.7245 2.54332 9.8417 2.3605C11.3758 2.10962 12.9307 2.03196 14.4605 1.75546C14.6465 1.72183 14.8523 1.77921 15.0461 1.81097C15.7427 1.92466 16.4435 1.83472 17.1118 1.70208C17.8933 1.54702 18.6173 1.78428 19.3668 1.82752C19.6142 1.84166 19.8554 1.8446 20.0999 1.82298C21.2894 1.71783 22.4531 1.97458 23.6255 2.08907C24.5557 2.17982 25.4836 2.31352 26.4044 2.47499C27.0452 2.58735 27.677 2.76164 28.3033 2.94152C28.823 3.09072 29.3229 3.30903 29.8422 3.46009C30.5668 3.67093 31.2346 4.02803 31.9328 4.29946C32.6798 4.5901 33.3932 5.08919 33.9772 5.64779C34.8051 6.43992 34.7464 7.62492 33.5552 8.43894C32.4087 9.22226 31.1532 9.71761 29.8396 10.1417C28.8982 10.4454 27.9022 10.5372 26.9913 10.9659C26.631 11.1353 26.169 11.1006 25.7513 11.1335C25.2936 11.1695 25.1143 11.3643 25.142 11.8036C25.2304 13.1965 25.1922 14.5902 25.1708 15.9839C25.1676 16.1932 25.1255 16.2671 24.9202 16.2559C24.2218 16.2175 23.5185 16.2212 22.8262 16.135C22.4913 16.0934 22.5841 15.7213 22.5711 15.48C22.5438 14.9788 22.6402 14.8998 23.1217 14.9946C23.3744 15.0442 23.6279 15.0082 23.8628 14.9553C24.1777 14.8846 24.2629 14.606 24.1713 14.3233C23.8866 13.4442 23.6101 12.56 23.2679 11.7025C23.0549 11.1687 23 10.5834 22.7016 10.0819C22.6058 9.92098 22.5412 9.71574 22.3063 9.73629C22.0653 9.75738 21.9492 9.92579 21.836 10.1369C21.4573 10.8442 21.2123 11.6109 20.9177 12.3478C20.6833 12.9339 20.3807 13.5064 20.232 14.1309C20.1285 14.5657 20.3375 14.8286 20.8755 14.879C21.1309 14.903 21.4627 14.7848 21.6289 14.9078C21.815 15.0456 21.6172 15.3744 21.6228 15.6202C21.6252 15.7224 21.689 15.8139 21.674 15.9346C21.6479 16.1451 21.6417 16.2757 21.3463 16.2217C20.9764 16.1542 20.5923 16.2282 20.2091 16.1988C19.821 16.1692 19.7772 16.0165 19.8189 15.7053C19.8416 15.5361 19.8229 15.3613 19.8229 15.1889C19.8085 15.1889 19.7941 15.1889 19.7796 15.1889C19.7796 13.9743 19.7863 12.7599 19.777 11.5453C19.7722 10.9229 19.698 10.869 19.0348 10.806C18.6149 10.7662 18.1818 10.8329 17.758 10.881C17.4123 10.9202 17.2896 10.8733 17.2666 10.4513C17.2258 9.7 17.2754 8.94656 17.2311 8.19366C17.1839 7.39513 17.1217 6.56029 17.2322 5.74681C17.3112 5.16472 17.1577 4.95788 16.5874 4.92398C15.3431 4.85005 14.0991 4.89462 12.8557 4.93092C12.1506 4.95147 12.1167 5.04569 12.1105 5.7388C12.0985 7.09114 12.1898 8.4416 12.1023 9.79714C12.0428 10.7211 12.1791 11.656 12.1693 12.5854C12.157 13.745 12.1372 14.9038 12.1906 16.0624C12.1981 16.2263 12.1612 16.3165 11.9904 16.2602C11.6104 16.1347 11.2197 16.1721 10.8415 16.2153C10.4222 16.2634 10.2586 16.0883 10.2861 15.7112C10.3656 14.6119 10.1791 13.5093 10.3317 12.4129C10.3664 12.1647 10.3112 11.9224 10.3429 11.6707C10.379 11.3827 10.1748 11.1484 9.8788 11.1375C9.08293 11.1078 8.35459 10.8089 7.60115 10.6456C6.63127 10.4353 5.71584 10.0803 4.76197 9.84332C3.48596 9.52652 2.40692 8.80725 1.38527 8.01245C0.940092 7.66709 0.939026 6.62755 1.17522 6.14528ZM1.01455 15.9364C0.925146 15.0829 1.00308 14.1872 1.02817 13.3105C1.05379 12.4124 0.963579 11.5114 0.969717 10.612C0.973454 10.0574 0.86136 9.50143 0.987866 8.89772C1.14453 8.9858 1.28598 9.03331 1.38473 9.12592C2.27481 9.96209 3.43659 10.2413 4.51349 10.7086C5.30643 11.0526 6.12578 11.2613 6.95154 11.4559C7.69376 11.6307 8.39222 11.9587 9.15232 12.0566C9.34395 12.0812 9.33354 12.2525 9.3282 12.3321C9.28497 12.9905 9.31032 13.6534 9.30392 14.3089C9.29645 15.0773 9.32153 15.8524 9.29538 16.6221C9.25988 17.6774 9.39786 18.7297 9.28337 19.7887C9.21985 20.377 9.3242 20.9812 9.3218 21.5782C9.31326 23.6288 9.28924 25.6793 9.27456 27.7298C9.26709 28.7555 9.26495 29.7814 9.26628 30.8073C9.26655 31.091 9.14885 31.2162 8.86248 31.1583C8.78561 31.1428 8.70715 31.1327 8.63269 31.1097C7.01933 30.6109 5.37982 30.1812 3.8041 29.5831C2.9327 29.2522 2.11762 28.7045 1.4269 28.0495C1.12665 27.7648 1.03244 27.2993 1.02523 26.8832C0.997474 25.2915 0.927015 23.7 0.910467 22.1107C0.899525 21.0639 0.954772 20.0017 0.991336 18.9488C1.0263 17.9523 1.12104 16.9533 1.01455 15.9364Z" fill="#002D40"/>
<path d="M35.958 33.3209C35.7255 33.3422 35.4968 33.4063 35.2643 33.4311C34.0919 33.5555 32.9259 33.7079 31.7886 34.0391C31.5233 34.1162 31.2372 34.1221 30.9607 34.1605C30.2561 34.1848 29.5684 34.3206 28.9073 34.5515C28.6164 34.6532 28.6364 34.946 28.7938 35.1456C29.2844 35.7682 29.7795 36.3912 30.3231 36.9661C30.5665 37.2233 30.4635 37.2879 30.2412 37.3907C29.3023 37.8246 28.3124 38.1051 27.3041 38.3066C26.0387 38.5594 24.7593 38.7422 23.4945 38.9987C22.4819 39.2042 21.4554 39.2933 20.4348 39.2904C18.8628 39.2861 17.2927 39.3793 15.7181 39.3176C14.5918 39.2736 13.4949 39.0409 12.3777 38.9461C11.5468 38.8757 10.7184 38.6528 9.8897 38.4927C9.24596 38.3683 8.59502 38.2439 7.97743 38.0323C6.98246 37.6915 6.02673 37.2498 5.06859 36.8097C4.2108 36.4155 3.34474 36.0632 2.60252 35.4693C2.08261 35.0533 1.46716 34.7567 1.0679 34.1859C0.939255 34.002 0.678502 33.9465 0.478601 34.1087C0.276298 34.2731 0.251209 34.4738 0.409476 34.7242C0.617917 35.0538 0.925375 35.2606 1.21495 35.4928C1.79384 35.9569 2.32041 36.5425 2.9767 36.839C3.75175 37.1894 4.49904 37.5834 5.26208 37.9528C6.52795 38.5655 7.80876 39.1572 9.24703 39.2976C9.70502 39.3422 10.1657 39.4575 10.6221 39.5754C11.475 39.7959 12.3638 39.8752 13.2232 40.0753C13.7647 40.2016 14.3091 40.121 14.8475 40.2165C16.883 40.5782 18.9341 40.3993 20.9771 40.3323C22.2596 40.2902 23.5156 39.9648 24.783 39.7649C25.5268 39.6475 26.2461 39.4228 26.983 39.2925C28.2401 39.0705 29.4832 38.8314 30.6567 38.2962C30.8406 38.2124 31.1353 37.9939 31.3325 38.2207C31.8642 38.8322 32.3886 39.4561 32.8461 40.1231C33.0692 40.4484 33.316 40.7909 33.6638 40.7954C34.0009 40.7999 34.2045 40.414 34.3225 40.0785C34.6713 39.0852 35.0268 38.0945 35.3273 37.0838C35.6452 36.0138 36.1755 35.0183 36.4507 33.9299C36.5686 33.4653 36.4464 33.276 35.958 33.3209ZM33.5893 39.1452C33.5216 39.3107 33.4853 39.335 33.3091 39.1764C32.822 38.7382 32.4938 38.1727 32.0427 37.7094C31.36 37.008 30.8892 36.1328 30.1969 35.437C29.9871 35.2262 30.1537 35.1152 30.3482 35.104C31.3058 35.0487 32.2194 34.7415 33.1813 34.658C33.9206 34.5937 34.6977 34.5 35.4749 34.1941C34.9267 35.9305 34.2496 37.5345 33.5893 39.1452Z" fill="#002D40"/>
<path d="M21.7703 7.73722C22.8328 7.64568 23.382 7.08494 23.3446 5.34988C23.3286 4.60339 22.4946 3.98126 21.4994 3.9858C20.4766 3.91561 19.5644 4.94901 19.5711 6.12333C19.5764 6.97578 20.6816 7.8309 21.7703 7.73722ZM21.5669 4.84199C22.0769 4.83905 22.5539 5.24793 22.5525 5.68696C22.5501 6.36486 22.0662 6.96217 21.5092 6.97444C21.032 6.98485 20.5228 6.49004 20.514 6.0067C20.4999 5.23458 20.8511 4.84599 21.5669 4.84199Z" fill="#002D40"/>
<path d="M6.8657 17.4872C7.3792 17.615 7.57696 17.4455 7.621 16.9032C7.63221 16.7639 7.63621 16.624 7.64876 16.3881C7.64182 16.2672 7.63167 16.0507 7.61593 15.8348C7.60792 15.7259 7.59484 15.6309 7.45312 15.5906C6.91961 15.4393 6.56251 15.7081 6.60788 16.2485C6.6271 16.4783 6.65699 16.7044 6.65886 16.9379C6.65993 17.1079 6.59908 17.4207 6.8657 17.4872Z" fill="#002D40"/>
<path d="M7.21373 23.6208C7.0109 23.6541 6.69143 23.5073 6.7344 23.8388C6.79445 24.3005 6.67435 24.7625 6.7819 25.2146C6.80512 25.3126 6.76269 25.4636 6.96072 25.4895C7.51825 25.5619 7.72456 25.4063 7.69307 24.8642C7.68586 24.7396 7.69173 24.6269 7.70401 24.5042C7.77474 23.8038 7.65143 23.6079 7.21373 23.6208Z" fill="#002D40"/>
<path d="M7.13622 22.7386C7.49732 22.7907 7.68548 22.6989 7.63103 22.2924C7.58726 21.9655 7.591 21.6292 7.60515 21.2985C7.61289 21.1151 7.57125 20.9043 7.39777 21.0025C7.17332 21.1296 6.74976 20.7543 6.71106 21.2691C6.68651 21.5947 6.70199 21.9233 6.6801 22.2492C6.65662 22.5977 6.72894 22.8331 7.13622 22.7386Z" fill="#002D40"/>
<path d="M7.06343 26.3256C6.74823 26.1713 6.80882 26.4598 6.78827 26.5767C6.71033 27.0198 6.77519 27.4615 6.84538 27.9021C6.8718 28.0687 6.74903 28.3462 7.04581 28.3046C7.27908 28.2718 7.69223 28.367 7.63965 27.8752C7.6183 27.6761 7.63618 27.473 7.63618 27.2058C7.58147 27.0689 7.65326 26.8677 7.65753 26.6662C7.66794 26.1607 7.26813 26.4257 7.06343 26.3256Z" fill="#002D40"/>
<path d="M7.05656 14.8263C7.35815 14.8639 7.57006 14.7539 7.55752 14.3885C7.54924 14.1462 7.57807 13.9023 7.59008 13.6591C7.61757 13.0947 7.50067 12.8731 7.11955 12.9348C6.76992 12.9914 6.60045 13.2444 6.65996 13.6359C6.69412 13.8612 6.69146 14.1086 6.63434 14.3277C6.52972 14.7272 6.79101 14.7932 7.05656 14.8263Z" fill="#002D40"/>
<path d="M7.10423 18.2983C6.70897 18.2858 6.67534 18.5145 6.69589 18.8086C6.71964 19.1476 6.81092 19.4977 6.75461 19.8223C6.64892 20.4305 7.18083 19.916 7.30787 20.1596C7.34523 20.2314 7.60572 20.0921 7.57102 19.8554C7.52031 19.5074 7.68659 19.1599 7.56942 18.8324C7.67805 18.3998 7.46106 18.3096 7.10423 18.2983Z" fill="#002D40"/>
<path d="M28.2462 17.4963C28.7893 17.5697 28.8582 17.2513 28.8691 16.8488C28.8721 16.7399 28.8696 16.631 28.8696 16.5221C28.8977 15.6027 28.8979 15.6149 28.0773 15.62C27.903 15.6211 27.8755 15.6392 27.8645 15.805C27.833 16.2912 27.9094 16.7642 27.966 17.2435C27.9945 17.4843 28.0447 17.469 28.2462 17.4963Z" fill="#002D40"/>
<path d="M28.2218 23.624C27.9658 23.5549 27.913 23.7873 27.9626 23.9419C28.0523 24.2218 27.9463 24.4965 27.9994 24.8215C27.9877 24.9216 27.9805 25.0681 28.0088 25.2277C28.0982 25.7327 28.4508 25.3465 28.6621 25.4349C28.9015 25.5349 28.9266 25.2568 28.9301 25.1626C28.9461 24.73 28.9381 24.2931 28.8922 23.8626C28.8401 23.3811 28.4502 23.6857 28.2218 23.624Z" fill="#002D40"/>
<path d="M28.4643 22.7347C28.6175 22.7629 28.8708 22.8129 28.8681 22.503C28.8644 22.0624 28.8631 21.6217 28.8537 21.1814C28.851 21.057 28.7827 20.9945 28.6445 20.9804C28.0512 20.9195 27.9193 21.0338 27.9332 21.6239C27.9351 21.7015 27.9487 21.7789 27.957 21.8566C27.9503 21.8569 27.9434 21.8571 27.9367 21.8574C27.9367 22.0744 27.9295 22.2919 27.9383 22.5086C27.9556 22.9236 28.2831 22.701 28.4643 22.7347Z" fill="#002D40"/>
<path d="M28.571 26.3269C28.1315 26.2351 27.994 26.371 27.9898 26.8167C27.9855 27.248 28.0824 27.6673 28.072 28.0962C28.0696 28.1904 28.0869 28.3102 28.2465 28.3268C28.6594 28.3697 28.8596 28.2024 28.8726 27.7727C28.8782 27.5872 28.8737 27.4014 28.8737 27.1068C28.8766 27.0606 28.8756 26.9042 28.8988 26.7513C28.9386 26.4871 28.8387 26.3827 28.571 26.3269Z" fill="#002D40"/>
<path d="M28.3096 14.8251C28.5778 14.8542 28.798 14.7714 28.7929 14.4191C28.7886 14.1175 28.8247 13.8154 28.8428 13.5136C28.8724 13.1821 28.7595 12.9115 28.3846 12.9395C28.0752 12.9627 27.8759 13.1594 27.886 13.5114C27.894 13.7893 27.9236 14.0773 27.866 14.3439C27.7768 14.7554 28.0525 14.7971 28.3096 14.8251Z" fill="#002D40"/>
<path d="M27.9903 19.8512C27.9354 20.4307 28.4502 19.8953 28.5692 20.1632C28.5879 20.2054 28.8399 20.0877 28.8092 19.8734C28.7569 19.5093 28.9087 19.1466 28.8126 18.8048C28.9028 18.394 28.7019 18.3097 28.3592 18.2985C27.9791 18.2856 27.9071 18.4762 27.9314 18.7893C27.9591 19.1434 28.0234 19.5024 27.9903 19.8512Z" fill="#002D40"/>
<path d="M15.412 7.71421C15.8383 7.77613 15.8292 7.40168 15.8468 7.16148C15.8636 6.93356 15.6739 6.74086 15.4102 6.72484C15.0694 6.70429 14.9831 6.9485 14.9973 7.21512C15.0096 7.45372 15.0264 7.73689 15.412 7.71421Z" fill="#002D40"/>
<path d="M15.4146 9.88469C15.8448 9.94047 15.8326 9.56363 15.8467 9.3261C15.86 9.10511 15.6738 8.90575 15.4039 8.89507C15.0604 8.88146 14.9825 9.12807 14.9975 9.39202C15.0111 9.63142 15.0324 9.91379 15.4146 9.88469Z" fill="#002D40"/>
<path d="M14.0857 15.0628C13.8737 15.0564 13.7061 15.1655 13.7144 15.4369C13.7235 15.7361 13.7408 16.0001 14.1342 16.0268C14.4929 16.0513 14.4286 15.7986 14.447 15.5408C14.4929 15.2998 14.4102 15.0724 14.0857 15.0628Z" fill="#002D40"/>
<path d="M13.6198 11.2855C13.6294 11.5861 13.6486 11.8476 14.041 11.874C14.4013 11.8981 14.3327 11.6429 14.3551 11.356C14.4128 11.1345 14.3039 10.9226 13.9892 10.9106C13.7789 10.9026 13.6113 11.013 13.6198 11.2855Z" fill="#002D40"/>
<path d="M14.041 13.9502C14.4013 13.9742 14.3327 13.7191 14.3551 13.4322C14.4128 13.2107 14.3039 12.9987 13.9892 12.9867C13.7789 12.9787 13.611 13.089 13.6196 13.3617C13.6294 13.6625 13.6489 13.9241 14.041 13.9502Z" fill="#002D40"/>
<path d="M13.9453 7.62709C14.3046 7.65165 14.2397 7.39917 14.2584 7.14028C14.3043 6.90008 14.2216 6.67296 13.8973 6.66335C13.6854 6.65695 13.5178 6.7661 13.5258 7.03727C13.5349 7.33592 13.5517 7.60014 13.9453 7.62709Z" fill="#002D40"/>
<path d="M13.9569 9.79888C14.3105 9.81597 14.2387 9.55467 14.2587 9.28832C14.3153 9.04438 14.1998 8.83728 13.8846 8.83594C13.678 8.83514 13.5128 8.93869 13.5253 9.21973C13.5389 9.52959 13.5755 9.78047 13.9569 9.79888Z" fill="#002D40"/>
<path d="M18.055 13.6612C18.5114 13.6844 18.4861 13.3025 18.4901 13.0732C18.4935 12.8698 18.3051 12.6579 18.0179 12.6705C17.667 12.6857 17.6251 12.9421 17.6414 13.1968C17.6568 13.4455 17.7099 13.7116 18.055 13.6612Z" fill="#002D40"/>
<path d="M18.1314 14.7461C17.7845 14.7429 17.7204 14.9925 17.7346 15.2532C17.7477 15.4972 17.7816 15.7721 18.1523 15.7363C18.5908 15.7822 18.5734 15.4021 18.5836 15.1683C18.5926 14.9559 18.409 14.7488 18.1314 14.7461Z" fill="#002D40"/>
<path d="M16.9115 14.6867C16.7022 14.6809 16.5357 14.789 16.5456 15.0649C16.5565 15.3692 16.5819 15.627 16.9707 15.65C17.3284 15.671 17.259 15.414 17.2798 15.1397C17.3369 14.9056 17.2251 14.6958 16.9115 14.6867Z" fill="#002D40"/>
<path d="M16.9035 13.5779C17.2526 13.5787 17.1589 13.3041 17.187 13.0492C17.235 12.8202 17.121 12.6251 16.836 12.6075C16.6222 12.5942 16.4514 12.7071 16.4503 12.9702C16.449 13.2907 16.4925 13.5768 16.9035 13.5779Z" fill="#002D40"/>
</svg>
