<svg width="57" height="47" viewBox="0 0 57 47" fill="none" xmlns="http://www.w3.org/2000/svg">
<path d="M42.1794 2.88255C42.1794 2.17135 41.6028 1.59473 40.8916 1.59473H35.7008C34.9896 1.59473 34.413 2.17135 34.413 2.88255V9.36115H42.1794V2.88255Z" fill="#C7CED8"/>
<path d="M31.6453 0.4C32.1356 0.4 32.5331 0.797534 32.5331 1.28783V7.36643H24.6419V1.28783C24.6419 0.797534 25.0395 0.4 25.5298 0.4H31.6453Z" fill="white" stroke="#C7CED8" stroke-width="0.8"/>
<path d="M51.074 0.4C51.5643 0.4 51.9618 0.797531 51.9618 1.28783V7.36643H44.0707V1.28783C44.0707 0.797538 44.4682 0.4 44.9585 0.4H51.074Z" fill="white" stroke="#C7CED8" stroke-width="0.8"/>
<path d="M20.7993 46L24.6052 6.6334H51.9872L55.7931 46H20.7993Z" fill="white" stroke="#C7CED8" stroke-width="0.8"/>
<path d="M45.1845 33.6785C45.1845 31.1124 43.1041 29.0326 40.5387 29.0326H36.0543C33.4882 29.0326 31.4078 31.113 31.4078 33.6785V46.3994H45.1845V33.6785Z" fill="#C7CED8"/>
<path d="M30.8067 15.071C28.8155 15.071 27.2004 16.6855 27.2004 18.6767V22.8375H34.4124V18.6767C34.413 16.6855 32.7986 15.071 30.8067 15.071Z" fill="#C7CED8"/>
<path d="M48.7902 18.6767C48.7902 16.6855 47.1758 15.071 45.1839 15.071C43.1926 15.071 41.5776 16.6855 41.5776 18.6767V22.8375H48.7896L48.7902 18.6767Z" fill="#C7CED8"/>
<path d="M12.8507 14.784L10.4382 15.2174L13.9244 34.624L16.3369 34.1906L12.8507 14.784Z" fill="#377DFF"/>
<path d="M14.138 15.4227L9.46522 16.262C8.52492 16.4306 7.6259 15.8056 7.45722 14.8653L7.2018 13.4446C7.03313 12.5044 7.65819 11.6053 8.59849 11.4366L13.2713 10.5974C14.2116 10.4288 15.1106 11.0538 15.2793 11.9941L15.5347 13.4147C15.7034 14.3544 15.0783 15.2541 14.138 15.4227Z" stroke="#377DFF" stroke-width="0.8" stroke-miterlimit="10"/>
<path d="M22.3273 43.1179L11.4265 45.0762L10.1567 38.0078C9.61593 34.9973 11.6179 32.119 14.6279 31.5783C17.6384 31.0376 20.5167 33.0396 21.0574 36.0495L22.3273 43.1179Z" fill="#377DFF"/>
<path d="M14.93 33.2567C12.727 33.6527 11.2621 35.7594 11.6575 37.9624L12.0343 40.0607C11.6389 37.8577 13.1038 35.751 15.3068 35.3557C17.5098 34.9597 19.6165 36.4252 20.0119 38.6282L19.635 36.5298C19.2391 34.3262 17.1324 32.8608 14.93 33.2567Z" fill="#377DFF"/>
<path d="M7.24783 39.27C8.57753 37.9619 10.5485 37.5503 12.2903 38.2173L33.6731 46.4H0L7.24783 39.27Z" fill="#C7CED8"/>
</svg>
