<svg width="12" height="13" viewBox="0 0 12 13" fill="none" xmlns="http://www.w3.org/2000/svg">
<path d="M6 3.00195C6.20711 3.00195 6.375 3.16985 6.375 3.37695V5.62695H8.625C8.83211 5.62695 9 5.79485 9 6.00195C9 6.20906 8.83211 6.37695 8.625 6.37695H6.375V8.62695C6.375 8.83406 6.20711 9.00195 6 9.00195C5.79289 9.00195 5.625 8.83406 5.625 8.62695V6.37695H3.375C3.16789 6.37695 3 6.20906 3 6.00195C3 5.79485 3.16789 5.62695 3.375 5.62695H5.625V3.37695C5.625 3.16985 5.79289 3.00195 6 3.00195Z" fill="#0037B3"/>
</svg>
