<svg width="32" height="33" viewBox="0 0 32 33" fill="none" xmlns="http://www.w3.org/2000/svg">
<path d="M24 24.002C25.1046 24.002 26 23.1065 26 22.002V17.1182C26 16.0137 25.1046 15.1182 24 15.1182H21.2248C21.2248 14.4154 21.2661 13.7125 21.3488 13.0097C21.4729 12.2655 21.6796 11.604 21.969 11.0252C22.2584 10.4464 22.6305 9.99162 23.0853 9.66087C23.5401 9.28878 24.1189 9.10273 24.8217 9.10273V6.00195C23.6641 6.00195 22.6512 6.25001 21.7829 6.74614C20.9147 7.24226 20.1912 7.90376 19.6124 8.73064C19.0749 9.55751 18.6615 10.5291 18.3721 11.6454C18.124 12.7203 18 13.8779 18 15.1182V22.002C18 23.1065 18.8954 24.002 20 24.002H24Z" fill="#0A0A0A"/>
<path d="M12 24.002C13.1046 24.002 14 23.1065 14 22.002V17.1182C14 16.0137 13.1046 15.1182 12 15.1182H9.22481C9.22481 14.4154 9.26615 13.7125 9.34883 13.0097C9.47287 12.2655 9.67959 11.604 9.96899 11.0252C10.2584 10.4464 10.6305 9.99162 11.0853 9.66087C11.5401 9.28878 12.1189 9.10273 12.8217 9.10273V6.00195C11.6641 6.00195 10.6512 6.25001 9.78294 6.74614C8.91473 7.24226 8.19121 7.90376 7.6124 8.73064C7.07494 9.55751 6.6615 10.5291 6.37209 11.6454C6.12403 12.7203 6 13.8779 6 15.1182V22.002C6 23.1065 6.89543 24.002 8 24.002H12Z" fill="#0A0A0A"/>
</svg>
