<svg width="63" height="49" viewBox="0 0 63 49" fill="none" xmlns="http://www.w3.org/2000/svg">
<path d="M18.6708 1.77227L18.342 1.2974L18.0131 1.77227L8.29115 15.8113L7.85645 16.439H8.62H10.464H10.6735L10.7928 16.2667L18.342 5.3646L25.8922 16.2667L26.0115 16.439H26.221H28.064H28.8275L28.3928 15.8113L18.6708 1.77227Z" fill="white" stroke="#C7CED8" stroke-width="0.8"/>
<path d="M48.848 29.501H25.409V17.221H25.792L25.3642 16.5953L18.6853 6.82432L18.355 6.34122L18.0248 6.82432L11.3458 16.5953L11.276 16.6974V16.821V29.901V44.371V44.771H11.676H48.848H49.248V44.371V29.901V29.501H48.848Z" fill="white" stroke="#C7CED8" stroke-width="0.8"/>
<path d="M20.854 16.8211C20.854 18.2081 19.73 19.3321 18.343 19.3321C16.956 19.3321 15.832 18.2081 15.832 16.8211C15.832 15.4341 16.956 14.3101 18.343 14.3101C19.729 14.3101 20.854 15.4341 20.854 16.8211Z" fill="#C7CED8"/>
<path d="M30.386 34.814C30.337 33.681 29.41 32.775 28.265 32.775C27.12 32.775 26.193 33.681 26.144 34.814H26.135V40.324H30.396V34.814H30.386Z" fill="#C7CED8"/>
<path d="M20.476 24.3911C20.427 23.2581 19.5 22.3521 18.355 22.3521C17.21 22.3521 16.283 23.2581 16.234 24.3911H16.225V29.9011H20.486V24.3911H20.476Z" fill="#C7CED8"/>
<path d="M37.9619 34.814C37.9129 33.681 36.9859 32.775 35.8409 32.775C34.6959 32.775 33.7689 33.681 33.7199 34.814H33.7109V40.324H37.972V34.814H37.9619Z" fill="#C7CED8"/>
<path d="M45.538 34.814C45.489 33.681 44.562 32.775 43.417 32.775C42.272 32.775 41.345 33.681 41.296 34.814H41.287V40.324H45.548V34.814H45.538Z" fill="#C7CED8"/>
<path d="M52.8669 28.301H53.4287L53.2449 27.7702L50.4039 19.5622L50.3108 19.293H50.0259H27.075H26.675V19.693V27.901V28.301H27.075H52.8669Z" fill="white" stroke="#C7CED8" stroke-width="0.8"/>
<path d="M20.485 36.778H16.224V44.321H20.485V36.778Z" fill="#C7CED8"/>
<path d="M23.09 34.063H13.619V35.387H23.09V34.063Z" fill="#C7CED8"/>
<path d="M62.341 44.371H0V48.403H62.341V44.371Z" fill="#377DFF"/>
</svg>
