<svg width="63" height="48" viewBox="0 0 63 48" fill="none" xmlns="http://www.w3.org/2000/svg">
<path d="M18.5064 0.886137L18.342 0.648701L18.1776 0.886137L8.45557 14.9251L8.23822 15.239H8.62H10.464H10.5688L10.6284 15.1529L18.342 4.0133L26.0566 15.1529L26.1162 15.239H26.221H28.064H28.4458L28.2284 14.9251L18.5064 0.886137Z" fill="white" stroke="#C7CED8" stroke-width="0.4"/>
<path d="M48.848 28.701H25.209V16.021H25.413L25.1991 15.7082L18.5201 5.93719L18.355 5.69564L18.1899 5.93719L11.5109 15.7082L11.476 15.7592V15.821V28.901V43.371V43.571H11.676H48.848H49.048V43.371V28.901V28.701H48.848Z" fill="white" stroke="#C7CED8" stroke-width="0.4"/>
<path d="M20.854 15.8211C20.854 17.2081 19.73 18.3321 18.343 18.3321C16.956 18.3321 15.832 17.2081 15.832 15.8211C15.832 14.4341 16.956 13.3101 18.343 13.3101C19.729 13.3101 20.854 14.4341 20.854 15.8211Z" fill="#C7CED8"/>
<path d="M30.386 33.814C30.337 32.681 29.41 31.775 28.265 31.775C27.12 31.775 26.193 32.681 26.144 33.814H26.135V39.324H30.396V33.814H30.386Z" fill="#C7CED8"/>
<path d="M20.476 23.3911C20.427 22.2581 19.5 21.3521 18.355 21.3521C17.21 21.3521 16.283 22.2581 16.234 23.3911H16.225V28.9011H20.486V23.3911H20.476Z" fill="#C7CED8"/>
<path d="M37.9619 33.814C37.9129 32.681 36.9859 31.775 35.8409 31.775C34.6959 31.775 33.7689 32.681 33.7199 33.814H33.7109V39.324H37.972V33.814H37.9619Z" fill="#C7CED8"/>
<path d="M45.538 33.814C45.489 32.681 44.562 31.775 43.417 31.775C42.272 31.775 41.345 32.681 41.296 33.814H41.287V39.324H45.548V33.814H45.538Z" fill="#C7CED8"/>
<path d="M52.8669 27.101H53.1478L53.0559 26.8356L50.2149 18.6276L50.1684 18.493H50.0259H27.075H26.875V18.693V26.901V27.101H27.075H52.8669Z" fill="white" stroke="#C7CED8" stroke-width="0.4"/>
<path d="M20.485 35.778H16.224V43.321H20.485V35.778Z" fill="#C7CED8"/>
<path d="M23.09 33.063H13.619V34.387H23.09V33.063Z" fill="#C7CED8"/>
<path d="M62.341 43.371H0V47.403H62.341V43.371Z" fill="#377DFF"/>
</svg>
