<svg width="64" height="48" viewBox="0 0 64 48" fill="none" xmlns="http://www.w3.org/2000/svg">
<path d="M51.5929 23.361L51.4511 23.2182L51.3092 23.3609C50.113 24.5639 48.4594 25.3089 46.635 25.3089C44.8106 25.3089 43.157 24.5639 41.9619 23.361L41.82 23.2181L41.6781 23.361C40.484 24.5639 38.8294 25.3089 37.006 25.3089C35.1816 25.3089 33.528 24.5639 32.3329 23.361L32.191 23.2182L32.0491 23.361C30.854 24.5639 29.1994 25.3089 27.376 25.3089C25.5516 25.3089 23.898 24.5639 22.7029 23.361L22.561 23.2182L22.4191 23.361C21.224 24.5639 19.5704 25.3089 17.746 25.3089C15.9216 25.3089 14.268 24.5639 13.0739 23.361L12.9321 23.2182L12.7902 23.3609C11.9137 24.2422 10.7898 24.874 9.53495 25.1506L9.378 25.1852V25.3459V43.683V43.883H9.578H54.167H54.367V43.683V25.1719V25.0266L54.2288 24.9817C53.2223 24.6546 52.3217 24.0947 51.5929 23.361Z" fill="white" stroke="#C7CED8" stroke-width="0.4"/>
<path d="M63.193 43.684H0.547974V47.631H63.193V43.684Z" fill="#377DFF"/>
<path d="M60.858 17.423L55.279 0.672974H9.10101L3.522 17.423C3.405 17.837 3.323 18.265 3.323 18.717C3.323 21.363 5.46799 23.509 8.11499 23.509C10.761 23.509 12.907 21.364 12.907 18.717H12.954C12.954 21.363 15.099 23.509 17.746 23.509C20.392 23.509 22.538 21.364 22.538 18.717H22.585C22.585 21.363 24.73 23.509 27.377 23.509C30.023 23.509 32.169 21.364 32.169 18.717H32.216C32.216 21.363 34.361 23.509 37.008 23.509C39.654 23.509 41.8 21.364 41.8 18.717H41.847C41.847 21.363 43.992 23.509 46.639 23.509C49.285 23.509 51.431 21.364 51.431 18.717H51.478C51.478 21.363 53.623 23.509 56.27 23.509C58.916 23.509 61.062 21.364 61.062 18.717C61.058 18.266 60.975 17.837 60.858 17.423Z" fill="#377DFF"/>
<path d="M37.2469 33.993V43.683H43.1519V28.5389C39.8179 28.9079 37.2469 31.206 37.2469 33.993Z" fill="#C7CED8"/>
<path d="M45.027 28.5389V43.683H50.932V33.993C50.932 31.206 48.361 28.9079 45.027 28.5389Z" fill="#C7CED8"/>
<path d="M21.07 31.687C20.993 29.921 19.548 28.509 17.763 28.509C15.978 28.509 14.533 29.921 14.457 31.687H14.443V40.276H21.085V31.687H21.07Z" fill="#C7CED8"/>
<path d="M31.008 31.687C30.931 29.921 29.486 28.509 27.701 28.509C25.916 28.509 24.471 29.92 24.395 31.687H24.381V40.276H31.023V31.687H31.008Z" fill="#C7CED8"/>
</svg>
