<svg width="64" height="48" viewBox="0 0 64 48" fill="none" xmlns="http://www.w3.org/2000/svg">
<path d="M51.7348 23.2201L51.4511 22.9345L51.1673 23.2199C50.007 24.3868 48.4038 25.1089 46.635 25.1089C44.8662 25.1089 43.263 24.3868 42.1038 23.22L41.8199 22.9343L41.5361 23.2201C40.378 24.3868 38.7739 25.1089 37.006 25.1089C35.2372 25.1089 33.634 24.3868 32.4748 23.22L32.191 22.9344L31.9073 23.22C30.748 24.3868 29.1439 25.1089 27.376 25.1089C25.6072 25.1089 24.004 24.3868 22.8448 23.22L22.561 22.9344L22.2772 23.22C21.118 24.3868 19.5148 25.1089 17.746 25.1089C15.9772 25.1089 14.3741 24.3868 13.2159 23.2201L12.9323 22.9344L12.6484 23.2199C11.7984 24.0745 10.7086 24.6871 9.4919 24.9553L9.178 25.0245V25.3459V43.683V44.083H9.578H54.167H54.567V43.683V25.1719V24.8813L54.2906 24.7915C53.3146 24.4743 52.4414 23.9314 51.7348 23.2201Z" fill="white" stroke="#C7CED8" stroke-width="0.8"/>
<path d="M63.193 43.684H0.547974V47.631H63.193V43.684Z" fill="#377DFF"/>
<path d="M60.858 17.423L55.279 0.672974H9.10101L3.522 17.423C3.405 17.837 3.323 18.265 3.323 18.717C3.323 21.363 5.46799 23.509 8.11499 23.509C10.761 23.509 12.907 21.364 12.907 18.717H12.954C12.954 21.363 15.099 23.509 17.746 23.509C20.392 23.509 22.538 21.364 22.538 18.717H22.585C22.585 21.363 24.73 23.509 27.377 23.509C30.023 23.509 32.169 21.364 32.169 18.717H32.216C32.216 21.363 34.361 23.509 37.008 23.509C39.654 23.509 41.8 21.364 41.8 18.717H41.847C41.847 21.363 43.992 23.509 46.639 23.509C49.285 23.509 51.431 21.364 51.431 18.717H51.478C51.478 21.363 53.623 23.509 56.27 23.509C58.916 23.509 61.062 21.364 61.062 18.717C61.058 18.266 60.975 17.837 60.858 17.423Z" fill="#377DFF"/>
<path d="M37.2469 33.993V43.683H43.1519V28.5389C39.8179 28.9079 37.2469 31.206 37.2469 33.993Z" fill="#C7CED8"/>
<path d="M45.027 28.5389V43.683H50.932V33.993C50.932 31.206 48.361 28.9079 45.027 28.5389Z" fill="#C7CED8"/>
<path d="M21.07 31.687C20.993 29.921 19.548 28.509 17.763 28.509C15.978 28.509 14.533 29.921 14.457 31.687H14.443V40.276H21.085V31.687H21.07Z" fill="#C7CED8"/>
<path d="M31.008 31.687C30.931 29.921 29.486 28.509 27.701 28.509C25.916 28.509 24.471 29.92 24.395 31.687H24.381V40.276H31.023V31.687H31.008Z" fill="#C7CED8"/>
</svg>
