<svg width="24" height="25" viewBox="0 0 24 25" fill="none" xmlns="http://www.w3.org/2000/svg">
<path d="M12.0012 3.2749C9.63106 3.2749 9.33362 3.28527 8.40274 3.32763C7.47367 3.37018 6.83951 3.51727 6.28462 3.73308C5.71064 3.95599 5.22374 4.25418 4.73867 4.73945C4.25323 5.22454 3.95505 5.71145 3.73142 6.28527C3.51507 6.84036 3.3678 7.47472 3.32598 8.40345C3.28435 9.33436 3.27344 9.63199 3.27344 12.0022C3.27344 14.3724 3.28398 14.6689 3.32616 15.5998C3.36889 16.5289 3.51598 17.1631 3.73161 17.718C3.95469 18.292 4.25286 18.7789 4.73812 19.264C5.22301 19.7494 5.70991 20.0484 6.28353 20.2713C6.83878 20.4871 7.47313 20.6342 8.40201 20.6767C9.33289 20.7191 9.63015 20.7294 12.0001 20.7294C14.3704 20.7294 14.6669 20.7191 15.5978 20.6767C16.5269 20.6342 17.1617 20.4871 17.717 20.2713C18.2908 20.0484 18.777 19.7494 19.2619 19.264C19.7473 18.7789 20.0455 18.292 20.2691 17.7182C20.4836 17.1631 20.6309 16.5287 20.6745 15.6C20.7164 14.6691 20.7273 14.3724 20.7273 12.0022C20.7273 9.63199 20.7164 9.33454 20.6745 8.40363C20.6309 7.47454 20.4836 6.84036 20.2691 6.28545C20.0455 5.71145 19.7473 5.22454 19.2619 4.73945C18.7764 4.25399 18.291 3.95581 17.7165 3.73308C17.1601 3.51727 16.5256 3.37018 15.5965 3.32763C14.6656 3.28527 14.3693 3.2749 11.9984 3.2749H12.0012ZM11.2183 4.84763C11.4506 4.84727 11.7099 4.84763 12.0012 4.84763C14.3313 4.84763 14.6075 4.85599 15.5276 4.89781C16.3785 4.93672 16.8403 5.0789 17.1479 5.19836C17.5552 5.35654 17.8455 5.54563 18.1508 5.85108C18.4563 6.15654 18.6453 6.44745 18.8039 6.85472C18.9233 7.16199 19.0657 7.62381 19.1044 8.47472C19.1462 9.39472 19.1553 9.67108 19.1553 12.0002C19.1553 14.3293 19.1462 14.6056 19.1044 15.5256C19.0655 16.3765 18.9233 16.8384 18.8039 17.1456C18.6457 17.5529 18.4563 17.8429 18.1508 18.1482C17.8454 18.4536 17.5554 18.6427 17.1479 18.8009C16.8407 18.9209 16.3785 19.0627 15.5276 19.1016C14.6076 19.1434 14.3313 19.1525 12.0012 19.1525C9.67088 19.1525 9.39471 19.1434 8.47473 19.1016C7.62385 19.0624 7.16205 18.9202 6.85424 18.8007C6.44698 18.6425 6.15608 18.4534 5.85063 18.148C5.54519 17.8425 5.3561 17.5524 5.19756 17.1449C5.07811 16.8376 4.93575 16.3758 4.89702 15.5249C4.85521 14.6049 4.84684 14.3285 4.84684 11.998C4.84684 9.66745 4.85521 9.39254 4.89702 8.47254C4.93593 7.62163 5.07811 7.15981 5.19756 6.85217C5.35574 6.4449 5.54519 6.15399 5.85063 5.84854C6.15608 5.54308 6.44698 5.35399 6.85424 5.19545C7.16187 5.07545 7.62385 4.93363 8.47473 4.89454C9.2798 4.85818 9.59179 4.84727 11.2183 4.84545V4.84763ZM16.6596 6.29672C16.0814 6.29672 15.6123 6.76527 15.6123 7.34363C15.6123 7.92181 16.0814 8.3909 16.6596 8.3909C17.2377 8.3909 17.7068 7.92181 17.7068 7.34363C17.7068 6.76545 17.2377 6.29636 16.6596 6.29636V6.29672ZM12.0012 7.52036C9.52616 7.52036 7.51949 9.52708 7.51949 12.0022C7.51949 14.4773 9.52616 16.4831 12.0012 16.4831C14.4762 16.4831 16.4821 14.4773 16.4821 12.0022C16.4821 9.52708 14.476 7.52036 12.001 7.52036H12.0012ZM12.0012 9.09308C13.6077 9.09308 14.9102 10.3954 14.9102 12.0022C14.9102 13.6087 13.6077 14.9113 12.0012 14.9113C10.3945 14.9113 9.09217 13.6087 9.09217 12.0022C9.09217 10.3954 10.3945 9.09308 12.0012 9.09308V9.09308Z" fill="white"/>
</svg>
