<svg width="24" height="25" viewBox="0 0 24 25" fill="none" xmlns="http://www.w3.org/2000/svg">
<path d="M13.2812 12.0019C13.2812 15.1385 10.7558 17.6813 7.64049 17.6813C4.52519 17.6813 2 15.1393 2 12.0019C2 8.8646 4.52538 6.32275 7.64049 6.32275C10.7556 6.32275 13.2812 8.86537 13.2812 12.0019ZM19.4691 12.0019C19.4691 14.9546 18.2063 17.348 16.6487 17.348C15.0912 17.348 13.8284 14.9539 13.8284 12.0019C13.8284 9.05001 15.0912 6.65583 16.6487 6.65583C18.2063 6.65583 19.4691 9.05001 19.4691 12.0019ZM22 12.0019C22 14.6474 21.5558 16.7918 21.008 16.7918C20.4603 16.7918 20.0161 14.6466 20.0161 12.0019C20.0161 9.35723 20.4603 7.21205 21.0082 7.21205C21.5562 7.21205 22 9.35666 22 12.0019Z" fill="white"/>
</svg>
