<svg width="24" height="25" viewBox="0 0 24 25" fill="none" xmlns="http://www.w3.org/2000/svg">
<path fill-rule="evenodd" clip-rule="evenodd" d="M8.26275 6.00203C8.75402 5.9929 9.24459 6.04327 9.72375 6.15203C10.1272 6.24011 10.5102 6.40401 10.8525 6.63503C11.1686 6.86474 11.4187 7.17358 11.5778 7.53053C11.7605 7.96945 11.8487 8.44198 11.8365 8.91728C11.8573 9.43916 11.724 9.95562 11.4533 10.4023C11.1685 10.8241 10.7748 11.161 10.314 11.3773C10.9393 11.5459 11.484 11.932 11.85 12.4663C12.2014 13.0324 12.378 13.6895 12.3578 14.3555C12.3693 14.8865 12.2596 15.4131 12.0368 15.8953C11.8308 16.3159 11.5293 16.6824 11.1563 16.9655C10.7722 17.2456 10.3401 17.4527 9.88125 17.5768C9.40545 17.7084 8.91392 17.7745 8.42025 17.7733H3V6.00203H8.26275ZM7.95 10.763C8.33599 10.7789 8.71596 10.6634 9.02775 10.4353C9.17707 10.3023 9.29323 10.1363 9.36693 9.9505C9.44064 9.76466 9.46986 9.56417 9.45225 9.36503C9.46224 9.13244 9.41593 8.90088 9.31725 8.69003C9.23354 8.52215 9.10338 8.38184 8.94225 8.28578C8.77905 8.18004 8.59568 8.1093 8.40375 8.07803C8.1955 8.03768 7.98359 8.01933 7.7715 8.02328H5.4555V10.7735H7.95V10.763ZM8.085 15.7745C8.31843 15.7777 8.55139 15.7525 8.77875 15.6995C8.98653 15.6536 9.18358 15.5684 9.35925 15.4483C9.53134 15.3283 9.67038 15.1668 9.7635 14.9788C9.87147 14.739 9.92108 14.4771 9.90825 14.2145C9.93166 13.9752 9.89996 13.7337 9.81559 13.5086C9.73122 13.2834 9.59641 13.0805 9.4215 12.9155C9.05078 12.6425 8.59645 12.5072 8.13675 12.533H5.4555V15.7745H8.085Z" fill="white"/>
<path fill-rule="evenodd" clip-rule="evenodd" d="M15.855 15.731C16.0477 15.9097 16.2748 16.0473 16.5223 16.1354C16.7699 16.2236 17.0327 16.2606 17.295 16.244C17.7108 16.2545 18.1185 16.128 18.4553 15.884C18.7293 15.7059 18.9367 15.4422 19.0455 15.134H21.0038C20.7951 16.0114 20.2856 16.7879 19.5638 17.3285C18.8713 17.7881 18.053 18.0209 17.2223 17.9945C16.6294 18.0023 16.041 17.8908 15.492 17.6668C14.9954 17.4597 14.55 17.1466 14.187 16.7495C13.8253 16.3334 13.5475 15.8513 13.3688 15.3298C13.1681 14.7468 13.0699 14.1335 13.0785 13.517C13.0748 12.9109 13.1764 12.3087 13.3785 11.7373C13.6501 10.9334 14.1694 10.2361 14.8618 9.74568C15.5543 9.25521 16.3843 8.99672 17.2328 9.00728C17.8592 8.99418 18.4786 9.14079 19.0328 9.43327C19.5336 9.70793 19.9657 10.0926 20.2965 10.5583C20.6349 11.0469 20.8774 11.5954 21.0113 12.1745C21.158 12.7964 21.2104 13.4368 21.1665 14.0743H15.3338C15.2865 14.6732 15.4733 15.2671 15.855 15.731ZM18.414 11.2543C18.2508 11.091 18.0545 10.9646 17.8383 10.8836C17.6221 10.8027 17.3911 10.7689 17.1608 10.7848C16.8552 10.7731 16.5519 10.8408 16.2803 10.9813C16.0649 11.0998 15.8749 11.2593 15.7208 11.4508C15.5842 11.6303 15.4824 11.8338 15.4208 12.0508C15.3652 12.2317 15.3305 12.4184 15.3173 12.6073H18.93C18.8985 12.115 18.7192 11.6437 18.4155 11.255L18.414 11.2543Z" fill="white"/>
<path d="M14.8515 6.78802H19.3785V7.94528H14.8515V6.78802Z" fill="white"/>
</svg>
