<svg width="24" height="25" viewBox="0 0 24 25" fill="none" xmlns="http://www.w3.org/2000/svg">
<path fill-rule="evenodd" clip-rule="evenodd" d="M4.70666 3.50195C4.04024 3.50195 3.5 4.04219 3.5 4.70862V19.2952C3.5 19.9617 4.04024 20.5019 4.70667 20.5019H19.2933C19.9598 20.5019 20.5 19.9617 20.5 19.2952V4.70862C20.5 4.0422 19.9598 3.50195 19.2933 3.50195H4.70666ZM7.31572 8.78131C8.1302 8.78131 8.79047 8.12104 8.79047 7.30656C8.79047 6.49208 8.1302 5.83182 7.31572 5.83182C6.50124 5.83182 5.84097 6.49208 5.84097 7.30656C5.84097 8.12104 6.50124 8.78131 7.31572 8.78131ZM10.1411 9.87119H12.5852V10.9909C12.5852 10.9909 13.2485 9.66436 15.0531 9.66436C16.6628 9.66436 17.9964 10.4574 17.9964 12.8746V17.9717H15.4636V13.4922C15.4636 12.0663 14.7023 11.9095 14.1222 11.9095C12.9183 11.9095 12.7122 12.9479 12.7122 13.6782V17.9717H10.1411V9.87119ZM8.6013 9.8712H6.03015V17.9717H8.6013V9.8712Z" fill="white"/>
</svg>
