<svg width="24" height="25" viewBox="0 0 24 25" fill="none" xmlns="http://www.w3.org/2000/svg">
<path fill-rule="evenodd" clip-rule="evenodd" d="M11.9992 3.00195C7.02941 3.00195 3 7.03136 3 12.0022C3 15.9786 5.57853 19.3516 9.15488 20.5423C9.60518 20.6246 9.76927 20.3467 9.76927 20.108C9.76927 19.8947 9.76153 19.3284 9.75711 18.5776C7.25372 19.1212 6.72553 17.3709 6.72553 17.3709C6.31612 16.3316 5.72605 16.0548 5.72605 16.0548C4.9089 15.4963 5.78793 15.5073 5.78793 15.5073C6.69127 15.5714 7.16643 16.435 7.16643 16.435C7.96921 17.8101 9.27312 17.4129 9.78584 17.1831C9.86761 16.6013 10.0997 16.2046 10.3571 15.9797C8.35873 15.7526 6.25756 14.9802 6.25756 11.5315C6.25756 10.5491 6.6084 9.74581 7.18411 9.1165C7.09129 8.88887 6.78244 7.97393 7.27195 6.73466C7.27195 6.73466 8.02778 6.49267 9.74717 7.65734C10.4649 7.45789 11.2351 7.35789 12.0003 7.35457C12.7644 7.35789 13.5346 7.45789 14.2534 7.65734C15.9717 6.49267 16.7258 6.73466 16.7258 6.73466C17.217 7.97393 16.9082 8.88887 16.8153 9.1165C17.3922 9.74581 17.7408 10.5491 17.7408 11.5315C17.7408 14.9891 15.6363 15.7499 13.6313 15.9725C13.9545 16.2504 14.2423 16.7996 14.2423 17.6394C14.2423 18.8422 14.2313 19.813 14.2313 20.108C14.2313 20.3489 14.3932 20.629 14.8501 20.5412C18.4237 19.3483 21 15.9775 21 12.0022C21 7.03136 16.97 3.00195 11.9992 3.00195Z" fill="white"/>
</svg>
