<svg width="39" height="41" viewBox="0 0 39 41" fill="none" xmlns="http://www.w3.org/2000/svg">
<path d="M25.3669 20.1859C25.1823 20.0305 24.9998 19.829 24.7762 19.6972C24.006 19.2436 23.184 18.8881 22.4256 18.4047C21.5777 17.8646 20.6674 17.4093 19.7608 16.9895C18.446 16.3805 17.1906 15.6483 15.8404 15.1098C15.4542 14.9558 15.3914 15.0887 15.261 15.3753C14.8484 16.2824 14.6636 17.2797 14.1251 18.1387C13.8665 18.5511 13.9312 18.6037 14.3825 18.7886C15.043 19.059 15.7492 19.2401 16.3267 19.685C17.0649 20.2534 17.9142 20.6389 18.6937 21.1401C19.1571 21.4378 19.7068 21.5981 20.1908 21.8685C21.1804 22.4214 22.1585 22.9964 23.1258 23.5876C23.3455 23.7218 23.4083 23.6602 23.5352 23.4895C23.6996 23.268 23.7066 22.9836 23.8893 22.7696C24.4675 22.0926 24.6936 21.2017 25.2433 20.5039C25.3055 20.4248 25.321 20.3086 25.3669 20.1859Z" fill="#2A58C0"/>
<path d="M10.1029 9.8056C10.0869 9.85639 10.0447 9.89814 10.0238 9.94777C9.61609 10.9158 9.20929 11.8841 8.80296 12.8529C8.56848 13.4118 8.40266 13.9958 8.17885 14.5601C7.99586 15.0211 7.74607 15.4636 7.62223 15.9356C7.43158 16.6618 7.06561 17.2942 6.72352 17.9422C6.55514 18.2609 6.55654 18.5902 6.80029 18.6269C7.60321 18.7479 8.35395 19.0967 9.19329 19.09C9.69494 19.0861 10.2063 19.1007 10.7115 19.1174C11.4202 19.1408 12.1348 19.0515 12.828 18.6334C12.0369 18.4418 11.6612 18.1006 11.8678 17.55C12.2728 16.4716 12.6109 15.3625 13.2622 14.391C13.579 13.9183 13.9058 13.8265 14.4077 14.1034C14.6289 14.2254 14.7634 14.2048 14.7957 13.9227C14.8356 13.576 14.7613 13.2573 14.6106 12.9452C14.2179 12.132 13.4994 11.6097 12.8853 10.9949C12.6181 10.7275 12.3572 10.4408 12.0467 10.233C11.6735 9.98348 11.2451 9.82253 10.878 9.54978C10.365 9.16896 10.2926 9.20282 10.1029 9.8056Z" fill="#EAF0FD"/>
<path d="M31.1344 24.3082C30.4735 23.8749 30.0576 23.1643 29.3398 22.7891C28.4242 23.835 27.871 25.1227 26.9999 26.193C26.9002 26.3155 27.0368 26.3732 27.0929 26.4159C27.5401 26.7559 27.9534 27.1328 28.3602 27.5192C28.8514 27.9858 29.1833 27.9475 29.5481 27.4331C30.0469 26.7297 30.5616 26.0372 31.0748 25.3442C31.3316 24.9972 31.3921 24.477 31.1344 24.3082Z" fill="#2A58C0"/>
<path d="M7.8077 13.2502C8.18458 12.5264 8.37012 11.7105 8.72821 10.9664C9.00768 10.3859 9.22012 9.77319 9.47362 9.14746C9.23543 9.16207 9.10833 9.27293 8.97706 9.39121C8.4216 9.89124 8.01017 10.4669 7.69985 11.1673C7.18452 12.3306 6.71278 13.5086 6.24081 14.6888C6.0671 15.1235 5.97665 15.5845 5.78415 16.0039C5.50816 16.6045 5.48544 17.1816 5.76653 17.7753C5.78926 17.8231 5.79645 17.8838 5.86765 17.882C5.94998 17.8799 5.98825 17.8226 6.0017 17.753C6.14967 17.0002 6.51356 16.3135 6.81575 15.6325C7.16457 14.8472 7.40763 14.019 7.8077 13.2502Z" fill="white"/>
<path d="M26.8277 21.5559C26.9109 21.4323 26.9731 21.2945 27.0496 21.1552C26.9075 20.8105 26.4923 20.8713 26.2803 20.6356C26.2221 20.5709 26.1319 20.5805 26.0563 20.6213C26.0377 20.6312 26.0366 20.6693 26.0217 20.6906C25.9014 20.8655 25.7657 21.0313 25.6609 21.215C25.1808 22.0564 24.7378 22.9206 24.2211 23.7383C24.0103 24.0721 24.0603 24.2214 24.3632 24.3859C24.4449 24.4302 24.5073 24.5086 24.585 24.5621C24.7464 24.6732 24.8596 24.6797 24.9658 24.4636C25.1432 24.1029 25.3473 23.7527 25.5674 23.4162C25.9777 22.79 26.4095 22.1775 26.8277 21.5559Z" fill="#2A58C0"/>
<path d="M28.0022 21.7554C27.9676 21.7345 27.9282 21.7222 27.8911 21.7055C27.7939 21.6619 27.6888 21.654 27.6508 21.7676C27.5594 22.0411 27.315 22.1997 27.1784 22.4414C26.6869 23.3104 26.1822 24.172 25.5674 24.9626C25.5284 25.0125 25.4208 25.0763 25.4781 25.1204C25.7147 25.3026 25.89 25.5717 26.2497 25.6522C26.2994 25.612 26.4121 25.564 26.4548 25.4801C26.9569 24.4923 27.6981 23.6576 28.2257 22.6849C28.5495 22.0884 28.5762 22.1023 28.0022 21.7554Z" fill="#2A58C0"/>
<path d="M14.1327 14.6853C14.0144 14.6726 13.9042 14.7034 13.8521 14.8108C13.4334 15.6749 13.006 16.5382 12.7084 17.4515C12.5904 17.8142 13.0007 17.8411 13.2159 17.964C13.4235 18.0823 13.4891 17.8861 13.5206 17.7555C13.7377 16.8554 14.1772 16.037 14.456 15.1598C14.5527 14.8563 14.443 14.6842 14.1327 14.6853Z" fill="white"/>
<path d="M33.793 34.0331C33.5961 33.867 33.3716 33.7227 33.2107 33.5265C32.4472 32.5958 31.5315 31.8277 30.6112 30.9941C30.1233 32.5348 29.7123 34.0356 29.3906 35.663C30.0173 35.3131 30.663 35.1669 31.2759 35.0378C32.1065 34.8629 32.8783 34.5108 33.7102 34.3645C33.9173 34.3283 33.9936 34.2024 33.793 34.0331Z" fill="#002D40"/>
<path d="M9.02131 8.43115C7.95075 9.05317 7.24176 9.98482 6.78046 11.1217C6.40892 12.0374 6.04363 12.9562 5.63985 13.8577C5.26923 14.6852 5.07767 15.5605 4.84458 16.4279C4.61845 17.2696 4.86754 17.977 5.34067 18.6558C5.61017 19.0424 6.07657 19.1201 6.44255 19.4047C6.37877 19.458 6.32844 19.4988 6.2795 19.5413C5.8799 19.8908 5.69598 20.3127 6.08167 20.9101C6.39083 21.3888 6.86464 21.6469 7.25149 22.0171C7.42637 22.1845 7.63115 22.3768 7.52725 22.6324C7.08288 23.7255 7.05135 24.9117 6.73338 26.0357C6.52697 26.7653 6.48498 27.5441 6.39871 28.3041C6.35232 28.7121 6.40034 29.1738 6.70346 29.4359C7.1244 29.7996 7.62281 30.1041 8.13559 30.3223C8.70172 30.5633 9.28803 30.7623 9.85625 31.0067C10.3377 31.2138 10.8352 31.4629 11.3436 31.5128C12.4072 31.6169 12.9466 32.3721 13.4077 33.1333C13.6851 33.5911 13.914 34.1215 14.1251 34.6412C14.5421 35.6673 14.9034 36.7112 15.2615 37.7553C15.5414 38.5712 15.7717 39.4101 15.8469 40.2798C15.8712 40.5627 16.0134 40.8278 16.3065 40.7921C16.6217 40.7539 16.7409 40.4275 16.67 40.1553C16.377 39.0332 16.2186 37.8771 15.7717 36.7923C15.4588 36.0328 15.2251 35.2408 14.9449 34.4673C14.6784 33.7314 14.3952 32.9976 13.9608 32.3438C13.5367 31.7053 12.9334 31.2535 12.2599 30.8933C11.774 30.6336 11.2425 30.4842 10.745 30.2586C10.016 29.9276 9.23097 29.7773 8.48603 29.4967C8.05836 29.3355 7.66873 29.1506 7.3169 28.8714C7.18377 28.7659 7.15966 28.6455 7.18517 28.4595C7.28977 27.6993 7.3823 26.9427 7.56274 26.1906C7.84754 25.0038 7.71256 25.1824 8.70845 25.5498C9.4789 25.8339 10.2695 25.9601 11.0868 25.8708C11.2875 25.849 11.5106 25.7998 11.4918 25.5099C11.4721 25.2081 11.2121 25.2216 11.0344 25.2228C10.1204 25.2283 9.27504 25.0365 8.46678 24.5815C8.10846 24.3799 7.95493 24.2433 8.13281 23.8319C8.26501 23.526 8.32902 23.1832 8.37656 22.8502C8.42341 22.5227 8.45867 22.1857 8.29191 21.8661C8.06347 21.4278 7.75013 21.0908 7.29579 20.8728C7.14875 20.8023 7.00264 20.6882 6.90825 20.523C6.81594 20.3611 6.81779 20.2732 6.98246 20.1568C7.42149 19.8465 7.93196 19.8031 8.42735 19.8061C9.25718 19.8113 10.0854 19.9274 10.918 19.8994C11.6718 19.8739 12.4401 19.9008 13.0946 19.4249C13.3024 19.2739 13.5176 19.3214 13.7074 19.4135C14.8412 19.9636 16.0658 20.3006 17.1343 21.02C17.8273 21.4867 18.6427 21.7847 19.3185 22.2912C20.0934 22.872 20.9364 23.3354 21.7651 23.824C22.4827 24.2471 23.2589 24.5831 23.9329 25.0646C24.9928 25.8221 26.0594 26.5756 27.0303 27.4562C27.3204 27.7194 27.2532 27.8512 27.0444 28.0664C26.4815 28.6471 25.9602 29.2648 25.3708 29.8246C24.7579 30.4072 24.2344 31.0833 23.6586 31.7065C23.3719 32.0165 23.1884 32.3146 23.4811 32.7251C23.5644 32.8417 23.5827 33.005 23.6291 33.1472C23.8158 33.7193 23.9294 34.33 24.2066 34.8544C24.5614 35.5258 24.7996 36.2348 25.0682 36.9345C25.3388 37.6393 25.5631 38.3632 25.9045 39.0383C26.0286 39.2839 26.2234 39.4444 26.5432 39.2834C26.8913 39.1081 26.7656 38.8794 26.6365 38.6545C26.5966 38.5849 26.568 38.5151 26.534 38.4453C26.1652 37.6897 25.9632 36.8689 25.5949 36.1093C25.3973 35.7016 25.1459 35.3101 25.006 34.8838C24.7829 34.2043 24.6169 33.5071 24.359 32.8357C24.2875 32.6499 24.2217 32.4078 24.3655 32.1742C24.7987 31.4708 25.3732 30.8755 25.9446 30.3042C26.6297 29.6194 27.3584 28.9783 27.9988 28.2011C28.0347 28.2563 28.0549 28.3048 28.0895 28.3377C28.6245 28.8482 29.1561 28.9338 29.5615 28.517C30.3556 27.7011 31.1446 26.8629 31.6813 25.8557C32.0278 25.2054 32.4643 24.462 31.6801 23.7691C31.6099 23.7069 31.5709 23.5949 31.493 23.5594C31.3529 23.4956 31.3452 23.4404 31.422 23.3149C31.6347 22.9682 31.8288 22.6101 32.0387 22.2615C32.4248 21.6203 32.6607 20.9319 32.8205 20.1976C33.1007 18.91 32.9951 17.6214 32.8634 16.3428C32.7616 15.3548 32.4327 14.4088 31.9448 13.5226C31.4385 12.6032 30.8322 11.7713 30.0543 11.0654C29.8057 10.8397 29.4655 10.7374 29.253 10.4658C28.5951 9.62417 27.6187 9.23802 26.7179 8.77765C25.7 8.25744 24.5967 7.93877 23.4739 7.66696C22.6552 7.46866 21.8398 7.49626 21.0246 7.41462C20.3745 7.34945 19.7397 7.49533 19.0929 7.59924C18.0664 7.76437 17.0923 8.02691 16.176 8.49099C15.3146 8.92701 14.3816 9.23083 13.6362 9.89715C13.4996 10.0191 13.2393 10.4141 12.9422 10.0871C12.3425 9.42657 11.623 8.95229 10.8155 8.59373C10.2338 8.3356 9.64612 8.06819 9.02131 8.43115ZM6.00188 17.7536C5.9882 17.8232 5.95016 17.8805 5.86783 17.8826C5.79663 17.8844 5.78945 17.8237 5.76672 17.7759C5.48562 17.1821 5.50835 16.6051 5.78434 16.0044C5.97684 15.5851 6.06729 15.124 6.241 14.6894C6.71297 13.5092 7.1847 12.3312 7.70004 11.1679C8.01036 10.4675 8.42179 9.89181 8.97725 9.39178C9.10852 9.2735 9.23561 9.16264 9.4738 9.14803C9.22054 9.77376 9.00809 10.3865 8.72839 10.967C8.37007 11.711 8.18453 12.5269 7.80789 13.2508C7.40782 14.0194 7.16453 14.8478 6.81617 15.6334C6.51375 16.3143 6.14962 17.0008 6.00188 17.7536ZM13.5209 17.7562C13.4893 17.8867 13.4237 18.0829 13.2161 17.9647C13.0009 17.8417 12.5906 17.8148 12.7087 17.4521C13.006 16.539 13.4334 15.6756 13.8523 14.8114C13.9043 14.704 14.0147 14.6732 14.1329 14.6859C14.4433 14.6848 14.553 14.8569 14.4562 15.1605C14.1775 16.0374 13.7377 16.8561 13.5209 17.7562ZM23.8891 22.7699C23.7063 22.984 23.6994 23.2683 23.5349 23.4898C23.4081 23.6605 23.3452 23.7222 23.1256 23.5879C22.1582 22.9967 21.1802 22.4218 20.1906 21.8689C19.7066 21.5985 19.1569 21.4384 18.6935 21.1404C17.914 20.6392 17.0647 20.2535 16.3265 19.6853C15.7488 19.2405 15.0428 19.0593 14.3823 18.7889C13.9309 18.6041 13.8662 18.5514 14.1248 18.1391C14.6636 17.28 14.8484 16.2827 15.2608 15.3757C15.3911 15.089 15.454 14.9559 15.8401 15.1101C17.1904 15.6489 18.4456 16.3808 19.7606 16.9899C20.6672 17.4097 21.5773 17.8649 22.4254 18.4051C23.184 18.8882 24.0057 19.244 24.776 19.6976C24.9995 19.8293 25.1823 20.0309 25.3667 20.1863C25.3208 20.309 25.3052 20.4252 25.2428 20.5045C24.6934 21.2019 24.4673 22.0929 23.8891 22.7699ZM24.5851 24.5627C24.5074 24.5091 24.445 24.431 24.3634 24.3864C24.0605 24.222 24.0101 24.0726 24.2212 23.7389C24.7379 22.9211 25.1809 22.0567 25.661 21.2156C25.7658 21.0319 25.9015 20.866 26.0219 20.6912C26.0367 20.6698 26.0379 20.6316 26.0564 20.6218C26.132 20.581 26.222 20.5715 26.2805 20.6362C26.4927 20.8718 26.9076 20.8111 27.0498 21.1557C26.9735 21.2951 26.9111 21.4329 26.8278 21.5565C26.4096 22.178 25.9778 22.7903 25.5678 23.417C25.3474 23.7535 25.1436 24.1037 24.9661 24.4644C24.8597 24.6803 24.7465 24.6738 24.5851 24.5627ZM26.2503 25.653C25.8906 25.5725 25.7153 25.3035 25.4787 25.1212C25.4214 25.0771 25.529 25.0133 25.568 24.9635C26.1828 24.1728 26.6875 23.3112 27.1789 22.4422C27.3155 22.2008 27.56 22.0419 27.6514 21.7685C27.6894 21.6546 27.7942 21.6627 27.8916 21.7063C27.9287 21.7228 27.9682 21.7353 28.0027 21.7562C28.5767 22.1034 28.5501 22.0892 28.2263 22.686C27.6987 23.6587 26.9574 24.4934 26.4553 25.4811C26.4124 25.5648 26.2997 25.6131 26.2503 25.653ZM31.0748 25.3443C30.5616 26.0373 30.0472 26.7298 29.5481 27.4332C29.1832 27.9476 28.8513 27.9859 28.3601 27.5193C27.9533 27.1329 27.54 26.756 27.0929 26.416C27.0368 26.3733 26.9002 26.3158 26.9999 26.1931C27.871 25.1228 28.4244 23.8352 29.3398 22.7892C30.0576 23.1644 30.4734 23.875 31.1344 24.3083C31.3921 24.4774 31.3315 24.9976 31.0748 25.3443ZM13.9845 10.6611C14.1705 10.4881 14.3359 10.2824 14.5469 10.1493C15.431 9.5924 16.3272 9.05271 17.3634 8.81592C17.7535 8.72686 18.0903 8.44275 18.5179 8.4947C18.7308 8.54062 18.9222 8.44738 19.1209 8.40981C20.5308 8.14287 21.9173 8.23355 23.3281 8.50235C24.56 8.73706 25.6591 9.28092 26.7594 9.79139C27.7434 10.2478 28.6289 10.9334 29.481 11.6306C30.1302 12.1619 30.5349 12.87 30.999 13.5514C31.4106 14.1558 31.6358 14.8172 31.8527 15.4745C32.0605 16.1042 32.0665 16.799 32.1732 17.4632C32.326 18.4169 32.2518 19.3365 31.9858 20.277C31.7692 21.0425 31.3707 21.7017 31.031 22.3954C30.797 22.8729 30.5917 22.8754 30.2095 22.5069C29.4993 21.822 28.698 21.2536 27.8858 20.7011C27.0644 20.1427 26.2492 19.5717 25.3991 19.0591C24.7224 18.6509 24.0146 18.2833 23.2896 17.9688C22.3245 17.5502 21.4754 16.9242 20.5164 16.4989C19.3018 15.9601 18.1598 15.2729 16.9351 14.7495C16.5726 14.5946 16.2012 14.4754 15.8364 14.3346C15.6713 14.2708 15.6147 14.2054 15.6263 14.0106C15.6813 13.0861 15.3911 12.3013 14.6794 11.6688C14.4398 11.4559 14.2535 11.1804 13.9882 10.9835C13.8716 10.8979 13.8678 10.7697 13.9845 10.6611ZM12.0463 10.2334C12.3571 10.4412 12.6178 10.7279 12.8849 10.9953C13.4991 11.6101 14.2176 12.1324 14.6102 12.9456C14.761 13.2577 14.8352 13.5764 14.7953 13.9231C14.7631 14.2052 14.6283 14.2258 14.4073 14.1038C13.9054 13.8269 13.5786 13.919 13.2618 14.3914C12.6108 15.3629 12.2724 16.472 11.8675 17.5504C11.6609 18.101 12.0363 18.4422 12.8277 18.6338C12.1344 19.0522 11.4199 19.1412 10.7111 19.1178C10.2058 19.1011 9.69459 19.0865 9.19294 19.0904C8.3536 19.0969 7.60309 18.7481 6.79994 18.6273C6.55642 18.5906 6.55503 18.2613 6.72317 17.9426C7.06526 17.2946 7.43124 16.6622 7.62188 15.936C7.74573 15.464 7.99574 15.0213 8.1785 14.5605C8.40231 13.9962 8.56814 13.4122 8.80261 12.8533C9.20894 11.8847 9.61573 10.9162 10.0235 9.94817C10.0443 9.89854 10.0865 9.85656 10.1025 9.806C10.2923 9.20323 10.3646 9.1696 10.8772 9.54996C11.2448 9.82293 11.6731 9.98389 12.0463 10.2334Z" fill="#002D40"/>
<path d="M34.5039 33.6336C33.8396 32.8866 33.0119 32.3126 32.3449 31.5642C31.911 31.0776 31.4137 30.6467 30.9849 30.1504C30.8107 29.9488 30.567 29.7403 30.3146 29.7681C30.0959 29.7923 29.9584 30.0455 29.8582 30.2867C29.6332 30.8276 29.6258 31.412 29.466 31.9656C29.2431 32.7375 29.1872 33.5487 28.9342 34.3157C28.7394 34.9062 28.6605 35.5222 28.552 36.147C28.5474 36.3896 28.6851 36.5443 28.9284 36.4928C29.5344 36.3643 30.1386 36.2196 30.7326 36.0436C31.5172 35.8112 32.2774 35.4758 33.0745 35.3116C33.7014 35.1824 34.2882 34.9637 34.8877 34.7694C35.2245 34.6604 35.2794 34.3368 34.9981 34.1119C34.8161 33.9667 34.6565 33.805 34.5039 33.6336ZM33.7102 34.3654C32.8783 34.5117 32.1065 34.8638 31.2759 35.0386C30.663 35.1678 30.0173 35.3139 29.3906 35.6639C29.7123 34.0365 30.1233 32.5355 30.6113 30.995C31.5318 31.8286 32.4472 32.5965 33.2107 33.5274C33.3716 33.7236 33.5961 33.8679 33.793 34.0339C33.9936 34.203 33.9173 34.3289 33.7102 34.3654Z" fill="#002D40"/>
<path d="M28.596 4.32738C29.0086 4.44311 29.3013 4.73069 29.6304 4.97097C29.8022 5.09644 29.9931 5.1957 30.1594 5.29706C30.4407 5.27618 30.4275 5.02501 30.5182 4.884C30.5599 4.81929 30.713 4.67549 30.5006 4.51408C30.0629 4.18149 29.6146 3.8735 29.1452 3.588C28.6765 3.30296 28.6855 3.28511 28.5123 3.81297C28.4503 4.00106 28.2425 4.22811 28.596 4.32738Z" fill="#002D40"/>
<path d="M25.9905 2.90141C26.4196 3.04219 26.7197 3.42371 27.1726 3.50627C27.3071 3.53085 27.4198 3.78041 27.5527 3.61458C27.7088 3.42 27.7928 3.1672 27.9162 2.92344C27.8791 2.88819 27.848 2.83392 27.8044 2.82093C27.2691 2.66137 26.8588 2.26246 26.3298 2.07761C25.8481 1.90924 25.9914 2.3376 25.8532 2.49346C25.6674 2.70288 25.8342 2.85039 25.9905 2.90141Z" fill="#002D40"/>
<path d="M34.6593 10.4395C34.9884 10.8359 35.1756 11.3111 35.3769 11.7743C35.4694 11.9869 35.6424 12.022 35.7396 11.9078C35.8911 11.7295 36.3503 11.7504 36.2169 11.441C35.9899 10.914 35.802 10.3526 35.4084 9.90819C35.3746 9.86992 35.3437 9.82933 35.3133 9.79199C35.0707 9.98287 34.8435 10.1603 34.6201 10.3428C34.6115 10.3495 34.637 10.4129 34.6593 10.4395Z" fill="#002D40"/>
<path d="M31.7638 6.87466C32.2469 7.3668 32.2427 7.35266 32.7789 6.93542C32.9587 6.79557 32.9371 6.73411 32.7849 6.60331C32.4173 6.28719 32.0259 5.99752 31.7151 5.61693C31.6061 5.48334 31.447 5.3908 31.2637 5.24121C31.1629 5.41817 31.0831 5.60116 30.9465 5.74078C30.8577 5.83169 30.8688 5.92098 30.9671 6.02141C31.2392 6.29925 31.4913 6.59704 31.7638 6.87466Z" fill="#002D40"/>
<path d="M33.8904 9.2591C33.9596 9.33865 33.989 9.45299 34.098 9.49311C34.2993 9.48128 34.3371 9.25423 34.5192 9.19764C34.7344 9.13061 34.8072 8.98682 34.6407 8.76208C34.4577 8.51485 34.2685 8.26878 34.0834 8.02525C33.6353 7.43524 33.6142 7.45982 33.1116 7.8469C32.9764 7.95104 32.9699 7.99 33.0625 8.15537C33.2914 8.56379 33.5878 8.91075 33.8904 9.2591Z" fill="#002D40"/>
<path d="M4.96544 8.21406C5.13289 8.25418 5.23239 8.03037 5.32586 7.878C5.36296 7.81747 5.46872 7.80332 5.52763 7.75067C5.76953 7.53521 6.0272 7.33321 6.18444 7.06672C6.19024 6.9278 5.72569 6.38881 5.61205 6.38208C5.57587 6.38 5.52067 6.39113 5.50374 6.41618C5.20595 6.85451 4.68412 7.08412 4.43503 7.57C4.37914 7.67924 4.33229 7.76343 4.44895 7.85133C4.61895 7.97935 4.77526 8.1686 4.96544 8.21406Z" fill="#002D40"/>
<path d="M3.26039 28.8214C3.01988 28.451 2.88374 28.0352 2.70748 27.6374C2.66434 27.54 2.63952 27.4637 2.50106 27.4651C2.30903 27.4549 1.80807 27.7543 1.85167 27.8751C2.03397 28.3793 2.15735 28.9116 2.55858 29.3133C2.75873 29.5137 2.91458 29.3683 3.06209 29.2723C3.21284 29.1739 3.40256 29.0401 3.26039 28.8214Z" fill="#002D40"/>
<path d="M35.9218 12.8765C36.0352 13.1036 36.0313 13.3554 36.1415 13.5688C36.2669 13.8121 36.3008 14.1055 36.4441 14.3145C36.6689 14.6422 36.9425 14.1779 37.2118 14.2678C37.2174 14.2697 37.229 14.2537 37.2336 14.2495C37.0794 13.733 36.8836 13.2265 36.7848 12.7019C36.6925 12.213 36.4803 12.3313 36.2185 12.5145C36.086 12.6075 35.8121 12.6571 35.9218 12.8765Z" fill="#002D40"/>
<path d="M34.4852 29.6454C34.4423 29.6693 34.4091 29.717 34.3815 29.7604C34.148 30.1266 33.9168 30.4944 33.6844 30.8616C33.6408 30.9305 33.5805 31.0019 33.6644 31.0761C33.8432 31.234 34.007 31.456 34.2159 31.5163C34.35 31.555 34.481 31.2797 34.6088 31.1408C34.6366 31.1107 34.6719 31.0847 34.6904 31.0497C34.8604 30.7287 35.1144 30.4539 35.2183 30.1273C35.2107 30.0139 34.5571 29.605 34.4852 29.6454Z" fill="#002D40"/>
<path d="M37.6876 17.437C37.5366 17.5152 37.2045 17.3482 37.2455 17.6968C37.2996 18.1553 37.1892 18.6064 37.23 19.0682C37.2522 19.3191 37.3705 19.3432 37.5155 19.3476C37.997 19.3622 38.1312 19.1987 38.086 18.7163C38.0735 18.5818 38.0842 18.445 38.0844 18.3093C38.0454 18.0702 38.0832 17.829 38.0227 17.585C37.9624 17.3415 37.7968 17.3804 37.6876 17.437Z" fill="#002D40"/>
<path d="M10.6642 3.05675C10.8609 3.19497 10.7945 3.70707 11.2551 3.48326C11.6369 3.29795 12.0339 3.14441 12.4231 2.97395C12.5143 2.93406 12.5808 2.86843 12.5827 2.75849C12.5966 2.54466 12.1515 2.07338 11.9994 2.14992C11.6049 2.34845 11.215 2.55625 10.8279 2.7687C10.7159 2.83016 10.5153 2.95238 10.6642 3.05675Z" fill="#002D40"/>
<path d="M7.37328 5.9475C7.42175 5.90181 7.49295 5.88001 7.53957 5.83317C7.71374 5.65806 7.88189 5.47716 8.06604 5.2842C7.93802 5.10678 7.8253 4.89874 7.66295 4.74196C7.5289 4.61254 7.47834 4.83658 7.37745 4.87717C6.94166 5.05158 6.68701 5.4491 6.33309 5.72416C6.24218 5.7949 6.19371 5.83989 6.28995 5.94542C6.79114 6.49647 6.78906 6.49717 7.37328 5.9475Z" fill="#002D40"/>
<path d="M8.9992 4.70195C9.34152 4.4793 9.64697 4.2003 10.0231 4.02844C10.1015 3.99272 10.1586 3.93938 10.17 3.8378C10.0721 3.65782 10.0025 3.43981 9.85964 3.29277C9.7068 3.13553 9.57622 3.35029 9.43777 3.41175C9.13418 3.54626 8.90596 3.81228 8.56619 3.89067C8.40361 3.92825 8.2139 3.9962 8.32546 4.24853C8.4834 4.6057 8.80299 4.82974 8.9992 4.70195Z" fill="#002D40"/>
<path d="M0.0569088 19.4683C0.203485 19.6156 0.865633 19.3758 0.89903 19.161C0.957012 18.789 0.992958 18.4137 1.04375 18.0406C1.08596 17.7307 0.829451 17.7421 0.67383 17.753C0.48829 17.766 0.142723 17.602 0.15316 17.98C0.163132 18.3448 0.0355723 18.6848 0.0429939 19.0538C0.0870596 19.1842 -0.0692583 19.3414 0.0569088 19.4683Z" fill="#002D40"/>
<path d="M15.957 1.94442C16.2601 1.81686 16.5783 1.83264 16.8974 1.85467C17.4135 1.8491 17.4464 1.81779 17.4079 1.35881C17.4012 1.27764 17.4005 1.196 17.397 1.11459C17.3896 0.944824 17.3842 0.916066 17.1537 0.94181C16.8631 0.974048 16.585 1.08421 16.2912 1.08027C15.655 1.07169 15.5919 1.1459 15.6782 1.74056C15.7049 1.92285 15.7552 2.02931 15.957 1.94442Z" fill="#002D40"/>
<path d="M6.1924 32.7968C6.02031 32.6584 5.86724 32.4807 5.73504 32.2866C5.61885 32.1161 5.42171 32.0006 5.24846 31.8506C5.07127 31.9932 4.86904 32.1129 4.72779 32.2834C4.61229 32.423 4.80479 32.5206 4.88156 32.6159C5.0729 32.8537 5.27421 33.0854 5.48827 33.3029C5.6977 33.5158 5.88719 33.6777 6.18173 33.3391C6.38096 33.1099 6.46259 33.0146 6.1924 32.7968Z" fill="#002D40"/>
<path d="M18.636 1.7079C18.9286 1.67427 19.2223 1.6483 19.5175 1.61885C19.7606 1.70698 19.9804 1.70953 19.9396 1.36837C19.9136 1.15128 20.1956 0.787162 19.6124 0.795048C19.1684 0.800846 18.7401 0.888511 18.3024 0.902659C18.2561 0.90405 18.183 0.857897 18.1649 0.934664C18.1167 1.13899 18.157 1.3461 18.2261 1.5321C18.2883 1.69909 18.4618 1.72785 18.636 1.7079Z" fill="#002D40"/>
<path d="M1.80699 12.0971C2.2567 12.3218 2.54265 12.2541 2.73283 11.8093C2.8256 11.5922 2.91605 11.3737 2.99769 11.1522C3.04291 11.0295 3.27137 10.9075 3.00651 10.7691C2.85437 10.6895 2.71266 10.5903 2.56005 10.4961C2.49488 10.5402 2.40883 10.5712 2.36431 10.6325C2.09574 11.0033 1.90556 11.418 1.73927 11.8413C1.72396 11.8802 1.63398 12.0106 1.80699 12.0971Z" fill="#002D40"/>
<path d="M2.08522 26.3413C1.90919 25.9514 1.64039 25.5912 1.6281 25.1344C1.62485 25.0107 1.52976 24.9465 1.39872 24.9597C1.02718 24.9838 0.86089 25.2123 0.989144 25.5794C1.11183 25.9315 1.21295 26.2854 1.28253 26.6511C1.31569 26.8251 1.37159 27.108 1.62114 26.906C1.79694 26.7636 2.32549 26.8731 2.08522 26.3413Z" fill="#002D40"/>
<path d="M4.32973 31.5378C4.44987 31.3924 4.80262 31.3646 4.6317 31.0649C4.39258 30.6465 4.11357 30.2513 3.85776 29.8425C3.82436 29.7891 3.80233 29.7543 3.74064 29.7761C3.3401 29.7958 3.10378 30.1632 3.30926 30.4805C3.53145 30.8237 3.81092 31.1285 4.00736 31.4917C4.08714 31.6397 4.20913 31.6839 4.32973 31.5378Z" fill="#002D40"/>
<path d="M35.8313 29.176C36.1361 28.7287 36.3713 28.2379 36.5459 27.7209C36.5652 27.6548 36.5016 27.6453 36.4615 27.6191C36.0672 27.3591 35.8151 27.444 35.6145 27.8837C35.5206 28.0895 35.4359 28.3242 35.2773 28.4703C34.9278 28.7924 35.1722 28.9379 35.422 29.0761C35.5438 29.1431 35.7003 29.3685 35.8313 29.176Z" fill="#002D40"/>
<path d="M37.4371 22.6123C37.2022 22.546 37.1069 22.7343 37.1477 22.8814C37.2653 23.3049 36.9598 23.6393 36.9501 24.0361C36.9464 24.1855 36.8367 24.3666 37.0533 24.3566C37.2695 24.3467 37.5492 24.6762 37.7138 24.2759C37.8827 23.8657 37.7874 23.4115 37.9209 23.0143C38.0531 22.4992 37.6491 22.6724 37.4371 22.6123Z" fill="#002D40"/>
<path d="M21.0502 1.81124C21.4308 1.68437 21.7896 1.83744 22.1567 1.84347C22.3789 1.84695 22.5099 1.85553 22.5635 1.60274C22.6187 1.34066 22.5371 1.14538 22.2831 1.12729C21.9471 1.1034 21.5971 1.03684 21.3055 0.943142C20.6988 0.748093 20.803 1.09482 20.8115 1.4325C20.7972 1.75302 20.8591 1.87502 21.0502 1.81124Z" fill="#002D40"/>
<path d="M23.3615 1.98781C23.8351 2.12813 24.3043 2.28398 24.7711 2.4454C24.9643 2.5122 25.0494 2.46744 25.0629 2.25963C25.0696 2.15411 25.0903 2.03675 25.1445 1.94955C25.2519 1.77676 25.1466 1.78859 25.0249 1.72806C24.7561 1.5947 24.4223 1.70811 24.1876 1.49474C23.9865 1.31222 23.724 1.37298 23.4969 1.29297C23.1676 1.29227 23.3184 1.6012 23.2131 1.74754C23.1145 1.88484 23.2149 1.94444 23.3615 1.98781Z" fill="#002D40"/>
<path d="M38.0887 20.6234C38.1689 20.0909 37.8361 20.1159 37.4949 20.1361C37.3514 20.1447 37.2273 20.1322 37.2605 20.3857C37.3085 20.7514 37.256 21.1304 37.2482 21.5036C37.2458 21.6084 37.2192 21.7146 37.363 21.7717C37.5566 21.8487 37.7737 21.9206 37.9516 21.8507C38.136 21.7786 38.0926 21.5267 38.1443 21.3946C38.1202 21.1084 38.0532 20.8581 38.0887 20.6234Z" fill="#002D40"/>
<path d="M0.601724 21.997C0.790743 21.9988 0.89372 21.9007 0.835043 21.7166C0.722328 21.3629 0.848259 21.0092 0.817413 20.6569C0.811846 20.5762 0.78889 20.4922 0.803965 20.4157C0.84316 20.2174 0.741113 20.1502 0.582013 20.2007C0.389515 20.2619 0.0578604 20.0449 0.015882 20.3902C-0.0441865 20.8849 0.0796625 21.3777 0.161996 21.8669C0.216962 22.1957 0.44332 21.9954 0.601724 21.997Z" fill="#002D40"/>
<path d="M1.21324 14.6429C1.33268 14.645 1.49782 14.8491 1.58386 14.5954C1.7258 14.1772 1.88513 13.7635 2.00133 13.3381C2.09827 12.983 1.92479 12.7852 1.55811 12.7613C1.43009 12.7339 1.37722 12.814 1.34197 12.906C1.15248 13.3975 1.06388 13.9161 0.94653 14.4261C0.89945 14.6306 1.09844 14.6408 1.21324 14.6429Z" fill="#002D40"/>
<path d="M13.6818 2.46714C14.006 2.29922 14.3491 2.27348 14.7009 2.23892C14.9259 2.21689 15.0353 2.04271 14.9115 1.82238C14.8247 1.66815 14.985 1.28826 14.542 1.42765C14.0819 1.57237 13.605 1.66328 13.1289 1.77924C13.1567 1.97244 13.2444 2.13943 13.3209 2.31244C13.3982 2.48731 13.5415 2.53973 13.6818 2.46714Z" fill="#002D40"/>
<path d="M8.45715 35.5299C8.32657 35.6167 8.47037 35.6756 8.52673 35.7431C8.81408 36.087 9.26749 36.1578 9.61515 36.4092C9.84962 36.579 10.1664 36.3306 10.1892 35.9892C10.1973 35.949 10.1957 35.9024 10.1449 35.8611C9.7717 35.5592 9.36513 35.2957 8.92517 35.1225C8.66565 35.0199 8.63828 35.4098 8.45715 35.5299Z" fill="#002D40"/>
<path d="M0.831075 16.9807C0.946805 16.9533 1.14812 17.0711 1.17015 16.8264C1.20795 16.4106 1.33389 16.0156 1.43756 15.6151C1.4844 15.434 1.36172 15.3628 1.22906 15.343C1.12771 15.328 1.02519 15.3737 0.919668 15.3025C0.735983 15.1781 0.65017 15.2818 0.614686 15.4623C0.546964 15.8071 0.492694 16.1555 0.407809 16.4962C0.315503 16.867 0.436339 17.0282 0.831075 16.9807Z" fill="#002D40"/>
<path d="M3.56282 10.2362C3.62613 10.1629 3.6695 10.0947 3.72888 10.0467C4.02064 9.81103 3.98005 9.36597 4.30312 9.14865C4.45689 9.04522 4.55731 8.85759 4.36111 8.76459C4.16142 8.67019 3.96428 8.26595 3.68412 8.62937C3.46611 8.91209 3.28103 9.22217 3.10338 9.53249C3.05885 9.61042 2.90624 9.70342 3.00875 9.80384C3.1697 9.96155 3.36429 10.0847 3.56282 10.2362Z" fill="#002D40"/>
<path d="M36.9442 25.1484C36.812 25.0491 36.6337 25.0327 36.5247 25.2736C36.3823 25.5891 36.3363 25.9237 36.248 26.25C36.1622 26.5678 36.3785 26.8589 36.7485 26.8811C36.8199 26.8563 36.9062 26.8094 36.9338 26.6858C37.0198 26.3022 37.1594 25.9369 37.3079 25.5733C37.4447 25.2384 37.0875 25.2562 36.9442 25.1484Z" fill="#002D40"/>
<path d="M36.867 15.42C36.9247 15.7092 37.1121 15.9701 37.0743 16.2751C37.0386 16.5631 37.0678 16.7656 37.4129 16.6904C37.8705 16.7085 37.9306 16.6431 37.8364 16.2111C37.7678 15.8961 37.6759 15.5863 37.6019 15.2722C37.563 15.1066 37.5382 14.9232 37.3014 15.0238C37.1172 15.1025 36.7872 15.0197 36.867 15.42Z" fill="#002D40"/>
<path d="M1.26231 23.9569C1.18322 23.5909 1.12524 23.2189 1.02319 22.8594C0.906533 22.4487 0.619415 22.7991 0.417177 22.7678C0.245785 22.7414 0.261788 22.9186 0.29936 23.0693C0.357573 23.3026 0.510173 23.5091 0.472369 23.7665C0.483966 23.9752 0.642372 24.1506 0.634486 24.3667C0.63379 24.3881 0.76808 24.4504 0.811218 24.431C1.02134 24.3356 1.34371 24.3336 1.26231 23.9569Z" fill="#002D40"/>
<path d="M7.04748 33.705C6.87192 33.5879 6.72047 33.7996 6.58503 33.9304C6.45167 34.0592 6.53957 34.128 6.6168 34.2336C6.86079 34.5673 7.24323 34.7352 7.53267 35.0158C7.68226 35.1608 8.12942 34.8741 8.14055 34.6248C8.12942 34.6095 8.11272 34.5736 8.08535 34.5506C7.74303 34.2637 7.41717 33.9515 7.04748 33.705Z" fill="#002D40"/>
<path d="M10.6984 36.7005C10.6414 36.7874 10.6288 36.9447 10.807 37.0245C11.1674 37.1859 11.5591 37.2285 11.9295 37.3508C12.0406 37.3874 12.1456 37.2837 12.1839 37.1917C12.2349 37.0685 12.2416 36.9252 12.1183 36.818C11.7929 36.5351 11.304 36.6575 11.0382 36.3586C10.7506 36.3507 10.7763 36.5812 10.6984 36.7005Z" fill="#002D40"/>
</svg>
