<svg width="55" height="60" viewBox="0 0 55 60" fill="none" xmlns="http://www.w3.org/2000/svg">
<path d="M7.14231 13.5733C8.57311 13.9284 9.94627 14.4613 11.4011 14.7767C12.5312 15.0217 13.6238 15.4701 14.8176 15.5145C15.2615 15.531 15.5678 15.8824 15.5137 16.3144C15.4665 16.6923 15.549 17.0554 15.4969 17.4277C15.2679 19.0723 15.5478 20.7261 15.4285 22.3751C15.3876 22.9408 15.6327 23.203 16.2616 23.1313C16.8289 23.0665 17.4149 23.0108 17.985 23.1986C18.2412 23.2831 18.2965 23.1478 18.2853 22.902C18.2052 21.1641 18.2348 19.4258 18.2533 17.6864C18.2681 16.2924 18.0635 14.89 18.1528 13.5041C18.2841 11.4707 18.1472 9.44504 18.1652 7.41654C18.1744 6.37686 18.2252 6.23554 19.2829 6.20471C21.1481 6.15027 23.0145 6.08341 24.8804 6.1943C25.7359 6.24515 25.9661 6.55541 25.8476 7.42855C25.6819 8.64877 25.7756 9.90102 25.846 11.0988C25.9125 12.2282 25.8384 13.3587 25.8993 14.4853C25.9337 15.1182 26.1179 15.1887 26.6363 15.1298C27.272 15.0578 27.9218 14.9573 28.5515 15.0173C29.5463 15.1118 29.6576 15.1931 29.6648 16.1263C29.6789 17.9478 29.6688 19.7697 29.6688 21.5916C29.6905 21.5916 29.7121 21.5916 29.7337 21.5916C29.7337 21.8503 29.7617 22.1125 29.7277 22.3663C29.6652 22.8331 29.7309 23.0621 30.313 23.1065C30.8879 23.1506 31.464 23.0393 32.0188 23.1409C32.462 23.2218 32.4716 23.0261 32.5104 22.7102C32.5329 22.5296 32.4372 22.3919 32.4336 22.2386C32.4252 21.8699 32.7218 21.3767 32.4428 21.1701C32.1934 20.9855 31.6958 21.1629 31.3126 21.1269C30.5056 21.0508 30.1921 20.6569 30.3474 20.0047C30.5704 19.0679 31.0244 18.2096 31.3759 17.3301C31.8179 16.2247 32.1854 15.0746 32.7534 14.0137C32.9232 13.697 33.0973 13.4444 33.4588 13.4128C33.8111 13.3819 33.9076 13.6898 34.0517 13.9312C34.4993 14.6834 34.5822 15.5614 34.9013 16.3621C35.4141 17.6483 35.8288 18.9746 36.2564 20.2934C36.3937 20.7173 36.266 21.1349 35.7936 21.2414C35.4413 21.3206 35.061 21.3747 34.6819 21.3002C33.9597 21.1581 33.8151 21.2766 33.856 22.0284C33.8756 22.3903 33.7363 22.9484 34.2387 23.0108C35.2772 23.1402 36.3321 23.1345 37.3797 23.1922C37.6876 23.209 37.7508 23.0981 37.7556 22.7843C37.7873 20.6933 37.8449 18.6027 37.7124 16.5138C37.6708 15.8548 37.9398 15.5626 38.6264 15.5085C39.2529 15.4593 39.9459 15.5113 40.4863 15.2571C41.8527 14.6142 43.3468 14.4769 44.7587 14.0209C46.7292 13.3847 48.6128 12.6417 50.3322 11.4667C52.1189 10.2457 52.2074 8.46822 50.9652 7.28002C50.0892 6.44212 49.0191 5.69308 47.8986 5.25752C46.8513 4.85038 45.8497 4.31472 44.7627 3.99845C43.9837 3.77186 43.2343 3.44439 42.4544 3.2206C41.5148 2.95077 40.5672 2.68936 39.606 2.52082C38.2248 2.27861 36.8329 2.07804 35.4377 1.94193C33.6786 1.77018 31.9336 1.38507 30.1493 1.5428C29.7829 1.57523 29.421 1.57082 29.0495 1.5496C27.9258 1.48475 26.8393 1.12885 25.6671 1.36145C24.665 1.56041 23.6134 1.69532 22.5685 1.52478C22.2774 1.47754 21.9692 1.39106 21.6901 1.44151C19.3954 1.85585 17.0631 1.97275 14.7619 2.34907C13.0861 2.6233 11.4015 2.91234 9.82416 3.48803C7.98302 4.16019 6.06661 4.71706 4.40481 5.81398C3.4468 6.44611 2.33186 6.86366 1.76219 8.02624C1.40789 8.74965 1.40949 10.309 2.07645 10.8278C3.60974 12.0196 5.2283 13.0981 7.14231 13.5733ZM32.2494 4.78552C33.7427 4.77871 34.9933 5.7119 35.0173 6.83164C35.0734 9.43463 34.2491 10.2753 32.6558 10.4126C31.0228 10.5536 29.3646 9.27048 29.3574 7.99141C29.347 6.23033 30.7157 4.68023 32.2494 4.78552Z" fill="white"/>
<path d="M1.36655 31.9735C1.39137 34.3575 1.49706 36.7451 1.5387 39.1323C1.54951 39.756 1.69083 40.4542 2.14121 40.8817C3.17728 41.8642 4.3995 42.6857 5.707 43.1821C8.07059 44.0792 10.5299 44.7242 12.9499 45.472C13.0616 45.5064 13.1793 45.5217 13.2946 45.5449C13.7241 45.6317 13.9007 45.444 13.9003 45.0184C13.8983 43.4795 13.9019 41.941 13.9127 40.4021C13.9347 37.3264 13.9708 34.2506 13.9836 31.1748C13.9872 30.2792 13.8306 29.3725 13.9259 28.4905C14.0977 26.9024 13.8903 25.3239 13.9439 23.7405C13.9828 22.586 13.9455 21.4234 13.9567 20.2708C13.9663 19.2876 13.9283 18.2932 13.9932 17.3055C14.0012 17.1858 14.0168 16.9292 13.7293 16.8924C12.5896 16.7455 11.5415 16.2538 10.4282 15.9912C9.18913 15.6994 7.9601 15.3859 6.7711 14.8703C5.15534 14.1693 3.41307 13.7505 2.07795 12.4963C1.92983 12.357 1.71765 12.2861 1.48265 12.154C1.29289 13.0596 1.46143 13.8935 1.45543 14.7254C1.44622 16.0745 1.58114 17.426 1.5431 18.7732C1.50587 20.0883 1.38897 21.4318 1.52268 22.7121C1.68242 24.2374 1.5403 25.7358 1.48866 27.2307C1.43301 28.81 1.35014 30.4037 1.36655 31.9735ZM11.357 28.5902C11.409 28.9453 11.0183 29.1539 10.9622 29.0466C10.7717 28.6811 9.97339 29.4529 10.1323 28.5406C10.2172 28.0538 10.0799 27.5281 10.0443 27.0201C10.0134 26.5789 10.0639 26.2358 10.6568 26.2547C11.192 26.2715 11.5171 26.4068 11.355 27.0557C11.5303 27.5469 11.2809 28.0682 11.357 28.5902ZM10.0663 30.7108C10.1243 29.9385 10.7597 30.5014 11.0963 30.3109C11.3566 30.1635 11.4194 30.4798 11.4074 30.7548C11.3862 31.2509 11.3806 31.7553 11.4462 32.2457C11.5279 32.8554 11.2457 32.9931 10.704 32.9151C10.0927 33.0564 9.9846 32.7033 10.0194 32.1804C10.0527 31.692 10.0294 31.1992 10.0663 30.7108ZM11.4542 39.6167C11.4542 40.0174 11.4274 40.3221 11.4594 40.6207C11.5383 41.3586 10.9186 41.216 10.5687 41.2649C10.1235 41.3273 10.3077 40.9106 10.268 40.6612C10.1627 39.9998 10.0655 39.3372 10.1824 38.6731C10.2132 38.4977 10.1223 38.065 10.5951 38.2964C10.9022 38.4465 11.5019 38.049 11.4863 38.8072C11.4799 39.1095 11.3718 39.4113 11.4542 39.6167ZM11.5563 35.5633C11.5379 35.7474 11.5291 35.9164 11.5399 36.1033C11.5871 36.9164 11.2773 37.1498 10.4414 37.0413C10.1443 37.0029 10.2084 36.7759 10.1732 36.629C10.0114 35.9504 10.192 35.2578 10.1019 34.5652C10.037 34.068 10.5162 34.2882 10.8209 34.2382C11.4771 34.2189 11.662 34.5128 11.5563 35.5633ZM9.95177 20.2992C10.0378 19.971 10.0414 19.5995 9.9902 19.2616C9.90093 18.6743 10.1551 18.2948 10.6796 18.2099C11.2513 18.1174 11.4266 18.4497 11.3854 19.2964C11.367 19.6611 11.3237 20.0266 11.3365 20.3905C11.3554 20.9386 11.0375 21.1035 10.5851 21.0471C10.1868 20.9974 9.79484 20.8985 9.95177 20.2992ZM11.1792 22.1936C11.3922 22.2541 11.4114 22.3966 11.4234 22.5599C11.4474 22.8838 11.4622 23.2085 11.4727 23.3898C11.4538 23.7437 11.4478 23.9539 11.431 24.1625C11.3654 24.9756 11.0687 25.2302 10.2981 25.0384C9.89813 24.9387 9.98941 24.4695 9.9874 24.2141C9.9846 23.8638 9.93976 23.5248 9.91094 23.1801C9.84328 22.3698 10.3789 21.9666 11.1792 22.1936Z" fill="white"/>
<path d="M51.8011 12.163C51.0681 12.3795 50.7618 13.0641 50.1681 13.3143C48.1937 14.1474 46.2828 15.1335 44.1727 15.6343C42.6538 15.9946 41.1726 16.513 39.6557 16.8861C39.2782 16.979 39.2734 17.1071 39.2445 17.407C39.1136 18.7693 39.3106 20.1281 39.2489 21.4916C39.1885 22.8283 39.2918 24.1719 39.2457 25.5094C39.1937 27.0227 39.359 28.5323 39.2974 30.0396C39.2469 31.2774 39.2453 32.5041 39.3198 33.7419C39.3875 34.8689 39.2165 36.0094 39.267 37.1388C39.3794 39.6689 39.2121 42.2022 39.3971 44.7315C39.4607 45.6047 39.5948 45.8057 40.3671 45.4169C41.6974 44.7472 43.1754 44.6307 44.565 44.1835C46.5351 43.5498 48.4238 42.8255 50.1465 41.6554C51.1105 41.0004 51.6938 40.1729 51.6706 39.0215C51.6434 37.6632 51.6914 36.3029 51.7258 34.9505C51.7647 33.4256 51.8071 31.8996 51.8083 30.3735C51.8083 30.0532 51.8431 29.7377 51.8267 29.4123C51.7398 27.6788 51.7246 25.9414 51.6285 24.2083C51.5789 23.3159 51.8339 22.456 51.7559 21.5545C51.643 20.2494 51.5905 18.9258 51.6742 17.6203C51.7895 15.8152 51.7667 14.0145 51.8011 12.163ZM41.7995 20.3234C41.886 19.9235 41.8415 19.4915 41.8295 19.0748C41.8143 18.5467 42.1133 18.2517 42.5773 18.2169C43.1398 18.1748 43.3091 18.5808 43.2647 19.078C43.2375 19.5308 43.1834 19.9839 43.1898 20.4363C43.1975 20.9648 42.8676 21.0889 42.4648 21.0452C42.0789 21.0036 41.6654 20.9411 41.7995 20.3234ZM41.7975 22.5141C41.8135 22.2655 41.8551 22.2382 42.1165 22.2366C43.3472 22.229 43.3472 22.211 43.3051 23.5898C43.3051 23.7531 43.3087 23.9164 43.3043 24.0798C43.2875 24.6835 43.1842 25.1611 42.37 25.051C42.0677 25.0102 41.9924 25.0334 41.9496 24.6719C41.8643 23.9529 41.7498 23.2439 41.7975 22.5141ZM42.5393 26.2556C43.0533 26.2728 43.3544 26.3989 43.2195 27.0151C43.3636 27.5279 43.1358 28.0719 43.2143 28.618C43.2603 28.9395 42.8824 29.1156 42.8544 29.0528C42.6758 28.6508 41.904 29.4539 41.986 28.5848C42.0357 28.0611 41.9392 27.5231 41.898 26.9922C41.8607 26.5222 41.9688 26.2364 42.5393 26.2556ZM41.906 31.5929C41.916 31.5925 41.926 31.5921 41.9364 31.5917C41.924 31.4752 41.9036 31.3591 41.9008 31.2426C41.8799 30.3571 42.0781 30.1861 42.9677 30.2774C43.1746 30.2986 43.2775 30.3923 43.2815 30.5789C43.2955 31.2394 43.2975 31.9004 43.3031 32.5613C43.3071 33.0261 42.9272 32.9516 42.6974 32.9088C42.4252 32.8584 41.9344 33.1922 41.9088 32.5693C41.8952 32.2446 41.906 31.9184 41.906 31.5929ZM43.348 38.9347C43.3132 39.1637 43.3148 39.3983 43.3103 39.4679C43.3103 39.9103 43.3176 40.1889 43.3087 40.4668C43.2887 41.1113 42.9889 41.3623 42.3696 41.2979C42.1302 41.273 42.1041 41.0933 42.1077 40.952C42.1234 40.3086 41.978 39.6797 41.9844 39.0328C41.9908 38.3646 42.1974 38.1604 42.8564 38.2981C43.2583 38.3822 43.408 38.5387 43.348 38.9347ZM43.3952 36.5515C43.39 36.6928 43.3524 37.1099 42.9933 36.9598C42.6762 36.8269 42.1474 37.4066 42.0133 36.6492C41.9708 36.4098 41.982 36.19 41.9992 36.0398C41.9196 35.5518 42.0785 35.1403 41.944 34.7203C41.8695 34.4885 41.9492 34.1398 42.3327 34.2435C42.6758 34.3364 43.2603 33.8792 43.3376 34.6018C43.4072 35.2472 43.4192 35.9025 43.3952 36.5515Z" fill="white"/>
<path d="M37.868 26.5689C37.868 25.9852 37.8656 25.4011 37.87 24.8174C37.8708 24.7097 37.9464 24.5287 37.7659 24.5644C37.1862 24.6789 36.6157 24.4847 36.054 24.5247C34.9387 24.6044 33.8162 24.59 32.7096 24.5852C30.8589 24.5772 29.0085 24.5776 27.157 24.596C25.5516 24.612 23.9451 24.5275 22.3393 24.4883C20.3072 24.4387 18.2751 24.3982 16.2434 24.335C15.6465 24.3166 15.2161 24.4106 15.3086 25.1581C15.337 25.3895 15.299 25.6281 15.3006 25.8635C15.311 27.3863 15.3406 28.9096 15.3286 30.4321C15.3234 31.0891 15.4739 31.3209 16.0717 31.1291C17.0613 30.812 18.0753 30.7191 19.0938 30.6427C20.4225 30.5426 21.7392 30.334 23.0627 30.2127C24.1288 30.115 25.2121 30.2075 26.2882 30.2059C28.161 30.2027 30.023 30.1299 31.8966 30.4533C33.6512 30.7564 35.4732 30.6038 37.2134 31.1339C37.3832 31.1855 37.9256 31.3765 37.9244 30.7808C37.9208 29.3768 37.9232 27.9728 37.9232 26.5689C37.9044 26.5689 37.8864 26.5689 37.868 26.5689Z" fill="white"/>
<path d="M20.4143 23.2145C20.8082 23.1617 21.4312 23.0288 22.0573 23.0115C22.5029 22.9995 22.4861 22.7717 22.4796 22.4731C22.4652 21.8041 22.4344 21.1344 22.4524 20.4662C22.4901 19.081 22.5941 17.6979 22.5169 16.3095C22.4548 15.197 22.5821 15.0901 23.6867 15.1773C24.2243 15.2198 24.585 15.0941 24.5262 14.4323C24.4753 13.8574 24.577 13.2778 24.5798 12.7041C24.5878 11.1624 24.5914 9.61949 24.5286 8.07619C24.511 7.64102 24.3845 7.48928 24.0602 7.48608C22.5921 7.47127 21.1241 7.48929 19.6561 7.5029C19.4983 7.50451 19.351 7.63822 19.3955 7.77393C19.5176 8.14585 19.359 8.52016 19.4371 8.87766C19.6741 9.96257 19.5468 11.0791 19.5636 12.158C19.5924 14.0016 19.6417 15.8615 19.5071 17.7103C19.4047 19.1179 19.5844 20.5275 19.4231 21.939C19.2814 23.1897 19.3322 23.1957 20.4143 23.2145ZM23.1154 8.89447C23.5109 8.91849 23.7956 9.20754 23.7703 9.54942C23.7439 9.90933 23.7575 10.471 23.1182 10.3785C22.5397 10.4129 22.5149 9.98779 22.4961 9.62989C22.4752 9.22995 22.6046 8.86364 23.1154 8.89447ZM23.1062 12.15C23.5109 12.166 23.7904 12.4651 23.7703 12.7966C23.7487 13.1529 23.7675 13.7181 23.1222 13.6345C22.5489 13.6781 22.5169 13.2545 22.4969 12.8954C22.4744 12.4999 22.5909 12.1296 23.1062 12.15ZM21.6702 22.1192C21.6429 22.5059 21.7394 22.885 21.201 22.8482C20.6109 22.8082 20.5849 22.4122 20.5712 21.9635C20.5588 21.5563 20.8102 21.3926 21.1281 21.4022C21.6153 21.4166 21.7394 21.7577 21.6702 22.1192ZM20.4299 18.8512C20.4167 18.4421 20.6685 18.2768 20.9844 18.2888C21.4564 18.3068 21.6197 18.6247 21.5333 18.9569C21.4996 19.3873 21.6025 19.77 21.0621 19.734C20.4736 19.6944 20.4443 19.302 20.4299 18.8512ZM21.5333 15.8419C21.4996 16.2723 21.6025 16.655 21.0621 16.619C20.4736 16.5797 20.4447 16.187 20.4303 15.7362C20.4171 15.3271 20.6689 15.1617 20.9848 15.1737C21.4564 15.1922 21.6197 15.5096 21.5333 15.8419ZM20.8455 8.80159C21.3319 8.816 21.456 9.1571 21.3871 9.517C21.3591 9.90493 21.4564 10.284 20.9175 10.2472C20.327 10.2068 20.3018 9.81084 20.2882 9.36246C20.2762 8.95612 20.5276 8.79198 20.8455 8.80159ZM20.8271 12.0619C21.2999 12.0639 21.4736 12.3742 21.3883 12.7405C21.3587 13.1396 21.4664 13.532 20.9355 13.5064C20.3635 13.4787 20.3082 13.1024 20.2878 12.638C20.2694 12.2161 20.5172 12.0607 20.8271 12.0619Z" fill="white"/>
<path d="M27.6844 16.5489C26.6731 16.6117 25.6378 16.7554 24.651 16.6077C23.8011 16.4804 23.8848 16.8635 23.9052 17.388C23.968 19.0081 24.0229 20.6283 24.0861 22.3906C24.0641 22.6828 23.9676 22.9967 24.6986 22.9939C25.4509 22.9907 26.2291 22.9711 27.0006 23.1224C27.8805 23.2949 28.2893 22.9607 28.24 22.3269C28.1063 20.6027 28.0479 18.8804 28.232 17.1542C28.2664 16.8315 28.1792 16.518 27.6844 16.5489ZM24.6754 18.2627C24.677 17.868 24.9332 17.6986 25.2539 17.7186C25.6815 17.7451 25.8524 18.0381 25.7804 18.3812C25.7383 18.7635 25.8788 19.1755 25.3552 19.1743C24.7387 19.1723 24.6734 18.7431 24.6754 18.2627ZM25.9201 21.5174C25.8888 21.929 25.9929 22.3145 25.4565 22.2829C24.8732 22.2485 24.8352 21.8613 24.8187 21.4053C24.8039 20.9914 25.0537 20.8293 25.3676 20.8381C25.8376 20.8517 26.0053 21.1663 25.9201 21.5174ZM27.0266 17.8131C27.4574 17.7943 27.74 18.1126 27.7348 18.4172C27.7288 18.7611 27.7672 19.334 27.0822 19.2992C26.5646 19.3748 26.4849 18.9753 26.4613 18.6026C26.4373 18.2207 26.5002 17.8359 27.0266 17.8131ZM27.2288 22.4122C26.6727 22.4662 26.6219 22.0535 26.6022 21.6876C26.581 21.2965 26.6771 20.9221 27.1975 20.9269C27.6139 20.9309 27.8893 21.2416 27.8757 21.5599C27.8605 21.911 27.8865 22.4811 27.2288 22.4122Z" fill="white"/>
<path d="M34.4173 19.3229C34.0994 18.3496 33.7832 17.3756 33.4241 16.2715C32.6514 17.4401 32.5209 18.6827 31.9612 19.8401C32.6955 19.7524 33.354 19.7364 34.0154 19.8321C34.3609 19.8821 34.5398 19.6984 34.4173 19.3229Z" fill="white"/>
<path d="M45.5224 51.4627C45.2302 51.4795 44.9804 51.6457 45.2954 51.9623C46.3339 53.006 47.0401 54.3183 48.0642 55.3708C48.7407 56.0662 49.2332 56.9141 49.9638 57.5714C50.228 57.8092 50.2824 57.7728 50.3841 57.5246C51.3742 55.109 52.3902 52.7026 53.2121 50.098C52.0467 50.5567 50.8805 50.6977 49.7716 50.7937C48.3296 50.9191 46.9588 51.3798 45.5224 51.4627Z" fill="#377DFF"/>
<path d="M32.2643 9.26902C33.0998 9.2506 33.826 8.35465 33.8292 7.33779C33.8312 6.67924 33.1158 6.06633 32.3508 6.07033C31.2771 6.07634 30.7502 6.65922 30.7714 7.81739C30.7846 8.542 31.5481 9.28463 32.2643 9.26902Z" fill="white"/>
<path d="M1.39853 42.0449C2.16357 42.553 2.74246 43.284 3.63521 43.6551C5.42471 44.3989 7.15177 45.2761 9.05977 45.732C10.7772 46.142 12.4642 46.682 14.1621 47.1733C14.8851 47.3826 15.4483 46.9423 15.3278 46.1984C15.2025 45.427 15.1825 44.6611 15.2193 43.8829C15.2298 43.6611 15.3094 43.4593 15.295 43.2191C15.2346 42.2119 15.1865 41.193 15.2734 40.1906C15.3847 38.9071 15.1701 37.634 15.3118 36.3433C15.4367 35.2044 15.2594 34.0338 15.237 32.8768C15.2314 32.5918 15.3995 32.414 15.7162 32.3744C16.5573 32.2691 17.3924 32.0742 18.2355 32.0361C20.0894 31.9525 21.909 31.589 23.8018 31.7175C25.1417 31.8083 26.5329 31.4765 27.9144 31.6186C29.0606 31.7367 30.2404 31.5041 31.3437 31.631C33.3754 31.8648 35.4255 32.0033 37.4448 32.3656C37.8436 32.4373 37.9789 32.603 37.9741 33.023C37.9689 33.499 37.9312 33.9722 37.9244 34.4458C37.9044 35.8157 37.9405 37.1869 37.9176 38.5568C37.9096 39.0412 37.8896 39.5352 37.8944 40.0128C37.916 42.0782 38.1222 44.1419 37.8808 46.2072C37.7987 46.9078 38.3584 47.4279 39.0005 47.1849C39.2868 47.0768 39.5814 47.0223 39.8641 46.9599C40.9146 46.7289 41.897 46.2825 42.9651 46.0855C43.7085 45.9482 44.5068 45.8377 45.1845 45.5071C46.3335 44.9462 47.5521 44.5671 48.7223 44.0682C49.9714 43.5354 50.961 42.7111 51.9943 41.9064C52.7257 41.3367 52.9739 40.5217 52.9947 39.6581C53.044 37.606 53.0359 35.5523 53.0508 33.4994C53.0668 31.2282 53.072 28.9567 53.1028 26.686C53.1188 25.5215 53.3394 24.3357 53.1845 23.1983C52.9599 21.5521 53.1689 19.9163 53.1553 18.2862C53.1416 16.6408 53.0584 14.9806 53.1376 13.3204C53.2041 11.9248 53.291 10.4888 53.1052 9.13407C53.2237 8.20569 52.8102 7.60319 52.2209 6.99668C51.5359 6.29208 51.0511 5.38693 50.0923 4.97338C49.774 4.83607 49.3981 4.78721 49.1291 4.58865C48.0077 3.76155 46.7094 3.30037 45.4448 2.78354C44.5952 2.43645 43.6368 2.39841 42.7713 2.11698C41.7773 1.7939 40.7712 1.53529 39.7696 1.24905C38.9045 1.00204 37.9893 1.17178 37.1602 0.934377C35.287 0.398727 33.3378 0.585282 31.4614 0.198957C30.4994 0.000790271 29.5486 0.110088 28.5922 0.0772603C27.404 0.036426 26.221 -0.0452453 25.0292 0.0320197C24.1421 0.0896681 23.2229 -0.0760754 22.3654 0.0952686C21.0446 0.359491 19.7119 0.41835 18.3848 0.538451C16.9456 0.668561 15.552 1.10052 14.0984 1.11413C13.4114 1.12054 12.7713 1.39436 12.1227 1.58292C10.8088 1.96484 9.46932 2.2647 8.16782 2.67024C6.7098 3.12502 5.36987 3.88285 4.00953 4.59745C2.93702 5.16073 1.97982 5.69959 1.26081 6.69723C0.753587 7.40142 0.0425891 7.92867 0.0714133 8.94912C0.131063 11.0661 0.0990378 13.1855 0.130264 15.3037C0.135068 15.6343 -0.0422825 15.9186 0.027376 16.2689C0.173899 17.0055 0.156688 17.7894 0.0890307 18.5064C-0.072305 20.217 0.253567 21.9164 0.0377852 23.6263C-0.0799138 24.5602 0.11385 25.5303 0.12586 26.4843C0.154284 28.779 0.165493 31.0741 0.170297 33.3693C0.1739 35.2612 0.187512 37.1528 0.164692 39.0452C0.15028 40.1742 0.330432 41.3355 1.39853 42.0449ZM37.213 31.1338C35.4728 30.6037 33.6509 30.7563 31.8962 30.4532C30.0226 30.1297 28.1602 30.203 26.2879 30.2058C25.2122 30.2074 24.1288 30.1149 23.0623 30.2126C21.7384 30.3339 20.4221 30.5425 19.0934 30.6426C18.0749 30.719 17.0609 30.8115 16.0713 31.129C15.4736 31.3207 15.323 31.0889 15.3282 30.432C15.3399 28.9091 15.3106 27.3862 15.3002 25.8633C15.2986 25.6279 15.337 25.3893 15.3082 25.1579C15.2161 24.4105 15.6461 24.316 16.243 24.3349C18.2747 24.3981 20.3068 24.4385 22.3389 24.4882C23.9447 24.5274 25.5512 24.6119 27.1566 24.5959C29.0081 24.5775 30.8585 24.5771 32.7093 24.5851C33.8158 24.5899 34.9387 24.6043 36.0537 24.5246C36.6153 24.4846 37.1858 24.6791 37.7655 24.5642C37.9461 24.5286 37.8704 24.7096 37.8696 24.8173C37.8652 25.401 37.8676 25.985 37.8676 26.5687C37.886 26.5687 37.904 26.5687 37.9224 26.5691C37.9224 27.9731 37.92 29.3771 37.9236 30.7811C37.9256 31.3764 37.3828 31.1854 37.213 31.1338ZM19.5078 17.7105C19.6423 15.8617 19.593 14.0018 19.5642 12.1582C19.5474 11.0797 19.6747 9.96277 19.4377 8.87786C19.3596 8.52036 19.5182 8.14604 19.3961 7.77413C19.3516 7.63881 19.4985 7.50471 19.6567 7.50311C21.1247 7.4895 22.5932 7.47107 24.0608 7.48629C24.3851 7.48949 24.5116 7.64122 24.5292 8.07638C24.592 9.61968 24.588 11.1622 24.5804 12.7043C24.5776 13.278 24.4759 13.8576 24.5268 14.4325C24.5852 15.0943 24.2249 15.22 23.6873 15.1776C22.5827 15.0903 22.4554 15.1972 22.5175 16.3097C22.5948 17.6981 22.4907 19.0808 22.453 20.4664C22.4346 21.1346 22.4658 21.8043 22.4803 22.4733C22.4867 22.7719 22.5035 22.9997 22.0579 23.0117C21.4318 23.0286 20.8085 23.1619 20.4149 23.2147C19.3328 23.1955 19.282 23.1899 19.4245 21.9392C19.5846 20.5277 19.4053 19.1181 19.5078 17.7105ZM28.2399 22.326C28.2891 22.9597 27.8804 23.294 27.0005 23.1214C26.229 22.9705 25.4508 22.9901 24.6985 22.9929C23.9675 22.9957 24.0636 22.6819 24.086 22.3896C24.0228 20.6273 23.9683 19.0072 23.9051 17.387C23.8846 16.8626 23.801 16.4795 24.6509 16.6068C25.6377 16.7545 26.673 16.6108 27.6842 16.5479C28.1786 16.5171 28.2663 16.8305 28.2319 17.1524C28.0473 18.8795 28.1058 20.6017 28.2399 22.326ZM31.9614 19.8403C32.5211 18.6829 32.6516 17.4403 33.4243 16.2717C33.7838 17.3758 34.0996 18.3498 34.4175 19.323C34.54 19.6986 34.3606 19.8819 34.0156 19.8323C33.3542 19.7366 32.6956 19.7526 31.9614 19.8403ZM51.7553 21.5557C51.8333 22.4573 51.5783 23.3172 51.628 24.2096C51.724 25.9426 51.7389 27.6797 51.8261 29.4135C51.8425 29.7386 51.8077 30.0545 51.8077 30.3747C51.8069 31.9012 51.7641 33.4269 51.7252 34.9518C51.6908 36.3041 51.6424 37.6645 51.67 39.0228C51.6932 40.1742 51.1103 41.0017 50.1459 41.6566C48.4237 42.8268 46.5349 43.5506 44.5644 44.1847C43.1749 44.6319 41.6968 44.7484 40.3665 45.4182C39.5946 45.8069 39.4605 45.6059 39.3965 44.7328C39.2115 42.2031 39.3789 39.6702 39.2664 37.14C39.2163 36.0107 39.3869 34.8701 39.3192 33.7432C39.2448 32.5053 39.2464 31.2787 39.2968 30.0409C39.3584 28.5336 39.1927 27.0239 39.2452 25.5106C39.2912 24.1727 39.1879 22.8292 39.2484 21.4929C39.3104 20.1293 39.113 18.7706 39.2439 17.4082C39.2728 17.1084 39.2776 16.9807 39.6551 16.8874C41.1716 16.5143 42.6528 15.9962 44.1721 15.6355C46.2823 15.1347 48.1935 14.1487 50.1675 13.3156C50.7612 13.065 51.0675 12.3808 51.8005 12.1642C51.7661 14.0158 51.7889 15.8165 51.6728 17.6228C51.5895 18.9271 51.6424 20.2506 51.7553 21.5557ZM1.76284 8.02554C2.33252 6.86297 3.44745 6.44542 4.40546 5.81328C6.06726 4.71636 7.98367 4.15949 9.82482 3.48733C11.4021 2.91165 13.0868 2.6226 14.7626 2.34837C17.0637 1.97206 19.3961 1.85556 21.6908 1.44081C21.9698 1.39037 22.2785 1.47643 22.5691 1.52407C23.614 1.69461 24.6653 1.5597 25.6677 1.36074C26.8399 1.12814 27.926 1.48404 29.0502 1.5489C29.4213 1.57011 29.7832 1.57452 30.1499 1.54209C31.9342 1.38436 33.6797 1.76949 35.4383 1.94123C36.8335 2.07734 38.2255 2.27791 39.6067 2.52011C40.5679 2.68865 41.5155 2.95008 42.4551 3.21991C43.2345 3.44369 43.9843 3.77117 44.7634 3.99776C45.8503 4.31402 46.8519 4.84967 47.8992 5.25681C49.0198 5.69278 50.0899 6.44141 50.9658 7.27931C52.2076 8.46751 52.1196 10.245 50.3329 11.466C48.613 12.641 46.7298 13.384 44.7594 14.0202C43.3474 14.4758 41.8533 14.6135 40.487 15.2564C39.9465 15.5106 39.2536 15.4586 38.627 15.5078C37.9405 15.5619 37.6714 15.8541 37.7131 16.5131C37.8456 18.6024 37.7883 20.693 37.7563 22.7835C37.7515 23.0974 37.6882 23.2083 37.3804 23.1915C36.3327 23.1338 35.2778 23.1394 34.2393 23.0101C33.7369 22.9477 33.8762 22.3896 33.8566 22.0277C33.8158 21.2759 33.9603 21.1574 34.6825 21.2995C35.0616 21.374 35.442 21.3199 35.7943 21.2406C36.2666 21.1346 36.3944 20.7166 36.257 20.2927C35.8299 18.9739 35.4151 17.6476 34.9019 16.3613C34.5824 15.5607 34.5 14.6827 34.0524 13.9305C33.9087 13.6891 33.8118 13.3812 33.4595 13.4121C33.098 13.4437 32.9238 13.6963 32.7541 14.013C32.186 15.0739 31.8185 16.224 31.3765 17.3294C31.025 18.2085 30.5711 19.0672 30.3481 20.004C30.1927 20.6562 30.5062 21.0505 31.3133 21.1262C31.6964 21.1622 32.194 20.9848 32.4434 21.1694C32.7225 21.376 32.4258 21.8692 32.4342 22.2379C32.4378 22.3912 32.5335 22.5285 32.5111 22.7095C32.4719 23.0254 32.4627 23.2211 32.0195 23.1403C31.4646 23.039 30.8885 23.1499 30.3136 23.1058C29.7316 23.0614 29.6659 22.8324 29.7283 22.3656C29.7624 22.1118 29.7344 21.8496 29.7344 21.5909C29.7127 21.5909 29.6911 21.5909 29.6695 21.5909C29.6695 19.769 29.6795 17.9475 29.6655 16.1256C29.6583 15.192 29.547 15.1111 28.5522 15.0166C27.9224 14.957 27.2727 15.0571 26.6369 15.1291C26.1185 15.188 25.9344 15.1175 25.8999 14.4846C25.8387 13.3576 25.9131 12.2275 25.8467 11.0981C25.7758 9.90032 25.6825 8.64806 25.8483 7.42784C25.9668 6.5547 25.7366 6.24444 24.8811 6.1936C23.0147 6.0827 21.1487 6.14956 19.2836 6.20401C18.2259 6.23483 18.175 6.37615 18.1658 7.41583C18.1478 9.44433 18.2847 11.47 18.1534 13.5033C18.0641 14.8893 18.2687 16.2917 18.2539 17.6857C18.2355 19.4251 18.2059 21.1634 18.2859 22.9012C18.2971 23.1471 18.2419 23.2824 17.9857 23.1979C17.4156 23.0097 16.8295 23.0658 16.2622 23.1306C15.6333 23.2027 15.3879 22.9401 15.4291 22.3744C15.5484 20.7254 15.2686 19.0716 15.4976 17.427C15.5496 17.0547 15.4668 16.6912 15.5144 16.3137C15.5684 15.8818 15.2622 15.5302 14.8182 15.5138C13.6244 15.4694 12.5319 15.021 11.4017 14.776C9.94692 14.4606 8.57376 13.9281 7.14296 13.5726C5.22895 13.0974 3.61039 12.0185 2.0779 10.8263C1.41014 10.3083 1.40854 8.74895 1.76284 8.02554ZM1.52183 22.7123C1.38772 21.432 1.50462 20.0885 1.54225 18.7734C1.58068 17.4262 1.44537 16.0747 1.45458 14.7256C1.46018 13.8937 1.29204 13.0598 1.4818 12.1542C1.7168 12.2863 1.92898 12.3576 2.0771 12.4965C3.41222 13.7508 5.15489 14.1695 6.77025 14.8705C7.95965 15.3865 9.18868 15.6996 10.4273 15.9914C11.5407 16.2537 12.5883 16.7457 13.7285 16.8926C14.0159 16.9294 14.0003 17.1864 13.9923 17.3057C13.9275 18.2934 13.9655 19.2878 13.9559 20.271C13.9447 21.4236 13.9823 22.5862 13.9431 23.7408C13.8898 25.3237 14.0968 26.9022 13.9251 28.4907C13.8298 29.3731 13.9863 30.2794 13.9827 31.175C13.9699 34.2508 13.9339 37.3266 13.9119 40.4024C13.9006 41.9409 13.8974 43.4798 13.8994 45.0186C13.8998 45.4442 13.7233 45.632 13.2937 45.5451C13.1784 45.5219 13.0607 45.5067 12.949 45.4722C10.529 44.724 8.06974 44.0795 5.70615 43.1823C4.39905 42.6859 3.17643 41.8644 2.14036 40.882C1.68998 40.4548 1.54866 39.7566 1.53785 39.1325C1.49621 36.7449 1.39052 34.3577 1.3657 31.9737C1.34929 30.4036 1.43216 28.8102 1.487 27.2309C1.53945 25.736 1.68157 24.2376 1.52183 22.7123Z" fill="#C7CED8"/>
<path d="M53.937 48.7881C53.5884 48.8201 53.2453 48.9162 52.8966 48.9534C51.1379 49.14 49.3888 49.3686 47.683 49.8654C47.2851 49.9811 46.8559 49.9899 46.4411 50.0476C45.3843 50.084 44.3526 50.2878 43.361 50.6341C42.9246 50.7866 42.9546 51.2258 43.1908 51.5252C43.9266 52.4592 44.6693 53.3936 45.4847 54.2559C45.8498 54.6418 45.6953 54.7387 45.3618 54.8929C43.9534 55.5438 42.4686 55.9645 40.9561 56.2668C39.0581 56.6459 37.1389 56.9202 35.2417 57.3049C33.7229 57.6131 32.1832 57.7468 30.6523 57.7424C28.2943 57.736 25.9391 57.8757 23.5771 57.7833C21.8877 57.7172 20.2423 57.3681 18.5665 57.226C17.3203 57.1203 16.0776 56.786 14.8346 56.5458C13.869 56.3593 12.8925 56.1727 11.9662 55.8553C10.4737 55.344 9.0401 54.6815 7.60289 54.0213C6.31621 53.43 5.01712 52.9016 3.90378 52.0108C3.12392 51.3867 2.20075 50.9419 1.60185 50.0856C1.40888 49.8098 1.01775 49.7265 0.717902 49.9699C0.414447 50.2165 0.376814 50.5176 0.614213 50.8931C0.926876 51.3875 1.38806 51.6978 1.82243 52.0461C2.69076 52.7422 3.48062 53.6206 4.46505 54.0654C5.62763 54.591 6.74857 55.1819 7.89313 55.736C9.79193 56.6551 11.7131 57.5427 13.8706 57.7533C14.5575 57.8201 15.2485 57.993 15.9331 58.17C17.2126 58.5007 18.5457 58.6196 19.8348 58.9198C20.6471 59.1092 21.4637 58.9883 22.2712 59.1316C25.3246 59.6741 28.4012 59.4058 31.4658 59.3054C33.3894 59.2421 35.2734 58.7541 37.1746 58.4542C38.2903 58.2781 39.3692 57.941 40.4745 57.7456C42.3601 57.4126 44.2249 57.0539 45.9852 56.2512C46.261 56.1255 46.703 55.7976 46.9988 56.1379C47.7963 57.0551 48.5829 57.991 49.2691 58.9915C49.6038 59.4795 49.9741 59.9931 50.4958 59.9999C51.0014 60.0067 51.3068 59.4279 51.4838 58.9246C52.007 57.4346 52.5403 55.9485 52.991 54.4325C53.4678 52.8275 54.2633 51.3343 54.6761 49.7017C54.853 49.0047 54.6697 48.7209 53.937 48.7881ZM50.3841 57.5247C50.2824 57.7729 50.2279 57.8093 49.9637 57.5715C49.2331 56.9141 48.7407 56.0658 48.0641 55.3709C47.04 54.3188 46.3339 53.0061 45.2954 51.9624C44.9807 51.6461 45.2305 51.4796 45.5224 51.4628C46.9588 51.3799 48.3291 50.9191 49.7719 50.7938C50.8809 50.6973 52.0467 50.5568 53.2124 50.098C52.3901 52.7026 51.3745 55.1086 50.3841 57.5247Z" fill="#377DFF"/>
<path d="M32.6555 10.4131C34.2493 10.2758 35.0731 9.43472 35.0171 6.83213C34.9931 5.71239 33.742 4.77921 32.2492 4.78601C30.7151 4.68073 29.3467 6.23083 29.3567 7.99231C29.3648 9.27099 31.0225 10.5537 32.6555 10.4131ZM32.3505 6.0703C33.1155 6.06589 33.8309 6.6792 33.8289 7.33776C33.8253 8.35461 33.0995 9.25057 32.264 9.26898C31.5482 9.2846 30.7843 8.54237 30.7711 7.81736C30.7499 6.65919 31.2768 6.0763 32.3505 6.0703Z" fill="#377DFF"/>
<path d="M10.2985 25.0382C11.0688 25.23 11.3654 24.9758 11.4315 24.1623C11.4483 23.9533 11.4543 23.7435 11.4731 23.3896C11.4627 23.2083 11.4475 22.8836 11.4239 22.5597C11.4119 22.3964 11.3923 22.2539 11.1797 22.1934C10.3794 21.9664 9.84377 22.3696 9.91182 23.1803C9.94065 23.5249 9.98548 23.864 9.98829 24.2143C9.98989 24.4693 9.89861 24.9385 10.2985 25.0382Z" fill="#377DFF"/>
<path d="M10.8205 34.238C10.5162 34.288 10.037 34.0678 10.1015 34.565C10.1915 35.2576 10.0114 35.9506 10.1727 36.6288C10.2076 36.7757 10.1439 37.0023 10.441 37.0411C11.2773 37.1496 11.5867 36.9162 11.5395 36.1031C11.5287 35.9162 11.5375 35.7472 11.5559 35.5631C11.662 34.5126 11.477 34.2187 10.8205 34.238Z" fill="#377DFF"/>
<path d="M10.7044 32.9151C11.246 32.9932 11.5283 32.8555 11.4466 32.2458C11.381 31.7554 11.3866 31.251 11.4078 30.7549C11.4194 30.4799 11.3569 30.1636 11.0967 30.311C10.76 30.5015 10.1247 29.9386 10.0667 30.7109C10.0298 31.1993 10.053 31.6921 10.0202 32.1809C9.98499 32.7038 10.0935 33.0569 10.7044 32.9151Z" fill="#377DFF"/>
<path d="M10.5951 38.2963C10.1223 38.0649 10.2132 38.4977 10.1824 38.673C10.0655 39.3376 10.1628 40.0001 10.2681 40.6611C10.3077 40.9109 10.1235 41.3273 10.5687 41.2648C10.9186 41.2156 11.5383 41.3585 11.4595 40.6207C11.4274 40.322 11.4543 40.0174 11.4543 39.6166C11.3722 39.4112 11.4799 39.1094 11.4863 38.8071C11.5019 38.0489 10.9022 38.4464 10.5951 38.2963Z" fill="#377DFF"/>
<path d="M10.5849 21.0468C11.0373 21.1032 11.3552 20.9383 11.3363 20.3902C11.3239 20.0267 11.3672 19.6608 11.3852 19.2961C11.4264 18.4494 11.2511 18.1171 10.6794 18.2096C10.1549 18.2944 9.90073 18.674 9.99 19.2612C10.0412 19.5991 10.0372 19.9702 9.95157 20.2989C9.79464 20.8982 10.1866 20.9971 10.5849 21.0468Z" fill="#377DFF"/>
<path d="M10.6563 26.2545C10.0634 26.2356 10.013 26.5787 10.0438 27.0199C10.0795 27.5283 10.2164 28.0536 10.1319 28.5404C9.97338 29.4527 10.7712 28.6809 10.9618 29.0464C11.0179 29.1541 11.4086 28.9451 11.3565 28.59C11.2805 28.068 11.5299 27.5468 11.3541 27.0555C11.5171 26.4066 11.1916 26.2713 10.6563 26.2545Z" fill="#377DFF"/>
<path d="M42.3694 25.0516C43.1841 25.1617 43.2874 24.6841 43.3038 24.0804C43.3082 23.917 43.3046 23.7537 43.3046 23.5904C43.3466 22.2112 43.347 22.2296 42.116 22.2372C41.8546 22.2388 41.8133 22.266 41.7969 22.5146C41.7497 23.2441 41.8642 23.9535 41.9491 24.6725C41.9919 25.0336 42.0672 25.0107 42.3694 25.0516Z" fill="#377DFF"/>
<path d="M42.3328 34.2431C41.9488 34.1394 41.8696 34.4881 41.944 34.7199C42.0786 35.1399 41.9196 35.5518 41.9993 36.0394C41.9817 36.1896 41.9709 36.4094 42.0133 36.6488C42.1474 37.4062 42.6763 36.8269 42.9933 36.9594C43.3524 37.1095 43.3901 36.6924 43.3953 36.5511C43.4193 35.9021 43.4073 35.2468 43.3384 34.601C43.2603 33.8788 42.6755 34.3356 42.3328 34.2431Z" fill="#377DFF"/>
<path d="M42.6966 32.9092C42.9264 32.9516 43.3063 33.0265 43.3023 32.5617C43.2967 31.9007 43.2947 31.2398 43.2807 30.5792C43.2767 30.3927 43.1742 30.299 42.9668 30.2778C42.0769 30.1865 41.8791 30.3578 41.8999 31.243C41.9027 31.3595 41.9232 31.4756 41.9356 31.5921C41.9256 31.5925 41.9152 31.5929 41.9051 31.5933C41.9051 31.9187 41.8943 32.245 41.9075 32.5701C41.9336 33.1926 42.4248 32.8587 42.6966 32.9092Z" fill="#377DFF"/>
<path d="M42.8566 38.2986C42.1973 38.1609 41.9911 38.3647 41.9847 39.0332C41.9783 39.6802 42.1236 40.3091 42.108 40.9525C42.1044 41.0938 42.1304 41.2735 42.3698 41.2984C42.9891 41.3628 43.2894 41.1118 43.309 40.4672C43.3174 40.189 43.3106 39.9104 43.3106 39.4684C43.315 39.3992 43.3134 39.1646 43.3482 38.9352C43.4079 38.5388 43.2582 38.3823 42.8566 38.2986Z" fill="#377DFF"/>
<path d="M42.4644 21.0455C42.8667 21.0891 43.197 20.965 43.1894 20.4366C43.183 19.9842 43.2371 19.531 43.2643 19.0782C43.3087 18.581 43.1394 18.1751 42.5769 18.2171C42.1129 18.2519 41.8139 18.547 41.8291 19.075C41.8411 19.4918 41.8855 19.9237 41.799 20.3237C41.6653 20.941 42.0789 21.0034 42.4644 21.0455Z" fill="#377DFF"/>
<path d="M41.9855 28.5846C41.9031 29.4537 42.6753 28.6506 42.8538 29.0526C42.8819 29.1158 43.2598 28.9393 43.2137 28.6178C43.1353 28.0718 43.3631 27.5277 43.219 27.0149C43.3543 26.3988 43.0528 26.2722 42.5388 26.2554C41.9687 26.2362 41.8606 26.5221 41.897 26.9917C41.9387 27.5229 42.0352 28.0614 41.9855 28.5846Z" fill="#377DFF"/>
<path d="M23.1182 10.3785C23.7575 10.4714 23.7439 9.90972 23.7703 9.54941C23.7956 9.20753 23.5109 8.91848 23.1154 8.89446C22.6042 8.86363 22.4748 9.22994 22.4961 9.62988C22.5145 9.98778 22.5397 10.4125 23.1182 10.3785Z" fill="#377DFF"/>
<path d="M23.1218 13.6341C23.7672 13.7178 23.7488 13.1525 23.77 12.7962C23.79 12.4647 23.5106 12.1657 23.1058 12.1497C22.5906 12.1293 22.4737 12.4992 22.4961 12.8951C22.5165 13.2542 22.5486 13.6777 23.1218 13.6341Z" fill="#377DFF"/>
<path d="M21.1285 21.402C20.8107 21.3924 20.5593 21.5561 20.5717 21.9633C20.5853 22.4121 20.6113 22.808 21.2014 22.848C21.7394 22.8849 21.643 22.5057 21.6706 22.119C21.7394 21.7575 21.6153 21.4164 21.1285 21.402Z" fill="#377DFF"/>
<path d="M20.4297 15.736C20.4441 16.1868 20.473 16.5791 21.0615 16.6187C21.6019 16.6548 21.499 16.272 21.5327 15.8417C21.6191 15.5094 21.4558 15.1915 20.9838 15.1735C20.6683 15.1615 20.4169 15.3272 20.4297 15.736Z" fill="#377DFF"/>
<path d="M21.0615 19.7335C21.6019 19.7695 21.4991 19.3868 21.5327 18.9564C21.6192 18.6242 21.4558 18.3063 20.9838 18.2883C20.6684 18.2763 20.4166 18.4416 20.4294 18.8507C20.4442 19.3019 20.4734 19.6943 21.0615 19.7335Z" fill="#377DFF"/>
<path d="M20.9179 10.2475C21.4567 10.2844 21.3595 9.90563 21.3875 9.51731C21.4563 9.15701 21.3322 8.81632 20.8458 8.80191C20.528 8.7923 20.2765 8.95604 20.2886 9.36278C20.3022 9.81076 20.3274 10.2071 20.9179 10.2475Z" fill="#377DFF"/>
<path d="M20.9353 13.5061C21.4658 13.5318 21.3581 13.1398 21.3881 12.7403C21.473 12.3744 21.2996 12.0637 20.8268 12.0617C20.517 12.0605 20.2692 12.2158 20.288 12.6374C20.3084 13.1022 20.3633 13.4785 20.9353 13.5061Z" fill="#377DFF"/>
<path d="M27.0827 19.2991C27.7673 19.3339 27.7292 18.7611 27.7352 18.4172C27.7404 18.1121 27.4578 17.7942 27.027 17.8131C26.5006 17.8359 26.4377 18.2206 26.4622 18.6025C26.4854 18.9756 26.565 19.3748 27.0827 19.2991Z" fill="#377DFF"/>
<path d="M27.1973 20.927C26.6769 20.9222 26.5808 21.2965 26.602 21.6876C26.6216 22.0535 26.6724 22.4659 27.2285 22.4122C27.8863 22.4811 27.8602 21.911 27.8755 21.5603C27.8891 21.2417 27.6136 20.931 27.1973 20.927Z" fill="#377DFF"/>
<path d="M25.3672 20.8378C25.0534 20.829 24.8036 20.9911 24.8184 21.4051C24.8348 21.8615 24.8728 22.2482 25.4561 22.2826C25.9926 22.3142 25.8885 21.9287 25.9197 21.5172C26.0054 21.1661 25.8376 20.8514 25.3672 20.8378Z" fill="#377DFF"/>
<path d="M25.3552 19.1736C25.8789 19.1748 25.7383 18.7629 25.7804 18.3806C25.8524 18.0371 25.6815 17.7444 25.2539 17.718C24.9333 17.698 24.6771 17.8673 24.6755 18.2621C24.6735 18.7429 24.7387 19.172 25.3552 19.1736Z" fill="#377DFF"/>
</svg>
