<svg width="12" height="13" viewBox="0 0 12 13" fill="none" xmlns="http://www.w3.org/2000/svg">
<path d="M12 6.00195C12 9.31566 9.31371 12.002 6 12.002C2.68629 12.002 0 9.31566 0 6.00195C0 2.68824 2.68629 0.00195312 6 0.00195312C9.31371 0.00195312 12 2.68824 12 6.00195ZM4.01516 3.48679C3.86872 3.34034 3.63128 3.34034 3.48484 3.48679C3.33839 3.63323 3.33839 3.87067 3.48484 4.01712L5.46967 6.00195L3.48484 7.98679C3.33839 8.13323 3.33839 8.37067 3.48484 8.51712C3.63128 8.66356 3.86872 8.66356 4.01516 8.51712L6 6.53228L7.98483 8.51712C8.13128 8.66356 8.36872 8.66356 8.51517 8.51712C8.66161 8.37067 8.66161 8.13323 8.51517 7.98679L6.53033 6.00195L8.51517 4.01712C8.66161 3.87067 8.66161 3.63323 8.51517 3.48679C8.36872 3.34034 8.13128 3.34034 7.98483 3.48679L6 5.47162L4.01516 3.48679Z" fill="#F04438"/>
</svg>
