<svg height="512pt" viewBox="0 0 512 512" width="512pt" xmlns="http://www.w3.org/2000/svg"><path d="m512 256c0 64.636719-23.949219 123.683594-63.46875 168.730469-46.925781 53.5-115.785156 87.269531-192.53125 87.269531-77.257812 0-146.527344-34.21875-193.460938-88.347656-38.964843-44.90625-62.539062-103.539063-62.539062-167.652344 0-70.886719 28.808594-135.042969 75.367188-181.394531 46.300781-46.109375 110.132812-74.605469 180.632812-74.605469s134.332031 28.496094 180.632812 74.605469c46.558594 46.351562 75.367188 110.507812 75.367188 181.394531zm0 0" fill="#f2f2f2"/><path d="m506.984375 150.957031c0-.054687-.011719-.09375-.011719-.136719-.070312-.492187-.679687-4.691406-2.058594-10.679687-2.789062-12.109375-8.734374-31.574219-19.683593-42.652344-2.988281-3.125-6.019531-5.808593-9.050781-8.109375-14.753907-11.21875-29.632813-13.71875-39.546876-14.773437-1.222656-.136719-2.375-.238281-3.4375-.34375l-3.273437-.324219c-68.785156-5.003906-172.730469-5.550781-174.097656-5.558594-1.035157.007813-104.984375.554688-174.144531 5.601563l-2.875.28125c-1.0625.105469-2.214844.207031-3.4375.34375-9.925782 1.054687-24.824219 3.554687-39.539063 14.753906-3.019531 2.289063-6.027344 4.953125-8.972656 8.035156-10.984375 11.117188-16.9375 30.53125-19.75 42.695313-1.410157 6.058594-2.027344 10.324218-2.101563 10.867187-.0625.394531-5.003906 40.917969-5.003906 80.917969v24.125c0 64.113281 23.574219 122.746094 62.539062 167.652344 6.550782 1.589844 12.546876 2.320312 17.375 2.90625 2.328126.273437 4.410157.5 6.925782.949218 39.53125 3.792969 163.800781 4.953126 169.171875 5.007813 1.042969 0 105.117187-.230469 174.339843-5.203125l2.976563-.316406c4.023437-.394532 9.269531-.90625 15.203125-2.265625 39.519531-45.046875 63.46875-104.09375 63.46875-168.730469v-24.117188c0-40.007812-4.964844-80.53125-5.015625-80.925781zm0 0" fill="#f00"/><path d="m337.128906 250.449219-133.804687-77.25v154.5zm0 0" fill="#f2f2f2"/></svg>